<?xml version="1.0" encoding="UTF-8" standalone="no"?>
<svg
   width="30.913481mm"
   height="7.4218297mm"
   viewBox="0 0 61.826962 14.843659"
   version="1.1"
   id="svg5"
   sodipodi:docname="espressosys_logo.svg"
   inkscape:version="1.1.2 (08b2f3d93c, 2022-04-05)"
   xmlns:inkscape="http://www.inkscape.org/namespaces/inkscape"
   xmlns:sodipodi="http://sodipodi.sourceforge.net/DTD/sodipodi-0.dtd"
   xmlns="http://www.w3.org/2000/svg"
   xmlns:svg="http://www.w3.org/2000/svg">
  <defs
     id="defs11" />
  <sodipodi:namedview
     id="namedview9"
     pagecolor="#ffffff"
     bordercolor="#666666"
     borderopacity="1.0"
     inkscape:pageshadow="2"
     inkscape:pageopacity="0.0"
     inkscape:pagecheckerboard="0"
     inkscape:document-units="mm"
     showgrid="false"
     inkscape:zoom="1.5554293"
     inkscape:cx="169.40661"
     inkscape:cy="252.34191"
     inkscape:window-width="3768"
     inkscape:window-height="2096"
     inkscape:window-x="72"
     inkscape:window-y="27"
     inkscape:window-maximized="1"
     inkscape:current-layer="svg5" />
  <g
     id="layer1"
     transform="translate(-15.258784,-14.910516)">
    <g
       id="g1144"
       transform="translate(0,21.166667)">
      <path
         fill-rule="evenodd"
         clip-rule="evenodd"
         d="m 15.262268,0.37680563 c 5.6e-5,0.07321 0.02286,0.144491 0.06522,0.20417 0.04236,0.05961 0.102106,0.10477 0.171154,0.128894 l 5.800819,2.03199097 c 0.03647,0.01262 0.07546,0.01655 0.113747,0.01122 0.03815,-0.0056 0.07462,-0.01992 0.106173,-0.04222 0.03142,-0.0223 0.05722,-0.05189 0.0749,-0.08626 0.01781,-0.03436 0.02707,-0.07237 0.02707,-0.110942 v -3.10759367 l 8.244798,-2.89076903 c 0.06915,-0.02426 0.129035,-0.06929 0.171378,-0.129035 0.04236,-0.05975 0.06522,-0.131138 0.06522,-0.204436 0,-0.07321 -0.02286,-0.144687 -0.06522,-0.204436 -0.04236,-0.05975 -0.102246,-0.104911 -0.171378,-0.129035 l -5.888403,-2.0647396 c -0.151448,-0.05302 -0.316388,-0.05302 -0.467836,0 l -8.010353,2.8086816 c -0.06915,0.02412 -0.129035,0.06929 -0.171476,0.129035 -0.04236,0.05975 -0.06522,0.131139 -0.06522,0.204478 0,0 -7.29e-4,2.62023073 -3.64e-4,3.45103273 z"
         fill="#000000"
         id="path1095"
         style="stroke-width:0.371092" />
      <path
         fill-rule="evenodd"
         clip-rule="evenodd"
         d="m 30.09887,1.9545376 c -4.49e-4,-0.07293 -0.02342,-0.143832 -0.06578,-0.203174 -0.04236,-0.05933 -0.102106,-0.104069 -0.170845,-0.128193 l -5.800421,-2.03194897 c -0.03647,-0.01262 -0.07546,-0.01655 -0.113747,-0.01122 -0.03829,0.0056 -0.07462,0.01992 -0.106173,0.04222 -0.03156,0.0223 -0.05722,0.05189 -0.0749,0.08626 -0.01767,0.03436 -0.02693,0.07237 -0.02693,0.110942 V 2.9251656 l -8.244832,2.8907747 c -0.06915,0.02426 -0.129034,0.06943 -0.171378,0.129175 -0.04236,0.05975 -0.06508,0.131139 -0.06508,0.204432 0,0.07321 0.02272,0.144686 0.06508,0.204435 0.04236,0.05975 0.102247,0.104771 0.171378,0.129035 l 5.88918,2.064726 c 0.151294,0.05302 0.316136,0.05302 0.467428,0 l 8.010714,-2.808691 c 0.06914,-0.02412 0.129034,-0.06929 0.171335,-0.129035 0.04236,-0.05975 0.06508,-0.131138 0.06494,-0.204436 0,0 3.64e-4,-2.6202077 0,-3.4510377 z"
         fill="#000000"
         id="path1097"
         style="stroke-width:0.371092" />
    </g>
    <path
       style="fill:#000000;stroke:none;stroke-width:0.0168983px;stroke-linecap:butt;stroke-linejoin:miter;stroke-opacity:1"
       d="m 36.525819,16.100818 h 3.939363 v 0.827725 h -2.981347 v 1.433194 h 2.759088 v 0.781741 h -2.759088 v 1.601804 h 3.034996 v 0.827725 h -3.993012 z m 5.532609,3.648127 c 0,0.209486 0.03577,0.388315 0.107297,0.536488 0.07154,0.148173 0.171166,0.270799 0.298901,0.367879 0.127736,0.09197 0.273355,0.160947 0.436857,0.206931 0.16861,0.04088 0.349995,0.06132 0.544152,0.06132 0.209487,0 0.388316,-0.02299 0.53649,-0.06898 0.148173,-0.0511 0.268245,-0.114963 0.360214,-0.191604 0.09196,-0.07664 0.158392,-0.163501 0.199267,-0.260581 0.04088,-0.102184 0.06132,-0.204377 0.06132,-0.306565 0,-0.209486 -0.04854,-0.362768 -0.145619,-0.459848 -0.09197,-0.102184 -0.194158,-0.17372 -0.306566,-0.214596 -0.194158,-0.07154 -0.421527,-0.137954 -0.682107,-0.199267 -0.255471,-0.06643 -0.572255,-0.150728 -0.950353,-0.252916 -0.235033,-0.06132 -0.431746,-0.14051 -0.590138,-0.237588 -0.153282,-0.102184 -0.275908,-0.214596 -0.367878,-0.337222 -0.09196,-0.122626 -0.158392,-0.252917 -0.199268,-0.390871 -0.03577,-0.137954 -0.05365,-0.278464 -0.05365,-0.421527 0,-0.275909 0.05621,-0.513497 0.168611,-0.712764 0.117516,-0.204377 0.2708,-0.372988 0.459848,-0.505833 0.189048,-0.132846 0.403644,-0.229924 0.643787,-0.291238 0.240142,-0.06643 0.482841,-0.09963 0.728093,-0.09963 0.286127,0 0.554372,0.03832 0.804734,0.114963 0.25547,0.07154 0.47773,0.181383 0.666779,0.329557 0.194158,0.148173 0.347441,0.332112 0.459847,0.551817 0.112408,0.214596 0.168612,0.464958 0.168612,0.751085 h -0.958022 c -0.02555,-0.352553 -0.145618,-0.600359 -0.360214,-0.743423 -0.214596,-0.148174 -0.48795,-0.222261 -0.820062,-0.222261 -0.112408,0 -0.227369,0.01277 -0.344887,0.03832 -0.117516,0.02044 -0.224814,0.05876 -0.321893,0.114962 -0.09708,0.0511 -0.17883,0.122627 -0.245252,0.214595 -0.06132,0.09197 -0.09197,0.206933 -0.09197,0.344887 0,0.194158 0.05876,0.34744 0.176275,0.459847 0.122627,0.107298 0.281019,0.18905 0.475177,0.245252 0.02044,0.0051 0.09963,0.0281 0.237587,0.06898 0.143064,0.03577 0.301456,0.07665 0.475177,0.122627 0.17372,0.04599 0.342331,0.09196 0.505832,0.137955 0.168612,0.04088 0.288683,0.07154 0.360215,0.09196 0.17883,0.05621 0.334667,0.132845 0.467512,0.229924 0.132845,0.09707 0.242697,0.209486 0.329557,0.337222 0.09197,0.122626 0.158392,0.25547 0.199268,0.398534 0.04599,0.143064 0.06898,0.286128 0.06898,0.429192 0,0.306565 -0.06387,0.5697 -0.191603,0.789406 -0.122626,0.214595 -0.286128,0.39087 -0.490505,0.528824 -0.204376,0.137955 -0.436855,0.237589 -0.697435,0.298901 -0.260581,0.06643 -0.526271,0.09964 -0.797071,0.09964 -0.311674,0 -0.605465,-0.03832 -0.881375,-0.114963 -0.275908,-0.07665 -0.516051,-0.194158 -0.720428,-0.35255 -0.204377,-0.158392 -0.367879,-0.360214 -0.490505,-0.605466 -0.122626,-0.250362 -0.186493,-0.544153 -0.191603,-0.881375 z m 4.417861,-3.648127 h 2.414202 c 0.388316,0 0.7051,0.05621 0.950352,0.16861 0.245252,0.112408 0.434301,0.252917 0.567145,0.421528 0.132846,0.16861 0.222261,0.35255 0.268245,0.551816 0.0511,0.199268 0.07665,0.383208 0.07665,0.551818 0,0.168611 -0.02555,0.352551 -0.07665,0.551817 -0.04599,0.194159 -0.135399,0.375543 -0.268245,0.544154 -0.132844,0.168611 -0.321893,0.30912 -0.567145,0.421527 -0.245252,0.107298 -0.562036,0.160947 -0.950352,0.160947 h -1.456186 v 2.099972 h -0.958016 z m 0.958016,2.590476 h 1.402537 c 0.107297,0 0.21715,-0.01533 0.329557,-0.04599 0.112408,-0.03066 0.214596,-0.0792 0.306566,-0.145618 0.09707,-0.07154 0.17372,-0.163502 0.229924,-0.27591 0.06132,-0.117516 0.09196,-0.263135 0.09196,-0.436855 0,-0.17883 -0.02555,-0.327003 -0.07665,-0.444519 -0.0511,-0.117518 -0.120071,-0.209486 -0.206931,-0.27591 -0.08685,-0.07154 -0.186494,-0.120071 -0.298902,-0.145617 -0.112406,-0.02555 -0.232479,-0.03832 -0.360213,-0.03832 h -1.417865 z m 4.230602,-2.590476 h 2.613469 c 0.602911,0 1.055094,0.130289 1.35655,0.39087 0.301456,0.26058 0.452184,0.62335 0.452184,1.088307 0,0.26058 -0.03832,0.477731 -0.114962,0.651451 -0.07665,0.16861 -0.166055,0.306566 -0.268244,0.413863 -0.102194,0.102184 -0.204377,0.176275 -0.306565,0.22226 -0.09708,0.04599 -0.168612,0.07665 -0.214596,0.09196 v 0.01533 c 0.08176,0.01026 0.16861,0.03577 0.26058,0.07665 0.09708,0.04088 0.186495,0.107298 0.268245,0.199268 0.08176,0.08687 0.148173,0.201821 0.199268,0.344885 0.05621,0.143064 0.0843,0.321894 0.0843,0.53649 0,0.321893 0.02299,0.615685 0.06898,0.881375 0.0511,0.260581 0.127735,0.447074 0.229924,0.559481 h -1.026994 c -0.07154,-0.117517 -0.114961,-0.247806 -0.13029,-0.39087 -0.01026,-0.143064 -0.01533,-0.281018 -0.01533,-0.413864 0,-0.250361 -0.01533,-0.464957 -0.04599,-0.643786 -0.03066,-0.183939 -0.08685,-0.334668 -0.168611,-0.452184 -0.08175,-0.122626 -0.194158,-0.212041 -0.337222,-0.268245 -0.137954,-0.05621 -0.316784,-0.08431 -0.53649,-0.08431 h -1.410199 v 2.253254 h -0.958016 z m 0.958016,2.490843 h 1.571146 c 0.306566,0 0.539045,-0.07154 0.697437,-0.214596 0.158392,-0.148174 0.237588,-0.367879 0.237588,-0.659116 0,-0.17372 -0.02555,-0.31423 -0.07665,-0.421528 -0.0511,-0.112406 -0.122626,-0.199266 -0.214595,-0.26058 -0.08687,-0.06132 -0.189049,-0.102184 -0.306566,-0.122626 -0.112407,-0.02044 -0.229924,-0.03066 -0.35255,-0.03066 h -1.555818 z m 4.51494,-2.490843 h 3.939364 v 0.827725 H 58.09588 v 1.433194 h 2.759088 v 0.781741 H 58.09588 v 1.601804 h 3.034996 v 0.827725 h -3.993013 z m 5.53261,3.648127 c 0,0.209486 0.03577,0.388315 0.107297,0.536488 0.07154,0.148173 0.171166,0.270799 0.298901,0.367879 0.127736,0.09197 0.273355,0.160947 0.436855,0.206931 0.168612,0.04088 0.349996,0.06132 0.544154,0.06132 0.209486,0 0.388316,-0.02299 0.53649,-0.06898 0.148172,-0.0511 0.268245,-0.114963 0.360213,-0.191604 0.09196,-0.07664 0.158392,-0.163501 0.199268,-0.260581 0.04088,-0.102184 0.06132,-0.204377 0.06132,-0.306565 0,-0.209486 -0.04854,-0.362768 -0.145618,-0.459848 -0.09197,-0.102184 -0.194158,-0.17372 -0.306566,-0.214596 -0.194158,-0.07154 -0.421527,-0.137954 -0.682108,-0.199267 -0.25547,-0.06643 -0.572254,-0.150728 -0.950352,-0.252916 -0.235033,-0.06132 -0.431746,-0.14051 -0.590138,-0.237588 -0.153282,-0.102184 -0.275908,-0.214596 -0.367878,-0.337222 -0.09197,-0.122626 -0.158392,-0.252917 -0.199268,-0.390871 -0.03577,-0.137954 -0.05365,-0.278464 -0.05365,-0.421527 0,-0.275909 0.05621,-0.513497 0.16861,-0.712764 0.117517,-0.204377 0.270799,-0.372988 0.459849,-0.505833 0.189048,-0.132846 0.403644,-0.229924 0.643786,-0.291238 0.240143,-0.06643 0.48284,-0.09963 0.728093,-0.09963 0.286127,0 0.554372,0.03832 0.804734,0.114963 0.255471,0.07154 0.47773,0.181383 0.66678,0.329557 0.194157,0.148173 0.34744,0.332112 0.459847,0.551817 0.112408,0.214596 0.168611,0.464958 0.168611,0.751085 h -0.958022 c -0.02555,-0.352549 -0.145618,-0.600356 -0.360213,-0.74342 -0.214596,-0.148174 -0.487951,-0.22226 -0.820063,-0.22226 -0.112407,0 -0.22737,0.01277 -0.344886,0.03832 -0.117516,0.02044 -0.224814,0.05876 -0.321894,0.114962 -0.09707,0.0511 -0.178829,0.122627 -0.245252,0.214595 -0.06132,0.09197 -0.09196,0.206933 -0.09196,0.344887 0,0.194158 0.05876,0.34744 0.176275,0.459848 0.122626,0.107297 0.281018,0.189049 0.475176,0.245252 0.02044,0.0051 0.09963,0.0281 0.237588,0.06898 0.143064,0.03577 0.301456,0.07664 0.475176,0.122627 0.173721,0.04599 0.342332,0.09196 0.505833,0.137954 0.168612,0.04088 0.288683,0.07154 0.360215,0.09196 0.178829,0.05621 0.334667,0.132845 0.467511,0.229924 0.132845,0.09707 0.242698,0.209486 0.329558,0.337222 0.09197,0.122626 0.158392,0.25547 0.199268,0.398534 0.04599,0.143064 0.06898,0.286128 0.06898,0.429192 0,0.306565 -0.06387,0.5697 -0.191603,0.789406 -0.122626,0.214595 -0.286128,0.39087 -0.490505,0.528825 -0.204377,0.137954 -0.436855,0.237588 -0.697436,0.2989 -0.260581,0.06643 -0.52627,0.09964 -0.79707,0.09964 -0.311674,0 -0.605466,-0.03832 -0.881375,-0.114963 -0.275909,-0.07665 -0.516051,-0.194158 -0.720429,-0.35255 -0.204376,-0.158391 -0.367878,-0.360214 -0.490504,-0.605466 -0.122626,-0.250362 -0.186494,-0.544153 -0.191603,-0.881375 z m 5.04632,0 c 0,0.209486 0.03577,0.388315 0.107298,0.536488 0.07154,0.148173 0.171165,0.270799 0.298901,0.367879 0.127735,0.09197 0.273353,0.160947 0.436855,0.206931 0.168611,0.04088 0.349996,0.06132 0.544154,0.06132 0.209486,0 0.388315,-0.02299 0.536488,-0.06898 0.148174,-0.0511 0.268245,-0.114963 0.360214,-0.191604 0.09197,-0.07664 0.158392,-0.163501 0.199268,-0.260581 0.04088,-0.102184 0.06132,-0.204377 0.06132,-0.306565 0,-0.209486 -0.04854,-0.362768 -0.145619,-0.459848 -0.09197,-0.102184 -0.194158,-0.17372 -0.306566,-0.214596 -0.194157,-0.07154 -0.421526,-0.137954 -0.682108,-0.199267 -0.25547,-0.06643 -0.572255,-0.150728 -0.950351,-0.252916 -0.235034,-0.06132 -0.431747,-0.14051 -0.590139,-0.237588 -0.153282,-0.102184 -0.275909,-0.214596 -0.367878,-0.337222 -0.09196,-0.122626 -0.158393,-0.252917 -0.199267,-0.390871 -0.03577,-0.137954 -0.05365,-0.278464 -0.05365,-0.421527 0,-0.275909 0.05621,-0.513497 0.16861,-0.712764 0.117517,-0.204377 0.2708,-0.372988 0.459848,-0.505833 0.189049,-0.132846 0.403645,-0.229924 0.643787,-0.291238 0.240143,-0.06643 0.482841,-0.09963 0.728093,-0.09963 0.286127,0 0.554372,0.03832 0.804734,0.114963 0.255471,0.07154 0.47773,0.181383 0.66678,0.329557 0.194158,0.148173 0.34744,0.332112 0.459847,0.551817 0.112408,0.214596 0.168611,0.464958 0.168611,0.751085 h -0.958017 c -0.02555,-0.352549 -0.145618,-0.600356 -0.360214,-0.74342 -0.214596,-0.148174 -0.487949,-0.22226 -0.820061,-0.22226 -0.112408,0 -0.22737,0.01277 -0.344887,0.03832 -0.117516,0.02044 -0.224814,0.05876 -0.321893,0.114962 -0.09709,0.0511 -0.17883,0.122627 -0.245252,0.214595 -0.06132,0.09197 -0.09197,0.206933 -0.09197,0.344887 0,0.194158 0.05876,0.34744 0.176275,0.459848 0.122626,0.107297 0.281018,0.189049 0.475176,0.245252 0.02044,0.0051 0.09963,0.0281 0.237589,0.06898 0.143063,0.03577 0.301455,0.07664 0.475175,0.122627 0.173722,0.04599 0.342332,0.09196 0.505834,0.137954 0.16861,0.04088 0.288682,0.07154 0.360214,0.09196 0.17883,0.05621 0.334667,0.132845 0.467511,0.229924 0.132846,0.09707 0.242699,0.209486 0.329559,0.337222 0.09196,0.122626 0.158392,0.25547 0.199267,0.398534 0.04599,0.143064 0.06898,0.286128 0.06898,0.429192 0,0.306565 -0.06387,0.5697 -0.191604,0.789406 -0.122626,0.214595 -0.286126,0.39087 -0.490504,0.528825 -0.204376,0.137954 -0.436855,0.237588 -0.697436,0.2989 -0.26058,0.06643 -0.52627,0.09964 -0.79707,0.09964 -0.311674,0 -0.605466,-0.03832 -0.881374,-0.114963 -0.27591,-0.07665 -0.516052,-0.194158 -0.720429,-0.35255 -0.204377,-0.158391 -0.367878,-0.360214 -0.490504,-0.605466 -0.122626,-0.250362 -0.186495,-0.544153 -0.191604,-0.881375 z m 6.74782,-2.996677 c -0.291236,0 -0.544153,0.05876 -0.758749,0.176275 -0.209486,0.117518 -0.380652,0.27591 -0.513496,0.475176 -0.132846,0.194159 -0.232479,0.416419 -0.298901,0.66678 -0.06132,0.250362 -0.09197,0.505833 -0.09197,0.766414 0,0.26058 0.03066,0.516051 0.09197,0.766413 0.06643,0.250362 0.166055,0.475176 0.298901,0.674443 0.132844,0.194158 0.30401,0.349995 0.513496,0.467513 0.214596,0.117516 0.467513,0.176275 0.758749,0.176275 0.291237,0 0.541599,-0.05876 0.751085,-0.176275 0.214596,-0.117518 0.388316,-0.273355 0.521162,-0.467513 0.132844,-0.199267 0.229923,-0.424081 0.291237,-0.674443 0.06643,-0.250362 0.09963,-0.505833 0.09963,-0.766413 0,-0.260581 -0.03321,-0.516052 -0.09963,-0.766414 -0.06132,-0.250361 -0.158393,-0.472621 -0.291237,-0.66678 -0.132846,-0.199266 -0.306566,-0.357658 -0.521162,-0.475176 -0.209486,-0.117516 -0.459848,-0.176275 -0.751085,-0.176275 z m 0,-0.781741 c 0.408754,0 0.774078,0.07665 1.095972,0.229924 0.327002,0.153282 0.602911,0.360214 0.827725,0.620794 0.224816,0.260582 0.395981,0.564591 0.513497,0.912032 0.122627,0.347441 0.18394,0.71532 0.18394,1.103636 0,0.393425 -0.06132,0.763858 -0.18394,1.111298 -0.117516,0.347441 -0.288681,0.651452 -0.513497,0.912032 -0.224814,0.260581 -0.500723,0.467512 -0.827725,0.620795 -0.321894,0.148173 -0.687218,0.22226 -1.095972,0.22226 -0.408754,0 -0.776632,-0.07409 -1.103635,-0.22226 -0.321893,-0.153283 -0.595247,-0.360214 -0.820061,-0.620795 -0.224815,-0.26058 -0.398535,-0.564591 -0.521161,-0.912032 -0.117518,-0.34744 -0.176275,-0.717873 -0.176275,-1.111298 0,-0.388316 0.05876,-0.756195 0.176275,-1.103636 0.122626,-0.347441 0.296346,-0.65145 0.521161,-0.912032 0.224814,-0.26058 0.498168,-0.467512 0.820061,-0.620794 0.327003,-0.153282 0.694881,-0.229924 1.103635,-0.229924 z"
       id="path42" />
    <path
       style="fill:#000000;stroke:none;stroke-width:0.0168983px;stroke-linecap:butt;stroke-linejoin:miter;stroke-opacity:1"
       d="m 38.608866,26.431748 h 0.488588 c -0.0073,-0.21351 -0.04886,-0.3963 -0.124861,-0.548305 -0.07237,-0.155645 -0.17372,-0.284084 -0.304011,-0.385442 -0.12665,-0.101354 -0.275078,-0.175509 -0.445158,-0.222579 -0.17008,-0.04707 -0.354658,-0.07057 -0.553734,-0.07057 -0.17736,0 -0.351081,0.02351 -0.52116,0.07057 -0.166504,0.04343 -0.316657,0.112216 -0.450587,0.206293 -0.130291,0.0905 -0.235226,0.208081 -0.314869,0.35287 -0.07964,0.141147 -0.119433,0.309438 -0.119433,0.504874 0,0.17736 0.03436,0.325726 0.103148,0.445158 0.07237,0.115793 0.166504,0.211722 0.282295,0.287724 0.119433,0.07236 0.253363,0.13208 0.401729,0.179149 0.148364,0.04343 0.298581,0.08322 0.450587,0.119434 0.155645,0.03258 0.30765,0.06514 0.456016,0.09772 0.148364,0.03257 0.280507,0.076 0.396299,0.13029 0.119433,0.05065 0.21351,0.117645 0.282295,0.200864 0.07237,0.08322 0.108576,0.191795 0.108576,0.325725 0,0.141149 -0.02894,0.256941 -0.08685,0.347442 -0.05793,0.0905 -0.13393,0.162863 -0.228008,0.21715 -0.09408,0.05065 -0.200864,0.08687 -0.320297,0.108575 -0.115792,0.02171 -0.231648,0.03258 -0.347441,0.03258 -0.144787,0 -0.285936,-0.01808 -0.423443,-0.05429 -0.137508,-0.03621 -0.258792,-0.09229 -0.363727,-0.168292 -0.101355,-0.076 -0.184577,-0.171931 -0.249722,-0.287724 -0.0615,-0.119432 -0.09229,-0.26058 -0.09229,-0.423443 h -0.488589 c 0,0.235225 0.04164,0.439729 0.124862,0.61345 0.08686,0.17008 0.202652,0.311228 0.34744,0.423444 0.148365,0.108574 0.318508,0.190006 0.510303,0.244294 0.195436,0.05429 0.401729,0.08143 0.618879,0.08143 0.177362,0 0.354658,-0.02171 0.532019,-0.06514 0.180938,-0.03979 0.3438,-0.104935 0.488588,-0.195436 0.144789,-0.09408 0.262369,-0.213509 0.352869,-0.358298 0.09408,-0.148364 0.141148,-0.325725 0.141148,-0.532018 0,-0.191795 -0.03621,-0.351081 -0.108575,-0.477731 -0.06879,-0.126649 -0.162863,-0.231648 -0.282296,-0.314868 -0.115792,-0.08322 -0.247934,-0.148365 -0.396299,-0.195435 -0.148365,-0.05065 -0.30037,-0.09408 -0.456016,-0.130291 -0.152005,-0.03621 -0.302222,-0.06879 -0.450587,-0.09772 -0.148365,-0.03258 -0.282296,-0.07237 -0.401728,-0.119432 -0.115792,-0.04707 -0.209933,-0.106787 -0.282295,-0.179149 -0.06879,-0.076 -0.103148,-0.17372 -0.103148,-0.293153 0,-0.12665 0.02351,-0.231649 0.07057,-0.314869 0.05064,-0.08685 0.115792,-0.155645 0.195435,-0.206292 0.08322,-0.05065 0.177361,-0.08687 0.282296,-0.108575 0.104935,-0.02171 0.211722,-0.03258 0.320296,-0.03258 0.267798,0 0.4868,0.06336 0.65688,0.190007 0.173721,0.123073 0.275079,0.323936 0.304011,0.602592 z m 2.933894,1.156325 1.482051,-2.290936 h -0.586306 l -1.134611,1.845778 -1.161755,-1.845778 H 39.52869 l 1.498337,2.290936 v 1.585199 h 0.515733 z m 4.21508,-1.156325 h 0.488589 c -0.0073,-0.21351 -0.04886,-0.3963 -0.124862,-0.548305 -0.07236,-0.155645 -0.17372,-0.284084 -0.30401,-0.385442 -0.12665,-0.101354 -0.275015,-0.175509 -0.445158,-0.222579 -0.17008,-0.04707 -0.354658,-0.07057 -0.553734,-0.07057 -0.177297,0 -0.351017,0.02351 -0.521162,0.07057 -0.166439,0.04343 -0.316656,0.112216 -0.450587,0.206293 -0.130289,0.0905 -0.235224,0.208081 -0.314867,0.35287 -0.07958,0.141147 -0.119433,0.309438 -0.119433,0.504874 0,0.17736 0.03442,0.325726 0.103148,0.445158 0.07243,0.115793 0.166503,0.211722 0.282296,0.287724 0.119433,0.07236 0.253363,0.13208 0.401729,0.179149 0.148428,0.04343 0.298581,0.08322 0.450587,0.119434 0.155645,0.03258 0.30765,0.06514 0.456016,0.09772 0.148428,0.03257 0.280507,0.076 0.396298,0.13029 0.119433,0.05065 0.213574,0.117645 0.282296,0.200864 0.07243,0.08322 0.108575,0.191795 0.108575,0.325725 0,0.141149 -0.02893,0.256941 -0.08685,0.347442 -0.05786,0.0905 -0.133866,0.162863 -0.228007,0.21715 -0.09408,0.05065 -0.200864,0.08687 -0.320297,0.108575 -0.115793,0.02171 -0.231585,0.03258 -0.347441,0.03258 -0.144724,0 -0.285872,-0.01808 -0.423443,-0.05429 -0.137508,-0.03621 -0.258728,-0.09229 -0.363727,-0.168292 -0.101293,-0.076 -0.184578,-0.171931 -0.249724,-0.287724 -0.0615,-0.119432 -0.09229,-0.26058 -0.09229,-0.423443 h -0.488588 c 0,0.235225 0.04164,0.439729 0.124861,0.61345 0.08685,0.17008 0.202716,0.311228 0.347441,0.423444 0.148428,0.108574 0.318508,0.190006 0.510303,0.244294 0.195436,0.05429 0.401729,0.08143 0.618879,0.08143 0.17736,0 0.354721,-0.02171 0.532018,-0.06514 0.181001,-0.03979 0.343865,-0.104935 0.488589,-0.195436 0.144787,-0.09408 0.262432,-0.213509 0.352869,-0.358298 0.09414,-0.148364 0.141148,-0.325725 0.141148,-0.532018 0,-0.191795 -0.03615,-0.351081 -0.108575,-0.477731 -0.06872,-0.126649 -0.162864,-0.231648 -0.282296,-0.314868 -0.115792,-0.08322 -0.24787,-0.148365 -0.3963,-0.195435 -0.148364,-0.05065 -0.300369,-0.09408 -0.456015,-0.130291 -0.152005,-0.03621 -0.302158,-0.06879 -0.450587,-0.09772 -0.148365,-0.03258 -0.282296,-0.07237 -0.401728,-0.119432 -0.115793,-0.04707 -0.20987,-0.106787 -0.282296,-0.179149 -0.06872,-0.076 -0.103148,-0.17372 -0.103148,-0.293153 0,-0.12665 0.02357,-0.231649 0.07057,-0.314869 0.05071,-0.08685 0.115857,-0.155645 0.195436,-0.206292 0.08328,-0.05065 0.17736,-0.08687 0.282295,-0.108575 0.104999,-0.02171 0.211721,-0.03258 0.320297,-0.03258 0.267861,0 0.4868,0.06336 0.65688,0.190007 0.17372,0.123073 0.275078,0.323936 0.304011,0.602592 z m 2.211932,-0.70031 v 3.441834 h 0.515733 v -3.441834 h 1.292045 v -0.434301 h -3.099822 v 0.434301 z m 2.292087,-0.434301 v 3.876135 h 2.692665 v -0.434301 h -2.176933 v -1.340904 h 2.01407 v -0.434301 h -2.01407 v -1.232328 h 2.160647 v -0.434301 z m 3.383906,0 v 3.876135 h 0.488588 v -3.224684 h 0.01086 l 1.210614,3.224684 h 0.439729 l 1.210614,-3.224684 h 0.01086 v 3.224684 h 0.488588 v -3.876135 h -0.705739 l -1.226899,3.257256 -1.221472,-3.257256 z m 7.014469,1.134611 h 0.488589 c -0.0073,-0.21351 -0.04886,-0.3963 -0.124862,-0.548305 -0.07236,-0.155645 -0.17372,-0.284084 -0.30401,-0.385442 -0.12665,-0.101354 -0.275079,-0.175509 -0.445158,-0.222579 -0.17008,-0.04707 -0.354658,-0.07057 -0.553734,-0.07057 -0.177361,0 -0.351082,0.02351 -0.521162,0.07057 -0.166503,0.04343 -0.316656,0.112216 -0.450587,0.206293 -0.130289,0.0905 -0.235224,0.208081 -0.314867,0.35287 -0.07964,0.141147 -0.119433,0.309438 -0.119433,0.504874 0,0.17736 0.03436,0.325726 0.103148,0.445158 0.07237,0.115793 0.166503,0.211722 0.282296,0.287724 0.119433,0.07236 0.253363,0.13208 0.401729,0.179149 0.148364,0.04343 0.298581,0.08322 0.450587,0.119434 0.155645,0.03258 0.30765,0.06514 0.456015,0.09772 0.148365,0.03257 0.280508,0.076 0.396299,0.13029 0.119433,0.05065 0.213511,0.117645 0.282296,0.200864 0.07237,0.08322 0.108575,0.191795 0.108575,0.325725 0,0.141149 -0.02893,0.256941 -0.08685,0.347442 -0.05793,0.0905 -0.13393,0.162863 -0.228007,0.21715 -0.09408,0.05065 -0.200865,0.08687 -0.320298,0.108575 -0.115791,0.02171 -0.231647,0.03258 -0.34744,0.03258 -0.144789,0 -0.285936,-0.01808 -0.423443,-0.05429 -0.137508,-0.03621 -0.258793,-0.09229 -0.363727,-0.168292 -0.101355,-0.076 -0.184578,-0.171931 -0.249724,-0.287724 -0.0615,-0.119432 -0.09229,-0.26058 -0.09229,-0.423443 h -0.488587 c 0,0.235225 0.04165,0.439729 0.12486,0.61345 0.08687,0.17008 0.202653,0.311228 0.347442,0.423444 0.148364,0.108574 0.318508,0.190006 0.510303,0.244294 0.195436,0.05429 0.401729,0.08143 0.618878,0.08143 0.177361,0 0.354658,-0.02171 0.532019,-0.06514 0.180937,-0.03979 0.343801,-0.104935 0.488589,-0.195436 0.144788,-0.09408 0.262368,-0.213509 0.352869,-0.358298 0.09408,-0.148364 0.141148,-0.325725 0.141148,-0.532018 0,-0.191795 -0.03621,-0.351081 -0.108575,-0.477731 -0.06879,-0.126649 -0.162863,-0.231648 -0.282296,-0.314868 -0.115792,-0.08322 -0.247934,-0.148365 -0.3963,-0.195435 -0.148364,-0.05065 -0.300369,-0.09408 -0.456016,-0.130291 -0.152004,-0.03621 -0.302221,-0.06879 -0.450587,-0.09772 -0.148364,-0.03258 -0.282295,-0.07237 -0.401727,-0.119432 -0.115793,-0.04707 -0.209934,-0.106787 -0.282296,-0.179149 -0.06879,-0.076 -0.103148,-0.17372 -0.103148,-0.293153 0,-0.12665 0.02351,-0.231649 0.07057,-0.314869 0.05065,-0.08685 0.115793,-0.155645 0.195436,-0.206292 0.08322,-0.05065 0.17736,-0.08687 0.282295,-0.108575 0.104934,-0.02171 0.211721,-0.03258 0.320297,-0.03258 0.267797,0 0.4868,0.06336 0.65688,0.190007 0.17372,0.123073 0.275078,0.323936 0.304011,0.602592 z"
       id="path933" />
  </g>
</svg>
