<?xml version="1.0" encoding="us-ascii" standalone="no"?><svg xmlns="http://www.w3.org/2000/svg" xmlns:xlink="http://www.w3.org/1999/xlink" contentStyleType="text/css" height="1378px" preserveAspectRatio="none" style="width:2332px;height:1378px;background:#FFFFFF;" version="1.1" viewBox="0 0 2332 1378" width="2332px" zoomAndPan="magnify"><defs/><g><!--cluster Network--><g id="cluster_Network"><path d="M8.5,375.6 L245.5,375.6 A3.75,3.75 0 0 1 248,378.1 L255,397.8969 L2027.5,397.8969 A2.5,2.5 0 0 1 2030,400.3969 L2030,1090.64 A2.5,2.5 0 0 1 2027.5,1093.14 L8.5,1093.14 A2.5,2.5 0 0 1 6,1090.64 L6,378.1 A2.5,2.5 0 0 1 8.5,375.6 " fill="none" style="stroke:#000000;stroke-width:1.5;"/><line style="stroke:#000000;stroke-width:1.5;" x1="6" x2="255" y1="397.8969" y2="397.8969"/><text fill="#000000" font-family="sans-serif" font-size="14" font-weight="bold" lengthAdjust="spacing" textLength="236" x="10" y="390.5951">Espresso Sequencer Network</text></g><!--cluster CDN--><g id="cluster_CDN"><path d="M40.5,764.89 L74.5,764.89 A3.75,3.75 0 0 1 77,767.39 L84,787.1869 L486.5,787.1869 A2.5,2.5 0 0 1 489,789.6869 L489,894.69 A2.5,2.5 0 0 1 486.5,897.19 L40.5,897.19 A2.5,2.5 0 0 1 38,894.69 L38,767.39 A2.5,2.5 0 0 1 40.5,764.89 " fill="none" style="stroke:#000000;stroke-width:1.5;"/><line style="stroke:#000000;stroke-width:1.5;" x1="38" x2="84" y1="787.1869" y2="787.1869"/><text fill="#000000" font-family="sans-serif" font-size="14" font-weight="bold" lengthAdjust="spacing" textLength="33" x="42" y="779.8851">CDN</text></g><!--cluster Seq--><g id="cluster_Seq"><path d="M531.5,426.6 L664.5,426.6 A3.75,3.75 0 0 1 667,429.1 L674,448.8969 L1823.5,448.8969 A2.5,2.5 0 0 1 1826,451.3969 L1826,1058.64 A2.5,2.5 0 0 1 1823.5,1061.14 L531.5,1061.14 A2.5,2.5 0 0 1 529,1058.64 L529,429.1 A2.5,2.5 0 0 1 531.5,426.6 " fill="none" style="stroke:#000000;stroke-width:1.5;"/><line style="stroke:#000000;stroke-width:1.5;" x1="529" x2="674" y1="448.8969" y2="448.8969"/><text fill="#000000" font-family="sans-serif" font-size="14" font-weight="bold" lengthAdjust="spacing" textLength="132" x="533" y="441.5951">Sequencer Node</text></g><!--cluster APIs--><g id="cluster_APIs"><rect fill="none" height="291.74" rx="2.5" ry="2.5" style="stroke:#181818;stroke-width:1.0;" width="478.5" x="960.5" y="613.75"/><rect fill="none" height="10" style="stroke:#181818;stroke-width:1.0;" width="15" x="1419" y="618.75"/><rect fill="none" height="2" style="stroke:#181818;stroke-width:1.0;" width="4" x="1417" y="620.75"/><rect fill="none" height="2" style="stroke:#181818;stroke-width:1.0;" width="4" x="1417" y="624.75"/><text fill="#000000" font-family="sans-serif" font-size="14" font-weight="bold" lengthAdjust="spacing" textLength="34" x="1182.75" y="639.7451">APIs</text></g><!--cluster HotShot--><g id="cluster_HotShot"><path d="M563.5,477.6 L627.5,477.6 A3.75,3.75 0 0 1 630,480.1 L637,499.8969 L924.5,499.8969 A2.5,2.5 0 0 1 927,502.3969 L927,690.39 A2.5,2.5 0 0 1 924.5,692.89 L563.5,692.89 A2.5,2.5 0 0 1 561,690.39 L561,480.1 A2.5,2.5 0 0 1 563.5,477.6 " fill="none" style="stroke:#000000;stroke-width:1.5;"/><line style="stroke:#000000;stroke-width:1.5;" x1="561" x2="637" y1="499.8969" y2="499.8969"/><text fill="#000000" font-family="sans-serif" font-size="14" font-weight="bold" lengthAdjust="spacing" textLength="63" x="565" y="492.5951">HotShot</text></g><!--cluster Networking--><g id="cluster_Networking"><rect fill="none" height="132.29" rx="2.5" ry="2.5" style="stroke:#181818;stroke-width:1.0;" width="302" x="593" y="528.6"/><rect fill="none" height="10" style="stroke:#181818;stroke-width:1.0;" width="15" x="875" y="533.6"/><rect fill="none" height="2" style="stroke:#181818;stroke-width:1.0;" width="4" x="873" y="535.6"/><rect fill="none" height="2" style="stroke:#181818;stroke-width:1.0;" width="4" x="873" y="539.6"/><text fill="#000000" font-family="sans-serif" font-size="14" font-weight="bold" lengthAdjust="spacing" textLength="91" x="698.5" y="554.5951">Networking</text></g><!--cluster State--><g id="cluster_State"><path d="M1457.5,536.6 L1499.5,536.6 A3.75,3.75 0 0 1 1502,539.1 L1509,558.8969 L1783.5,558.8969 A2.5,2.5 0 0 1 1786,561.3969 L1786,650.39 A2.5,2.5 0 0 1 1783.5,652.89 L1457.5,652.89 A2.5,2.5 0 0 1 1455,650.39 L1455,539.1 A2.5,2.5 0 0 1 1457.5,536.6 " fill="none" style="stroke:#000000;stroke-width:1.5;"/><line style="stroke:#000000;stroke-width:1.5;" x1="1455" x2="1509" y1="558.8969" y2="558.8969"/><text fill="#000000" font-family="sans-serif" font-size="14" font-weight="bold" lengthAdjust="spacing" textLength="41" x="1459" y="551.5951">State</text></g><!--cluster L2s--><g id="cluster_L2s"><path d="M1601.5,6 L1742.5,6 A3.75,3.75 0 0 1 1745,8.5 L1752,28.2969 L2104.5,28.2969 A2.5,2.5 0 0 1 2107,30.7969 L2107,309.1 A2.5,2.5 0 0 1 2104.5,311.6 L1601.5,311.6 A2.5,2.5 0 0 1 1599,309.1 L1599,8.5 A2.5,2.5 0 0 1 1601.5,6 " fill="none" style="stroke:#000000;stroke-width:1.5;"/><line style="stroke:#000000;stroke-width:1.5;" x1="1599" x2="1752" y1="28.2969" y2="28.2969"/><text fill="#000000" font-family="sans-serif" font-size="14" font-weight="bold" lengthAdjust="spacing" textLength="140" x="1603" y="20.9951">Layer 2s / Rollups</text></g><!--cluster L2--><g id="cluster_L2"><rect fill="none" height="238.6" rx="2.5" ry="2.5" style="stroke:#181818;stroke-width:1.0;" width="460" x="1623" y="49"/><rect fill="none" height="10" style="stroke:#181818;stroke-width:1.0;" width="15" x="2063" y="54"/><rect fill="none" height="2" style="stroke:#181818;stroke-width:1.0;" width="4" x="2061" y="56"/><rect fill="none" height="2" style="stroke:#181818;stroke-width:1.0;" width="4" x="2061" y="60"/><text fill="#000000" font-family="sans-serif" font-size="14" font-weight="bold" lengthAdjust="spacing" textLength="64" x="1821" y="74.9951">Rollup N</text></g><!--cluster L1--><g id="cluster_L1"><path d="M1827.5,1172.14 L1968.5,1172.14 A3.75,3.75 0 0 1 1971,1174.64 L1978,1194.4369 L2322.5,1194.4369 A2.5,2.5 0 0 1 2325,1196.9369 L2325,1369.23 A2.5,2.5 0 0 1 2322.5,1371.73 L1827.5,1371.73 A2.5,2.5 0 0 1 1825,1369.23 L1825,1174.64 A2.5,2.5 0 0 1 1827.5,1172.14 " fill="none" style="stroke:#000000;stroke-width:1.5;"/><line style="stroke:#000000;stroke-width:1.5;" x1="1825" x2="1978" y1="1194.4369" y2="1194.4369"/><text fill="#000000" font-family="sans-serif" font-size="14" font-weight="bold" lengthAdjust="spacing" textLength="140" x="1829" y="1187.1351">Ethereum Layer 1</text></g><!--cluster Esp_L1--><g id="cluster_Esp_L1"><path d="M1851.5,1215.14 L2007.5,1215.14 A3.75,3.75 0 0 1 2010,1217.64 L2017,1237.4369 L2128.5,1237.4369 A2.5,2.5 0 0 1 2131,1239.9369 L2131,1345.23 A2.5,2.5 0 0 1 2128.5,1347.73 L1851.5,1347.73 A2.5,2.5 0 0 1 1849,1345.23 L1849,1217.64 A2.5,2.5 0 0 1 1851.5,1215.14 " fill="none" style="stroke:#000000;stroke-width:1.5;"/><line style="stroke:#000000;stroke-width:1.5;" x1="1849" x2="2017" y1="1237.4369" y2="1237.4369"/><text fill="#000000" font-family="sans-serif" font-size="14" font-weight="bold" lengthAdjust="spacing" textLength="155" x="1853" y="1230.1351">Espresso Contracts</text></g><!--cluster Rollup Contracts--><g id="cluster_Rollup Contracts"><path d="M2157.5,1215.14 L2288.5,1215.14 A3.75,3.75 0 0 1 2291,1217.64 L2298,1237.4369 L2298.5,1237.4369 A2.5,2.5 0 0 1 2301,1239.9369 L2301,1345.23 A2.5,2.5 0 0 1 2298.5,1347.73 L2157.5,1347.73 A2.5,2.5 0 0 1 2155,1345.23 L2155,1217.64 A2.5,2.5 0 0 1 2157.5,1215.14 " fill="none" style="stroke:#000000;stroke-width:1.5;"/><line style="stroke:#000000;stroke-width:1.5;" x1="2155" x2="2298" y1="1237.4369" y2="1237.4369"/><text fill="#000000" font-family="sans-serif" font-size="14" font-weight="bold" lengthAdjust="spacing" textLength="130" x="2159" y="1230.1351">Rollup Contracts</text></g><!--entity Nodes--><g id="elem_Nodes"><rect fill="#F1F1F1" height="78.8906" rx="2.5" ry="2.5" style="stroke:#181818;stroke-width:0.5;" width="116" x="389" y="574.3"/><rect fill="#F1F1F1" height="10" style="stroke:#181818;stroke-width:0.5;" width="15" x="485" y="579.3"/><rect fill="#F1F1F1" height="2" style="stroke:#181818;stroke-width:0.5;" width="4" x="483" y="581.3"/><rect fill="#F1F1F1" height="2" style="stroke:#181818;stroke-width:0.5;" width="4" x="483" y="585.3"/><text fill="#000000" font-family="sans-serif" font-size="14" lengthAdjust="spacing" textLength="39" x="404" y="607.2951">Other</text><text fill="#000000" font-family="sans-serif" font-size="14" lengthAdjust="spacing" textLength="76" x="404" y="623.592">Sequencer</text><text fill="#000000" font-family="sans-serif" font-size="14" lengthAdjust="spacing" textLength="45" x="404" y="639.8889">Nodes</text></g><!--entity HSProver--><g id="elem_HSProver"><rect fill="#F1F1F1" height="62.5938" rx="2.5" ry="2.5" style="stroke:#181818;stroke-width:0.5;" width="137" x="1850.5" y="983.19"/><rect fill="#F1F1F1" height="10" style="stroke:#181818;stroke-width:0.5;" width="15" x="1967.5" y="988.19"/><rect fill="#F1F1F1" height="2" style="stroke:#181818;stroke-width:0.5;" width="4" x="1965.5" y="990.19"/><rect fill="#F1F1F1" height="2" style="stroke:#181818;stroke-width:0.5;" width="4" x="1965.5" y="994.19"/><text fill="#000000" font-family="sans-serif" font-size="14" lengthAdjust="spacing" textLength="95" x="1865.5" y="1016.1851">HotShot state</text><text fill="#000000" font-family="sans-serif" font-size="14" lengthAdjust="spacing" textLength="97" x="1865.5" y="1032.482">prover service</text></g><!--entity Relay--><g id="elem_Relay"><rect fill="#F1F1F1" height="62.5938" rx="2.5" ry="2.5" style="stroke:#181818;stroke-width:0.5;" width="135" x="1850.5" y="818.75"/><rect fill="#F1F1F1" height="10" style="stroke:#181818;stroke-width:0.5;" width="15" x="1965.5" y="823.75"/><rect fill="#F1F1F1" height="2" style="stroke:#181818;stroke-width:0.5;" width="4" x="1963.5" y="825.75"/><rect fill="#F1F1F1" height="2" style="stroke:#181818;stroke-width:0.5;" width="4" x="1963.5" y="829.75"/><text fill="#000000" font-family="sans-serif" font-size="14" lengthAdjust="spacing" textLength="95" x="1865.5" y="851.7451">HotShot state</text><text fill="#000000" font-family="sans-serif" font-size="14" lengthAdjust="spacing" textLength="85" x="1865.5" y="868.042">relay service</text></g><!--entity Builder--><g id="elem_Builder"><rect fill="#F1F1F1" height="46.2969" rx="2.5" ry="2.5" style="stroke:#181818;stroke-width:0.5;" width="88" x="1926" y="590.6"/><rect fill="#F1F1F1" height="10" style="stroke:#181818;stroke-width:0.5;" width="15" x="1994" y="595.6"/><rect fill="#F1F1F1" height="2" style="stroke:#181818;stroke-width:0.5;" width="4" x="1992" y="597.6"/><rect fill="#F1F1F1" height="2" style="stroke:#181818;stroke-width:0.5;" width="4" x="1992" y="601.6"/><text fill="#000000" font-family="sans-serif" font-size="14" lengthAdjust="spacing" textLength="48" x="1941" y="623.5951">Builder</text></g><!--entity Broker--><g id="elem_Broker"><rect fill="#F1F1F1" height="46.2969" rx="2.5" ry="2.5" style="stroke:#181818;stroke-width:0.5;" width="86" x="62" y="826.89"/><rect fill="#F1F1F1" height="10" style="stroke:#181818;stroke-width:0.5;" width="15" x="128" y="831.89"/><rect fill="#F1F1F1" height="2" style="stroke:#181818;stroke-width:0.5;" width="4" x="126" y="833.89"/><rect fill="#F1F1F1" height="2" style="stroke:#181818;stroke-width:0.5;" width="4" x="126" y="837.89"/><text fill="#000000" font-family="sans-serif" font-size="14" lengthAdjust="spacing" textLength="46" x="77" y="859.8851">Broker</text></g><!--entity Marshal--><g id="elem_Marshal"><rect fill="#F1F1F1" height="46.2969" rx="2.5" ry="2.5" style="stroke:#181818;stroke-width:0.5;" width="93" x="352.5" y="826.89"/><rect fill="#F1F1F1" height="10" style="stroke:#181818;stroke-width:0.5;" width="15" x="425.5" y="831.89"/><rect fill="#F1F1F1" height="2" style="stroke:#181818;stroke-width:0.5;" width="4" x="423.5" y="833.89"/><rect fill="#F1F1F1" height="2" style="stroke:#181818;stroke-width:0.5;" width="4" x="423.5" y="837.89"/><text fill="#000000" font-family="sans-serif" font-size="14" lengthAdjust="spacing" textLength="53" x="367.5" y="859.8851">Marshal</text></g><!--entity KeyDB--><g id="elem_KeyDB"><path d="M217,837.39 C217,827.39 250,827.39 250,827.39 C250,827.39 283,827.39 283,837.39 L283,862.6869 C283,872.6869 250,872.6869 250,872.6869 C250,872.6869 217,872.6869 217,862.6869 L217,837.39 " fill="#F1F1F1" style="stroke:#181818;stroke-width:0.5;"/><path d="M217,837.39 C217,847.39 250,847.39 250,847.39 C250,847.39 283,847.39 283,837.39 " fill="none" style="stroke:#181818;stroke-width:0.5;"/><text fill="#000000" font-family="sans-serif" font-size="14" lengthAdjust="spacing" textLength="46" x="227" y="864.3851">KeyDB</text></g><!--entity DB--><g id="elem_DB"><path d="M1066,1001.84 C1066,991.84 1107,991.84 1107,991.84 C1107,991.84 1148,991.84 1148,1001.84 L1148,1027.1369 C1148,1037.1369 1107,1037.1369 1107,1037.1369 C1107,1037.1369 1066,1037.1369 1066,1027.1369 L1066,1001.84 " fill="#F1F1F1" style="stroke:#181818;stroke-width:0.5;"/><path d="M1066,1001.84 C1066,1011.84 1107,1011.84 1107,1011.84 C1107,1011.84 1148,1011.84 1148,1001.84 " fill="none" style="stroke:#181818;stroke-width:0.5;"/><text fill="#000000" font-family="sans-serif" font-size="14" lengthAdjust="spacing" textLength="62" x="1076" y="1028.8351">Postgres</text></g><text fill="#000000" font-family="sans-serif" font-size="14" lengthAdjust="spacing" textLength="58" x="949.5" y="592.4482">Catchup</text><rect fill="#F1F1F1" height="12" style="stroke:#181818;stroke-width:1.5;" width="12" x="972.5" y="607.75"/><text fill="#000000" font-family="sans-serif" font-size="14" lengthAdjust="spacing" textLength="44" x="1080" y="592.4482">Status</text><rect fill="#F1F1F1" height="12" style="stroke:#181818;stroke-width:1.5;" width="12" x="1096" y="607.75"/><text fill="#000000" font-family="sans-serif" font-size="14" lengthAdjust="spacing" textLength="48" x="1291" y="592.4482">Submit</text><rect fill="#F1F1F1" height="12" style="stroke:#181818;stroke-width:1.5;" width="12" x="1309" y="607.75"/><text fill="#000000" font-family="sans-serif" font-size="14" lengthAdjust="spacing" textLength="41" x="1170.5" y="592.4482">Query</text><rect fill="#F1F1F1" height="12" style="stroke:#181818;stroke-width:1.5;" width="12" x="1185" y="607.75"/><text fill="#000000" font-family="sans-serif" font-size="14" lengthAdjust="spacing" textLength="55" x="1376.5" y="559.8545">Hotshot</text><text fill="#000000" font-family="sans-serif" font-size="14" lengthAdjust="spacing" textLength="47" x="1380.5" y="576.1514">Events</text><text fill="#000000" font-family="sans-serif" font-size="14" lengthAdjust="spacing" textLength="49" x="1379.5" y="592.4482">Stream</text><rect fill="#F1F1F1" height="12" style="stroke:#181818;stroke-width:1.5;" width="12" x="1398" y="607.75"/><!--entity QS--><g id="elem_QS"><rect fill="#F1F1F1" height="78.8906" rx="2.5" ry="2.5" style="stroke:#181818;stroke-width:0.5;" width="96" x="1059" y="810.6"/><rect fill="#F1F1F1" height="10" style="stroke:#181818;stroke-width:0.5;" width="15" x="1135" y="815.6"/><rect fill="#F1F1F1" height="2" style="stroke:#181818;stroke-width:0.5;" width="4" x="1133" y="817.6"/><rect fill="#F1F1F1" height="2" style="stroke:#181818;stroke-width:0.5;" width="4" x="1133" y="821.6"/><text fill="#000000" font-family="sans-serif" font-size="14" lengthAdjust="spacing" textLength="56" x="1074" y="843.5951">HotShot</text><text fill="#000000" font-family="sans-serif" font-size="14" lengthAdjust="spacing" textLength="41" x="1074" y="859.892">Query</text><text fill="#000000" font-family="sans-serif" font-size="14" lengthAdjust="spacing" textLength="50" x="1074" y="876.1889">Service</text></g><!--entity Events--><g id="elem_Events"><rect fill="#F1F1F1" height="46.2969" rx="2.5" ry="2.5" style="stroke:#181818;stroke-width:0.5;" width="147" x="1275.5" y="826.89"/><rect fill="#F1F1F1" height="10" style="stroke:#181818;stroke-width:0.5;" width="15" x="1402.5" y="831.89"/><rect fill="#F1F1F1" height="2" style="stroke:#181818;stroke-width:0.5;" width="4" x="1400.5" y="833.89"/><rect fill="#F1F1F1" height="2" style="stroke:#181818;stroke-width:0.5;" width="4" x="1400.5" y="837.89"/><text fill="#000000" font-family="sans-serif" font-size="14" lengthAdjust="spacing" textLength="107" x="1290.5" y="859.8851">HotShot Events</text></g><!--entity Libp2p--><g id="elem_Libp2p"><rect fill="#F1F1F1" height="46.2969" rx="2.5" ry="2.5" style="stroke:#181818;stroke-width:0.5;" width="86" x="617" y="590.6"/><rect fill="#F1F1F1" height="10" style="stroke:#181818;stroke-width:0.5;" width="15" x="683" y="595.6"/><rect fill="#F1F1F1" height="2" style="stroke:#181818;stroke-width:0.5;" width="4" x="681" y="597.6"/><rect fill="#F1F1F1" height="2" style="stroke:#181818;stroke-width:0.5;" width="4" x="681" y="601.6"/><text fill="#000000" font-family="sans-serif" font-size="14" lengthAdjust="spacing" textLength="46" x="632" y="623.5951">Libp2p</text></g><!--entity CDN Client--><g id="elem_CDN Client"><rect fill="#F1F1F1" height="46.2969" rx="2.5" ry="2.5" style="stroke:#181818;stroke-width:0.5;" width="114" x="738" y="590.6"/><rect fill="#F1F1F1" height="10" style="stroke:#181818;stroke-width:0.5;" width="15" x="832" y="595.6"/><rect fill="#F1F1F1" height="2" style="stroke:#181818;stroke-width:0.5;" width="4" x="830" y="597.6"/><rect fill="#F1F1F1" height="2" style="stroke:#181818;stroke-width:0.5;" width="4" x="830" y="601.6"/><text fill="#000000" font-family="sans-serif" font-size="14" lengthAdjust="spacing" textLength="74" x="753" y="623.5951">CDN Client</text></g><!--entity Signer--><g id="elem_Signer"><rect fill="#F1F1F1" height="46.2969" rx="2.5" ry="2.5" style="stroke:#181818;stroke-width:0.5;" width="124" x="1646" y="590.6"/><rect fill="#F1F1F1" height="10" style="stroke:#181818;stroke-width:0.5;" width="15" x="1750" y="595.6"/><rect fill="#F1F1F1" height="2" style="stroke:#181818;stroke-width:0.5;" width="4" x="1748" y="597.6"/><rect fill="#F1F1F1" height="2" style="stroke:#181818;stroke-width:0.5;" width="4" x="1748" y="601.6"/><text fill="#000000" font-family="sans-serif" font-size="14" lengthAdjust="spacing" textLength="84" x="1661" y="623.5951">State Signer</text></g><!--entity Validated--><g id="elem_Validated"><rect fill="#F1F1F1" height="46.2969" rx="2.5" ry="2.5" style="stroke:#181818;stroke-width:0.5;" width="139" x="1471.5" y="590.6"/><rect fill="#F1F1F1" height="10" style="stroke:#181818;stroke-width:0.5;" width="15" x="1590.5" y="595.6"/><rect fill="#F1F1F1" height="2" style="stroke:#181818;stroke-width:0.5;" width="4" x="1588.5" y="597.6"/><rect fill="#F1F1F1" height="2" style="stroke:#181818;stroke-width:0.5;" width="4" x="1588.5" y="601.6"/><text fill="#000000" font-family="sans-serif" font-size="14" lengthAdjust="spacing" textLength="99" x="1486.5" y="623.5951">ValidatedState</text></g><!--entity L2_RPC--><g id="elem_L2_RPC"><rect fill="#F1F1F1" height="46.2969" rx="2.5" ry="2.5" style="stroke:#181818;stroke-width:0.5;" width="172" x="1776" y="225.3"/><rect fill="#F1F1F1" height="10" style="stroke:#181818;stroke-width:0.5;" width="15" x="1928" y="230.3"/><rect fill="#F1F1F1" height="2" style="stroke:#181818;stroke-width:0.5;" width="4" x="1926" y="232.3"/><rect fill="#F1F1F1" height="2" style="stroke:#181818;stroke-width:0.5;" width="4" x="1926" y="236.3"/><text fill="#000000" font-family="sans-serif" font-size="14" lengthAdjust="spacing" textLength="132" x="1791" y="258.2951">API (e.g. JSON-RPC)</text></g><!--entity L2_Exec--><g id="elem_L2_Exec"><rect fill="#F1F1F1" height="46.2969" rx="2.5" ry="2.5" style="stroke:#181818;stroke-width:0.5;" width="101" x="1639.5" y="225.3"/><rect fill="#F1F1F1" height="10" style="stroke:#181818;stroke-width:0.5;" width="15" x="1720.5" y="230.3"/><rect fill="#F1F1F1" height="2" style="stroke:#181818;stroke-width:0.5;" width="4" x="1718.5" y="232.3"/><rect fill="#F1F1F1" height="2" style="stroke:#181818;stroke-width:0.5;" width="4" x="1718.5" y="236.3"/><text fill="#000000" font-family="sans-serif" font-size="14" lengthAdjust="spacing" textLength="61" x="1654.5" y="258.2951">Executor</text></g><!--entity L2_Prover--><g id="elem_L2_Prover"><rect fill="#F1F1F1" height="46.2969" rx="2.5" ry="2.5" style="stroke:#181818;stroke-width:0.5;" width="84" x="1983" y="225.3"/><rect fill="#F1F1F1" height="10" style="stroke:#181818;stroke-width:0.5;" width="15" x="2047" y="230.3"/><rect fill="#F1F1F1" height="2" style="stroke:#181818;stroke-width:0.5;" width="4" x="2045" y="232.3"/><rect fill="#F1F1F1" height="2" style="stroke:#181818;stroke-width:0.5;" width="4" x="2045" y="236.3"/><text fill="#000000" font-family="sans-serif" font-size="14" lengthAdjust="spacing" textLength="44" x="1998" y="258.2951">Prover</text></g><!--entity L2_State--><g id="elem_L2_State"><path d="M1821.5,113 C1821.5,103 1862,103 1862,103 C1862,103 1902.5,103 1902.5,113 L1902.5,138.2969 C1902.5,148.2969 1862,148.2969 1862,148.2969 C1862,148.2969 1821.5,148.2969 1821.5,138.2969 L1821.5,113 " fill="#F1F1F1" style="stroke:#181818;stroke-width:0.5;"/><path d="M1821.5,113 C1821.5,123 1862,123 1862,123 C1862,123 1902.5,123 1902.5,113 " fill="none" style="stroke:#181818;stroke-width:0.5;"/><text fill="#000000" font-family="sans-serif" font-size="14" lengthAdjust="spacing" textLength="61" x="1831.5" y="139.9951">State DB</text></g><!--entity LC_L1--><g id="elem_LC_L1"><rect fill="#F1F1F1" height="62.5938" rx="2.5" ry="2.5" style="stroke:#181818;stroke-width:0.5;" width="116" x="1865" y="1269.14"/><rect fill="#F1F1F1" height="10" style="stroke:#181818;stroke-width:0.5;" width="15" x="1961" y="1274.14"/><rect fill="#F1F1F1" height="2" style="stroke:#181818;stroke-width:0.5;" width="4" x="1959" y="1276.14"/><rect fill="#F1F1F1" height="2" style="stroke:#181818;stroke-width:0.5;" width="4" x="1959" y="1280.14"/><text fill="#000000" font-family="sans-serif" font-size="14" lengthAdjust="spacing" textLength="76" x="1880" y="1302.1351">Light Client</text><text fill="#000000" font-family="sans-serif" font-size="14" lengthAdjust="spacing" textLength="59" x="1880" y="1318.432">Contract</text></g><!--entity Fee_L1--><g id="elem_Fee_L1"><rect fill="#F1F1F1" height="62.5938" rx="2.5" ry="2.5" style="stroke:#181818;stroke-width:0.5;" width="99" x="2015.5" y="1269.14"/><rect fill="#F1F1F1" height="10" style="stroke:#181818;stroke-width:0.5;" width="15" x="2094.5" y="1274.14"/><rect fill="#F1F1F1" height="2" style="stroke:#181818;stroke-width:0.5;" width="4" x="2092.5" y="1276.14"/><rect fill="#F1F1F1" height="2" style="stroke:#181818;stroke-width:0.5;" width="4" x="2092.5" y="1280.14"/><text fill="#000000" font-family="sans-serif" font-size="14" lengthAdjust="spacing" textLength="26" x="2030.5" y="1302.1351">Fee</text><text fill="#000000" font-family="sans-serif" font-size="14" lengthAdjust="spacing" textLength="59" x="2030.5" y="1318.432">Contract</text></g><!--entity L2_L1--><g id="elem_L2_L1"><rect fill="#F1F1F1" height="62.5938" rx="2.5" ry="2.5" style="stroke:#181818;stroke-width:0.5;" width="99" x="2172.5" y="1269.14"/><rect fill="#F1F1F1" height="10" style="stroke:#181818;stroke-width:0.5;" width="15" x="2251.5" y="1274.14"/><rect fill="#F1F1F1" height="2" style="stroke:#181818;stroke-width:0.5;" width="4" x="2249.5" y="1276.14"/><rect fill="#F1F1F1" height="2" style="stroke:#181818;stroke-width:0.5;" width="4" x="2249.5" y="1280.14"/><text fill="#000000" font-family="sans-serif" font-size="14" lengthAdjust="spacing" textLength="57" x="2187.5" y="1302.1351">Rollup N</text><text fill="#000000" font-family="sans-serif" font-size="14" lengthAdjust="spacing" textLength="59" x="2187.5" y="1318.432">Contract</text></g><!--entity User--><g id="elem_User"><ellipse cx="2065" cy="605.6" fill="#F1F1F1" rx="12" ry="12" style="stroke:#181818;stroke-width:0.5;"/><line style="stroke:#181818;stroke-width:0.5;" x1="2053" x2="2077" y1="619.6" y2="619.6"/><text fill="#000000" font-family="sans-serif" font-size="14" lengthAdjust="spacing" textLength="32" x="2049" y="634.5951">User</text></g><!--link Broker to KeyDB--><g id="link_Broker_KeyDB"><path d="M148.11,850.04 C170.15,850.04 190.55,850.04 210.96,850.04 " fill="none" id="Broker-to-KeyDB" style="stroke:#181818;stroke-width:1.0;"/><polygon fill="#181818" points="216.96,850.04,207.96,846.04,211.96,850.04,207.96,854.04,216.96,850.04" style="stroke:#181818;stroke-width:1.0;"/><text fill="#000000" font-family="sans-serif" font-size="13" lengthAdjust="spacing" textLength="33" x="166" y="843.1069">state</text></g><!--link KeyDB to Marshal--><g id="link_KeyDB_Marshal"><path d="M283.44,850.04 C303.69,850.04 323.82,850.04 346.11,850.04 " fill="none" id="KeyDB-to-Marshal" style="stroke:#181818;stroke-width:1.0;"/><polygon fill="#181818" points="352.11,850.04,343.11,846.04,347.11,850.04,343.11,854.04,352.11,850.04" style="stroke:#181818;stroke-width:1.0;"/><text fill="#000000" font-family="sans-serif" font-size="13" lengthAdjust="spacing" textLength="33" x="301.25" y="843.1069">state</text></g><!--link Nodes to CDN--><g id="link_Nodes_CDN"><path d="M453.472,659.3678 C455.8495,675.7453 457.9144,689.9706 460.9763,711.0644 C462.5072,721.6112 464.0719,732.3908 465.6185,743.0461 C466.3918,748.3738 467.1606,753.6704 467.9185,758.8913 C468.1079,760.1965 468.2967,761.497 468.4847,762.7921 C468.5787,763.4396 467.8106,758.1481 467.9042,758.7928 " fill="none" id="Nodes-CDN" style="stroke:#181818;stroke-width:1.0;"/><polygon fill="#181818" points="452.61,653.43,449.9445,662.9113,453.3283,658.3781,457.8615,661.762,452.61,653.43" style="stroke:#181818;stroke-width:1.0;"/><polygon fill="#181818" points="468.766,764.7306,471.4318,755.2493,468.0478,759.7824,463.5147,756.3985,468.766,764.7306" style="stroke:#181818;stroke-width:1.0;"/><text fill="#000000" font-family="sans-serif" font-size="13" lengthAdjust="spacing" textLength="68" x="467" y="721.9569">consensus</text><text fill="#000000" font-family="sans-serif" font-size="13" lengthAdjust="spacing" textLength="66" x="468" y="737.0897">messages</text></g><!--link Query to QS--><g id="link_Query_QS"><path d="M1189.25,619.64 C1180.58,643.82 1143.9048,746.102 1122.8248,804.902 " fill="none" id="Query-to-QS" style="stroke:#181818;stroke-width:1.0;"/><polygon fill="#181818" points="1120.8,810.55,1127.6026,803.4279,1122.4874,805.8433,1120.0719,800.7281,1120.8,810.55" style="stroke:#181818;stroke-width:1.0;"/></g><!--reverse link Catchup to Nodes--><g id="link_Catchup_Nodes"><path d="M979.0039,601.9201 C978.8339,573.6601 973.98,456.18 903,406.62 C792.95,329.78 720.93,346.35 601,406.62 C531.54,441.53 485.49,524.26 463.03,573.96 " fill="none" id="Catchup-backto-Nodes" style="stroke:#181818;stroke-width:1.0;"/><polygon fill="#181818" points="979.04,607.92,982.9858,598.8961,979.0099,602.9201,974.9859,598.9442,979.04,607.92" style="stroke:#181818;stroke-width:1.0;"/><text fill="#000000" font-family="sans-serif" font-size="13" lengthAdjust="spacing" textLength="4" x="911" y="348.1669">&#160;</text><text fill="#000000" font-family="sans-serif" font-size="13" lengthAdjust="spacing" textLength="4" x="974.1093" y="596.5314">&#160;</text><text fill="#000000" font-family="sans-serif" font-size="13" lengthAdjust="spacing" textLength="49" x="412.786" y="547.9998">missing</text><text fill="#000000" font-family="sans-serif" font-size="13" lengthAdjust="spacing" textLength="33" x="420.786" y="563.1326">state</text></g><!--link Nodes to Libp2p--><g id="link_Nodes_Libp2p"><path d="M511.48,613.75 C546.58,613.75 578.48,613.75 610.51,613.75 " fill="none" id="Nodes-Libp2p" style="stroke:#181818;stroke-width:1.0;"/><polygon fill="#181818" points="505.48,613.75,514.48,617.75,510.48,613.75,514.48,609.75,505.48,613.75" style="stroke:#181818;stroke-width:1.0;"/><polygon fill="#181818" points="616.51,613.75,607.51,609.75,611.51,613.75,607.51,617.75,616.51,613.75" style="stroke:#181818;stroke-width:1.0;"/><text fill="#000000" font-family="sans-serif" font-size="13" lengthAdjust="spacing" textLength="68" x="527" y="591.8169">consensus</text><text fill="#000000" font-family="sans-serif" font-size="13" lengthAdjust="spacing" textLength="66" x="528" y="606.9497">messages</text></g><!--link CDN Client to CDN--><g id="link_CDN Client_CDN"><path d="M774.7748,642.0304 C760.5548,660.4604 742.51,681.75 720,700.89 C673.14,740.74 614.51,777.2525 567.0475,804.0588 C543.3163,817.4619 522.3769,828.4384 507.0966,836.1923 C503.2765,838.1308 499.8101,839.8679 496.7422,841.3911 C495.2083,842.1527 493.7739,842.8608 492.4448,843.5139 C491.7803,843.8405 491.142,844.1533 490.5308,844.4522 C490.2252,844.6016 489.9263,844.7475 489.6343,844.89 C489.4883,844.9612 494.738,842.404 494.5954,842.4734 " fill="none" id="CDN Client-CDN" style="stroke:#181818;stroke-width:1.0;"/><polygon fill="#181818" points="778.44,637.28,769.7752,641.9621,775.3856,641.2386,776.1091,646.8491,778.44,637.28" style="stroke:#181818;stroke-width:1.0;"/><polygon fill="#181818" points="489.2014,845.101,499.0442,844.7557,493.6964,842.9113,495.5408,837.5636,489.2014,845.101" style="stroke:#181818;stroke-width:1.0;"/><text fill="#000000" font-family="sans-serif" font-size="13" lengthAdjust="spacing" textLength="68" x="709" y="721.9569">consensus</text><text fill="#000000" font-family="sans-serif" font-size="13" lengthAdjust="spacing" textLength="66" x="710" y="737.0897">messages</text></g><!--link QS to DB--><g id="link_QS_DB"><path d="M1107,889.95 C1107,921.68 1107,959.35 1107,985.37 " fill="none" id="QS-to-DB" style="stroke:#181818;stroke-width:1.0;"/><polygon fill="#181818" points="1107,991.37,1111,982.37,1107,986.37,1103,982.37,1107,991.37" style="stroke:#181818;stroke-width:1.0;"/></g><!--link Signer to Relay--><g id="link_Signer_Relay"><path d="M1724.12,637.26 C1737.08,654.98 1756.02,680.08 1774,700.89 C1810.58,743.24 1851.7603,784.7949 1881.7003,814.0749 " fill="none" id="Signer-to-Relay" style="stroke:#181818;stroke-width:1.0;"/><polygon fill="#181818" points="1885.99,818.27,1882.3522,809.1176,1882.4153,814.7741,1876.7588,814.8371,1885.99,818.27" style="stroke:#181818;stroke-width:1.0;"/><text fill="#000000" font-family="sans-serif" font-size="13" lengthAdjust="spacing" textLength="33" x="1809" y="729.4569">state</text></g><!--link Seq to Builder--><g id="link_Seq_Builder"><path d="M1826.1666,613.75 C1826.2533,613.75 1826.3406,613.75 1826.4285,613.75 C1826.7801,613.75 1827.1414,613.75 1827.5121,613.75 C1828.995,613.75 1830.6288,613.75 1832.3969,613.75 C1839.4694,613.75 1848.6925,613.75 1859.0175,613.75 C1879.6675,613.75 1898.725,613.75 1919.8,613.75 " fill="none" id="Seq-to-Builder" style="stroke:#181818;stroke-width:1.0;"/><polygon fill="#181818" points="1925.8,613.75,1916.8,609.75,1920.8,613.75,1916.8,617.75,1925.8,613.75" style="stroke:#181818;stroke-width:1.0;"/><text fill="#000000" font-family="sans-serif" font-size="13" lengthAdjust="spacing" textLength="71" x="1836.68" y="606.8169">claim block</text></g><!--reverse link Seq to Builder--><g id="link_Seq_Builder"><path d="M1831.0014,623.0641 C1831.0872,623.1225 1826.3465,619.8854 1826.4333,619.9443 C1826.607,620.062 1826.7827,620.1807 1826.9606,620.3001 C1828.3832,621.2555 1829.9378,622.2628 1831.5963,623.2838 C1838.23,627.3675 1846.525,631.67 1854.68,633.75 C1877.82,639.64 1904.01,635.91 1925.58,630.15 " fill="none" id="Seq-backto-Builder" style="stroke:#181818;stroke-width:1.0;"/><polygon fill="#181818" points="1826.0462,619.6809,1831.2236,628.0591,1830.1756,622.5002,1835.7345,621.4522,1826.0462,619.6809" style="stroke:#181818;stroke-width:1.0;"/><text fill="#000000" font-family="sans-serif" font-size="13" lengthAdjust="spacing" textLength="33" x="1855.68" y="629.8169">block</text></g><!--link Relay to HSProver--><g id="link_Relay_HSProver"><path d="M1918.19,881.6 C1918.37,910.55 1918.5927,947.8001 1918.7727,976.7901 " fill="none" id="Relay-to-HSProver" style="stroke:#181818;stroke-width:1.0;"/><polygon fill="#181818" points="1918.81,982.79,1922.754,973.7653,1918.779,977.7901,1914.7542,973.815,1918.81,982.79" style="stroke:#181818;stroke-width:1.0;"/><text fill="#000000" font-family="sans-serif" font-size="13" lengthAdjust="spacing" textLength="33" x="1919" y="941.7569">state</text></g><!--reverse link EventsStream to Events--><g id="link_EventsStream_Events"><path d="M1401.4781,625.481 C1395.2281,652.091 1366.54,774.3 1354.25,826.66 " fill="none" id="EventsStream-backto-Events" style="stroke:#181818;stroke-width:1.0;"/><polygon fill="#181818" points="1402.85,619.64,1396.8981,627.487,1401.7067,624.5075,1404.6862,629.3162,1402.85,619.64" style="stroke:#181818;stroke-width:1.0;"/></g><!--reverse link Validated to Events--><g id="link_Validated_Events"><path d="M1515.1897,641.365 C1496.8697,659.705 1473.64,681.45 1447,700.89 C1441.21,705.12 1437.49,703.31 1433,708.89 C1423.66,720.51 1429.5,727.49 1423,740.89 C1407.61,772.62 1383.73,805.58 1367.28,826.64 " fill="none" id="Validated-backto-Events" style="stroke:#181818;stroke-width:1.0;"/><polygon fill="#181818" points="1519.43,637.12,1510.2395,640.6605,1515.8964,640.6575,1515.8995,646.3143,1519.43,637.12" style="stroke:#181818;stroke-width:1.0;"/></g><!--link Networking to Events--><g id="link_Networking_Events"><path d="M895.0987,659.5047 C895.1541,659.7094 895.2098,659.9144 895.2658,660.1198 C895.3779,660.5305 895.4915,660.9425 895.6065,661.3556 C896.0667,663.0084 896.5504,664.6805 897.0587,666.3675 C905.1925,693.36 919.64,724.18 945,740.89 C974.05,760.04 1226.37,734.41 1258,748.89 C1293.46,765.13 1318.0117,797.3309 1333.1317,821.5409 " fill="none" id="Networking-to-Events" style="stroke:#181818;stroke-width:1.0;"/><polygon fill="#181818" points="1336.31,826.63,1334.9353,816.8776,1333.6614,822.3891,1328.1499,821.1153,1336.31,826.63" style="stroke:#181818;stroke-width:1.0;"/></g><!--link EventsStream to Builder--><g id="link_EventsStream_Builder"><path d="M1403.22,608.01 C1399.81,580.14 1389.12,458.25 1455,406.62 C1587.58,302.72 1685.77,326.62 1834,406.62 C1907.44,446.26 1945.777,539.0798 1960.957,584.4698 " fill="none" id="EventsStream-to-Builder" style="stroke:#181818;stroke-width:1.0;"/><polygon fill="#181818" points="1962.86,590.16,1963.799,580.356,1961.2742,585.4182,1956.212,582.8933,1962.86,590.16" style="stroke:#181818;stroke-width:1.0;"/><text fill="#000000" font-family="sans-serif" font-size="13" lengthAdjust="spacing" textLength="4" x="1677" y="348.1669">&#160;</text><text fill="#000000" font-family="sans-serif" font-size="13" lengthAdjust="spacing" textLength="4" x="1397.4478" y="596.6787">&#160;</text><text fill="#000000" font-family="sans-serif" font-size="13" lengthAdjust="spacing" textLength="79" x="1872.4915" y="579.6653">transactions</text></g><!--link Validated to DB--><g id="link_Validated_DB"><path d="M1532.08,637.07 C1524.59,656.07 1513.73,684.14 1505,708.89 C1473.28,798.89 1508.9,848.23 1439,913.19 C1342.82,1002.57 1272.1,930.15 1152,983.19 C1146.83,985.47 1146.7118,985.1922 1141.7518,988.2622 " fill="none" id="Validated-to-DB" style="stroke:#181818;stroke-width:1.0;"/><polygon fill="#181818" points="1136.65,991.42,1146.4079,990.0845,1140.9015,988.7885,1142.1975,983.2821,1136.65,991.42" style="stroke:#181818;stroke-width:1.0;"/></g><!--link Catchup to DB--><g id="link_Catchup_DB"><path d="M979.38,619.49 C981.81,648.07 996.51,799.95 1043,913.19 C1054.93,942.23 1071.663,967.3403 1086.213,986.8503 " fill="none" id="Catchup-to-DB" style="stroke:#181818;stroke-width:1.0;"/><polygon fill="#181818" points="1089.8,991.66,1087.626,982.0541,1086.8109,987.6519,1081.213,986.8367,1089.8,991.66" style="stroke:#181818;stroke-width:1.0;"/></g><!--reverse link L2_RPC to User--><g id="link_L2_RPC_User"><path d="M1899.6088,275.3471 C1947.8788,308.6471 2027.87,364.12 2030,367.6 C2073.7,438.89 2071.2,543.36 2067.48,589.44 " fill="none" id="L2_RPC-backto-User" style="stroke:#181818;stroke-width:1.0;"/><polygon fill="#181818" points="1894.67,271.94,1899.8068,280.3432,1898.7857,274.7793,1904.3496,273.7582,1894.67,271.94" style="stroke:#181818;stroke-width:1.0;"/><text fill="#000000" font-family="sans-serif" font-size="13" lengthAdjust="spacing" textLength="83" x="2018.5" y="340.6669">transactions,</text><text fill="#000000" font-family="sans-serif" font-size="13" lengthAdjust="spacing" textLength="84" x="2018" y="355.7997">state queries</text></g><!--link L2_RPC to Submit--><g id="link_L2_RPC_Submit"><path d="M1836.69,272 C1816.79,288.3 1787.58,309.19 1758,319.6 C1717.61,333.81 1704.57,323.01 1662,327.6 C1594.69,334.85 1409.05,320.94 1360,367.6 C1287.89,436.2 1307.9812,573.5024 1313.0212,601.8924 " fill="none" id="L2_RPC-to-Submit" style="stroke:#181818;stroke-width:1.0;"/><polygon fill="#181818" points="1314.07,607.8,1316.4353,598.2394,1313.196,602.877,1308.5584,599.6377,1314.07,607.8" style="stroke:#181818;stroke-width:1.0;"/><text fill="#000000" font-family="sans-serif" font-size="13" lengthAdjust="spacing" textLength="4" x="1663" y="348.1669">&#160;</text><text fill="#000000" font-family="sans-serif" font-size="13" lengthAdjust="spacing" textLength="72" x="1709.5321" y="291.6829">transaction</text><text fill="#000000" font-family="sans-serif" font-size="13" lengthAdjust="spacing" textLength="144" x="1673.5321" y="306.8157">NamespaceId Rollup N</text><text fill="#000000" font-family="sans-serif" font-size="13" lengthAdjust="spacing" textLength="4" x="1308.2754" y="596.6694">&#160;</text></g><!--reverse link L2_Exec to Query--><g id="link_L2_Exec_Query"><path d="M1633.2502,249.7352 C1444.7402,251.1552 798.52,260.83 737,327.6 C727.36,338.06 727.04,349.44 737,359.6 C752.95,375.86 1129.67,352.81 1147,367.6 C1222.99,432.43 1197.67,579.87 1192,608.04 " fill="none" id="L2_Exec-backto-Query" style="stroke:#181818;stroke-width:1.0;"/><polygon fill="#181818" points="1639.25,249.69,1630.2201,245.7579,1634.2501,249.7277,1630.2804,253.7577,1639.25,249.69" style="stroke:#181818;stroke-width:1.0;"/><text fill="#000000" font-family="sans-serif" font-size="13" lengthAdjust="spacing" textLength="34" x="802.5" y="340.6669">Block</text><text fill="#000000" font-family="sans-serif" font-size="13" lengthAdjust="spacing" textLength="163" x="738" y="355.7997">(sequenced transactions)</text></g><!--link HSProver to LC_L1--><g id="link_HSProver_LC_L1"><path d="M1919.43,1046.14 C1920.2,1100.78 1921.7153,1208.3606 1922.4853,1262.9006 " fill="none" id="HSProver-to-LC_L1" style="stroke:#181818;stroke-width:1.0;"/><polygon fill="#181818" points="1922.57,1268.9,1926.4426,1259.8444,1922.4994,1263.9005,1918.4433,1259.9574,1922.57,1268.9" style="stroke:#181818;stroke-width:1.0;"/><text fill="#000000" font-family="sans-serif" font-size="13" lengthAdjust="spacing" textLength="53" x="1921" y="1122.2069">HotShot</text><text fill="#000000" font-family="sans-serif" font-size="13" lengthAdjust="spacing" textLength="33" x="1931" y="1137.3397">state</text><text fill="#000000" font-family="sans-serif" font-size="13" lengthAdjust="spacing" textLength="33" x="1931" y="1152.4725">proof</text></g><!--link L2_Prover to L2_L1--><g id="link_L2_Prover_L2_L1"><path d="M2056.17,271.92 C2074.17,286.19 2096.11,306.01 2111,327.6 C2188.3,439.69 2223,476.59 2223,612.75 C2223,612.75 2223,612.75 2223,1015.49 C2223,1107.67 2222.5034,1210.6901 2222.2134,1262.7601 " fill="none" id="L2_Prover-to-L2_L1" style="stroke:#181818;stroke-width:1.0;"/><polygon fill="#181818" points="2222.18,1268.76,2226.2301,1259.7824,2222.2078,1263.7601,2218.2302,1259.7379,2222.18,1268.76" style="stroke:#181818;stroke-width:1.0;"/><text fill="#000000" font-family="sans-serif" font-size="13" lengthAdjust="spacing" textLength="35" x="2224" y="839.6069">rollup</text><text fill="#000000" font-family="sans-serif" font-size="13" lengthAdjust="spacing" textLength="33" x="2225" y="854.7397">state</text><text fill="#000000" font-family="sans-serif" font-size="13" lengthAdjust="spacing" textLength="33" x="2225" y="869.8725">proof</text></g><!--link LC_L1 to L2_L1--><g id="link_LC_L1_L2_L1"><path d="M1930.04,1268.85 C1940.81,1228.96 1965.61,1161.99 2015.5,1132.64 C2053.04,1110.55 2075.24,1111.82 2113.5,1132.64 C2166.52,1161.49 2195.5529,1222.9964 2210.0129,1263.0564 " fill="none" id="LC_L1-to-L2_L1" style="stroke:#181818;stroke-width:1.0;"/><polygon fill="#181818" points="2212.05,1268.7,2212.7567,1258.8765,2210.3524,1263.997,2205.2319,1261.5927,2212.05,1268.7" style="stroke:#181818;stroke-width:1.0;"/></g><!--link L2_State to L2_RPC--><g id="link_L2_State_L2_RPC"><path d="M1862,148.53 C1862,170.15 1862,197.07 1862,218.92 " fill="none" id="L2_State-to-L2_RPC" style="stroke:#181818;stroke-width:1.0;"/><polygon fill="#181818" points="1862,224.92,1866,215.92,1862,219.92,1858,215.92,1862,224.92" style="stroke:#181818;stroke-width:1.0;"/><text fill="#000000" font-family="sans-serif" font-size="13" lengthAdjust="spacing" textLength="69" x="1863" y="191.3669">Read state</text></g><!--reverse link L2_State to L2_Exec--><g id="link_L2_State_L2_Exec"><path d="M1822.4426,151.8395 C1808.5026,160.8595 1797.38,168.27 1783,178.3 C1761.38,193.38 1737.54,211.14 1719.4,224.88 " fill="none" id="L2_State-backto-L2_Exec" style="stroke:#181818;stroke-width:1.0;"/><polygon fill="#181818" points="1827.48,148.58,1817.7509,150.111,1823.2821,151.2963,1822.0969,156.8275,1827.48,148.58" style="stroke:#181818;stroke-width:1.0;"/><text fill="#000000" font-family="sans-serif" font-size="13" lengthAdjust="spacing" textLength="69" x="1784" y="191.3669">Write state</text></g><!--link L2_State to L2_Prover--><g id="link_L2_State_L2_Prover"><path d="M1897.56,148.73 C1911.36,157.59 1927.14,168.11 1941,178.3 C1961.09,193.07 1978.2222,207.0996 1994.5422,220.9996 " fill="none" id="L2_State-to-L2_Prover" style="stroke:#181818;stroke-width:1.0;"/><polygon fill="#181818" points="1999.11,224.89,1994.852,216.0092,1995.3035,221.648,1989.6647,222.0995,1999.11,224.89" style="stroke:#181818;stroke-width:1.0;"/><text fill="#000000" font-family="sans-serif" font-size="13" lengthAdjust="spacing" textLength="71" x="1963" y="191.3669">Read State</text></g><!--link Builder to Fee_L1--><g id="link_Builder_Fee_L1"><path d="M1980.47,637.33 C1990.8,657.09 2008.46,685.05 2032,700.89 C2044.52,709.32 2054.84,697.74 2065,708.89 C2212.08,870.31 2116.5508,1166.3349 2079.5908,1263.1049 " fill="none" id="Builder-to-Fee_L1" style="stroke:#181818;stroke-width:1.0;"/><polygon fill="#181818" points="2077.45,1268.71,2084.3979,1261.7296,2079.234,1264.0391,2076.9245,1258.8752,2077.45,1268.71" style="stroke:#181818;stroke-width:1.0;"/><text fill="#000000" font-family="sans-serif" font-size="13" lengthAdjust="spacing" textLength="47" x="2144" y="934.2569">deposit</text><text fill="#000000" font-family="sans-serif" font-size="13" lengthAdjust="spacing" textLength="20" x="2157.5" y="949.3897">fee</text></g><!--reverse link Validated to Fee_L1--><g id="link_Validated_Fee_L1"><path d="M1559.7,642.0149 C1575.21,662.8749 1597.86,687.81 1629,700.89 C1648.88,709.24 2001.3,694.12 2017,708.89 C2098.55,785.65 2076.1,1159.08 2067.57,1268.96 " fill="none" id="Validated-backto-Fee_L1" style="stroke:#181818;stroke-width:1.0;"/><polygon fill="#181818" points="1556.12,637.2,1558.2801,646.8091,1559.1034,641.2124,1564.7,642.0357,1556.12,637.2" style="stroke:#181818;stroke-width:1.0;"/><text fill="#000000" font-family="sans-serif" font-size="13" lengthAdjust="spacing" textLength="20" x="2093" y="934.2569">fee</text><text fill="#000000" font-family="sans-serif" font-size="13" lengthAdjust="spacing" textLength="54" x="2076" y="949.3897">deposits</text></g><!--SRC=[XLRRRkCs47tNLmpyuWIe7IIzF1YB0esJOhT9SpEo1HO65en4sqHaKYMffCOY_zx3copPSf802KNEZCwPEJDKnV9djkGqk3ILviOecl5_Qovphkc6srUbdmV4J5hJZupmawjrfIINbWQtTiNrN3PUStcZ2cw2arjvXog-Pdfn4qDqmvnhzSnrpy7VJ9iLAvkJWbdsn0odAxwvEFVRRvd_DtInhzb6rTO_Xv0q-ZsOJiXOPha_yXlk94PldtdCz6c4KmIS08eqN9hQpEKQ-G49atKe3Le9WwydZgqMpGRpu4uPkzGnEn7-JZx_kFk2uwspVvNIbgRCvgkwsZ-O0NjjUlRhfxMm-_ltDTUR_Ut1PsNDIjcvl7m14l2TMStPscCDMs6Zuzf23l-Pz_SlS9BGBo8F2RcVVU0Ltz1wMUFmrgnIofFFZqD1erg5N0wwDbsxQ_5KdLNl60oSfgQbm7hGCNjheTk3vmh2lGpyuY3AS3mJIybra8rV7ZB_oae1AV72-tc7PcidMM_PWInxdSzbfTKBz6fQ5Veyk_ER7tXgNh9Dn_71xUnwdTUYB2AhkFOcNXhacWkAGEf2jutgohLR4FY41cjX36etboOmnM_MwijGjlxMR5Vieow-dtaawCEGU1eLwbLYnrDAGy7ryaYBvShY9791m9A9DJsLAd_ElBaFbPAOVBCWvKYmqqITasqTjyfjqCHsQ7jJ6uhFZzLC6fPR0QA3h8b7WLzCRNoAdZGg-SAH0iD9f98rKmsJ52PdXaxeGPLbNONUlCREtXqG3EWcMlHEU3VOw8YFbsFwQtPxCtgucnv7- -zOztXS_iVpsYeTZTnZZrL8UBHfIRWxU4EhNPodDywQUVy66JQaBzrbnkir1VQdmVmq4ghsxigfaaXydkQMgRutnZlihvs0eZ3dClc5-5DuzVdyoVcEANQIxLiNKYn12r0lZ5IfNGXdsx3eIfWAkw57j7dc_j3eqQaqL8ecr1RRJx5B2PUW5cYh8Kc5HwigKWigXNp6rkaOTwtSe6s4bxq9TzFGusk7Wnznbg_Y4SHanBekBPDSrQRSqD52wNY87jGEfvAb-yD9c7Y2U-nL7kE1oyB3oR88tdLfk1Z1ezqr-6vX60r8AFzIq5RHRlQS33FgeOMzix7l261wPRhOOsBIfy7O6JTWQ7Y2wHD6OHqpw-GDIEUk3UVoA7bsOnw_0-NdSUlJ3GE-g7CCJD_M63CZP-9-b4Rh8smf3Ee0_tRySR9of3JFkNZXAGG3UkvRaYUh3btaWD0-GfFsoUkXdCPZCzgyzC6w-NJOtazgqURgvs-RxIyTjifuJUMvaBbrUaTzrn1Q0rG55cvn3IqcyHF0Y0LKI-6DAKUBL3atXu_kQwKn4wPSMnZdG7ZS15vnYLclC0xSEhvb2w0d2SsOeb1udu2GiiFydvIrQjrEmA_ZD9Sz_GIehiBSZn-q3Nt7-jlLABp7f0EagwmBVAi4_dreVOKIqlSX_POWkUisZ268Y1MKXymvMB5chKplfWnAqeZRj4uoJJ77zDKLRHCe1WqA9y70eU76bamWdoYBC4qqElfszN2C9g1NXX7WPaaqNsXM5o748TVRXyVZdXGDtPGwfO9R9agJ1iqdrzdDLOCIFxXCXBAaTc-QFzdyWtd6jqPH9_sXmXMslSmHALmF4q2190JQQS5v5ZPtFpGcj72tIxGqsVy0]--></g></svg>