<?xml version="1.0" encoding="us-ascii" standalone="no"?><svg xmlns="http://www.w3.org/2000/svg" xmlns:xlink="http://www.w3.org/1999/xlink" contentStyleType="text/css" height="1708px" preserveAspectRatio="none" style="width:1554px;height:1708px;background:#FFFFFF;" version="1.1" viewBox="0 0 1554 1708" width="1554px" zoomAndPan="magnify"><defs/><g><!--cluster Network--><g id="cluster_Network"><path d="M8.5,375.6 L245.5,375.6 A3.75,3.75 0 0 1 248,378.1 L255,397.8969 L1403.5,397.8969 A2.5,2.5 0 0 1 1406,400.3969 L1406,1420.07 A2.5,2.5 0 0 1 1403.5,1422.57 L8.5,1422.57 A2.5,2.5 0 0 1 6,1420.07 L6,378.1 A2.5,2.5 0 0 1 8.5,375.6 " fill="#FFE4E1" style="stroke:#000000;stroke-width:1.5;"/><line style="stroke:#000000;stroke-width:1.5;" x1="6" x2="255" y1="397.8969" y2="397.8969"/><text fill="#000000" font-family="sans-serif" font-size="14" font-weight="bold" lengthAdjust="spacing" textLength="236" x="10" y="390.5951">Espresso Sequencer Network</text></g><!--cluster CDNLayout--><g id="cluster_CDNLayout"><path d="M32.5,437.75 L119.5,437.75 A3.75,3.75 0 0 1 122,440.25 L129,460.0469 L542.5,460.0469 A2.5,2.5 0 0 1 545,462.5469 L545,919.58 A2.5,2.5 0 0 1 542.5,922.08 L32.5,922.08 A2.5,2.5 0 0 1 30,919.58 L30,440.25 A2.5,2.5 0 0 1 32.5,437.75 " fill="none" style="stroke:none;stroke-width:1.5;"/><line style="stroke:none;stroke-width:1.5;" x1="30" x2="129" y1="460.0469" y2="460.0469"/></g><!--cluster CDN--><g id="cluster_CDN"><path d="M64.5,757.78 L98.5,757.78 A3.75,3.75 0 0 1 101,760.28 L108,780.0769 L510.5,780.0769 A2.5,2.5 0 0 1 513,782.5769 L513,887.58 A2.5,2.5 0 0 1 510.5,890.08 L64.5,890.08 A2.5,2.5 0 0 1 62,887.58 L62,760.28 A2.5,2.5 0 0 1 64.5,757.78 " fill="none" style="stroke:#000000;stroke-width:1.5;"/><line style="stroke:#000000;stroke-width:1.5;" x1="62" x2="108" y1="780.0769" y2="780.0769"/><text fill="#000000" font-family="sans-serif" font-size="14" font-weight="bold" lengthAdjust="spacing" textLength="33" x="66" y="772.7751">CDN</text></g><!--cluster Seq--><g id="cluster_Seq"><rect fill="#FFE4C4" height="692.78" rx="2.5" ry="2.5" style="stroke:#181818;stroke-width:1.0;" width="717" x="569" y="418.6"/><rect fill="#FFE4C4" height="10" style="stroke:#181818;stroke-width:1.0;" width="15" x="1266" y="423.6"/><rect fill="#FFE4C4" height="2" style="stroke:#181818;stroke-width:1.0;" width="4" x="1264" y="425.6"/><rect fill="#FFE4C4" height="2" style="stroke:#181818;stroke-width:1.0;" width="4" x="1264" y="429.6"/><text fill="#000000" font-family="sans-serif" font-size="14" font-weight="bold" lengthAdjust="spacing" textLength="132" x="861.5" y="444.5951">Sequencer Node</text></g><!--cluster APIs--><g id="cluster_APIs"><path d="M647.5,461.6 L682.5,461.6 A3.75,3.75 0 0 1 685,464.1 L692,483.8969 L1259.5,483.8969 A2.5,2.5 0 0 1 1262,486.3969 L1262,624.28 A2.5,2.5 0 0 1 1259.5,626.78 L647.5,626.78 A2.5,2.5 0 0 1 645,624.28 L645,464.1 A2.5,2.5 0 0 1 647.5,461.6 " fill="#E0FFFF" style="stroke:#000000;stroke-width:1.5;"/><line style="stroke:#000000;stroke-width:1.5;" x1="645" x2="692" y1="483.8969" y2="483.8969"/><text fill="#000000" font-family="sans-serif" font-size="14" font-weight="bold" lengthAdjust="spacing" textLength="34" x="649" y="476.5951">APIs</text></g><!--cluster HotShot--><g id="cluster_HotShot"><path d="M603.5,698.78 L667.5,698.78 A3.75,3.75 0 0 1 670,701.28 L677,721.0769 L1158.5,721.0769 A2.5,2.5 0 0 1 1161,723.5769 L1161,927.58 A2.5,2.5 0 0 1 1158.5,930.08 L603.5,930.08 A2.5,2.5 0 0 1 601,927.58 L601,701.28 A2.5,2.5 0 0 1 603.5,698.78 " fill="none" style="stroke:#000000;stroke-width:1.5;"/><line style="stroke:#000000;stroke-width:1.5;" x1="601" x2="677" y1="721.0769" y2="721.0769"/><text fill="#000000" font-family="sans-serif" font-size="14" font-weight="bold" lengthAdjust="spacing" textLength="63" x="605" y="713.7751">HotShot</text></g><!--cluster Networking--><g id="cluster_Networking"><rect fill="none" height="132.3" rx="2.5" ry="2.5" style="stroke:#181818;stroke-width:1.0;" width="302" x="641" y="757.78"/><rect fill="none" height="10" style="stroke:#181818;stroke-width:1.0;" width="15" x="923" y="762.78"/><rect fill="none" height="2" style="stroke:#181818;stroke-width:1.0;" width="4" x="921" y="764.78"/><rect fill="none" height="2" style="stroke:#181818;stroke-width:1.0;" width="4" x="921" y="768.78"/><text fill="#000000" font-family="sans-serif" font-size="14" font-weight="bold" lengthAdjust="spacing" textLength="91" x="746.5" y="783.7751">Networking</text></g><!--cluster State--><g id="cluster_State"><path d="M933.5,971.08 L975.5,971.08 A3.75,3.75 0 0 1 978,973.58 L985,993.3769 L1259.5,993.3769 A2.5,2.5 0 0 1 1262,995.8769 L1262,1084.88 A2.5,2.5 0 0 1 1259.5,1087.38 L933.5,1087.38 A2.5,2.5 0 0 1 931,1084.88 L931,973.58 A2.5,2.5 0 0 1 933.5,971.08 " fill="none" style="stroke:#000000;stroke-width:1.5;"/><line style="stroke:#000000;stroke-width:1.5;" x1="931" x2="985" y1="993.3769" y2="993.3769"/><text fill="#000000" font-family="sans-serif" font-size="14" font-weight="bold" lengthAdjust="spacing" textLength="41" x="935" y="986.0751">State</text></g><!--cluster L2s--><g id="cluster_L2s"><path d="M991.5,6 L1132.5,6 A3.75,3.75 0 0 1 1135,8.5 L1142,28.2969 L1494.5,28.2969 A2.5,2.5 0 0 1 1497,30.7969 L1497,309.1 A2.5,2.5 0 0 1 1494.5,311.6 L991.5,311.6 A2.5,2.5 0 0 1 989,309.1 L989,8.5 A2.5,2.5 0 0 1 991.5,6 " fill="#FFFFE0" style="stroke:#000000;stroke-width:1.5;"/><line style="stroke:#000000;stroke-width:1.5;" x1="989" x2="1142" y1="28.2969" y2="28.2969"/><text fill="#000000" font-family="sans-serif" font-size="14" font-weight="bold" lengthAdjust="spacing" textLength="140" x="993" y="20.9951">Layer 2s / Rollups</text></g><!--cluster L2--><g id="cluster_L2"><rect fill="none" height="238.6" rx="2.5" ry="2.5" style="stroke:#181818;stroke-width:1.0;" width="460" x="1013" y="49"/><rect fill="none" height="10" style="stroke:#181818;stroke-width:1.0;" width="15" x="1453" y="54"/><rect fill="none" height="2" style="stroke:#181818;stroke-width:1.0;" width="4" x="1451" y="56"/><rect fill="none" height="2" style="stroke:#181818;stroke-width:1.0;" width="4" x="1451" y="60"/><text fill="#000000" font-family="sans-serif" font-size="14" font-weight="bold" lengthAdjust="spacing" textLength="64" x="1211" y="74.9951">Rollup N</text></g><!--cluster L1--><g id="cluster_L1"><path d="M1016.5,1501.57 L1157.5,1501.57 A3.75,3.75 0 0 1 1160,1504.07 L1167,1523.8669 L1511.5,1523.8669 A2.5,2.5 0 0 1 1514,1526.3669 L1514,1698.66 A2.5,2.5 0 0 1 1511.5,1701.16 L1016.5,1701.16 A2.5,2.5 0 0 1 1014,1698.66 L1014,1504.07 A2.5,2.5 0 0 1 1016.5,1501.57 " fill="#D3D3D3" style="stroke:#000000;stroke-width:1.5;"/><line style="stroke:#000000;stroke-width:1.5;" x1="1014" x2="1167" y1="1523.8669" y2="1523.8669"/><text fill="#000000" font-family="sans-serif" font-size="14" font-weight="bold" lengthAdjust="spacing" textLength="140" x="1018" y="1516.5651">Ethereum Layer 1</text></g><!--cluster Esp_L1--><g id="cluster_Esp_L1"><path d="M1040.5,1544.57 L1196.5,1544.57 A3.75,3.75 0 0 1 1199,1547.07 L1206,1566.8669 L1317.5,1566.8669 A2.5,2.5 0 0 1 1320,1569.3669 L1320,1674.66 A2.5,2.5 0 0 1 1317.5,1677.16 L1040.5,1677.16 A2.5,2.5 0 0 1 1038,1674.66 L1038,1547.07 A2.5,2.5 0 0 1 1040.5,1544.57 " fill="none" style="stroke:#000000;stroke-width:1.5;"/><line style="stroke:#000000;stroke-width:1.5;" x1="1038" x2="1206" y1="1566.8669" y2="1566.8669"/><text fill="#000000" font-family="sans-serif" font-size="14" font-weight="bold" lengthAdjust="spacing" textLength="155" x="1042" y="1559.5651">Espresso Contracts</text></g><!--cluster Rollup Contracts--><g id="cluster_Rollup Contracts"><path d="M1346.5,1544.57 L1477.5,1544.57 A3.75,3.75 0 0 1 1480,1547.07 L1487,1566.8669 L1487.5,1566.8669 A2.5,2.5 0 0 1 1490,1569.3669 L1490,1674.66 A2.5,2.5 0 0 1 1487.5,1677.16 L1346.5,1677.16 A2.5,2.5 0 0 1 1344,1674.66 L1344,1547.07 A2.5,2.5 0 0 1 1346.5,1544.57 " fill="none" style="stroke:#000000;stroke-width:1.5;"/><line style="stroke:#000000;stroke-width:1.5;" x1="1344" x2="1487" y1="1566.8669" y2="1566.8669"/><text fill="#000000" font-family="sans-serif" font-size="14" font-weight="bold" lengthAdjust="spacing" textLength="130" x="1348" y="1559.5651">Rollup Contracts</text></g><!--entity HSProver--><g id="elem_HSProver"><rect fill="#F1F1F1" height="62.5938" rx="2.5" ry="2.5" style="stroke:#181818;stroke-width:0.5;" width="137" x="966.5" y="1343.97"/><rect fill="#F1F1F1" height="10" style="stroke:#181818;stroke-width:0.5;" width="15" x="1083.5" y="1348.97"/><rect fill="#F1F1F1" height="2" style="stroke:#181818;stroke-width:0.5;" width="4" x="1081.5" y="1350.97"/><rect fill="#F1F1F1" height="2" style="stroke:#181818;stroke-width:0.5;" width="4" x="1081.5" y="1354.97"/><text fill="#000000" font-family="sans-serif" font-size="14" lengthAdjust="spacing" textLength="95" x="981.5" y="1376.9651">HotShot state</text><text fill="#000000" font-family="sans-serif" font-size="14" lengthAdjust="spacing" textLength="97" x="981.5" y="1393.262">prover service</text></g><!--entity Relay--><g id="elem_Relay"><rect fill="#F1F1F1" height="62.5938" rx="2.5" ry="2.5" style="stroke:#181818;stroke-width:0.5;" width="135" x="945.5" y="1189.38"/><rect fill="#F1F1F1" height="10" style="stroke:#181818;stroke-width:0.5;" width="15" x="1060.5" y="1194.38"/><rect fill="#F1F1F1" height="2" style="stroke:#181818;stroke-width:0.5;" width="4" x="1058.5" y="1196.38"/><rect fill="#F1F1F1" height="2" style="stroke:#181818;stroke-width:0.5;" width="4" x="1058.5" y="1200.38"/><text fill="#000000" font-family="sans-serif" font-size="14" lengthAdjust="spacing" textLength="95" x="960.5" y="1222.3751">HotShot state</text><text fill="#000000" font-family="sans-serif" font-size="14" lengthAdjust="spacing" textLength="85" x="960.5" y="1238.672">relay service</text></g><!--entity Builder--><g id="elem_Builder"><rect fill="#F1F1F1" height="46.2969" rx="2.5" ry="2.5" style="stroke:#181818;stroke-width:0.5;" width="88" x="1302" y="540.04"/><rect fill="#F1F1F1" height="10" style="stroke:#181818;stroke-width:0.5;" width="15" x="1370" y="545.04"/><rect fill="#F1F1F1" height="2" style="stroke:#181818;stroke-width:0.5;" width="4" x="1368" y="547.04"/><rect fill="#F1F1F1" height="2" style="stroke:#181818;stroke-width:0.5;" width="4" x="1368" y="551.04"/><text fill="#000000" font-family="sans-serif" font-size="14" lengthAdjust="spacing" textLength="48" x="1317" y="573.0351">Builder</text></g><!--entity Nodes--><g id="elem_Nodes"><rect fill="#F1F1F1" height="78.8906" rx="2.5" ry="2.5" style="stroke:#181818;stroke-width:0.5;" width="116" x="413" y="523.75"/><rect fill="#F1F1F1" height="10" style="stroke:#181818;stroke-width:0.5;" width="15" x="509" y="528.75"/><rect fill="#F1F1F1" height="2" style="stroke:#181818;stroke-width:0.5;" width="4" x="507" y="530.75"/><rect fill="#F1F1F1" height="2" style="stroke:#181818;stroke-width:0.5;" width="4" x="507" y="534.75"/><text fill="#000000" font-family="sans-serif" font-size="14" lengthAdjust="spacing" textLength="39" x="428" y="556.7451">Other</text><text fill="#000000" font-family="sans-serif" font-size="14" lengthAdjust="spacing" textLength="76" x="428" y="573.042">Sequencer</text><text fill="#000000" font-family="sans-serif" font-size="14" lengthAdjust="spacing" textLength="45" x="428" y="589.3389">Nodes</text></g><!--entity Broker--><g id="elem_Broker"><rect fill="#F1F1F1" height="46.2969" rx="2.5" ry="2.5" style="stroke:#181818;stroke-width:0.5;" width="86" x="86" y="819.78"/><rect fill="#F1F1F1" height="10" style="stroke:#181818;stroke-width:0.5;" width="15" x="152" y="824.78"/><rect fill="#F1F1F1" height="2" style="stroke:#181818;stroke-width:0.5;" width="4" x="150" y="826.78"/><rect fill="#F1F1F1" height="2" style="stroke:#181818;stroke-width:0.5;" width="4" x="150" y="830.78"/><text fill="#000000" font-family="sans-serif" font-size="14" lengthAdjust="spacing" textLength="46" x="101" y="852.7751">Broker</text></g><!--entity Marshal--><g id="elem_Marshal"><rect fill="#F1F1F1" height="46.2969" rx="2.5" ry="2.5" style="stroke:#181818;stroke-width:0.5;" width="93" x="376.5" y="819.78"/><rect fill="#F1F1F1" height="10" style="stroke:#181818;stroke-width:0.5;" width="15" x="449.5" y="824.78"/><rect fill="#F1F1F1" height="2" style="stroke:#181818;stroke-width:0.5;" width="4" x="447.5" y="826.78"/><rect fill="#F1F1F1" height="2" style="stroke:#181818;stroke-width:0.5;" width="4" x="447.5" y="830.78"/><text fill="#000000" font-family="sans-serif" font-size="14" lengthAdjust="spacing" textLength="53" x="391.5" y="852.7751">Marshal</text></g><!--entity KeyDB--><g id="elem_KeyDB"><path d="M241,830.28 C241,820.28 274,820.28 274,820.28 C274,820.28 307,820.28 307,830.28 L307,855.5769 C307,865.5769 274,865.5769 274,865.5769 C274,865.5769 241,865.5769 241,855.5769 L241,830.28 " fill="#F1F1F1" style="stroke:#181818;stroke-width:0.5;"/><path d="M241,830.28 C241,840.28 274,840.28 274,840.28 C274,840.28 307,840.28 307,830.28 " fill="none" style="stroke:#181818;stroke-width:0.5;"/><text fill="#000000" font-family="sans-serif" font-size="14" lengthAdjust="spacing" textLength="46" x="251" y="857.2751">KeyDB</text></g><!--entity DB--><g id="elem_DB"><path d="M1188,830.28 C1188,820.28 1229,820.28 1229,820.28 C1229,820.28 1270,820.28 1270,830.28 L1270,855.5769 C1270,865.5769 1229,865.5769 1229,865.5769 C1229,865.5769 1188,865.5769 1188,855.5769 L1188,830.28 " fill="#F1F1F1" style="stroke:#181818;stroke-width:0.5;"/><path d="M1188,830.28 C1188,840.28 1229,840.28 1229,840.28 C1229,840.28 1270,840.28 1270,830.28 " fill="none" style="stroke:#181818;stroke-width:0.5;"/><text fill="#000000" font-family="sans-serif" font-size="14" lengthAdjust="spacing" textLength="62" x="1198" y="857.2751">Postgres</text></g><!--entity Submit--><g id="elem_Submit"><rect fill="#F1F1F1" height="46.2969" rx="2.5" ry="2.5" style="stroke:#181818;stroke-width:0.5;" width="88" x="1158" y="540.04"/><rect fill="#F1F1F1" height="10" style="stroke:#181818;stroke-width:0.5;" width="15" x="1226" y="545.04"/><rect fill="#F1F1F1" height="2" style="stroke:#181818;stroke-width:0.5;" width="4" x="1224" y="547.04"/><rect fill="#F1F1F1" height="2" style="stroke:#181818;stroke-width:0.5;" width="4" x="1224" y="551.04"/><text fill="#000000" font-family="sans-serif" font-size="14" lengthAdjust="spacing" textLength="48" x="1173" y="573.0351">Submit</text></g><!--entity EventsStream--><g id="elem_EventsStream"><rect fill="#F1F1F1" height="95.1875" rx="2.5" ry="2.5" style="stroke:#181818;stroke-width:0.5;" width="95" x="660.5" y="515.6"/><rect fill="#F1F1F1" height="10" style="stroke:#181818;stroke-width:0.5;" width="15" x="735.5" y="520.6"/><rect fill="#F1F1F1" height="2" style="stroke:#181818;stroke-width:0.5;" width="4" x="733.5" y="522.6"/><rect fill="#F1F1F1" height="2" style="stroke:#181818;stroke-width:0.5;" width="4" x="733.5" y="526.6"/><text fill="#000000" font-family="sans-serif" font-size="14" lengthAdjust="spacing" textLength="55" x="675.5" y="548.5951">Hotshot</text><text fill="#000000" font-family="sans-serif" font-size="14" lengthAdjust="spacing" textLength="47" x="675.5" y="564.892">Events</text><text fill="#000000" font-family="sans-serif" font-size="14" lengthAdjust="spacing" textLength="49" x="675.5" y="581.1889">Stream</text><text fill="#000000" font-family="sans-serif" font-size="14" lengthAdjust="spacing" textLength="4" x="675.5" y="597.4857">&#160;</text></g><!--entity Catchup--><g id="elem_Catchup"><rect fill="#F1F1F1" height="46.2969" rx="2.5" ry="2.5" style="stroke:#181818;stroke-width:0.5;" width="98" x="790" y="540.04"/><rect fill="#F1F1F1" height="10" style="stroke:#181818;stroke-width:0.5;" width="15" x="868" y="545.04"/><rect fill="#F1F1F1" height="2" style="stroke:#181818;stroke-width:0.5;" width="4" x="866" y="547.04"/><rect fill="#F1F1F1" height="2" style="stroke:#181818;stroke-width:0.5;" width="4" x="866" y="551.04"/><text fill="#000000" font-family="sans-serif" font-size="14" lengthAdjust="spacing" textLength="58" x="805" y="573.0351">Catchup</text></g><!--entity Status--><g id="elem_Status"><rect fill="#F1F1F1" height="46.2969" rx="2.5" ry="2.5" style="stroke:#181818;stroke-width:0.5;" width="84" x="1039" y="540.04"/><rect fill="#F1F1F1" height="10" style="stroke:#181818;stroke-width:0.5;" width="15" x="1103" y="545.04"/><rect fill="#F1F1F1" height="2" style="stroke:#181818;stroke-width:0.5;" width="4" x="1101" y="547.04"/><rect fill="#F1F1F1" height="2" style="stroke:#181818;stroke-width:0.5;" width="4" x="1101" y="551.04"/><text fill="#000000" font-family="sans-serif" font-size="14" lengthAdjust="spacing" textLength="44" x="1054" y="573.0351">Status</text></g><!--entity Query--><g id="elem_Query"><rect fill="#F1F1F1" height="46.2969" rx="2.5" ry="2.5" style="stroke:#181818;stroke-width:0.5;" width="81" x="922.5" y="540.04"/><rect fill="#F1F1F1" height="10" style="stroke:#181818;stroke-width:0.5;" width="15" x="983.5" y="545.04"/><rect fill="#F1F1F1" height="2" style="stroke:#181818;stroke-width:0.5;" width="4" x="981.5" y="547.04"/><rect fill="#F1F1F1" height="2" style="stroke:#181818;stroke-width:0.5;" width="4" x="981.5" y="551.04"/><text fill="#000000" font-family="sans-serif" font-size="14" lengthAdjust="spacing" textLength="41" x="937.5" y="573.0351">Query</text></g><!--entity Events--><g id="elem_Events"><rect fill="#F1F1F1" height="46.2969" rx="2.5" ry="2.5" style="stroke:#181818;stroke-width:0.5;" width="147" x="970.5" y="819.78"/><rect fill="#F1F1F1" height="10" style="stroke:#181818;stroke-width:0.5;" width="15" x="1097.5" y="824.78"/><rect fill="#F1F1F1" height="2" style="stroke:#181818;stroke-width:0.5;" width="4" x="1095.5" y="826.78"/><rect fill="#F1F1F1" height="2" style="stroke:#181818;stroke-width:0.5;" width="4" x="1095.5" y="830.78"/><text fill="#000000" font-family="sans-serif" font-size="14" lengthAdjust="spacing" textLength="107" x="985.5" y="852.7751">HotShot Events</text></g><!--entity Libp2p--><g id="elem_Libp2p"><rect fill="#F1F1F1" height="46.2969" rx="2.5" ry="2.5" style="stroke:#181818;stroke-width:0.5;" width="86" x="814" y="819.78"/><rect fill="#F1F1F1" height="10" style="stroke:#181818;stroke-width:0.5;" width="15" x="880" y="824.78"/><rect fill="#F1F1F1" height="2" style="stroke:#181818;stroke-width:0.5;" width="4" x="878" y="826.78"/><rect fill="#F1F1F1" height="2" style="stroke:#181818;stroke-width:0.5;" width="4" x="878" y="830.78"/><text fill="#000000" font-family="sans-serif" font-size="14" lengthAdjust="spacing" textLength="46" x="829" y="852.7751">Libp2p</text></g><!--entity CDN Client--><g id="elem_CDN Client"><rect fill="#F1F1F1" height="46.2969" rx="2.5" ry="2.5" style="stroke:#181818;stroke-width:0.5;" width="114" x="665" y="819.78"/><rect fill="#F1F1F1" height="10" style="stroke:#181818;stroke-width:0.5;" width="15" x="759" y="824.78"/><rect fill="#F1F1F1" height="2" style="stroke:#181818;stroke-width:0.5;" width="4" x="757" y="826.78"/><rect fill="#F1F1F1" height="2" style="stroke:#181818;stroke-width:0.5;" width="4" x="757" y="830.78"/><text fill="#000000" font-family="sans-serif" font-size="14" lengthAdjust="spacing" textLength="74" x="680" y="852.7751">CDN Client</text></g><!--entity Signer--><g id="elem_Signer"><rect fill="#F1F1F1" height="46.2969" rx="2.5" ry="2.5" style="stroke:#181818;stroke-width:0.5;" width="124" x="947" y="1025.08"/><rect fill="#F1F1F1" height="10" style="stroke:#181818;stroke-width:0.5;" width="15" x="1051" y="1030.08"/><rect fill="#F1F1F1" height="2" style="stroke:#181818;stroke-width:0.5;" width="4" x="1049" y="1032.08"/><rect fill="#F1F1F1" height="2" style="stroke:#181818;stroke-width:0.5;" width="4" x="1049" y="1036.08"/><text fill="#000000" font-family="sans-serif" font-size="14" lengthAdjust="spacing" textLength="84" x="962" y="1058.0751">State Signer</text></g><!--entity Validated--><g id="elem_Validated"><rect fill="#F1F1F1" height="46.2969" rx="2.5" ry="2.5" style="stroke:#181818;stroke-width:0.5;" width="139" x="1106.5" y="1025.08"/><rect fill="#F1F1F1" height="10" style="stroke:#181818;stroke-width:0.5;" width="15" x="1225.5" y="1030.08"/><rect fill="#F1F1F1" height="2" style="stroke:#181818;stroke-width:0.5;" width="4" x="1223.5" y="1032.08"/><rect fill="#F1F1F1" height="2" style="stroke:#181818;stroke-width:0.5;" width="4" x="1223.5" y="1036.08"/><text fill="#000000" font-family="sans-serif" font-size="14" lengthAdjust="spacing" textLength="99" x="1121.5" y="1058.0751">ValidatedState</text></g><!--entity L2_RPC--><g id="elem_L2_RPC"><rect fill="#F1F1F1" height="46.2969" rx="2.5" ry="2.5" style="stroke:#181818;stroke-width:0.5;" width="172" x="1166" y="225.3"/><rect fill="#F1F1F1" height="10" style="stroke:#181818;stroke-width:0.5;" width="15" x="1318" y="230.3"/><rect fill="#F1F1F1" height="2" style="stroke:#181818;stroke-width:0.5;" width="4" x="1316" y="232.3"/><rect fill="#F1F1F1" height="2" style="stroke:#181818;stroke-width:0.5;" width="4" x="1316" y="236.3"/><text fill="#000000" font-family="sans-serif" font-size="14" lengthAdjust="spacing" textLength="132" x="1181" y="258.2951">API (e.g. JSON-RPC)</text></g><!--entity L2_Exec--><g id="elem_L2_Exec"><rect fill="#F1F1F1" height="46.2969" rx="2.5" ry="2.5" style="stroke:#181818;stroke-width:0.5;" width="101" x="1029.5" y="225.3"/><rect fill="#F1F1F1" height="10" style="stroke:#181818;stroke-width:0.5;" width="15" x="1110.5" y="230.3"/><rect fill="#F1F1F1" height="2" style="stroke:#181818;stroke-width:0.5;" width="4" x="1108.5" y="232.3"/><rect fill="#F1F1F1" height="2" style="stroke:#181818;stroke-width:0.5;" width="4" x="1108.5" y="236.3"/><text fill="#000000" font-family="sans-serif" font-size="14" lengthAdjust="spacing" textLength="61" x="1044.5" y="258.2951">Executor</text></g><!--entity L2_Prover--><g id="elem_L2_Prover"><rect fill="#F1F1F1" height="46.2969" rx="2.5" ry="2.5" style="stroke:#181818;stroke-width:0.5;" width="84" x="1373" y="225.3"/><rect fill="#F1F1F1" height="10" style="stroke:#181818;stroke-width:0.5;" width="15" x="1437" y="230.3"/><rect fill="#F1F1F1" height="2" style="stroke:#181818;stroke-width:0.5;" width="4" x="1435" y="232.3"/><rect fill="#F1F1F1" height="2" style="stroke:#181818;stroke-width:0.5;" width="4" x="1435" y="236.3"/><text fill="#000000" font-family="sans-serif" font-size="14" lengthAdjust="spacing" textLength="44" x="1388" y="258.2951">Prover</text></g><!--entity L2_State--><g id="elem_L2_State"><path d="M1211.5,113 C1211.5,103 1252,103 1252,103 C1252,103 1292.5,103 1292.5,113 L1292.5,138.2969 C1292.5,148.2969 1252,148.2969 1252,148.2969 C1252,148.2969 1211.5,148.2969 1211.5,138.2969 L1211.5,113 " fill="#F1F1F1" style="stroke:#181818;stroke-width:0.5;"/><path d="M1211.5,113 C1211.5,123 1252,123 1252,123 C1252,123 1292.5,123 1292.5,113 " fill="none" style="stroke:#181818;stroke-width:0.5;"/><text fill="#000000" font-family="sans-serif" font-size="14" lengthAdjust="spacing" textLength="61" x="1221.5" y="139.9951">State DB</text></g><!--entity LC_L1--><g id="elem_LC_L1"><rect fill="#F1F1F1" height="62.5938" rx="2.5" ry="2.5" style="stroke:#181818;stroke-width:0.5;" width="116" x="1054" y="1598.57"/><rect fill="#F1F1F1" height="10" style="stroke:#181818;stroke-width:0.5;" width="15" x="1150" y="1603.57"/><rect fill="#F1F1F1" height="2" style="stroke:#181818;stroke-width:0.5;" width="4" x="1148" y="1605.57"/><rect fill="#F1F1F1" height="2" style="stroke:#181818;stroke-width:0.5;" width="4" x="1148" y="1609.57"/><text fill="#000000" font-family="sans-serif" font-size="14" lengthAdjust="spacing" textLength="76" x="1069" y="1631.5651">Light Client</text><text fill="#000000" font-family="sans-serif" font-size="14" lengthAdjust="spacing" textLength="59" x="1069" y="1647.862">Contract</text></g><!--entity Fee_L1--><g id="elem_Fee_L1"><rect fill="#F1F1F1" height="62.5938" rx="2.5" ry="2.5" style="stroke:#181818;stroke-width:0.5;" width="99" x="1204.5" y="1598.57"/><rect fill="#F1F1F1" height="10" style="stroke:#181818;stroke-width:0.5;" width="15" x="1283.5" y="1603.57"/><rect fill="#F1F1F1" height="2" style="stroke:#181818;stroke-width:0.5;" width="4" x="1281.5" y="1605.57"/><rect fill="#F1F1F1" height="2" style="stroke:#181818;stroke-width:0.5;" width="4" x="1281.5" y="1609.57"/><text fill="#000000" font-family="sans-serif" font-size="14" lengthAdjust="spacing" textLength="26" x="1219.5" y="1631.5651">Fee</text><text fill="#000000" font-family="sans-serif" font-size="14" lengthAdjust="spacing" textLength="59" x="1219.5" y="1647.862">Contract</text></g><!--entity L2_L1--><g id="elem_L2_L1"><rect fill="#F1F1F1" height="62.5938" rx="2.5" ry="2.5" style="stroke:#181818;stroke-width:0.5;" width="99" x="1360.5" y="1598.57"/><rect fill="#F1F1F1" height="10" style="stroke:#181818;stroke-width:0.5;" width="15" x="1439.5" y="1603.57"/><rect fill="#F1F1F1" height="2" style="stroke:#181818;stroke-width:0.5;" width="4" x="1437.5" y="1605.57"/><rect fill="#F1F1F1" height="2" style="stroke:#181818;stroke-width:0.5;" width="4" x="1437.5" y="1609.57"/><text fill="#000000" font-family="sans-serif" font-size="14" lengthAdjust="spacing" textLength="57" x="1375.5" y="1631.5651">Rollup N</text><text fill="#000000" font-family="sans-serif" font-size="14" lengthAdjust="spacing" textLength="59" x="1375.5" y="1647.862">Contract</text></g><!--entity User--><g id="elem_User"><ellipse cx="1441" cy="555.04" fill="#F1F1F1" rx="12" ry="12" style="stroke:#181818;stroke-width:0.5;"/><line style="stroke:#181818;stroke-width:0.5;" x1="1429" x2="1453" y1="569.04" y2="569.04"/><text fill="#000000" font-family="sans-serif" font-size="14" lengthAdjust="spacing" textLength="32" x="1425" y="584.0351">User</text></g><!--link Broker to KeyDB--><g id="link_Broker_KeyDB"><path d="M172.11,842.93 C194.15,842.93 214.55,842.93 234.96,842.93 " fill="none" id="Broker-to-KeyDB" style="stroke:#181818;stroke-width:1.0;"/><polygon fill="#181818" points="240.96,842.93,231.96,838.93,235.96,842.93,231.96,846.93,240.96,842.93" style="stroke:#181818;stroke-width:1.0;"/><text fill="#000000" font-family="sans-serif" font-size="13" lengthAdjust="spacing" textLength="33" x="190" y="835.9969">state</text></g><!--link KeyDB to Marshal--><g id="link_KeyDB_Marshal"><path d="M307.44,842.93 C327.69,842.93 347.82,842.93 370.11,842.93 " fill="none" id="KeyDB-to-Marshal" style="stroke:#181818;stroke-width:1.0;"/><polygon fill="#181818" points="376.11,842.93,367.11,838.93,371.11,842.93,367.11,846.93,376.11,842.93" style="stroke:#181818;stroke-width:1.0;"/><text fill="#000000" font-family="sans-serif" font-size="13" lengthAdjust="spacing" textLength="33" x="325.25" y="835.9969">state</text></g><!--link Nodes to CDN--><g id="link_Nodes_CDN"><path d="M476.7278,608.862 C479.6778,632.032 482.72,656.11 486,682.78 C488.14,700.18 490.3775,718.6544 492.5348,736.6206 C493.0742,741.1122 493.6085,745.572 494.135,749.9753 C494.3983,752.177 494.6596,754.3645 494.9187,756.5348 C494.951,756.8061 494.2725,751.1194 494.3048,751.3902 " fill="none" id="Nodes-CDN" style="stroke:#181818;stroke-width:1.0;"/><polygon fill="#181818" points="475.97,602.91,473.1387,612.3431,476.6015,607.87,481.0747,611.3327,475.97,602.91" style="stroke:#181818;stroke-width:1.0;"/><polygon fill="#181818" points="495.0157,757.3479,497.9212,747.9374,494.4233,752.3831,489.9775,748.8852,495.0157,757.3479" style="stroke:#181818;stroke-width:1.0;"/><text fill="#000000" font-family="sans-serif" font-size="13" lengthAdjust="spacing" textLength="68" x="485" y="655.8469">consensus</text><text fill="#000000" font-family="sans-serif" font-size="13" lengthAdjust="spacing" textLength="66" x="486" y="670.9797">messages</text></g><!--reverse link CDN Client to Libp2p--><!--link Nodes to Catchup--><g id="link_Nodes_Catchup"><path d="M497.09,523.42 C527.08,481.74 580.54,418.72 645,392.36 C697.66,370.83 726.08,360.19 773,392.36 C821.9,425.9 834.0699,495.2517 837.3499,533.6917 " fill="none" id="Nodes-to-Catchup" style="stroke:#181818;stroke-width:1.0;"/><polygon fill="#181818" points="837.86,539.67,841.0803,530.3625,837.4349,534.6881,833.1093,531.0427,837.86,539.67" style="stroke:#181818;stroke-width:1.0;"/><text fill="#000000" font-family="sans-serif" font-size="13" lengthAdjust="spacing" textLength="4" x="654" y="348.1669">&#160;</text><text fill="#000000" font-family="sans-serif" font-size="13" lengthAdjust="spacing" textLength="4" x="497.0799" y="512.6679">&#160;</text><text fill="#000000" font-family="sans-serif" font-size="13" lengthAdjust="spacing" textLength="49" x="783.5718" y="513.8199">missing</text><text fill="#000000" font-family="sans-serif" font-size="13" lengthAdjust="spacing" textLength="33" x="791.5718" y="528.9527">state</text></g><!--link Nodes to Libp2p--><g id="link_Nodes_Libp2p"><path d="M534.3922,603.4369 C578.4422,628.9469 636.19,658.34 696,674.78 C717.5,680.7 778.15,669.43 796,682.78 C839.83,715.58 851.586,778.1185 855.056,813.5985 " fill="none" id="Nodes-Libp2p" style="stroke:#181818;stroke-width:1.0;"/><polygon fill="#181818" points="529.2,600.43,534.9837,608.4018,533.5268,602.9357,538.9929,601.4788,529.2,600.43" style="stroke:#181818;stroke-width:1.0;"/><polygon fill="#181818" points="855.64,819.57,858.745,810.2234,855.1533,814.5937,850.783,811.0021,855.64,819.57" style="stroke:#181818;stroke-width:1.0;"/><text fill="#000000" font-family="sans-serif" font-size="13" lengthAdjust="spacing" textLength="68" x="697" y="655.8469">consensus</text><text fill="#000000" font-family="sans-serif" font-size="13" lengthAdjust="spacing" textLength="66" x="698" y="670.9797">messages</text></g><!--link CDN Client to CDN--><g id="link_CDN Client_CDN"><path d="M658.74,842.93 C628.11,842.93 596.4075,842.93 565.3238,842.93 C549.7819,842.93 535.8947,842.93 525.3736,842.93 C522.7433,842.93 520.3234,842.93 518.1407,842.93 C517.0493,842.93 516.0172,842.93 515.0477,842.93 C514.5629,842.93 514.0939,842.93 513.6408,842.93 C513.5276,842.93 519.4153,842.93 519.3041,842.93 " fill="none" id="CDN Client-CDN" style="stroke:#181818;stroke-width:1.0;"/><polygon fill="#181818" points="664.74,842.93,655.74,838.93,659.74,842.93,655.74,846.93,664.74,842.93" style="stroke:#181818;stroke-width:1.0;"/><polygon fill="#181818" points="513.3041,842.93,522.3041,846.93,518.3041,842.93,522.3041,838.93,513.3041,842.93" style="stroke:#181818;stroke-width:1.0;"/><text fill="#000000" font-family="sans-serif" font-size="13" lengthAdjust="spacing" textLength="68" x="551.18" y="820.9969">consensus</text><text fill="#000000" font-family="sans-serif" font-size="13" lengthAdjust="spacing" textLength="66" x="552.18" y="836.1297">messages</text></g><!--link Query to DB--><g id="link_Query_DB"><path d="M971.88,586.66 C983.6,612.94 1006.93,655.32 1042,674.78 C1066.72,688.51 1146.26,665.97 1169,682.78 C1213.16,715.43 1224.3119,778.6724 1227.3819,814.0924 " fill="none" id="Query-to-DB" style="stroke:#181818;stroke-width:1.0;"/><polygon fill="#181818" points="1227.9,820.07,1231.1079,810.7582,1227.4682,815.0887,1223.1378,811.449,1227.9,820.07" style="stroke:#181818;stroke-width:1.0;"/></g><!--link Signer to Relay--><g id="link_Signer_Relay"><path d="M1009.53,1071.86 C1010.24,1102.02 1011.3494,1149.4716 1012.1394,1183.1716 " fill="none" id="Signer-to-Relay" style="stroke:#181818;stroke-width:1.0;"/><polygon fill="#181818" points="1012.28,1189.17,1016.068,1180.0787,1012.1628,1184.1714,1008.0702,1180.2662,1012.28,1189.17" style="stroke:#181818;stroke-width:1.0;"/><text fill="#000000" font-family="sans-serif" font-size="13" lengthAdjust="spacing" textLength="33" x="1012" y="1147.9469">state</text></g><!--link Builder to HotShot--><g id="link_Builder_HotShot"><path d="M1322.72,586.73 C1306.56,601.6 1284.06,620.84 1262,634.78 C1218.63,662.21 1185.27,639.97 1157,682.78 C1154.6013,686.4131 1152.4825,690.2016 1150.6184,694.1127 C1150.1523,695.0904 1149.7022,696.0758 1149.2676,697.0684 C1149.0503,697.5647 1151.1573,692.5296 1150.9477,693.0294 " fill="none" id="Builder-to-HotShot" style="stroke:#181818;stroke-width:1.0;"/><polygon fill="#181818" points="1148.6273,698.5625,1155.7967,691.8097,1150.561,693.9516,1148.4191,688.7159,1148.6273,698.5625" style="stroke:#181818;stroke-width:1.0;"/><text fill="#000000" font-family="sans-serif" font-size="13" lengthAdjust="spacing" textLength="33" x="1245" y="663.3469">block</text></g><!--link Relay to HSProver--><g id="link_Relay_HSProver"><path d="M1017.4,1252.19 C1021.22,1278.72 1025.8846,1311.0213 1029.7146,1337.6113 " fill="none" id="Relay-to-HSProver" style="stroke:#181818;stroke-width:1.0;"/><polygon fill="#181818" points="1030.57,1343.55,1033.246,1334.0717,1029.8572,1338.6011,1025.3277,1335.2122,1030.57,1343.55" style="stroke:#181818;stroke-width:1.0;"/><text fill="#000000" font-family="sans-serif" font-size="13" lengthAdjust="spacing" textLength="33" x="1026" y="1302.5369">state</text></g><!--reverse link EventsStream to Events--><g id="link_EventsStream_Events"><path d="M745.407,615.866 C765.607,639.936 789.78,662.17 822,674.78 C848.74,685.26 926.54,667.72 951,682.78 C1001.55,713.91 1027.67,783.49 1038.23,819.45 " fill="none" id="EventsStream-backto-Events" style="stroke:#181818;stroke-width:1.0;"/><polygon fill="#181818" points="741.55,611.27,744.2716,620.7354,744.7642,615.1,750.3996,615.5926,741.55,611.27" style="stroke:#181818;stroke-width:1.0;"/></g><!--link Events to Validated--><g id="link_Events_Validated"><path d="M1056.88,866.37 C1070.05,889.02 1091.29,924.9 1111,955.08 C1126.84,979.34 1142.5632,1001.496 1155.9832,1019.966 " fill="none" id="Events-to-Validated" style="stroke:#181818;stroke-width:1.0;"/><polygon fill="#181818" points="1159.51,1024.82,1157.4557,1015.1878,1156.571,1020.775,1150.9837,1019.8902,1159.51,1024.82" style="stroke:#181818;stroke-width:1.0;"/></g><!--link Networking to Events--><g id="link_Networking_Events"><path d="M943.0692,842.93 C943.1584,842.93 943.2475,842.93 943.3366,842.93 C943.693,842.93 944.0495,842.93 944.4059,842.93 C947.2575,842.93 950.1088,842.93 952.96,842.93 C958.6625,842.93 958.365,842.93 964.07,842.93 " fill="none" id="Networking-to-Events" style="stroke:#181818;stroke-width:1.0;"/><polygon fill="#181818" points="970.07,842.93,961.07,838.93,965.07,842.93,961.07,846.93,970.07,842.93" style="stroke:#181818;stroke-width:1.0;"/></g><!--link EventsStream to Builder--><g id="link_EventsStream_Builder"><path d="M711.75,515.47 C717.72,475.19 733.16,419.83 773,392.36 C862.46,330.68 1169.75,334.93 1262,392.36 C1314.46,425.03 1333.9835,495.2248 1341.3035,533.8748 " fill="none" id="EventsStream-to-Builder" style="stroke:#181818;stroke-width:1.0;"/><polygon fill="#181818" points="1342.42,539.77,1344.6754,530.1829,1341.4896,534.8573,1336.8151,531.6715,1342.42,539.77" style="stroke:#181818;stroke-width:1.0;"/><text fill="#000000" font-family="sans-serif" font-size="13" lengthAdjust="spacing" textLength="79" x="798.5" y="348.1669">transactions</text></g><!--reverse link DB to Validated--><g id="link_DB_Validated"><path d="M1221.716,871.8858 C1211.546,910.8858 1192.07,985.6 1181.85,1024.8 " fill="none" id="DB-backto-Validated" style="stroke:#181818;stroke-width:1.0;"/><polygon fill="#181818" points="1223.23,866.08,1217.0885,873.7794,1221.9683,870.9182,1224.8296,875.7981,1223.23,866.08" style="stroke:#181818;stroke-width:1.0;"/></g><!--link Catchup to DB--><g id="link_Catchup_DB"><path d="M855.8,586.55 C868.1,601.72 885.92,621.38 905,634.78 C941.81,660.66 954.15,664.68 998,674.78 C1016.54,679.06 1153.61,671.6 1169,682.78 C1213.43,715.08 1224.4669,778.4811 1227.4569,814.0111 " fill="none" id="Catchup-to-DB" style="stroke:#181818;stroke-width:1.0;"/><polygon fill="#181818" points="1227.96,819.99,1231.1912,810.6863,1227.5407,815.0076,1223.2194,811.3571,1227.96,819.99" style="stroke:#181818;stroke-width:1.0;"/></g><!--reverse link L2_RPC to User--><g id="link_L2_RPC_User"><path d="M1287.3502,275.553 C1331.1002,307.983 1402.02,361.07 1406,367.6 C1439.22,422.12 1442.64,500.14 1442.03,538.73 " fill="none" id="L2_RPC-backto-User" style="stroke:#181818;stroke-width:1.0;"/><polygon fill="#181818" points="1282.53,271.98,1287.3782,280.5529,1286.5468,274.9575,1292.1422,274.126,1282.53,271.98" style="stroke:#181818;stroke-width:1.0;"/><text fill="#000000" font-family="sans-serif" font-size="13" lengthAdjust="spacing" textLength="83" x="1397.5" y="340.6669">transactions,</text><text fill="#000000" font-family="sans-serif" font-size="13" lengthAdjust="spacing" textLength="84" x="1397" y="355.7997">state queries</text></g><!--link L2_RPC to Submit--><g id="link_L2_RPC_Submit"><path d="M1248.4,271.94 C1239.18,329.64 1215.6973,476.4952 1206.5073,533.9752 " fill="none" id="L2_RPC-to-Submit" style="stroke:#181818;stroke-width:1.0;"/><polygon fill="#181818" points="1205.56,539.9,1210.9307,531.6444,1206.3494,534.9627,1203.0311,530.3814,1205.56,539.9" style="stroke:#181818;stroke-width:1.0;"/><text fill="#000000" font-family="sans-serif" font-size="13" lengthAdjust="spacing" textLength="4" x="1240" y="348.1669">&#160;</text><text fill="#000000" font-family="sans-serif" font-size="13" lengthAdjust="spacing" textLength="72" x="1125.6436" y="291.6833">transaction</text><text fill="#000000" font-family="sans-serif" font-size="13" lengthAdjust="spacing" textLength="144" x="1089.6436" y="306.8161">NamespaceId Rollup N</text><text fill="#000000" font-family="sans-serif" font-size="13" lengthAdjust="spacing" textLength="4" x="1201.9598" y="529.0944">&#160;</text></g><!--reverse link L2_Exec to Query--><g id="link_L2_Exec_Query"><path d="M1064.371,277.2587 C1051.521,300.6487 1034.57,333.27 1021,367.6 C997.03,428.25 977.41,502.86 968.38,539.59 " fill="none" id="L2_Exec-backto-Query" style="stroke:#181818;stroke-width:1.0;"/><polygon fill="#181818" points="1067.26,272,1059.4207,277.962,1064.8525,276.3822,1066.4323,281.814,1067.26,272" style="stroke:#181818;stroke-width:1.0;"/><text fill="#000000" font-family="sans-serif" font-size="13" lengthAdjust="spacing" textLength="4" x="1039" y="348.1669">&#160;</text><text fill="#000000" font-family="sans-serif" font-size="13" lengthAdjust="spacing" textLength="34" x="950.2065" y="291.6829">Block</text><text fill="#000000" font-family="sans-serif" font-size="13" lengthAdjust="spacing" textLength="163" x="885.7065" y="306.8157">(sequenced transactions)</text><text fill="#000000" font-family="sans-serif" font-size="13" lengthAdjust="spacing" textLength="4" x="965.2039" y="529.0928">&#160;</text></g><!--link HSProver to LC_L1--><g id="link_HSProver_LC_L1"><path d="M1044.36,1406.99 C1059.19,1455.64 1086.1605,1544.1007 1100.9505,1592.6207 " fill="none" id="HSProver-to-LC_L1" style="stroke:#181818;stroke-width:1.0;"/><polygon fill="#181818" points="1102.7,1598.36,1103.902,1588.5848,1101.2421,1593.5773,1096.2496,1590.9174,1102.7,1598.36" style="stroke:#181818;stroke-width:1.0;"/><text fill="#000000" font-family="sans-serif" font-size="13" lengthAdjust="spacing" textLength="53" x="1067" y="1451.6369">HotShot</text><text fill="#000000" font-family="sans-serif" font-size="13" lengthAdjust="spacing" textLength="33" x="1077" y="1466.7697">state</text><text fill="#000000" font-family="sans-serif" font-size="13" lengthAdjust="spacing" textLength="33" x="1077" y="1481.9025">proof</text></g><!--link L2_Prover to L2_L1--><g id="link_L2_Prover_L2_L1"><path d="M1443.82,271.94 C1459.72,286.08 1478.18,305.75 1488,327.6 C1530.93,423.11 1510,457.47 1510,562.19 C1510,562.19 1510,562.19 1510,1376.27 C1510,1461.4 1463.5122,1546.9987 1434.1822,1593.0687 " fill="none" id="L2_Prover-to-L2_L1" style="stroke:#181818;stroke-width:1.0;"/><polygon fill="#181818" points="1430.96,1598.13,1439.1676,1592.6862,1433.6452,1593.9122,1432.4191,1588.3898,1430.96,1598.13" style="stroke:#181818;stroke-width:1.0;"/><text fill="#000000" font-family="sans-serif" font-size="13" lengthAdjust="spacing" textLength="35" x="1511" y="1037.7969">rollup</text><text fill="#000000" font-family="sans-serif" font-size="13" lengthAdjust="spacing" textLength="33" x="1512" y="1052.9297">state</text><text fill="#000000" font-family="sans-serif" font-size="13" lengthAdjust="spacing" textLength="33" x="1512" y="1068.0625">proof</text></g><!--link LC_L1 to L2_L1--><g id="link_LC_L1_L2_L1"><path d="M1121.46,1598.08 C1132.33,1566.97 1153.17,1520.46 1187,1493.57 C1199.84,1483.36 1206.26,1485.78 1222.5,1483.53 C1259.92,1478.35 1271.86,1471 1307.5,1483.53 C1357.68,1501.18 1384.5776,1555.2219 1398.2176,1592.6919 " fill="none" id="LC_L1-to-L2_L1" style="stroke:#181818;stroke-width:1.0;"/><polygon fill="#181818" points="1400.27,1598.33,1400.9501,1588.5047,1398.5597,1593.6316,1393.4327,1591.2412,1400.27,1598.33" style="stroke:#181818;stroke-width:1.0;"/><text fill="#000000" font-family="sans-serif" font-size="13" lengthAdjust="spacing" textLength="53" x="1238.5" y="1459.1369">HotShot</text><text fill="#000000" font-family="sans-serif" font-size="13" lengthAdjust="spacing" textLength="83" x="1223.5" y="1474.2697">commitment</text></g><!--link L2_State to L2_RPC--><g id="link_L2_State_L2_RPC"><path d="M1252,148.53 C1252,170.15 1252,197.07 1252,218.92 " fill="none" id="L2_State-to-L2_RPC" style="stroke:#181818;stroke-width:1.0;"/><polygon fill="#181818" points="1252,224.92,1256,215.92,1252,219.92,1248,215.92,1252,224.92" style="stroke:#181818;stroke-width:1.0;"/><text fill="#000000" font-family="sans-serif" font-size="13" lengthAdjust="spacing" textLength="69" x="1253" y="191.3669">Read state</text></g><!--reverse link L2_State to L2_Exec--><g id="link_L2_State_L2_Exec"><path d="M1212.4426,151.8395 C1198.5026,160.8595 1187.38,168.27 1173,178.3 C1151.38,193.38 1127.54,211.14 1109.4,224.88 " fill="none" id="L2_State-backto-L2_Exec" style="stroke:#181818;stroke-width:1.0;"/><polygon fill="#181818" points="1217.48,148.58,1207.7509,150.111,1213.2821,151.2963,1212.0969,156.8275,1217.48,148.58" style="stroke:#181818;stroke-width:1.0;"/><text fill="#000000" font-family="sans-serif" font-size="13" lengthAdjust="spacing" textLength="69" x="1174" y="191.3669">Write state</text></g><!--link L2_State to L2_Prover--><g id="link_L2_State_L2_Prover"><path d="M1287.56,148.73 C1301.36,157.59 1317.14,168.11 1331,178.3 C1351.09,193.07 1368.2222,207.0996 1384.5422,220.9996 " fill="none" id="L2_State-to-L2_Prover" style="stroke:#181818;stroke-width:1.0;"/><polygon fill="#181818" points="1389.11,224.89,1384.852,216.0092,1385.3035,221.648,1379.6647,222.0995,1389.11,224.89" style="stroke:#181818;stroke-width:1.0;"/><text fill="#000000" font-family="sans-serif" font-size="13" lengthAdjust="spacing" textLength="71" x="1353" y="191.3669">Read State</text></g><!--link Builder to Fee_L1--><g id="link_Builder_Fee_L1"><path d="M1344.65,586.5 C1341.92,633.65 1336,746.88 1336,841.93 C1336,841.93 1336,841.93 1336,1376.27 C1336,1459.95 1297.5328,1546.6088 1273.5428,1593.0688 " fill="none" id="Builder-to-Fee_L1" style="stroke:#181818;stroke-width:1.0;"/><polygon fill="#181818" points="1270.79,1598.4,1278.4734,1592.2384,1273.084,1593.9573,1271.3651,1588.5679,1270.79,1598.4" style="stroke:#181818;stroke-width:1.0;"/><text fill="#000000" font-family="sans-serif" font-size="13" lengthAdjust="spacing" textLength="47" x="1337" y="1140.4469">deposit</text><text fill="#000000" font-family="sans-serif" font-size="13" lengthAdjust="spacing" textLength="20" x="1350.5" y="1155.5797">fee</text></g><!--reverse link Validated to Fee_L1--><g id="link_Validated_Fee_L1"><path d="M1177.2919,1077.6529 C1180.4419,1142.3329 1191.41,1328.64 1220,1485.57 C1227.15,1524.81 1238.21,1569.43 1245.76,1598.31 " fill="none" id="Validated-backto-Fee_L1" style="stroke:#181818;stroke-width:1.0;"/><polygon fill="#181818" points="1177,1071.66,1173.4425,1080.8439,1177.2432,1076.6541,1181.4331,1080.4548,1177,1071.66" style="stroke:#181818;stroke-width:1.0;"/><text fill="#000000" font-family="sans-serif" font-size="13" lengthAdjust="spacing" textLength="20" x="1213" y="1295.0369">fee</text><text fill="#000000" font-family="sans-serif" font-size="13" lengthAdjust="spacing" textLength="54" x="1196" y="1310.1697">deposits</text></g><!--SRC=[XLPjJoCt4Fw-ls8KFWIa9WZwyY52I2LmlUjnl2JbgbvJdSokarXixAtj9OrE_FUEFVR66pPSa89ZpzZpF3FpsEP9o8ffjeAAvKzimS_Ehjb6rVRy7Bvb08zA5roFLQaq_A6PD6ZCfNKhQB_GgfP5r-fSITirRopNNDbDnTzrMhnaMGW4UbUcqjmO1LF-RyrbpZNSSBjM-ga7pCGn77mIncucod0VCKGaCBwy8Iom0ue-kLfLIkAXqBkrIwvdiZbd9czKmGqTuqQDKx9tibLxkmkjdhZUi_Y9QRDaPMkrO9OzCep_8zzSNZHBBnbz-tzzToAXyB_f41YSazC8cMMM-oK_uLR2MUcQHmDd0rp53KSOc3HScjhCv0gvHcY6palOIUX7RqyAJi71XJ2uaD3GuEZTAMCNEZ2OG8hq_NhtmS31jLWixNZ3v5ugUzFwSIKidUc7-mpVAskMoixarJF-HZXJgpbRpQJtfKcQshV3cDbyMLVUFeptHeLyrgQtR_c-vdhZz_6ZdOIwpt5_wzlVWJ7rCBodAqdzB78Y_NwQE1s_uZIuxkSoD8oGYrxRfcrtBHwhq-eDWvuhnN4fSDocuANrY_Q1mTzBKHHS_bFokSMos-lzceMGjYI32PMlyBkaS5yeVl3jhUIXjLX8hgcm_72V-MTM2YniNdW_xz1ClMhLFJXy_yrafTKpTf59Slf-UkSdl-EfUSasBSU9czdrkgX5MGHKOPobvTQdWWJN_h6Qi9AGJD85BmjK-YFekR-LC0OBPYPz8BqiqG_ARxU4f4d-djfiGqAXe5p0e51hYJCUPTIlWCYR1dv6y5Yg_2dpThGG28rE6HKE3EeALriw45V2MTkiRXi56fyiTNNJ8PeHM7TziTmA19SrcuG34L8WD2BStc-eveZcrC0nJ5HPrXLL-lLfbCQ_U5cgTQZa9Cra3JV1lFjEGuc5GpvS3E7twUtDO78tFWhsNt7SuN7r7yzhY_Sn6RcV7LR4Rh19QhUj_zHZbnVnn6bp0RrWjMrlU7Vlyde5HCK9cPy4-Bzfp6dxIj- -2SRuVD38Ub07Ktr5lquY_5wX66So-j5HO_Jgydd7-OufpaJRbtP88Hj9G9rXnAJjXd2wtHRx44s5tS03jdhclc3muCg8aWRjOliXT2NWBQm5jb8VfCAVLbMWvb0A-OHJ9qDy1yWDv9u00uQkqRwFBzqE_O2pV1cMiAwCMDMbPPAhsfGRE9mh7HRpacaNfvAb- -8WJ5Z1ItWjZ_07buKF9yj2yAx-wGv77BtaP7njCPG399H_A61RtFYNEUNgW8LpfqFVAHZJckdY5H8J7or3Pzm4u-GkAauTc7ML3a7lBfoSpEHXT6zlVFHMG3yEauSgIdrHvoYLNf-SiZeJz_4FQjotn5UhSVxf0SDevQ1fddFnpECM335mtwCyMhL08nE0_IGqQ4zX1_0eZetc-GP0xCspOtjJgNcALVicIj3-r4AhZA-iF1SojwxgCSih_-8FWIf2uGRNM96n1G234NEiNQ0J8qVpc3-dmOVtjT8e4cEkBHhd6E5Hi_6IIrHwXQBWnk6KRG0T93Iw1PH-Jm1HjX__ex9MhL82VXv6rVRmOq1rHV8VdjmDV8VwoyS1dMFY0j9LrWM-MWX_LxG-GqcaJQeIbjyCz9SOgBj-IQAmj5W1EV7fWWsPJFZV9HBhI-E-JLj5qxZd43wxL6u8E5McS8L9o1h4RC44iep94gRP3Gw_V9mSOMl0cg4yE9q9vdFDweAssETwEtauwY2kxnJi10fkcIXD5A4pr_NDZOHqJXmJbAme1OqmH9i_KUlurYXKJ_TMTDErtYfqTOmm52mKWPcRSvxHP3YhUJMCOEvkdc1fily1]--></g></svg>