<?xml version="1.0" encoding="us-ascii" standalone="no"?><svg xmlns="http://www.w3.org/2000/svg" xmlns:xlink="http://www.w3.org/1999/xlink" contentStyleType="text/css" height="1423px" preserveAspectRatio="none" style="width:2534px;height:1423px;background:#FFFFFF;" version="1.1" viewBox="0 0 2534 1423" width="2534px" zoomAndPan="magnify"><defs/><g><!--cluster Network--><g id="cluster_Network"><path d="M180.66,665.04 L417.66,665.04 A3.75,3.75 0 0 1 420.16,667.54 L427.16,687.3369 L690.66,687.3369 A2.5,2.5 0 0 1 693.16,689.8369 L693.16,1020.63 A2.5,2.5 0 0 1 690.66,1023.13 L180.66,1023.13 A2.5,2.5 0 0 1 178.16,1020.63 L178.16,667.54 A2.5,2.5 0 0 1 180.66,665.04 " fill="none" style="stroke:#000000;stroke-width:1.5;"/><line style="stroke:#000000;stroke-width:1.5;" x1="178.16" x2="427.16" y1="687.3369" y2="687.3369"/><text fill="#000000" font-family="sans-serif" font-size="14" font-weight="bold" lengthAdjust="spacing" textLength="236" x="182.16" y="680.0351">Espresso Sequencer Network</text></g><!--cluster CDN--><g id="cluster_CDN"><path d="M212.66,716.04 L246.66,716.04 A3.75,3.75 0 0 1 249.16,718.54 L256.16,738.3369 L658.66,738.3369 A2.5,2.5 0 0 1 661.16,740.8369 L661.16,845.83 A2.5,2.5 0 0 1 658.66,848.33 L212.66,848.33 A2.5,2.5 0 0 1 210.16,845.83 L210.16,718.54 A2.5,2.5 0 0 1 212.66,716.04 " fill="none" style="stroke:#000000;stroke-width:1.5;"/><line style="stroke:#000000;stroke-width:1.5;" x1="210.16" x2="256.16" y1="738.3369" y2="738.3369"/><text fill="#000000" font-family="sans-serif" font-size="14" font-weight="bold" lengthAdjust="spacing" textLength="33" x="214.16" y="731.0351">CDN</text></g><!--cluster Espresso--><g id="cluster_Espresso"><path d="M719.66,376.59 L884.66,376.59 A3.75,3.75 0 0 1 887.16,379.09 L894.16,398.8869 L2309.66,398.8869 A2.5,2.5 0 0 1 2312.16,401.3869 L2312.16,1028.78 A2.5,2.5 0 0 1 2309.66,1031.28 L719.66,1031.28 A2.5,2.5 0 0 1 717.16,1028.78 L717.16,379.09 A2.5,2.5 0 0 1 719.66,376.59 " fill="none" style="stroke:#000000;stroke-width:1.5;"/><line style="stroke:#000000;stroke-width:1.5;" x1="717.16" x2="894.16" y1="398.8869" y2="398.8869"/><text fill="#000000" font-family="sans-serif" font-size="14" font-weight="bold" lengthAdjust="spacing" textLength="164" x="721.16" y="391.5851">Espresso Sequencer</text></g><!--cluster Seq--><g id="cluster_Seq"><path d="M751.66,427.59 L884.66,427.59 A3.75,3.75 0 0 1 887.16,430.09 L894.16,449.8869 L2016.66,449.8869 A2.5,2.5 0 0 1 2019.16,452.3869 L2019.16,864.19 A2.5,2.5 0 0 1 2016.66,866.69 L751.66,866.69 A2.5,2.5 0 0 1 749.16,864.19 L749.16,430.09 A2.5,2.5 0 0 1 751.66,427.59 " fill="none" style="stroke:#000000;stroke-width:1.5;"/><line style="stroke:#000000;stroke-width:1.5;" x1="749.16" x2="894.16" y1="449.8869" y2="449.8869"/><text fill="#000000" font-family="sans-serif" font-size="14" font-weight="bold" lengthAdjust="spacing" textLength="132" x="753.16" y="442.5851">Sequencer Node</text></g><!--cluster APIs--><g id="cluster_APIs"><rect fill="none" height="278.95" rx="2.5" ry="2.5" style="stroke:#181818;stroke-width:1.0;" width="543.5" x="1089.66" y="555.74"/><rect fill="none" height="10" style="stroke:#181818;stroke-width:1.0;" width="15" x="1613.16" y="560.74"/><rect fill="none" height="2" style="stroke:#181818;stroke-width:1.0;" width="4" x="1611.16" y="562.74"/><rect fill="none" height="2" style="stroke:#181818;stroke-width:1.0;" width="4" x="1611.16" y="566.74"/><text fill="#000000" font-family="sans-serif" font-size="14" font-weight="bold" lengthAdjust="spacing" textLength="34" x="1344.41" y="581.7351">APIs</text></g><!--cluster Networking--><g id="cluster_Networking"><rect fill="none" height="116.3" rx="2.5" ry="2.5" style="stroke:#181818;stroke-width:1.0;" width="267" x="781.16" y="478.59"/><rect fill="none" height="10" style="stroke:#181818;stroke-width:1.0;" width="15" x="1028.16" y="483.59"/><rect fill="none" height="2" style="stroke:#181818;stroke-width:1.0;" width="4" x="1026.16" y="485.59"/><rect fill="none" height="2" style="stroke:#181818;stroke-width:1.0;" width="4" x="1026.16" y="489.59"/><text fill="#000000" font-family="sans-serif" font-size="14" font-weight="bold" lengthAdjust="spacing" textLength="91" x="869.16" y="504.5851">Networking</text></g><!--cluster L2--><g id="cluster_L2"><path d="M1669.66,6 L1738.66,6 A3.75,3.75 0 0 1 1741.16,8.5 L1748.16,28.2969 L2172.66,28.2969 A2.5,2.5 0 0 1 2175.16,30.7969 L2175.16,310.09 A2.5,2.5 0 0 1 2172.66,312.59 L1669.66,312.59 A2.5,2.5 0 0 1 1667.16,310.09 L1667.16,8.5 A2.5,2.5 0 0 1 1669.66,6 " fill="none" style="stroke:#000000;stroke-width:1.5;"/><line style="stroke:#000000;stroke-width:1.5;" x1="1667.16" x2="1748.16" y1="28.2969" y2="28.2969"/><text fill="#000000" font-family="sans-serif" font-size="14" font-weight="bold" lengthAdjust="spacing" textLength="68" x="1671.16" y="20.9951">Layer 2s</text></g><!--cluster L2_1--><g id="cluster_L2_1"><rect fill="none" height="239.59" rx="2.5" ry="2.5" style="stroke:#181818;stroke-width:1.0;" width="460" x="1691.16" y="49"/><rect fill="none" height="10" style="stroke:#181818;stroke-width:1.0;" width="15" x="2131.16" y="54"/><rect fill="none" height="2" style="stroke:#181818;stroke-width:1.0;" width="4" x="2129.16" y="56"/><rect fill="none" height="2" style="stroke:#181818;stroke-width:1.0;" width="4" x="2129.16" y="60"/><text fill="#000000" font-family="sans-serif" font-size="14" font-weight="bold" lengthAdjust="spacing" textLength="63" x="1889.66" y="74.9951">Rollup 1</text></g><!--cluster L1--><g id="cluster_L1"><path d="M2163.66,1080.28 L2223.66,1080.28 A3.75,3.75 0 0 1 2226.16,1082.78 L2233.16,1102.5769 L2389.66,1102.5769 A2.5,2.5 0 0 1 2392.16,1105.0769 L2392.16,1413.67 A2.5,2.5 0 0 1 2389.66,1416.17 L2163.66,1416.17 A2.5,2.5 0 0 1 2161.16,1413.67 L2161.16,1082.78 A2.5,2.5 0 0 1 2163.66,1080.28 " fill="none" style="stroke:#000000;stroke-width:1.5;"/><line style="stroke:#000000;stroke-width:1.5;" x1="2161.16" x2="2233.16" y1="1102.5769" y2="1102.5769"/><text fill="#000000" font-family="sans-serif" font-size="14" font-weight="bold" lengthAdjust="spacing" textLength="59" x="2165.16" y="1095.2751">Layer 1</text></g><!--cluster L2_L1--><g id="cluster_L2_L1"><path d="M2195.66,1235.58 L2326.66,1235.58 A3.75,3.75 0 0 1 2329.16,1238.08 L2336.16,1257.8769 L2357.66,1257.8769 A2.5,2.5 0 0 1 2360.16,1260.3769 L2360.16,1381.67 A2.5,2.5 0 0 1 2357.66,1384.17 L2195.66,1384.17 A2.5,2.5 0 0 1 2193.16,1381.67 L2193.16,1238.08 A2.5,2.5 0 0 1 2195.66,1235.58 " fill="none" style="stroke:#000000;stroke-width:1.5;"/><line style="stroke:#000000;stroke-width:1.5;" x1="2193.16" x2="2336.16" y1="1257.8769" y2="1257.8769"/><text fill="#000000" font-family="sans-serif" font-size="14" font-weight="bold" lengthAdjust="spacing" textLength="130" x="2197.16" y="1250.5751">Rollup Contracts</text></g><!--entity Nodes--><g id="elem_Nodes"><rect fill="#F1F1F1" height="46.2969" rx="2.5" ry="2.5" style="stroke:#181818;stroke-width:0.5;" width="165" x="194.66" y="960.83"/><rect fill="#F1F1F1" height="10" style="stroke:#181818;stroke-width:0.5;" width="15" x="339.66" y="965.83"/><rect fill="#F1F1F1" height="2" style="stroke:#181818;stroke-width:0.5;" width="4" x="337.66" y="967.83"/><rect fill="#F1F1F1" height="2" style="stroke:#181818;stroke-width:0.5;" width="4" x="337.66" y="971.83"/><text fill="#000000" font-family="sans-serif" font-size="14" lengthAdjust="spacing" textLength="125" x="209.66" y="993.8251">Sequencer Nodes</text></g><!--entity Broker--><g id="elem_Broker"><rect fill="#F1F1F1" height="46.2969" rx="2.5" ry="2.5" style="stroke:#181818;stroke-width:0.5;" width="86" x="234.16" y="778.04"/><rect fill="#F1F1F1" height="10" style="stroke:#181818;stroke-width:0.5;" width="15" x="300.16" y="783.04"/><rect fill="#F1F1F1" height="2" style="stroke:#181818;stroke-width:0.5;" width="4" x="298.16" y="785.04"/><rect fill="#F1F1F1" height="2" style="stroke:#181818;stroke-width:0.5;" width="4" x="298.16" y="789.04"/><text fill="#000000" font-family="sans-serif" font-size="14" lengthAdjust="spacing" textLength="46" x="249.16" y="811.0351">Broker</text></g><!--entity Marshal--><g id="elem_Marshal"><rect fill="#F1F1F1" height="46.2969" rx="2.5" ry="2.5" style="stroke:#181818;stroke-width:0.5;" width="93" x="524.66" y="778.04"/><rect fill="#F1F1F1" height="10" style="stroke:#181818;stroke-width:0.5;" width="15" x="597.66" y="783.04"/><rect fill="#F1F1F1" height="2" style="stroke:#181818;stroke-width:0.5;" width="4" x="595.66" y="785.04"/><rect fill="#F1F1F1" height="2" style="stroke:#181818;stroke-width:0.5;" width="4" x="595.66" y="789.04"/><text fill="#000000" font-family="sans-serif" font-size="14" lengthAdjust="spacing" textLength="53" x="539.66" y="811.0351">Marshal</text></g><!--entity KeyDB--><g id="elem_KeyDB"><path d="M389.16,788.54 C389.16,778.54 422.16,778.54 422.16,778.54 C422.16,778.54 455.16,778.54 455.16,788.54 L455.16,813.8369 C455.16,823.8369 422.16,823.8369 422.16,823.8369 C422.16,823.8369 389.16,823.8369 389.16,813.8369 L389.16,788.54 " fill="#F1F1F1" style="stroke:#181818;stroke-width:0.5;"/><path d="M389.16,788.54 C389.16,798.54 422.16,798.54 422.16,798.54 C422.16,798.54 455.16,798.54 455.16,788.54 " fill="none" style="stroke:#181818;stroke-width:0.5;"/><text fill="#000000" font-family="sans-serif" font-size="14" lengthAdjust="spacing" textLength="46" x="399.16" y="815.5351">KeyDB</text></g><!--entity DB--><g id="elem_DB"><path d="M2043.16,788.54 C2043.16,778.54 2084.16,778.54 2084.16,778.54 C2084.16,778.54 2125.16,778.54 2125.16,788.54 L2125.16,813.8369 C2125.16,823.8369 2084.16,823.8369 2084.16,823.8369 C2084.16,823.8369 2043.16,823.8369 2043.16,813.8369 L2043.16,788.54 " fill="#F1F1F1" style="stroke:#181818;stroke-width:0.5;"/><path d="M2043.16,788.54 C2043.16,798.54 2084.16,798.54 2084.16,798.54 C2084.16,798.54 2125.16,798.54 2125.16,788.54 " fill="none" style="stroke:#181818;stroke-width:0.5;"/><text fill="#000000" font-family="sans-serif" font-size="14" lengthAdjust="spacing" textLength="62" x="2053.16" y="815.5351">Postgres</text></g><!--entity HSProver--><g id="elem_HSProver"><rect fill="#F1F1F1" height="62.5938" rx="2.5" ry="2.5" style="stroke:#181818;stroke-width:0.5;" width="137" x="2158.66" y="952.69"/><rect fill="#F1F1F1" height="10" style="stroke:#181818;stroke-width:0.5;" width="15" x="2275.66" y="957.69"/><rect fill="#F1F1F1" height="2" style="stroke:#181818;stroke-width:0.5;" width="4" x="2273.66" y="959.69"/><rect fill="#F1F1F1" height="2" style="stroke:#181818;stroke-width:0.5;" width="4" x="2273.66" y="963.69"/><text fill="#000000" font-family="sans-serif" font-size="14" lengthAdjust="spacing" textLength="95" x="2173.66" y="985.6851">HotShot state</text><text fill="#000000" font-family="sans-serif" font-size="14" lengthAdjust="spacing" textLength="97" x="2173.66" y="1001.982">prover service</text></g><!--entity Relay--><g id="elem_Relay"><rect fill="#F1F1F1" height="62.5938" rx="2.5" ry="2.5" style="stroke:#181818;stroke-width:0.5;" width="135" x="2160.66" y="769.89"/><rect fill="#F1F1F1" height="10" style="stroke:#181818;stroke-width:0.5;" width="15" x="2275.66" y="774.89"/><rect fill="#F1F1F1" height="2" style="stroke:#181818;stroke-width:0.5;" width="4" x="2273.66" y="776.89"/><rect fill="#F1F1F1" height="2" style="stroke:#181818;stroke-width:0.5;" width="4" x="2273.66" y="780.89"/><text fill="#000000" font-family="sans-serif" font-size="14" lengthAdjust="spacing" textLength="95" x="2175.66" y="802.8851">HotShot state</text><text fill="#000000" font-family="sans-serif" font-size="14" lengthAdjust="spacing" textLength="85" x="2175.66" y="819.182">relay service</text></g><!--entity Builder--><g id="elem_Builder"><rect fill="#F1F1F1" height="46.2969" rx="2.5" ry="2.5" style="stroke:#181818;stroke-width:0.5;" width="88" x="2119.16" y="532.59"/><rect fill="#F1F1F1" height="10" style="stroke:#181818;stroke-width:0.5;" width="15" x="2187.16" y="537.59"/><rect fill="#F1F1F1" height="2" style="stroke:#181818;stroke-width:0.5;" width="4" x="2185.16" y="539.59"/><rect fill="#F1F1F1" height="2" style="stroke:#181818;stroke-width:0.5;" width="4" x="2185.16" y="543.59"/><text fill="#000000" font-family="sans-serif" font-size="14" lengthAdjust="spacing" textLength="48" x="2134.16" y="565.5851">Builder</text></g><!--entity QS--><g id="elem_QS"><rect fill="#F1F1F1" height="62.5938" rx="2.5" ry="2.5" style="stroke:#181818;stroke-width:0.5;" width="141" x="1676.66" y="524.44"/><rect fill="#F1F1F1" height="10" style="stroke:#181818;stroke-width:0.5;" width="15" x="1797.66" y="529.44"/><rect fill="#F1F1F1" height="2" style="stroke:#181818;stroke-width:0.5;" width="4" x="1795.66" y="531.44"/><rect fill="#F1F1F1" height="2" style="stroke:#181818;stroke-width:0.5;" width="4" x="1795.66" y="535.44"/><text fill="#000000" font-family="sans-serif" font-size="14" lengthAdjust="spacing" textLength="101" x="1691.66" y="557.4351">HotShot Query</text><text fill="#000000" font-family="sans-serif" font-size="14" lengthAdjust="spacing" textLength="50" x="1691.66" y="573.732">Service</text></g><text fill="#000000" font-family="sans-serif" font-size="14" lengthAdjust="spacing" textLength="58" x="1078.66" y="534.4382">Catchup</text><rect fill="#F1F1F1" height="12" style="stroke:#181818;stroke-width:1.5;" width="12" x="1101.66" y="549.74"/><text fill="#000000" font-family="sans-serif" font-size="14" lengthAdjust="spacing" textLength="37" x="1191.66" y="534.4382">HTTP</text><rect fill="#F1F1F1" height="12" style="stroke:#181818;stroke-width:1.5;" width="12" x="1204.16" y="549.74"/><text fill="#000000" font-family="sans-serif" font-size="14" lengthAdjust="spacing" textLength="44" x="1291.16" y="534.4382">Status</text><rect fill="#F1F1F1" height="12" style="stroke:#181818;stroke-width:1.5;" width="12" x="1307.16" y="549.74"/><text fill="#000000" font-family="sans-serif" font-size="14" lengthAdjust="spacing" textLength="48" x="1502.16" y="534.4382">Submit</text><rect fill="#F1F1F1" height="12" style="stroke:#181818;stroke-width:1.5;" width="12" x="1520.16" y="549.74"/><text fill="#000000" font-family="sans-serif" font-size="14" lengthAdjust="spacing" textLength="41" x="1381.66" y="534.4382">Query</text><rect fill="#F1F1F1" height="12" style="stroke:#181818;stroke-width:1.5;" width="12" x="1396.16" y="549.74"/><text fill="#000000" font-family="sans-serif" font-size="14" lengthAdjust="spacing" textLength="55" x="1587.66" y="501.8445">Hotshot</text><text fill="#000000" font-family="sans-serif" font-size="14" lengthAdjust="spacing" textLength="47" x="1591.66" y="518.1414">Events</text><text fill="#000000" font-family="sans-serif" font-size="14" lengthAdjust="spacing" textLength="49" x="1590.66" y="534.4382">Stream</text><rect fill="#F1F1F1" height="12" style="stroke:#181818;stroke-width:1.5;" width="12" x="1609.16" y="549.74"/><!--entity Libp2p--><g id="elem_Libp2p"><rect fill="#F1F1F1" height="46.2969" rx="2.5" ry="2.5" style="stroke:#181818;stroke-width:0.5;" width="86" x="797.16" y="532.59"/><rect fill="#F1F1F1" height="10" style="stroke:#181818;stroke-width:0.5;" width="15" x="863.16" y="537.59"/><rect fill="#F1F1F1" height="2" style="stroke:#181818;stroke-width:0.5;" width="4" x="861.16" y="539.59"/><rect fill="#F1F1F1" height="2" style="stroke:#181818;stroke-width:0.5;" width="4" x="861.16" y="543.59"/><text fill="#000000" font-family="sans-serif" font-size="14" lengthAdjust="spacing" textLength="46" x="812.16" y="565.5851">Libp2p</text></g><!--entity CDN Client--><g id="elem_CDN Client"><rect fill="#F1F1F1" height="46.2969" rx="2.5" ry="2.5" style="stroke:#181818;stroke-width:0.5;" width="114" x="918.16" y="532.59"/><rect fill="#F1F1F1" height="10" style="stroke:#181818;stroke-width:0.5;" width="15" x="1012.16" y="537.59"/><rect fill="#F1F1F1" height="2" style="stroke:#181818;stroke-width:0.5;" width="4" x="1010.16" y="539.59"/><rect fill="#F1F1F1" height="2" style="stroke:#181818;stroke-width:0.5;" width="4" x="1010.16" y="543.59"/><text fill="#000000" font-family="sans-serif" font-size="14" lengthAdjust="spacing" textLength="74" x="933.16" y="565.5851">CDN Client</text></g><!--entity Signer--><g id="elem_Signer"><rect fill="#F1F1F1" height="46.2969" rx="2.5" ry="2.5" style="stroke:#181818;stroke-width:0.5;" width="124" x="1852.16" y="532.59"/><rect fill="#F1F1F1" height="10" style="stroke:#181818;stroke-width:0.5;" width="15" x="1956.16" y="537.59"/><rect fill="#F1F1F1" height="2" style="stroke:#181818;stroke-width:0.5;" width="4" x="1954.16" y="539.59"/><rect fill="#F1F1F1" height="2" style="stroke:#181818;stroke-width:0.5;" width="4" x="1954.16" y="543.59"/><text fill="#000000" font-family="sans-serif" font-size="14" lengthAdjust="spacing" textLength="84" x="1867.16" y="565.5851">State Signer</text></g><!--entity L2_1_RPC--><g id="elem_L2_1_RPC"><rect fill="#F1F1F1" height="46.2969" rx="2.5" ry="2.5" style="stroke:#181818;stroke-width:0.5;" width="172" x="1844.16" y="226.29"/><rect fill="#F1F1F1" height="10" style="stroke:#181818;stroke-width:0.5;" width="15" x="1996.16" y="231.29"/><rect fill="#F1F1F1" height="2" style="stroke:#181818;stroke-width:0.5;" width="4" x="1994.16" y="233.29"/><rect fill="#F1F1F1" height="2" style="stroke:#181818;stroke-width:0.5;" width="4" x="1994.16" y="237.29"/><text fill="#000000" font-family="sans-serif" font-size="14" lengthAdjust="spacing" textLength="132" x="1859.16" y="259.2851">API (e.g. JSON-RPC)</text></g><!--entity L2_1_Exec--><g id="elem_L2_1_Exec"><rect fill="#F1F1F1" height="46.2969" rx="2.5" ry="2.5" style="stroke:#181818;stroke-width:0.5;" width="101" x="1707.66" y="226.29"/><rect fill="#F1F1F1" height="10" style="stroke:#181818;stroke-width:0.5;" width="15" x="1788.66" y="231.29"/><rect fill="#F1F1F1" height="2" style="stroke:#181818;stroke-width:0.5;" width="4" x="1786.66" y="233.29"/><rect fill="#F1F1F1" height="2" style="stroke:#181818;stroke-width:0.5;" width="4" x="1786.66" y="237.29"/><text fill="#000000" font-family="sans-serif" font-size="14" lengthAdjust="spacing" textLength="61" x="1722.66" y="259.2851">Executor</text></g><!--entity L2_1_Prover--><g id="elem_L2_1_Prover"><rect fill="#F1F1F1" height="46.2969" rx="2.5" ry="2.5" style="stroke:#181818;stroke-width:0.5;" width="84" x="2051.16" y="226.29"/><rect fill="#F1F1F1" height="10" style="stroke:#181818;stroke-width:0.5;" width="15" x="2115.16" y="231.29"/><rect fill="#F1F1F1" height="2" style="stroke:#181818;stroke-width:0.5;" width="4" x="2113.16" y="233.29"/><rect fill="#F1F1F1" height="2" style="stroke:#181818;stroke-width:0.5;" width="4" x="2113.16" y="237.29"/><text fill="#000000" font-family="sans-serif" font-size="14" lengthAdjust="spacing" textLength="44" x="2066.16" y="259.2851">Prover</text></g><!--entity L2_1_State--><g id="elem_L2_1_State"><rect fill="#F1F1F1" height="46.2969" rx="2.5" ry="2.5" style="stroke:#181818;stroke-width:0.5;" width="101" x="1879.66" y="103"/><rect fill="#F1F1F1" height="10" style="stroke:#181818;stroke-width:0.5;" width="15" x="1960.66" y="108"/><rect fill="#F1F1F1" height="2" style="stroke:#181818;stroke-width:0.5;" width="4" x="1958.66" y="110"/><rect fill="#F1F1F1" height="2" style="stroke:#181818;stroke-width:0.5;" width="4" x="1958.66" y="114"/><text fill="#000000" font-family="sans-serif" font-size="14" lengthAdjust="spacing" textLength="61" x="1894.66" y="135.9951">State DB</text></g><!--entity LC_L1--><g id="elem_LC_L1"><rect fill="#F1F1F1" height="46.2969" rx="2.5" ry="2.5" style="stroke:#181818;stroke-width:0.5;" width="179" x="2176.66" y="1134.28"/><rect fill="#F1F1F1" height="10" style="stroke:#181818;stroke-width:0.5;" width="15" x="2335.66" y="1139.28"/><rect fill="#F1F1F1" height="2" style="stroke:#181818;stroke-width:0.5;" width="4" x="2333.66" y="1141.28"/><rect fill="#F1F1F1" height="2" style="stroke:#181818;stroke-width:0.5;" width="4" x="2333.66" y="1145.28"/><text fill="#000000" font-family="sans-serif" font-size="14" lengthAdjust="spacing" textLength="139" x="2191.66" y="1167.2751">Light Client Contract</text></g><!--entity L2_1_L1--><g id="elem_L2_1_L1"><rect fill="#F1F1F1" height="62.5938" rx="2.5" ry="2.5" style="stroke:#181818;stroke-width:0.5;" width="99" x="2236.66" y="1297.58"/><rect fill="#F1F1F1" height="10" style="stroke:#181818;stroke-width:0.5;" width="15" x="2315.66" y="1302.58"/><rect fill="#F1F1F1" height="2" style="stroke:#181818;stroke-width:0.5;" width="4" x="2313.66" y="1304.58"/><rect fill="#F1F1F1" height="2" style="stroke:#181818;stroke-width:0.5;" width="4" x="2313.66" y="1308.58"/><text fill="#000000" font-family="sans-serif" font-size="14" lengthAdjust="spacing" textLength="56" x="2251.66" y="1330.5751">Rollup 1</text><text fill="#000000" font-family="sans-serif" font-size="14" lengthAdjust="spacing" textLength="59" x="2251.66" y="1346.872">Contract</text></g><!--entity User--><g id="elem_User"><ellipse cx="2344.16" cy="547.59" fill="#F1F1F1" rx="12" ry="12" style="stroke:#181818;stroke-width:0.5;"/><line style="stroke:#181818;stroke-width:0.5;" x1="2332.16" x2="2356.16" y1="561.59" y2="561.59"/><text fill="#000000" font-family="sans-serif" font-size="14" lengthAdjust="spacing" textLength="32" x="2328.16" y="576.5851">User</text></g><!--link Broker to KeyDB--><g id="link_Broker_KeyDB"><path d="M320.27,801.19 C342.31,801.19 362.71,801.19 383.12,801.19 " fill="none" id="Broker-to-KeyDB" style="stroke:#181818;stroke-width:1.0;"/><polygon fill="#181818" points="389.12,801.19,380.12,797.19,384.12,801.19,380.12,805.19,389.12,801.19" style="stroke:#181818;stroke-width:1.0;"/><text fill="#000000" font-family="sans-serif" font-size="13" lengthAdjust="spacing" textLength="33" x="338.16" y="794.2569">state</text></g><!--link KeyDB to Marshal--><g id="link_KeyDB_Marshal"><path d="M455.6,801.19 C475.85,801.19 495.98,801.19 518.28,801.19 " fill="none" id="KeyDB-to-Marshal" style="stroke:#181818;stroke-width:1.0;"/><polygon fill="#181818" points="524.28,801.19,515.28,797.19,519.28,801.19,515.28,805.19,524.28,801.19" style="stroke:#181818;stroke-width:1.0;"/><text fill="#000000" font-family="sans-serif" font-size="13" lengthAdjust="spacing" textLength="33" x="473.41" y="794.2569">state</text></g><!--link CDN to Nodes--><g id="link_CDN_Nodes"><path d="M649.4656,854.2923 C649.2095,855.3755 649.8568,852.2238 649.5647,853.3042 C648.9804,855.4648 648.3218,857.6153 647.5803,859.7375 C644.6144,868.2263 640.3225,876.2625 634.16,882.69 C596.51,921.95 458.8968,952.0367 365.6968,968.6567 " fill="none" id="CDN-Nodes" style="stroke:#181818;stroke-width:1.0;"/><polygon fill="#181818" points="650.7573,848.433,644.9135,856.3608,649.6809,853.3157,652.7259,858.0831,650.7573,848.433" style="stroke:#181818;stroke-width:1.0;"/><polygon fill="#181818" points="359.79,969.71,369.3525,972.0679,364.7123,968.8322,367.948,964.1921,359.79,969.71" style="stroke:#181818;stroke-width:1.0;"/><text fill="#000000" font-family="sans-serif" font-size="13" lengthAdjust="spacing" textLength="68" x="622.16" y="903.7569">consensus</text><text fill="#000000" font-family="sans-serif" font-size="13" lengthAdjust="spacing" textLength="66" x="623.16" y="918.8897">messages</text></g><!--reverse link Catchup to Nodes--><g id="link_Catchup_Nodes"><path d="M1099.7196,566.0681 C1090.5596,575.9881 1072.27,593.81 1048.16,602.89 C961.68,635.48 281.35,589.59 218.16,657.04 C149.6,730.22 191.81,785.92 218.16,882.69 C226.12,911.92 245.01,941.33 259.29,960.67 " fill="none" id="Catchup-backto-Nodes" style="stroke:#181818;stroke-width:1.0;"/><polygon fill="#181818" points="1103.79,561.66,1094.7456,565.5586,1100.398,565.3334,1100.6231,570.9858,1103.79,561.66" style="stroke:#181818;stroke-width:1.0;"/></g><!--link Libp2p to Nodes--><g id="link_Libp2p_Nodes"><path d="M790.83,559.4655 C635.65,568.4155 120.43,602.06 72.16,657.04 C6,732.4 21.83,795.95 72.16,882.69 C97.72,926.72 143.5436,950.0287 188.5536,964.1087 " fill="none" id="Libp2p-Nodes" style="stroke:#181818;stroke-width:1.0;"/><polygon fill="#181818" points="796.82,559.12,787.6046,555.6448,791.8283,559.4079,788.0652,563.6316,796.82,559.12" style="stroke:#181818;stroke-width:1.0;"/><polygon fill="#181818" points="194.28,965.9,186.8847,959.3955,189.508,964.4072,184.4963,967.0306,194.28,965.9" style="stroke:#181818;stroke-width:1.0;"/><text fill="#000000" font-family="sans-serif" font-size="13" lengthAdjust="spacing" textLength="68" x="73.16" y="798.2569">consensus</text><text fill="#000000" font-family="sans-serif" font-size="13" lengthAdjust="spacing" textLength="66" x="74.16" y="813.3897">messages</text></g><!--link CDN Client to CDN--><g id="link_CDN Client_CDN"><path d="M940.6637,582.8282 C901.4287,612.4882 834.795,662.865 772.3775,710.055 C741.1688,733.65 712.2106,755.5438 690.6516,771.8438 C679.872,779.9938 670.9423,786.7453 664.5058,791.6119 C663.7013,792.2202 662.9357,792.7991 662.2103,793.3475 C662.0289,793.4846 666.636,790.0012 666.4597,790.1345 " fill="none" id="CDN Client-CDN" style="stroke:#181818;stroke-width:1.0;"/><polygon fill="#181818" points="945.45,579.21,935.8584,581.4465,941.4614,582.2252,940.6827,587.8282,945.45,579.21" style="stroke:#181818;stroke-width:1.0;"/><polygon fill="#181818" points="661.6738,793.7532,671.2652,791.5158,665.6621,790.7376,666.4403,785.1345,661.6738,793.7532" style="stroke:#181818;stroke-width:1.0;"/><text fill="#000000" font-family="sans-serif" font-size="13" lengthAdjust="spacing" textLength="68" x="889.16" y="630.1069">consensus</text><text fill="#000000" font-family="sans-serif" font-size="13" lengthAdjust="spacing" textLength="66" x="890.16" y="645.2397">messages</text></g><!--link QS to DB--><g id="link_QS_DB"><path d="M1789.5,587.33 C1858.45,637.13 1988.4559,731.0571 2048.8259,774.6571 " fill="none" id="QS-to-DB" style="stroke:#181818;stroke-width:1.0;"/><polygon fill="#181818" points="2053.69,778.17,2048.7358,769.6579,2049.6366,775.2426,2044.0519,776.1434,2053.69,778.17" style="stroke:#181818;stroke-width:1.0;"/></g><!--link QS to APIs--><!--link Signer to Relay--><g id="link_Signer_Relay"><path d="M1942.59,579.33 C1953.84,587.52 1967.17,596.36 1980.16,602.89 C2048.38,637.15 2083.7,609.17 2143.16,657.04 C2180.08,686.76 2202.3683,731.5725 2215.2083,763.9525 " fill="none" id="Signer-to-Relay" style="stroke:#181818;stroke-width:1.0;"/><polygon fill="#181818" points="2217.42,769.53,2217.8208,759.6893,2215.5769,764.8821,2210.3841,762.6382,2217.42,769.53" style="stroke:#181818;stroke-width:1.0;"/><text fill="#000000" font-family="sans-serif" font-size="13" lengthAdjust="spacing" textLength="33" x="2130.16" y="637.6069">state</text></g><!--link Seq to Builder--><g id="link_Seq_Builder"><path d="M2019.3301,555.74 C2019.4168,555.74 2019.5041,555.74 2019.592,555.74 C2019.9437,555.74 2020.3051,555.74 2020.6758,555.74 C2022.159,555.74 2023.7929,555.74 2025.5611,555.74 C2032.6341,555.74 2041.8569,555.74 2052.1813,555.74 C2072.83,555.74 2091.885,555.74 2112.96,555.74 " fill="none" id="Seq-to-Builder" style="stroke:#181818;stroke-width:1.0;"/><polygon fill="#181818" points="2118.96,555.74,2109.96,551.74,2113.96,555.74,2109.96,559.74,2118.96,555.74" style="stroke:#181818;stroke-width:1.0;"/><text fill="#000000" font-family="sans-serif" font-size="13" lengthAdjust="spacing" textLength="71" x="2029.84" y="548.8069">claim block</text></g><!--reverse link Seq to Builder--><g id="link_Seq_Builder"><path d="M2024.1652,565.0592 C2024.251,565.1176 2019.5089,561.8825 2019.5958,561.9414 C2019.7695,562.059 2019.9453,562.1776 2020.1232,562.2969 C2021.5463,563.2518 2023.1013,564.2584 2024.76,565.2788 C2031.395,569.36 2039.69,573.66 2047.84,575.74 C2070.98,581.64 2097.17,577.91 2118.74,572.15 " fill="none" id="Seq-backto-Builder" style="stroke:#181818;stroke-width:1.0;"/><polygon fill="#181818" points="2019.2086,561.6781,2024.3895,570.0541,2023.3391,564.4957,2028.8976,563.4452,2019.2086,561.6781" style="stroke:#181818;stroke-width:1.0;"/><text fill="#000000" font-family="sans-serif" font-size="13" lengthAdjust="spacing" textLength="33" x="2048.84" y="571.8069">block</text></g><!--link Relay to HSProver--><g id="link_Relay_HSProver"><path d="M2227.99,832.86 C2227.81,866.2 2227.5543,913.1801 2227.3643,946.4601 " fill="none" id="Relay-to-HSProver" style="stroke:#181818;stroke-width:1.0;"/><polygon fill="#181818" points="2227.33,952.46,2231.3813,943.483,2227.3585,947.4601,2223.3814,943.4373,2227.33,952.46" style="stroke:#181818;stroke-width:1.0;"/><text fill="#000000" font-family="sans-serif" font-size="13" lengthAdjust="spacing" textLength="33" x="2228.16" y="911.2569">state</text></g><!--link Events to Builder--><g id="link_Events_Builder"><path d="M1614.02,549.78 C1609.79,525.66 1597.62,434.71 1646.16,394.62 C1711.44,340.7 1950.38,358.95 2027.16,394.62 C2088.75,423.22 2129.7221,489.6466 2149.1421,526.9966 " fill="none" id="Events-to-Builder" style="stroke:#181818;stroke-width:1.0;"/><polygon fill="#181818" points="2151.91,532.32,2151.3071,522.4896,2149.6034,527.8838,2144.2092,526.1801,2151.91,532.32" style="stroke:#181818;stroke-width:1.0;"/><text fill="#000000" font-family="sans-serif" font-size="13" lengthAdjust="spacing" textLength="79" x="1840.66" y="349.1569">transactions</text></g><!--reverse link L2_1_RPC to User--><g id="link_L2_1_RPC_User"><path d="M1960.9887,276.6838 C1980.7887,292.4938 2004.68,309.08 2033.16,320.59 C2062.33,332.38 2289.92,346.35 2312.16,368.59 C2355.64,412.07 2352.59,491.72 2347.85,531.23 " fill="none" id="L2_1_RPC-backto-User" style="stroke:#181818;stroke-width:1.0;"/><polygon fill="#181818" points="1956.3,272.94,1960.8371,281.6815,1960.2072,276.0599,1965.8289,275.43,1956.3,272.94" style="stroke:#181818;stroke-width:1.0;"/><text fill="#000000" font-family="sans-serif" font-size="13" lengthAdjust="spacing" textLength="81" x="2294.66" y="341.6569">Transactions</text><text fill="#000000" font-family="sans-serif" font-size="13" lengthAdjust="spacing" textLength="86" x="2292.16" y="356.7897">State queries</text></g><!--link L2_1_RPC to Submit--><g id="link_L2_1_RPC_Submit"><path d="M1904.34,273.08 C1884.41,289.18 1855.38,309.81 1826.16,320.59 C1796.79,331.44 1787.06,323.5 1756.16,328.59 C1673.16,342.27 1631.36,309.83 1571.16,368.59 C1517.39,421.08 1522.9466,519.9947 1525.1166,543.8547 " fill="none" id="L2_1_RPC-to-Submit" style="stroke:#181818;stroke-width:1.0;"/><polygon fill="#181818" points="1525.66,549.83,1528.8284,540.5047,1525.2071,544.8506,1520.8613,541.2293,1525.66,549.83" style="stroke:#181818;stroke-width:1.0;"/><text fill="#000000" font-family="sans-serif" font-size="13" lengthAdjust="spacing" textLength="74" x="1757.16" y="341.6569">Transaction</text><text fill="#000000" font-family="sans-serif" font-size="13" lengthAdjust="spacing" textLength="67" x="1760.66" y="356.7897">Rollup 1 ID</text></g><!--reverse link L2_1_Exec to Query--><g id="link_L2_1_Exec_Query"><path d="M1701.5093,260.7653 C1640.1793,274.2153 1543.5,303.93 1482.16,368.59 C1427.45,426.27 1406.99,527.19 1402.95,550.05 " fill="none" id="L2_1_Exec-backto-Query" style="stroke:#181818;stroke-width:1.0;"/><polygon fill="#181818" points="1707.37,259.48,1697.7221,257.5008,1702.4861,260.5511,1699.4358,265.3151,1707.37,259.48" style="stroke:#181818;stroke-width:1.0;"/><text fill="#000000" font-family="sans-serif" font-size="13" lengthAdjust="spacing" textLength="34" x="1526.16" y="349.1569">Block</text></g><!--link HSProver to LC_L1--><g id="link_HSProver_LC_L1"><path d="M2234.13,1015.63 C2241.87,1049.63 2252.8288,1097.8295 2259.7188,1128.1095 " fill="none" id="HSProver-to-LC_L1" style="stroke:#181818;stroke-width:1.0;"/><polygon fill="#181818" points="2261.05,1133.96,2262.9535,1124.2968,2259.9406,1129.0846,2255.1529,1126.0718,2261.05,1133.96" style="stroke:#181818;stroke-width:1.0;"/><text fill="#000000" font-family="sans-serif" font-size="13" lengthAdjust="spacing" textLength="127" x="2245.16" y="1060.3469">HotShot state proof</text></g><!--link L2_1_Prover to L2_1_L1--><g id="link_L2_1_Prover_L2_1_L1"><path d="M2135.46,255.82 C2208.68,266.04 2354.4,290.68 2387.16,328.59 C2453.32,405.14 2413.16,453.57 2413.16,554.74 C2413.16,554.74 2413.16,554.74 2413.16,1158.43 C2413.16,1216.15 2370.0242,1262.9768 2333.0742,1293.5268 " fill="none" id="L2_1_Prover-to-L2_1_L1" style="stroke:#181818;stroke-width:1.0;"/><polygon fill="#181818" points="2328.45,1297.35,2337.9351,1294.6979,2332.3035,1294.164,2332.8374,1288.5324,2328.45,1297.35" style="stroke:#181818;stroke-width:1.0;"/><text fill="#000000" font-family="sans-serif" font-size="13" lengthAdjust="spacing" textLength="112" x="2414.16" y="911.2569">Rollup state proof</text></g><!--link LC_L1 to L2_L1--><g id="link_LC_L1_L2_L1"><path d="M2245.2,1180.89 C2236.14,1191.8 2226.24,1205.56 2220.16,1219.58 C2218.9637,1222.3381 2217.8428,1225.1668 2216.7923,1228.0468 C2216.2671,1229.4868 2215.7595,1230.9397 2215.269,1232.403 C2215.0237,1233.1346 2214.7827,1233.8689 2214.5459,1234.6055 C2214.4867,1234.7897 2216.247,1229.2564 2216.1883,1229.4408 " fill="none" id="LC_L1-to-L2_L1" style="stroke:#181818;stroke-width:1.0;"/><polygon fill="#181818" points="2214.3691,1235.1584,2220.9096,1227.7949,2215.8851,1230.3938,2213.2862,1225.3692,2214.3691,1235.1584" style="stroke:#181818;stroke-width:1.0;"/></g><!--link L2_1_State to L2_1_RPC--><g id="link_L2_1_State_L2_1_RPC"><path d="M1930.16,149.68 C1930.16,171.46 1930.16,198.29 1930.16,220.03 " fill="none" id="L2_1_State-to-L2_1_RPC" style="stroke:#181818;stroke-width:1.0;"/><polygon fill="#181818" points="1930.16,226.03,1934.16,217.03,1930.16,221.03,1926.16,217.03,1930.16,226.03" style="stroke:#181818;stroke-width:1.0;"/><text fill="#000000" font-family="sans-serif" font-size="13" lengthAdjust="spacing" textLength="69" x="1931.16" y="192.3569">Read state</text></g><!--reverse link L2_1_State to L2_1_Exec--><g id="link_L2_1_State_L2_1_Exec"><path d="M1890.2489,152.8646 C1876.3989,161.9246 1865.43,169.3 1851.16,179.29 C1829.58,194.42 1805.73,212.18 1787.59,225.91 " fill="none" id="L2_1_State-backto-L2_1_Exec" style="stroke:#181818;stroke-width:1.0;"/><polygon fill="#181818" points="1895.27,149.58,1885.5486,151.1594,1891.0857,152.3171,1889.928,157.8543,1895.27,149.58" style="stroke:#181818;stroke-width:1.0;"/><text fill="#000000" font-family="sans-serif" font-size="13" lengthAdjust="spacing" textLength="69" x="1852.16" y="192.3569">Write state</text></g><!--link L2_1_State to L2_1_Prover--><g id="link_L2_1_State_L2_1_Prover"><path d="M1966.1,149.73 C1979.8,158.63 1995.41,169.14 2009.16,179.29 C2029.22,194.11 2046.3595,208.1428 2062.6795,222.0228 " fill="none" id="L2_1_State-to-L2_1_Prover" style="stroke:#181818;stroke-width:1.0;"/><polygon fill="#181818" points="2067.25,225.91,2062.9857,217.0322,2063.4412,222.6707,2057.8027,223.1262,2067.25,225.91" style="stroke:#181818;stroke-width:1.0;"/><text fill="#000000" font-family="sans-serif" font-size="13" lengthAdjust="spacing" textLength="71" x="2031.16" y="192.3569">Read State</text></g><!--SRC=[XLTBRziu4BxhLmnySNAmWNWVXs1HeB43f1klwbZ95kXw4T0IRHEHIPMaaXgB_FSTlYJAbjiU0ddc6yxCDm-o5SbVo9R2u5PLaYeb8AFVQifpAY6b-at8bm4G5RxXlmJmNoxsbU2KQnX4S55GvS3com8hV_nqbdhJhlcD52zKzYZ-8bBjIDbe2gB9cYWAz_Gmkx7Yz-GzIORcv3avY5edxZ0OVN2WQr2QQ9hO7qRgpmno6oNyCQehrE4nr-YUAyfLhLPyZrnWu2f9glCCsMGRiSkl2NIm44flfQV4nzmSrgNDGb3Koz7WJkXi9pGyr5GULZoZyfNbpkOXYqpU-um_BZvX12t8HY6aPXocHEUxkkfJtJq-Blha6J9NgrvDlTuptQUnOVSfJ68A4rlnsrUC5LdFjAHaxsYreX_dvfkIyUsWcs2BcRDrDQdEA0UcUQObm-z1vAdFbKcSGiQst9VTVPwm_vwSAPxjkHMlf7X5CnNLy2vRME5FB2KjoQ5Zk3IIOwkRcfM5Zz5_cpbnpUvxtTUzCm2EgFuPY7b2_8_6PJXDPyRDFpjM59J_YrYt3H9iLME9Wp0qdm5Gqer6iQCpYJM5UEEeCGsS30FVnrgSULBaHEaa0Bp2aXD6tOpMIBBjphZoh63y9M5xM9SYVqait0OOoX5iqNVZ9DeYnsA_oHBNjn3xqP9mHNBDaA_4Is4K4gVVhdqCxQh1XOQGYLiTyydfrbsAigmhkFA0vwl-pO7SmGKTRyVmP_Ov7IqNqyl6uXb_zTZSVgTvhOLiO4RGWtCaDQYeXNidPtRJEhQIQ5g6FPbD0dno5f86I8eDVaIT9-RgbBcvwGBVp30L78kJQuUUFi-lkblQUmgmK8_d-Hc-GrbMl7kooTgVVJRXKvl9pspIKviqsDZR4S5C7-09jqPY_i3eoSwwBpzSmsFKcsR_cbhXpIIPcMNW0d_QkG6nWPBn5nHUZN46-077XzbMLtRpTxjyQ6FM0YZ9TwQ35TlNfIQSYbgL1xZO2Eb1E8NI12buQVvGO7Za3eVu4W6K5pQ896bY3WFkBfnk2YiUAW2VPY5-BQee-iaOmr60_j-8B3fHctXLk9V77U_s3lFhivaAz7rZ1tS8H_h9ULKQgNhf_MKSFS7mkYZg7BUqtH2uLaQUDI5nYT02ZHIM0AtZHCOUP1ALDAVibOO32AP4xOZJKAIO0QG5z8uo2T8IsMKXhCQc1dPaCA7ELMM25fjpwVtQIKyesq1vpdYkJOTZIVVOLMq3sRZDnnpxBdGxO11iWptQ-BASR4Bvy4K05m-raFKUfXGV6nkMOsINuTWTvHYhmCUP-VO-Mk_ZqyuBYNy8munP-rxh9cshxxl0mJ9tVozQGEe1QI-WbxRVnjwTigH1NU534-lld3jwV7PVxqVIGv7LiYue41VUKLwsU4qfxRRntjT2Qx6FtFyUt9jBt-r2x2nIGExODP7ughR5EAOLsqlYgSs8XGNWJnp3twQgXv2JwKjcsj857vOAsHB6aG6zCul2dmKNN- -NbpWLy4PmARJRPID9NRW3pbb-NZvTTfanHS8LKb1DMAdQrMEVIj4TPdh0aE0U2krUYFP4m7t17KTZe6-eSqTcuUtX_sypR9TsymIIyJBoY1FjfEd98qKQpfpt6BbU23ryOXhKqNFCQ8pGFhM2jBRuOwd7_Wy0]--></g></svg>