<?xml version="1.0" encoding="us-ascii" standalone="no"?><svg xmlns="http://www.w3.org/2000/svg" xmlns:xlink="http://www.w3.org/1999/xlink" contentStyleType="text/css" height="1520px" preserveAspectRatio="none" style="width:2801px;height:1520px;background:#FFFFFF;" version="1.1" viewBox="0 0 2801 1520" width="2801px" zoomAndPan="magnify"><defs/><g><!--cluster Network--><g id="cluster_Network"><path d="M8.5,737.89 L245.5,737.89 A3.75,3.75 0 0 1 248,740.39 L255,760.1869 L518.5,760.1869 A2.5,2.5 0 0 1 521,762.6869 L521,1134.48 A2.5,2.5 0 0 1 518.5,1136.98 L8.5,1136.98 A2.5,2.5 0 0 1 6,1134.48 L6,740.39 A2.5,2.5 0 0 1 8.5,737.89 " fill="none" style="stroke:#000000;stroke-width:1.5;"/><line style="stroke:#000000;stroke-width:1.5;" x1="6" x2="255" y1="760.1869" y2="760.1869"/><text fill="#000000" font-family="sans-serif" font-size="14" font-weight="bold" lengthAdjust="spacing" textLength="236" x="10" y="752.8851">Espresso Sequencer Network</text></g><!--cluster CDN--><g id="cluster_CDN"><path d="M40.5,972.69 L74.5,972.69 A3.75,3.75 0 0 1 77,975.19 L84,994.9869 L486.5,994.9869 A2.5,2.5 0 0 1 489,997.4869 L489,1102.48 A2.5,2.5 0 0 1 486.5,1104.98 L40.5,1104.98 A2.5,2.5 0 0 1 38,1102.48 L38,975.19 A2.5,2.5 0 0 1 40.5,972.69 " fill="none" style="stroke:#000000;stroke-width:1.5;"/><line style="stroke:#000000;stroke-width:1.5;" x1="38" x2="84" y1="994.9869" y2="994.9869"/><text fill="#000000" font-family="sans-serif" font-size="14" font-weight="bold" lengthAdjust="spacing" textLength="33" x="42" y="987.6851">CDN</text></g><!--cluster Espresso--><g id="cluster_Espresso"><path d="M547.5,455.59 L712.5,455.59 A3.75,3.75 0 0 1 715,458.09 L722,477.8869 L2165.5,477.8869 A2.5,2.5 0 0 1 2168,480.3869 L2168,1152.84 A2.5,2.5 0 0 1 2165.5,1155.34 L547.5,1155.34 A2.5,2.5 0 0 1 545,1152.84 L545,458.09 A2.5,2.5 0 0 1 547.5,455.59 " fill="none" style="stroke:#000000;stroke-width:1.5;"/><line style="stroke:#000000;stroke-width:1.5;" x1="545" x2="722" y1="477.8869" y2="477.8869"/><text fill="#000000" font-family="sans-serif" font-size="14" font-weight="bold" lengthAdjust="spacing" textLength="164" x="549" y="470.5851">Espresso Sequencer</text></g><!--cluster Seq--><g id="cluster_Seq"><path d="M579.5,506.59 L712.5,506.59 A3.75,3.75 0 0 1 715,509.09 L722,528.8869 L1870.5,528.8869 A2.5,2.5 0 0 1 1873,531.3869 L1873,1120.84 A2.5,2.5 0 0 1 1870.5,1123.34 L579.5,1123.34 A2.5,2.5 0 0 1 577,1120.84 L577,509.09 A2.5,2.5 0 0 1 579.5,506.59 " fill="none" style="stroke:#000000;stroke-width:1.5;"/><line style="stroke:#000000;stroke-width:1.5;" x1="577" x2="722" y1="528.8869" y2="528.8869"/><text fill="#000000" font-family="sans-serif" font-size="14" font-weight="bold" lengthAdjust="spacing" textLength="132" x="581" y="521.5851">Sequencer Node</text></g><!--cluster APIs--><g id="cluster_APIs"><rect fill="none" height="456.6" rx="2.5" ry="2.5" style="stroke:#181818;stroke-width:1.0;" width="543.5" x="917.5" y="634.74"/><rect fill="none" height="10" style="stroke:#181818;stroke-width:1.0;" width="15" x="1441" y="639.74"/><rect fill="none" height="2" style="stroke:#181818;stroke-width:1.0;" width="4" x="1439" y="641.74"/><rect fill="none" height="2" style="stroke:#181818;stroke-width:1.0;" width="4" x="1439" y="645.74"/><text fill="#000000" font-family="sans-serif" font-size="14" font-weight="bold" lengthAdjust="spacing" textLength="34" x="1172.25" y="660.7351">APIs</text></g><!--cluster Networking--><g id="cluster_Networking"><rect fill="none" height="116.3" rx="2.5" ry="2.5" style="stroke:#181818;stroke-width:1.0;" width="267" x="609" y="557.59"/><rect fill="none" height="10" style="stroke:#181818;stroke-width:1.0;" width="15" x="856" y="562.59"/><rect fill="none" height="2" style="stroke:#181818;stroke-width:1.0;" width="4" x="854" y="564.59"/><rect fill="none" height="2" style="stroke:#181818;stroke-width:1.0;" width="4" x="854" y="568.59"/><text fill="#000000" font-family="sans-serif" font-size="14" font-weight="bold" lengthAdjust="spacing" textLength="91" x="697" y="583.5851">Networking</text></g><!--cluster State--><g id="cluster_State"><path d="M1504.5,557.59 L1546.5,557.59 A3.75,3.75 0 0 1 1549,560.09 L1556,579.8869 L1830.5,579.8869 A2.5,2.5 0 0 1 1833,582.3869 L1833,671.39 A2.5,2.5 0 0 1 1830.5,673.89 L1504.5,673.89 A2.5,2.5 0 0 1 1502,671.39 L1502,560.09 A2.5,2.5 0 0 1 1504.5,557.59 " fill="none" style="stroke:#000000;stroke-width:1.5;"/><line style="stroke:#000000;stroke-width:1.5;" x1="1502" x2="1556" y1="579.8869" y2="579.8869"/><text fill="#000000" font-family="sans-serif" font-size="14" font-weight="bold" lengthAdjust="spacing" textLength="41" x="1506" y="572.5851">State</text></g><!--cluster L2--><g id="cluster_L2"><path d="M1636.5,6 L1705.5,6 A3.75,3.75 0 0 1 1708,8.5 L1715,28.2969 L2139.5,28.2969 A2.5,2.5 0 0 1 2142,30.7969 L2142,309.09 A2.5,2.5 0 0 1 2139.5,311.59 L1636.5,311.59 A2.5,2.5 0 0 1 1634,309.09 L1634,8.5 A2.5,2.5 0 0 1 1636.5,6 " fill="none" style="stroke:#000000;stroke-width:1.5;"/><line style="stroke:#000000;stroke-width:1.5;" x1="1634" x2="1715" y1="28.2969" y2="28.2969"/><text fill="#000000" font-family="sans-serif" font-size="14" font-weight="bold" lengthAdjust="spacing" textLength="68" x="1638" y="20.9951">Layer 2s</text></g><!--cluster L2_1--><g id="cluster_L2_1"><rect fill="none" height="238.59" rx="2.5" ry="2.5" style="stroke:#181818;stroke-width:1.0;" width="460" x="1658" y="49"/><rect fill="none" height="10" style="stroke:#181818;stroke-width:1.0;" width="15" x="2098" y="54"/><rect fill="none" height="2" style="stroke:#181818;stroke-width:1.0;" width="4" x="2096" y="56"/><rect fill="none" height="2" style="stroke:#181818;stroke-width:1.0;" width="4" x="2096" y="60"/><text fill="#000000" font-family="sans-serif" font-size="14" font-weight="bold" lengthAdjust="spacing" textLength="63" x="1856.5" y="74.9951">Rollup 1</text></g><!--cluster L1--><g id="cluster_L1"><path d="M2075.5,1282.34 L2216.5,1282.34 A3.75,3.75 0 0 1 2219,1284.84 L2226,1304.6369 L2723.5,1304.6369 A2.5,2.5 0 0 1 2726,1307.1369 L2726,1511.43 A2.5,2.5 0 0 1 2723.5,1513.93 L2075.5,1513.93 A2.5,2.5 0 0 1 2073,1511.43 L2073,1284.84 A2.5,2.5 0 0 1 2075.5,1282.34 " fill="none" style="stroke:#000000;stroke-width:1.5;"/><line style="stroke:#000000;stroke-width:1.5;" x1="2073" x2="2226" y1="1304.6369" y2="1304.6369"/><text fill="#000000" font-family="sans-serif" font-size="14" font-weight="bold" lengthAdjust="spacing" textLength="140" x="2077" y="1297.3351">Ethereum Layer 1</text></g><!--cluster Esp_L1--><g id="cluster_Esp_L1"><path d="M2099.5,1341.34 L2255.5,1341.34 A3.75,3.75 0 0 1 2258,1343.84 L2265,1363.6369 L2376.5,1363.6369 A2.5,2.5 0 0 1 2379,1366.1369 L2379,1471.43 A2.5,2.5 0 0 1 2376.5,1473.93 L2099.5,1473.93 A2.5,2.5 0 0 1 2097,1471.43 L2097,1343.84 A2.5,2.5 0 0 1 2099.5,1341.34 " fill="none" style="stroke:#000000;stroke-width:1.5;"/><line style="stroke:#000000;stroke-width:1.5;" x1="2097" x2="2265" y1="1363.6369" y2="1363.6369"/><text fill="#000000" font-family="sans-serif" font-size="14" font-weight="bold" lengthAdjust="spacing" textLength="155" x="2101" y="1356.3351">Espresso Contracts</text></g><!--cluster L2_L1--><g id="cluster_L2_L1"><path d="M2529.5,1333.34 L2660.5,1333.34 A3.75,3.75 0 0 1 2663,1335.84 L2670,1355.6369 L2691.5,1355.6369 A2.5,2.5 0 0 1 2694,1358.1369 L2694,1479.43 A2.5,2.5 0 0 1 2691.5,1481.93 L2529.5,1481.93 A2.5,2.5 0 0 1 2527,1479.43 L2527,1335.84 A2.5,2.5 0 0 1 2529.5,1333.34 " fill="none" style="stroke:#000000;stroke-width:1.5;"/><line style="stroke:#000000;stroke-width:1.5;" x1="2527" x2="2670" y1="1355.6369" y2="1355.6369"/><text fill="#000000" font-family="sans-serif" font-size="14" font-weight="bold" lengthAdjust="spacing" textLength="130" x="2531" y="1348.3351">Rollup Contracts</text></g><!--entity Nodes--><g id="elem_Nodes"><rect fill="#F1F1F1" height="62.5938" rx="2.5" ry="2.5" style="stroke:#181818;stroke-width:0.5;" width="116" x="389" y="791.89"/><rect fill="#F1F1F1" height="10" style="stroke:#181818;stroke-width:0.5;" width="15" x="485" y="796.89"/><rect fill="#F1F1F1" height="2" style="stroke:#181818;stroke-width:0.5;" width="4" x="483" y="798.89"/><rect fill="#F1F1F1" height="2" style="stroke:#181818;stroke-width:0.5;" width="4" x="483" y="802.89"/><text fill="#000000" font-family="sans-serif" font-size="14" lengthAdjust="spacing" textLength="76" x="404" y="824.8851">Sequencer</text><text fill="#000000" font-family="sans-serif" font-size="14" lengthAdjust="spacing" textLength="45" x="404" y="841.182">Nodes</text></g><!--entity Broker--><g id="elem_Broker"><rect fill="#F1F1F1" height="46.2969" rx="2.5" ry="2.5" style="stroke:#181818;stroke-width:0.5;" width="86" x="62" y="1034.69"/><rect fill="#F1F1F1" height="10" style="stroke:#181818;stroke-width:0.5;" width="15" x="128" y="1039.69"/><rect fill="#F1F1F1" height="2" style="stroke:#181818;stroke-width:0.5;" width="4" x="126" y="1041.69"/><rect fill="#F1F1F1" height="2" style="stroke:#181818;stroke-width:0.5;" width="4" x="126" y="1045.69"/><text fill="#000000" font-family="sans-serif" font-size="14" lengthAdjust="spacing" textLength="46" x="77" y="1067.6851">Broker</text></g><!--entity Marshal--><g id="elem_Marshal"><rect fill="#F1F1F1" height="46.2969" rx="2.5" ry="2.5" style="stroke:#181818;stroke-width:0.5;" width="93" x="352.5" y="1034.69"/><rect fill="#F1F1F1" height="10" style="stroke:#181818;stroke-width:0.5;" width="15" x="425.5" y="1039.69"/><rect fill="#F1F1F1" height="2" style="stroke:#181818;stroke-width:0.5;" width="4" x="423.5" y="1041.69"/><rect fill="#F1F1F1" height="2" style="stroke:#181818;stroke-width:0.5;" width="4" x="423.5" y="1045.69"/><text fill="#000000" font-family="sans-serif" font-size="14" lengthAdjust="spacing" textLength="53" x="367.5" y="1067.6851">Marshal</text></g><!--entity KeyDB--><g id="elem_KeyDB"><path d="M217,1045.19 C217,1035.19 250,1035.19 250,1035.19 C250,1035.19 283,1035.19 283,1045.19 L283,1070.4869 C283,1080.4869 250,1080.4869 250,1080.4869 C250,1080.4869 217,1080.4869 217,1070.4869 L217,1045.19 " fill="#F1F1F1" style="stroke:#181818;stroke-width:0.5;"/><path d="M217,1045.19 C217,1055.19 250,1055.19 250,1055.19 C250,1055.19 283,1055.19 283,1045.19 " fill="none" style="stroke:#181818;stroke-width:0.5;"/><text fill="#000000" font-family="sans-serif" font-size="14" lengthAdjust="spacing" textLength="46" x="227" y="1072.1851">KeyDB</text></g><!--entity DB--><g id="elem_DB"><path d="M1897,1045.19 C1897,1035.19 1938,1035.19 1938,1035.19 C1938,1035.19 1979,1035.19 1979,1045.19 L1979,1070.4869 C1979,1080.4869 1938,1080.4869 1938,1080.4869 C1938,1080.4869 1897,1080.4869 1897,1070.4869 L1897,1045.19 " fill="#F1F1F1" style="stroke:#181818;stroke-width:0.5;"/><path d="M1897,1045.19 C1897,1055.19 1938,1055.19 1938,1055.19 C1938,1055.19 1979,1055.19 1979,1045.19 " fill="none" style="stroke:#181818;stroke-width:0.5;"/><text fill="#000000" font-family="sans-serif" font-size="14" lengthAdjust="spacing" textLength="62" x="1907" y="1072.1851">Postgres</text></g><!--entity HSProver--><g id="elem_HSProver"><rect fill="#F1F1F1" height="62.5938" rx="2.5" ry="2.5" style="stroke:#181818;stroke-width:0.5;" width="137" x="2014.5" y="1026.54"/><rect fill="#F1F1F1" height="10" style="stroke:#181818;stroke-width:0.5;" width="15" x="2131.5" y="1031.54"/><rect fill="#F1F1F1" height="2" style="stroke:#181818;stroke-width:0.5;" width="4" x="2129.5" y="1033.54"/><rect fill="#F1F1F1" height="2" style="stroke:#181818;stroke-width:0.5;" width="4" x="2129.5" y="1037.54"/><text fill="#000000" font-family="sans-serif" font-size="14" lengthAdjust="spacing" textLength="95" x="2029.5" y="1059.5351">HotShot state</text><text fill="#000000" font-family="sans-serif" font-size="14" lengthAdjust="spacing" textLength="97" x="2029.5" y="1075.832">prover service</text></g><!--entity Relay--><g id="elem_Relay"><rect fill="#F1F1F1" height="62.5938" rx="2.5" ry="2.5" style="stroke:#181818;stroke-width:0.5;" width="135" x="1927.5" y="791.89"/><rect fill="#F1F1F1" height="10" style="stroke:#181818;stroke-width:0.5;" width="15" x="2042.5" y="796.89"/><rect fill="#F1F1F1" height="2" style="stroke:#181818;stroke-width:0.5;" width="4" x="2040.5" y="798.89"/><rect fill="#F1F1F1" height="2" style="stroke:#181818;stroke-width:0.5;" width="4" x="2040.5" y="802.89"/><text fill="#000000" font-family="sans-serif" font-size="14" lengthAdjust="spacing" textLength="95" x="1942.5" y="824.8851">HotShot state</text><text fill="#000000" font-family="sans-serif" font-size="14" lengthAdjust="spacing" textLength="85" x="1942.5" y="841.182">relay service</text></g><!--entity Builder--><g id="elem_Builder"><rect fill="#F1F1F1" height="46.2969" rx="2.5" ry="2.5" style="stroke:#181818;stroke-width:0.5;" width="88" x="1973" y="611.59"/><rect fill="#F1F1F1" height="10" style="stroke:#181818;stroke-width:0.5;" width="15" x="2041" y="616.59"/><rect fill="#F1F1F1" height="2" style="stroke:#181818;stroke-width:0.5;" width="4" x="2039" y="618.59"/><rect fill="#F1F1F1" height="2" style="stroke:#181818;stroke-width:0.5;" width="4" x="2039" y="622.59"/><text fill="#000000" font-family="sans-serif" font-size="14" lengthAdjust="spacing" textLength="48" x="1988" y="644.5851">Builder</text></g><text fill="#000000" font-family="sans-serif" font-size="14" lengthAdjust="spacing" textLength="58" x="906.5" y="613.4382">Catchup</text><rect fill="#F1F1F1" height="12" style="stroke:#181818;stroke-width:1.5;" width="12" x="929.5" y="628.74"/><text fill="#000000" font-family="sans-serif" font-size="14" lengthAdjust="spacing" textLength="37" x="1019.5" y="613.4382">HTTP</text><rect fill="#F1F1F1" height="12" style="stroke:#181818;stroke-width:1.5;" width="12" x="1032" y="628.74"/><text fill="#000000" font-family="sans-serif" font-size="14" lengthAdjust="spacing" textLength="44" x="1119" y="613.4382">Status</text><rect fill="#F1F1F1" height="12" style="stroke:#181818;stroke-width:1.5;" width="12" x="1135" y="628.74"/><text fill="#000000" font-family="sans-serif" font-size="14" lengthAdjust="spacing" textLength="48" x="1330" y="613.4382">Submit</text><rect fill="#F1F1F1" height="12" style="stroke:#181818;stroke-width:1.5;" width="12" x="1348" y="628.74"/><text fill="#000000" font-family="sans-serif" font-size="14" lengthAdjust="spacing" textLength="41" x="1209.5" y="613.4382">Query</text><rect fill="#F1F1F1" height="12" style="stroke:#181818;stroke-width:1.5;" width="12" x="1224" y="628.74"/><text fill="#000000" font-family="sans-serif" font-size="14" lengthAdjust="spacing" textLength="55" x="1415.5" y="580.8445">Hotshot</text><text fill="#000000" font-family="sans-serif" font-size="14" lengthAdjust="spacing" textLength="47" x="1419.5" y="597.1414">Events</text><text fill="#000000" font-family="sans-serif" font-size="14" lengthAdjust="spacing" textLength="49" x="1418.5" y="613.4382">Stream</text><rect fill="#F1F1F1" height="12" style="stroke:#181818;stroke-width:1.5;" width="12" x="1437" y="628.74"/><!--entity QS--><g id="elem_QS"><rect fill="#F1F1F1" height="78.8906" rx="2.5" ry="2.5" style="stroke:#181818;stroke-width:0.5;" width="96" x="1311" y="783.74"/><rect fill="#F1F1F1" height="10" style="stroke:#181818;stroke-width:0.5;" width="15" x="1387" y="788.74"/><rect fill="#F1F1F1" height="2" style="stroke:#181818;stroke-width:0.5;" width="4" x="1385" y="790.74"/><rect fill="#F1F1F1" height="2" style="stroke:#181818;stroke-width:0.5;" width="4" x="1385" y="794.74"/><text fill="#000000" font-family="sans-serif" font-size="14" lengthAdjust="spacing" textLength="56" x="1326" y="816.7351">HotShot</text><text fill="#000000" font-family="sans-serif" font-size="14" lengthAdjust="spacing" textLength="41" x="1326" y="833.032">Query</text><text fill="#000000" font-family="sans-serif" font-size="14" lengthAdjust="spacing" textLength="50" x="1326" y="849.3289">Service</text></g><!--entity Libp2p--><g id="elem_Libp2p"><rect fill="#F1F1F1" height="46.2969" rx="2.5" ry="2.5" style="stroke:#181818;stroke-width:0.5;" width="86" x="625" y="611.59"/><rect fill="#F1F1F1" height="10" style="stroke:#181818;stroke-width:0.5;" width="15" x="691" y="616.59"/><rect fill="#F1F1F1" height="2" style="stroke:#181818;stroke-width:0.5;" width="4" x="689" y="618.59"/><rect fill="#F1F1F1" height="2" style="stroke:#181818;stroke-width:0.5;" width="4" x="689" y="622.59"/><text fill="#000000" font-family="sans-serif" font-size="14" lengthAdjust="spacing" textLength="46" x="640" y="644.5851">Libp2p</text></g><!--entity CDN Client--><g id="elem_CDN Client"><rect fill="#F1F1F1" height="46.2969" rx="2.5" ry="2.5" style="stroke:#181818;stroke-width:0.5;" width="114" x="746" y="611.59"/><rect fill="#F1F1F1" height="10" style="stroke:#181818;stroke-width:0.5;" width="15" x="840" y="616.59"/><rect fill="#F1F1F1" height="2" style="stroke:#181818;stroke-width:0.5;" width="4" x="838" y="618.59"/><rect fill="#F1F1F1" height="2" style="stroke:#181818;stroke-width:0.5;" width="4" x="838" y="622.59"/><text fill="#000000" font-family="sans-serif" font-size="14" lengthAdjust="spacing" textLength="74" x="761" y="644.5851">CDN Client</text></g><!--entity Signer--><g id="elem_Signer"><rect fill="#F1F1F1" height="46.2969" rx="2.5" ry="2.5" style="stroke:#181818;stroke-width:0.5;" width="124" x="1518" y="611.59"/><rect fill="#F1F1F1" height="10" style="stroke:#181818;stroke-width:0.5;" width="15" x="1622" y="616.59"/><rect fill="#F1F1F1" height="2" style="stroke:#181818;stroke-width:0.5;" width="4" x="1620" y="618.59"/><rect fill="#F1F1F1" height="2" style="stroke:#181818;stroke-width:0.5;" width="4" x="1620" y="622.59"/><text fill="#000000" font-family="sans-serif" font-size="14" lengthAdjust="spacing" textLength="84" x="1533" y="644.5851">State Signer</text></g><!--entity Validated--><g id="elem_Validated"><rect fill="#F1F1F1" height="46.2969" rx="2.5" ry="2.5" style="stroke:#181818;stroke-width:0.5;" width="139" x="1677.5" y="611.59"/><rect fill="#F1F1F1" height="10" style="stroke:#181818;stroke-width:0.5;" width="15" x="1796.5" y="616.59"/><rect fill="#F1F1F1" height="2" style="stroke:#181818;stroke-width:0.5;" width="4" x="1794.5" y="618.59"/><rect fill="#F1F1F1" height="2" style="stroke:#181818;stroke-width:0.5;" width="4" x="1794.5" y="622.59"/><text fill="#000000" font-family="sans-serif" font-size="14" lengthAdjust="spacing" textLength="99" x="1692.5" y="644.5851">ValidatedState</text></g><!--entity L2_1_RPC--><g id="elem_L2_1_RPC"><rect fill="#F1F1F1" height="46.2969" rx="2.5" ry="2.5" style="stroke:#181818;stroke-width:0.5;" width="172" x="1811" y="225.3"/><rect fill="#F1F1F1" height="10" style="stroke:#181818;stroke-width:0.5;" width="15" x="1963" y="230.3"/><rect fill="#F1F1F1" height="2" style="stroke:#181818;stroke-width:0.5;" width="4" x="1961" y="232.3"/><rect fill="#F1F1F1" height="2" style="stroke:#181818;stroke-width:0.5;" width="4" x="1961" y="236.3"/><text fill="#000000" font-family="sans-serif" font-size="14" lengthAdjust="spacing" textLength="132" x="1826" y="258.2951">API (e.g. JSON-RPC)</text></g><!--entity L2_1_Exec--><g id="elem_L2_1_Exec"><rect fill="#F1F1F1" height="46.2969" rx="2.5" ry="2.5" style="stroke:#181818;stroke-width:0.5;" width="101" x="1674.5" y="225.3"/><rect fill="#F1F1F1" height="10" style="stroke:#181818;stroke-width:0.5;" width="15" x="1755.5" y="230.3"/><rect fill="#F1F1F1" height="2" style="stroke:#181818;stroke-width:0.5;" width="4" x="1753.5" y="232.3"/><rect fill="#F1F1F1" height="2" style="stroke:#181818;stroke-width:0.5;" width="4" x="1753.5" y="236.3"/><text fill="#000000" font-family="sans-serif" font-size="14" lengthAdjust="spacing" textLength="61" x="1689.5" y="258.2951">Executor</text></g><!--entity L2_1_Prover--><g id="elem_L2_1_Prover"><rect fill="#F1F1F1" height="46.2969" rx="2.5" ry="2.5" style="stroke:#181818;stroke-width:0.5;" width="84" x="2018" y="225.3"/><rect fill="#F1F1F1" height="10" style="stroke:#181818;stroke-width:0.5;" width="15" x="2082" y="230.3"/><rect fill="#F1F1F1" height="2" style="stroke:#181818;stroke-width:0.5;" width="4" x="2080" y="232.3"/><rect fill="#F1F1F1" height="2" style="stroke:#181818;stroke-width:0.5;" width="4" x="2080" y="236.3"/><text fill="#000000" font-family="sans-serif" font-size="14" lengthAdjust="spacing" textLength="44" x="2033" y="258.2951">Prover</text></g><!--entity L2_1_State--><g id="elem_L2_1_State"><path d="M1856.5,113 C1856.5,103 1897,103 1897,103 C1897,103 1937.5,103 1937.5,113 L1937.5,138.2969 C1937.5,148.2969 1897,148.2969 1897,148.2969 C1897,148.2969 1856.5,148.2969 1856.5,138.2969 L1856.5,113 " fill="#F1F1F1" style="stroke:#181818;stroke-width:0.5;"/><path d="M1856.5,113 C1856.5,123 1897,123 1897,123 C1897,123 1937.5,123 1937.5,113 " fill="none" style="stroke:#181818;stroke-width:0.5;"/><text fill="#000000" font-family="sans-serif" font-size="14" lengthAdjust="spacing" textLength="61" x="1866.5" y="139.9951">State DB</text></g><!--entity LC_L1--><g id="elem_LC_L1"><rect fill="#F1F1F1" height="62.5938" rx="2.5" ry="2.5" style="stroke:#181818;stroke-width:0.5;" width="116" x="2113" y="1395.34"/><rect fill="#F1F1F1" height="10" style="stroke:#181818;stroke-width:0.5;" width="15" x="2209" y="1400.34"/><rect fill="#F1F1F1" height="2" style="stroke:#181818;stroke-width:0.5;" width="4" x="2207" y="1402.34"/><rect fill="#F1F1F1" height="2" style="stroke:#181818;stroke-width:0.5;" width="4" x="2207" y="1406.34"/><text fill="#000000" font-family="sans-serif" font-size="14" lengthAdjust="spacing" textLength="76" x="2128" y="1428.3351">Light Client</text><text fill="#000000" font-family="sans-serif" font-size="14" lengthAdjust="spacing" textLength="59" x="2128" y="1444.632">Contract</text></g><!--entity Fee_L1--><g id="elem_Fee_L1"><rect fill="#F1F1F1" height="62.5938" rx="2.5" ry="2.5" style="stroke:#181818;stroke-width:0.5;" width="99" x="2263.5" y="1395.34"/><rect fill="#F1F1F1" height="10" style="stroke:#181818;stroke-width:0.5;" width="15" x="2342.5" y="1400.34"/><rect fill="#F1F1F1" height="2" style="stroke:#181818;stroke-width:0.5;" width="4" x="2340.5" y="1402.34"/><rect fill="#F1F1F1" height="2" style="stroke:#181818;stroke-width:0.5;" width="4" x="2340.5" y="1406.34"/><text fill="#000000" font-family="sans-serif" font-size="14" lengthAdjust="spacing" textLength="26" x="2278.5" y="1428.3351">Fee</text><text fill="#000000" font-family="sans-serif" font-size="14" lengthAdjust="spacing" textLength="59" x="2278.5" y="1444.632">Contract</text></g><!--entity L2_1_L1--><g id="elem_L2_1_L1"><rect fill="#F1F1F1" height="62.5938" rx="2.5" ry="2.5" style="stroke:#181818;stroke-width:0.5;" width="99" x="2570.5" y="1395.34"/><rect fill="#F1F1F1" height="10" style="stroke:#181818;stroke-width:0.5;" width="15" x="2649.5" y="1400.34"/><rect fill="#F1F1F1" height="2" style="stroke:#181818;stroke-width:0.5;" width="4" x="2647.5" y="1402.34"/><rect fill="#F1F1F1" height="2" style="stroke:#181818;stroke-width:0.5;" width="4" x="2647.5" y="1406.34"/><text fill="#000000" font-family="sans-serif" font-size="14" lengthAdjust="spacing" textLength="56" x="2585.5" y="1428.3351">Rollup 1</text><text fill="#000000" font-family="sans-serif" font-size="14" lengthAdjust="spacing" textLength="59" x="2585.5" y="1444.632">Contract</text></g><!--entity User--><g id="elem_User"><ellipse cx="2200" cy="626.59" fill="#F1F1F1" rx="12" ry="12" style="stroke:#181818;stroke-width:0.5;"/><line style="stroke:#181818;stroke-width:0.5;" x1="2188" x2="2212" y1="640.59" y2="640.59"/><text fill="#000000" font-family="sans-serif" font-size="14" lengthAdjust="spacing" textLength="32" x="2184" y="655.5851">User</text></g><!--link Broker to KeyDB--><g id="link_Broker_KeyDB"><path d="M148.11,1057.84 C170.15,1057.84 190.55,1057.84 210.96,1057.84 " fill="none" id="Broker-to-KeyDB" style="stroke:#181818;stroke-width:1.0;"/><polygon fill="#181818" points="216.96,1057.84,207.96,1053.84,211.96,1057.84,207.96,1061.84,216.96,1057.84" style="stroke:#181818;stroke-width:1.0;"/><text fill="#000000" font-family="sans-serif" font-size="13" lengthAdjust="spacing" textLength="33" x="166" y="1050.9069">state</text></g><!--link KeyDB to Marshal--><g id="link_KeyDB_Marshal"><path d="M283.44,1057.84 C303.69,1057.84 323.82,1057.84 346.11,1057.84 " fill="none" id="KeyDB-to-Marshal" style="stroke:#181818;stroke-width:1.0;"/><polygon fill="#181818" points="352.11,1057.84,343.11,1053.84,347.11,1057.84,343.11,1061.84,352.11,1057.84" style="stroke:#181818;stroke-width:1.0;"/><text fill="#000000" font-family="sans-serif" font-size="13" lengthAdjust="spacing" textLength="33" x="301.25" y="1050.9069">state</text></g><!--link Nodes to CDN--><g id="link_Nodes_CDN"><path d="M452.3083,860.5368 C454.5783,876.0568 456.6531,890.2494 459.8006,911.7795 C461.3744,922.5446 462.9992,933.6599 464.6166,944.7243 C465.4252,950.2565 466.232,955.776 467.0296,961.2326 C467.4284,963.9609 467.8249,966.6735 468.2182,969.3641 C468.3165,970.0368 468.4147,970.708 468.5126,971.3778 C468.5615,971.7128 467.7426,966.1104 467.7915,966.4445 " fill="none" id="Nodes-CDN" style="stroke:#181818;stroke-width:1.0;"/><polygon fill="#181818" points="451.44,854.6,448.7846,864.0841,452.1636,859.5474,456.7004,862.9264,451.44,854.6" style="stroke:#181818;stroke-width:1.0;"/><polygon fill="#181818" points="468.6592,972.3814,471.3155,962.8976,467.9361,967.434,463.3996,964.0546,468.6592,972.3814" style="stroke:#181818;stroke-width:1.0;"/><text fill="#000000" font-family="sans-serif" font-size="13" lengthAdjust="spacing" textLength="68" x="467" y="929.7569">consensus</text><text fill="#000000" font-family="sans-serif" font-size="13" lengthAdjust="spacing" textLength="66" x="468" y="944.8897">messages</text></g><!--link Query to QS--><g id="link_Query_QS"><path d="M1233.45,640.73 C1247.27,660.71 1296.0562,731.2158 1328.6362,778.3058 " fill="none" id="Query-to-QS" style="stroke:#181818;stroke-width:1.0;"/><polygon fill="#181818" points="1332.05,783.24,1330.2188,773.5629,1329.2052,779.1282,1323.6399,778.1146,1332.05,783.24" style="stroke:#181818;stroke-width:1.0;"/></g><!--reverse link Catchup to Nodes--><g id="link_Catchup_Nodes"><path d="M927.0196,644.9747 C917.4996,654.5947 899.25,671.44 876,681.89 C772.4,728.44 732.31,692.69 625,729.89 C579.61,745.62 531.43,771.21 496.66,791.46 " fill="none" id="Catchup-backto-Nodes" style="stroke:#181818;stroke-width:1.0;"/><polygon fill="#181818" points="931.24,640.71,922.0662,644.2935,927.723,644.264,927.7525,649.9207,931.24,640.71" style="stroke:#181818;stroke-width:1.0;"/><text fill="#000000" font-family="sans-serif" font-size="13" lengthAdjust="spacing" textLength="49" x="853" y="702.9569">missing</text><text fill="#000000" font-family="sans-serif" font-size="13" lengthAdjust="spacing" textLength="33" x="861" y="718.0897">state</text></g><!--link Libp2p to Nodes--><g id="link_Libp2p_Nodes"><path d="M619.3877,659.4269 C602.2577,668.5769 588.13,677.28 572,689.89 C533.04,720.35 498.8296,758.3911 475.1496,786.9511 " fill="none" id="Libp2p-Nodes" style="stroke:#181818;stroke-width:1.0;"/><polygon fill="#181818" points="624.68,656.6,614.8569,657.3121,620.2697,658.9557,618.6261,664.3686,624.68,656.6" style="stroke:#181818;stroke-width:1.0;"/><polygon fill="#181818" points="471.32,791.57,480.1437,787.1948,474.5114,787.721,473.9852,782.0886,471.32,791.57" style="stroke:#181818;stroke-width:1.0;"/><text fill="#000000" font-family="sans-serif" font-size="13" lengthAdjust="spacing" textLength="68" x="573" y="702.9569">consensus</text><text fill="#000000" font-family="sans-serif" font-size="13" lengthAdjust="spacing" textLength="66" x="574" y="718.0897">messages</text></g><!--link CDN Client to CDN--><g id="link_CDN Client_CDN"><path d="M766.7753,661.559 C753.7653,670.049 743.19,675.83 728,681.89 C711.97,688.29 703.94,679.72 690,689.89 C652.39,717.33 600.66,807.8525 558.075,892.115 C536.7825,934.2462 517.7763,974.8125 503.9644,1005.1459 C500.5114,1012.7293 497.3831,1019.6731 494.6249,1025.8419 C493.2457,1028.9263 491.9591,1031.817 490.7708,1034.497 C490.1766,1035.837 492.0311,1031.6358 491.4867,1032.8684 " fill="none" id="CDN Client-CDN" style="stroke:#181818;stroke-width:1.0;"/><polygon fill="#181818" points="771.8,658.28,762.0769,659.8487,767.6127,661.0125,766.4489,666.5484,771.8,658.28" style="stroke:#181818;stroke-width:1.0;"/><polygon fill="#181818" points="489.0625,1038.3569,496.3577,1031.7402,491.0826,1033.7831,489.0397,1028.508,489.0625,1038.3569" style="stroke:#181818;stroke-width:1.0;"/><text fill="#000000" font-family="sans-serif" font-size="13" lengthAdjust="spacing" textLength="68" x="653" y="820.2569">consensus</text><text fill="#000000" font-family="sans-serif" font-size="13" lengthAdjust="spacing" textLength="66" x="654" y="835.3897">messages</text></g><!--link QS to DB--><g id="link_QS_DB"><path d="M1385.4,862.9 C1392.85,871.67 1401.53,880.28 1411,886.69 C1570.49,994.53 1796.9833,1036.9005 1890.6633,1050.6205 " fill="none" id="QS-to-DB" style="stroke:#181818;stroke-width:1.0;"/><polygon fill="#181818" points="1896.6,1051.49,1888.2746,1046.228,1891.6528,1050.7654,1887.1154,1054.1436,1896.6,1051.49" style="stroke:#181818;stroke-width:1.0;"/></g><!--link QS to APIs--><!--link Signer to Relay--><g id="link_Signer_Relay"><path d="M1616.91,658.34 C1630.28,666.18 1645.63,674.77 1660,681.89 C1750.4,726.67 1853.0619,768.121 1921.5419,794.531 " fill="none" id="Signer-to-Relay" style="stroke:#181818;stroke-width:1.0;"/><polygon fill="#181818" points="1927.14,796.69,1920.1821,789.7195,1922.4749,794.8909,1917.3035,797.1836,1927.14,796.69" style="stroke:#181818;stroke-width:1.0;"/><text fill="#000000" font-family="sans-serif" font-size="13" lengthAdjust="spacing" textLength="33" x="1742" y="710.4569">state</text></g><!--link Seq to Builder--><g id="link_Seq_Builder"><path d="M1873.1666,634.74 C1873.2533,634.74 1873.3406,634.74 1873.4285,634.74 C1873.7801,634.74 1874.1414,634.74 1874.5121,634.74 C1875.995,634.74 1877.6288,634.74 1879.3969,634.74 C1886.4694,634.74 1895.6925,634.74 1906.0175,634.74 C1926.6675,634.74 1945.725,634.74 1966.8,634.74 " fill="none" id="Seq-to-Builder" style="stroke:#181818;stroke-width:1.0;"/><polygon fill="#181818" points="1972.8,634.74,1963.8,630.74,1967.8,634.74,1963.8,638.74,1972.8,634.74" style="stroke:#181818;stroke-width:1.0;"/><text fill="#000000" font-family="sans-serif" font-size="13" lengthAdjust="spacing" textLength="71" x="1883.68" y="627.8069">claim block</text></g><!--reverse link Seq to Builder--><g id="link_Seq_Builder"><path d="M1878.0017,644.0633 C1878.0874,644.1217 1873.3465,640.885 1873.4333,640.9438 C1873.607,641.0616 1873.7827,641.1802 1873.9606,641.2996 C1875.3832,642.2548 1876.9378,643.2619 1878.5963,644.2825 C1885.23,648.365 1893.525,652.665 1901.68,654.74 C1924.82,660.64 1951.01,656.91 1972.58,651.15 " fill="none" id="Seq-backto-Builder" style="stroke:#181818;stroke-width:1.0;"/><polygon fill="#181818" points="1873.0462,640.6805,1878.2243,649.0583,1877.1758,643.4995,1882.7346,642.451,1873.0462,640.6805" style="stroke:#181818;stroke-width:1.0;"/><text fill="#000000" font-family="sans-serif" font-size="13" lengthAdjust="spacing" textLength="33" x="1902.68" y="650.8069">block</text></g><!--link Relay to HSProver--><g id="link_Relay_HSProver"><path d="M2006.5,854.6 C2023.32,899.07 2052.3269,975.7582 2069.2269,1020.4282 " fill="none" id="Relay-to-HSProver" style="stroke:#181818;stroke-width:1.0;"/><polygon fill="#181818" points="2071.35,1026.04,2071.9065,1016.2069,2069.5807,1021.3635,2064.4241,1019.0377,2071.35,1026.04" style="stroke:#181818;stroke-width:1.0;"/><text fill="#000000" font-family="sans-serif" font-size="13" lengthAdjust="spacing" textLength="33" x="2042" y="937.2569">state</text></g><!--link Events to Builder--><g id="link_Events_Builder"><path d="M1442.67,628.84 C1441.54,602.3 1440.87,493.27 1502,447.59 C1647.29,339.04 1728.64,441.91 1910,440.29 C1912.67,440.26 1913.72,438.9 1916,440.29 C1978.26,478.11 2002.6652,562.2863 2011.6252,605.2563 " fill="none" id="Events-to-Builder" style="stroke:#181818;stroke-width:1.0;"/><polygon fill="#181818" points="2012.85,611.13,2014.9286,601.503,2011.8294,606.2353,2007.0971,603.136,2012.85,611.13" style="stroke:#181818;stroke-width:1.0;"/><text fill="#000000" font-family="sans-serif" font-size="13" lengthAdjust="spacing" textLength="4" x="1911" y="388.1569">&#160;</text><text fill="#000000" font-family="sans-serif" font-size="13" lengthAdjust="spacing" textLength="4" x="1437.2429" y="617.7401">&#160;</text><text fill="#000000" font-family="sans-serif" font-size="13" lengthAdjust="spacing" textLength="79" x="1923.2103" y="600.6304">transactions</text></g><!--reverse link L2_1_RPC to User--><g id="link_L2_1_RPC_User"><path d="M1934.0387,275.4103 C2004.1487,324.6903 2160.32,435.21 2168,447.59 C2199.87,499.02 2202.42,573.01 2201.36,610.33 " fill="none" id="L2_1_RPC-backto-User" style="stroke:#181818;stroke-width:1.0;"/><polygon fill="#181818" points="1929.13,271.96,1934.1929,280.4079,1933.2206,274.8353,1938.7933,273.863,1929.13,271.96" style="stroke:#181818;stroke-width:1.0;"/><path d="M2163,332.59 L2163,417.59 L2341,417.59 L2341,342.59 L2331,332.59 L2163,332.59 " fill="#FEFFDD" style="stroke:#181818;stroke-width:0.5;"/><path d="M2331,332.59 L2331,342.59 L2341,342.59 L2331,332.59 " fill="#FEFFDD" style="stroke:#181818;stroke-width:0.5;"/><text fill="#000000" font-family="sans-serif" font-size="13" lengthAdjust="spacing" textLength="143" x="2169" y="349.6569">1. Many clients submit</text><text fill="#000000" font-family="sans-serif" font-size="13" lengthAdjust="spacing" textLength="131" x="2185" y="364.7897">transactions to each</text><text fill="#000000" font-family="sans-serif" font-size="13" lengthAdjust="spacing" textLength="141" x="2185" y="379.9225">L2 simultaneously (for</text><text fill="#000000" font-family="sans-serif" font-size="13" lengthAdjust="spacing" textLength="110" x="2185" y="395.0553">clarity only one is</text><text fill="#000000" font-family="sans-serif" font-size="13" lengthAdjust="spacing" textLength="45" x="2185" y="410.1881">shown)</text><text fill="#000000" font-family="sans-serif" font-size="13" lengthAdjust="spacing" textLength="4" x="2250" y="436.321">&#160;</text><text fill="#000000" font-family="sans-serif" font-size="13" lengthAdjust="spacing" textLength="4" x="1932.4742" y="291.6021">&#160;</text><text fill="#000000" font-family="sans-serif" font-size="13" lengthAdjust="spacing" textLength="83" x="2109.478" y="584.2963">transactions,</text><text fill="#000000" font-family="sans-serif" font-size="13" lengthAdjust="spacing" textLength="84" x="2108.978" y="599.4291">state queries</text></g><!--link L2_1_RPC to Submit--><g id="link_L2_1_RPC_Submit"><path d="M1872.22,272 C1852.38,288.52 1822.99,309.71 1793,319.59 C1773.35,326.07 1624.15,316.03 1607,327.59 C1561.65,358.17 1601.23,408.84 1556,439.59 C1527.11,459.24 1425.89,425.3 1399,447.59 C1340.9,495.77 1349.7307,598.9133 1352.6407,623.0133 " fill="none" id="L2_1_RPC-to-Submit" style="stroke:#181818;stroke-width:1.0;"/><polygon fill="#181818" points="1353.36,628.97,1356.2523,619.5554,1352.7606,624.0061,1348.31,620.5144,1353.36,628.97" style="stroke:#181818;stroke-width:1.0;"/><path d="M1612,362.59 L1612,387.59 L1897,387.59 L1897,372.59 L1887,362.59 L1612,362.59 " fill="#FEFFDD" style="stroke:#181818;stroke-width:0.5;"/><path d="M1887,362.59 L1887,372.59 L1897,372.59 L1887,362.59 " fill="#FEFFDD" style="stroke:#181818;stroke-width:0.5;"/><text fill="#000000" font-family="sans-serif" font-size="13" lengthAdjust="spacing" textLength="264" x="1618" y="379.6569">2. L2s forward transactions to sequencer.</text><text fill="#000000" font-family="sans-serif" font-size="13" lengthAdjust="spacing" textLength="4" x="1752.5" y="405.7897">&#160;</text><text fill="#000000" font-family="sans-serif" font-size="13" lengthAdjust="spacing" textLength="72" x="1788.2539" y="291.6829">transaction</text><text fill="#000000" font-family="sans-serif" font-size="13" lengthAdjust="spacing" textLength="67" x="1790.7539" y="306.8157">Rollup 1 ID</text><text fill="#000000" font-family="sans-serif" font-size="13" lengthAdjust="spacing" textLength="4" x="1347.677" y="617.6196">&#160;</text></g><!--reverse link L2_1_Exec to Query--><g id="link_L2_1_Exec_Query"><path d="M1668.3943,251.0576 C1561.7043,255.1076 1325.04,270.3 1270,327.59 C1183.48,417.66 1221.32,597.39 1228.82,628.95 " fill="none" id="L2_1_Exec-backto-Query" style="stroke:#181818;stroke-width:1.0;"/><polygon fill="#181818" points="1674.39,250.83,1665.2447,247.1743,1669.3936,251.0197,1665.5482,255.1685,1674.39,250.83" style="stroke:#181818;stroke-width:1.0;"/><text fill="#000000" font-family="sans-serif" font-size="13" lengthAdjust="spacing" textLength="34" x="1271" y="388.3561">Block</text><path d="M1311,348.59 L1311,418.59 L1547,418.59 L1547,358.59 L1537,348.59 L1311,348.59 " fill="#FEFFDD" style="stroke:#181818;stroke-width:0.5;"/><path d="M1537,348.59 L1537,358.59 L1547,358.59 L1537,348.59 " fill="#FEFFDD" style="stroke:#181818;stroke-width:0.5;"/><text fill="#000000" font-family="sans-serif" font-size="13" lengthAdjust="spacing" textLength="206" x="1317" y="365.6569">3. Sequencer produces blocks --</text><text fill="#000000" font-family="sans-serif" font-size="13" lengthAdjust="spacing" textLength="182" x="1333" y="380.7897">ordered lists of transactions.</text><text fill="#000000" font-family="sans-serif" font-size="13" lengthAdjust="spacing" textLength="199" x="1333" y="395.9225">L2s receive blocks and execute</text><text fill="#000000" font-family="sans-serif" font-size="13" lengthAdjust="spacing" textLength="176" x="1333" y="411.0553">transactions for their rollup.</text></g><!--link HSProver to LC_L1--><g id="link_HSProver_LC_L1"><path d="M2067.18,1089.63 C2052.62,1114.38 2028.51,1147.55 1997,1163.34 C1979.99,1171.86 1839.13,1157.58 1826,1171.34 C1796.85,1201.88 1803.25,1230.77 1826,1266.34 C1889.46,1365.54 2026.2399,1402.8052 2106.8299,1416.9152 " fill="none" id="HSProver-to-LC_L1" style="stroke:#181818;stroke-width:1.0;"/><polygon fill="#181818" points="2112.74,1417.95,2104.5647,1412.4578,2107.8149,1417.0877,2103.185,1420.3379,2112.74,1417.95" style="stroke:#181818;stroke-width:1.0;"/><text fill="#000000" font-family="sans-serif" font-size="13" lengthAdjust="spacing" textLength="53" x="1827" y="1208.4733">HotShot</text><text fill="#000000" font-family="sans-serif" font-size="13" lengthAdjust="spacing" textLength="33" x="1837" y="1223.6061">state</text><text fill="#000000" font-family="sans-serif" font-size="13" lengthAdjust="spacing" textLength="33" x="1837" y="1238.7389">proof</text><path d="M1886,1183.84 L1886,1253.84 L2174,1253.84 L2174,1193.84 L2164,1183.84 L1886,1183.84 " fill="#FEFFDD" style="stroke:#181818;stroke-width:0.5;"/><path d="M2164,1183.84 L2164,1193.84 L2174,1193.84 L2164,1183.84 " fill="#FEFFDD" style="stroke:#181818;stroke-width:0.5;"/><text fill="#000000" font-family="sans-serif" font-size="13" lengthAdjust="spacing" textLength="267" x="1892" y="1200.9069">4. Sequencer posts succinct commitment</text><text fill="#000000" font-family="sans-serif" font-size="13" lengthAdjust="spacing" textLength="235" x="1908" y="1216.0397">to block to L1. Contract verifies proof</text><text fill="#000000" font-family="sans-serif" font-size="13" lengthAdjust="spacing" textLength="224" x="1908" y="1231.1725">of sequencing (Quorum Certificate)</text><text fill="#000000" font-family="sans-serif" font-size="13" lengthAdjust="spacing" textLength="226" x="1908" y="1246.3053">then stores the block commitment.</text></g><!--link L2_1_Prover to L2_1_L1--><g id="link_L2_1_Prover_L2_1_L1"><path d="M2102.22,256.03 C2236.81,279.67 2647,373.08 2647,633.74 C2647,633.74 2647,633.74 2647,1058.84 C2647,1183.99 2631.8746,1326.5515 2624.4546,1389.3015 " fill="none" id="L2_1_Prover-to-L2_1_L1" style="stroke:#181818;stroke-width:1.0;"/><polygon fill="#181818" points="2623.75,1395.26,2628.7792,1386.792,2624.3371,1390.2946,2620.8345,1385.8526,2623.75,1395.26" style="stroke:#181818;stroke-width:1.0;"/><text fill="#000000" font-family="sans-serif" font-size="13" lengthAdjust="spacing" textLength="35" x="2705.5" y="772.7569">rollup</text><text fill="#000000" font-family="sans-serif" font-size="13" lengthAdjust="spacing" textLength="33" x="2706.5" y="787.8897">state</text><text fill="#000000" font-family="sans-serif" font-size="13" lengthAdjust="spacing" textLength="33" x="2706.5" y="803.0225">proof</text><path d="M2652,812.0884 L2652,882.0884 L2794,882.0884 L2794,822.0884 L2784,812.0884 L2652,812.0884 " fill="#FEFFDD" style="stroke:#181818;stroke-width:0.5;"/><path d="M2784,812.0884 L2784,822.0884 L2794,822.0884 L2784,812.0884 " fill="#FEFFDD" style="stroke:#181818;stroke-width:0.5;"/><text fill="#000000" font-family="sans-serif" font-size="13" lengthAdjust="spacing" textLength="93" x="2658" y="829.1553">5. Rollups post</text><text fill="#000000" font-family="sans-serif" font-size="13" lengthAdjust="spacing" textLength="90" x="2674" y="844.2881">updated state</text><text fill="#000000" font-family="sans-serif" font-size="13" lengthAdjust="spacing" textLength="105" x="2674" y="859.421">to L1. ZK-rollups</text><text fill="#000000" font-family="sans-serif" font-size="13" lengthAdjust="spacing" textLength="98" x="2674" y="874.5538">include a proof.</text></g><!--link LC_L1 to L2_L1--><g id="link_LC_L1_L2_L1"><path d="M2168.88,1395.21 C2167.61,1347.45 2173.25,1257.69 2228.5,1215.47 C2282.71,1174.05 2487.26,1167.23 2535.5,1215.47 C2551.445,1231.41 2551.9525,1280.78 2548.1763,1327.7763 C2548.0582,1329.2449 2547.9361,1330.7112 2547.81,1332.1741 C2547.7785,1332.5398 2548.2701,1326.9282 2548.2381,1327.2935 " fill="none" id="LC_L1-to-L2_L1" style="stroke:#181818;stroke-width:1.0;"/><polygon fill="#181818" points="2547.7148,1333.2706,2552.4846,1324.6538,2548.1509,1328.2897,2544.515,1323.956,2547.7148,1333.2706" style="stroke:#181818;stroke-width:1.0;"/><path d="M2233.5,1176.34 L2233.5,1261.34 L2530.5,1261.34 L2530.5,1186.34 L2520.5,1176.34 L2233.5,1176.34 " fill="#FEFFDD" style="stroke:#181818;stroke-width:0.5;"/><path d="M2520.5,1176.34 L2520.5,1186.34 L2530.5,1186.34 L2520.5,1176.34 " fill="#FEFFDD" style="stroke:#181818;stroke-width:0.5;"/><text fill="#000000" font-family="sans-serif" font-size="13" lengthAdjust="spacing" textLength="272" x="2239.5" y="1193.4069">6. Rollup contracts read certified sequence</text><text fill="#000000" font-family="sans-serif" font-size="13" lengthAdjust="spacing" textLength="248" x="2255.5" y="1208.5397">of block commitments from sequencer</text><text fill="#000000" font-family="sans-serif" font-size="13" lengthAdjust="spacing" textLength="242" x="2255.5" y="1223.6725">contract. Verify state transition proofs</text><text fill="#000000" font-family="sans-serif" font-size="13" lengthAdjust="spacing" textLength="247" x="2255.5" y="1238.8053">against this sequence (ZKR) or wait for</text><text fill="#000000" font-family="sans-serif" font-size="13" lengthAdjust="spacing" textLength="260" x="2255.5" y="1253.9381">fraud proof against this sequence (ORU).</text></g><!--link L2_1_State to L2_1_RPC--><g id="link_L2_1_State_L2_1_RPC"><path d="M1897,148.52 C1897,170.14 1897,197.07 1897,218.91 " fill="none" id="L2_1_State-to-L2_1_RPC" style="stroke:#181818;stroke-width:1.0;"/><polygon fill="#181818" points="1897,224.91,1901,215.91,1897,219.91,1893,215.91,1897,224.91" style="stroke:#181818;stroke-width:1.0;"/><text fill="#000000" font-family="sans-serif" font-size="13" lengthAdjust="spacing" textLength="69" x="1898" y="191.3669">Read state</text></g><!--reverse link L2_1_State to L2_1_Exec--><g id="link_L2_1_State_L2_1_Exec"><path d="M1857.4426,151.8395 C1843.5026,160.8595 1832.38,168.26 1818,178.3 C1796.38,193.38 1772.54,211.13 1754.4,224.87 " fill="none" id="L2_1_State-backto-L2_1_Exec" style="stroke:#181818;stroke-width:1.0;"/><polygon fill="#181818" points="1862.48,148.58,1852.7509,150.111,1858.2821,151.2963,1857.0969,156.8275,1862.48,148.58" style="stroke:#181818;stroke-width:1.0;"/><text fill="#000000" font-family="sans-serif" font-size="13" lengthAdjust="spacing" textLength="69" x="1819" y="191.3669">Write state</text></g><!--link L2_1_State to L2_1_Prover--><g id="link_L2_1_State_L2_1_Prover"><path d="M1932.56,148.72 C1946.36,157.59 1962.14,168.11 1976,178.3 C1996.09,193.06 2013.2222,207.0996 2029.5422,220.9996 " fill="none" id="L2_1_State-to-L2_1_Prover" style="stroke:#181818;stroke-width:1.0;"/><polygon fill="#181818" points="2034.11,224.89,2029.852,216.0092,2030.3035,221.648,2024.6647,222.0995,2034.11,224.89" style="stroke:#181818;stroke-width:1.0;"/><text fill="#000000" font-family="sans-serif" font-size="13" lengthAdjust="spacing" textLength="71" x="1998" y="191.3669">Read State</text></g><!--link Builder to Fee_L1--><g id="link_Builder_Fee_L1"><path d="M2061.42,651.64 C2091,661.67 2130.9,674.14 2167,681.89 C2195.03,687.91 2206.78,674.56 2231,689.89 C2445.2,825.53 2466.18,927.89 2537,1171.34 C2548.79,1211.88 2560.01,1230.93 2537,1266.34 C2532.23,1273.68 2526.57,1269.94 2519,1274.34 C2456.25,1310.75 2394.2826,1358.5814 2354.3226,1391.1214 " fill="none" id="Builder-to-Fee_L1" style="stroke:#181818;stroke-width:1.0;"/><polygon fill="#181818" points="2349.67,1394.91,2359.1746,1392.3287,2353.5471,1391.7528,2354.1231,1386.1253,2349.67,1394.91" style="stroke:#181818;stroke-width:1.0;"/><text fill="#000000" font-family="sans-serif" font-size="13" lengthAdjust="spacing" textLength="47" x="2466" y="929.7569">deposit</text><text fill="#000000" font-family="sans-serif" font-size="13" lengthAdjust="spacing" textLength="20" x="2479.5" y="944.8897">fee</text></g><!--reverse link Validated to Fee_L1--><g id="link_Validated_Fee_L1"><path d="M1780.0521,661.7012 C1793.1921,670.8612 1804.61,676.99 1821,681.89 C1839.48,687.41 2153.84,676.8 2168,689.89 C2357.15,864.67 2073.79,1059.33 2227,1266.34 C2232.45,1273.7 2239.46,1267.92 2246,1274.34 C2280.03,1307.75 2298.1,1361.44 2306.6,1395.07 " fill="none" id="Validated-backto-Fee_L1" style="stroke:#181818;stroke-width:1.0;"/><polygon fill="#181818" points="1775.13,658.27,1780.2256,666.6982,1779.2317,661.1293,1784.8006,660.1354,1775.13,658.27" style="stroke:#181818;stroke-width:1.0;"/><text fill="#000000" font-family="sans-serif" font-size="13" lengthAdjust="spacing" textLength="20" x="2242" y="929.7569">fee</text><text fill="#000000" font-family="sans-serif" font-size="13" lengthAdjust="spacing" textLength="54" x="2225" y="944.8897">deposits</text></g><!--SRC=[XLPRRzis57xNhpZmInDWDf3iyc0C1HOdGxfuQM8tBT1w21Y9jed8f4PIoOmY_tqVRx9iIsWC1FJXkNtVkT0Lov_PYjFWobIQ6wDepl-jkSovfbjkNvL-7X0pwKpVCy9VhZQLabnQ6ZJg2tch2cw2jZjvpIhwdrpUHjjz-mkjdhdkkFYRQRDcPNDJCCkUcE5qmxUN5rxybhrbsJldUSgsghPPS4R3zq5fJCOoopF_nKcZpoJtMTBlGzp0oHZ1fU7Ir6OXDw02QPiig_e9yb0RSK3Nf3cuKyQkT2GaPjmuQv6C9BmAH9qC3Vwu-m0dkollI6bB4sRpTLqTNrn_-dHtB9q3T6qwvFNJHjXZ-NtDzVPOFBXMrgoLNSYh5-G7ikPMSxO9R7ZHdb4B2IpdtjAxXY7NBo8FyE_dZTLR5mkn0OLS3Rxt-9-Af-gywWlk-cHI2fm7hKZDCPN6iSHzFVoXBzOWNC_5IiP62CS-zS-i5EWDNdWxRz283e2_PTsqXQvTo4gh5pIEQP5tFR_pmXzOQbwoxPxXp4aEhIvgKHOHLJnx5LyrSkE2Oe6wC3_3kd8357fnJ1jX38gqaFipvfL2WRe7hLsV7yta_TndWQ5ofszhKHHS_bEeLmcf6vSi58E6KUPXfh5tWpRKOhMsk8du4AXaOaDFfSgVCw_kGoHYasqM6fpQbWFtiPf9mt8haEyWYtSqBFdIHK78SVIzMoXOMb0v3mjYUdwyMcUgBEkApgB2urdlVg0JFbgDwA_vnzlXx6vosbWyubk7pTL_FA-jqesQ4tJe1V2DLgl9zdTT68RBYrrSBscsz6w9sZNNlDvG01-X9M37ktQY99ZDhKcxzd7QmyBK5JGsq48ck-1_0gikcpyvFr259Ec-xQSKYx6V4A3svPEATvYB8wU9W262ih1RUi1KPkuV3H_ygCJYqNY_jtwAWqLuFxHmhmi-cLIGM5MHMb8fv7DsDi9Z9xVeQk7xrUnsVDiRR8YpVEqlq896REhICibLRSejdInLN2abqovB9KltZvC8EnxlmAiy1OQ2N0fPrgJjXYSyB0S85Z8nGnykUx8_7o4PGuZ-odHnbB59Z-Ue5JakfxeXpxKqOb_ugVCX_CmtGNuUjNxgOASMTOvDvOSKyptq-9J65FC21WOamhAToYYoPaZpd8iNdemPak9-mlWnum1560AXINiUsXZIjcdsbkzSW6WUpjqJe9PTe7xP0wMCBtsU2vbRrvmenmRz4B9I8LztcA9VKfiI4X1Bj1Q5A9w7PI8TgvrExckbCSCJhYqqSwHq6bokkSIYL9XTTux-Tt57XvsIuBvFSm6iWPOkg4_AMhLfiFuwej1AnYFr6TILVr7Zjeum7RglDyFWE3Gk22dh0kzy0BcNcESyf8H1xOhyMuhidgUm3j03hA0yCE8IY5L8z1rIWKRGyDYqSjpzmTk8FhiQR0ECq3_2jK_8Da1WAoP04eWMfl539rzlPgVeMtfb6BqqlqlDwY8Ozzbzd3sSjcbuv_R16HNSCb6QtM3xfxorur6ncOCU6DzDNciIazuNx13ULepbxtCPtf3TOmf_OJ-FaHPABZ0GIywp88mHcrzLOrgwzHurJVO_]--></g></svg>