<?xml version="1.0" encoding="UTF-8" standalone="no"?><svg xmlns="http://www.w3.org/2000/svg" xmlns:xlink="http://www.w3.org/1999/xlink" contentStyleType="text/css" height="945px" preserveAspectRatio="none" style="width:997px;height:945px;background:#FFFFFF;" version="1.1" viewBox="0 0 997 945" width="997px" zoomAndPan="magnify"><defs/><g><!--MD5=[fb3681035abf3c9c7eca592094bbf4a9]
cluster WWW--><g id="cluster_WWW"><path d="M593.5,337 L639.5,337 A3.75,3.75 0 0 1 642,339.5 L649,359.2969 L839.5,359.2969 A2.5,2.5 0 0 1 842,361.7969 L842,498.5 A2.5,2.5 0 0 1 839.5,501 L593.5,501 A2.5,2.5 0 0 1 591,498.5 L591,339.5 A2.5,2.5 0 0 1 593.5,337 " fill="none" style="stroke:#000000;stroke-width:1.5;"/><line style="stroke:#000000;stroke-width:1.5;" x1="591" x2="649" y1="359.2969" y2="359.2969"/><text fill="#000000" font-family="sans-serif" font-size="14" font-weight="bold" lengthAdjust="spacing" textLength="45" x="595" y="351.9951">WWW</text></g><!--MD5=[3746f487d7820090e32c72dc756be46d]
cluster HotShotExternal--><g id="cluster_HotShotExternal"><path d="M700.5,380 L764.5,380 A3.75,3.75 0 0 1 767,382.5 L774,402.2969 L815.5,402.2969 A2.5,2.5 0 0 1 818,404.7969 L818,474.5 A2.5,2.5 0 0 1 815.5,477 L700.5,477 A2.5,2.5 0 0 1 698,474.5 L698,382.5 A2.5,2.5 0 0 1 700.5,380 " fill="none" style="stroke:#000000;stroke-width:1.5;"/><line style="stroke:#000000;stroke-width:1.5;" x1="698" x2="774" y1="402.2969" y2="402.2969"/><text fill="#000000" font-family="sans-serif" font-size="14" font-weight="bold" lengthAdjust="spacing" textLength="63" x="702" y="394.9951">HotShot</text></g><!--MD5=[074479fc2b8718e85f223949db21494f]
cluster Decentralized Sequencer--><g id="cluster_Decentralized Sequencer"><path d="M142.5,6 L343.5,6 A3.75,3.75 0 0 1 346,8.5 L353,28.2969 L564.5,28.2969 A2.5,2.5 0 0 1 567,30.7969 L567,498.5 A2.5,2.5 0 0 1 564.5,501 L142.5,501 A2.5,2.5 0 0 1 140,498.5 L140,8.5 A2.5,2.5 0 0 1 142.5,6 " fill="none" style="stroke:#000000;stroke-width:1.5;"/><line style="stroke:#000000;stroke-width:1.5;" x1="140" x2="353" y1="28.2969" y2="28.2969"/><text fill="#000000" font-family="sans-serif" font-size="14" font-weight="bold" lengthAdjust="spacing" textLength="200" x="144" y="20.9951">Decentralized Sequencer</text></g><!--MD5=[bcfbdd31683a7d01cd062dc0c4be3661]
cluster zkApp--><g id="cluster_zkApp"><path d="M166.5,49 L252.5,49 A3.75,3.75 0 0 1 255,51.5 L262,71.2969 L540.5,71.2969 A2.5,2.5 0 0 1 543,73.7969 L543,474.5 A2.5,2.5 0 0 1 540.5,477 L166.5,477 A2.5,2.5 0 0 1 164,474.5 L164,51.5 A2.5,2.5 0 0 1 166.5,49 " fill="none" style="stroke:#000000;stroke-width:1.5;"/><line style="stroke:#000000;stroke-width:1.5;" x1="164" x2="262" y1="71.2969" y2="71.2969"/><text fill="#000000" font-family="sans-serif" font-size="14" font-weight="bold" lengthAdjust="spacing" textLength="85" x="168" y="63.9951">zkEVM app</text></g><!--MD5=[975d7fda8cf98ff1a26ca528bf10cecf]
cluster App--><g id="cluster_App"><path d="M198.5,100 L404.5,100 A3.75,3.75 0 0 1 407,102.5 L414,122.2969 L508.5,122.2969 A2.5,2.5 0 0 1 511,124.7969 L511,277.5 A2.5,2.5 0 0 1 508.5,280 L198.5,280 A2.5,2.5 0 0 1 196,277.5 L196,102.5 A2.5,2.5 0 0 1 198.5,100 " fill="none" style="stroke:#000000;stroke-width:1.5;"/><line style="stroke:#000000;stroke-width:1.5;" x1="196" x2="414" y1="122.2969" y2="122.2969"/><text fill="#000000" font-family="sans-serif" font-size="14" font-weight="bold" lengthAdjust="spacing" textLength="205" x="200" y="114.9951">Txn-ordering HotShot app</text></g><!--MD5=[583d55fc1e2a49743832e160d5573292]
cluster HotShot--><g id="cluster_HotShot"><path d="M238.5,151 L302.5,151 A3.75,3.75 0 0 1 305,153.5 L312,173.2969 L476.5,173.2969 A2.5,2.5 0 0 1 479,175.7969 L479,245.5 A2.5,2.5 0 0 1 476.5,248 L238.5,248 A2.5,2.5 0 0 1 236,245.5 L236,153.5 A2.5,2.5 0 0 1 238.5,151 " fill="none" style="stroke:#000000;stroke-width:1.5;"/><line style="stroke:#000000;stroke-width:1.5;" x1="236" x2="312" y1="173.2969" y2="173.2969"/><text fill="#000000" font-family="sans-serif" font-size="14" font-weight="bold" lengthAdjust="spacing" textLength="63" x="240" y="165.9951">HotShot</text></g><!--MD5=[30107c386ad61863a1077fa9b8608265]
cluster L2--><g id="cluster_L2"><path d="M8.5,595 L28.5,595 A3.75,3.75 0 0 1 31,597.5 L38,617.2969 L644.5,617.2969 A2.5,2.5 0 0 1 647,619.7969 L647,935.5 A2.5,2.5 0 0 1 644.5,938 L8.5,938 A2.5,2.5 0 0 1 6,935.5 L6,597.5 A2.5,2.5 0 0 1 8.5,595 " fill="none" style="stroke:#000000;stroke-width:1.5;"/><line style="stroke:#000000;stroke-width:1.5;" x1="6" x2="38" y1="617.2969" y2="617.2969"/><text fill="#000000" font-family="sans-serif" font-size="14" font-weight="bold" lengthAdjust="spacing" textLength="19" x="10" y="609.9951">L2</text></g><!--MD5=[72078431e26b572f5b2226d95bfc722b]
cluster HermezProver--><g id="cluster_HermezProver"><path d="M224.5,638 L344.5,638 A3.75,3.75 0 0 1 347,640.5 L354,660.2969 L506.5,660.2969 A2.5,2.5 0 0 1 509,662.7969 L509,911.5 A2.5,2.5 0 0 1 506.5,914 L224.5,914 A2.5,2.5 0 0 1 222,911.5 L222,640.5 A2.5,2.5 0 0 1 224.5,638 " fill="none" style="stroke:#000000;stroke-width:1.5;"/><line style="stroke:#000000;stroke-width:1.5;" x1="222" x2="354" y1="660.2969" y2="660.2969"/><text fill="#000000" font-family="sans-serif" font-size="14" font-weight="bold" lengthAdjust="spacing" textLength="119" x="226" y="652.9951">Hermez Prover</text></g><!--MD5=[4499c58aefeb8777a4ef8729a6b9746a]
cluster L1--><g id="cluster_L1"><path d="M673.5,808.5 L693.5,808.5 A3.75,3.75 0 0 1 696,811 L703,830.7969 L987.5,830.7969 A2.5,2.5 0 0 1 990,833.2969 L990,903 A2.5,2.5 0 0 1 987.5,905.5 L673.5,905.5 A2.5,2.5 0 0 1 671,903 L671,811 A2.5,2.5 0 0 1 673.5,808.5 " fill="none" style="stroke:#000000;stroke-width:1.5;"/><line style="stroke:#000000;stroke-width:1.5;" x1="671" x2="703" y1="830.7969" y2="830.7969"/><text fill="#000000" font-family="sans-serif" font-size="14" font-weight="bold" lengthAdjust="spacing" textLength="19" x="675" y="823.4951">L1</text></g><!--MD5=[fee662a292a0353a69bd162820bae93b]
entity User--><g id="elem_User"><rect fill="#F1F1F1" height="46.2969" rx="2.5" ry="2.5" style="stroke:#181818;stroke-width:0.5;" width="72" x="607" y="415"/><rect fill="#F1F1F1" height="10" style="stroke:#181818;stroke-width:0.5;" width="15" x="659" y="420"/><rect fill="#F1F1F1" height="2" style="stroke:#181818;stroke-width:0.5;" width="4" x="657" y="422"/><rect fill="#F1F1F1" height="2" style="stroke:#181818;stroke-width:0.5;" width="4" x="657" y="426"/><text fill="#000000" font-family="sans-serif" font-size="14" lengthAdjust="spacing" textLength="32" x="622" y="447.9951">User</text></g><!--MD5=[896ddc638b163aeba3d9eafdbb3e5908]
entity GossipExternal--><g id="elem_GossipExternal"><rect fill="#F1F1F1" height="46.2969" rx="2.5" ry="2.5" style="stroke:#181818;stroke-width:0.5;" width="88" x="714" y="415"/><rect fill="#F1F1F1" height="10" style="stroke:#181818;stroke-width:0.5;" width="15" x="782" y="420"/><rect fill="#F1F1F1" height="2" style="stroke:#181818;stroke-width:0.5;" width="4" x="780" y="422"/><rect fill="#F1F1F1" height="2" style="stroke:#181818;stroke-width:0.5;" width="4" x="780" y="426"/><text fill="#000000" font-family="sans-serif" font-size="14" lengthAdjust="spacing" textLength="48" x="729" y="447.9951">Gossip</text></g><!--MD5=[1fdded0352c3e8b8e8e5fa4c440e3206]
entity Events--><g id="elem_Events"><rect fill="#F1F1F1" height="46.2969" rx="2.5" ry="2.5" style="stroke:#181818;stroke-width:0.5;" width="87" x="384.5" y="415"/><rect fill="#F1F1F1" height="10" style="stroke:#181818;stroke-width:0.5;" width="15" x="451.5" y="420"/><rect fill="#F1F1F1" height="2" style="stroke:#181818;stroke-width:0.5;" width="4" x="449.5" y="422"/><rect fill="#F1F1F1" height="2" style="stroke:#181818;stroke-width:0.5;" width="4" x="449.5" y="426"/><text fill="#000000" font-family="sans-serif" font-size="14" lengthAdjust="spacing" textLength="47" x="399.5" y="447.9951">Events</text></g><!--MD5=[fc241586e3e4cf255457dad9b5d09a8f]
entity Submit--><g id="elem_Submit"><rect fill="#F1F1F1" height="46.2969" rx="2.5" ry="2.5" style="stroke:#181818;stroke-width:0.5;" width="113" x="180.5" y="415"/><rect fill="#F1F1F1" height="10" style="stroke:#181818;stroke-width:0.5;" width="15" x="273.5" y="420"/><rect fill="#F1F1F1" height="2" style="stroke:#181818;stroke-width:0.5;" width="4" x="271.5" y="422"/><rect fill="#F1F1F1" height="2" style="stroke:#181818;stroke-width:0.5;" width="4" x="271.5" y="426"/><text fill="#000000" font-family="sans-serif" font-size="14" lengthAdjust="spacing" textLength="73" x="195.5" y="447.9951">Submit API</text></g><!--MD5=[72906ce1eb61e5bac7b26d06e51547ad]
entity GossipInternal--><g id="elem_GossipInternal"><rect fill="#F1F1F1" height="46.2969" rx="2.5" ry="2.5" style="stroke:#181818;stroke-width:0.5;" width="88" x="375" y="186"/><rect fill="#F1F1F1" height="10" style="stroke:#181818;stroke-width:0.5;" width="15" x="443" y="191"/><rect fill="#F1F1F1" height="2" style="stroke:#181818;stroke-width:0.5;" width="4" x="441" y="193"/><rect fill="#F1F1F1" height="2" style="stroke:#181818;stroke-width:0.5;" width="4" x="441" y="197"/><text fill="#000000" font-family="sans-serif" font-size="14" lengthAdjust="spacing" textLength="48" x="390" y="218.9951">Gossip</text></g><!--MD5=[657580825c081e24058a2374906e8018]
entity HotShotEvents--><g id="elem_HotShotEvents"><rect fill="#F1F1F1" height="46.2969" rx="2.5" ry="2.5" style="stroke:#181818;stroke-width:0.5;" width="87" x="252.5" y="186"/><rect fill="#F1F1F1" height="10" style="stroke:#181818;stroke-width:0.5;" width="15" x="319.5" y="191"/><rect fill="#F1F1F1" height="2" style="stroke:#181818;stroke-width:0.5;" width="4" x="317.5" y="193"/><rect fill="#F1F1F1" height="2" style="stroke:#181818;stroke-width:0.5;" width="4" x="317.5" y="197"/><text fill="#000000" font-family="sans-serif" font-size="14" lengthAdjust="spacing" textLength="47" x="267.5" y="218.9951">Events</text></g><!--MD5=[ee57f16ef1ba8b49a548a5b41deaf6ed]
entity JsonRPC--><g id="elem_JsonRPC"><rect fill="#F1F1F1" height="46.2969" rx="2.5" ry="2.5" style="stroke:#181818;stroke-width:0.5;" width="98" x="22" y="673"/><rect fill="#F1F1F1" height="10" style="stroke:#181818;stroke-width:0.5;" width="15" x="100" y="678"/><rect fill="#F1F1F1" height="2" style="stroke:#181818;stroke-width:0.5;" width="4" x="98" y="680"/><rect fill="#F1F1F1" height="2" style="stroke:#181818;stroke-width:0.5;" width="4" x="98" y="684"/><text fill="#000000" font-family="sans-serif" font-size="14" lengthAdjust="spacing" textLength="58" x="37" y="705.9951">JsonRPC</text></g><!--MD5=[58f3bb20197d49c7ea139ae014477a42]
entity L2DB--><g id="elem_L2DB"><rect fill="#D3D3D3" height="111.4844" rx="2.5" ry="2.5" style="stroke:#181818;stroke-width:0.5;" width="160" x="22" y="811"/><rect fill="#D3D3D3" height="10" style="stroke:#181818;stroke-width:0.5;" width="15" x="162" y="816"/><rect fill="#D3D3D3" height="2" style="stroke:#181818;stroke-width:0.5;" width="4" x="160" y="818"/><rect fill="#D3D3D3" height="2" style="stroke:#181818;stroke-width:0.5;" width="4" x="160" y="822"/><text fill="#000000" font-family="sans-serif" font-size="14" lengthAdjust="spacing" textLength="120" x="37" y="843.9951">L2 Blockchain DB</text><text fill="#000000" font-family="sans-serif" font-size="14" lengthAdjust="spacing" textLength="4" x="37" y="860.292"> </text><text fill="#000000" font-family="sans-serif" font-size="14" lengthAdjust="spacing" textLength="45" x="37" y="876.5889">blocks</text><text fill="#000000" font-family="sans-serif" font-size="14" lengthAdjust="spacing" textLength="56" x="37" y="892.8857">receipts</text><text fill="#000000" font-family="sans-serif" font-size="14" lengthAdjust="spacing" textLength="29" x="37" y="909.1826">logs</text></g><!--MD5=[daa17a87a602f85fbd6c6a31524a683b]
entity BridgeL2--><g id="elem_BridgeL2"><rect fill="#D3D3D3" height="46.2969" rx="2.5" ry="2.5" style="stroke:#181818;stroke-width:0.5;" width="105" x="525.5" y="673"/><rect fill="#D3D3D3" height="10" style="stroke:#181818;stroke-width:0.5;" width="15" x="610.5" y="678"/><rect fill="#D3D3D3" height="2" style="stroke:#181818;stroke-width:0.5;" width="4" x="608.5" y="680"/><rect fill="#D3D3D3" height="2" style="stroke:#181818;stroke-width:0.5;" width="4" x="608.5" y="684"/><text fill="#000000" font-family="sans-serif" font-size="14" lengthAdjust="spacing" textLength="65" x="540.5" y="705.9951">Bridge L2</text></g><!--MD5=[c3bd79b6cca3d8fa787b3b807ac7237d]
entity Prover--><g id="elem_Prover"><rect fill="#F1F1F1" height="46.2969" rx="2.5" ry="2.5" style="stroke:#181818;stroke-width:0.5;" width="84" x="406" y="673"/><rect fill="#F1F1F1" height="10" style="stroke:#181818;stroke-width:0.5;" width="15" x="470" y="678"/><rect fill="#F1F1F1" height="2" style="stroke:#181818;stroke-width:0.5;" width="4" x="468" y="680"/><rect fill="#F1F1F1" height="2" style="stroke:#181818;stroke-width:0.5;" width="4" x="468" y="684"/><text fill="#000000" font-family="sans-serif" font-size="14" lengthAdjust="spacing" textLength="44" x="421" y="705.9951">Prover</text></g><!--MD5=[77b6810f9f1d8e17e1346401c10c77dc]
entity Executor--><g id="elem_Executor"><rect fill="#D3D3D3" height="46.2969" rx="2.5" ry="2.5" style="stroke:#181818;stroke-width:0.5;" width="101" x="269.5" y="673"/><rect fill="#D3D3D3" height="10" style="stroke:#181818;stroke-width:0.5;" width="15" x="350.5" y="678"/><rect fill="#D3D3D3" height="2" style="stroke:#181818;stroke-width:0.5;" width="4" x="348.5" y="680"/><rect fill="#D3D3D3" height="2" style="stroke:#181818;stroke-width:0.5;" width="4" x="348.5" y="684"/><text fill="#000000" font-family="sans-serif" font-size="14" lengthAdjust="spacing" textLength="61" x="284.5" y="705.9951">Executor</text></g><!--MD5=[47b51ac2f4ace7439b689a6295ba6363]
entity Tree--><g id="elem_Tree"><rect fill="#F1F1F1" height="62.5938" rx="2.5" ry="2.5" style="stroke:#181818;stroke-width:0.5;" width="122" x="238" y="835"/><rect fill="#F1F1F1" height="10" style="stroke:#181818;stroke-width:0.5;" width="15" x="340" y="840"/><rect fill="#F1F1F1" height="2" style="stroke:#181818;stroke-width:0.5;" width="4" x="338" y="842"/><rect fill="#F1F1F1" height="2" style="stroke:#181818;stroke-width:0.5;" width="4" x="338" y="846"/><text fill="#000000" font-family="sans-serif" font-size="14" lengthAdjust="spacing" textLength="81" x="253" y="867.9951">L2 State DB</text><text fill="#000000" font-family="sans-serif" font-size="14" lengthAdjust="spacing" textLength="82" x="253" y="884.292">Merkle Tree</text></g><!--MD5=[02772cf4a850889cc654a495925d36fb]
entity Rollup--><g id="elem_Rollup"><rect fill="#F1F1F1" height="46.2969" rx="2.5" ry="2.5" style="stroke:#181818;stroke-width:0.5;" width="146" x="687" y="843.5"/><rect fill="#F1F1F1" height="10" style="stroke:#181818;stroke-width:0.5;" width="15" x="813" y="848.5"/><rect fill="#F1F1F1" height="2" style="stroke:#181818;stroke-width:0.5;" width="4" x="811" y="850.5"/><rect fill="#F1F1F1" height="2" style="stroke:#181818;stroke-width:0.5;" width="4" x="811" y="854.5"/><text fill="#000000" font-family="sans-serif" font-size="14" lengthAdjust="spacing" textLength="106" x="702" y="876.4951">Rollup Contract</text></g><!--MD5=[8408e9abc57f2e0dae33bcd01efd5900]
entity BridgeL1--><g id="elem_BridgeL1"><rect fill="#D3D3D3" height="46.2969" rx="2.5" ry="2.5" style="stroke:#181818;stroke-width:0.5;" width="105" x="868.5" y="843.5"/><rect fill="#D3D3D3" height="10" style="stroke:#181818;stroke-width:0.5;" width="15" x="953.5" y="848.5"/><rect fill="#D3D3D3" height="2" style="stroke:#181818;stroke-width:0.5;" width="4" x="951.5" y="850.5"/><rect fill="#D3D3D3" height="2" style="stroke:#181818;stroke-width:0.5;" width="4" x="951.5" y="854.5"/><text fill="#000000" font-family="sans-serif" font-size="14" lengthAdjust="spacing" textLength="65" x="883.5" y="876.4951">Bridge L1</text></g><!--MD5=[91cafd777a61df7305284aff3f8c2f32]
link GossipInternal to GossipExternal--><g id="link_GossipInternal_GossipExternal"><path d="M469.38,218.64 C532.96,231.96 642.17,263.18 710,329 C732.3,350.64 745.02,384.48 751.68,408.51 " fill="none" id="GossipInternal-GossipExternal" style="stroke:#181818;stroke-width:1.0;"/><polygon fill="#181818" points="752.94,413.24,754.4967,403.5149,751.657,408.4074,746.7645,405.5677,752.94,413.24" style="stroke:#181818;stroke-width:1.0;"/><polygon fill="#181818" points="464.86,217.71,472.8624,223.4513,469.7562,218.7235,474.484,215.6173,464.86,217.71" style="stroke:#181818;stroke-width:1.0;"/></g><!--MD5=[ca6b63cfdd9d3d2398c58b83ed262b4e]
link Prover to BridgeL2--><g id="link_Prover_BridgeL2"><path d="M490.4,696 C499.95,696 509.49,696 519.03,696 " fill="none" id="Prover-to-BridgeL2" style="stroke:#181818;stroke-width:1.0;"/><polygon fill="#181818" points="523.79,696,514.79,692,518.79,696,514.79,700,523.79,696" style="stroke:#181818;stroke-width:1.0;"/></g><!--MD5=[41bf5c2ff0458362cd2ec6a26f1e4ae9]
link User to JsonRPC--><g id="link_User_JsonRPC"><path d="M616.78,461.36 C600.27,476.18 579.1,496.59 563,517 C543.12,542.19 553.69,562.79 526,579 C496.84,596.07 254.04,576.26 222,587 C172.89,603.47 125.94,641.82 97.78,668.09 " fill="none" id="User-to-JsonRPC" style="stroke:#181818;stroke-width:1.0;"/><polygon fill="#181818" points="94.19,671.48,103.4789,668.2063,97.8243,668.046,97.9845,662.3915,94.19,671.48" style="stroke:#181818;stroke-width:1.0;"/><text fill="#000000" font-family="sans-serif" font-size="13" lengthAdjust="spacing" textLength="107" x="564" y="552.5669">EVM txn, queries</text></g><!--MD5=[fb267e17b24e3cdcec4d04de63f929e9]
link JsonRPC to Submit--><g id="link_JsonRPC_Submit"><path d="M85.53,672.6 C115.89,625.77 186,517.65 219.09,466.62 " fill="none" id="JsonRPC-to-Submit" style="stroke:#181818;stroke-width:1.0;"/><polygon fill="#181818" points="221.74,462.54,213.4743,467.8951,219.0095,466.7286,220.1761,472.2639,221.74,462.54" style="stroke:#181818;stroke-width:1.0;"/><text fill="#000000" font-family="sans-serif" font-size="13" lengthAdjust="spacing" textLength="52" x="184" y="552.5669">EVM txn</text></g><!--MD5=[0f85c64cbe394fdbbcb7903f2cd04337]
link JsonRPC to L2DB--><g id="link_JsonRPC_L2DB"><path d="M75.12,719.38 C79.1,741.02 85.32,774.81 90.77,804.45 " fill="none" id="JsonRPC-to-L2DB" style="stroke:#181818;stroke-width:1.0;"/><polygon fill="#181818" points="91.65,809.22,93.9363,799.6402,90.7355,804.3043,86.0713,801.1035,91.65,809.22" style="stroke:#181818;stroke-width:1.0;"/><text fill="#000000" font-family="sans-serif" font-size="13" lengthAdjust="spacing" textLength="29" x="87" y="769.5669">read</text></g><!--MD5=[54efc4a2d23f41f3f0dc12b7324a18cb]
link JsonRPC to Tree--><g id="link_JsonRPC_Tree"><path d="M111.51,719.37 C145.54,738.93 194.76,769.06 234,800.5 C245.12,809.41 256.4,820.02 266.36,830.05 " fill="none" id="JsonRPC-to-Tree" style="stroke:#181818;stroke-width:1.0;"/><polygon fill="#181818" points="269.78,833.53,266.3375,824.3024,266.2804,829.9589,260.6238,829.9018,269.78,833.53" style="stroke:#181818;stroke-width:1.0;"/><text fill="#000000" font-family="sans-serif" font-size="13" lengthAdjust="spacing" textLength="29" x="205" y="769.5669">read</text></g><!--MD5=[9eb4f09f33922fd95390af3a7601fb36]
link JsonRPC to Executor--><g id="link_JsonRPC_Executor"><path d="M120.49,696 C161.5,696 219.82,696 262.82,696 " fill="none" id="JsonRPC-to-Executor" style="stroke:#181818;stroke-width:1.0;"/><polygon fill="#181818" points="267.81,696,258.81,692,262.81,696,258.81,700,267.81,696" style="stroke:#181818;stroke-width:1.0;"/><text fill="#000000" font-family="sans-serif" font-size="13" lengthAdjust="spacing" textLength="113" x="138.25" y="689.0669">call, estimate gas</text></g><!--MD5=[5fee4087329efc2ae6490d423f82bd1c]
link User to BridgeL1--><g id="link_User_BridgeL1"><path d="M657.56,461.33 C704.41,533.22 851.3,758.56 902.88,837.69 " fill="none" id="User-to-BridgeL1" style="stroke:#181818;stroke-width:1.0;"/><polygon fill="#181818" points="905.6,841.87,904.0361,832.1461,902.8695,837.6814,897.3343,836.5149,905.6,841.87" style="stroke:#181818;stroke-width:1.0;"/></g><!--MD5=[eb6b988b0512d6b84233d2583692179c]
reverse link App to Submit--><g id="link_App_Submit"><path d="M214.2385,280.4196 C214.286,280.7465 214.3336,281.074 214.3813,281.4019 C214.572,282.7139 214.764,284.0346 214.9572,285.3632 C215.3434,288.0203 215.7343,290.7091 216.1288,293.4225 C222.44,336.8375 229.67,386.58 233.75,414.65 " fill="none" id="App-backto-Submit" style="stroke:#181818;stroke-width:1.0;"/><polygon fill="#181818" points="214.2385,280.4196,211.5749,289.9015,214.9578,285.3676,219.4916,288.7506,214.2385,280.4196" style="stroke:#181818;stroke-width:1.0;"/><text fill="#000000" font-family="sans-serif" font-size="13" lengthAdjust="spacing" textLength="126" x="220" y="317.0669">wrap in HotShot txn</text></g><!--MD5=[25a03e75ea8af1b5fbad106de56d561d]
link HotShotEvents to Events--><g id="link_HotShotEvents_Events"><path d="M310.44,232.19 C322.62,251.09 340.36,279.08 355,304 C376.05,339.83 398.88,382.01 413.31,409.11 " fill="none" id="HotShotEvents-to-Events" style="stroke:#181818;stroke-width:1.0;"/><polygon fill="#181818" points="415.54,413.32,414.8539,403.4951,413.196,408.9035,407.7875,407.2455,415.54,413.32" style="stroke:#181818;stroke-width:1.0;"/></g><!--MD5=[4d6bd62da00033941d5a40d1ae2f47cd]
link Executor to Tree--><g id="link_Executor_Tree"><path d="M291.08,719.48 C282.65,727.75 274.49,737.85 270,749 C259.59,774.84 267.96,805.46 278.33,828.82 " fill="none" id="Executor-to-Tree" style="stroke:#181818;stroke-width:1.0;"/><polygon fill="#181818" points="280.37,833.22,280.2244,823.3722,278.272,828.6815,272.9628,826.729,280.37,833.22" style="stroke:#181818;stroke-width:1.0;"/><text fill="#000000" font-family="sans-serif" font-size="13" lengthAdjust="spacing" textLength="111" x="271" y="769.5669">execute (dry-run)</text></g><!--MD5=[a2a14a62da07da7dcefcccd0a9c3b3c2]
link Prover to Tree--><g id="link_Prover_Tree"><path d="M433.47,719.21 C421.7,736.63 404.29,761.16 387,781 C371.99,798.22 354.01,815.93 338.22,830.66 " fill="none" id="Prover-to-Tree" style="stroke:#181818;stroke-width:1.0;"/><polygon fill="#181818" points="334.94,833.7,344.2612,830.5196,338.6085,830.3027,338.8255,824.65,334.94,833.7" style="stroke:#181818;stroke-width:1.0;"/><text fill="#000000" font-family="sans-serif" font-size="13" lengthAdjust="spacing" textLength="65" x="412" y="769.5669">apply txns</text></g><!--MD5=[d6283fea07f96c348eabdeb8d4eaaf24]
link Events to Prover--><g id="link_Events_Prover"><path d="M427.09,461.36 C426.22,489.03 425.48,537.59 429,579 C431.56,609.11 437.51,643.2 442.08,666.59 " fill="none" id="Events-to-Prover" style="stroke:#181818;stroke-width:1.0;"/><polygon fill="#181818" points="443.03,671.41,445.2034,661.804,442.0577,666.5055,437.3562,663.3597,443.03,671.41" style="stroke:#181818;stroke-width:1.0;"/><text fill="#000000" font-family="sans-serif" font-size="13" lengthAdjust="spacing" textLength="46" x="452.5" y="530.0669">stream</text><text fill="#000000" font-family="sans-serif" font-size="13" lengthAdjust="spacing" textLength="91" x="430" y="545.1997">order commit,</text><text fill="#000000" font-family="sans-serif" font-size="13" lengthAdjust="spacing" textLength="23" x="464" y="560.3325">QC,</text><text fill="#000000" font-family="sans-serif" font-size="13" lengthAdjust="spacing" textLength="36" x="457.5" y="575.4653">batch</text></g><!--MD5=[85c518f0b23bdf2fa0e69caf31359efd]
link Prover to Rollup--><g id="link_Prover_Rollup"><path d="M480.37,719.48 C506.44,737.15 544.33,761.9 579,781 C618.93,803 665.59,824.69 701.53,840.58 " fill="none" id="Prover-to-Rollup" style="stroke:#181818;stroke-width:1.0;"/><polygon fill="#181818" points="705.81,842.47,699.1976,835.171,701.2374,840.4472,695.9612,842.4871,705.81,842.47" style="stroke:#181818;stroke-width:1.0;"/><text fill="#000000" font-family="sans-serif" font-size="13" lengthAdjust="spacing" textLength="91" x="580" y="762.0669">order commit,</text><text fill="#000000" font-family="sans-serif" font-size="13" lengthAdjust="spacing" textLength="60" x="595.5" y="777.1997">QC, proof</text></g><!--MD5=[668147b74b18910be3807e718feb8348]
@startuml
package "WWW" {
  component User
  package "HotShot" as HotShotExternal {
    component "Gossip" as GossipExternal
  }
}

package "Decentralized Sequencer" {
  package "zkEVM app" as zkApp {
    component Events
    component "Submit API" as Submit
    package "Txn-ordering HotShot app" as App {
      package HotShot {
        component "Gossip" as GossipInternal
        component "Events" as HotShotEvents
      }
    }
  }
}

package L2 {
  component JsonRPC
  component L2DB #lightgrey [
    L2 Blockchain DB

    blocks
    receipts
    logs
  ]
  package "Hermez Prover" as HermezProver {
    component Prover
    component Executor #lightgrey
    component Tree [
      L2 State DB
      Merkle Tree
    ]
  }
  component "Bridge L2" as BridgeL2 #lightgrey
}

package L1 {
  component Rollup [
    Rollup Contract
  ]
  component "Bridge L1" as BridgeL1 #lightgrey
}

GossipInternal <-down-> GossipExternal
Prover -> BridgeL2

User - -> JsonRPC: EVM txn, queries
JsonRPC -> Submit: EVM txn
JsonRPC - -> L2DB: read
JsonRPC - -> Tree: read
JsonRPC -> Executor: call, estimate gas

User -> BridgeL1
Submit -up-> App: wrap in HotShot txn
HotShotEvents -down-> Events

Executor - -> Tree: execute (dry-run)
Prover - -> Tree: apply txns
Events - -> Prover: stream\norder commit,\nQC,\nbatch
Prover - -> Rollup: order commit,\nQC, proof
@enduml

PlantUML version 1.2022.12(Sun Oct 23 20:12:26 CEST 2022)
(GPL source distribution)
Java Runtime: OpenJDK Runtime Environment
JVM: OpenJDK 64-Bit Server VM
Default Encoding: UTF-8
Language: en
Country: US
--></g></svg>