<?xml version="1.0" encoding="us-ascii" standalone="no"?><svg xmlns="http://www.w3.org/2000/svg" xmlns:xlink="http://www.w3.org/1999/xlink" contentStyleType="text/css" height="1127px" preserveAspectRatio="none" style="width:1442px;height:1127px;background:#FFFFFF;" version="1.1" viewBox="0 0 1442 1127" width="1442px" zoomAndPan="magnify"><defs/><g><!--cluster Network--><g id="cluster_Network"><path d="M8.5,589.11 L245.5,589.11 A3.75,3.75 0 0 1 248,591.61 L255,611.4069 L471.5,611.4069 A2.5,2.5 0 0 1 474,613.9069 L474,924 A2.5,2.5 0 0 1 471.5,926.5 L8.5,926.5 A2.5,2.5 0 0 1 6,924 L6,591.61 A2.5,2.5 0 0 1 8.5,589.11 " fill="none" style="stroke:#000000;stroke-width:1.5;"/><line style="stroke:#000000;stroke-width:1.5;" x1="6" x2="255" y1="611.4069" y2="611.4069"/><text fill="#000000" font-family="sans-serif" font-size="14" font-weight="bold" lengthAdjust="spacing" textLength="236" x="10" y="604.1051">Espresso Sequencer Network</text></g><!--cluster CDN--><g id="cluster_CDN"><path d="M32.5,632.11 L66.5,632.11 A3.75,3.75 0 0 1 69,634.61 L76,654.4069 L273.5,654.4069 A2.5,2.5 0 0 1 276,656.9069 L276,900 A2.5,2.5 0 0 1 273.5,902.5 L32.5,902.5 A2.5,2.5 0 0 1 30,900 L30,634.61 A2.5,2.5 0 0 1 32.5,632.11 " fill="none" style="stroke:#000000;stroke-width:1.5;"/><line style="stroke:#000000;stroke-width:1.5;" x1="30" x2="76" y1="654.4069" y2="654.4069"/><text fill="#000000" font-family="sans-serif" font-size="14" font-weight="bold" lengthAdjust="spacing" textLength="33" x="34" y="647.1051">CDN</text></g><!--cluster Espresso--><g id="cluster_Espresso"><path d="M286.5,49.32 L451.5,49.32 A3.75,3.75 0 0 1 454,51.82 L461,71.6169 L1356.5,71.6169 A2.5,2.5 0 0 1 1359,74.1169 L1359,562.61 A2.5,2.5 0 0 1 1356.5,565.11 L286.5,565.11 A2.5,2.5 0 0 1 284,562.61 L284,51.82 A2.5,2.5 0 0 1 286.5,49.32 " fill="none" style="stroke:#000000;stroke-width:1.5;"/><line style="stroke:#000000;stroke-width:1.5;" x1="284" x2="461" y1="71.6169" y2="71.6169"/><text fill="#000000" font-family="sans-serif" font-size="14" font-weight="bold" lengthAdjust="spacing" textLength="164" x="288" y="64.3151">Espresso Sequencer</text></g><!--cluster Seq--><g id="cluster_Seq"><path d="M462.5,100.32 L595.5,100.32 A3.75,3.75 0 0 1 598,102.82 L605,122.6169 L1165.5,122.6169 A2.5,2.5 0 0 1 1168,125.1169 L1168,460.01 A2.5,2.5 0 0 1 1165.5,462.51 L462.5,462.51 A2.5,2.5 0 0 1 460,460.01 L460,102.82 A2.5,2.5 0 0 1 462.5,100.32 " fill="none" style="stroke:#000000;stroke-width:1.5;"/><line style="stroke:#000000;stroke-width:1.5;" x1="460" x2="605" y1="122.6169" y2="122.6169"/><text fill="#000000" font-family="sans-serif" font-size="14" font-weight="bold" lengthAdjust="spacing" textLength="132" x="464" y="115.3151">Sequencer Node</text></g><!--cluster APIs--><g id="cluster_APIs"><rect fill="none" height="123.8" rx="2.5" ry="2.5" style="stroke:#181818;stroke-width:1.0;" width="483.5" x="627.5" y="280.71"/><rect fill="none" height="10" style="stroke:#181818;stroke-width:1.0;" width="15" x="1091" y="285.71"/><rect fill="none" height="2" style="stroke:#181818;stroke-width:1.0;" width="4" x="1089" y="287.71"/><rect fill="none" height="2" style="stroke:#181818;stroke-width:1.0;" width="4" x="1089" y="291.71"/><text fill="#000000" font-family="sans-serif" font-size="14" font-weight="bold" lengthAdjust="spacing" textLength="34" x="852.25" y="306.7051">APIs</text></g><!--cluster L2--><g id="cluster_L2"><path d="M779.5,589.11 L848.5,589.11 A3.75,3.75 0 0 1 851,591.61 L858,611.4069 L1244.5,611.4069 A2.5,2.5 0 0 1 1247,613.9069 L1247,924.5 A2.5,2.5 0 0 1 1244.5,927 L779.5,927 A2.5,2.5 0 0 1 777,924.5 L777,591.61 A2.5,2.5 0 0 1 779.5,589.11 " fill="none" style="stroke:#000000;stroke-width:1.5;"/><line style="stroke:#000000;stroke-width:1.5;" x1="777" x2="858" y1="611.4069" y2="611.4069"/><text fill="#000000" font-family="sans-serif" font-size="14" font-weight="bold" lengthAdjust="spacing" textLength="68" x="781" y="604.1051">Layer 2s</text></g><!--cluster L2_1--><g id="cluster_L2_1"><rect fill="none" height="270.89" rx="2.5" ry="2.5" style="stroke:#181818;stroke-width:1.0;" width="422" x="801" y="632.11"/><rect fill="none" height="10" style="stroke:#181818;stroke-width:1.0;" width="15" x="1203" y="637.11"/><rect fill="none" height="2" style="stroke:#181818;stroke-width:1.0;" width="4" x="1201" y="639.11"/><rect fill="none" height="2" style="stroke:#181818;stroke-width:1.0;" width="4" x="1201" y="643.11"/><text fill="#000000" font-family="sans-serif" font-size="14" font-weight="bold" lengthAdjust="spacing" textLength="63" x="980.5" y="658.1051">Rollup 1</text></g><!--cluster L1--><g id="cluster_L1"><path d="M508.5,729.4 L568.5,729.4 A3.75,3.75 0 0 1 571,731.9 L578,751.6969 L734.5,751.6969 A2.5,2.5 0 0 1 737,754.1969 L737,1118.09 A2.5,2.5 0 0 1 734.5,1120.59 L508.5,1120.59 A2.5,2.5 0 0 1 506,1118.09 L506,731.9 A2.5,2.5 0 0 1 508.5,729.4 " fill="none" style="stroke:#000000;stroke-width:1.5;"/><line style="stroke:#000000;stroke-width:1.5;" x1="506" x2="578" y1="751.6969" y2="751.6969"/><text fill="#000000" font-family="sans-serif" font-size="14" font-weight="bold" lengthAdjust="spacing" textLength="59" x="510" y="744.3951">Layer 1</text></g><!--cluster L2_L1--><g id="cluster_L2_L1"><path d="M540.5,959 L671.5,959 A3.75,3.75 0 0 1 674,961.5 L681,981.2969 L702.5,981.2969 A2.5,2.5 0 0 1 705,983.7969 L705,1086.09 A2.5,2.5 0 0 1 702.5,1088.59 L540.5,1088.59 A2.5,2.5 0 0 1 538,1086.09 L538,961.5 A2.5,2.5 0 0 1 540.5,959 " fill="none" style="stroke:#000000;stroke-width:1.5;"/><line style="stroke:#000000;stroke-width:1.5;" x1="538" x2="681" y1="981.2969" y2="981.2969"/><text fill="#000000" font-family="sans-serif" font-size="14" font-weight="bold" lengthAdjust="spacing" textLength="130" x="542" y="973.9951">Rollup Contracts</text></g><!--entity Nodes--><g id="elem_Nodes"><rect fill="#F1F1F1" height="46.2969" rx="2.5" ry="2.5" style="stroke:#181818;stroke-width:0.5;" width="165" x="292.5" y="667.11"/><rect fill="#F1F1F1" height="10" style="stroke:#181818;stroke-width:0.5;" width="15" x="437.5" y="672.11"/><rect fill="#F1F1F1" height="2" style="stroke:#181818;stroke-width:0.5;" width="4" x="435.5" y="674.11"/><rect fill="#F1F1F1" height="2" style="stroke:#181818;stroke-width:0.5;" width="4" x="435.5" y="678.11"/><text fill="#000000" font-family="sans-serif" font-size="14" lengthAdjust="spacing" textLength="125" x="307.5" y="700.1051">Sequencer Nodes</text></g><!--entity Broker--><g id="elem_Broker"><rect fill="#F1F1F1" height="46.2969" rx="2.5" ry="2.5" style="stroke:#181818;stroke-width:0.5;" width="86" x="46" y="667.11"/><rect fill="#F1F1F1" height="10" style="stroke:#181818;stroke-width:0.5;" width="15" x="112" y="672.11"/><rect fill="#F1F1F1" height="2" style="stroke:#181818;stroke-width:0.5;" width="4" x="110" y="674.11"/><rect fill="#F1F1F1" height="2" style="stroke:#181818;stroke-width:0.5;" width="4" x="110" y="678.11"/><text fill="#000000" font-family="sans-serif" font-size="14" lengthAdjust="spacing" textLength="46" x="61" y="700.1051">Broker</text></g><!--entity Marshal--><g id="elem_Marshal"><rect fill="#F1F1F1" height="46.2969" rx="2.5" ry="2.5" style="stroke:#181818;stroke-width:0.5;" width="93" x="166.5" y="667.11"/><rect fill="#F1F1F1" height="10" style="stroke:#181818;stroke-width:0.5;" width="15" x="239.5" y="672.11"/><rect fill="#F1F1F1" height="2" style="stroke:#181818;stroke-width:0.5;" width="4" x="237.5" y="674.11"/><rect fill="#F1F1F1" height="2" style="stroke:#181818;stroke-width:0.5;" width="4" x="237.5" y="678.11"/><text fill="#000000" font-family="sans-serif" font-size="14" lengthAdjust="spacing" textLength="53" x="181.5" y="700.1051">Marshal</text></g><!--entity KeyDB--><g id="elem_KeyDB"><path d="M56,851.2 C56,841.2 89,841.2 89,841.2 C89,841.2 122,841.2 122,851.2 L122,876.4969 C122,886.4969 89,886.4969 89,886.4969 C89,886.4969 56,886.4969 56,876.4969 L56,851.2 " fill="#F1F1F1" style="stroke:#181818;stroke-width:0.5;"/><path d="M56,851.2 C56,861.2 89,861.2 89,861.2 C89,861.2 122,861.2 122,851.2 " fill="none" style="stroke:#181818;stroke-width:0.5;"/><text fill="#000000" font-family="sans-serif" font-size="14" lengthAdjust="spacing" textLength="46" x="66" y="878.1951">KeyDB</text></g><!--entity DB--><g id="elem_DB"><path d="M1195,161.97 C1195,151.97 1236,151.97 1236,151.97 C1236,151.97 1277,151.97 1277,161.97 L1277,187.2669 C1277,197.2669 1236,197.2669 1236,197.2669 C1236,197.2669 1195,197.2669 1195,187.2669 L1195,161.97 " fill="#F1F1F1" style="stroke:#181818;stroke-width:0.5;"/><path d="M1195,161.97 C1195,171.97 1236,171.97 1236,171.97 C1236,171.97 1277,171.97 1277,161.97 " fill="none" style="stroke:#181818;stroke-width:0.5;"/><text fill="#000000" font-family="sans-serif" font-size="14" lengthAdjust="spacing" textLength="62" x="1205" y="188.9651">Postgres</text></g><!--entity HSProver--><g id="elem_HSProver"><rect fill="#F1F1F1" height="62.5938" rx="2.5" ry="2.5" style="stroke:#181818;stroke-width:0.5;" width="137" x="466.5" y="486.51"/><rect fill="#F1F1F1" height="10" style="stroke:#181818;stroke-width:0.5;" width="15" x="583.5" y="491.51"/><rect fill="#F1F1F1" height="2" style="stroke:#181818;stroke-width:0.5;" width="4" x="581.5" y="493.51"/><rect fill="#F1F1F1" height="2" style="stroke:#181818;stroke-width:0.5;" width="4" x="581.5" y="497.51"/><text fill="#000000" font-family="sans-serif" font-size="14" lengthAdjust="spacing" textLength="95" x="481.5" y="519.5051">HotShot state</text><text fill="#000000" font-family="sans-serif" font-size="14" lengthAdjust="spacing" textLength="97" x="481.5" y="535.802">prover service</text></g><!--entity Relay--><g id="elem_Relay"><rect fill="#F1F1F1" height="62.5938" rx="2.5" ry="2.5" style="stroke:#181818;stroke-width:0.5;" width="135" x="300.5" y="282.92"/><rect fill="#F1F1F1" height="10" style="stroke:#181818;stroke-width:0.5;" width="15" x="415.5" y="287.92"/><rect fill="#F1F1F1" height="2" style="stroke:#181818;stroke-width:0.5;" width="4" x="413.5" y="289.92"/><rect fill="#F1F1F1" height="2" style="stroke:#181818;stroke-width:0.5;" width="4" x="413.5" y="293.92"/><text fill="#000000" font-family="sans-serif" font-size="14" lengthAdjust="spacing" textLength="95" x="315.5" y="315.9151">HotShot state</text><text fill="#000000" font-family="sans-serif" font-size="14" lengthAdjust="spacing" textLength="85" x="315.5" y="332.212">relay service</text></g><!--entity Builder--><g id="elem_Builder"><rect fill="#F1F1F1" height="46.2969" rx="2.5" ry="2.5" style="stroke:#181818;stroke-width:0.5;" width="88" x="1235" y="381.36"/><rect fill="#F1F1F1" height="10" style="stroke:#181818;stroke-width:0.5;" width="15" x="1303" y="386.36"/><rect fill="#F1F1F1" height="2" style="stroke:#181818;stroke-width:0.5;" width="4" x="1301" y="388.36"/><rect fill="#F1F1F1" height="2" style="stroke:#181818;stroke-width:0.5;" width="4" x="1301" y="392.36"/><text fill="#000000" font-family="sans-serif" font-size="14" lengthAdjust="spacing" textLength="48" x="1250" y="414.3551">Builder</text></g><!--entity Broadcast--><g id="elem_Broadcast"><rect fill="#F1F1F1" height="46.2969" rx="2.5" ry="2.5" style="stroke:#181818;stroke-width:0.5;" width="110" x="484" y="291.07"/><rect fill="#F1F1F1" height="10" style="stroke:#181818;stroke-width:0.5;" width="15" x="574" y="296.07"/><rect fill="#F1F1F1" height="2" style="stroke:#181818;stroke-width:0.5;" width="4" x="572" y="298.07"/><rect fill="#F1F1F1" height="2" style="stroke:#181818;stroke-width:0.5;" width="4" x="572" y="302.07"/><text fill="#000000" font-family="sans-serif" font-size="14" lengthAdjust="spacing" textLength="70" x="499" y="324.0651">Broadcast</text></g><!--entity QS--><g id="elem_QS"><rect fill="#F1F1F1" height="62.5938" rx="2.5" ry="2.5" style="stroke:#181818;stroke-width:0.5;" width="141" x="983.5" y="143.32"/><rect fill="#F1F1F1" height="10" style="stroke:#181818;stroke-width:0.5;" width="15" x="1104.5" y="148.32"/><rect fill="#F1F1F1" height="2" style="stroke:#181818;stroke-width:0.5;" width="4" x="1102.5" y="150.32"/><rect fill="#F1F1F1" height="2" style="stroke:#181818;stroke-width:0.5;" width="4" x="1102.5" y="154.32"/><text fill="#000000" font-family="sans-serif" font-size="14" lengthAdjust="spacing" textLength="101" x="998.5" y="176.3151">HotShot Query</text><text fill="#000000" font-family="sans-serif" font-size="14" lengthAdjust="spacing" textLength="50" x="998.5" y="192.612">Service</text></g><text fill="#000000" font-family="sans-serif" font-size="14" lengthAdjust="spacing" textLength="37" x="788.5" y="423.5051">HTTP</text><rect fill="#F1F1F1" height="12" style="stroke:#181818;stroke-width:1.5;" width="12" x="801" y="398.51"/><text fill="#000000" font-family="sans-serif" font-size="14" lengthAdjust="spacing" textLength="41" x="889.5" y="423.5051">Query</text><rect fill="#F1F1F1" height="12" style="stroke:#181818;stroke-width:1.5;" width="12" x="904" y="398.51"/><text fill="#000000" font-family="sans-serif" font-size="14" lengthAdjust="spacing" textLength="58" x="616.5" y="423.5051">Catchup</text><rect fill="#F1F1F1" height="12" style="stroke:#181818;stroke-width:1.5;" width="12" x="639.5" y="398.51"/><text fill="#000000" font-family="sans-serif" font-size="14" lengthAdjust="spacing" textLength="44" x="747" y="423.5051">Status</text><rect fill="#F1F1F1" height="12" style="stroke:#181818;stroke-width:1.5;" width="12" x="763" y="398.51"/><text fill="#000000" font-family="sans-serif" font-size="14" lengthAdjust="spacing" textLength="48" x="945" y="423.5051">Submit</text><rect fill="#F1F1F1" height="12" style="stroke:#181818;stroke-width:1.5;" width="12" x="963" y="398.51"/><text fill="#000000" font-family="sans-serif" font-size="14" lengthAdjust="spacing" textLength="55" x="1065.5" y="423.5051">Hotshot</text><text fill="#000000" font-family="sans-serif" font-size="14" lengthAdjust="spacing" textLength="47" x="1069.5" y="439.802">Events</text><text fill="#000000" font-family="sans-serif" font-size="14" lengthAdjust="spacing" textLength="49" x="1068.5" y="456.0989">Stream</text><rect fill="#F1F1F1" height="12" style="stroke:#181818;stroke-width:1.5;" width="12" x="1087" y="398.51"/><!--entity Signer--><g id="elem_Signer"><rect fill="#F1F1F1" height="46.2969" rx="2.5" ry="2.5" style="stroke:#181818;stroke-width:0.5;" width="124" x="484" y="151.47"/><rect fill="#F1F1F1" height="10" style="stroke:#181818;stroke-width:0.5;" width="15" x="588" y="156.47"/><rect fill="#F1F1F1" height="2" style="stroke:#181818;stroke-width:0.5;" width="4" x="586" y="158.47"/><rect fill="#F1F1F1" height="2" style="stroke:#181818;stroke-width:0.5;" width="4" x="586" y="162.47"/><text fill="#000000" font-family="sans-serif" font-size="14" lengthAdjust="spacing" textLength="84" x="499" y="184.4651">State Signer</text></g><!--entity L2_1_RPC--><g id="elem_L2_1_RPC"><rect fill="#F1F1F1" height="46.2969" rx="2.5" ry="2.5" style="stroke:#181818;stroke-width:0.5;" width="172" x="924" y="667.11"/><rect fill="#F1F1F1" height="10" style="stroke:#181818;stroke-width:0.5;" width="15" x="1076" y="672.11"/><rect fill="#F1F1F1" height="2" style="stroke:#181818;stroke-width:0.5;" width="4" x="1074" y="674.11"/><rect fill="#F1F1F1" height="2" style="stroke:#181818;stroke-width:0.5;" width="4" x="1074" y="678.11"/><text fill="#000000" font-family="sans-serif" font-size="14" lengthAdjust="spacing" textLength="132" x="939" y="700.1051">API (e.g. JSON-RPC)</text></g><!--entity L2_1_Exec--><g id="elem_L2_1_Exec"><rect fill="#F1F1F1" height="46.2969" rx="2.5" ry="2.5" style="stroke:#181818;stroke-width:0.5;" width="101" x="817.5" y="667.11"/><rect fill="#F1F1F1" height="10" style="stroke:#181818;stroke-width:0.5;" width="15" x="898.5" y="672.11"/><rect fill="#F1F1F1" height="2" style="stroke:#181818;stroke-width:0.5;" width="4" x="896.5" y="674.11"/><rect fill="#F1F1F1" height="2" style="stroke:#181818;stroke-width:0.5;" width="4" x="896.5" y="678.11"/><text fill="#000000" font-family="sans-serif" font-size="14" lengthAdjust="spacing" textLength="61" x="832.5" y="700.1051">Executor</text></g><!--entity L2_1_Prover--><g id="elem_L2_1_Prover"><rect fill="#F1F1F1" height="46.2969" rx="2.5" ry="2.5" style="stroke:#181818;stroke-width:0.5;" width="84" x="1112" y="667.11"/><rect fill="#F1F1F1" height="10" style="stroke:#181818;stroke-width:0.5;" width="15" x="1176" y="672.11"/><rect fill="#F1F1F1" height="2" style="stroke:#181818;stroke-width:0.5;" width="4" x="1174" y="674.11"/><rect fill="#F1F1F1" height="2" style="stroke:#181818;stroke-width:0.5;" width="4" x="1174" y="678.11"/><text fill="#000000" font-family="sans-serif" font-size="14" lengthAdjust="spacing" textLength="44" x="1127" y="700.1051">Prover</text></g><!--entity L2_1_State--><g id="elem_L2_1_State"><rect fill="#F1F1F1" height="46.2969" rx="2.5" ry="2.5" style="stroke:#181818;stroke-width:0.5;" width="101" x="942.5" y="840.7"/><rect fill="#F1F1F1" height="10" style="stroke:#181818;stroke-width:0.5;" width="15" x="1023.5" y="845.7"/><rect fill="#F1F1F1" height="2" style="stroke:#181818;stroke-width:0.5;" width="4" x="1021.5" y="847.7"/><rect fill="#F1F1F1" height="2" style="stroke:#181818;stroke-width:0.5;" width="4" x="1021.5" y="851.7"/><text fill="#000000" font-family="sans-serif" font-size="14" lengthAdjust="spacing" textLength="61" x="957.5" y="873.6951">State DB</text></g><!--entity LC_L1--><g id="elem_LC_L1"><rect fill="#F1F1F1" height="46.2969" rx="2.5" ry="2.5" style="stroke:#181818;stroke-width:0.5;" width="179" x="521.5" y="764.4"/><rect fill="#F1F1F1" height="10" style="stroke:#181818;stroke-width:0.5;" width="15" x="680.5" y="769.4"/><rect fill="#F1F1F1" height="2" style="stroke:#181818;stroke-width:0.5;" width="4" x="678.5" y="771.4"/><rect fill="#F1F1F1" height="2" style="stroke:#181818;stroke-width:0.5;" width="4" x="678.5" y="775.4"/><text fill="#000000" font-family="sans-serif" font-size="14" lengthAdjust="spacing" textLength="139" x="536.5" y="797.3951">Light Client Contract</text></g><!--entity L2_1_L1--><g id="elem_L2_1_L1"><rect fill="#F1F1F1" height="62.5938" rx="2.5" ry="2.5" style="stroke:#181818;stroke-width:0.5;" width="99" x="581.5" y="1002"/><rect fill="#F1F1F1" height="10" style="stroke:#181818;stroke-width:0.5;" width="15" x="660.5" y="1007"/><rect fill="#F1F1F1" height="2" style="stroke:#181818;stroke-width:0.5;" width="4" x="658.5" y="1009"/><rect fill="#F1F1F1" height="2" style="stroke:#181818;stroke-width:0.5;" width="4" x="658.5" y="1013"/><text fill="#000000" font-family="sans-serif" font-size="14" lengthAdjust="spacing" textLength="56" x="596.5" y="1034.9951">Rollup 1</text><text fill="#000000" font-family="sans-serif" font-size="14" lengthAdjust="spacing" textLength="59" x="596.5" y="1051.292">Contract</text></g><!--entity Client--><g id="elem_Client"><ellipse cx="1410" cy="404.51" fill="#F1F1F1" rx="8" ry="8" style="stroke:#181818;stroke-width:0.5;"/><text fill="#000000" font-family="sans-serif" font-size="14" lengthAdjust="spacing" textLength="39" x="1390.5" y="434.5051">Client</text></g><!--reverse link Catchup to Nodes--><g id="link_Catchup_Nodes"><path d="M644.9565,416.1154 C643.5165,429.4654 638,462.13 614,478.51 C595.82,490.93 432.76,472.23 416,486.51 C363.25,531.47 366.73,623.87 371.64,666.63 " fill="none" id="Catchup-backto-Nodes" style="stroke:#181818;stroke-width:1.0;"/><polygon fill="#181818" points="645.6,410.15,640.6579,418.6691,645.0638,415.1212,648.6117,419.5271,645.6,410.15" style="stroke:#181818;stroke-width:1.0;"/></g><!--link Broadcast to Nodes--><g id="link_Broadcast_Nodes"><path d="M494.3814,340.2741 C487.9214,343.2841 486.61,343.49 480,345.51 C426.71,361.83 267.98,333.81 231,375.51 C200.63,409.76 217.48,434.77 231,478.51 C255.01,556.2 314.4664,626.4316 348.5464,662.4516 " fill="none" id="Broadcast-Nodes" style="stroke:#181818;stroke-width:1.0;"/><polygon fill="#181818" points="499.82,337.74,489.9727,337.9154,495.2878,339.8517,493.3515,345.1669,499.82,337.74" style="stroke:#181818;stroke-width:1.0;"/><polygon fill="#181818" points="352.67,666.81,349.3901,657.5233,349.2336,663.178,343.5789,663.0215,352.67,666.81" style="stroke:#181818;stroke-width:1.0;"/><text fill="#000000" font-family="sans-serif" font-size="13" lengthAdjust="spacing" textLength="68" x="232" y="401.5769">consensus</text><text fill="#000000" font-family="sans-serif" font-size="13" lengthAdjust="spacing" textLength="66" x="233" y="416.7097">messages</text></g><!--link QS to DB--><g id="link_QS_DB"><path d="M1060.84,142.86 C1073.29,93.49 1103.56,6 1158.5,26.32 C1209.18,45.07 1226.1606,108.9388 1232.1806,145.7088 " fill="none" id="QS-to-DB" style="stroke:#181818;stroke-width:1.0;"/><polygon fill="#181818" points="1233.15,151.63,1235.6433,142.102,1232.3422,146.6957,1227.7484,143.3945,1233.15,151.63" style="stroke:#181818;stroke-width:1.0;"/></g><!--link QS to APIs--><!--link Signer to Broadcast--><!--link Signer to Relay--><g id="link_Signer_Relay"><path d="M517.01,198.03 C487.25,221.03 445.5069,253.3003 412.3669,278.9203 " fill="none" id="Signer-to-Relay" style="stroke:#181818;stroke-width:1.0;"/><polygon fill="#181818" points="407.62,282.59,417.1868,280.25,411.5757,279.5319,412.2938,273.9208,407.62,282.59" style="stroke:#181818;stroke-width:1.0;"/><text fill="#000000" font-family="sans-serif" font-size="13" lengthAdjust="spacing" textLength="33" x="468" y="248.9869">state</text></g><!--link Seq to Builder--><g id="link_Seq_Builder"><path d="M1168.2075,210.7736 C1168.3667,210.93 1168.5262,211.0838 1168.6861,211.2353 C1169.0059,211.5382 1169.327,211.8314 1169.6496,212.1152 C1170.2946,212.6829 1170.9451,213.2131 1171.6006,213.7088 C1174.2228,215.6915 1176.9263,217.1209 1179.6887,218.1773 C1185.2138,220.2903 1190.975,220.9119 1196.795,221.4862 C1208.435,222.635 1220.31,223.595 1231,235.92 C1267.39,277.88 1275.9084,339.8009 1278.0284,374.9109 " fill="none" id="Seq-to-Builder" style="stroke:#181818;stroke-width:1.0;"/><polygon fill="#181818" points="1278.39,380.9,1281.8403,371.6753,1278.0886,375.9091,1273.8548,372.1574,1278.39,380.9" style="stroke:#181818;stroke-width:1.0;"/><text fill="#000000" font-family="sans-serif" font-size="13" lengthAdjust="spacing" textLength="71" x="1243" y="248.9869">claim block</text></g><!--reverse link Seq to Builder--><g id="link_Seq_Builder"><path d="M1170.3253,222.9557 C1170.4302,223.2118 1168.35,218.1014 1168.455,218.3522 C1168.665,218.8538 1168.8753,219.3449 1169.0859,219.8267 C1170.7713,223.6809 1172.4838,226.9344 1174.335,230.1287 C1178.0375,236.5175 1182.295,242.67 1188,252.92 C1213.77,299.23 1246.41,351.94 1264.77,381.1 " fill="none" id="Seq-backto-Builder" style="stroke:#181818;stroke-width:1.0;"/><polygon fill="#181818" points="1168.0614,217.3991,1167.7529,227.2432,1169.948,222.0296,1175.1616,224.2247,1168.0614,217.3991" style="stroke:#181818;stroke-width:1.0;"/><text fill="#000000" font-family="sans-serif" font-size="13" lengthAdjust="spacing" textLength="33" x="1189" y="248.9869">block</text></g><!--link Relay to HSProver--><g id="link_Relay_HSProver"><path d="M393.36,345.83 C424.84,383.83 474.3826,443.6293 505.8426,481.6093 " fill="none" id="Relay-to-HSProver" style="stroke:#181818;stroke-width:1.0;"/><polygon fill="#181818" points="509.67,486.23,507.0093,476.7474,506.4805,482.3794,500.8484,481.8506,509.67,486.23" style="stroke:#181818;stroke-width:1.0;"/><text fill="#000000" font-family="sans-serif" font-size="13" lengthAdjust="spacing" textLength="33" x="504" y="409.0769">state</text></g><!--link Events to Builder--><g id="link_Events_Builder"><path d="M1098.8,401.58 C1106.52,397.07 1122.31,388.61 1137,385.51 C1172.22,378.08 1182.42,380.01 1218,385.51 C1223.51,386.36 1223.3998,386.0944 1228.9898,387.5744 " fill="none" id="Events-to-Builder" style="stroke:#181818;stroke-width:1.0;"/><polygon fill="#181818" points="1234.79,389.11,1227.1135,382.9398,1229.9565,387.8303,1225.066,390.6733,1234.79,389.11" style="stroke:#181818;stroke-width:1.0;"/><text fill="#000000" font-family="sans-serif" font-size="13" lengthAdjust="spacing" textLength="79" x="1138" y="377.5769">transactions</text></g><!--link Client to L2_1_RPC--><g id="link_Client_L2_1_RPC"><path d="M1406.4,413.47 C1399.33,428.24 1382.28,460.1 1359,478.51 C1261.88,555.31 1200.27,508.47 1100,581.11 C1067.36,604.75 1042.6924,637.8174 1026.9424,661.9174 " fill="none" id="Client-to-L2_1_RPC" style="stroke:#181818;stroke-width:1.0;"/><polygon fill="#181818" points="1023.66,666.94,1031.9319,661.5944,1026.3953,662.7545,1025.2352,657.2179,1023.66,666.94" style="stroke:#181818;stroke-width:1.0;"/><text fill="#000000" font-family="sans-serif" font-size="13" lengthAdjust="spacing" textLength="81" x="1350.5" y="514.8769">Transactions</text><text fill="#000000" font-family="sans-serif" font-size="13" lengthAdjust="spacing" textLength="86" x="1348" y="530.0097">State queries</text></g><!--link L2_1_RPC to Submit--><g id="link_L2_1_RPC_Submit"><path d="M1006.75,666.75 C997.97,605.98 974.9994,446.9881 970.5694,416.3781 " fill="none" id="L2_1_RPC-to-Submit" style="stroke:#181818;stroke-width:1.0;"/><polygon fill="#181818" points="969.71,410.44,967.0403,419.9201,970.4262,415.3884,974.9578,418.7743,969.71,410.44" style="stroke:#181818;stroke-width:1.0;"/><text fill="#000000" font-family="sans-serif" font-size="13" lengthAdjust="spacing" textLength="74" x="994" y="514.8769">Transaction</text><text fill="#000000" font-family="sans-serif" font-size="13" lengthAdjust="spacing" textLength="67" x="997.5" y="530.0097">Rollup 1 ID</text></g><!--link Query to L2_1_Exec--><g id="link_Query_L2_1_Exec"><path d="M909.27,410.44 C904.74,441.05 881.209,600.0447 872.209,660.8147 " fill="none" id="Query-to-L2_1_Exec" style="stroke:#181818;stroke-width:1.0;"/><polygon fill="#181818" points="871.33,666.75,876.6054,658.4331,872.0625,661.8039,868.6917,657.2611,871.33,666.75" style="stroke:#181818;stroke-width:1.0;"/><text fill="#000000" font-family="sans-serif" font-size="13" lengthAdjust="spacing" textLength="34" x="898" y="522.3769">Block</text></g><!--link HSProver to LC_L1--><g id="link_HSProver_LC_L1"><path d="M543.72,549.52 C559.16,603.92 589.3215,710.1881 602.9415,758.1681 " fill="none" id="HSProver-to-LC_L1" style="stroke:#181818;stroke-width:1.0;"/><polygon fill="#181818" points="604.58,763.94,605.9703,754.1898,603.2146,759.13,598.2743,756.3744,604.58,763.94" style="stroke:#181818;stroke-width:1.0;"/><text fill="#000000" font-family="sans-serif" font-size="13" lengthAdjust="spacing" textLength="127" x="589" y="694.8169">HotShot state proof</text></g><!--link L2_1_Prover to L2_1_L1--><g id="link_L2_1_Prover_L2_1_L1"><path d="M1196.48,701.32 C1206.51,705.79 1216.01,712.2 1222,721.4 C1243.64,754.67 1239.5,775.08 1222,810.7 C1182.14,891.83 1142.79,896.49 1061,935 C932.19,995.63 769.5383,1018.9036 686.9483,1027.4336 " fill="none" id="L2_1_Prover-to-L2_1_L1" style="stroke:#181818;stroke-width:1.0;"/><polygon fill="#181818" points="680.98,1028.05,690.3433,1031.1042,685.9535,1027.5363,689.5214,1023.1466,680.98,1028.05" style="stroke:#181818;stroke-width:1.0;"/><text fill="#000000" font-family="sans-serif" font-size="13" lengthAdjust="spacing" textLength="112" x="1237" y="792.1169">Rollup state proof</text></g><!--link LC_L1 to L2_L1--><g id="link_LC_L1_L2_L1"><path d="M603.65,811.16 C594.05,841.11 577.06,895.69 565,943 C563.7863,947.7612 562.5878,952.6787 561.4188,957.6448 C561.3457,957.9552 562.642,952.4241 562.5691,952.7348 " fill="none" id="LC_L1-to-L2_L1" style="stroke:#181818;stroke-width:1.0;"/><polygon fill="#181818" points="561.1999,958.5765,567.1482,950.7268,562.3409,953.7085,559.3593,948.9012,561.1999,958.5765" style="stroke:#181818;stroke-width:1.0;"/></g><!--reverse link L2_1_RPC to L2_1_State--><g id="link_L2_1_RPC_L2_1_State"><path d="M1007.188,719.6607 C1003.928,752.5407 998.48,807.52 995.22,840.41 " fill="none" id="L2_1_RPC-backto-L2_1_State" style="stroke:#181818;stroke-width:1.0;"/><polygon fill="#181818" points="1007.78,713.69,1002.9115,722.2514,1007.2867,718.6656,1010.8725,723.0407,1007.78,713.69" style="stroke:#181818;stroke-width:1.0;"/><text fill="#000000" font-family="sans-serif" font-size="13" lengthAdjust="spacing" textLength="69" x="1007" y="792.1169">Read state</text></g><!--link L2_1_Exec to L2_1_State--><g id="link_L2_1_Exec_L2_1_State"><path d="M873.49,713.45 C880.66,739.01 895.17,781.25 919,810.7 C928.29,822.18 935.7745,828.9019 947.8045,837.0619 " fill="none" id="L2_1_Exec-to-L2_1_State" style="stroke:#181818;stroke-width:1.0;"/><polygon fill="#181818" points="952.77,840.43,947.5672,832.0675,948.6321,837.6232,943.0764,838.6882,952.77,840.43" style="stroke:#181818;stroke-width:1.0;"/><text fill="#000000" font-family="sans-serif" font-size="13" lengthAdjust="spacing" textLength="69" x="920" y="792.1169">Write state</text></g><!--reverse link L2_1_Prover to L2_1_State--><g id="link_L2_1_Prover_L2_1_State"><path d="M1142.9413,719.3797 C1132.0213,745.3097 1113.57,782.37 1085,810.7 C1073.14,822.46 1058.08,832.46 1043.61,840.45 " fill="none" id="L2_1_Prover-backto-L2_1_State" style="stroke:#181818;stroke-width:1.0;"/><polygon fill="#181818" points="1145.27,713.85,1138.0905,720.592,1143.3294,718.458,1145.4633,723.697,1145.27,713.85" style="stroke:#181818;stroke-width:1.0;"/><text fill="#000000" font-family="sans-serif" font-size="13" lengthAdjust="spacing" textLength="71" x="1142" y="792.1169">Read State</text></g><!--SRC=[XLRRRkCs47tNLmpoulZ10knU7eB50cidGBPnjOwLRe6jYu2HQ8kmJ6f9AgbHvDyxlEbYozqy13Bdp73cpE6G5SdsP4VXwavLaYeb8ANVQyepAY6X-at8_HKG5RxXtmZmBnE7Id3ADLnru2Adoe7DbmLMFlpYDl6kVVUv57ig1mo_4waAKZQMd6ZoGXI51tgydTlbz-WzYghB-TjKccMtUnFcQYMKtacVi8_O1EiNPI6uD5Z1rRtGQI4qFDPK7ZSyfVALPSxdCUsul0yvVrfznWnQaCr2I2rg3VTFJwj1WzrfqB8WEYlgQj2MQg9hDMogNmvC3vfCUGhBs_2xLynOOO5QKd9mvDgb_wqG6qpoZ2WzLBr9YKBATjntotsUaVOUNU1ScG0RNadnYcwgG_rzkhABF_2Kj2J7dkFQh9nwpMjMvZv7_st4PtKEaxgQV6oeTsiVt69J_Gr6uufoLIE31nGaoan54Ge4KQY-aVdwgs1vJldV9TrgN7PaH5rBBjuuMeng8i_LgQqbF02ymHPsumgFZ9eDsDM2sPM47U2b5Da-ia2Oe3cG6BoYKHlUk8T3UhBi3tNavD7RHql25SaqGpOYlmgJK33zVkDpQC_raXmHCdFdT3ax7q1hKPPr1LCFU9uE7rFa3Avfl8lXj_HBCbcl5kF6unb_3VZS_KEpMWlPmCp20CwHrA0wmXlK- -sytTYkT3G-6gXi5k2pYv0aG1AKvGbrdfZfENDBjYjmPfJC_5e8Zit9j4CldfVJ_aZqEmLOwCVpyWBVeIqRteziglQnBnPyxZFxaKzoxfC47tjH-3B3QGXjXnjuwcZIZ3VJ8np_ak497G4N-5DQfiGMIiRtk3YDKVlyYCU6MOahEq3xwXxPNBK0IhB2A5UnGrrgmgceLNc4wwsG7eIdJp9z1C5Byuy2mv059Zf60EMvJIAAcfn34MvkzqlOyC0yVBuD-MjHTRAVnPYE0jp_ZSYybxN9LuNBB-xjRc-TFd_cFE3kStjaH-0HTlAPdbqs9HtJ8C4_nPrt28xtlCvmgjhPW0DbudaJ4iS7pT59OHFGkrjAx46cL4apobvf242mA6eFDmrjwdA0n80kA9CWBPLz7i9GRAamXmKBwbqj9ccnlLJUpxtoXB8IoZB6CssqZKqzeAvQ2TcypSSIbHTq3fW4sw9Acxqi9zlGGCPtSFrO2raVO46bHco6cOr3s89op5NW6yXy-ptQtUDpxON2FuPZZ5LxjVMBjjttAd2mrDstgnQGU40o21YaxPVORwSiQL1N-9x3_hlD7Js-kcyF4-cXo6fPvnI8I- -aBjkyZgfnPlZTNuJMuj3P_jUmlRdCtHH4PP4SCiUkoSHtjMt6AQqeBubHcqCMHe2F6CDNqzLZgCdeaXbPkkJ3M24xmZWoe0ipAdmikFxsi1xZgO0tWcEXdIzRIUhS1RZa-MNznxZFZ6aI3f6SQi9ArGwV3uwiplrbL61eS8-4TZBqPaL0_ecJZdQXNbINmwRXxO7t6Jv9dNhy80oF7zaTIHvnPfqroZmn927cSi39AI8e-Smrc3iFCMCnY_QH5LPhYpzTTTZ_0000]--></g></svg>