<?xml version="1.0" encoding="UTF-8" standalone="no"?><svg xmlns="http://www.w3.org/2000/svg" xmlns:xlink="http://www.w3.org/1999/xlink" contentStyleType="text/css" height="902px" preserveAspectRatio="none" style="width:997px;height:902px;background:#FFFFFF;" version="1.1" viewBox="0 0 997 902" width="997px" zoomAndPan="magnify"><defs/><g><!--MD5=[fb3681035abf3c9c7eca592094bbf4a9]
cluster WWW--><g id="cluster_WWW"><path d="M593.5,337 L639.5,337 A3.75,3.75 0 0 1 642,339.5 L649,359.2969 L839.5,359.2969 A2.5,2.5 0 0 1 842,361.7969 L842,498.5 A2.5,2.5 0 0 1 839.5,501 L593.5,501 A2.5,2.5 0 0 1 591,498.5 L591,339.5 A2.5,2.5 0 0 1 593.5,337 " style="stroke:#000000;stroke-width:1.5;fill:none;"/><line style="stroke:#000000;stroke-width:1.5;fill:none;" x1="591" x2="649" y1="359.2969" y2="359.2969"/><text fill="#000000" font-family="sans-serif" font-size="14" font-weight="bold" lengthAdjust="spacing" textLength="45" x="595" y="351.9951">WWW</text></g><!--MD5=[3746f487d7820090e32c72dc756be46d]
cluster HotShotExternal--><g id="cluster_HotShotExternal"><path d="M700.5,380 L764.5,380 A3.75,3.75 0 0 1 767,382.5 L774,402.2969 L815.5,402.2969 A2.5,2.5 0 0 1 818,404.7969 L818,474.5 A2.5,2.5 0 0 1 815.5,477 L700.5,477 A2.5,2.5 0 0 1 698,474.5 L698,382.5 A2.5,2.5 0 0 1 700.5,380 " style="stroke:#000000;stroke-width:1.5;fill:none;"/><line style="stroke:#000000;stroke-width:1.5;fill:none;" x1="698" x2="774" y1="402.2969" y2="402.2969"/><text fill="#000000" font-family="sans-serif" font-size="14" font-weight="bold" lengthAdjust="spacing" textLength="63" x="702" y="394.9951">HotShot</text></g><!--MD5=[074479fc2b8718e85f223949db21494f]
cluster Decentralized Sequencer--><g id="cluster_Decentralized Sequencer"><path d="M142.5,6 L343.5,6 A3.75,3.75 0 0 1 346,8.5 L353,28.2969 L564.5,28.2969 A2.5,2.5 0 0 1 567,30.7969 L567,498.5 A2.5,2.5 0 0 1 564.5,501 L142.5,501 A2.5,2.5 0 0 1 140,498.5 L140,8.5 A2.5,2.5 0 0 1 142.5,6 " style="stroke:#000000;stroke-width:1.5;fill:none;"/><line style="stroke:#000000;stroke-width:1.5;fill:none;" x1="140" x2="353" y1="28.2969" y2="28.2969"/><text fill="#000000" font-family="sans-serif" font-size="14" font-weight="bold" lengthAdjust="spacing" textLength="200" x="144" y="20.9951">Decentralized Sequencer</text></g><!--MD5=[bcfbdd31683a7d01cd062dc0c4be3661]
cluster zkApp--><g id="cluster_zkApp"><path d="M166.5,49 L252.5,49 A3.75,3.75 0 0 1 255,51.5 L262,71.2969 L540.5,71.2969 A2.5,2.5 0 0 1 543,73.7969 L543,474.5 A2.5,2.5 0 0 1 540.5,477 L166.5,477 A2.5,2.5 0 0 1 164,474.5 L164,51.5 A2.5,2.5 0 0 1 166.5,49 " style="stroke:#000000;stroke-width:1.5;fill:none;"/><line style="stroke:#000000;stroke-width:1.5;fill:none;" x1="164" x2="262" y1="71.2969" y2="71.2969"/><text fill="#000000" font-family="sans-serif" font-size="14" font-weight="bold" lengthAdjust="spacing" textLength="85" x="168" y="63.9951">zkEVM app</text></g><!--MD5=[975d7fda8cf98ff1a26ca528bf10cecf]
cluster App--><g id="cluster_App"><path d="M198.5,100 L404.5,100 A3.75,3.75 0 0 1 407,102.5 L414,122.2969 L508.5,122.2969 A2.5,2.5 0 0 1 511,124.7969 L511,277.5 A2.5,2.5 0 0 1 508.5,280 L198.5,280 A2.5,2.5 0 0 1 196,277.5 L196,102.5 A2.5,2.5 0 0 1 198.5,100 " style="stroke:#000000;stroke-width:1.5;fill:none;"/><line style="stroke:#000000;stroke-width:1.5;fill:none;" x1="196" x2="414" y1="122.2969" y2="122.2969"/><text fill="#000000" font-family="sans-serif" font-size="14" font-weight="bold" lengthAdjust="spacing" textLength="205" x="200" y="114.9951">Txn-ordering HotShot app</text></g><!--MD5=[583d55fc1e2a49743832e160d5573292]
cluster HotShot--><g id="cluster_HotShot"><path d="M238.5,151 L302.5,151 A3.75,3.75 0 0 1 305,153.5 L312,173.2969 L476.5,173.2969 A2.5,2.5 0 0 1 479,175.7969 L479,245.5 A2.5,2.5 0 0 1 476.5,248 L238.5,248 A2.5,2.5 0 0 1 236,245.5 L236,153.5 A2.5,2.5 0 0 1 238.5,151 " style="stroke:#000000;stroke-width:1.5;fill:none;"/><line style="stroke:#000000;stroke-width:1.5;fill:none;" x1="236" x2="312" y1="173.2969" y2="173.2969"/><text fill="#000000" font-family="sans-serif" font-size="14" font-weight="bold" lengthAdjust="spacing" textLength="63" x="240" y="165.9951">HotShot</text></g><!--MD5=[30107c386ad61863a1077fa9b8608265]
cluster L2--><g id="cluster_L2"><path d="M8.5,595 L28.5,595 A3.75,3.75 0 0 1 31,597.5 L38,617.2969 L644.5,617.2969 A2.5,2.5 0 0 1 647,619.7969 L647,892.5 A2.5,2.5 0 0 1 644.5,895 L8.5,895 A2.5,2.5 0 0 1 6,892.5 L6,597.5 A2.5,2.5 0 0 1 8.5,595 " style="stroke:#000000;stroke-width:1.5;fill:none;"/><line style="stroke:#000000;stroke-width:1.5;fill:none;" x1="6" x2="38" y1="617.2969" y2="617.2969"/><text fill="#000000" font-family="sans-serif" font-size="14" font-weight="bold" lengthAdjust="spacing" textLength="19" x="10" y="609.9951">L2</text></g><!--MD5=[4499c58aefeb8777a4ef8729a6b9746a]
cluster L1--><g id="cluster_L1"><path d="M673.5,765.5 L693.5,765.5 A3.75,3.75 0 0 1 696,768 L703,787.7969 L987.5,787.7969 A2.5,2.5 0 0 1 990,790.2969 L990,860 A2.5,2.5 0 0 1 987.5,862.5 L673.5,862.5 A2.5,2.5 0 0 1 671,860 L671,768 A2.5,2.5 0 0 1 673.5,765.5 " style="stroke:#000000;stroke-width:1.5;fill:none;"/><line style="stroke:#000000;stroke-width:1.5;fill:none;" x1="671" x2="703" y1="787.7969" y2="787.7969"/><text fill="#000000" font-family="sans-serif" font-size="14" font-weight="bold" lengthAdjust="spacing" textLength="19" x="675" y="780.4951">L1</text></g><!--MD5=[fee662a292a0353a69bd162820bae93b]
entity User--><g id="elem_User"><rect fill="#F1F1F1" height="46.2969" rx="2.5" ry="2.5" style="stroke:#181818;stroke-width:0.5;" width="72" x="607" y="415"/><rect fill="#F1F1F1" height="10" style="stroke:#181818;stroke-width:0.5;" width="15" x="659" y="420"/><rect fill="#F1F1F1" height="2" style="stroke:#181818;stroke-width:0.5;" width="4" x="657" y="422"/><rect fill="#F1F1F1" height="2" style="stroke:#181818;stroke-width:0.5;" width="4" x="657" y="426"/><text fill="#000000" font-family="sans-serif" font-size="14" lengthAdjust="spacing" textLength="32" x="622" y="447.9951">User</text></g><!--MD5=[896ddc638b163aeba3d9eafdbb3e5908]
entity GossipExternal--><g id="elem_GossipExternal"><rect fill="#F1F1F1" height="46.2969" rx="2.5" ry="2.5" style="stroke:#181818;stroke-width:0.5;" width="88" x="714" y="415"/><rect fill="#F1F1F1" height="10" style="stroke:#181818;stroke-width:0.5;" width="15" x="782" y="420"/><rect fill="#F1F1F1" height="2" style="stroke:#181818;stroke-width:0.5;" width="4" x="780" y="422"/><rect fill="#F1F1F1" height="2" style="stroke:#181818;stroke-width:0.5;" width="4" x="780" y="426"/><text fill="#000000" font-family="sans-serif" font-size="14" lengthAdjust="spacing" textLength="48" x="729" y="447.9951">Gossip</text></g><!--MD5=[1fdded0352c3e8b8e8e5fa4c440e3206]
entity Events--><g id="elem_Events"><rect fill="#F1F1F1" height="46.2969" rx="2.5" ry="2.5" style="stroke:#181818;stroke-width:0.5;" width="87" x="384.5" y="415"/><rect fill="#F1F1F1" height="10" style="stroke:#181818;stroke-width:0.5;" width="15" x="451.5" y="420"/><rect fill="#F1F1F1" height="2" style="stroke:#181818;stroke-width:0.5;" width="4" x="449.5" y="422"/><rect fill="#F1F1F1" height="2" style="stroke:#181818;stroke-width:0.5;" width="4" x="449.5" y="426"/><text fill="#000000" font-family="sans-serif" font-size="14" lengthAdjust="spacing" textLength="47" x="399.5" y="447.9951">Events</text></g><!--MD5=[fc241586e3e4cf255457dad9b5d09a8f]
entity Submit--><g id="elem_Submit"><rect fill="#F1F1F1" height="46.2969" rx="2.5" ry="2.5" style="stroke:#181818;stroke-width:0.5;" width="113" x="180.5" y="415"/><rect fill="#F1F1F1" height="10" style="stroke:#181818;stroke-width:0.5;" width="15" x="273.5" y="420"/><rect fill="#F1F1F1" height="2" style="stroke:#181818;stroke-width:0.5;" width="4" x="271.5" y="422"/><rect fill="#F1F1F1" height="2" style="stroke:#181818;stroke-width:0.5;" width="4" x="271.5" y="426"/><text fill="#000000" font-family="sans-serif" font-size="14" lengthAdjust="spacing" textLength="73" x="195.5" y="447.9951">Submit API</text></g><!--MD5=[72906ce1eb61e5bac7b26d06e51547ad]
entity GossipInternal--><g id="elem_GossipInternal"><rect fill="#F1F1F1" height="46.2969" rx="2.5" ry="2.5" style="stroke:#181818;stroke-width:0.5;" width="88" x="375" y="186"/><rect fill="#F1F1F1" height="10" style="stroke:#181818;stroke-width:0.5;" width="15" x="443" y="191"/><rect fill="#F1F1F1" height="2" style="stroke:#181818;stroke-width:0.5;" width="4" x="441" y="193"/><rect fill="#F1F1F1" height="2" style="stroke:#181818;stroke-width:0.5;" width="4" x="441" y="197"/><text fill="#000000" font-family="sans-serif" font-size="14" lengthAdjust="spacing" textLength="48" x="390" y="218.9951">Gossip</text></g><!--MD5=[657580825c081e24058a2374906e8018]
entity HotShotEvents--><g id="elem_HotShotEvents"><rect fill="#F1F1F1" height="46.2969" rx="2.5" ry="2.5" style="stroke:#181818;stroke-width:0.5;" width="87" x="252.5" y="186"/><rect fill="#F1F1F1" height="10" style="stroke:#181818;stroke-width:0.5;" width="15" x="319.5" y="191"/><rect fill="#F1F1F1" height="2" style="stroke:#181818;stroke-width:0.5;" width="4" x="317.5" y="193"/><rect fill="#F1F1F1" height="2" style="stroke:#181818;stroke-width:0.5;" width="4" x="317.5" y="197"/><text fill="#000000" font-family="sans-serif" font-size="14" lengthAdjust="spacing" textLength="47" x="267.5" y="218.9951">Events</text></g><!--MD5=[ee57f16ef1ba8b49a548a5b41deaf6ed]
entity JsonRPC--><g id="elem_JsonRPC"><rect fill="#F1F1F1" height="46.2969" rx="2.5" ry="2.5" style="stroke:#181818;stroke-width:0.5;" width="98" x="22" y="630"/><rect fill="#F1F1F1" height="10" style="stroke:#181818;stroke-width:0.5;" width="15" x="100" y="635"/><rect fill="#F1F1F1" height="2" style="stroke:#181818;stroke-width:0.5;" width="4" x="98" y="637"/><rect fill="#F1F1F1" height="2" style="stroke:#181818;stroke-width:0.5;" width="4" x="98" y="641"/><text fill="#000000" font-family="sans-serif" font-size="14" lengthAdjust="spacing" textLength="58" x="37" y="662.9951">JsonRPC</text></g><!--MD5=[58f3bb20197d49c7ea139ae014477a42]
entity L2DB--><g id="elem_L2DB"><rect fill="#D3D3D3" height="111.4844" rx="2.5" ry="2.5" style="stroke:#181818;stroke-width:0.5;" width="160" x="22" y="768"/><rect fill="#D3D3D3" height="10" style="stroke:#181818;stroke-width:0.5;" width="15" x="162" y="773"/><rect fill="#D3D3D3" height="2" style="stroke:#181818;stroke-width:0.5;" width="4" x="160" y="775"/><rect fill="#D3D3D3" height="2" style="stroke:#181818;stroke-width:0.5;" width="4" x="160" y="779"/><text fill="#000000" font-family="sans-serif" font-size="14" lengthAdjust="spacing" textLength="120" x="37" y="800.9951">L2 Blockchain DB</text><text fill="#000000" font-family="sans-serif" font-size="14" lengthAdjust="spacing" textLength="4" x="37" y="817.292"> </text><text fill="#000000" font-family="sans-serif" font-size="14" lengthAdjust="spacing" textLength="45" x="37" y="833.5889">blocks</text><text fill="#000000" font-family="sans-serif" font-size="14" lengthAdjust="spacing" textLength="56" x="37" y="849.8857">receipts</text><text fill="#000000" font-family="sans-serif" font-size="14" lengthAdjust="spacing" textLength="29" x="37" y="866.1826">logs</text></g><!--MD5=[c3bd79b6cca3d8fa787b3b807ac7237d]
entity Prover--><g id="elem_Prover"><rect fill="#F1F1F1" height="46.2969" rx="2.5" ry="2.5" style="stroke:#181818;stroke-width:0.5;" width="84" x="406" y="630"/><rect fill="#F1F1F1" height="10" style="stroke:#181818;stroke-width:0.5;" width="15" x="470" y="635"/><rect fill="#F1F1F1" height="2" style="stroke:#181818;stroke-width:0.5;" width="4" x="468" y="637"/><rect fill="#F1F1F1" height="2" style="stroke:#181818;stroke-width:0.5;" width="4" x="468" y="641"/><text fill="#000000" font-family="sans-serif" font-size="14" lengthAdjust="spacing" textLength="44" x="421" y="662.9951">Prover</text></g><!--MD5=[77b6810f9f1d8e17e1346401c10c77dc]
entity Executor--><g id="elem_Executor"><rect fill="#D3D3D3" height="46.2969" rx="2.5" ry="2.5" style="stroke:#181818;stroke-width:0.5;" width="101" x="269.5" y="630"/><rect fill="#D3D3D3" height="10" style="stroke:#181818;stroke-width:0.5;" width="15" x="350.5" y="635"/><rect fill="#D3D3D3" height="2" style="stroke:#181818;stroke-width:0.5;" width="4" x="348.5" y="637"/><rect fill="#D3D3D3" height="2" style="stroke:#181818;stroke-width:0.5;" width="4" x="348.5" y="641"/><text fill="#000000" font-family="sans-serif" font-size="14" lengthAdjust="spacing" textLength="61" x="284.5" y="662.9951">Executor</text></g><!--MD5=[47b51ac2f4ace7439b689a6295ba6363]
entity Tree--><g id="elem_Tree"><rect fill="#F1F1F1" height="62.5938" rx="2.5" ry="2.5" style="stroke:#181818;stroke-width:0.5;" width="122" x="234" y="792"/><rect fill="#F1F1F1" height="10" style="stroke:#181818;stroke-width:0.5;" width="15" x="336" y="797"/><rect fill="#F1F1F1" height="2" style="stroke:#181818;stroke-width:0.5;" width="4" x="334" y="799"/><rect fill="#F1F1F1" height="2" style="stroke:#181818;stroke-width:0.5;" width="4" x="334" y="803"/><text fill="#000000" font-family="sans-serif" font-size="14" lengthAdjust="spacing" textLength="81" x="249" y="824.9951">L2 State DB</text><text fill="#000000" font-family="sans-serif" font-size="14" lengthAdjust="spacing" textLength="82" x="249" y="841.292">Merkle Tree</text></g><!--MD5=[daa17a87a602f85fbd6c6a31524a683b]
entity BridgeL2--><g id="elem_BridgeL2"><rect fill="#D3D3D3" height="46.2969" rx="2.5" ry="2.5" style="stroke:#181818;stroke-width:0.5;" width="105" x="525.5" y="630"/><rect fill="#D3D3D3" height="10" style="stroke:#181818;stroke-width:0.5;" width="15" x="610.5" y="635"/><rect fill="#D3D3D3" height="2" style="stroke:#181818;stroke-width:0.5;" width="4" x="608.5" y="637"/><rect fill="#D3D3D3" height="2" style="stroke:#181818;stroke-width:0.5;" width="4" x="608.5" y="641"/><text fill="#000000" font-family="sans-serif" font-size="14" lengthAdjust="spacing" textLength="65" x="540.5" y="662.9951">Bridge L2</text></g><!--MD5=[02772cf4a850889cc654a495925d36fb]
entity Rollup--><g id="elem_Rollup"><rect fill="#F1F1F1" height="46.2969" rx="2.5" ry="2.5" style="stroke:#181818;stroke-width:0.5;" width="146" x="687" y="800.5"/><rect fill="#F1F1F1" height="10" style="stroke:#181818;stroke-width:0.5;" width="15" x="813" y="805.5"/><rect fill="#F1F1F1" height="2" style="stroke:#181818;stroke-width:0.5;" width="4" x="811" y="807.5"/><rect fill="#F1F1F1" height="2" style="stroke:#181818;stroke-width:0.5;" width="4" x="811" y="811.5"/><text fill="#000000" font-family="sans-serif" font-size="14" lengthAdjust="spacing" textLength="106" x="702" y="833.4951">Rollup Contract</text></g><!--MD5=[8408e9abc57f2e0dae33bcd01efd5900]
entity BridgeL1--><g id="elem_BridgeL1"><rect fill="#D3D3D3" height="46.2969" rx="2.5" ry="2.5" style="stroke:#181818;stroke-width:0.5;" width="105" x="868.5" y="800.5"/><rect fill="#D3D3D3" height="10" style="stroke:#181818;stroke-width:0.5;" width="15" x="953.5" y="805.5"/><rect fill="#D3D3D3" height="2" style="stroke:#181818;stroke-width:0.5;" width="4" x="951.5" y="807.5"/><rect fill="#D3D3D3" height="2" style="stroke:#181818;stroke-width:0.5;" width="4" x="951.5" y="811.5"/><text fill="#000000" font-family="sans-serif" font-size="14" lengthAdjust="spacing" textLength="65" x="883.5" y="833.4951">Bridge L1</text></g><!--MD5=[91cafd777a61df7305284aff3f8c2f32]
link GossipInternal to GossipExternal--><g id="link_GossipInternal_GossipExternal"><path d="M468.35,218.42 C531.77,231.62 641.8,262.82 710,329 C732.68,351.01 745.45,385.64 752.02,409.73 " fill="none" id="GossipInternal-GossipExternal" style="stroke:#181818;stroke-width:1.0;"/><polygon fill="#181818" points="753.33,414.7,754.9135,404.9793,752.0603,409.8639,747.1757,407.0107,753.33,414.7" style="stroke:#181818;stroke-width:1.0;"/><polygon fill="#181818" points="463.11,217.35,471.1284,223.0689,468.009,218.3498,472.7281,215.2304,463.11,217.35" style="stroke:#181818;stroke-width:1.0;"/></g><!--MD5=[ca6b63cfdd9d3d2398c58b83ed262b4e]
link Prover to BridgeL2--><g id="link_Prover_BridgeL2"><path d="M490.15,653 C500.18,653 510.21,653 520.25,653 " fill="none" id="Prover-to-BridgeL2" style="stroke:#181818;stroke-width:1.0;"/><polygon fill="#181818" points="525.49,653,516.49,649,520.49,653,516.49,657,525.49,653" style="stroke:#181818;stroke-width:1.0;"/></g><!--MD5=[41bf5c2ff0458362cd2ec6a26f1e4ae9]
link User to JsonRPC--><g id="link_User_JsonRPC"><path d="M617.15,461.03 C600.58,475.88 579.22,496.44 563,517 C543.12,542.19 553.67,562.75 526,579 C499.74,594.42 281.93,581.34 252,587 C207.57,595.41 159.5,613.11 124.07,627.92 " fill="none" id="User-to-JsonRPC" style="stroke:#181818;stroke-width:1.0;"/><polygon fill="#181818" points="119.38,629.89,129.2264,630.11,123.9933,627.9619,126.1414,622.7287,119.38,629.89" style="stroke:#181818;stroke-width:1.0;"/><text fill="#000000" font-family="sans-serif" font-size="13" lengthAdjust="spacing" textLength="107" x="564" y="552.5669">EVM txn, queries</text></g><!--MD5=[fb267e17b24e3cdcec4d04de63f929e9]
link JsonRPC to Submit--><g id="link_JsonRPC_Submit"><path d="M88.22,629.91 C119.01,590.39 183.4,507.78 216.45,465.37 " fill="none" id="JsonRPC-to-Submit" style="stroke:#181818;stroke-width:1.0;"/><polygon fill="#181818" points="219.55,461.39,210.8718,466.0471,216.4842,465.3398,217.1915,470.9523,219.55,461.39" style="stroke:#181818;stroke-width:1.0;"/><text fill="#000000" font-family="sans-serif" font-size="13" lengthAdjust="spacing" textLength="52" x="174" y="552.5669">EVM txn</text></g><!--MD5=[0f85c64cbe394fdbbcb7903f2cd04337]
link JsonRPC to L2DB--><g id="link_JsonRPC_L2DB"><path d="M75.05,676.03 C79.09,697.95 85.46,732.58 90.99,762.66 " fill="none" id="JsonRPC-to-L2DB" style="stroke:#181818;stroke-width:1.0;"/><polygon fill="#181818" points="91.94,767.84,94.2263,758.2602,91.0255,762.9243,86.3613,759.7235,91.94,767.84" style="stroke:#181818;stroke-width:1.0;"/><text fill="#000000" font-family="sans-serif" font-size="13" lengthAdjust="spacing" textLength="29" x="87" y="726.5669">read</text></g><!--MD5=[54efc4a2d23f41f3f0dc12b7324a18cb]
link JsonRPC to Tree--><g id="link_JsonRPC_Tree"><path d="M100.28,676.03 C138.43,704.72 205.48,755.16 250.08,788.71 " fill="none" id="JsonRPC-to-Tree" style="stroke:#181818;stroke-width:1.0;"/><polygon fill="#181818" points="254.32,791.9,249.5545,783.2809,250.332,788.884,244.7289,789.6616,254.32,791.9" style="stroke:#181818;stroke-width:1.0;"/><text fill="#000000" font-family="sans-serif" font-size="13" lengthAdjust="spacing" textLength="29" x="177" y="726.5669">read</text></g><!--MD5=[9eb4f09f33922fd95390af3a7601fb36]
link JsonRPC to Executor--><g id="link_JsonRPC_Executor"><path d="M120.19,653 C161.6,653 220.8,653 264.01,653 " fill="none" id="JsonRPC-to-Executor" style="stroke:#181818;stroke-width:1.0;"/><polygon fill="#181818" points="269.2,653,260.2,649,264.2,653,260.2,657,269.2,653" style="stroke:#181818;stroke-width:1.0;"/><text fill="#000000" font-family="sans-serif" font-size="13" lengthAdjust="spacing" textLength="113" x="138.25" y="646.0669">call, estimate gas</text></g><!--MD5=[5fee4087329efc2ae6490d423f82bd1c]
link User to BridgeL1--><g id="link_User_BridgeL1"><path d="M659.15,461.28 C707.32,527.73 849.9,724.41 901.81,796.03 " fill="none" id="User-to-BridgeL1" style="stroke:#181818;stroke-width:1.0;"/><polygon fill="#181818" points="904.81,800.16,902.7696,790.5248,901.8768,796.1108,896.2909,795.2179,904.81,800.16" style="stroke:#181818;stroke-width:1.0;"/></g><!--MD5=[eb6b988b0512d6b84233d2583692179c]
reverse link App to Submit--><g id="link_App_Submit"><path d="M214.2385,280.4196 C214.286,280.7465 214.3336,281.074 214.3813,281.4019 C214.572,282.7139 214.764,284.0346 214.9572,285.3632 C215.3434,288.0203 215.7343,290.7091 216.1288,293.4225 C222.44,336.8375 229.67,386.58 233.75,414.65 " fill="none" id="App-backto-Submit" style="stroke:#181818;stroke-width:1.0;"/><polygon fill="#181818" points="214.2385,280.4196,211.5749,289.9015,214.9578,285.3676,219.4916,288.7506,214.2385,280.4196" style="stroke:#181818;stroke-width:1.0;"/><text fill="#000000" font-family="sans-serif" font-size="13" lengthAdjust="spacing" textLength="126" x="220" y="317.0669">wrap in HotShot txn</text></g><!--MD5=[25a03e75ea8af1b5fbad106de56d561d]
link HotShotEvents to Events--><g id="link_HotShotEvents_Events"><path d="M310.44,232.19 C322.62,251.09 340.36,279.08 355,304 C376.32,340.28 399.46,383.07 413.84,410.12 " fill="none" id="HotShotEvents-to-Events" style="stroke:#181818;stroke-width:1.0;"/><polygon fill="#181818" points="416.25,414.66,415.5639,404.8351,413.906,410.2435,408.4975,408.5855,416.25,414.66" style="stroke:#181818;stroke-width:1.0;"/></g><!--MD5=[4d6bd62da00033941d5a40d1ae2f47cd]
link Executor to Tree--><g id="link_Executor_Tree"><path d="M305.01,676.04 C299.82,684.94 294.63,695.56 292,706 C285.33,732.45 286.52,763.34 289.14,786.67 " fill="none" id="Executor-to-Tree" style="stroke:#181818;stroke-width:1.0;"/><polygon fill="#181818" points="289.75,791.83,292.6695,782.4238,289.165,786.8643,284.7244,783.3598,289.75,791.83" style="stroke:#181818;stroke-width:1.0;"/><text fill="#000000" font-family="sans-serif" font-size="13" lengthAdjust="spacing" textLength="111" x="293" y="726.5669">execute (dry-run)</text></g><!--MD5=[a2a14a62da07da7dcefcccd0a9c3b3c2]
link Prover to Tree--><g id="link_Prover_Tree"><path d="M441.19,676.02 C434.86,694.02 424.13,719.43 409,738 C393.02,757.61 371.51,775.09 351.49,788.98 " fill="none" id="Prover-to-Tree" style="stroke:#181818;stroke-width:1.0;"/><polygon fill="#181818" points="347.24,791.89,356.9254,790.1031,351.3648,789.064,352.4038,783.5034,347.24,791.89" style="stroke:#181818;stroke-width:1.0;"/><text fill="#000000" font-family="sans-serif" font-size="13" lengthAdjust="spacing" textLength="65" x="428" y="726.5669">apply txns</text></g><!--MD5=[d6283fea07f96c348eabdeb8d4eaaf24]
link Events to Prover--><g id="link_Events_Prover"><path d="M426.46,461.42 C424.95,489.17 423.58,537.79 429,579 C431.04,594.5 435.31,611.41 439.28,625.05 " fill="none" id="Events-to-Prover" style="stroke:#181818;stroke-width:1.0;"/><polygon fill="#181818" points="440.73,629.92,442.0153,620.1554,439.313,625.125,434.3433,622.4226,440.73,629.92" style="stroke:#181818;stroke-width:1.0;"/><text fill="#000000" font-family="sans-serif" font-size="13" lengthAdjust="spacing" textLength="46" x="452.5" y="530.0669">stream</text><text fill="#000000" font-family="sans-serif" font-size="13" lengthAdjust="spacing" textLength="91" x="430" y="545.1997">order commit,</text><text fill="#000000" font-family="sans-serif" font-size="13" lengthAdjust="spacing" textLength="23" x="464" y="560.3325">QC,</text><text fill="#000000" font-family="sans-serif" font-size="13" lengthAdjust="spacing" textLength="36" x="457.5" y="575.4653">batch</text></g><!--MD5=[85c518f0b23bdf2fa0e69caf31359efd]
link Prover to Rollup--><g id="link_Prover_Rollup"><path d="M477.02,676.13 C502.67,694.81 541.71,721.13 579,738 C607.65,750.96 618.05,745.24 647,757.5 C673.07,768.54 700.65,784.31 722.03,797.56 " fill="none" id="Prover-to-Rollup" style="stroke:#181818;stroke-width:1.0;"/><polygon fill="#181818" points="726.5,800.34,720.9757,792.1864,722.256,797.6964,716.7459,798.9768,726.5,800.34" style="stroke:#181818;stroke-width:1.0;"/><text fill="#000000" font-family="sans-serif" font-size="13" lengthAdjust="spacing" textLength="91" x="580" y="719.0669">order commit,</text><text fill="#000000" font-family="sans-serif" font-size="13" lengthAdjust="spacing" textLength="60" x="595.5" y="734.1997">QC, proof</text></g><!--MD5=[9eb0dbc5d7cf3d62c18b0b499d77c7ef]
@startuml
package "WWW" {
  component User
  package "HotShot" as HotShotExternal {
    component "Gossip" as GossipExternal
  }
}

package "Decentralized Sequencer" {
  package "zkEVM app" as zkApp {
    component Events
    component "Submit API" as Submit
    package "Txn-ordering HotShot app" as App {
      package HotShot {
        component "Gossip" as GossipInternal
        component "Events" as HotShotEvents
      }
    }
  }
}

package L2 {
  component JsonRPC
  component L2DB #lightgrey [
    L2 Blockchain DB

    blocks
    receipts
    logs
  ]
  component Prover
  component Executor #lightgrey
  component Tree [
    L2 State DB
    Merkle Tree
  ]
  component "Bridge L2" as BridgeL2 #lightgrey
}

package L1 {
  component Rollup [
    Rollup Contract
  ]
  component "Bridge L1" as BridgeL1 #lightgrey
}

GossipInternal <-down-> GossipExternal
Prover -> BridgeL2

User - -> JsonRPC: EVM txn, queries
JsonRPC -> Submit: EVM txn
JsonRPC - -> L2DB: read
JsonRPC - -> Tree: read
JsonRPC -> Executor: call, estimate gas

User -> BridgeL1
Submit -up-> App: wrap in HotShot txn
HotShotEvents -down-> Events

Executor - -> Tree: execute (dry-run)
Prover - -> Tree: apply txns
Events - -> Prover: stream\norder commit,\nQC,\nbatch
Prover - -> Rollup: order commit,\nQC, proof
@enduml

PlantUML version 1.2022.6(Tue Jun 21 19:34:49 CEST 2022)
(GPL source distribution)
Java Runtime: OpenJDK Runtime Environment
JVM: OpenJDK 64-Bit Server VM
Default Encoding: UTF-8
Language: en
Country: US
--></g></svg>