<?xml version="1.0" encoding="us-ascii" standalone="no"?><svg xmlns="http://www.w3.org/2000/svg" xmlns:xlink="http://www.w3.org/1999/xlink" contentStyleType="text/css" height="1813px" preserveAspectRatio="none" style="width:1648px;height:1813px;background:#FFFFFF;" version="1.1" viewBox="0 0 1648 1813" width="1648px" zoomAndPan="magnify"><defs/><g><!--cluster Network--><g id="cluster_Network"><path d="M8.5,410.6 L245.5,410.6 A3.75,3.75 0 0 1 248,413.1 L255,432.8969 L1403.5,432.8969 A2.5,2.5 0 0 1 1406,435.3969 L1406,1525.07 A2.5,2.5 0 0 1 1403.5,1527.57 L8.5,1527.57 A2.5,2.5 0 0 1 6,1525.07 L6,413.1 A2.5,2.5 0 0 1 8.5,410.6 " fill="#FFE4E1" style="stroke:#000000;stroke-width:1.5;"/><line style="stroke:#000000;stroke-width:1.5;" x1="6" x2="255" y1="432.8969" y2="432.8969"/><text fill="#000000" font-family="sans-serif" font-size="14" font-weight="bold" lengthAdjust="spacing" textLength="236" x="10" y="425.5951">Espresso Sequencer Network</text></g><!--cluster CDNLayout--><g id="cluster_CDNLayout"><path d="M32.5,472.75 L119.5,472.75 A3.75,3.75 0 0 1 122,475.25 L129,495.0469 L542.5,495.0469 A2.5,2.5 0 0 1 545,497.5469 L545,989.58 A2.5,2.5 0 0 1 542.5,992.08 L32.5,992.08 A2.5,2.5 0 0 1 30,989.58 L30,475.25 A2.5,2.5 0 0 1 32.5,472.75 " fill="none" style="stroke:none;stroke-width:1.5;"/><line style="stroke:none;stroke-width:1.5;" x1="30" x2="129" y1="495.0469" y2="495.0469"/></g><!--cluster CDN--><g id="cluster_CDN"><path d="M64.5,827.78 L98.5,827.78 A3.75,3.75 0 0 1 101,830.28 L108,850.0769 L510.5,850.0769 A2.5,2.5 0 0 1 513,852.5769 L513,957.58 A2.5,2.5 0 0 1 510.5,960.08 L64.5,960.08 A2.5,2.5 0 0 1 62,957.58 L62,830.28 A2.5,2.5 0 0 1 64.5,827.78 " fill="none" style="stroke:#000000;stroke-width:1.5;"/><line style="stroke:#000000;stroke-width:1.5;" x1="62" x2="108" y1="850.0769" y2="850.0769"/><text fill="#000000" font-family="sans-serif" font-size="14" font-weight="bold" lengthAdjust="spacing" textLength="33" x="66" y="842.7751">CDN</text></g><!--cluster Seq--><g id="cluster_Seq"><rect fill="#FFE4C4" height="727.78" rx="2.5" ry="2.5" style="stroke:#181818;stroke-width:1.0;" width="717" x="569" y="453.6"/><rect fill="#FFE4C4" height="10" style="stroke:#181818;stroke-width:1.0;" width="15" x="1266" y="458.6"/><rect fill="#FFE4C4" height="2" style="stroke:#181818;stroke-width:1.0;" width="4" x="1264" y="460.6"/><rect fill="#FFE4C4" height="2" style="stroke:#181818;stroke-width:1.0;" width="4" x="1264" y="464.6"/><text fill="#000000" font-family="sans-serif" font-size="14" font-weight="bold" lengthAdjust="spacing" textLength="132" x="861.5" y="479.5951">Sequencer Node</text></g><!--cluster APIs--><g id="cluster_APIs"><path d="M647.5,496.6 L682.5,496.6 A3.75,3.75 0 0 1 685,499.1 L692,518.8969 L1259.5,518.8969 A2.5,2.5 0 0 1 1262,521.3969 L1262,659.28 A2.5,2.5 0 0 1 1259.5,661.78 L647.5,661.78 A2.5,2.5 0 0 1 645,659.28 L645,499.1 A2.5,2.5 0 0 1 647.5,496.6 " fill="#E0FFFF" style="stroke:#000000;stroke-width:1.5;"/><line style="stroke:#000000;stroke-width:1.5;" x1="645" x2="692" y1="518.8969" y2="518.8969"/><text fill="#000000" font-family="sans-serif" font-size="14" font-weight="bold" lengthAdjust="spacing" textLength="34" x="649" y="511.5951">APIs</text></g><!--cluster HotShot--><g id="cluster_HotShot"><path d="M603.5,768.78 L667.5,768.78 A3.75,3.75 0 0 1 670,771.28 L677,791.0769 L1158.5,791.0769 A2.5,2.5 0 0 1 1161,793.5769 L1161,997.58 A2.5,2.5 0 0 1 1158.5,1000.08 L603.5,1000.08 A2.5,2.5 0 0 1 601,997.58 L601,771.28 A2.5,2.5 0 0 1 603.5,768.78 " fill="none" style="stroke:#000000;stroke-width:1.5;"/><line style="stroke:#000000;stroke-width:1.5;" x1="601" x2="677" y1="791.0769" y2="791.0769"/><text fill="#000000" font-family="sans-serif" font-size="14" font-weight="bold" lengthAdjust="spacing" textLength="63" x="605" y="783.7751">HotShot</text></g><!--cluster Networking--><g id="cluster_Networking"><rect fill="none" height="132.3" rx="2.5" ry="2.5" style="stroke:#181818;stroke-width:1.0;" width="302" x="641" y="827.78"/><rect fill="none" height="10" style="stroke:#181818;stroke-width:1.0;" width="15" x="923" y="832.78"/><rect fill="none" height="2" style="stroke:#181818;stroke-width:1.0;" width="4" x="921" y="834.78"/><rect fill="none" height="2" style="stroke:#181818;stroke-width:1.0;" width="4" x="921" y="838.78"/><text fill="#000000" font-family="sans-serif" font-size="14" font-weight="bold" lengthAdjust="spacing" textLength="91" x="746.5" y="853.7751">Networking</text></g><!--cluster State--><g id="cluster_State"><path d="M933.5,1041.08 L975.5,1041.08 A3.75,3.75 0 0 1 978,1043.58 L985,1063.3769 L1259.5,1063.3769 A2.5,2.5 0 0 1 1262,1065.8769 L1262,1154.88 A2.5,2.5 0 0 1 1259.5,1157.38 L933.5,1157.38 A2.5,2.5 0 0 1 931,1154.88 L931,1043.58 A2.5,2.5 0 0 1 933.5,1041.08 " fill="none" style="stroke:#000000;stroke-width:1.5;"/><line style="stroke:#000000;stroke-width:1.5;" x1="931" x2="985" y1="1063.3769" y2="1063.3769"/><text fill="#000000" font-family="sans-serif" font-size="14" font-weight="bold" lengthAdjust="spacing" textLength="41" x="935" y="1056.0751">State</text></g><!--cluster L2s--><g id="cluster_L2s"><path d="M993.5,6 L1134.5,6 A3.75,3.75 0 0 1 1137,8.5 L1144,28.2969 L1496.5,28.2969 A2.5,2.5 0 0 1 1499,30.7969 L1499,309.1 A2.5,2.5 0 0 1 1496.5,311.6 L993.5,311.6 A2.5,2.5 0 0 1 991,309.1 L991,8.5 A2.5,2.5 0 0 1 993.5,6 " fill="#FFFFE0" style="stroke:#000000;stroke-width:1.5;"/><line style="stroke:#000000;stroke-width:1.5;" x1="991" x2="1144" y1="28.2969" y2="28.2969"/><text fill="#000000" font-family="sans-serif" font-size="14" font-weight="bold" lengthAdjust="spacing" textLength="140" x="995" y="20.9951">Layer 2s / Rollups</text></g><!--cluster L2--><g id="cluster_L2"><rect fill="none" height="238.6" rx="2.5" ry="2.5" style="stroke:#181818;stroke-width:1.0;" width="460" x="1015" y="49"/><rect fill="none" height="10" style="stroke:#181818;stroke-width:1.0;" width="15" x="1455" y="54"/><rect fill="none" height="2" style="stroke:#181818;stroke-width:1.0;" width="4" x="1453" y="56"/><rect fill="none" height="2" style="stroke:#181818;stroke-width:1.0;" width="4" x="1453" y="60"/><text fill="#000000" font-family="sans-serif" font-size="14" font-weight="bold" lengthAdjust="spacing" textLength="64" x="1213" y="74.9951">Rollup N</text></g><!--cluster L1--><g id="cluster_L1"><path d="M1020.5,1606.57 L1161.5,1606.57 A3.75,3.75 0 0 1 1164,1609.07 L1171,1628.8669 L1515.5,1628.8669 A2.5,2.5 0 0 1 1518,1631.3669 L1518,1803.66 A2.5,2.5 0 0 1 1515.5,1806.16 L1020.5,1806.16 A2.5,2.5 0 0 1 1018,1803.66 L1018,1609.07 A2.5,2.5 0 0 1 1020.5,1606.57 " fill="#D3D3D3" style="stroke:#000000;stroke-width:1.5;"/><line style="stroke:#000000;stroke-width:1.5;" x1="1018" x2="1171" y1="1628.8669" y2="1628.8669"/><text fill="#000000" font-family="sans-serif" font-size="14" font-weight="bold" lengthAdjust="spacing" textLength="140" x="1022" y="1621.5651">Ethereum Layer 1</text></g><!--cluster Esp_L1--><g id="cluster_Esp_L1"><path d="M1044.5,1649.57 L1200.5,1649.57 A3.75,3.75 0 0 1 1203,1652.07 L1210,1671.8669 L1321.5,1671.8669 A2.5,2.5 0 0 1 1324,1674.3669 L1324,1779.66 A2.5,2.5 0 0 1 1321.5,1782.16 L1044.5,1782.16 A2.5,2.5 0 0 1 1042,1779.66 L1042,1652.07 A2.5,2.5 0 0 1 1044.5,1649.57 " fill="none" style="stroke:#000000;stroke-width:1.5;"/><line style="stroke:#000000;stroke-width:1.5;" x1="1042" x2="1210" y1="1671.8669" y2="1671.8669"/><text fill="#000000" font-family="sans-serif" font-size="14" font-weight="bold" lengthAdjust="spacing" textLength="155" x="1046" y="1664.5651">Espresso Contracts</text></g><!--cluster Rollup Contracts--><g id="cluster_Rollup Contracts"><path d="M1350.5,1649.57 L1481.5,1649.57 A3.75,3.75 0 0 1 1484,1652.07 L1491,1671.8669 L1491.5,1671.8669 A2.5,2.5 0 0 1 1494,1674.3669 L1494,1779.66 A2.5,2.5 0 0 1 1491.5,1782.16 L1350.5,1782.16 A2.5,2.5 0 0 1 1348,1779.66 L1348,1652.07 A2.5,2.5 0 0 1 1350.5,1649.57 " fill="none" style="stroke:#000000;stroke-width:1.5;"/><line style="stroke:#000000;stroke-width:1.5;" x1="1348" x2="1491" y1="1671.8669" y2="1671.8669"/><text fill="#000000" font-family="sans-serif" font-size="14" font-weight="bold" lengthAdjust="spacing" textLength="130" x="1352" y="1664.5651">Rollup Contracts</text></g><!--entity HSProver--><g id="elem_HSProver"><rect fill="#F1F1F1" height="62.5938" rx="2.5" ry="2.5" style="stroke:#181818;stroke-width:0.5;" width="137" x="1003.5" y="1448.97"/><rect fill="#F1F1F1" height="10" style="stroke:#181818;stroke-width:0.5;" width="15" x="1120.5" y="1453.97"/><rect fill="#F1F1F1" height="2" style="stroke:#181818;stroke-width:0.5;" width="4" x="1118.5" y="1455.97"/><rect fill="#F1F1F1" height="2" style="stroke:#181818;stroke-width:0.5;" width="4" x="1118.5" y="1459.97"/><text fill="#000000" font-family="sans-serif" font-size="14" lengthAdjust="spacing" textLength="95" x="1018.5" y="1481.9651">HotShot state</text><text fill="#000000" font-family="sans-serif" font-size="14" lengthAdjust="spacing" textLength="97" x="1018.5" y="1498.262">prover service</text></g><!--entity Relay--><g id="elem_Relay"><rect fill="#F1F1F1" height="62.5938" rx="2.5" ry="2.5" style="stroke:#181818;stroke-width:0.5;" width="135" x="966.5" y="1294.38"/><rect fill="#F1F1F1" height="10" style="stroke:#181818;stroke-width:0.5;" width="15" x="1081.5" y="1299.38"/><rect fill="#F1F1F1" height="2" style="stroke:#181818;stroke-width:0.5;" width="4" x="1079.5" y="1301.38"/><rect fill="#F1F1F1" height="2" style="stroke:#181818;stroke-width:0.5;" width="4" x="1079.5" y="1305.38"/><text fill="#000000" font-family="sans-serif" font-size="14" lengthAdjust="spacing" textLength="95" x="981.5" y="1327.3751">HotShot state</text><text fill="#000000" font-family="sans-serif" font-size="14" lengthAdjust="spacing" textLength="85" x="981.5" y="1343.672">relay service</text></g><!--entity Builder--><g id="elem_Builder"><rect fill="#F1F1F1" height="46.2969" rx="2.5" ry="2.5" style="stroke:#181818;stroke-width:0.5;" width="88" x="1302" y="575.04"/><rect fill="#F1F1F1" height="10" style="stroke:#181818;stroke-width:0.5;" width="15" x="1370" y="580.04"/><rect fill="#F1F1F1" height="2" style="stroke:#181818;stroke-width:0.5;" width="4" x="1368" y="582.04"/><rect fill="#F1F1F1" height="2" style="stroke:#181818;stroke-width:0.5;" width="4" x="1368" y="586.04"/><text fill="#000000" font-family="sans-serif" font-size="14" lengthAdjust="spacing" textLength="48" x="1317" y="608.0351">Builder</text></g><!--entity Nodes--><g id="elem_Nodes"><rect fill="#F1F1F1" height="78.8906" rx="2.5" ry="2.5" style="stroke:#181818;stroke-width:0.5;" width="116" x="413" y="558.75"/><rect fill="#F1F1F1" height="10" style="stroke:#181818;stroke-width:0.5;" width="15" x="509" y="563.75"/><rect fill="#F1F1F1" height="2" style="stroke:#181818;stroke-width:0.5;" width="4" x="507" y="565.75"/><rect fill="#F1F1F1" height="2" style="stroke:#181818;stroke-width:0.5;" width="4" x="507" y="569.75"/><text fill="#000000" font-family="sans-serif" font-size="14" lengthAdjust="spacing" textLength="39" x="428" y="591.7451">Other</text><text fill="#000000" font-family="sans-serif" font-size="14" lengthAdjust="spacing" textLength="76" x="428" y="608.042">Sequencer</text><text fill="#000000" font-family="sans-serif" font-size="14" lengthAdjust="spacing" textLength="45" x="428" y="624.3389">Nodes</text></g><!--entity Broker--><g id="elem_Broker"><rect fill="#F1F1F1" height="46.2969" rx="2.5" ry="2.5" style="stroke:#181818;stroke-width:0.5;" width="86" x="86" y="889.78"/><rect fill="#F1F1F1" height="10" style="stroke:#181818;stroke-width:0.5;" width="15" x="152" y="894.78"/><rect fill="#F1F1F1" height="2" style="stroke:#181818;stroke-width:0.5;" width="4" x="150" y="896.78"/><rect fill="#F1F1F1" height="2" style="stroke:#181818;stroke-width:0.5;" width="4" x="150" y="900.78"/><text fill="#000000" font-family="sans-serif" font-size="14" lengthAdjust="spacing" textLength="46" x="101" y="922.7751">Broker</text></g><!--entity Marshal--><g id="elem_Marshal"><rect fill="#F1F1F1" height="46.2969" rx="2.5" ry="2.5" style="stroke:#181818;stroke-width:0.5;" width="93" x="376.5" y="889.78"/><rect fill="#F1F1F1" height="10" style="stroke:#181818;stroke-width:0.5;" width="15" x="449.5" y="894.78"/><rect fill="#F1F1F1" height="2" style="stroke:#181818;stroke-width:0.5;" width="4" x="447.5" y="896.78"/><rect fill="#F1F1F1" height="2" style="stroke:#181818;stroke-width:0.5;" width="4" x="447.5" y="900.78"/><text fill="#000000" font-family="sans-serif" font-size="14" lengthAdjust="spacing" textLength="53" x="391.5" y="922.7751">Marshal</text></g><!--entity KeyDB--><g id="elem_KeyDB"><path d="M241,900.28 C241,890.28 274,890.28 274,890.28 C274,890.28 307,890.28 307,900.28 L307,925.5769 C307,935.5769 274,935.5769 274,935.5769 C274,935.5769 241,935.5769 241,925.5769 L241,900.28 " fill="#F1F1F1" style="stroke:#181818;stroke-width:0.5;"/><path d="M241,900.28 C241,910.28 274,910.28 274,910.28 C274,910.28 307,910.28 307,900.28 " fill="none" style="stroke:#181818;stroke-width:0.5;"/><text fill="#000000" font-family="sans-serif" font-size="14" lengthAdjust="spacing" textLength="46" x="251" y="927.2751">KeyDB</text></g><!--entity DB--><g id="elem_DB"><path d="M1188,900.28 C1188,890.28 1229,890.28 1229,890.28 C1229,890.28 1270,890.28 1270,900.28 L1270,925.5769 C1270,935.5769 1229,935.5769 1229,935.5769 C1229,935.5769 1188,935.5769 1188,925.5769 L1188,900.28 " fill="#F1F1F1" style="stroke:#181818;stroke-width:0.5;"/><path d="M1188,900.28 C1188,910.28 1229,910.28 1229,910.28 C1229,910.28 1270,910.28 1270,900.28 " fill="none" style="stroke:#181818;stroke-width:0.5;"/><text fill="#000000" font-family="sans-serif" font-size="14" lengthAdjust="spacing" textLength="62" x="1198" y="927.2751">Postgres</text></g><!--entity Submit--><g id="elem_Submit"><rect fill="#F1F1F1" height="46.2969" rx="2.5" ry="2.5" style="stroke:#181818;stroke-width:0.5;" width="88" x="1158" y="575.04"/><rect fill="#F1F1F1" height="10" style="stroke:#181818;stroke-width:0.5;" width="15" x="1226" y="580.04"/><rect fill="#F1F1F1" height="2" style="stroke:#181818;stroke-width:0.5;" width="4" x="1224" y="582.04"/><rect fill="#F1F1F1" height="2" style="stroke:#181818;stroke-width:0.5;" width="4" x="1224" y="586.04"/><text fill="#000000" font-family="sans-serif" font-size="14" lengthAdjust="spacing" textLength="48" x="1173" y="608.0351">Submit</text></g><!--entity EventsStream--><g id="elem_EventsStream"><rect fill="#F1F1F1" height="95.1875" rx="2.5" ry="2.5" style="stroke:#181818;stroke-width:0.5;" width="95" x="660.5" y="550.6"/><rect fill="#F1F1F1" height="10" style="stroke:#181818;stroke-width:0.5;" width="15" x="735.5" y="555.6"/><rect fill="#F1F1F1" height="2" style="stroke:#181818;stroke-width:0.5;" width="4" x="733.5" y="557.6"/><rect fill="#F1F1F1" height="2" style="stroke:#181818;stroke-width:0.5;" width="4" x="733.5" y="561.6"/><text fill="#000000" font-family="sans-serif" font-size="14" lengthAdjust="spacing" textLength="55" x="675.5" y="583.5951">Hotshot</text><text fill="#000000" font-family="sans-serif" font-size="14" lengthAdjust="spacing" textLength="47" x="675.5" y="599.892">Events</text><text fill="#000000" font-family="sans-serif" font-size="14" lengthAdjust="spacing" textLength="49" x="675.5" y="616.1889">Stream</text><text fill="#000000" font-family="sans-serif" font-size="14" lengthAdjust="spacing" textLength="4" x="675.5" y="632.4857">&#160;</text></g><!--entity Catchup--><g id="elem_Catchup"><rect fill="#F1F1F1" height="46.2969" rx="2.5" ry="2.5" style="stroke:#181818;stroke-width:0.5;" width="98" x="790" y="575.04"/><rect fill="#F1F1F1" height="10" style="stroke:#181818;stroke-width:0.5;" width="15" x="868" y="580.04"/><rect fill="#F1F1F1" height="2" style="stroke:#181818;stroke-width:0.5;" width="4" x="866" y="582.04"/><rect fill="#F1F1F1" height="2" style="stroke:#181818;stroke-width:0.5;" width="4" x="866" y="586.04"/><text fill="#000000" font-family="sans-serif" font-size="14" lengthAdjust="spacing" textLength="58" x="805" y="608.0351">Catchup</text></g><!--entity Status--><g id="elem_Status"><rect fill="#F1F1F1" height="46.2969" rx="2.5" ry="2.5" style="stroke:#181818;stroke-width:0.5;" width="84" x="1039" y="575.04"/><rect fill="#F1F1F1" height="10" style="stroke:#181818;stroke-width:0.5;" width="15" x="1103" y="580.04"/><rect fill="#F1F1F1" height="2" style="stroke:#181818;stroke-width:0.5;" width="4" x="1101" y="582.04"/><rect fill="#F1F1F1" height="2" style="stroke:#181818;stroke-width:0.5;" width="4" x="1101" y="586.04"/><text fill="#000000" font-family="sans-serif" font-size="14" lengthAdjust="spacing" textLength="44" x="1054" y="608.0351">Status</text></g><!--entity Query--><g id="elem_Query"><rect fill="#F1F1F1" height="46.2969" rx="2.5" ry="2.5" style="stroke:#181818;stroke-width:0.5;" width="81" x="922.5" y="575.04"/><rect fill="#F1F1F1" height="10" style="stroke:#181818;stroke-width:0.5;" width="15" x="983.5" y="580.04"/><rect fill="#F1F1F1" height="2" style="stroke:#181818;stroke-width:0.5;" width="4" x="981.5" y="582.04"/><rect fill="#F1F1F1" height="2" style="stroke:#181818;stroke-width:0.5;" width="4" x="981.5" y="586.04"/><text fill="#000000" font-family="sans-serif" font-size="14" lengthAdjust="spacing" textLength="41" x="937.5" y="608.0351">Query</text></g><!--entity Events--><g id="elem_Events"><rect fill="#F1F1F1" height="46.2969" rx="2.5" ry="2.5" style="stroke:#181818;stroke-width:0.5;" width="147" x="970.5" y="889.78"/><rect fill="#F1F1F1" height="10" style="stroke:#181818;stroke-width:0.5;" width="15" x="1097.5" y="894.78"/><rect fill="#F1F1F1" height="2" style="stroke:#181818;stroke-width:0.5;" width="4" x="1095.5" y="896.78"/><rect fill="#F1F1F1" height="2" style="stroke:#181818;stroke-width:0.5;" width="4" x="1095.5" y="900.78"/><text fill="#000000" font-family="sans-serif" font-size="14" lengthAdjust="spacing" textLength="107" x="985.5" y="922.7751">HotShot Events</text></g><!--entity Libp2p--><g id="elem_Libp2p"><rect fill="#F1F1F1" height="46.2969" rx="2.5" ry="2.5" style="stroke:#181818;stroke-width:0.5;" width="86" x="814" y="889.78"/><rect fill="#F1F1F1" height="10" style="stroke:#181818;stroke-width:0.5;" width="15" x="880" y="894.78"/><rect fill="#F1F1F1" height="2" style="stroke:#181818;stroke-width:0.5;" width="4" x="878" y="896.78"/><rect fill="#F1F1F1" height="2" style="stroke:#181818;stroke-width:0.5;" width="4" x="878" y="900.78"/><text fill="#000000" font-family="sans-serif" font-size="14" lengthAdjust="spacing" textLength="46" x="829" y="922.7751">Libp2p</text></g><!--entity CDN Client--><g id="elem_CDN Client"><rect fill="#F1F1F1" height="46.2969" rx="2.5" ry="2.5" style="stroke:#181818;stroke-width:0.5;" width="114" x="665" y="889.78"/><rect fill="#F1F1F1" height="10" style="stroke:#181818;stroke-width:0.5;" width="15" x="759" y="894.78"/><rect fill="#F1F1F1" height="2" style="stroke:#181818;stroke-width:0.5;" width="4" x="757" y="896.78"/><rect fill="#F1F1F1" height="2" style="stroke:#181818;stroke-width:0.5;" width="4" x="757" y="900.78"/><text fill="#000000" font-family="sans-serif" font-size="14" lengthAdjust="spacing" textLength="74" x="680" y="922.7751">CDN Client</text></g><!--entity Signer--><g id="elem_Signer"><rect fill="#F1F1F1" height="46.2969" rx="2.5" ry="2.5" style="stroke:#181818;stroke-width:0.5;" width="124" x="947" y="1095.08"/><rect fill="#F1F1F1" height="10" style="stroke:#181818;stroke-width:0.5;" width="15" x="1051" y="1100.08"/><rect fill="#F1F1F1" height="2" style="stroke:#181818;stroke-width:0.5;" width="4" x="1049" y="1102.08"/><rect fill="#F1F1F1" height="2" style="stroke:#181818;stroke-width:0.5;" width="4" x="1049" y="1106.08"/><text fill="#000000" font-family="sans-serif" font-size="14" lengthAdjust="spacing" textLength="84" x="962" y="1128.0751">State Signer</text></g><!--entity Validated--><g id="elem_Validated"><rect fill="#F1F1F1" height="46.2969" rx="2.5" ry="2.5" style="stroke:#181818;stroke-width:0.5;" width="139" x="1106.5" y="1095.08"/><rect fill="#F1F1F1" height="10" style="stroke:#181818;stroke-width:0.5;" width="15" x="1225.5" y="1100.08"/><rect fill="#F1F1F1" height="2" style="stroke:#181818;stroke-width:0.5;" width="4" x="1223.5" y="1102.08"/><rect fill="#F1F1F1" height="2" style="stroke:#181818;stroke-width:0.5;" width="4" x="1223.5" y="1106.08"/><text fill="#000000" font-family="sans-serif" font-size="14" lengthAdjust="spacing" textLength="99" x="1121.5" y="1128.0751">ValidatedState</text></g><!--entity L2_RPC--><g id="elem_L2_RPC"><rect fill="#F1F1F1" height="46.2969" rx="2.5" ry="2.5" style="stroke:#181818;stroke-width:0.5;" width="172" x="1168" y="225.3"/><rect fill="#F1F1F1" height="10" style="stroke:#181818;stroke-width:0.5;" width="15" x="1320" y="230.3"/><rect fill="#F1F1F1" height="2" style="stroke:#181818;stroke-width:0.5;" width="4" x="1318" y="232.3"/><rect fill="#F1F1F1" height="2" style="stroke:#181818;stroke-width:0.5;" width="4" x="1318" y="236.3"/><text fill="#000000" font-family="sans-serif" font-size="14" lengthAdjust="spacing" textLength="132" x="1183" y="258.2951">API (e.g. JSON-RPC)</text></g><!--entity L2_Exec--><g id="elem_L2_Exec"><rect fill="#F1F1F1" height="46.2969" rx="2.5" ry="2.5" style="stroke:#181818;stroke-width:0.5;" width="101" x="1031.5" y="225.3"/><rect fill="#F1F1F1" height="10" style="stroke:#181818;stroke-width:0.5;" width="15" x="1112.5" y="230.3"/><rect fill="#F1F1F1" height="2" style="stroke:#181818;stroke-width:0.5;" width="4" x="1110.5" y="232.3"/><rect fill="#F1F1F1" height="2" style="stroke:#181818;stroke-width:0.5;" width="4" x="1110.5" y="236.3"/><text fill="#000000" font-family="sans-serif" font-size="14" lengthAdjust="spacing" textLength="61" x="1046.5" y="258.2951">Executor</text></g><!--entity L2_Prover--><g id="elem_L2_Prover"><rect fill="#F1F1F1" height="46.2969" rx="2.5" ry="2.5" style="stroke:#181818;stroke-width:0.5;" width="84" x="1375" y="225.3"/><rect fill="#F1F1F1" height="10" style="stroke:#181818;stroke-width:0.5;" width="15" x="1439" y="230.3"/><rect fill="#F1F1F1" height="2" style="stroke:#181818;stroke-width:0.5;" width="4" x="1437" y="232.3"/><rect fill="#F1F1F1" height="2" style="stroke:#181818;stroke-width:0.5;" width="4" x="1437" y="236.3"/><text fill="#000000" font-family="sans-serif" font-size="14" lengthAdjust="spacing" textLength="44" x="1390" y="258.2951">Prover</text></g><!--entity L2_State--><g id="elem_L2_State"><path d="M1213.5,113 C1213.5,103 1254,103 1254,103 C1254,103 1294.5,103 1294.5,113 L1294.5,138.2969 C1294.5,148.2969 1254,148.2969 1254,148.2969 C1254,148.2969 1213.5,148.2969 1213.5,138.2969 L1213.5,113 " fill="#F1F1F1" style="stroke:#181818;stroke-width:0.5;"/><path d="M1213.5,113 C1213.5,123 1254,123 1254,123 C1254,123 1294.5,123 1294.5,113 " fill="none" style="stroke:#181818;stroke-width:0.5;"/><text fill="#000000" font-family="sans-serif" font-size="14" lengthAdjust="spacing" textLength="61" x="1223.5" y="139.9951">State DB</text></g><!--entity LC_L1--><g id="elem_LC_L1"><rect fill="#F1F1F1" height="62.5938" rx="2.5" ry="2.5" style="stroke:#181818;stroke-width:0.5;" width="116" x="1058" y="1703.57"/><rect fill="#F1F1F1" height="10" style="stroke:#181818;stroke-width:0.5;" width="15" x="1154" y="1708.57"/><rect fill="#F1F1F1" height="2" style="stroke:#181818;stroke-width:0.5;" width="4" x="1152" y="1710.57"/><rect fill="#F1F1F1" height="2" style="stroke:#181818;stroke-width:0.5;" width="4" x="1152" y="1714.57"/><text fill="#000000" font-family="sans-serif" font-size="14" lengthAdjust="spacing" textLength="76" x="1073" y="1736.5651">Light Client</text><text fill="#000000" font-family="sans-serif" font-size="14" lengthAdjust="spacing" textLength="59" x="1073" y="1752.862">Contract</text></g><!--entity Fee_L1--><g id="elem_Fee_L1"><rect fill="#F1F1F1" height="62.5938" rx="2.5" ry="2.5" style="stroke:#181818;stroke-width:0.5;" width="99" x="1208.5" y="1703.57"/><rect fill="#F1F1F1" height="10" style="stroke:#181818;stroke-width:0.5;" width="15" x="1287.5" y="1708.57"/><rect fill="#F1F1F1" height="2" style="stroke:#181818;stroke-width:0.5;" width="4" x="1285.5" y="1710.57"/><rect fill="#F1F1F1" height="2" style="stroke:#181818;stroke-width:0.5;" width="4" x="1285.5" y="1714.57"/><text fill="#000000" font-family="sans-serif" font-size="14" lengthAdjust="spacing" textLength="26" x="1223.5" y="1736.5651">Fee</text><text fill="#000000" font-family="sans-serif" font-size="14" lengthAdjust="spacing" textLength="59" x="1223.5" y="1752.862">Contract</text></g><!--entity L2_L1--><g id="elem_L2_L1"><rect fill="#F1F1F1" height="62.5938" rx="2.5" ry="2.5" style="stroke:#181818;stroke-width:0.5;" width="99" x="1364.5" y="1703.57"/><rect fill="#F1F1F1" height="10" style="stroke:#181818;stroke-width:0.5;" width="15" x="1443.5" y="1708.57"/><rect fill="#F1F1F1" height="2" style="stroke:#181818;stroke-width:0.5;" width="4" x="1441.5" y="1710.57"/><rect fill="#F1F1F1" height="2" style="stroke:#181818;stroke-width:0.5;" width="4" x="1441.5" y="1714.57"/><text fill="#000000" font-family="sans-serif" font-size="14" lengthAdjust="spacing" textLength="57" x="1379.5" y="1736.5651">Rollup N</text><text fill="#000000" font-family="sans-serif" font-size="14" lengthAdjust="spacing" textLength="59" x="1379.5" y="1752.862">Contract</text></g><!--entity User--><g id="elem_User"><ellipse cx="1441" cy="590.04" fill="#F1F1F1" rx="12" ry="12" style="stroke:#181818;stroke-width:0.5;"/><line style="stroke:#181818;stroke-width:0.5;" x1="1429" x2="1453" y1="604.04" y2="604.04"/><text fill="#000000" font-family="sans-serif" font-size="14" lengthAdjust="spacing" textLength="32" x="1425" y="619.0351">User</text></g><!--link Broker to KeyDB--><g id="link_Broker_KeyDB"><path d="M172.11,912.93 C194.15,912.93 214.55,912.93 234.96,912.93 " fill="none" id="Broker-to-KeyDB" style="stroke:#181818;stroke-width:1.0;"/><polygon fill="#181818" points="240.96,912.93,231.96,908.93,235.96,912.93,231.96,916.93,240.96,912.93" style="stroke:#181818;stroke-width:1.0;"/><text fill="#000000" font-family="sans-serif" font-size="13" lengthAdjust="spacing" textLength="33" x="190" y="905.9969">state</text></g><!--link KeyDB to Marshal--><g id="link_KeyDB_Marshal"><path d="M307.44,912.93 C327.69,912.93 347.82,912.93 370.11,912.93 " fill="none" id="KeyDB-to-Marshal" style="stroke:#181818;stroke-width:1.0;"/><polygon fill="#181818" points="376.11,912.93,367.11,908.93,371.11,912.93,367.11,916.93,376.11,912.93" style="stroke:#181818;stroke-width:1.0;"/><text fill="#000000" font-family="sans-serif" font-size="13" lengthAdjust="spacing" textLength="33" x="325.25" y="905.9969">state</text></g><!--link Nodes to CDN--><g id="link_Nodes_CDN"><path d="M410.7039,641.8242 C398.5339,653.1842 391.69,662.61 385,677.78 C372.99,705.03 364.79,722.91 385,744.78 C400.28,761.32 469.77,737.18 486,752.78 C511.28,777.075 516.2775,816.01 514.8338,849.2875 C514.6533,853.4472 514.3722,857.5185 514.0174,861.4617 C513.8401,863.4333 513.6443,865.373 513.4335,867.2756 C513.3281,868.2269 513.219,869.169 513.1065,870.1012 C513.0784,870.3343 513.783,864.6117 513.7545,864.8435 " fill="none" id="Nodes-CDN" style="stroke:#181818;stroke-width:1.0;"/><polygon fill="#181818" points="415.09,637.73,405.7814,640.9472,411.4349,641.1418,411.2403,646.7953,415.09,637.73" style="stroke:#181818;stroke-width:1.0;"/><polygon fill="#181818" points="513.0215,870.7985,518.091,862.3546,513.6323,865.836,510.1509,861.3773,513.0215,870.7985" style="stroke:#181818;stroke-width:1.0;"/><path d="M390,682.78 L390,707.78 L552,707.78 L552,692.78 L542,682.78 L390,682.78 " fill="#FEFFDD" style="stroke:#181818;stroke-width:0.5;"/><path d="M542,682.78 L542,692.78 L552,692.78 L542,682.78 " fill="#FEFFDD" style="stroke:#181818;stroke-width:0.5;"/><text fill="#000000" font-family="sans-serif" font-size="13" lengthAdjust="spacing" textLength="141" x="396" y="699.8469">4. HotShot consensus</text><text fill="#000000" font-family="sans-serif" font-size="13" lengthAdjust="spacing" textLength="68" x="437" y="725.9797">consensus</text><text fill="#000000" font-family="sans-serif" font-size="13" lengthAdjust="spacing" textLength="66" x="438" y="741.1125">messages</text></g><!--reverse link CDN Client to Libp2p--><!--link Nodes to Catchup--><g id="link_Nodes_Catchup"><path d="M494.16,558.37 C522.96,513.31 576.74,442.33 645,412.78 C697.21,390.18 726.52,379.98 773,412.78 C825.91,450.11 836.3558,527.7772 838.3658,568.7172 " fill="none" id="Nodes-to-Catchup" style="stroke:#181818;stroke-width:1.0;"/><polygon fill="#181818" points="838.66,574.71,842.2139,565.5247,838.4148,569.716,834.2235,565.917,838.66,574.71" style="stroke:#181818;stroke-width:1.0;"/><text fill="#000000" font-family="sans-serif" font-size="13" lengthAdjust="spacing" textLength="4" x="654" y="365.6669">&#160;</text><text fill="#000000" font-family="sans-serif" font-size="13" lengthAdjust="spacing" textLength="4" x="493.6646" y="547.6096">&#160;</text><text fill="#000000" font-family="sans-serif" font-size="13" lengthAdjust="spacing" textLength="49" x="784.5368" y="548.8681">missing</text><text fill="#000000" font-family="sans-serif" font-size="13" lengthAdjust="spacing" textLength="33" x="792.5368" y="564.0009">state</text></g><!--link Nodes to Libp2p--><g id="link_Nodes_Libp2p"><path d="M522.9686,641.5439 C571.7586,680.5039 640.62,732.83 674,744.78 C699.58,753.94 774.13,736.67 796,752.78 C840.07,785.26 851.7292,847.9372 855.1292,883.5172 " fill="none" id="Nodes-Libp2p" style="stroke:#181818;stroke-width:1.0;"/><polygon fill="#181818" points="518.28,637.8,522.8169,646.5416,522.1872,640.92,527.8088,640.2902,518.28,637.8" style="stroke:#181818;stroke-width:1.0;"/><polygon fill="#181818" points="855.7,889.49,858.8257,880.1503,855.2244,884.5127,850.862,880.9113,855.7,889.49" style="stroke:#181818;stroke-width:1.0;"/><text fill="#000000" font-family="sans-serif" font-size="13" lengthAdjust="spacing" textLength="68" x="675" y="708.3469">consensus</text><text fill="#000000" font-family="sans-serif" font-size="13" lengthAdjust="spacing" textLength="66" x="676" y="723.4797">messages</text></g><!--link CDN Client to CDN--><g id="link_CDN Client_CDN"><path d="M658.74,912.93 C628.11,912.93 596.4075,912.93 565.3238,912.93 C549.7819,912.93 535.8947,912.93 525.3736,912.93 C522.7433,912.93 520.3234,912.93 518.1407,912.93 C517.0493,912.93 516.0172,912.93 515.0477,912.93 C514.5629,912.93 514.0939,912.93 513.6408,912.93 C513.5276,912.93 519.4153,912.93 519.3041,912.93 " fill="none" id="CDN Client-CDN" style="stroke:#181818;stroke-width:1.0;"/><polygon fill="#181818" points="664.74,912.93,655.74,908.93,659.74,912.93,655.74,916.93,664.74,912.93" style="stroke:#181818;stroke-width:1.0;"/><polygon fill="#181818" points="513.3041,912.93,522.3041,916.93,518.3041,912.93,522.3041,908.93,513.3041,912.93" style="stroke:#181818;stroke-width:1.0;"/><text fill="#000000" font-family="sans-serif" font-size="13" lengthAdjust="spacing" textLength="68" x="551.18" y="890.9969">consensus</text><text fill="#000000" font-family="sans-serif" font-size="13" lengthAdjust="spacing" textLength="66" x="552.18" y="906.1297">messages</text></g><!--link Signer to Relay--><g id="link_Signer_Relay"><path d="M1010.87,1141.41 C1013.36,1169.93 1018.16,1220.94 1024,1264.38 C1025.3,1274.05 1025.9696,1278.6423 1027.5596,1288.1423 " fill="none" id="Signer-to-Relay" style="stroke:#181818;stroke-width:1.0;"/><polygon fill="#181818" points="1028.55,1294.06,1031.0095,1284.5232,1027.7246,1289.1286,1023.1192,1285.8438,1028.55,1294.06" style="stroke:#181818;stroke-width:1.0;"/><path d="M1029,1202.38 L1029,1227.38 L1170,1227.38 L1170,1212.38 L1160,1202.38 L1029,1202.38 " fill="#FEFFDD" style="stroke:#181818;stroke-width:0.5;"/><path d="M1160,1202.38 L1160,1212.38 L1170,1212.38 L1160,1202.38 " fill="#FEFFDD" style="stroke:#181818;stroke-width:0.5;"/><text fill="#000000" font-family="sans-serif" font-size="13" lengthAdjust="spacing" textLength="120" x="1035" y="1219.4469">5. HotShot proving</text><text fill="#000000" font-family="sans-serif" font-size="13" lengthAdjust="spacing" textLength="37" x="1081" y="1245.5797">state,</text><text fill="#000000" font-family="sans-serif" font-size="13" lengthAdjust="spacing" textLength="60" x="1069.5" y="1260.7125">signature</text></g><!--link Relay to HSProver--><g id="link_Relay_HSProver"><path d="M1037.4,1357.35 C1039.79,1375.47 1043.56,1398.75 1049,1418.97 C1051.65,1428.82 1053.1585,1433.6828 1056.7885,1443.0828 " fill="none" id="Relay-to-HSProver" style="stroke:#181818;stroke-width:1.0;"/><polygon fill="#181818" points="1058.95,1448.68,1059.4393,1438.8433,1057.1488,1444.0157,1051.9764,1441.7252,1058.95,1448.68" style="stroke:#181818;stroke-width:1.0;"/><text fill="#000000" font-family="sans-serif" font-size="13" lengthAdjust="spacing" textLength="37" x="1085" y="1400.0369">state,</text><text fill="#000000" font-family="sans-serif" font-size="13" lengthAdjust="spacing" textLength="107" x="1050" y="1415.1697">signature bundle</text></g><!--link Builder to HotShot--><g id="link_Builder_HotShot"><path d="M1326.76,621.67 C1311.16,638.17 1287.61,659.45 1262,669.78 C1249.92,674.66 1153.89,668.26 1145,677.78 C1140.6275,682.4625 1138.8919,699.0213 1138.76,721.3273 C1138.6941,732.4804 1139.0291,745.0703 1139.6359,758.3309 C1139.7876,761.646 1139.6314,759.0119 1139.815,762.3989 " fill="none" id="Builder-to-HotShot" style="stroke:#181818;stroke-width:1.0;"/><polygon fill="#181818" points="1140.1399,768.3901,1143.6467,759.1867,1139.8692,763.3975,1135.6585,759.6199,1140.1399,768.3901" style="stroke:#181818;stroke-width:1.0;"/><path d="M1150,690.28 L1150,715.28 L1319,715.28 L1319,700.28 L1309,690.28 L1150,690.28 " fill="#FEFFDD" style="stroke:#181818;stroke-width:0.5;"/><path d="M1309,690.28 L1309,700.28 L1319,700.28 L1309,690.28 " fill="#FEFFDD" style="stroke:#181818;stroke-width:0.5;"/><text fill="#000000" font-family="sans-serif" font-size="13" lengthAdjust="spacing" textLength="148" x="1156" y="707.3469">3. Leader obtains block</text><text fill="#000000" font-family="sans-serif" font-size="13" lengthAdjust="spacing" textLength="95" x="1187" y="733.4797">espresso block</text></g><!--link EventsStream to Builder--><g id="link_EventsStream_Builder"><path d="M710.04,550.35 C714.77,506.47 729.32,443.76 773,412.78 C861.64,349.92 1170.67,353.89 1262,412.78 C1318.43,449.17 1336.5031,527.733 1342.5131,568.893 " fill="none" id="EventsStream-to-Builder" style="stroke:#181818;stroke-width:1.0;"/><polygon fill="#181818" points="1343.38,574.83,1346.0377,565.3465,1342.6576,569.8825,1338.1216,566.5024,1343.38,574.83" style="stroke:#181818;stroke-width:1.0;"/><text fill="#000000" font-family="sans-serif" font-size="13" lengthAdjust="spacing" textLength="79" x="798.5" y="365.6669">transactions</text></g><!--link Networking to Events--><g id="link_Networking_Events"><path d="M943.0692,912.93 C943.1584,912.93 943.2475,912.93 943.3366,912.93 C943.693,912.93 944.0495,912.93 944.4059,912.93 C947.2575,912.93 950.1088,912.93 952.96,912.93 C958.6625,912.93 958.365,912.93 964.07,912.93 " fill="none" id="Networking-to-Events" style="stroke:#181818;stroke-width:1.0;"/><polygon fill="#181818" points="970.07,912.93,961.07,908.93,965.07,912.93,961.07,916.93,970.07,912.93" style="stroke:#181818;stroke-width:1.0;"/></g><!--reverse link EventsStream to Events--><g id="link_EventsStream_Events"><path d="M733.5116,651.2794 C752.5416,685.1094 780.26,723.26 821,744.78 C846.59,758.31 926.35,737.61 951,752.78 C1001.56,783.9 1027.68,853.48 1038.23,889.45 " fill="none" id="EventsStream-backto-Events" style="stroke:#181818;stroke-width:1.0;"/><polygon fill="#181818" points="730.57,646.05,731.4962,655.8552,733.0214,650.4078,738.4687,651.933,730.57,646.05" style="stroke:#181818;stroke-width:1.0;"/></g><!--link Events to Validated--><g id="link_Events_Validated"><path d="M1056.88,936.37 C1070.05,959.02 1091.29,994.9 1111,1025.08 C1126.84,1049.34 1142.5632,1071.496 1155.9832,1089.966 " fill="none" id="Events-to-Validated" style="stroke:#181818;stroke-width:1.0;"/><polygon fill="#181818" points="1159.51,1094.82,1157.4557,1085.1878,1156.571,1090.775,1150.9837,1089.8902,1159.51,1094.82" style="stroke:#181818;stroke-width:1.0;"/></g><!--link Query to DB--><g id="link_Query_DB"><path d="M967.31,621.57 C975.04,654.85 994.66,716.51 1038,744.78 C1062.43,760.72 1145.53,735.47 1169,752.78 C1213.2,785.39 1224.322,848.6524 1227.392,884.0824 " fill="none" id="Query-to-DB" style="stroke:#181818;stroke-width:1.0;"/><polygon fill="#181818" points="1227.91,890.06,1231.1181,880.7483,1227.4784,885.0787,1223.148,881.4389,1227.91,890.06" style="stroke:#181818;stroke-width:1.0;"/></g><!--reverse link DB to Validated--><g id="link_DB_Validated"><path d="M1221.716,941.8858 C1211.546,980.8858 1192.07,1055.6 1181.85,1094.8 " fill="none" id="DB-backto-Validated" style="stroke:#181818;stroke-width:1.0;"/><polygon fill="#181818" points="1223.23,936.08,1217.0885,943.7794,1221.9683,940.9182,1224.8296,945.7981,1223.23,936.08" style="stroke:#181818;stroke-width:1.0;"/></g><!--link Catchup to DB--><g id="link_Catchup_DB"><path d="M852.35,621.61 C874,655.56 920.33,718.79 979,744.78 C998.32,753.34 1151.88,740.4 1169,752.78 C1213.5,784.97 1224.5106,848.4208 1227.4806,883.9808 " fill="none" id="Catchup-to-DB" style="stroke:#181818;stroke-width:1.0;"/><polygon fill="#181818" points="1227.98,889.96,1231.217,880.6583,1227.5638,884.9773,1223.2448,881.3242,1227.98,889.96" style="stroke:#181818;stroke-width:1.0;"/></g><!--reverse link L2_RPC to User--><g id="link_L2_RPC_User"><path d="M1251.3043,277.9588 C1249.3143,310.5488 1251.54,364.29 1287,394.6 C1307.15,411.82 1386.25,384.92 1406,402.6 C1454.6,446.09 1450.34,532.21 1444.91,573.73 " fill="none" id="L2_RPC-backto-User" style="stroke:#181818;stroke-width:1.0;"/><polygon fill="#181818" points="1251.67,271.97,1247.1289,280.7095,1251.3653,276.9607,1255.114,281.1971,1251.67,271.97" style="stroke:#181818;stroke-width:1.0;"/><path d="M1292,332.6 L1292,357.6 L1479,357.6 L1479,342.6 L1469,332.6 L1292,332.6 " fill="#FEFFDD" style="stroke:#181818;stroke-width:0.5;"/><path d="M1469,332.6 L1469,342.6 L1479,342.6 L1469,332.6 " fill="#FEFFDD" style="stroke:#181818;stroke-width:0.5;"/><text fill="#000000" font-family="sans-serif" font-size="13" lengthAdjust="spacing" textLength="166" x="1298" y="349.6669">2. Transaction submission</text><text fill="#000000" font-family="sans-serif" font-size="13" lengthAdjust="spacing" textLength="83" x="1344" y="375.7997">transactions,</text><text fill="#000000" font-family="sans-serif" font-size="13" lengthAdjust="spacing" textLength="84" x="1343.5" y="390.9325">state queries</text></g><!--link L2_RPC to Submit--><g id="link_L2_RPC_Submit"><path d="M1250.12,272 C1247.47,287.6 1243.92,308.84 1241,327.6 C1226.76,419.19 1212.2801,522.6163 1205.9001,568.8563 " fill="none" id="L2_RPC-to-Submit" style="stroke:#181818;stroke-width:1.0;"/><polygon fill="#181818" points="1205.08,574.8,1210.2726,566.4312,1205.7634,569.8469,1202.3477,565.3377,1205.08,574.8" style="stroke:#181818;stroke-width:1.0;"/><text fill="#000000" font-family="sans-serif" font-size="13" lengthAdjust="spacing" textLength="4" x="1242" y="365.6669">&#160;</text><text fill="#000000" font-family="sans-serif" font-size="13" lengthAdjust="spacing" textLength="72" x="1127.1811" y="291.6829">transaction</text><text fill="#000000" font-family="sans-serif" font-size="13" lengthAdjust="spacing" textLength="144" x="1091.1811" y="306.8157">NamespaceId Rollup N</text><text fill="#000000" font-family="sans-serif" font-size="13" lengthAdjust="spacing" textLength="4" x="1201.3568" y="563.9687">&#160;</text></g><!--reverse link L2_Exec to Query--><g id="link_L2_Exec_Query"><path d="M1069.9131,277.562 C1057.3031,307.232 1037.34,355.56 1021,402.6 C999.6,464.2 978.84,538.39 968.97,574.81 " fill="none" id="L2_Exec-backto-Query" style="stroke:#181818;stroke-width:1.0;"/><polygon fill="#181818" points="1072.26,272.04,1065.0584,278.7584,1070.3043,276.6416,1072.421,281.8875,1072.26,272.04" style="stroke:#181818;stroke-width:1.0;"/><text fill="#000000" font-family="sans-serif" font-size="13" lengthAdjust="spacing" textLength="4" x="1049" y="365.6669">&#160;</text><text fill="#000000" font-family="sans-serif" font-size="13" lengthAdjust="spacing" textLength="34" x="955.7971" y="291.7308">Block</text><text fill="#000000" font-family="sans-serif" font-size="13" lengthAdjust="spacing" textLength="163" x="891.2971" y="306.8636">(sequenced transactions)</text><text fill="#000000" font-family="sans-serif" font-size="13" lengthAdjust="spacing" textLength="4" x="965.9873" y="563.9813">&#160;</text></g><!--link HSProver to LC_L1--><g id="link_HSProver_LC_L1"><path d="M1077.35,1511.99 C1085.83,1560.64 1101.2106,1648.929 1109.6606,1697.449 " fill="none" id="HSProver-to-LC_L1" style="stroke:#181818;stroke-width:1.0;"/><polygon fill="#181818" points="1110.69,1703.36,1113.0865,1693.8072,1109.8321,1698.4341,1105.2052,1695.1797,1110.69,1703.36" style="stroke:#181818;stroke-width:1.0;"/><text fill="#000000" font-family="sans-serif" font-size="13" lengthAdjust="spacing" textLength="53" x="1091" y="1556.6369">HotShot</text><text fill="#000000" font-family="sans-serif" font-size="13" lengthAdjust="spacing" textLength="33" x="1101" y="1571.7697">state</text><text fill="#000000" font-family="sans-serif" font-size="13" lengthAdjust="spacing" textLength="33" x="1101" y="1586.9025">proof</text></g><!--link L2_Prover to L2_L1--><g id="link_L2_Prover_L2_L1"><path d="M1445.13,272.05 C1460.63,286.23 1478.59,305.91 1488,327.6 C1535.86,437.88 1510,476.97 1510,597.19 C1510,597.19 1510,597.19 1510,1481.27 C1510,1566.18 1465.1345,1652.1677 1437.0145,1698.2677 " fill="none" id="L2_Prover-to-L2_L1" style="stroke:#181818;stroke-width:1.0;"/><polygon fill="#181818" points="1433.89,1703.39,1441.9916,1697.7896,1436.4937,1699.1214,1435.1619,1693.6236,1433.89,1703.39" style="stroke:#181818;stroke-width:1.0;"/><path d="M1515,1097.23 L1515,1122.23 L1641,1122.23 L1641,1107.23 L1631,1097.23 L1515,1097.23 " fill="#FEFFDD" style="stroke:#181818;stroke-width:0.5;"/><path d="M1631,1097.23 L1631,1107.23 L1641,1107.23 L1631,1097.23 " fill="#FEFFDD" style="stroke:#181818;stroke-width:0.5;"/><text fill="#000000" font-family="sans-serif" font-size="13" lengthAdjust="spacing" textLength="105" x="1521" y="1114.2969">6. Rollup proving</text><text fill="#000000" font-family="sans-serif" font-size="13" lengthAdjust="spacing" textLength="109" x="1523.5" y="1140.4297">rollup state proof</text></g><!--link LC_L1 to L2_L1--><g id="link_LC_L1_L2_L1"><path d="M1125.46,1703.08 C1136.33,1671.97 1157.17,1625.46 1191,1598.57 C1203.84,1588.36 1210.26,1590.78 1226.5,1588.53 C1263.92,1583.35 1275.86,1576 1311.5,1588.53 C1361.68,1606.18 1388.5776,1660.2219 1402.2176,1697.6919 " fill="none" id="LC_L1-to-L2_L1" style="stroke:#181818;stroke-width:1.0;"/><polygon fill="#181818" points="1404.27,1703.33,1404.9501,1693.5047,1402.5597,1698.6316,1397.4327,1696.2412,1404.27,1703.33" style="stroke:#181818;stroke-width:1.0;"/><text fill="#000000" font-family="sans-serif" font-size="13" lengthAdjust="spacing" textLength="53" x="1242.5" y="1564.1369">HotShot</text><text fill="#000000" font-family="sans-serif" font-size="13" lengthAdjust="spacing" textLength="83" x="1227.5" y="1579.2697">commitment</text></g><!--link L2_State to L2_RPC--><g id="link_L2_State_L2_RPC"><path d="M1254,148.53 C1254,170.15 1254,197.07 1254,218.92 " fill="none" id="L2_State-to-L2_RPC" style="stroke:#181818;stroke-width:1.0;"/><polygon fill="#181818" points="1254,224.92,1258,215.92,1254,219.92,1250,215.92,1254,224.92" style="stroke:#181818;stroke-width:1.0;"/><text fill="#000000" font-family="sans-serif" font-size="13" lengthAdjust="spacing" textLength="69" x="1255" y="191.3669">Read state</text></g><!--reverse link L2_State to L2_Exec--><g id="link_L2_State_L2_Exec"><path d="M1214.4426,151.8395 C1200.5026,160.8595 1189.38,168.27 1175,178.3 C1153.38,193.38 1129.54,211.14 1111.4,224.88 " fill="none" id="L2_State-backto-L2_Exec" style="stroke:#181818;stroke-width:1.0;"/><polygon fill="#181818" points="1219.48,148.58,1209.7509,150.111,1215.2821,151.2963,1214.0969,156.8275,1219.48,148.58" style="stroke:#181818;stroke-width:1.0;"/><text fill="#000000" font-family="sans-serif" font-size="13" lengthAdjust="spacing" textLength="69" x="1176" y="191.3669">Write state</text></g><!--link L2_State to L2_Prover--><g id="link_L2_State_L2_Prover"><path d="M1289.56,148.73 C1303.36,157.59 1319.14,168.11 1333,178.3 C1353.09,193.07 1370.2222,207.0996 1386.5422,220.9996 " fill="none" id="L2_State-to-L2_Prover" style="stroke:#181818;stroke-width:1.0;"/><polygon fill="#181818" points="1391.11,224.89,1386.852,216.0092,1387.3035,221.648,1381.6647,222.0995,1391.11,224.89" style="stroke:#181818;stroke-width:1.0;"/><text fill="#000000" font-family="sans-serif" font-size="13" lengthAdjust="spacing" textLength="71" x="1355" y="191.3669">Read State</text></g><!--link Builder to Fee_L1--><g id="link_Builder_Fee_L1"><path d="M1346.48,621.56 C1347.55,672.89 1350,803.06 1350,911.93 C1350,911.93 1350,911.93 1350,1481.27 C1350,1565.74 1307.0313,1651.8562 1280.0813,1698.0962 " fill="none" id="Builder-to-Fee_L1" style="stroke:#181818;stroke-width:1.0;"/><polygon fill="#181818" points="1277.06,1703.28,1285.0478,1697.5185,1279.5777,1698.9602,1278.136,1693.4901,1277.06,1703.28" style="stroke:#181818;stroke-width:1.0;"/><path d="M1355,1202.38 L1355,1227.38 L1466,1227.38 L1466,1212.38 L1456,1202.38 L1355,1202.38 " fill="#FEFFDD" style="stroke:#181818;stroke-width:0.5;"/><path d="M1456,1202.38 L1456,1212.38 L1466,1212.38 L1456,1202.38 " fill="#FEFFDD" style="stroke:#181818;stroke-width:0.5;"/><text fill="#000000" font-family="sans-serif" font-size="13" lengthAdjust="spacing" textLength="90" x="1361" y="1219.4469">1. Fee deposit</text><text fill="#000000" font-family="sans-serif" font-size="13" lengthAdjust="spacing" textLength="47" x="1387" y="1245.5797">deposit</text><text fill="#000000" font-family="sans-serif" font-size="13" lengthAdjust="spacing" textLength="34" x="1393.5" y="1260.7125">ether</text></g><!--reverse link Validated to Fee_L1--><g id="link_Validated_Fee_L1"><path d="M1177.154,1147.4942 C1180.144,1215.3942 1191.26,1419.56 1223,1590.57 C1230.29,1629.85 1241.69,1674.46 1249.49,1703.33 " fill="none" id="Validated-backto-Fee_L1" style="stroke:#181818;stroke-width:1.0;"/><polygon fill="#181818" points="1176.89,1141.5,1173.2898,1150.6673,1177.11,1146.4952,1181.2821,1150.3153,1176.89,1141.5" style="stroke:#181818;stroke-width:1.0;"/><text fill="#000000" font-family="sans-serif" font-size="13" lengthAdjust="spacing" textLength="20" x="1216" y="1400.0369">fee</text><text fill="#000000" font-family="sans-serif" font-size="13" lengthAdjust="spacing" textLength="54" x="1199" y="1415.1697">deposits</text></g><!--SRC=[XLPRRzis57xNhpXG7je2jOTubmSZ230xwThDTJExtJ3CGq5RnpPXcTH8AfbH-B_lyAQB8xKn457akNxdd8_I1ouAfjWH2hOvi1tUtCpOIPRczXQ-901hgJ9KKvbB1HyL4vg4KHXxGl8x9KkHTPrkfJ1T-zgWGcbE1Rxfb3WdIGW4qdjTADHQmXB_BL5iKC4SpPDKXnIOZckuUi-rEIsaHXSnn4nWUZVtkS15Klvl8u-55EGKqWzcZsebAZyhCPSPQk_6hYgbXks6gRQvYP87L3s7xvdIUvQtJZDcs9fH_B_XwMvI7PqJ_zyzNbYFFWltxft0uDOhZGbPPj0TkGrx4dmrprmsS3EWKp8ufi24Hg5BlH97mffIyxaAQH2CB41k8UVYK0Nrmn3UIhFSIrFhkaCKcTFouJR0RLIFd3jCQGkk9bpJGGF52eRqGMgpKw403KGY-Zy_lDDmDUExlPcUcEYjHBeirqTkl4-tx1Ead3Jbj1BtZ_HEQ2oDGdPS2QVhD_rMduKfCvjzMJZviEwDYifHwhJl-FSIrSdPSQkBVcZY42lHct-O4IvsQLkcBJVZws9KV4KWjTqtpJcjss6VMs_U3Wp-tlCiG_5FZbj3dTQhtIw0IyL3tK2zaVwp_2sGw8hh5b- -1ZX9yvr0vPl1BVl4_s0vfsR4pEavXMhhsNJsvE56RYKA9H-fypMgHxxnfjuk7zpcDpGLvkpKKbpOdKkjISdpB6GLrfP4NqHwJFp4ku7tNJc6rFwEN6lgYvLm_jAamGo-ZDtaqApbDtY4WcZbb7ZKOP399q6ABfz0Jgyf3ZgbkL2OT9BFZpNnM50fzAIY76V9vHZ1xJ0BQxghShHXHQ32qsjwusF0UEsiSxavT0Vp_H1coAogN1l6XGx2LKHDnh1K73oDmTZBZcqC9y1iAA79wq6rqc7JFs1G5jLUuA1u4f2ikvCiBerKX7_YoCEbHWnQIGHhj1NQ8KhKzoxTCfJOICDti91vNXP-76UZoBb_OPxBfp1kZLxqqZ0FujrtBN4tlCJXRWY_BZ_C1uk7wQiW_vdM7Hht_-6cf9o2a7tjaF9b3pAD0MjVB9u8xYRHuxAw6CyqDVMNX_qUmF887efhBtuTqlz5KRErFpNgRvKfVTOegc-WC5ry9hrE89ojC4eh4VMygobfTUcyGRmGfPqeUsw75AhH2AWpZ5Yqon16jLd79n_hnWLjxrAY3oceumqt9_X4H9NOVp3uPFlBLnFQ_Vuwa0tGlQyuCKJdR8s6_Rx2T0NhjdFzjKwEqeOd-dvZH4C41RxBe6vB-iMnA4EKjfqWKEB4pl1AlDJXYoLhHVygjJ1GDJEaaSzr4hcc6aDNDZ8Mg2Hawou1kKsglWJlsOag7vk7nSjrWlBJCARnZFoyruRDoZrLcR0vskzg6_ceYZpWTsDHgCQ0D1V4QO6h8pGLK57cJyNfMGc5bBfD-V5gqQplrp65KaZDAKYqizQTzFNGYaVHEcDl8uHMCTiOjdOwWhHE_WS0]--></g></svg>