<?xml version="1.0" encoding="us-ascii" standalone="no"?><svg xmlns="http://www.w3.org/2000/svg" xmlns:xlink="http://www.w3.org/1999/xlink" contentStyleType="text/css" height="1353px" preserveAspectRatio="none" style="width:2515px;height:1353px;background:#FFFFFF;" version="1.1" viewBox="0 0 2515 1353" width="2515px" zoomAndPan="magnify"><defs/><g><!--cluster Network--><g id="cluster_Network"><path d="M8.5,642.89 L245.5,642.89 A3.75,3.75 0 0 1 248,645.39 L255,665.1869 L518.5,665.1869 A2.5,2.5 0 0 1 521,667.6869 L521,1015.42 A2.5,2.5 0 0 1 518.5,1017.92 L8.5,1017.92 A2.5,2.5 0 0 1 6,1015.42 L6,645.39 A2.5,2.5 0 0 1 8.5,642.89 " fill="none" style="stroke:#000000;stroke-width:1.5;"/><line style="stroke:#000000;stroke-width:1.5;" x1="6" x2="255" y1="665.1869" y2="665.1869"/><text fill="#000000" font-family="sans-serif" font-size="14" font-weight="bold" lengthAdjust="spacing" textLength="236" x="10" y="657.8851">Espresso Sequencer Network</text></g><!--cluster CDN--><g id="cluster_CDN"><path d="M40.5,853.63 L74.5,853.63 A3.75,3.75 0 0 1 77,856.13 L84,875.9269 L486.5,875.9269 A2.5,2.5 0 0 1 489,878.4269 L489,983.42 A2.5,2.5 0 0 1 486.5,985.92 L40.5,985.92 A2.5,2.5 0 0 1 38,983.42 L38,856.13 A2.5,2.5 0 0 1 40.5,853.63 " fill="none" style="stroke:#000000;stroke-width:1.5;"/><line style="stroke:#000000;stroke-width:1.5;" x1="38" x2="84" y1="875.9269" y2="875.9269"/><text fill="#000000" font-family="sans-serif" font-size="14" font-weight="bold" lengthAdjust="spacing" textLength="33" x="42" y="868.6251">CDN</text></g><!--cluster Espresso--><g id="cluster_Espresso"><path d="M547.5,360.59 L712.5,360.59 A3.75,3.75 0 0 1 715,363.09 L722,382.8869 L2165.5,382.8869 A2.5,2.5 0 0 1 2168,385.3869 L2168,1033.78 A2.5,2.5 0 0 1 2165.5,1036.28 L547.5,1036.28 A2.5,2.5 0 0 1 545,1033.78 L545,363.09 A2.5,2.5 0 0 1 547.5,360.59 " fill="none" style="stroke:#000000;stroke-width:1.5;"/><line style="stroke:#000000;stroke-width:1.5;" x1="545" x2="722" y1="382.8869" y2="382.8869"/><text fill="#000000" font-family="sans-serif" font-size="14" font-weight="bold" lengthAdjust="spacing" textLength="164" x="549" y="375.5851">Espresso Sequencer</text></g><!--cluster Seq--><g id="cluster_Seq"><path d="M579.5,411.59 L712.5,411.59 A3.75,3.75 0 0 1 715,414.09 L722,433.8869 L1870.5,433.8869 A2.5,2.5 0 0 1 1873,436.3869 L1873,1001.78 A2.5,2.5 0 0 1 1870.5,1004.28 L579.5,1004.28 A2.5,2.5 0 0 1 577,1001.78 L577,414.09 A2.5,2.5 0 0 1 579.5,411.59 " fill="none" style="stroke:#000000;stroke-width:1.5;"/><line style="stroke:#000000;stroke-width:1.5;" x1="577" x2="722" y1="433.8869" y2="433.8869"/><text fill="#000000" font-family="sans-serif" font-size="14" font-weight="bold" lengthAdjust="spacing" textLength="132" x="581" y="426.5851">Sequencer Node</text></g><!--cluster APIs--><g id="cluster_APIs"><rect fill="none" height="432.54" rx="2.5" ry="2.5" style="stroke:#181818;stroke-width:1.0;" width="543.5" x="917.5" y="539.74"/><rect fill="none" height="10" style="stroke:#181818;stroke-width:1.0;" width="15" x="1441" y="544.74"/><rect fill="none" height="2" style="stroke:#181818;stroke-width:1.0;" width="4" x="1439" y="546.74"/><rect fill="none" height="2" style="stroke:#181818;stroke-width:1.0;" width="4" x="1439" y="550.74"/><text fill="#000000" font-family="sans-serif" font-size="14" font-weight="bold" lengthAdjust="spacing" textLength="34" x="1172.25" y="565.7351">APIs</text></g><!--cluster Networking--><g id="cluster_Networking"><rect fill="none" height="116.3" rx="2.5" ry="2.5" style="stroke:#181818;stroke-width:1.0;" width="267" x="609" y="462.59"/><rect fill="none" height="10" style="stroke:#181818;stroke-width:1.0;" width="15" x="856" y="467.59"/><rect fill="none" height="2" style="stroke:#181818;stroke-width:1.0;" width="4" x="854" y="469.59"/><rect fill="none" height="2" style="stroke:#181818;stroke-width:1.0;" width="4" x="854" y="473.59"/><text fill="#000000" font-family="sans-serif" font-size="14" font-weight="bold" lengthAdjust="spacing" textLength="91" x="697" y="488.5851">Networking</text></g><!--cluster State--><g id="cluster_State"><path d="M1504.5,462.59 L1546.5,462.59 A3.75,3.75 0 0 1 1549,465.09 L1556,484.8869 L1830.5,484.8869 A2.5,2.5 0 0 1 1833,487.3869 L1833,576.39 A2.5,2.5 0 0 1 1830.5,578.89 L1504.5,578.89 A2.5,2.5 0 0 1 1502,576.39 L1502,465.09 A2.5,2.5 0 0 1 1504.5,462.59 " fill="none" style="stroke:#000000;stroke-width:1.5;"/><line style="stroke:#000000;stroke-width:1.5;" x1="1502" x2="1556" y1="484.8869" y2="484.8869"/><text fill="#000000" font-family="sans-serif" font-size="14" font-weight="bold" lengthAdjust="spacing" textLength="41" x="1506" y="477.5851">State</text></g><!--cluster L2--><g id="cluster_L2"><path d="M1709.5,6 L1778.5,6 A3.75,3.75 0 0 1 1781,8.5 L1788,28.2969 L2212.5,28.2969 A2.5,2.5 0 0 1 2215,30.7969 L2215,309.09 A2.5,2.5 0 0 1 2212.5,311.59 L1709.5,311.59 A2.5,2.5 0 0 1 1707,309.09 L1707,8.5 A2.5,2.5 0 0 1 1709.5,6 " fill="none" style="stroke:#000000;stroke-width:1.5;"/><line style="stroke:#000000;stroke-width:1.5;" x1="1707" x2="1788" y1="28.2969" y2="28.2969"/><text fill="#000000" font-family="sans-serif" font-size="14" font-weight="bold" lengthAdjust="spacing" textLength="68" x="1711" y="20.9951">Layer 2s</text></g><!--cluster L2_1--><g id="cluster_L2_1"><rect fill="none" height="238.59" rx="2.5" ry="2.5" style="stroke:#181818;stroke-width:1.0;" width="460" x="1731" y="49"/><rect fill="none" height="10" style="stroke:#181818;stroke-width:1.0;" width="15" x="2171" y="54"/><rect fill="none" height="2" style="stroke:#181818;stroke-width:1.0;" width="4" x="2169" y="56"/><rect fill="none" height="2" style="stroke:#181818;stroke-width:1.0;" width="4" x="2169" y="60"/><text fill="#000000" font-family="sans-serif" font-size="14" font-weight="bold" lengthAdjust="spacing" textLength="63" x="1929.5" y="74.9951">Rollup 1</text></g><!--cluster L1--><g id="cluster_L1"><path d="M1973.5,1115.28 L2114.5,1115.28 A3.75,3.75 0 0 1 2117,1117.78 L2124,1137.5769 L2505.5,1137.5769 A2.5,2.5 0 0 1 2508,1140.0769 L2508,1344.37 A2.5,2.5 0 0 1 2505.5,1346.87 L1973.5,1346.87 A2.5,2.5 0 0 1 1971,1344.37 L1971,1117.78 A2.5,2.5 0 0 1 1973.5,1115.28 " fill="none" style="stroke:#000000;stroke-width:1.5;"/><line style="stroke:#000000;stroke-width:1.5;" x1="1971" x2="2124" y1="1137.5769" y2="1137.5769"/><text fill="#000000" font-family="sans-serif" font-size="14" font-weight="bold" lengthAdjust="spacing" textLength="140" x="1975" y="1130.2751">Ethereum Layer 1</text></g><!--cluster Esp_L1--><g id="cluster_Esp_L1"><path d="M1997.5,1174.28 L2153.5,1174.28 A3.75,3.75 0 0 1 2156,1176.78 L2163,1196.5769 L2274.5,1196.5769 A2.5,2.5 0 0 1 2277,1199.0769 L2277,1304.37 A2.5,2.5 0 0 1 2274.5,1306.87 L1997.5,1306.87 A2.5,2.5 0 0 1 1995,1304.37 L1995,1176.78 A2.5,2.5 0 0 1 1997.5,1174.28 " fill="none" style="stroke:#000000;stroke-width:1.5;"/><line style="stroke:#000000;stroke-width:1.5;" x1="1995" x2="2163" y1="1196.5769" y2="1196.5769"/><text fill="#000000" font-family="sans-serif" font-size="14" font-weight="bold" lengthAdjust="spacing" textLength="155" x="1999" y="1189.2751">Espresso Contracts</text></g><!--cluster L2_L1--><g id="cluster_L2_L1"><path d="M2311.5,1166.28 L2442.5,1166.28 A3.75,3.75 0 0 1 2445,1168.78 L2452,1188.5769 L2473.5,1188.5769 A2.5,2.5 0 0 1 2476,1191.0769 L2476,1312.37 A2.5,2.5 0 0 1 2473.5,1314.87 L2311.5,1314.87 A2.5,2.5 0 0 1 2309,1312.37 L2309,1168.78 A2.5,2.5 0 0 1 2311.5,1166.28 " fill="none" style="stroke:#000000;stroke-width:1.5;"/><line style="stroke:#000000;stroke-width:1.5;" x1="2309" x2="2452" y1="1188.5769" y2="1188.5769"/><text fill="#000000" font-family="sans-serif" font-size="14" font-weight="bold" lengthAdjust="spacing" textLength="130" x="2313" y="1181.2751">Rollup Contracts</text></g><!--entity Nodes--><g id="elem_Nodes"><rect fill="#F1F1F1" height="62.5938" rx="2.5" ry="2.5" style="stroke:#181818;stroke-width:0.5;" width="116" x="389" y="696.89"/><rect fill="#F1F1F1" height="10" style="stroke:#181818;stroke-width:0.5;" width="15" x="485" y="701.89"/><rect fill="#F1F1F1" height="2" style="stroke:#181818;stroke-width:0.5;" width="4" x="483" y="703.89"/><rect fill="#F1F1F1" height="2" style="stroke:#181818;stroke-width:0.5;" width="4" x="483" y="707.89"/><text fill="#000000" font-family="sans-serif" font-size="14" lengthAdjust="spacing" textLength="76" x="404" y="729.8851">Sequencer</text><text fill="#000000" font-family="sans-serif" font-size="14" lengthAdjust="spacing" textLength="45" x="404" y="746.182">Nodes</text></g><!--entity Broker--><g id="elem_Broker"><rect fill="#F1F1F1" height="46.2969" rx="2.5" ry="2.5" style="stroke:#181818;stroke-width:0.5;" width="86" x="62" y="915.63"/><rect fill="#F1F1F1" height="10" style="stroke:#181818;stroke-width:0.5;" width="15" x="128" y="920.63"/><rect fill="#F1F1F1" height="2" style="stroke:#181818;stroke-width:0.5;" width="4" x="126" y="922.63"/><rect fill="#F1F1F1" height="2" style="stroke:#181818;stroke-width:0.5;" width="4" x="126" y="926.63"/><text fill="#000000" font-family="sans-serif" font-size="14" lengthAdjust="spacing" textLength="46" x="77" y="948.6251">Broker</text></g><!--entity Marshal--><g id="elem_Marshal"><rect fill="#F1F1F1" height="46.2969" rx="2.5" ry="2.5" style="stroke:#181818;stroke-width:0.5;" width="93" x="352.5" y="915.63"/><rect fill="#F1F1F1" height="10" style="stroke:#181818;stroke-width:0.5;" width="15" x="425.5" y="920.63"/><rect fill="#F1F1F1" height="2" style="stroke:#181818;stroke-width:0.5;" width="4" x="423.5" y="922.63"/><rect fill="#F1F1F1" height="2" style="stroke:#181818;stroke-width:0.5;" width="4" x="423.5" y="926.63"/><text fill="#000000" font-family="sans-serif" font-size="14" lengthAdjust="spacing" textLength="53" x="367.5" y="948.6251">Marshal</text></g><!--entity KeyDB--><g id="elem_KeyDB"><path d="M217,926.13 C217,916.13 250,916.13 250,916.13 C250,916.13 283,916.13 283,926.13 L283,951.4269 C283,961.4269 250,961.4269 250,961.4269 C250,961.4269 217,961.4269 217,951.4269 L217,926.13 " fill="#F1F1F1" style="stroke:#181818;stroke-width:0.5;"/><path d="M217,926.13 C217,936.13 250,936.13 250,936.13 C250,936.13 283,936.13 283,926.13 " fill="none" style="stroke:#181818;stroke-width:0.5;"/><text fill="#000000" font-family="sans-serif" font-size="14" lengthAdjust="spacing" textLength="46" x="227" y="953.1251">KeyDB</text></g><!--entity DB--><g id="elem_DB"><path d="M1897,926.13 C1897,916.13 1938,916.13 1938,916.13 C1938,916.13 1979,916.13 1979,926.13 L1979,951.4269 C1979,961.4269 1938,961.4269 1938,961.4269 C1938,961.4269 1897,961.4269 1897,951.4269 L1897,926.13 " fill="#F1F1F1" style="stroke:#181818;stroke-width:0.5;"/><path d="M1897,926.13 C1897,936.13 1938,936.13 1938,936.13 C1938,936.13 1979,936.13 1979,926.13 " fill="none" style="stroke:#181818;stroke-width:0.5;"/><text fill="#000000" font-family="sans-serif" font-size="14" lengthAdjust="spacing" textLength="62" x="1907" y="953.1251">Postgres</text></g><!--entity HSProver--><g id="elem_HSProver"><rect fill="#F1F1F1" height="62.5938" rx="2.5" ry="2.5" style="stroke:#181818;stroke-width:0.5;" width="137" x="2014.5" y="907.48"/><rect fill="#F1F1F1" height="10" style="stroke:#181818;stroke-width:0.5;" width="15" x="2131.5" y="912.48"/><rect fill="#F1F1F1" height="2" style="stroke:#181818;stroke-width:0.5;" width="4" x="2129.5" y="914.48"/><rect fill="#F1F1F1" height="2" style="stroke:#181818;stroke-width:0.5;" width="4" x="2129.5" y="918.48"/><text fill="#000000" font-family="sans-serif" font-size="14" lengthAdjust="spacing" textLength="95" x="2029.5" y="940.4751">HotShot state</text><text fill="#000000" font-family="sans-serif" font-size="14" lengthAdjust="spacing" textLength="97" x="2029.5" y="956.772">prover service</text></g><!--entity Relay--><g id="elem_Relay"><rect fill="#F1F1F1" height="62.5938" rx="2.5" ry="2.5" style="stroke:#181818;stroke-width:0.5;" width="135" x="1927.5" y="696.89"/><rect fill="#F1F1F1" height="10" style="stroke:#181818;stroke-width:0.5;" width="15" x="2042.5" y="701.89"/><rect fill="#F1F1F1" height="2" style="stroke:#181818;stroke-width:0.5;" width="4" x="2040.5" y="703.89"/><rect fill="#F1F1F1" height="2" style="stroke:#181818;stroke-width:0.5;" width="4" x="2040.5" y="707.89"/><text fill="#000000" font-family="sans-serif" font-size="14" lengthAdjust="spacing" textLength="95" x="1942.5" y="729.8851">HotShot state</text><text fill="#000000" font-family="sans-serif" font-size="14" lengthAdjust="spacing" textLength="85" x="1942.5" y="746.182">relay service</text></g><!--entity Builder--><g id="elem_Builder"><rect fill="#F1F1F1" height="46.2969" rx="2.5" ry="2.5" style="stroke:#181818;stroke-width:0.5;" width="88" x="1973" y="516.59"/><rect fill="#F1F1F1" height="10" style="stroke:#181818;stroke-width:0.5;" width="15" x="2041" y="521.59"/><rect fill="#F1F1F1" height="2" style="stroke:#181818;stroke-width:0.5;" width="4" x="2039" y="523.59"/><rect fill="#F1F1F1" height="2" style="stroke:#181818;stroke-width:0.5;" width="4" x="2039" y="527.59"/><text fill="#000000" font-family="sans-serif" font-size="14" lengthAdjust="spacing" textLength="48" x="1988" y="549.5851">Builder</text></g><text fill="#000000" font-family="sans-serif" font-size="14" lengthAdjust="spacing" textLength="58" x="906.5" y="518.4382">Catchup</text><rect fill="#F1F1F1" height="12" style="stroke:#181818;stroke-width:1.5;" width="12" x="929.5" y="533.74"/><text fill="#000000" font-family="sans-serif" font-size="14" lengthAdjust="spacing" textLength="37" x="1019.5" y="518.4382">HTTP</text><rect fill="#F1F1F1" height="12" style="stroke:#181818;stroke-width:1.5;" width="12" x="1032" y="533.74"/><text fill="#000000" font-family="sans-serif" font-size="14" lengthAdjust="spacing" textLength="44" x="1119" y="518.4382">Status</text><rect fill="#F1F1F1" height="12" style="stroke:#181818;stroke-width:1.5;" width="12" x="1135" y="533.74"/><text fill="#000000" font-family="sans-serif" font-size="14" lengthAdjust="spacing" textLength="48" x="1330" y="518.4382">Submit</text><rect fill="#F1F1F1" height="12" style="stroke:#181818;stroke-width:1.5;" width="12" x="1348" y="533.74"/><text fill="#000000" font-family="sans-serif" font-size="14" lengthAdjust="spacing" textLength="41" x="1209.5" y="518.4382">Query</text><rect fill="#F1F1F1" height="12" style="stroke:#181818;stroke-width:1.5;" width="12" x="1224" y="533.74"/><text fill="#000000" font-family="sans-serif" font-size="14" lengthAdjust="spacing" textLength="55" x="1415.5" y="485.8445">Hotshot</text><text fill="#000000" font-family="sans-serif" font-size="14" lengthAdjust="spacing" textLength="47" x="1419.5" y="502.1414">Events</text><text fill="#000000" font-family="sans-serif" font-size="14" lengthAdjust="spacing" textLength="49" x="1418.5" y="518.4382">Stream</text><rect fill="#F1F1F1" height="12" style="stroke:#181818;stroke-width:1.5;" width="12" x="1437" y="533.74"/><!--entity QS--><g id="elem_QS"><rect fill="#F1F1F1" height="78.8906" rx="2.5" ry="2.5" style="stroke:#181818;stroke-width:0.5;" width="96" x="1311" y="688.74"/><rect fill="#F1F1F1" height="10" style="stroke:#181818;stroke-width:0.5;" width="15" x="1387" y="693.74"/><rect fill="#F1F1F1" height="2" style="stroke:#181818;stroke-width:0.5;" width="4" x="1385" y="695.74"/><rect fill="#F1F1F1" height="2" style="stroke:#181818;stroke-width:0.5;" width="4" x="1385" y="699.74"/><text fill="#000000" font-family="sans-serif" font-size="14" lengthAdjust="spacing" textLength="56" x="1326" y="721.7351">HotShot</text><text fill="#000000" font-family="sans-serif" font-size="14" lengthAdjust="spacing" textLength="41" x="1326" y="738.032">Query</text><text fill="#000000" font-family="sans-serif" font-size="14" lengthAdjust="spacing" textLength="50" x="1326" y="754.3289">Service</text></g><!--entity Libp2p--><g id="elem_Libp2p"><rect fill="#F1F1F1" height="46.2969" rx="2.5" ry="2.5" style="stroke:#181818;stroke-width:0.5;" width="86" x="625" y="516.59"/><rect fill="#F1F1F1" height="10" style="stroke:#181818;stroke-width:0.5;" width="15" x="691" y="521.59"/><rect fill="#F1F1F1" height="2" style="stroke:#181818;stroke-width:0.5;" width="4" x="689" y="523.59"/><rect fill="#F1F1F1" height="2" style="stroke:#181818;stroke-width:0.5;" width="4" x="689" y="527.59"/><text fill="#000000" font-family="sans-serif" font-size="14" lengthAdjust="spacing" textLength="46" x="640" y="549.5851">Libp2p</text></g><!--entity CDN Client--><g id="elem_CDN Client"><rect fill="#F1F1F1" height="46.2969" rx="2.5" ry="2.5" style="stroke:#181818;stroke-width:0.5;" width="114" x="746" y="516.59"/><rect fill="#F1F1F1" height="10" style="stroke:#181818;stroke-width:0.5;" width="15" x="840" y="521.59"/><rect fill="#F1F1F1" height="2" style="stroke:#181818;stroke-width:0.5;" width="4" x="838" y="523.59"/><rect fill="#F1F1F1" height="2" style="stroke:#181818;stroke-width:0.5;" width="4" x="838" y="527.59"/><text fill="#000000" font-family="sans-serif" font-size="14" lengthAdjust="spacing" textLength="74" x="761" y="549.5851">CDN Client</text></g><!--entity Signer--><g id="elem_Signer"><rect fill="#F1F1F1" height="46.2969" rx="2.5" ry="2.5" style="stroke:#181818;stroke-width:0.5;" width="124" x="1518" y="516.59"/><rect fill="#F1F1F1" height="10" style="stroke:#181818;stroke-width:0.5;" width="15" x="1622" y="521.59"/><rect fill="#F1F1F1" height="2" style="stroke:#181818;stroke-width:0.5;" width="4" x="1620" y="523.59"/><rect fill="#F1F1F1" height="2" style="stroke:#181818;stroke-width:0.5;" width="4" x="1620" y="527.59"/><text fill="#000000" font-family="sans-serif" font-size="14" lengthAdjust="spacing" textLength="84" x="1533" y="549.5851">State Signer</text></g><!--entity Validated--><g id="elem_Validated"><rect fill="#F1F1F1" height="46.2969" rx="2.5" ry="2.5" style="stroke:#181818;stroke-width:0.5;" width="139" x="1677.5" y="516.59"/><rect fill="#F1F1F1" height="10" style="stroke:#181818;stroke-width:0.5;" width="15" x="1796.5" y="521.59"/><rect fill="#F1F1F1" height="2" style="stroke:#181818;stroke-width:0.5;" width="4" x="1794.5" y="523.59"/><rect fill="#F1F1F1" height="2" style="stroke:#181818;stroke-width:0.5;" width="4" x="1794.5" y="527.59"/><text fill="#000000" font-family="sans-serif" font-size="14" lengthAdjust="spacing" textLength="99" x="1692.5" y="549.5851">ValidatedState</text></g><!--entity L2_1_RPC--><g id="elem_L2_1_RPC"><rect fill="#F1F1F1" height="46.2969" rx="2.5" ry="2.5" style="stroke:#181818;stroke-width:0.5;" width="172" x="1884" y="225.29"/><rect fill="#F1F1F1" height="10" style="stroke:#181818;stroke-width:0.5;" width="15" x="2036" y="230.29"/><rect fill="#F1F1F1" height="2" style="stroke:#181818;stroke-width:0.5;" width="4" x="2034" y="232.29"/><rect fill="#F1F1F1" height="2" style="stroke:#181818;stroke-width:0.5;" width="4" x="2034" y="236.29"/><text fill="#000000" font-family="sans-serif" font-size="14" lengthAdjust="spacing" textLength="132" x="1899" y="258.2851">API (e.g. JSON-RPC)</text></g><!--entity L2_1_Exec--><g id="elem_L2_1_Exec"><rect fill="#F1F1F1" height="46.2969" rx="2.5" ry="2.5" style="stroke:#181818;stroke-width:0.5;" width="101" x="1747.5" y="225.29"/><rect fill="#F1F1F1" height="10" style="stroke:#181818;stroke-width:0.5;" width="15" x="1828.5" y="230.29"/><rect fill="#F1F1F1" height="2" style="stroke:#181818;stroke-width:0.5;" width="4" x="1826.5" y="232.29"/><rect fill="#F1F1F1" height="2" style="stroke:#181818;stroke-width:0.5;" width="4" x="1826.5" y="236.29"/><text fill="#000000" font-family="sans-serif" font-size="14" lengthAdjust="spacing" textLength="61" x="1762.5" y="258.2851">Executor</text></g><!--entity L2_1_Prover--><g id="elem_L2_1_Prover"><rect fill="#F1F1F1" height="46.2969" rx="2.5" ry="2.5" style="stroke:#181818;stroke-width:0.5;" width="84" x="2091" y="225.29"/><rect fill="#F1F1F1" height="10" style="stroke:#181818;stroke-width:0.5;" width="15" x="2155" y="230.29"/><rect fill="#F1F1F1" height="2" style="stroke:#181818;stroke-width:0.5;" width="4" x="2153" y="232.29"/><rect fill="#F1F1F1" height="2" style="stroke:#181818;stroke-width:0.5;" width="4" x="2153" y="236.29"/><text fill="#000000" font-family="sans-serif" font-size="14" lengthAdjust="spacing" textLength="44" x="2106" y="258.2851">Prover</text></g><!--entity L2_1_State--><g id="elem_L2_1_State"><path d="M1929.5,113 C1929.5,103 1970,103 1970,103 C1970,103 2010.5,103 2010.5,113 L2010.5,138.2969 C2010.5,148.2969 1970,148.2969 1970,148.2969 C1970,148.2969 1929.5,148.2969 1929.5,138.2969 L1929.5,113 " fill="#F1F1F1" style="stroke:#181818;stroke-width:0.5;"/><path d="M1929.5,113 C1929.5,123 1970,123 1970,123 C1970,123 2010.5,123 2010.5,113 " fill="none" style="stroke:#181818;stroke-width:0.5;"/><text fill="#000000" font-family="sans-serif" font-size="14" lengthAdjust="spacing" textLength="61" x="1939.5" y="139.9951">State DB</text></g><!--entity LC_L1--><g id="elem_LC_L1"><rect fill="#F1F1F1" height="62.5938" rx="2.5" ry="2.5" style="stroke:#181818;stroke-width:0.5;" width="116" x="2011" y="1228.28"/><rect fill="#F1F1F1" height="10" style="stroke:#181818;stroke-width:0.5;" width="15" x="2107" y="1233.28"/><rect fill="#F1F1F1" height="2" style="stroke:#181818;stroke-width:0.5;" width="4" x="2105" y="1235.28"/><rect fill="#F1F1F1" height="2" style="stroke:#181818;stroke-width:0.5;" width="4" x="2105" y="1239.28"/><text fill="#000000" font-family="sans-serif" font-size="14" lengthAdjust="spacing" textLength="76" x="2026" y="1261.2751">Light Client</text><text fill="#000000" font-family="sans-serif" font-size="14" lengthAdjust="spacing" textLength="59" x="2026" y="1277.572">Contract</text></g><!--entity Fee_L1--><g id="elem_Fee_L1"><rect fill="#F1F1F1" height="62.5938" rx="2.5" ry="2.5" style="stroke:#181818;stroke-width:0.5;" width="99" x="2161.5" y="1228.28"/><rect fill="#F1F1F1" height="10" style="stroke:#181818;stroke-width:0.5;" width="15" x="2240.5" y="1233.28"/><rect fill="#F1F1F1" height="2" style="stroke:#181818;stroke-width:0.5;" width="4" x="2238.5" y="1235.28"/><rect fill="#F1F1F1" height="2" style="stroke:#181818;stroke-width:0.5;" width="4" x="2238.5" y="1239.28"/><text fill="#000000" font-family="sans-serif" font-size="14" lengthAdjust="spacing" textLength="26" x="2176.5" y="1261.2751">Fee</text><text fill="#000000" font-family="sans-serif" font-size="14" lengthAdjust="spacing" textLength="59" x="2176.5" y="1277.572">Contract</text></g><!--entity L2_1_L1--><g id="elem_L2_1_L1"><rect fill="#F1F1F1" height="62.5938" rx="2.5" ry="2.5" style="stroke:#181818;stroke-width:0.5;" width="99" x="2352.5" y="1228.28"/><rect fill="#F1F1F1" height="10" style="stroke:#181818;stroke-width:0.5;" width="15" x="2431.5" y="1233.28"/><rect fill="#F1F1F1" height="2" style="stroke:#181818;stroke-width:0.5;" width="4" x="2429.5" y="1235.28"/><rect fill="#F1F1F1" height="2" style="stroke:#181818;stroke-width:0.5;" width="4" x="2429.5" y="1239.28"/><text fill="#000000" font-family="sans-serif" font-size="14" lengthAdjust="spacing" textLength="56" x="2367.5" y="1261.2751">Rollup 1</text><text fill="#000000" font-family="sans-serif" font-size="14" lengthAdjust="spacing" textLength="59" x="2367.5" y="1277.572">Contract</text></g><!--entity User--><g id="elem_User"><ellipse cx="2200" cy="531.59" fill="#F1F1F1" rx="12" ry="12" style="stroke:#181818;stroke-width:0.5;"/><line style="stroke:#181818;stroke-width:0.5;" x1="2188" x2="2212" y1="545.59" y2="545.59"/><text fill="#000000" font-family="sans-serif" font-size="14" lengthAdjust="spacing" textLength="32" x="2184" y="560.5851">User</text></g><!--link Broker to KeyDB--><g id="link_Broker_KeyDB"><path d="M148.11,938.78 C170.15,938.78 190.55,938.78 210.96,938.78 " fill="none" id="Broker-to-KeyDB" style="stroke:#181818;stroke-width:1.0;"/><polygon fill="#181818" points="216.96,938.78,207.96,934.78,211.96,938.78,207.96,942.78,216.96,938.78" style="stroke:#181818;stroke-width:1.0;"/><text fill="#000000" font-family="sans-serif" font-size="13" lengthAdjust="spacing" textLength="33" x="166" y="931.8469">state</text></g><!--link KeyDB to Marshal--><g id="link_KeyDB_Marshal"><path d="M283.44,938.78 C303.69,938.78 323.82,938.78 346.11,938.78 " fill="none" id="KeyDB-to-Marshal" style="stroke:#181818;stroke-width:1.0;"/><polygon fill="#181818" points="352.11,938.78,343.11,934.78,347.11,938.78,343.11,942.78,352.11,938.78" style="stroke:#181818;stroke-width:1.0;"/><text fill="#000000" font-family="sans-serif" font-size="13" lengthAdjust="spacing" textLength="33" x="301.25" y="931.8469">state</text></g><!--link Nodes to CDN--><g id="link_Nodes_CDN"><path d="M452.9852,765.8819 C455.3127,780.1619 457.2844,792.2606 460.3898,811.3159 C461.9426,820.8436 463.5375,830.6299 465.1194,840.3367 C465.5149,842.7634 465.9096,845.1851 466.3026,847.5965 C466.4991,848.8023 466.6951,850.0054 466.8907,851.2054 C466.9885,851.8053 466.121,846.4826 466.2185,847.0809 " fill="none" id="Nodes-CDN" style="stroke:#181818;stroke-width:1.0;"/><polygon fill="#181818" points="452.02,759.96,449.5199,769.4863,452.8243,764.8949,457.4157,768.1993,452.02,759.96" style="stroke:#181818;stroke-width:1.0;"/><polygon fill="#181818" points="467.1836,853.0028,469.6839,843.4766,466.3794,848.0679,461.788,844.7634,467.1836,853.0028" style="stroke:#181818;stroke-width:1.0;"/><text fill="#000000" font-family="sans-serif" font-size="13" lengthAdjust="spacing" textLength="68" x="464" y="810.6969">consensus</text><text fill="#000000" font-family="sans-serif" font-size="13" lengthAdjust="spacing" textLength="66" x="465" y="825.8297">messages</text></g><!--link Query to QS--><g id="link_Query_QS"><path d="M1233.45,545.72 C1247.27,565.7 1296.0562,636.2158 1328.6362,683.3058 " fill="none" id="Query-to-QS" style="stroke:#181818;stroke-width:1.0;"/><polygon fill="#181818" points="1332.05,688.24,1330.2188,678.5629,1329.2052,684.1282,1323.6399,683.1146,1332.05,688.24" style="stroke:#181818;stroke-width:1.0;"/></g><!--reverse link Catchup to Nodes--><g id="link_Catchup_Nodes"><path d="M927.0174,549.9726 C917.4974,559.5826 899.25,576.44 876,586.89 C772.4,633.44 732.31,597.69 625,634.89 C579.61,650.62 531.43,676.21 496.66,696.46 " fill="none" id="Catchup-backto-Nodes" style="stroke:#181818;stroke-width:1.0;"/><polygon fill="#181818" points="931.24,545.71,922.0643,549.2887,927.7211,549.2621,927.7478,554.9189,931.24,545.71" style="stroke:#181818;stroke-width:1.0;"/><text fill="#000000" font-family="sans-serif" font-size="13" lengthAdjust="spacing" textLength="49" x="853" y="607.9569">missing</text><text fill="#000000" font-family="sans-serif" font-size="13" lengthAdjust="spacing" textLength="33" x="861" y="623.0897">state</text></g><!--link Libp2p to Nodes--><g id="link_Libp2p_Nodes"><path d="M619.3864,564.4245 C602.2564,573.5645 588.13,582.27 572,594.89 C533.04,625.35 498.8296,663.3911 475.1496,691.9511 " fill="none" id="Libp2p-Nodes" style="stroke:#181818;stroke-width:1.0;"/><polygon fill="#181818" points="624.68,561.6,614.8566,562.3077,620.2687,563.9537,618.6226,569.3658,624.68,561.6" style="stroke:#181818;stroke-width:1.0;"/><polygon fill="#181818" points="471.32,696.57,480.1437,692.1948,474.5114,692.721,473.9852,687.0886,471.32,696.57" style="stroke:#181818;stroke-width:1.0;"/><text fill="#000000" font-family="sans-serif" font-size="13" lengthAdjust="spacing" textLength="68" x="573" y="607.9569">consensus</text><text fill="#000000" font-family="sans-serif" font-size="13" lengthAdjust="spacing" textLength="66" x="574" y="623.0897">messages</text></g><!--link CDN Client to CDN--><g id="link_CDN Client_CDN"><path d="M766.7753,566.559 C753.7653,575.049 743.19,580.82 728,586.89 C711.97,593.28 704.09,584.92 690,594.89 C653.855,620.445 602.135,705.0325 559.1888,783.7913 C537.7156,823.1706 518.4359,861.0928 504.3933,889.4502 C500.8826,896.5395 497.6993,903.031 494.8908,908.7981 C493.4865,911.6816 492.176,914.384 490.9652,916.8894 C490.3597,918.1422 492.3824,913.9398 491.8275,915.092 " fill="none" id="CDN Client-CDN" style="stroke:#181818;stroke-width:1.0;"/><polygon fill="#181818" points="771.8,563.28,762.0769,564.8487,767.6127,566.0125,766.4489,571.5484,771.8,563.28" style="stroke:#181818;stroke-width:1.0;"/><polygon fill="#181818" points="489.2244,920.4979,496.733,914.1245,491.3936,915.993,489.5251,910.6537,489.2244,920.4979" style="stroke:#181818;stroke-width:1.0;"/><text fill="#000000" font-family="sans-serif" font-size="13" lengthAdjust="spacing" textLength="68" x="650" y="725.2469">consensus</text><text fill="#000000" font-family="sans-serif" font-size="13" lengthAdjust="spacing" textLength="66" x="651" y="740.3797">messages</text></g><!--link QS to DB--><g id="link_QS_DB"><path d="M1407.4,765.7 C1408.6,766.37 1409.8,767.01 1411,767.63 C1581.19,855.04 1799.367,908.0952 1890.707,927.9552 " fill="none" id="QS-to-DB" style="stroke:#181818;stroke-width:1.0;"/><polygon fill="#181818" points="1896.57,929.23,1888.6253,923.4091,1891.6842,928.1677,1886.9256,931.2265,1896.57,929.23" style="stroke:#181818;stroke-width:1.0;"/></g><!--link QS to APIs--><!--link Signer to Relay--><g id="link_Signer_Relay"><path d="M1616.91,563.33 C1630.28,571.17 1645.63,579.77 1660,586.89 C1750.4,631.67 1853.0619,673.111 1921.5419,699.521 " fill="none" id="Signer-to-Relay" style="stroke:#181818;stroke-width:1.0;"/><polygon fill="#181818" points="1927.14,701.68,1920.1821,694.7095,1922.4749,699.8809,1917.3035,702.1736,1927.14,701.68" style="stroke:#181818;stroke-width:1.0;"/><text fill="#000000" font-family="sans-serif" font-size="13" lengthAdjust="spacing" textLength="33" x="1742" y="615.4569">state</text></g><!--link Seq to Builder--><g id="link_Seq_Builder"><path d="M1873.1666,539.74 C1873.2533,539.74 1873.3406,539.74 1873.4285,539.74 C1873.7801,539.74 1874.1414,539.74 1874.5121,539.74 C1875.995,539.74 1877.6288,539.74 1879.3969,539.74 C1886.4694,539.74 1895.6925,539.74 1906.0175,539.74 C1926.6675,539.74 1945.725,539.74 1966.8,539.74 " fill="none" id="Seq-to-Builder" style="stroke:#181818;stroke-width:1.0;"/><polygon fill="#181818" points="1972.8,539.74,1963.8,535.74,1967.8,539.74,1963.8,543.74,1972.8,539.74" style="stroke:#181818;stroke-width:1.0;"/><text fill="#000000" font-family="sans-serif" font-size="13" lengthAdjust="spacing" textLength="71" x="1883.68" y="532.8069">claim block</text></g><!--reverse link Seq to Builder--><g id="link_Seq_Builder"><path d="M1878.0014,549.0541 C1878.0872,549.1125 1873.3465,545.8754 1873.4333,545.9343 C1873.607,546.052 1873.7827,546.1707 1873.9606,546.2901 C1875.3832,547.2455 1876.9378,548.2528 1878.5963,549.2737 C1885.23,553.3575 1893.525,557.66 1901.68,559.74 C1924.82,565.63 1951.01,561.91 1972.58,556.14 " fill="none" id="Seq-backto-Builder" style="stroke:#181818;stroke-width:1.0;"/><polygon fill="#181818" points="1873.0462,545.6709,1878.2236,554.0491,1877.1756,548.4902,1882.7345,547.4422,1873.0462,545.6709" style="stroke:#181818;stroke-width:1.0;"/><text fill="#000000" font-family="sans-serif" font-size="13" lengthAdjust="spacing" textLength="33" x="1902.68" y="555.8069">block</text></g><!--link Relay to HSProver--><g id="link_Relay_HSProver"><path d="M2007.98,759.96 C2024.67,799.51 2051.127,862.2322 2067.777,901.6822 " fill="none" id="Relay-to-HSProver" style="stroke:#181818;stroke-width:1.0;"/><polygon fill="#181818" points="2070.11,907.21,2070.2957,897.3629,2068.1658,902.6035,2062.9252,900.4736,2070.11,907.21" style="stroke:#181818;stroke-width:1.0;"/><text fill="#000000" font-family="sans-serif" font-size="13" lengthAdjust="spacing" textLength="33" x="2037" y="818.1969">state</text></g><!--link Events to Builder--><g id="link_Events_Builder"><path d="M1443.07,533.87 C1443.71,510.15 1449.64,420.95 1502,384.86 C1571.35,337.07 1804.27,350.13 1881,384.86 C1940.98,412.02 1982.0955,474.8999 2002.1055,511.0699 " fill="none" id="Events-to-Builder" style="stroke:#181818;stroke-width:1.0;"/><polygon fill="#181818" points="2005.01,516.32,2004.1534,506.5085,2002.5896,511.9449,1997.1532,510.3811,2005.01,516.32" style="stroke:#181818;stroke-width:1.0;"/><text fill="#000000" font-family="sans-serif" font-size="13" lengthAdjust="spacing" textLength="79" x="1681.5" y="340.6569">transactions</text></g><!--reverse link L2_1_RPC to User--><g id="link_L2_1_RPC_User"><path d="M2003.2835,275.4554 C2023.2835,290.4254 2046.33,306.17 2073,319.59 C2112.93,339.68 2139.09,318.5 2168,352.59 C2207.55,399.23 2206.46,476.71 2202.95,515.34 " fill="none" id="L2_1_RPC-backto-User" style="stroke:#181818;stroke-width:1.0;"/><polygon fill="#181818" points="1998.48,271.86,2003.2883,280.4554,2002.4829,274.8562,2008.0821,274.0508,1998.48,271.86" style="stroke:#181818;stroke-width:1.0;"/><text fill="#000000" font-family="sans-serif" font-size="13" lengthAdjust="spacing" textLength="4" x="2160" y="340.6569">&#160;</text><text fill="#000000" font-family="sans-serif" font-size="13" lengthAdjust="spacing" textLength="4" x="2000.9345" y="291.4802">&#160;</text><text fill="#000000" font-family="sans-serif" font-size="13" lengthAdjust="spacing" textLength="83" x="2111.3959" y="489.3084">transactions,</text><text fill="#000000" font-family="sans-serif" font-size="13" lengthAdjust="spacing" textLength="84" x="2110.8959" y="504.4412">state queries</text></g><!--link L2_1_RPC to Submit--><g id="link_L2_1_RPC_Submit"><path d="M1945.22,272.02 C1925.39,288.55 1896.01,309.75 1866,319.59 C1844.97,326.48 1689.08,326.12 1667,327.59 C1607.32,331.57 1444.23,313.45 1399,352.59 C1341.93,401.97 1350.0132,504.1783 1352.7232,528.0483 " fill="none" id="L2_1_RPC-to-Submit" style="stroke:#181818;stroke-width:1.0;"/><polygon fill="#181818" points="1353.4,534.01,1356.3592,524.6162,1352.836,529.0419,1348.4103,525.5187,1353.4,534.01" style="stroke:#181818;stroke-width:1.0;"/><text fill="#000000" font-family="sans-serif" font-size="13" lengthAdjust="spacing" textLength="4" x="1668" y="340.6569">&#160;</text><text fill="#000000" font-family="sans-serif" font-size="13" lengthAdjust="spacing" textLength="72" x="1861.2539" y="291.7088">transaction</text><text fill="#000000" font-family="sans-serif" font-size="13" lengthAdjust="spacing" textLength="67" x="1863.7539" y="306.8416">Rollup 1 ID</text><text fill="#000000" font-family="sans-serif" font-size="13" lengthAdjust="spacing" textLength="4" x="1347.7425" y="522.6851">&#160;</text></g><!--reverse link L2_1_Exec to Query--><g id="link_L2_1_Exec_Query"><path d="M1741.3917,254.8664 C1630.5317,266.3164 1376.89,297.76 1310,352.59 C1248.52,402.98 1233.24,509.48 1230.51,533.74 " fill="none" id="L2_1_Exec-backto-Query" style="stroke:#181818;stroke-width:1.0;"/><polygon fill="#181818" points="1747.36,254.25,1737.9967,251.1958,1742.3865,254.7637,1738.8186,259.1535,1747.36,254.25" style="stroke:#181818;stroke-width:1.0;"/><text fill="#000000" font-family="sans-serif" font-size="13" lengthAdjust="spacing" textLength="34" x="1354" y="340.6569">Block</text></g><!--link HSProver to LC_L1--><g id="link_HSProver_LC_L1"><path d="M2081.66,970.34 C2078.98,1031.28 2073.273,1161.2458 2070.603,1222.1058 " fill="none" id="HSProver-to-LC_L1" style="stroke:#181818;stroke-width:1.0;"/><polygon fill="#181818" points="2070.34,1228.1,2074.7306,1219.284,2070.5591,1223.1048,2066.7383,1218.9333,2070.34,1228.1" style="stroke:#181818;stroke-width:1.0;"/><text fill="#000000" font-family="sans-serif" font-size="13" lengthAdjust="spacing" textLength="53" x="2078" y="1065.3469">HotShot</text><text fill="#000000" font-family="sans-serif" font-size="13" lengthAdjust="spacing" textLength="33" x="2088" y="1080.4797">state</text><text fill="#000000" font-family="sans-serif" font-size="13" lengthAdjust="spacing" textLength="33" x="2088" y="1095.6125">proof</text></g><!--link L2_1_Prover to L2_1_L1--><g id="link_L2_1_Prover_L2_1_L1"><path d="M2175.42,270.8 C2250.04,311.75 2397,408.87 2397,538.74 C2397,538.74 2397,538.74 2397,939.78 C2397,1045.5 2399.6303,1164.9219 2401.0503,1221.8019 " fill="none" id="L2_1_Prover-to-L2_1_L1" style="stroke:#181818;stroke-width:1.0;"/><polygon fill="#181818" points="2401.2,1227.8,2404.9741,1218.703,2401.0752,1222.8016,2396.9766,1218.9026,2401.2,1227.8" style="stroke:#181818;stroke-width:1.0;"/><text fill="#000000" font-family="sans-serif" font-size="13" lengthAdjust="spacing" textLength="35" x="2398" y="717.7469">rollup</text><text fill="#000000" font-family="sans-serif" font-size="13" lengthAdjust="spacing" textLength="33" x="2399" y="732.8797">state</text><text fill="#000000" font-family="sans-serif" font-size="13" lengthAdjust="spacing" textLength="33" x="2399" y="748.0125">proof</text></g><!--link LC_L1 to L2_L1--><g id="link_LC_L1_L2_L1"><path d="M2074.19,1228.13 C2083.25,1184.71 2106.54,1108.11 2161.5,1075.78 C2199.04,1053.69 2221.96,1053.69 2259.5,1075.78 C2277.365,1086.2925 2289.9494,1102.4931 2298.763,1121.0102 C2303.1698,1130.2687 2306.6339,1140.1063 2309.344,1150.1015 C2310.6991,1155.0992 2311.8656,1160.1362 2312.8673,1165.16 C2312.9299,1165.474 2311.8414,1159.8992 2311.9027,1160.2131 " fill="none" id="LC_L1-to-L2_L1" style="stroke:#181818;stroke-width:1.0;"/><polygon fill="#181818" points="2313.0532,1166.1018,2315.2532,1156.5018,2312.0945,1161.1945,2307.4017,1158.0358,2313.0532,1166.1018" style="stroke:#181818;stroke-width:1.0;"/></g><!--link L2_1_State to L2_1_RPC--><g id="link_L2_1_State_L2_1_RPC"><path d="M1970,148.52 C1970,170.14 1970,197.06 1970,218.91 " fill="none" id="L2_1_State-to-L2_1_RPC" style="stroke:#181818;stroke-width:1.0;"/><polygon fill="#181818" points="1970,224.91,1974,215.91,1970,219.91,1966,215.91,1970,224.91" style="stroke:#181818;stroke-width:1.0;"/><text fill="#000000" font-family="sans-serif" font-size="13" lengthAdjust="spacing" textLength="69" x="1971" y="191.3569">Read state</text></g><!--reverse link L2_1_State to L2_1_Exec--><g id="link_L2_1_State_L2_1_Exec"><path d="M1930.4426,151.8295 C1916.5026,160.8495 1905.38,168.26 1891,178.29 C1869.38,193.37 1845.54,211.13 1827.4,224.87 " fill="none" id="L2_1_State-backto-L2_1_Exec" style="stroke:#181818;stroke-width:1.0;"/><polygon fill="#181818" points="1935.48,148.57,1925.7509,150.101,1931.2821,151.2863,1930.0969,156.8175,1935.48,148.57" style="stroke:#181818;stroke-width:1.0;"/><text fill="#000000" font-family="sans-serif" font-size="13" lengthAdjust="spacing" textLength="69" x="1892" y="191.3569">Write state</text></g><!--link L2_1_State to L2_1_Prover--><g id="link_L2_1_State_L2_1_Prover"><path d="M2005.56,148.72 C2019.36,157.58 2035.14,168.1 2049,178.29 C2069.09,193.06 2086.2222,207.0896 2102.5422,220.9896 " fill="none" id="L2_1_State-to-L2_1_Prover" style="stroke:#181818;stroke-width:1.0;"/><polygon fill="#181818" points="2107.11,224.88,2102.852,215.9992,2103.3035,221.638,2097.6647,222.0895,2107.11,224.88" style="stroke:#181818;stroke-width:1.0;"/><text fill="#000000" font-family="sans-serif" font-size="13" lengthAdjust="spacing" textLength="71" x="2071" y="191.3569">Read State</text></g><!--link Builder to Fee_L1--><g id="link_Builder_Fee_L1"><path d="M2061.42,556.64 C2091,566.66 2130.9,579.14 2167,586.89 C2181.01,589.89 2220.73,584.89 2231,594.89 C2409.67,768.73 2274.6481,1116.9677 2227.6581,1222.6277 " fill="none" id="Builder-to-Fee_L1" style="stroke:#181818;stroke-width:1.0;"/><polygon fill="#181818" points="2225.22,1228.11,2232.5321,1221.512,2227.2518,1223.5414,2225.2223,1218.2611,2225.22,1228.11" style="stroke:#181818;stroke-width:1.0;"/><text fill="#000000" font-family="sans-serif" font-size="13" lengthAdjust="spacing" textLength="47" x="2320" y="810.6969">deposit</text><text fill="#000000" font-family="sans-serif" font-size="13" lengthAdjust="spacing" textLength="20" x="2333.5" y="825.8297">fee</text></g><!--reverse link Validated to Fee_L1--><g id="link_Validated_Fee_L1"><path d="M1780.0521,566.6912 C1793.1921,575.8512 1804.61,581.99 1821,586.89 C1839.48,592.41 2154.08,581.54 2168,594.89 C2259.66,682.81 2225.54,1109.76 2214.13,1228.11 " fill="none" id="Validated-backto-Fee_L1" style="stroke:#181818;stroke-width:1.0;"/><polygon fill="#181818" points="1775.13,563.26,1780.2256,571.6882,1779.2317,566.1193,1784.8006,565.1254,1775.13,563.26" style="stroke:#181818;stroke-width:1.0;"/><text fill="#000000" font-family="sans-serif" font-size="13" lengthAdjust="spacing" textLength="20" x="2245" y="810.6969">fee</text><text fill="#000000" font-family="sans-serif" font-size="13" lengthAdjust="spacing" textLength="54" x="2228" y="825.8297">deposits</text></g><!--SRC=[XLTjR-Cs3FxkNq7aIrfW2T3ivKCm7B2c7NfhvakRwmsuPIXKMqc4Ef9FajiB3ltlezviERRH5WWKYgJ8X-GZfIJPCzbH65shKbAb1ApfjuhoZ4f8gNuLyda4H8Kr_4W0_p9nA0MdNCEeLj_mLEHKEMspifgbzx-uIhrjs_vIYcSgUpR-9bBjIL7lv4IJ9w8etDBZrQKLloLlIJ8sdfVaA2gTE6Sm-U2Kvg0qqJInNupK-mno6oNyFi4TT3B7mxcYN5Lgmmy81OQjagGS1iYcMejTTdMOevLGUYSz83xYsba4CWPXLL3KYz3eZzL7TD9iMKT2QbWGdUshihjny_dpgYjTOzALwf5NJmUck_AxYifZLpow4LhjXTxmwnUC3y5QQqd9mQ5XHIsZA1EqN5jBwneDgNnXcKl_RbrRlVMXu1kGyTtenu3_9NigP-NGuQPF5WN3zIWwgLw6qXYKgAs7NGoTDNBRQxRZlX7SSaZz2oaOzWRDhPqrg4KdYRyb_R2vhjtmKeeNR1mLWNUpNbdXEvQI5kJOChmtabEhoueLkS_AhwsAhHgOSS5Y8NHkVYPLQGR8zU8S3amfBDA6jsVCAha2zGzQN9_tPl9kRQF0eHgRvRzxbkUK_rVGhKQnBqIyaujNZZjcafAnL-Zi8dkGF2DA9q71RrYG0ccOCPr8jjkRepmw66P1s06U2f4z9rRT1XZA4cpnxFgGY8zEnPuJ4pTC49-Z9U6AP9eXB8cNmYGaJh_DVGmDRI4reihCqT1orYNmUr4KLGaNNk7nOf25u8nETrFuQ_qfdTol5kUrnID-wx6v_awpIWjPgnb1Zvu3gTQAMhdDg6xahYwRSwqa6ffnJsApe3uRL4c3IefjtH2-tbD9gmCu23r00PxklR0G7CkJQHNkXSVb09PBqpw-sJSys3d_2xJgi_cJqXDLb0JTjtP8FgrsG9ZUK3oX1KvZCH17qVIYsxMPlMUJTctI9XCa5bHc-WWFo5I9-O39WwKFtsemXr4y23zviW6yKoKpDox-ur1nWJ8xgY2sK33-ZCABAOuTF-B4CZjTojv-xS4Qsz2r04golHaQnGvLeGcdebB54SwsGdeb77nfOXMyC1yK6BhS8s-SemBbkGqYIUhG3Isu2_SaYmqFLO2FLwqCj2YZ-6TJ34W1Hl1APDwAsqIimiDYsZhVKtTLmsX64IEuj6mnXfFzsV1M6ctr0lppD7f2ubsLLndU09QMaCic7ZSXaRbeZaOAYu3MSI9JhsGIbJIZx8K61mHJefPNQ2XJZ0320ZYsJ8AqQBPH27nSCxkTDaoeVfWqLwpO3YNuIoj1eMmJPHdZcJRDZgKzO6SrJMGZDuibzbveVC0ms1QR5S9P5fLjA21UeN1sLmc9_BEWKgDkXg6T1xTxol5I4SWyPktFQ4wVThilfFuXp3NcxK3gf6qxm7U2KrmxXLMZa7g5j5UX5xXVf-1wN5dOe2hjyyTTZXuWdz_NsudqgeXhKUNu97D8dMHc2-WYGGRn1py9hSKXElctSB9vJpXEnCOYEMGEMXE4BsbJYLDCiRiaUgqdB320zpY5BwQanv2EQKjckjB57LY5x0X3lB5gXYcyBpZxUdj_ZaC1hmIPeQ6NhIHLxXmCMNwwVpXlWsBgWpIIKqrOeHhkiQ-mwEB4ijqR4DpZfA65Y2Q2tZz8SZHMzDqqv78TtZl-bzcu8U_wsILZBl8QdTrPtOud6sdmkUmnShqGshTZ6hQZ9w3PCKBxl0lIokgVIhrky_p2x-ukdYFcsDaCYMHBQUA47ixwjJ-7hRdAlQPA_WS0]--></g></svg>