<?xml version="1.0" encoding="UTF-8" standalone="no"?><svg xmlns="http://www.w3.org/2000/svg" xmlns:xlink="http://www.w3.org/1999/xlink" contentStyleType="text/css" height="1165px" preserveAspectRatio="none" style="width:1488px;height:1165px;background:#FFFFFF;" version="1.1" viewBox="0 0 1488 1165" width="1488px" zoomAndPan="magnify"><defs/><g><!--cluster Legend--><g id="cluster_Legend"><rect fill="none" height="87" rx="2.5" ry="2.5" style="stroke:#181818;stroke-width:1.0;" width="472" x="7" y="151"/><path d="M76,151 L76,160.2969 L66,170.2969 L7,170.2969 " fill="none" style="stroke:#181818;stroke-width:1.0;"/><text fill="#000000" font-family="sans-serif" font-size="14" font-weight="bold" lengthAdjust="spacing" textLength="59" x="10" y="164.9951">Legend</text></g><!--cluster HotShotExternal--><g id="cluster_HotShotExternal"><path d="M916.5,135 L1053.5,135 A3.75,3.75 0 0 1 1056,137.5 L1063,173.5938 L1063.5,173.5938 A2.5,2.5 0 0 1 1066,176.0938 L1066,235.5 A2.5,2.5 0 0 1 1063.5,238 L916.5,238 A2.5,2.5 0 0 1 914,235.5 L914,137.5 A2.5,2.5 0 0 1 916.5,135 " fill="none" style="stroke:#000000;stroke-width:1.5;"/><line style="stroke:#000000;stroke-width:1.5;" x1="914" x2="1063" y1="173.5938" y2="173.5938"/><text fill="#000000" font-family="sans-serif" font-size="14" font-weight="bold" lengthAdjust="spacing" textLength="63" x="954.5" y="149.9951">HotShot</text><text fill="#000000" font-family="sans-serif" font-size="14" font-weight="bold" lengthAdjust="spacing" textLength="136" x="918" y="166.292">(other instances)</text></g><!--cluster Decentralized Sequencer--><g id="cluster_Decentralized Sequencer"><path d="M505.5,6 L706.5,6 A3.75,3.75 0 0 1 709,8.5 L716,28.2969 L887.5,28.2969 A2.5,2.5 0 0 1 890,30.7969 L890,414.5 A2.5,2.5 0 0 1 887.5,417 L505.5,417 A2.5,2.5 0 0 1 503,414.5 L503,8.5 A2.5,2.5 0 0 1 505.5,6 " fill="none" style="stroke:#000000;stroke-width:1.5;"/><line style="stroke:#000000;stroke-width:1.5;" x1="503" x2="716" y1="28.2969" y2="28.2969"/><text fill="#000000" font-family="sans-serif" font-size="14" font-weight="bold" lengthAdjust="spacing" textLength="200" x="507" y="20.9951">Decentralized Sequencer</text></g><!--cluster zkApp--><g id="cluster_zkApp"><path d="M529.5,49 L615.5,49 A3.75,3.75 0 0 1 618,51.5 L625,71.2969 L863.5,71.2969 A2.5,2.5 0 0 1 866,73.7969 L866,390.5 A2.5,2.5 0 0 1 863.5,393 L529.5,393 A2.5,2.5 0 0 1 527,390.5 L527,51.5 A2.5,2.5 0 0 1 529.5,49 " fill="none" style="stroke:#000000;stroke-width:1.5;"/><line style="stroke:#000000;stroke-width:1.5;" x1="527" x2="625" y1="71.2969" y2="71.2969"/><text fill="#000000" font-family="sans-serif" font-size="14" font-weight="bold" lengthAdjust="spacing" textLength="85" x="531" y="63.9951">zkEVM app</text></g><!--cluster App--><g id="cluster_App"><path d="M561.5,100 L767.5,100 A3.75,3.75 0 0 1 770,102.5 L777,122.2969 L831.5,122.2969 A2.5,2.5 0 0 1 834,124.7969 L834,267.5 A2.5,2.5 0 0 1 831.5,270 L561.5,270 A2.5,2.5 0 0 1 559,267.5 L559,102.5 A2.5,2.5 0 0 1 561.5,100 " fill="none" style="stroke:#000000;stroke-width:1.5;"/><line style="stroke:#000000;stroke-width:1.5;" x1="559" x2="777" y1="122.2969" y2="122.2969"/><text fill="#000000" font-family="sans-serif" font-size="14" font-weight="bold" lengthAdjust="spacing" textLength="205" x="563" y="114.9951">Txn-ordering HotShot app</text></g><!--cluster HotShot--><g id="cluster_HotShot"><path d="M601.5,151 L665.5,151 A3.75,3.75 0 0 1 668,153.5 L675,173.2969 L799.5,173.2969 A2.5,2.5 0 0 1 802,175.7969 L802,235.5 A2.5,2.5 0 0 1 799.5,238 L601.5,238 A2.5,2.5 0 0 1 599,235.5 L599,153.5 A2.5,2.5 0 0 1 601.5,151 " fill="none" style="stroke:#000000;stroke-width:1.5;"/><line style="stroke:#000000;stroke-width:1.5;" x1="599" x2="675" y1="173.2969" y2="173.2969"/><text fill="#000000" font-family="sans-serif" font-size="14" font-weight="bold" lengthAdjust="spacing" textLength="63" x="603" y="165.9951">HotShot</text></g><!--cluster L1--><g id="cluster_L1"><path d="M264.5,981 L365.5,981 A3.75,3.75 0 0 1 368,983.5 L375,1003.2969 L452.5,1003.2969 A2.5,2.5 0 0 1 455,1005.7969 L455,1081.5 A2.5,2.5 0 0 1 452.5,1084 L264.5,1084 A2.5,2.5 0 0 1 262,1081.5 L262,983.5 A2.5,2.5 0 0 1 264.5,981 " fill="none" style="stroke:#000000;stroke-width:1.5;"/><line style="stroke:#000000;stroke-width:1.5;" x1="262" x2="375" y1="1003.2969" y2="1003.2969"/><text fill="#000000" font-family="sans-serif" font-size="14" font-weight="bold" lengthAdjust="spacing" textLength="100" x="266" y="995.9951">Ethereum L1</text></g><!--cluster L2--><g id="cluster_L2"><path d="M489.5,466 L623.5,466 A3.75,3.75 0 0 1 626,468.5 L633,488.2969 L1251.5,488.2969 A2.5,2.5 0 0 1 1254,490.7969 L1254,1082 A2.5,2.5 0 0 1 1251.5,1084.5 L489.5,1084.5 A2.5,2.5 0 0 1 487,1082 L487,468.5 A2.5,2.5 0 0 1 489.5,466 " fill="none" style="stroke:#000000;stroke-width:1.5;"/><line style="stroke:#000000;stroke-width:1.5;" x1="487" x2="633" y1="488.2969" y2="488.2969"/><text fill="#000000" font-family="sans-serif" font-size="14" font-weight="bold" lengthAdjust="spacing" textLength="133" x="491" y="480.9951">L2 (zkevm-node)</text></g><!--cluster HermezProver--><g id="cluster_HermezProver"><path d="M728.5,811 L848.5,811 A3.75,3.75 0 0 1 851,813.5 L858,833.2969 L1073.5,833.2969 A2.5,2.5 0 0 1 1076,835.7969 L1076,921.5 A2.5,2.5 0 0 1 1073.5,924 L728.5,924 A2.5,2.5 0 0 1 726,921.5 L726,813.5 A2.5,2.5 0 0 1 728.5,811 " fill="none" style="stroke:#000000;stroke-width:1.5;"/><line style="stroke:#000000;stroke-width:1.5;" x1="726" x2="858" y1="833.2969" y2="833.2969"/><text fill="#000000" font-family="sans-serif" font-size="14" font-weight="bold" lengthAdjust="spacing" textLength="119" x="730" y="825.9951">Hermez Prover</text></g><!--entity Original--><g id="elem_Original"><rect fill="#98FB98" height="36.2969" rx="2.5" ry="2.5" style="stroke:#181818;stroke-width:0.5;" width="151" x="107.5" y="186"/><text fill="#000000" font-family="sans-serif" font-size="14" lengthAdjust="spacing" textLength="131" x="117.5" y="208.9951">zkevm-node "as is"</text></g><!--entity Modified--><g id="elem_Modified"><rect fill="#FFB6C1" height="36.2969" rx="2.5" ry="2.5" style="stroke:#181818;stroke-width:0.5;" width="169" x="293.5" y="186"/><text fill="#000000" font-family="sans-serif" font-size="14" lengthAdjust="spacing" textLength="149" x="303.5" y="208.9951">zkevm-node modified</text></g><!--entity New--><g id="elem_New"><rect fill="#F1F1F1" height="36.2969" rx="2.5" ry="2.5" style="stroke:#181818;stroke-width:0.5;" width="49" x="23.5" y="186"/><text fill="#000000" font-family="sans-serif" font-size="14" lengthAdjust="spacing" textLength="29" x="33.5" y="208.9951">new</text></g><!--entity GossipExternal--><g id="elem_GossipExternal"><rect fill="#F1F1F1" height="36.2969" rx="2.5" ry="2.5" style="stroke:#181818;stroke-width:0.5;" width="68" x="930" y="186"/><text fill="#000000" font-family="sans-serif" font-size="14" lengthAdjust="spacing" textLength="48" x="940" y="208.9951">Gossip</text></g><!--entity QueryService--><g id="elem_QueryService"><rect fill="#F1F1F1" height="36.2969" rx="2.5" ry="2.5" style="stroke:#181818;stroke-width:0.5;" width="115" x="671.5" y="341"/><text fill="#000000" font-family="sans-serif" font-size="14" lengthAdjust="spacing" textLength="95" x="681.5" y="363.9951">Query Service</text></g><!--entity Submit--><g id="elem_Submit"><rect fill="#F1F1F1" height="36.2969" rx="2.5" ry="2.5" style="stroke:#181818;stroke-width:0.5;" width="93" x="543.5" y="341"/><text fill="#000000" font-family="sans-serif" font-size="14" lengthAdjust="spacing" textLength="73" x="553.5" y="363.9951">Submit API</text></g><!--entity GossipInternal--><g id="elem_GossipInternal"><rect fill="#F1F1F1" height="36.2969" rx="2.5" ry="2.5" style="stroke:#181818;stroke-width:0.5;" width="68" x="718" y="186"/><text fill="#000000" font-family="sans-serif" font-size="14" lengthAdjust="spacing" textLength="48" x="728" y="208.9951">Gossip</text></g><!--entity HotShotEvents--><g id="elem_HotShotEvents"><rect fill="#F1F1F1" height="36.2969" rx="2.5" ry="2.5" style="stroke:#181818;stroke-width:0.5;" width="67" x="615.5" y="186"/><text fill="#000000" font-family="sans-serif" font-size="14" lengthAdjust="spacing" textLength="47" x="625.5" y="208.9951">Events</text></g><!--entity Rollup--><g id="elem_Rollup"><rect fill="#FFB6C1" height="36.2969" rx="2.5" ry="2.5" style="stroke:#181818;stroke-width:0.5;" width="126" x="286" y="1024"/><text fill="#000000" font-family="sans-serif" font-size="14" lengthAdjust="spacing" textLength="106" x="296" y="1046.9951">Rollup Contract</text></g><!--entity JsonRPC--><g id="elem_JsonRPC"><rect fill="#98FB98" height="36.2969" rx="2.5" ry="2.5" style="stroke:#181818;stroke-width:0.5;" width="78" x="1155" y="510.5"/><text fill="#000000" font-family="sans-serif" font-size="14" lengthAdjust="spacing" textLength="58" x="1165" y="533.4951">JsonRPC</text></g><g id="elem_GMN23"><path d="M856,501 L856,556.3984 A0,0 0 0 0 856,556.3984 L1120,556.3984 A0,0 0 0 0 1120,556.3984 L1120,532.5 L1154.6,528.5 L1120,524.5 L1120,511 L1110,501 L856,501 A0,0 0 0 0 856,501 " fill="#FEFFDD" style="stroke:#181818;stroke-width:0.5;"/><path d="M1110,501 L1110,511 L1120,511 L1110,501 " fill="#FEFFDD" style="stroke:#181818;stroke-width:0.5;"/><text fill="#000000" font-family="sans-serif" font-size="13" lengthAdjust="spacing" textLength="220" x="862" y="518.0669">Configured to forward transactions</text><text fill="#000000" font-family="sans-serif" font-size="13" lengthAdjust="spacing" textLength="243" x="862" y="533.1997">to the Submit API of the decentralized</text><text fill="#000000" font-family="sans-serif" font-size="13" lengthAdjust="spacing" textLength="71" x="862" y="548.3325">sequencer.</text></g><!--entity L2DB--><g id="elem_L2DB"><path d="M1098,678 C1098,668 1168,668 1168,668 C1168,668 1238,668 1238,678 L1238,703.2969 C1238,713.2969 1168,713.2969 1168,713.2969 C1168,713.2969 1098,713.2969 1098,703.2969 L1098,678 " fill="#98FB98" style="stroke:#181818;stroke-width:0.5;"/><path d="M1098,678 C1098,688 1168,688 1168,688 C1168,688 1238,688 1238,678 " fill="none" style="stroke:#181818;stroke-width:0.5;"/><text fill="#000000" font-family="sans-serif" font-size="14" lengthAdjust="spacing" textLength="120" x="1108" y="704.9951">L2 Blockchain DB</text></g><!--entity Etherman--><g id="elem_Etherman"><rect fill="#FFB6C1" height="36.2969" rx="2.5" ry="2.5" style="stroke:#181818;stroke-width:0.5;" width="87" x="715.5" y="672.5"/><text fill="#000000" font-family="sans-serif" font-size="14" lengthAdjust="spacing" textLength="67" x="725.5" y="695.4951">Etherman</text></g><g id="elem_GMN32"><path d="M503.5,663 L503.5,718.3984 A0,0 0 0 0 503.5,718.3984 L680.5,718.3984 A0,0 0 0 0 680.5,718.3984 L680.5,694.5 L715.27,690.5 L680.5,686.5 L680.5,673 L670.5,663 L503.5,663 A0,0 0 0 0 503.5,663 " fill="#FEFFDD" style="stroke:#181818;stroke-width:0.5;"/><path d="M670.5,663 L670.5,673 L680.5,673 L670.5,663 " fill="#FEFFDD" style="stroke:#181818;stroke-width:0.5;"/><text fill="#000000" font-family="sans-serif" font-size="13" lengthAdjust="spacing" textLength="152" x="509.5" y="680.0669">Alternatively a separate</text><text fill="#000000" font-family="sans-serif" font-size="13" lengthAdjust="spacing" textLength="156" x="509.5" y="695.1997">service for posting of QC</text><text fill="#000000" font-family="sans-serif" font-size="13" lengthAdjust="spacing" textLength="56" x="509.5" y="710.3325">to rollup.</text></g><!--entity Aggregator--><g id="elem_Aggregator"><rect fill="#98FB98" height="36.2969" rx="2.5" ry="2.5" style="stroke:#181818;stroke-width:0.5;" width="97" x="723.5" y="510.5"/><text fill="#000000" font-family="sans-serif" font-size="14" lengthAdjust="spacing" textLength="77" x="733.5" y="533.4951">Aggregator</text></g><!--entity State--><g id="elem_State"><rect fill="#98FB98" height="52.5938" rx="2.5" ry="2.5" style="stroke:#181818;stroke-width:0.5;" width="64" x="968" y="664"/><text fill="#000000" font-family="sans-serif" font-size="14" lengthAdjust="spacing" textLength="36" x="978" y="686.9951">State</text><text fill="#000000" font-family="sans-serif" font-size="14" lengthAdjust="spacing" textLength="44" x="978" y="703.292">Library</text></g><!--entity Broadcast--><g id="elem_Broadcast"><rect fill="#F1F1F1" height="52.5938" rx="2.5" ry="2.5" style="stroke:#181818;stroke-width:0.5;" width="144" x="1090" y="1015.5"/><text fill="#000000" font-family="sans-serif" font-size="14" lengthAdjust="spacing" textLength="115" x="1100" y="1038.4951">HotShot-Hermez</text><text fill="#000000" font-family="sans-serif" font-size="14" lengthAdjust="spacing" textLength="124" x="1100" y="1054.792">Broadcast Service</text></g><!--entity Synchronizer--><g id="elem_Synchronizer"><rect fill="#98FB98" height="36.2969" rx="2.5" ry="2.5" style="stroke:#181818;stroke-width:0.5;" width="110" x="1095" y="859"/><text fill="#000000" font-family="sans-serif" font-size="14" lengthAdjust="spacing" textLength="90" x="1105" y="881.9951">Synchronizer</text></g><!--entity Prover--><g id="elem_Prover"><rect fill="#98FB98" height="36.2969" rx="2.5" ry="2.5" style="stroke:#181818;stroke-width:0.5;" width="64" x="742" y="859"/><text fill="#000000" font-family="sans-serif" font-size="14" lengthAdjust="spacing" textLength="44" x="752" y="881.9951">Prover</text></g><!--entity Executor--><g id="elem_Executor"><rect fill="#98FB98" height="36.2969" rx="2.5" ry="2.5" style="stroke:#181818;stroke-width:0.5;" width="81" x="841.5" y="859"/><text fill="#000000" font-family="sans-serif" font-size="14" lengthAdjust="spacing" textLength="61" x="851.5" y="881.9951">Executor</text></g><!--entity Tree--><g id="elem_Tree"><path d="M958,856 C958,846 1009,846 1009,846 C1009,846 1060,846 1060,856 L1060,897.5938 C1060,907.5938 1009,907.5938 1009,907.5938 C1009,907.5938 958,907.5938 958,897.5938 L958,856 " fill="#98FB98" style="stroke:#181818;stroke-width:0.5;"/><path d="M958,856 C958,866 1009,866 1009,866 C1009,866 1060,866 1060,856 " fill="none" style="stroke:#181818;stroke-width:0.5;"/><text fill="#000000" font-family="sans-serif" font-size="14" lengthAdjust="spacing" textLength="81" x="968" y="882.9951">L2 State DB</text><text fill="#000000" font-family="sans-serif" font-size="14" lengthAdjust="spacing" textLength="82" x="968" y="899.292">Merkle Tree</text></g><!--entity User--><g id="elem_User"><rect fill="#FFFFFF" height="36.2969" rx="2.5" ry="2.5" style="stroke:#181818;stroke-width:0.5;" width="52" x="1338" y="510.5"/><text fill="#000000" font-family="sans-serif" font-size="14" lengthAdjust="spacing" textLength="32" x="1348" y="533.4951">User</text></g><!--link New to Original--><!--link Original to Modified--><!--link User to JsonRPC--><g id="link_User_JsonRPC"><path d="M1337.74,528.5 C1311.61,528.5 1270.98,528.5 1239.58,528.5 " fill="none" id="User-to-JsonRPC" style="stroke:#181818;stroke-width:1.0;"/><polygon fill="#181818" points="1234.94,528.5,1243.94,532.5,1239.94,528.5,1243.94,524.5,1234.94,528.5" style="stroke:#181818;stroke-width:1.0;"/><text fill="#000000" font-family="sans-serif" font-size="13" lengthAdjust="spacing" textLength="52" x="1259.5" y="506.5669">EVM txn</text><text fill="#000000" font-family="sans-serif" font-size="13" lengthAdjust="spacing" textLength="68" x="1251.5" y="521.6997">EVM query</text></g><!--reverse link Submit to JsonRPC--><g id="link_Submit_JsonRPC"><path d="M605.06,382.19 C616.56,397.13 633.83,415.73 654,425 C751.96,470 1042.39,408.19 1138,458 C1159.85,469.38 1176.16,493.44 1185.38,510.03 " fill="none" id="Submit-backto-JsonRPC" style="stroke:#181818;stroke-width:1.0;"/><polygon fill="#181818" points="602.3,378.5,604.4836,388.1037,605.2932,382.5051,610.8918,383.3147,602.3,378.5" style="stroke:#181818;stroke-width:1.0;"/><text fill="#000000" font-family="sans-serif" font-size="13" lengthAdjust="spacing" textLength="52" x="1112" y="446.0669">EVM txn</text></g><!--link GossipInternal to GossipExternal--><g id="link_GossipInternal_GossipExternal"><path d="M792.8,204 C836.28,204 879.76,204 923.24,204 " fill="none" id="GossipInternal-GossipExternal" style="stroke:#181818;stroke-width:1.0;"/><polygon fill="#181818" points="787.88,204,796.88,208,792.88,204,796.88,200,787.88,204" style="stroke:#181818;stroke-width:1.0;"/><polygon fill="#181818" points="928.14,204,919.14,200,923.14,204,919.14,208,928.14,204" style="stroke:#181818;stroke-width:1.0;"/></g><!--link QueryService to Broadcast--><g id="link_QueryService_Broadcast"><path d="M786.78,361.61 C932.19,366.7 1308.79,386.6 1408,458 C1436.07,478.2 1443,492.92 1443,527.5 C1443,527.5 1443,527.5 1443,878 C1443,972.09 1323.67,1012.77 1240.54,1029.69 " fill="none" id="QueryService-to-Broadcast" style="stroke:#181818;stroke-width:1.0;"/><polygon fill="#181818" points="1235.85,1030.62,1245.4548,1032.7988,1240.7551,1029.6504,1243.9035,1024.9506,1235.85,1030.62" style="stroke:#181818;stroke-width:1.0;"/><text fill="#000000" font-family="sans-serif" font-size="13" lengthAdjust="spacing" textLength="36" x="1444" y="695.0669">batch</text></g><!--link QueryService to Etherman--><g id="link_QueryService_Etherman"><path d="M718.52,377.29 C707.66,396.28 691.41,428.09 685,458 C675.88,500.59 674.09,513.83 685,556 C695.96,598.39 723.61,641.68 741.83,667.05 " fill="none" id="QueryService-to-Etherman" style="stroke:#181818;stroke-width:1.0;"/><polygon fill="#181818" points="744.67,670.96,742.6074,661.3296,741.7274,666.9176,736.1394,666.0376,744.67,670.96" style="stroke:#181818;stroke-width:1.0;"/><text fill="#000000" font-family="sans-serif" font-size="13" lengthAdjust="spacing" textLength="19" x="686" y="533.0669">QC</text></g><!--link JsonRPC to State--><g id="link_JsonRPC_State"><path d="M1172.87,546.93 C1140.03,574.01 1076.34,626.54 1036.11,659.72 " fill="none" id="JsonRPC-to-State" style="stroke:#181818;stroke-width:1.0;"/><polygon fill="#181818" points="1032.5,662.7,1041.9864,660.0528,1036.3551,659.516,1036.892,653.8846,1032.5,662.7" style="stroke:#181818;stroke-width:1.0;"/><text fill="#000000" font-family="sans-serif" font-size="13" lengthAdjust="spacing" textLength="68" x="1121" y="614.0669">EVM query</text></g><!--link State to L2DB--><g id="link_State_L2DB"><path d="M1032.39,690.5 C1049.24,690.5 1070.62,690.5 1091.38,690.5 " fill="none" id="State-to-L2DB" style="stroke:#181818;stroke-width:1.0;"/><polygon fill="#181818" points="1096.29,690.5,1087.29,686.5,1091.29,690.5,1087.29,694.5,1096.29,690.5" style="stroke:#181818;stroke-width:1.0;"/><text fill="#000000" font-family="sans-serif" font-size="13" lengthAdjust="spacing" textLength="29" x="1050.5" y="683.5669">read</text></g><!--link State to Tree--><g id="link_State_Tree"><path d="M1001.25,717.15 C1002.8,748.98 1005.46,803.44 1007.22,839.58 " fill="none" id="State-to-Tree" style="stroke:#181818;stroke-width:1.0;"/><polygon fill="#181818" points="1007.45,844.15,1011.0087,834.9665,1007.2074,839.1559,1003.0181,835.3547,1007.45,844.15" style="stroke:#181818;stroke-width:1.0;"/><text fill="#000000" font-family="sans-serif" font-size="13" lengthAdjust="spacing" textLength="58" x="1006" y="776.0669">accounts</text></g><!--link State to Executor--><g id="link_State_Executor"><path d="M967.75,716.92 C957.66,725.97 947.07,736.73 939,748 C915.27,781.14 898.19,825.74 889.21,852.6 " fill="none" id="State-to-Executor" style="stroke:#181818;stroke-width:1.0;"/><polygon fill="#181818" points="887.68,857.26,894.2878,849.9568,889.2397,852.5095,886.687,847.4613,887.68,857.26" style="stroke:#181818;stroke-width:1.0;"/><text fill="#000000" font-family="sans-serif" font-size="13" lengthAdjust="spacing" textLength="53" x="940" y="776.0669">call, etc.</text></g><!--link Aggregator to State--><g id="link_Aggregator_State"><path d="M811.5,546.89 C833.06,557.08 859.81,570.91 882,586 C914.11,607.84 947.03,637.43 969.92,659.38 " fill="none" id="Aggregator-to-State" style="stroke:#181818;stroke-width:1.0;"/><polygon fill="#181818" points="973.27,662.62,969.5861,653.4861,969.6777,659.1422,964.0216,659.2338,973.27,662.62" style="stroke:#181818;stroke-width:1.0;"/><text fill="#000000" font-family="sans-serif" font-size="13" lengthAdjust="spacing" textLength="32" x="944.5" y="599.0669">fetch</text><text fill="#000000" font-family="sans-serif" font-size="13" lengthAdjust="spacing" textLength="41" x="940" y="614.1997">prover</text><text fill="#000000" font-family="sans-serif" font-size="13" lengthAdjust="spacing" textLength="32" x="944.5" y="629.3325">input</text></g><!--link Aggregator to Etherman--><g id="link_Aggregator_Etherman"><path d="M770.58,546.93 C768.24,575.78 763.55,633.51 760.91,665.96 " fill="none" id="Aggregator-to-Etherman" style="stroke:#181818;stroke-width:1.0;"/><polygon fill="#181818" points="760.54,670.59,765.2469,661.9387,760.9399,665.606,757.2726,661.2989,760.54,670.59" style="stroke:#181818;stroke-width:1.0;"/><text fill="#000000" font-family="sans-serif" font-size="13" lengthAdjust="spacing" textLength="33" x="768" y="614.0669">proof</text></g><!--link Aggregator to Prover--><g id="link_Aggregator_Prover"><path d="M786.61,546.64 C794.86,557.28 804.58,571.62 810,586 C822.18,618.29 817.77,628.56 820,663 C821.58,687.39 823.45,693.8 820,718 C812.97,767.32 794.17,822.76 782.9,853.1 " fill="none" id="Aggregator-to-Prover" style="stroke:#181818;stroke-width:1.0;"/><polygon fill="#181818" points="781.29,857.4,788.1954,850.3775,783.0456,852.7184,780.7048,847.5685,781.29,857.4" style="stroke:#181818;stroke-width:1.0;"/><text fill="#000000" font-family="sans-serif" font-size="13" lengthAdjust="spacing" textLength="58" x="822" y="687.5669">generate</text><text fill="#000000" font-family="sans-serif" font-size="13" lengthAdjust="spacing" textLength="33" x="834.5" y="702.6997">proof</text></g><!--link Etherman to Rollup--><g id="link_Etherman_Rollup"><path d="M734.53,708.72 C676.57,749.97 527.44,858.93 416,965 C398.1,982.03 379.67,1003.26 366.69,1018.94 " fill="none" id="Etherman-to-Rollup" style="stroke:#181818;stroke-width:1.0;"/><polygon fill="#181818" points="363.8,1022.45,372.5976,1018.0226,366.9685,1018.5821,366.409,1012.953,363.8,1022.45" style="stroke:#181818;stroke-width:1.0;"/><text fill="#000000" font-family="sans-serif" font-size="13" lengthAdjust="spacing" textLength="60" x="608" y="881.5669">QC, proof</text></g><!--reverse link Synchronizer to Rollup--><g id="link_Synchronizer_Rollup"><path d="M1128.12,899.56 C1114.38,911.57 1095.6,925.4 1076,932 C1054.09,939.38 683.06,938.35 660,940 C598.8,944.37 584.06,950.93 523,957 C499.27,959.36 437.35,954.38 416,965 C390.17,977.84 369.94,1005.42 358.73,1023.58 " fill="none" id="Synchronizer-backto-Rollup" style="stroke:#181818;stroke-width:1.0;"/><polygon fill="#181818" points="1131.82,896.25,1122.4487,899.2796,1128.0972,899.5877,1127.7891,905.2362,1131.82,896.25" style="stroke:#181818;stroke-width:1.0;"/><text fill="#000000" font-family="sans-serif" font-size="13" lengthAdjust="spacing" textLength="93" x="661" y="953.0669">contract event</text></g><!--reverse link Synchronizer to L1--><g id="link_Synchronizer_L1"><path d="M1127.4,899.62 C1113.66,911.37 1095.12,924.91 1076,932 C945.15,980.51 902.35,949.42 763,957 C747.68,957.83 500.02,956.88 487,965 C471.31,974.785 461.435,992.9225 455.4225,1009.025 C455.3286,1009.2766 455.2356,1009.5277 455.1435,1009.7783 C455.0975,1009.9036 455.0517,1010.0287 455.0061,1010.1537 " fill="none" id="Synchronizer-backto-L1" style="stroke:#181818;stroke-width:1.0;"/><polygon fill="#181818" points="1131.09,896.39,1121.6765,899.286,1127.32,899.6744,1126.9316,905.3179,1131.09,896.39" style="stroke:#181818;stroke-width:1.0;"/><text fill="#000000" font-family="sans-serif" font-size="13" lengthAdjust="spacing" textLength="33" x="1047" y="953.0669">block</text></g><!--reverse link Synchronizer to Broadcast--><g id="link_Synchronizer_Broadcast"><path d="M1151.76,901.91 C1153.99,932.15 1157.8,984.01 1160.1,1015.14 " fill="none" id="Synchronizer-backto-Broadcast" style="stroke:#181818;stroke-width:1.0;"/><polygon fill="#181818" points="1151.4,896.95,1148.0797,906.2223,1151.7715,901.9362,1156.0576,905.628,1151.4,896.95" style="stroke:#181818;stroke-width:1.0;"/><text fill="#000000" font-family="sans-serif" font-size="13" lengthAdjust="spacing" textLength="36" x="1156" y="953.0669">batch</text></g><!--reverse link State to Synchronizer--><g id="link_State_Synchronizer"><path d="M1037.5,716.33 C1049.65,725.43 1062.66,736.37 1073,748 C1104.19,783.08 1129.77,832.54 1142.08,858.51 " fill="none" id="State-backto-Synchronizer" style="stroke:#181818;stroke-width:1.0;"/><polygon fill="#181818" points="1033.57,713.45,1038.4386,722.0114,1037.5938,716.4179,1043.1873,715.5732,1033.57,713.45" style="stroke:#181818;stroke-width:1.0;"/><text fill="#000000" font-family="sans-serif" font-size="13" lengthAdjust="spacing" textLength="36" x="1135.5" y="761.0669">batch</text><text fill="#000000" font-family="sans-serif" font-size="13" lengthAdjust="spacing" textLength="33" x="1137" y="776.1997">block</text><text fill="#000000" font-family="sans-serif" font-size="13" lengthAdjust="spacing" textLength="93" x="1107" y="791.3325">contract event</text></g><!--reverse link App to Submit--><g id="link_App_Submit"><path d="M576.829,270.3932 C577.3806,274.0628 577.9375,277.7673 578.4944,281.4718 C579.6082,288.8809 580.722,296.2904 581.7941,303.4223 C583.9381,317.6863 585.915,330.84 587.39,340.66 " fill="none" id="App-backto-Submit" style="stroke:#181818;stroke-width:1.0;"/><polygon fill="#181818" points="576.829,270.3932,574.2114,279.8879,577.5723,275.3377,582.1225,278.6986,576.829,270.3932" style="stroke:#181818;stroke-width:1.0;"/><text fill="#000000" font-family="sans-serif" font-size="13" lengthAdjust="spacing" textLength="126" x="583" y="307.0669">wrap in HotShot txn</text></g><!--link HotShotEvents to QueryService--><g id="link_HotShotEvents_QueryService"><path d="M656.49,222.19 C665.04,240.11 680.52,268.04 701,286 C707.28,291.51 712.94,287.36 718,294 C726.68,305.41 729.45,321.28 730.04,334.36 " fill="none" id="HotShotEvents-to-QueryService" style="stroke:#181818;stroke-width:1.0;"/><polygon fill="#181818" points="730.14,339.01,733.9592,329.9318,730.04,334.011,725.9608,330.0918,730.14,339.01" style="stroke:#181818;stroke-width:1.0;"/></g><rect fill="#DDDDDD" height="42.5938" id="_legend" rx="7.5" ry="7.5" style="stroke:#000000;stroke-width:1.0;" width="492" x="970" y="1102.5"/><text fill="#000000" font-family="sans-serif" font-size="14" font-weight="bold" lengthAdjust="spacing" textLength="52" x="975" y="1120.4951">Notes:</text><text fill="#000000" font-family="sans-serif" font-size="14" lengthAdjust="spacing" textLength="482" x="975" y="1136.792">Assume the order commit is contained in the Quorum Certificate (QC).</text><!--SRC=[ZLPDRziu4BtpLmoSWrEWyY8-2e41sp7QBfok7NTt3tKEj3Is2SkaIb7-AlBVEoGbMPARnUOGIyF7cU7CcqTbEo5JhlaU8hLFbKHf5kQS86YC39UR11bBS8Co1YqsMyC07bU3hyfW5Zx-iHhG-p3ByZs2sI8e7QEsdlR2WCZeIHek9COWf0FCSwNpFOnH6x4M4JS8z_FnXnwZ03uCOslA1c7gW_wa05LcqBdiyB0Ff8eHEZoZ49qEqEzVb9kGF86x6K_maqQKx-xRgvX2O-msFXSlS3Urfvi9kMjkb7XqmAzuP6-CqGy4txSYZb6-wc1GHMPL2etbqZzZLvz_PrIZkt-tmY1BURJZ6phCPsKMMsMMybvHdJJLAwFoHvXzSE6BvSd9eBP1McNvfB9Cf0xf7qkWpRcAyOGHeJLFn8LElC0VEL84tN7UAjHbD_dd6NZgtLrsmpHrW4R0UOxwJ2xqGKJeWCvI6DheHRwoX1ZElZYeVtMWAkgtammSUuJSbAUjahYcSDrHOahxVzVZYopgyHlmv40_MQFCpb9WtrZv_yrMyrhEYMqK4fkd3sxpzA7TbXUL97aAOsMh7Xc7AcmDldNhcqPQnEI-SEhVo7MDsOqifdsulxBRiuLipKp-p9HycOsRuo5fY271jG6rBX7kh9JlMcnoJIGn2jPA7xccHyrbHgSGIlhIq9eTwMjphHzhYUiySz2iv5gFNkrOszZq67F3LpoZq_QVHhNiuBlRHkSO9IhQHLiI4NWQaV6rJjNFgFTuWPbM1qjZsq1dyOORrXRcHX7gwvCJHhbHDuWgoszakitIvRamLijSYlRl6VKkyHkSvPLv2dL_q-X-lT7zzoJCiMtFPPCvZHwM41Tnc3Z66t70v0oSMc1btc3H3pUdjhUGgipOeIC7yt7PMErOskhMDPdXPgDnmszgLPzvMv2bd8gLvlhivzxLwBqDnUm5leLBETAAnn7FJ4DcAcjZy-8iewrMaWYdMvFYr9QKk21u25RTp4akfNtuOLMBTJse5Ev1gL1TgermX7UyTgYLEjdBZCCA3LKOqeIJuDrucFOPAwSkoDEWz5d5PwofJF18c9PuixgeGa20wlWXhBY9jYt4eE90Q9l9kiEOfyONm0jFsBYZbzAYgZnjbhP7FabV6-Qx5WpSZ8RqNS3ZqaP6o_0GU1Ift4hcTQ4SfX0YdYGV0KtKOwn6d5gqDIrkbp9ryxcKz4MIcpRqUZ22gNLxsSzs2FJHWDenpyEgiGbg9PYFFnPUkWtcF0P1XOaAqGRqby7_1DxYfW_KAwjYjqittVJbiqjrRB6wbCxDKhOYicwfRBtUeD8HidfE1fNjWHLQxGb9jse8HyrJo-VoEhNCRDo24CJgA0dUkE1_0G00]--></g></svg>