<?xml version="1.0" encoding="UTF-8" standalone="no"?><svg xmlns="http://www.w3.org/2000/svg" xmlns:xlink="http://www.w3.org/1999/xlink" contentStyleType="text/css" height="1022px" preserveAspectRatio="none" style="width:1144px;height:1022px;background:#FFFFFF;" version="1.1" viewBox="0 0 1144 1022" width="1144px" zoomAndPan="magnify"><defs/><g><!--cluster Legend--><g id="cluster_Legend"><rect fill="none" height="87" rx="2.5" ry="2.5" style="stroke:#181818;stroke-width:1.0;" width="472" x="63" y="151"/><path d="M132,151 L132,160.2969 L122,170.2969 L63,170.2969 " fill="none" style="stroke:#181818;stroke-width:1.0;"/><text fill="#000000" font-family="sans-serif" font-size="14" font-weight="bold" lengthAdjust="spacing" textLength="59" x="66" y="164.9951">Legend</text></g><!--cluster HotShotExternal--><g id="cluster_HotShotExternal"><path d="M987.5,135 L1124.5,135 A3.75,3.75 0 0 1 1127,137.5 L1134,173.5938 L1134.5,173.5938 A2.5,2.5 0 0 1 1137,176.0938 L1137,235.5 A2.5,2.5 0 0 1 1134.5,238 L987.5,238 A2.5,2.5 0 0 1 985,235.5 L985,137.5 A2.5,2.5 0 0 1 987.5,135 " fill="none" style="stroke:#000000;stroke-width:1.5;"/><line style="stroke:#000000;stroke-width:1.5;" x1="985" x2="1134" y1="173.5938" y2="173.5938"/><text fill="#000000" font-family="sans-serif" font-size="14" font-weight="bold" lengthAdjust="spacing" textLength="63" x="1025.5" y="149.9951">HotShot</text><text fill="#000000" font-family="sans-serif" font-size="14" font-weight="bold" lengthAdjust="spacing" textLength="136" x="989" y="166.292">(other instances)</text></g><!--cluster Decentralized Sequencer--><g id="cluster_Decentralized Sequencer"><path d="M576.5,6 L777.5,6 A3.75,3.75 0 0 1 780,8.5 L787,28.2969 L958.5,28.2969 A2.5,2.5 0 0 1 961,30.7969 L961,414.5 A2.5,2.5 0 0 1 958.5,417 L576.5,417 A2.5,2.5 0 0 1 574,414.5 L574,8.5 A2.5,2.5 0 0 1 576.5,6 " fill="none" style="stroke:#000000;stroke-width:1.5;"/><line style="stroke:#000000;stroke-width:1.5;" x1="574" x2="787" y1="28.2969" y2="28.2969"/><text fill="#000000" font-family="sans-serif" font-size="14" font-weight="bold" lengthAdjust="spacing" textLength="200" x="578" y="20.9951">Decentralized Sequencer</text></g><!--cluster zkApp--><g id="cluster_zkApp"><path d="M600.5,49 L686.5,49 A3.75,3.75 0 0 1 689,51.5 L696,71.2969 L934.5,71.2969 A2.5,2.5 0 0 1 937,73.7969 L937,390.5 A2.5,2.5 0 0 1 934.5,393 L600.5,393 A2.5,2.5 0 0 1 598,390.5 L598,51.5 A2.5,2.5 0 0 1 600.5,49 " fill="none" style="stroke:#000000;stroke-width:1.5;"/><line style="stroke:#000000;stroke-width:1.5;" x1="598" x2="696" y1="71.2969" y2="71.2969"/><text fill="#000000" font-family="sans-serif" font-size="14" font-weight="bold" lengthAdjust="spacing" textLength="85" x="602" y="63.9951">zkEVM app</text></g><!--cluster App--><g id="cluster_App"><path d="M632.5,100 L838.5,100 A3.75,3.75 0 0 1 841,102.5 L848,122.2969 L902.5,122.2969 A2.5,2.5 0 0 1 905,124.7969 L905,267.5 A2.5,2.5 0 0 1 902.5,270 L632.5,270 A2.5,2.5 0 0 1 630,267.5 L630,102.5 A2.5,2.5 0 0 1 632.5,100 " fill="none" style="stroke:#000000;stroke-width:1.5;"/><line style="stroke:#000000;stroke-width:1.5;" x1="630" x2="848" y1="122.2969" y2="122.2969"/><text fill="#000000" font-family="sans-serif" font-size="14" font-weight="bold" lengthAdjust="spacing" textLength="205" x="634" y="114.9951">Txn-ordering HotShot app</text></g><!--cluster HotShot--><g id="cluster_HotShot"><path d="M672.5,151 L736.5,151 A3.75,3.75 0 0 1 739,153.5 L746,173.2969 L870.5,173.2969 A2.5,2.5 0 0 1 873,175.7969 L873,235.5 A2.5,2.5 0 0 1 870.5,238 L672.5,238 A2.5,2.5 0 0 1 670,235.5 L670,153.5 A2.5,2.5 0 0 1 672.5,151 " fill="none" style="stroke:#000000;stroke-width:1.5;"/><line style="stroke:#000000;stroke-width:1.5;" x1="670" x2="746" y1="173.2969" y2="173.2969"/><text fill="#000000" font-family="sans-serif" font-size="14" font-weight="bold" lengthAdjust="spacing" textLength="63" x="674" y="165.9951">HotShot</text></g><!--cluster L1--><g id="cluster_L1"><path d="M8.5,920 L109.5,920 A3.75,3.75 0 0 1 112,922.5 L119,942.2969 L161.5,942.2969 A2.5,2.5 0 0 1 164,944.7969 L164,1004.5 A2.5,2.5 0 0 1 161.5,1007 L8.5,1007 A2.5,2.5 0 0 1 6,1004.5 L6,922.5 A2.5,2.5 0 0 1 8.5,920 " fill="none" style="stroke:#000000;stroke-width:1.5;"/><line style="stroke:#000000;stroke-width:1.5;" x1="6" x2="119" y1="942.2969" y2="942.2969"/><text fill="#000000" font-family="sans-serif" font-size="14" font-weight="bold" lengthAdjust="spacing" textLength="100" x="10" y="934.9951">Ethereum L1</text></g><!--cluster L2--><g id="cluster_L2"><path d="M190.5,466 L324.5,466 A3.75,3.75 0 0 1 327,468.5 L334,488.2969 L803.5,488.2969 A2.5,2.5 0 0 1 806,490.7969 L806,1013 A2.5,2.5 0 0 1 803.5,1015.5 L190.5,1015.5 A2.5,2.5 0 0 1 188,1013 L188,468.5 A2.5,2.5 0 0 1 190.5,466 " fill="none" style="stroke:#000000;stroke-width:1.5;"/><line style="stroke:#000000;stroke-width:1.5;" x1="188" x2="334" y1="488.2969" y2="488.2969"/><text fill="#000000" font-family="sans-serif" font-size="14" font-weight="bold" lengthAdjust="spacing" textLength="133" x="192" y="480.9951">L2 (zkevm-node)</text></g><!--cluster HermezProver--><g id="cluster_HermezProver"><path d="M313.5,758 L433.5,758 A3.75,3.75 0 0 1 436,760.5 L443,780.2969 L658.5,780.2969 A2.5,2.5 0 0 1 661,782.7969 L661,868.5 A2.5,2.5 0 0 1 658.5,871 L313.5,871 A2.5,2.5 0 0 1 311,868.5 L311,760.5 A2.5,2.5 0 0 1 313.5,758 " fill="none" style="stroke:#000000;stroke-width:1.5;"/><line style="stroke:#000000;stroke-width:1.5;" x1="311" x2="443" y1="780.2969" y2="780.2969"/><text fill="#000000" font-family="sans-serif" font-size="14" font-weight="bold" lengthAdjust="spacing" textLength="119" x="315" y="772.9951">Hermez Prover</text></g><!--entity Original--><g id="elem_Original"><rect fill="#98FB98" height="36.2969" rx="2.5" ry="2.5" style="stroke:#181818;stroke-width:0.5;" width="151" x="163.5" y="186"/><text fill="#000000" font-family="sans-serif" font-size="14" lengthAdjust="spacing" textLength="131" x="173.5" y="208.9951">zkevm-node "as is"</text></g><!--entity Modified--><g id="elem_Modified"><rect fill="#FFB6C1" height="36.2969" rx="2.5" ry="2.5" style="stroke:#181818;stroke-width:0.5;" width="169" x="349.5" y="186"/><text fill="#000000" font-family="sans-serif" font-size="14" lengthAdjust="spacing" textLength="149" x="359.5" y="208.9951">zkevm-node modified</text></g><!--entity New--><g id="elem_New"><rect fill="#F1F1F1" height="36.2969" rx="2.5" ry="2.5" style="stroke:#181818;stroke-width:0.5;" width="49" x="79.5" y="186"/><text fill="#000000" font-family="sans-serif" font-size="14" lengthAdjust="spacing" textLength="29" x="89.5" y="208.9951">new</text></g><!--entity GossipExternal--><g id="elem_GossipExternal"><rect fill="#F1F1F1" height="36.2969" rx="2.5" ry="2.5" style="stroke:#181818;stroke-width:0.5;" width="68" x="1001" y="186"/><text fill="#000000" font-family="sans-serif" font-size="14" lengthAdjust="spacing" textLength="48" x="1011" y="208.9951">Gossip</text></g><!--entity QueryService--><g id="elem_QueryService"><rect fill="#F1F1F1" height="36.2969" rx="2.5" ry="2.5" style="stroke:#181818;stroke-width:0.5;" width="115" x="771.5" y="341"/><text fill="#000000" font-family="sans-serif" font-size="14" lengthAdjust="spacing" textLength="95" x="781.5" y="363.9951">Query Service</text></g><!--entity Submit--><g id="elem_Submit"><rect fill="#F1F1F1" height="36.2969" rx="2.5" ry="2.5" style="stroke:#181818;stroke-width:0.5;" width="93" x="614.5" y="341"/><text fill="#000000" font-family="sans-serif" font-size="14" lengthAdjust="spacing" textLength="73" x="624.5" y="363.9951">Submit API</text></g><!--entity GossipInternal--><g id="elem_GossipInternal"><rect fill="#F1F1F1" height="36.2969" rx="2.5" ry="2.5" style="stroke:#181818;stroke-width:0.5;" width="68" x="789" y="186"/><text fill="#000000" font-family="sans-serif" font-size="14" lengthAdjust="spacing" textLength="48" x="799" y="208.9951">Gossip</text></g><!--entity HotShotEvents--><g id="elem_HotShotEvents"><rect fill="#F1F1F1" height="36.2969" rx="2.5" ry="2.5" style="stroke:#181818;stroke-width:0.5;" width="67" x="686.5" y="186"/><text fill="#000000" font-family="sans-serif" font-size="14" lengthAdjust="spacing" textLength="47" x="696.5" y="208.9951">Events</text></g><!--entity Rollup--><g id="elem_Rollup"><rect fill="#FFB6C1" height="36.2969" rx="2.5" ry="2.5" style="stroke:#181818;stroke-width:0.5;" width="126" x="22" y="955"/><text fill="#000000" font-family="sans-serif" font-size="14" lengthAdjust="spacing" textLength="106" x="32" y="977.9951">Rollup Contract</text></g><!--entity JsonRPC--><g id="elem_JsonRPC"><rect fill="#98FB98" height="36.2969" rx="2.5" ry="2.5" style="stroke:#181818;stroke-width:0.5;" width="78" x="573" y="503"/><text fill="#000000" font-family="sans-serif" font-size="14" lengthAdjust="spacing" textLength="58" x="583" y="525.9951">JsonRPC</text></g><g id="elem_GMN23"><path d="M216,501 L216,541.2656 A0,0 0 0 0 216,541.2656 L538,541.2656 A0,0 0 0 0 538,541.2656 L538,525 L572.74,521 L538,517 L538,511 L528,501 L216,501 A0,0 0 0 0 216,501 " fill="#FEFFDD" style="stroke:#181818;stroke-width:0.5;"/><path d="M528,501 L528,511 L538,511 L528,501 " fill="#FEFFDD" style="stroke:#181818;stroke-width:0.5;"/><text fill="#000000" font-family="sans-serif" font-size="13" lengthAdjust="spacing" textLength="237" x="222" y="518.0669">Configured to forward transactions to</text><text fill="#000000" font-family="sans-serif" font-size="13" lengthAdjust="spacing" textLength="301" x="222" y="533.1997">the Submit API of the decentralized sequencer.</text></g><!--entity L2DB--><g id="elem_L2DB"><path d="M633,636.5 C633,626.5 703,626.5 703,626.5 C703,626.5 773,626.5 773,636.5 L773,661.7969 C773,671.7969 703,671.7969 703,671.7969 C703,671.7969 633,671.7969 633,661.7969 L633,636.5 " fill="#98FB98" style="stroke:#181818;stroke-width:0.5;"/><path d="M633,636.5 C633,646.5 703,646.5 703,646.5 C703,646.5 773,646.5 773,636.5 " fill="none" style="stroke:#181818;stroke-width:0.5;"/><text fill="#000000" font-family="sans-serif" font-size="14" lengthAdjust="spacing" textLength="120" x="643" y="663.4951">L2 Blockchain DB</text></g><!--entity Etherman--><g id="elem_Etherman"><rect fill="#FFB6C1" height="36.2969" rx="2.5" ry="2.5" style="stroke:#181818;stroke-width:0.5;" width="87" x="204.5" y="806"/><text fill="#000000" font-family="sans-serif" font-size="14" lengthAdjust="spacing" textLength="67" x="214.5" y="828.9951">Etherman</text></g><!--entity Aggregator--><g id="elem_Aggregator"><rect fill="#98FB98" height="36.2969" rx="2.5" ry="2.5" style="stroke:#181818;stroke-width:0.5;" width="97" x="310.5" y="631"/><text fill="#000000" font-family="sans-serif" font-size="14" lengthAdjust="spacing" textLength="77" x="320.5" y="653.9951">Aggregator</text></g><!--entity State--><g id="elem_State"><rect fill="#98FB98" height="52.5938" rx="2.5" ry="2.5" style="stroke:#181818;stroke-width:0.5;" width="64" x="503" y="622.5"/><text fill="#000000" font-family="sans-serif" font-size="14" lengthAdjust="spacing" textLength="36" x="513" y="645.4951">State</text><text fill="#000000" font-family="sans-serif" font-size="14" lengthAdjust="spacing" textLength="44" x="513" y="661.792">Library</text></g><!--entity Broadcast--><g id="elem_Broadcast"><rect fill="#FFB6C1" height="52.5938" rx="2.5" ry="2.5" style="stroke:#181818;stroke-width:0.5;" width="144" x="646" y="946.5"/><text fill="#000000" font-family="sans-serif" font-size="14" lengthAdjust="spacing" textLength="115" x="656" y="969.4951">HotShot-Hermez</text><text fill="#000000" font-family="sans-serif" font-size="14" lengthAdjust="spacing" textLength="124" x="656" y="985.792">Broadcast Service</text></g><!--entity Synchronizer--><g id="elem_Synchronizer"><rect fill="#98FB98" height="36.2969" rx="2.5" ry="2.5" style="stroke:#181818;stroke-width:0.5;" width="110" x="680" y="806"/><text fill="#000000" font-family="sans-serif" font-size="14" lengthAdjust="spacing" textLength="90" x="690" y="828.9951">Synchronizer</text></g><!--entity Prover--><g id="elem_Prover"><rect fill="#98FB98" height="36.2969" rx="2.5" ry="2.5" style="stroke:#181818;stroke-width:0.5;" width="64" x="327" y="806"/><text fill="#000000" font-family="sans-serif" font-size="14" lengthAdjust="spacing" textLength="44" x="337" y="828.9951">Prover</text></g><!--entity Executor--><g id="elem_Executor"><rect fill="#98FB98" height="36.2969" rx="2.5" ry="2.5" style="stroke:#181818;stroke-width:0.5;" width="81" x="563.5" y="806"/><text fill="#000000" font-family="sans-serif" font-size="14" lengthAdjust="spacing" textLength="61" x="573.5" y="828.9951">Executor</text></g><!--entity Tree--><g id="elem_Tree"><path d="M426,803 C426,793 477,793 477,793 C477,793 528,793 528,803 L528,844.5938 C528,854.5938 477,854.5938 477,854.5938 C477,854.5938 426,854.5938 426,844.5938 L426,803 " fill="#98FB98" style="stroke:#181818;stroke-width:0.5;"/><path d="M426,803 C426,813 477,813 477,813 C477,813 528,813 528,803 " fill="none" style="stroke:#181818;stroke-width:0.5;"/><text fill="#000000" font-family="sans-serif" font-size="14" lengthAdjust="spacing" textLength="81" x="436" y="829.9951">L2 State DB</text><text fill="#000000" font-family="sans-serif" font-size="14" lengthAdjust="spacing" textLength="82" x="436" y="846.292">Merkle Tree</text></g><!--entity User--><g id="elem_User"><rect fill="#FFFFFF" height="36.2969" rx="2.5" ry="2.5" style="stroke:#181818;stroke-width:0.5;" width="52" x="896" y="503"/><text fill="#000000" font-family="sans-serif" font-size="14" lengthAdjust="spacing" textLength="32" x="906" y="525.9951">User</text></g><!--link New to Original--><!--link Original to Modified--><!--link User to JsonRPC--><g id="link_User_JsonRPC"><path d="M895.72,521 C842.88,521 723.24,521 657.46,521 " fill="none" id="User-to-JsonRPC" style="stroke:#181818;stroke-width:1.0;"/><polygon fill="#181818" points="652.78,521,661.78,525,657.78,521,661.78,517,652.78,521" style="stroke:#181818;stroke-width:1.0;"/><text fill="#000000" font-family="sans-serif" font-size="13" lengthAdjust="spacing" textLength="52" x="747.5" y="499.0669">EVM txn</text><text fill="#000000" font-family="sans-serif" font-size="13" lengthAdjust="spacing" textLength="79" x="734" y="514.1997">EVM queries</text></g><!--reverse link Submit to JsonRPC--><g id="link_Submit_JsonRPC"><path d="M653.78,383.57 C643.84,416.03 626.16,473.75 617.33,502.59 " fill="none" id="Submit-backto-JsonRPC" style="stroke:#181818;stroke-width:1.0;"/><polygon fill="#181818" points="655.22,378.87,648.7517,386.297,653.7506,383.6492,656.3984,388.6481,655.22,378.87" style="stroke:#181818;stroke-width:1.0;"/><text fill="#000000" font-family="sans-serif" font-size="13" lengthAdjust="spacing" textLength="52" x="638" y="446.0669">EVM txn</text></g><!--link GossipInternal to GossipExternal--><g id="link_GossipInternal_GossipExternal"><path d="M863.8,204 C907.28,204 950.76,204 994.24,204 " fill="none" id="GossipInternal-GossipExternal" style="stroke:#181818;stroke-width:1.0;"/><polygon fill="#181818" points="858.88,204,867.88,208,863.88,204,867.88,200,858.88,204" style="stroke:#181818;stroke-width:1.0;"/><polygon fill="#181818" points="999.14,204,990.14,200,994.14,204,990.14,208,999.14,204" style="stroke:#181818;stroke-width:1.0;"/></g><!--link QueryService to Broadcast--><g id="link_QueryService_Broadcast"><path d="M831.5,377.24 C835.53,406.52 843,467.86 843,520 C843,520 843,520 843,825 C843,874.81 800.83,916.35 765.48,942.42 " fill="none" id="QueryService-to-Broadcast" style="stroke:#181818;stroke-width:1.0;"/><polygon fill="#181818" points="761.55,945.27,771.1886,943.2458,765.6041,942.3436,766.5063,936.7591,761.55,945.27" style="stroke:#181818;stroke-width:1.0;"/><text fill="#000000" font-family="sans-serif" font-size="13" lengthAdjust="spacing" textLength="50" x="862.5" y="631.0669">stream:</text><text fill="#000000" font-family="sans-serif" font-size="13" lengthAdjust="spacing" textLength="87" x="844" y="646.1997">order commit</text><text fill="#000000" font-family="sans-serif" font-size="13" lengthAdjust="spacing" textLength="19" x="878" y="661.3325">QC</text><text fill="#000000" font-family="sans-serif" font-size="13" lengthAdjust="spacing" textLength="36" x="869.5" y="676.4653">batch</text></g><!--link JsonRPC to State--><g id="link_JsonRPC_State"><path d="M601.45,539.26 C589.28,559.18 569.01,592.35 554.05,616.83 " fill="none" id="JsonRPC-to-State" style="stroke:#181818;stroke-width:1.0;"/><polygon fill="#181818" points="551.54,620.93,559.65,615.3417,554.1501,616.6654,552.8265,611.1655,551.54,620.93" style="stroke:#181818;stroke-width:1.0;"/><text fill="#000000" font-family="sans-serif" font-size="13" lengthAdjust="spacing" textLength="79" x="581" y="584.0669">EVM queries</text></g><!--link State to L2DB--><g id="link_State_L2DB"><path d="M567.39,649 C584.24,649 605.62,649 626.38,649 " fill="none" id="State-to-L2DB" style="stroke:#181818;stroke-width:1.0;"/><polygon fill="#181818" points="631.29,649,622.29,645,626.29,649,622.29,653,631.29,649" style="stroke:#181818;stroke-width:1.0;"/><text fill="#000000" font-family="sans-serif" font-size="13" lengthAdjust="spacing" textLength="29" x="585.5" y="642.0669">read</text></g><!--link State to Tree--><g id="link_State_Tree"><path d="M509.64,675.71 C501.33,685.64 492.97,697.59 488,710 C478.29,734.25 475.69,763.68 475.43,786.43 " fill="none" id="State-to-Tree" style="stroke:#181818;stroke-width:1.0;"/><polygon fill="#181818" points="475.42,791.14,479.4457,782.1515,475.4343,786.14,471.4457,782.1286,475.42,791.14" style="stroke:#181818;stroke-width:1.0;"/><text fill="#000000" font-family="sans-serif" font-size="13" lengthAdjust="spacing" textLength="58" x="489" y="730.5669">accounts</text></g><!--link State to Executor--><g id="link_State_Executor"><path d="M545.33,675.9 C558.78,709.62 582.08,768.03 594.89,800.17 " fill="none" id="State-to-Executor" style="stroke:#181818;stroke-width:1.0;"/><polygon fill="#181818" points="596.6,804.45,596.9714,794.6081,594.743,799.8076,589.5436,797.5793,596.6,804.45" style="stroke:#181818;stroke-width:1.0;"/><text fill="#000000" font-family="sans-serif" font-size="13" lengthAdjust="spacing" textLength="53" x="572" y="730.5669">call, etc.</text></g><!--link Aggregator to State--><g id="link_Aggregator_State"><path d="M407.56,649 C435.51,649 470.16,649 496.27,649 " fill="none" id="Aggregator-to-State" style="stroke:#181818;stroke-width:1.0;"/><polygon fill="#181818" points="501.2,649,492.2,645,496.2,649,492.2,653,501.2,649" style="stroke:#181818;stroke-width:1.0;"/><text fill="#000000" font-family="sans-serif" font-size="13" lengthAdjust="spacing" textLength="32" x="439.25" y="612.0669">fetch</text><text fill="#000000" font-family="sans-serif" font-size="13" lengthAdjust="spacing" textLength="41" x="434.75" y="627.1997">prover</text><text fill="#000000" font-family="sans-serif" font-size="13" lengthAdjust="spacing" textLength="32" x="439.25" y="642.3325">input</text></g><!--link Aggregator to Etherman--><g id="link_Aggregator_Etherman"><path d="M346.02,667.33 C337.28,679.18 325.65,695.33 316,710 C295.93,740.51 274.48,776.86 261.15,799.94 " fill="none" id="Aggregator-to-Etherman" style="stroke:#181818;stroke-width:1.0;"/><polygon fill="#181818" points="258.7,804.19,266.6506,798.3773,261.1899,799.8541,259.7131,794.3934,258.7,804.19" style="stroke:#181818;stroke-width:1.0;"/><text fill="#000000" font-family="sans-serif" font-size="13" lengthAdjust="spacing" textLength="33" x="317" y="730.5669">proof</text></g><!--link Aggregator to Prover--><g id="link_Aggregator_Prover"><path d="M359,667.22 C359,698.36 359,764.06 359,799.37 " fill="none" id="Aggregator-to-Prover" style="stroke:#181818;stroke-width:1.0;"/><polygon fill="#181818" points="359,804.08,363,795.08,359,799.08,355,795.08,359,804.08" style="stroke:#181818;stroke-width:1.0;"/><text fill="#000000" font-family="sans-serif" font-size="13" lengthAdjust="spacing" textLength="58" x="360" y="723.0669">generate</text><text fill="#000000" font-family="sans-serif" font-size="13" lengthAdjust="spacing" textLength="33" x="372.5" y="738.1997">proof</text></g><!--link Etherman to Rollup--><g id="link_Etherman_Rollup"><path d="M228.66,842.44 C198.76,869.41 141.38,921.16 108.92,950.43 " fill="none" id="Etherman-to-Rollup" style="stroke:#181818;stroke-width:1.0;"/><polygon fill="#181818" points="105.44,953.57,114.8055,950.5225,109.1565,950.2252,109.4538,944.5761,105.44,953.57" style="stroke:#181818;stroke-width:1.0;"/><text fill="#000000" font-family="sans-serif" font-size="13" lengthAdjust="spacing" textLength="33" x="177" y="900.0669">proof</text></g><!--reverse link Synchronizer to Rollup--><g id="link_Synchronizer_Rollup"><path d="M712.42,846.7 C698.7,858.47 680.16,872.01 661,879 C611.51,897.07 238.35,896.5 188,912 C158.13,921.19 127.66,940.42 107.7,954.64 " fill="none" id="Synchronizer-backto-Rollup" style="stroke:#181818;stroke-width:1.0;"/><polygon fill="#181818" points="716.12,843.45,706.7183,846.3839,712.3633,846.7496,711.9976,852.3946,716.12,843.45" style="stroke:#181818;stroke-width:1.0;"/><text fill="#000000" font-family="sans-serif" font-size="13" lengthAdjust="spacing" textLength="100" x="607" y="900.0669">contract events</text></g><!--reverse link Synchronizer to Broadcast--><g id="link_Synchronizer_Broadcast"><path d="M732.24,848.86 C729.15,875.57 724.16,918.7 720.99,946.19 " fill="none" id="Synchronizer-backto-Broadcast" style="stroke:#181818;stroke-width:1.0;"/><polygon fill="#181818" points="732.81,843.94,727.8057,852.4227,732.2374,848.9071,735.753,853.3389,732.81,843.94" style="stroke:#181818;stroke-width:1.0;"/><text fill="#000000" font-family="sans-serif" font-size="13" lengthAdjust="spacing" textLength="36" x="728" y="900.0669">batch</text></g><!--reverse link State to Synchronizer--><g id="link_State_Synchronizer"><path d="M572.68,669.34 C591.94,680.07 615.21,694.39 634,710 C669.83,739.76 704.39,782.38 722.32,805.86 " fill="none" id="State-backto-Synchronizer" style="stroke:#181818;stroke-width:1.0;"/><polygon fill="#181818" points="568.69,667.15,574.6453,674.9944,573.0702,669.5612,578.5033,667.9861,568.69,667.15" style="stroke:#181818;stroke-width:1.0;"/></g><!--reverse link App to Submit--><g id="link_App_Submit"><path d="M647.829,270.3932 C648.3806,274.0628 648.9375,277.7673 649.4944,281.4718 C650.6082,288.8809 651.722,296.2904 652.7941,303.4223 C654.9381,317.6863 656.915,330.84 658.39,340.66 " fill="none" id="App-backto-Submit" style="stroke:#181818;stroke-width:1.0;"/><polygon fill="#181818" points="647.829,270.3932,645.2114,279.8879,648.5723,275.3377,653.1225,278.6986,647.829,270.3932" style="stroke:#181818;stroke-width:1.0;"/><text fill="#000000" font-family="sans-serif" font-size="13" lengthAdjust="spacing" textLength="126" x="654" y="307.0669">wrap in HotShot txn</text></g><!--link HotShotEvents to QueryService--><g id="link_HotShotEvents_QueryService"><path d="M727.49,222.19 C736.04,240.11 751.52,268.04 772,286 C778.28,291.51 782.76,288.46 789,294 C801.77,305.34 811.91,321.73 818.79,335.08 " fill="none" id="HotShotEvents-to-QueryService" style="stroke:#181818;stroke-width:1.0;"/><polygon fill="#181818" points="820.86,339.24,820.4254,329.4007,818.6297,334.765,813.2654,332.9693,820.86,339.24" style="stroke:#181818;stroke-width:1.0;"/></g><!--SRC=[dLLDRziu4BtpLmoSWrjW5I0-2aM0E37QBfojMxVRGvK3BOqbmXAffQZOSP7_tY6fJxlkONsmf9d7uUFCcs6r4xBacXSGgw9K4gLPcvSSGMDik4npP6nBReGbfYWJ-CcWXyBakCFd8f0gGPZm2aGrcG0zFscH2ibpk5hn7DzhH7bnNQ4IiHMOk8MFpGTSBKMQcPMGk_52YNi7_0Vtx9KnUa3m8nD9Wl991xVTpgoZC7AtyHdhOtwhKCFLzqmOP2MFTpobmtnGPfqf4yatocJa5xAYVCHOlNNRD-x5mQ2scvoavRsgAb4wf7zjWPPpjyS3neJMF1T7El4Q_wkHTj0J5wr37NUBVn-1bpxSSNTNbWumsl1pZVg5GkXd4QC3EajZE4MlwqqX3DojFZge_tIWRjUl1naedQ0MCcrFsv7eAVGhManh_tC-Fiec7xy1BvxfKOtIx2mDzfMr_wysctqw5xPGM1Uml76BbpUdPVcYyhmkuLxPhCV6eHhRI6_JuQAv5Wc5RuBwBmezKFQ8nN86RtfrUxMGRSpaxqh9BwlxSNj8PH1ot1fGsnRXpafyjoAjDOd4ADWglUUQNZMN5Pr2A5cHtI4f0z0NryQnbcIaiwhLsJKjiIrjzwNNX1k-uHMTTFOm7p237ouqdM6UgtWNPrn8U9YJyMaeqm-e2pp2IgjdAs5RF6VnXZF5DkPH0eR-nG7ZsgWpHCVoAvdEMJgUQyCfauwY_JsYtkL-WRCyCI-VwM-AF1iMUNPfV3cb5LnUcb9tQQenvMVqXoreEKPoAJQQwnVVXexsfGLDAmG-gv6SQyMJc5TcrFMzzGArzOkCCwqaIK6VQDZDGPgHZVH2i7F776GaxGk9HWkisDJ3sg5wsqwFQQagqOYHDETG6tMWmGaSDcYetw7CEGsZimZB6MDjHmHr6RGnEmQCZQS6l2FCoM1bmu470G6wN8HG6Osy22FfHffD1uMFvEVxI6wuYJF6fdS9BurFW1y98Po21omjHrikJx7D3VCb36vT3uLqYVAajP7HAZ047iUgjkEiTxHY3o7cUVuNe8cl6HkegDzkIxuiagLhdqZIxLsR4TA6Q-GP0i7KzYIGxxmGw3f7xKJeKPseWq4Al6iwKisx8EZySJDA0Vs8_l_0GRLyINnwh6k8fKgri-Fw-hRhLB9wLGMTxOOraz1BYkwi4FQQbrQHxMLbjJMwOo18r5uIV7Hz_W80]--></g></svg>