<?xml version="1.0" encoding="UTF-8" standalone="no"?><svg xmlns="http://www.w3.org/2000/svg" xmlns:xlink="http://www.w3.org/1999/xlink" contentStyleType="text/css" height="1069px" preserveAspectRatio="none" style="width:1200px;height:1069px;background:#FFFFFF;" version="1.1" viewBox="0 0 1200 1069" width="1200px" zoomAndPan="magnify"><defs/><g><!--cluster Legend--><g id="cluster_Legend"><rect fill="none" height="87" rx="2.5" ry="2.5" style="stroke:#181818;stroke-width:1.0;" width="472" x="7" y="151"/><path d="M76,151 L76,160.2969 L66,170.2969 L7,170.2969 " fill="none" style="stroke:#181818;stroke-width:1.0;"/><text fill="#000000" font-family="sans-serif" font-size="14" font-weight="bold" lengthAdjust="spacing" textLength="59" x="10" y="164.9951">Legend</text></g><!--cluster HotShotExternal--><g id="cluster_HotShotExternal"><path d="M1043.5,135 L1180.5,135 A3.75,3.75 0 0 1 1183,137.5 L1190,173.5938 L1190.5,173.5938 A2.5,2.5 0 0 1 1193,176.0938 L1193,235.5 A2.5,2.5 0 0 1 1190.5,238 L1043.5,238 A2.5,2.5 0 0 1 1041,235.5 L1041,137.5 A2.5,2.5 0 0 1 1043.5,135 " fill="none" style="stroke:#000000;stroke-width:1.5;"/><line style="stroke:#000000;stroke-width:1.5;" x1="1041" x2="1190" y1="173.5938" y2="173.5938"/><text fill="#000000" font-family="sans-serif" font-size="14" font-weight="bold" lengthAdjust="spacing" textLength="63" x="1081.5" y="149.9951">HotShot</text><text fill="#000000" font-family="sans-serif" font-size="14" font-weight="bold" lengthAdjust="spacing" textLength="136" x="1045" y="166.292">(other instances)</text></g><!--cluster Decentralized Sequencer--><g id="cluster_Decentralized Sequencer"><path d="M505.5,6 L706.5,6 A3.75,3.75 0 0 1 709,8.5 L716,28.2969 L1014.5,28.2969 A2.5,2.5 0 0 1 1017,30.7969 L1017,425.5 A2.5,2.5 0 0 1 1014.5,428 L505.5,428 A2.5,2.5 0 0 1 503,425.5 L503,8.5 A2.5,2.5 0 0 1 505.5,6 " fill="none" style="stroke:#000000;stroke-width:1.5;"/><line style="stroke:#000000;stroke-width:1.5;" x1="503" x2="716" y1="28.2969" y2="28.2969"/><text fill="#000000" font-family="sans-serif" font-size="14" font-weight="bold" lengthAdjust="spacing" textLength="200" x="507" y="20.9951">Decentralized Sequencer</text></g><!--cluster zkApp--><g id="cluster_zkApp"><path d="M529.5,49 L615.5,49 A3.75,3.75 0 0 1 618,51.5 L625,71.2969 L990.5,71.2969 A2.5,2.5 0 0 1 993,73.7969 L993,401.5 A2.5,2.5 0 0 1 990.5,404 L529.5,404 A2.5,2.5 0 0 1 527,401.5 L527,51.5 A2.5,2.5 0 0 1 529.5,49 " fill="none" style="stroke:#000000;stroke-width:1.5;"/><line style="stroke:#000000;stroke-width:1.5;" x1="527" x2="625" y1="71.2969" y2="71.2969"/><text fill="#000000" font-family="sans-serif" font-size="14" font-weight="bold" lengthAdjust="spacing" textLength="85" x="531" y="63.9951">zkEVM app</text></g><!--cluster App--><g id="cluster_App"><path d="M688.5,100 L894.5,100 A3.75,3.75 0 0 1 897,102.5 L904,122.2969 L958.5,122.2969 A2.5,2.5 0 0 1 961,124.7969 L961,267.5 A2.5,2.5 0 0 1 958.5,270 L688.5,270 A2.5,2.5 0 0 1 686,267.5 L686,102.5 A2.5,2.5 0 0 1 688.5,100 " fill="none" style="stroke:#000000;stroke-width:1.5;"/><line style="stroke:#000000;stroke-width:1.5;" x1="686" x2="904" y1="122.2969" y2="122.2969"/><text fill="#000000" font-family="sans-serif" font-size="14" font-weight="bold" lengthAdjust="spacing" textLength="205" x="690" y="114.9951">Txn-ordering HotShot app</text></g><!--cluster HotShot--><g id="cluster_HotShot"><path d="M728.5,151 L792.5,151 A3.75,3.75 0 0 1 795,153.5 L802,173.2969 L926.5,173.2969 A2.5,2.5 0 0 1 929,175.7969 L929,235.5 A2.5,2.5 0 0 1 926.5,238 L728.5,238 A2.5,2.5 0 0 1 726,235.5 L726,153.5 A2.5,2.5 0 0 1 728.5,151 " fill="none" style="stroke:#000000;stroke-width:1.5;"/><line style="stroke:#000000;stroke-width:1.5;" x1="726" x2="802" y1="173.2969" y2="173.2969"/><text fill="#000000" font-family="sans-serif" font-size="14" font-weight="bold" lengthAdjust="spacing" textLength="63" x="730" y="165.9951">HotShot</text></g><!--cluster L1--><g id="cluster_L1"><path d="M12.5,967 L113.5,967 A3.75,3.75 0 0 1 116,969.5 L123,989.2969 L165.5,989.2969 A2.5,2.5 0 0 1 168,991.7969 L168,1051.5 A2.5,2.5 0 0 1 165.5,1054 L12.5,1054 A2.5,2.5 0 0 1 10,1051.5 L10,969.5 A2.5,2.5 0 0 1 12.5,967 " fill="none" style="stroke:#000000;stroke-width:1.5;"/><line style="stroke:#000000;stroke-width:1.5;" x1="10" x2="123" y1="989.2969" y2="989.2969"/><text fill="#000000" font-family="sans-serif" font-size="14" font-weight="bold" lengthAdjust="spacing" textLength="100" x="14" y="981.9951">Ethereum L1</text></g><!--cluster L2--><g id="cluster_L2"><path d="M194.5,477 L328.5,477 A3.75,3.75 0 0 1 331,479.5 L338,499.2969 L807.5,499.2969 A2.5,2.5 0 0 1 810,501.7969 L810,1060 A2.5,2.5 0 0 1 807.5,1062.5 L194.5,1062.5 A2.5,2.5 0 0 1 192,1060 L192,479.5 A2.5,2.5 0 0 1 194.5,477 " fill="none" style="stroke:#000000;stroke-width:1.5;"/><line style="stroke:#000000;stroke-width:1.5;" x1="192" x2="338" y1="499.2969" y2="499.2969"/><text fill="#000000" font-family="sans-serif" font-size="14" font-weight="bold" lengthAdjust="spacing" textLength="133" x="196" y="491.9951">L2 (zkevm-node)</text></g><!--cluster HermezProver--><g id="cluster_HermezProver"><path d="M317.5,805 L437.5,805 A3.75,3.75 0 0 1 440,807.5 L447,827.2969 L662.5,827.2969 A2.5,2.5 0 0 1 665,829.7969 L665,915.5 A2.5,2.5 0 0 1 662.5,918 L317.5,918 A2.5,2.5 0 0 1 315,915.5 L315,807.5 A2.5,2.5 0 0 1 317.5,805 " fill="none" style="stroke:#000000;stroke-width:1.5;"/><line style="stroke:#000000;stroke-width:1.5;" x1="315" x2="447" y1="827.2969" y2="827.2969"/><text fill="#000000" font-family="sans-serif" font-size="14" font-weight="bold" lengthAdjust="spacing" textLength="119" x="319" y="819.9951">Hermez Prover</text></g><!--entity Original--><g id="elem_Original"><rect fill="#98FB98" height="36.2969" rx="2.5" ry="2.5" style="stroke:#181818;stroke-width:0.5;" width="151" x="107.5" y="186"/><text fill="#000000" font-family="sans-serif" font-size="14" lengthAdjust="spacing" textLength="131" x="117.5" y="208.9951">zkevm-node "as is"</text></g><!--entity Modified--><g id="elem_Modified"><rect fill="#FFB6C1" height="36.2969" rx="2.5" ry="2.5" style="stroke:#181818;stroke-width:0.5;" width="169" x="293.5" y="186"/><text fill="#000000" font-family="sans-serif" font-size="14" lengthAdjust="spacing" textLength="149" x="303.5" y="208.9951">zkevm-node modified</text></g><!--entity New--><g id="elem_New"><rect fill="#F1F1F1" height="36.2969" rx="2.5" ry="2.5" style="stroke:#181818;stroke-width:0.5;" width="49" x="23.5" y="186"/><text fill="#000000" font-family="sans-serif" font-size="14" lengthAdjust="spacing" textLength="29" x="33.5" y="208.9951">new</text></g><!--entity GossipExternal--><g id="elem_GossipExternal"><rect fill="#F1F1F1" height="36.2969" rx="2.5" ry="2.5" style="stroke:#181818;stroke-width:0.5;" width="68" x="1057" y="186"/><text fill="#000000" font-family="sans-serif" font-size="14" lengthAdjust="spacing" textLength="48" x="1067" y="208.9951">Gossip</text></g><!--entity QueryService--><g id="elem_QueryService"><rect fill="#F1F1F1" height="36.2969" rx="2.5" ry="2.5" style="stroke:#181818;stroke-width:0.5;" width="115" x="543.5" y="186"/><text fill="#000000" font-family="sans-serif" font-size="14" lengthAdjust="spacing" textLength="95" x="553.5" y="208.9951">Query Service</text></g><!--entity Submit--><g id="elem_Submit"><rect fill="#F1F1F1" height="36.2969" rx="2.5" ry="2.5" style="stroke:#181818;stroke-width:0.5;" width="93" x="595.5" y="352"/><text fill="#000000" font-family="sans-serif" font-size="14" lengthAdjust="spacing" textLength="73" x="605.5" y="374.9951">Submit API</text></g><!--entity GossipInternal--><g id="elem_GossipInternal"><rect fill="#F1F1F1" height="36.2969" rx="2.5" ry="2.5" style="stroke:#181818;stroke-width:0.5;" width="68" x="845" y="186"/><text fill="#000000" font-family="sans-serif" font-size="14" lengthAdjust="spacing" textLength="48" x="855" y="208.9951">Gossip</text></g><!--entity HotShotEvents--><g id="elem_HotShotEvents"><rect fill="#F1F1F1" height="36.2969" rx="2.5" ry="2.5" style="stroke:#181818;stroke-width:0.5;" width="67" x="742.5" y="186"/><text fill="#000000" font-family="sans-serif" font-size="14" lengthAdjust="spacing" textLength="47" x="752.5" y="208.9951">Events</text></g><!--entity Rollup--><g id="elem_Rollup"><rect fill="#FFB6C1" height="36.2969" rx="2.5" ry="2.5" style="stroke:#181818;stroke-width:0.5;" width="126" x="26" y="1002"/><text fill="#000000" font-family="sans-serif" font-size="14" lengthAdjust="spacing" textLength="106" x="36" y="1024.9951">Rollup Contract</text></g><!--entity JsonRPC--><g id="elem_JsonRPC"><rect fill="#98FB98" height="36.2969" rx="2.5" ry="2.5" style="stroke:#181818;stroke-width:0.5;" width="78" x="588" y="514"/><text fill="#000000" font-family="sans-serif" font-size="14" lengthAdjust="spacing" textLength="58" x="598" y="536.9951">JsonRPC</text></g><g id="elem_GMN23"><path d="M231,512 L231,552.2656 A0,0 0 0 0 231,552.2656 L553,552.2656 A0,0 0 0 0 553,552.2656 L553,536 L587.74,532 L553,528 L553,522 L543,512 L231,512 A0,0 0 0 0 231,512 " fill="#FEFFDD" style="stroke:#181818;stroke-width:0.5;"/><path d="M543,512 L543,522 L553,522 L543,512 " fill="#FEFFDD" style="stroke:#181818;stroke-width:0.5;"/><text fill="#000000" font-family="sans-serif" font-size="13" lengthAdjust="spacing" textLength="237" x="237" y="529.0669">Configured to forward transactions to</text><text fill="#000000" font-family="sans-serif" font-size="13" lengthAdjust="spacing" textLength="301" x="237" y="544.1997">the Submit API of the decentralized sequencer.</text></g><!--entity L2DB--><g id="elem_L2DB"><path d="M654,688 C654,678 724,678 724,678 C724,678 794,678 794,688 L794,713.2969 C794,723.2969 724,723.2969 724,723.2969 C724,723.2969 654,723.2969 654,713.2969 L654,688 " fill="#98FB98" style="stroke:#181818;stroke-width:0.5;"/><path d="M654,688 C654,698 724,698 724,698 C724,698 794,698 794,688 " fill="none" style="stroke:#181818;stroke-width:0.5;"/><text fill="#000000" font-family="sans-serif" font-size="14" lengthAdjust="spacing" textLength="120" x="664" y="714.9951">L2 Blockchain DB</text></g><!--entity Etherman--><g id="elem_Etherman"><rect fill="#FFB6C1" height="36.2969" rx="2.5" ry="2.5" style="stroke:#181818;stroke-width:0.5;" width="87" x="208.5" y="853"/><text fill="#000000" font-family="sans-serif" font-size="14" lengthAdjust="spacing" textLength="67" x="218.5" y="875.9951">Etherman</text></g><!--entity Aggregator--><g id="elem_Aggregator"><rect fill="#98FB98" height="36.2969" rx="2.5" ry="2.5" style="stroke:#181818;stroke-width:0.5;" width="97" x="314.5" y="682.5"/><text fill="#000000" font-family="sans-serif" font-size="14" lengthAdjust="spacing" textLength="77" x="324.5" y="705.4951">Aggregator</text></g><!--entity State--><g id="elem_State"><rect fill="#98FB98" height="52.5938" rx="2.5" ry="2.5" style="stroke:#181818;stroke-width:0.5;" width="64" x="524" y="674"/><text fill="#000000" font-family="sans-serif" font-size="14" lengthAdjust="spacing" textLength="36" x="534" y="696.9951">State</text><text fill="#000000" font-family="sans-serif" font-size="14" lengthAdjust="spacing" textLength="44" x="534" y="713.292">Library</text></g><!--entity Broadcast--><g id="elem_Broadcast"><rect fill="#FFB6C1" height="52.5938" rx="2.5" ry="2.5" style="stroke:#181818;stroke-width:0.5;" width="144" x="650" y="993.5"/><text fill="#000000" font-family="sans-serif" font-size="14" lengthAdjust="spacing" textLength="115" x="660" y="1016.4951">HotShot-Hermez</text><text fill="#000000" font-family="sans-serif" font-size="14" lengthAdjust="spacing" textLength="124" x="660" y="1032.792">Broadcast Service</text></g><!--entity Synchronizer--><g id="elem_Synchronizer"><rect fill="#98FB98" height="36.2969" rx="2.5" ry="2.5" style="stroke:#181818;stroke-width:0.5;" width="110" x="684" y="853"/><text fill="#000000" font-family="sans-serif" font-size="14" lengthAdjust="spacing" textLength="90" x="694" y="875.9951">Synchronizer</text></g><!--entity Prover--><g id="elem_Prover"><rect fill="#98FB98" height="36.2969" rx="2.5" ry="2.5" style="stroke:#181818;stroke-width:0.5;" width="64" x="331" y="853"/><text fill="#000000" font-family="sans-serif" font-size="14" lengthAdjust="spacing" textLength="44" x="341" y="875.9951">Prover</text></g><!--entity Executor--><g id="elem_Executor"><rect fill="#98FB98" height="36.2969" rx="2.5" ry="2.5" style="stroke:#181818;stroke-width:0.5;" width="81" x="430.5" y="853"/><text fill="#000000" font-family="sans-serif" font-size="14" lengthAdjust="spacing" textLength="61" x="440.5" y="875.9951">Executor</text></g><!--entity Tree--><g id="elem_Tree"><path d="M547,850 C547,840 598,840 598,840 C598,840 649,840 649,850 L649,891.5938 C649,901.5938 598,901.5938 598,901.5938 C598,901.5938 547,901.5938 547,891.5938 L547,850 " fill="#98FB98" style="stroke:#181818;stroke-width:0.5;"/><path d="M547,850 C547,860 598,860 598,860 C598,860 649,860 649,850 " fill="none" style="stroke:#181818;stroke-width:0.5;"/><text fill="#000000" font-family="sans-serif" font-size="14" lengthAdjust="spacing" textLength="81" x="557" y="876.9951">L2 State DB</text><text fill="#000000" font-family="sans-serif" font-size="14" lengthAdjust="spacing" textLength="82" x="557" y="893.292">Merkle Tree</text></g><!--entity User--><g id="elem_User"><rect fill="#FFFFFF" height="36.2969" rx="2.5" ry="2.5" style="stroke:#181818;stroke-width:0.5;" width="52" x="900" y="514"/><text fill="#000000" font-family="sans-serif" font-size="14" lengthAdjust="spacing" textLength="32" x="910" y="536.9951">User</text></g><!--entity Events--><g id="elem_Events"><ellipse cx="1064" cy="370" fill="#F1F1F1" rx="8" ry="8" style="stroke:#181818;stroke-width:0.5;"/><text fill="#000000" font-family="sans-serif" font-size="14" lengthAdjust="spacing" textLength="47" x="1040.5" y="399.9951">Events</text></g><!--link New to Original--><!--link Original to Modified--><!--link User to JsonRPC--><g id="link_User_JsonRPC"><path d="M899.74,532 C848.85,532 736.21,532 672.76,532 " fill="none" id="User-to-JsonRPC" style="stroke:#181818;stroke-width:1.0;"/><polygon fill="#181818" points="667.91,532,676.91,536,672.91,532,676.91,528,667.91,532" style="stroke:#181818;stroke-width:1.0;"/><text fill="#000000" font-family="sans-serif" font-size="13" lengthAdjust="spacing" textLength="52" x="757" y="510.0669">EVM txn</text><text fill="#000000" font-family="sans-serif" font-size="13" lengthAdjust="spacing" textLength="79" x="743.5" y="525.1997">EVM queries</text></g><!--reverse link Submit to JsonRPC--><g id="link_Submit_JsonRPC"><path d="M639.79,394.57 C636.75,427.03 631.34,484.75 628.63,513.59 " fill="none" id="Submit-backto-JsonRPC" style="stroke:#181818;stroke-width:1.0;"/><polygon fill="#181818" points="640.22,389.93,635.3882,398.5122,639.748,394.9077,643.3525,399.2674,640.22,389.93" style="stroke:#181818;stroke-width:1.0;"/><text fill="#000000" font-family="sans-serif" font-size="13" lengthAdjust="spacing" textLength="52" x="635" y="457.0669">EVM txn</text></g><!--link GossipInternal to GossipExternal--><g id="link_GossipInternal_GossipExternal"><path d="M919.8,204 C963.28,204 1006.76,204 1050.24,204 " fill="none" id="GossipInternal-GossipExternal" style="stroke:#181818;stroke-width:1.0;"/><polygon fill="#181818" points="914.88,204,923.88,208,919.88,204,923.88,200,914.88,204" style="stroke:#181818;stroke-width:1.0;"/><polygon fill="#181818" points="1055.14,204,1046.14,200,1050.14,204,1046.14,208,1055.14,204" style="stroke:#181818;stroke-width:1.0;"/></g><!--link QueryService to Broadcast--><g id="link_QueryService_Broadcast"><path d="M611.55,222.28 C624.5,241.71 648.41,272.32 678,286 C707.09,299.45 796.53,274.55 822,294 C849.92,315.33 847,333.86 847,369 C847,369 847,369 847,872 C847,921.81 804.83,963.35 769.48,989.42 " fill="none" id="QueryService-to-Broadcast" style="stroke:#181818;stroke-width:1.0;"/><polygon fill="#181818" points="765.55,992.27,775.1886,990.2458,769.6041,989.3436,770.5063,983.7591,765.55,992.27" style="stroke:#181818;stroke-width:1.0;"/><text fill="#000000" font-family="sans-serif" font-size="13" lengthAdjust="spacing" textLength="50" x="866.5" y="595.0669">stream:</text><text fill="#000000" font-family="sans-serif" font-size="13" lengthAdjust="spacing" textLength="87" x="848" y="610.1997">order commit</text><text fill="#000000" font-family="sans-serif" font-size="13" lengthAdjust="spacing" textLength="19" x="882" y="625.3325">QC</text><text fill="#000000" font-family="sans-serif" font-size="13" lengthAdjust="spacing" textLength="36" x="873.5" y="640.4653">batch</text></g><!--link JsonRPC to State--><g id="link_JsonRPC_State"><path d="M619.67,550.19 C607.85,577.92 584.39,632.93 569.49,667.88 " fill="none" id="JsonRPC-to-State" style="stroke:#181818;stroke-width:1.0;"/><polygon fill="#181818" points="567.58,672.34,574.8019,665.6434,569.5496,667.7443,567.4487,662.492,567.58,672.34" style="stroke:#181818;stroke-width:1.0;"/><text fill="#000000" font-family="sans-serif" font-size="13" lengthAdjust="spacing" textLength="79" x="607" y="617.5669">EVM queries</text></g><!--link State to L2DB--><g id="link_State_L2DB"><path d="M588.39,700.5 C605.24,700.5 626.62,700.5 647.38,700.5 " fill="none" id="State-to-L2DB" style="stroke:#181818;stroke-width:1.0;"/><polygon fill="#181818" points="652.29,700.5,643.29,696.5,647.29,700.5,643.29,704.5,652.29,700.5" style="stroke:#181818;stroke-width:1.0;"/><text fill="#000000" font-family="sans-serif" font-size="13" lengthAdjust="spacing" textLength="29" x="606.5" y="693.5669">read</text></g><!--link State to Tree--><g id="link_State_Tree"><path d="M562.47,727.46 C569.55,755.85 580.94,801.55 588.91,833.53 " fill="none" id="State-to-Tree" style="stroke:#181818;stroke-width:1.0;"/><polygon fill="#181818" points="590.09,838.27,591.7877,828.5686,588.8773,833.4193,584.0266,830.5089,590.09,838.27" style="stroke:#181818;stroke-width:1.0;"/><text fill="#000000" font-family="sans-serif" font-size="13" lengthAdjust="spacing" textLength="58" x="578" y="777.5669">accounts</text></g><!--link State to Executor--><g id="link_State_Executor"><path d="M529.13,727.42 C521.15,736.22 512.96,746.49 507,757 C490.75,785.65 480.75,822.61 475.54,846.32 " fill="none" id="State-to-Executor" style="stroke:#181818;stroke-width:1.0;"/><polygon fill="#181818" points="474.51,851.15,480.3006,843.1833,475.5537,846.2602,472.4769,841.5133,474.51,851.15" style="stroke:#181818;stroke-width:1.0;"/><text fill="#000000" font-family="sans-serif" font-size="13" lengthAdjust="spacing" textLength="53" x="508" y="777.5669">call, etc.</text></g><!--link Aggregator to State--><g id="link_Aggregator_State"><path d="M411.95,700.5 C444.69,700.5 487.16,700.5 517.49,700.5 " fill="none" id="Aggregator-to-State" style="stroke:#181818;stroke-width:1.0;"/><polygon fill="#181818" points="522.25,700.5,513.25,696.5,517.25,700.5,513.25,704.5,522.25,700.5" style="stroke:#181818;stroke-width:1.0;"/><text fill="#000000" font-family="sans-serif" font-size="13" lengthAdjust="spacing" textLength="32" x="451.75" y="663.5669">fetch</text><text fill="#000000" font-family="sans-serif" font-size="13" lengthAdjust="spacing" textLength="41" x="447.25" y="678.6997">prover</text><text fill="#000000" font-family="sans-serif" font-size="13" lengthAdjust="spacing" textLength="32" x="451.75" y="693.8325">input</text></g><!--link Aggregator to Etherman--><g id="link_Aggregator_Etherman"><path d="M348.91,718.61 C340.24,729.38 329.09,743.72 320,757 C299.25,787.3 277.8,824 264.68,847.17 " fill="none" id="Aggregator-to-Etherman" style="stroke:#181818;stroke-width:1.0;"/><polygon fill="#181818" points="262.28,851.45,270.1851,845.5755,264.7361,847.0948,263.2167,841.6458,262.28,851.45" style="stroke:#181818;stroke-width:1.0;"/><text fill="#000000" font-family="sans-serif" font-size="13" lengthAdjust="spacing" textLength="33" x="321" y="777.5669">proof</text></g><!--link Aggregator to Prover--><g id="link_Aggregator_Prover"><path d="M363,718.9 C363,749.33 363,812.22 363,846.49 " fill="none" id="Aggregator-to-Prover" style="stroke:#181818;stroke-width:1.0;"/><polygon fill="#181818" points="363,851.43,367,842.43,363,846.43,359,842.43,363,851.43" style="stroke:#181818;stroke-width:1.0;"/><text fill="#000000" font-family="sans-serif" font-size="13" lengthAdjust="spacing" textLength="58" x="364" y="770.0669">generate</text><text fill="#000000" font-family="sans-serif" font-size="13" lengthAdjust="spacing" textLength="33" x="376.5" y="785.1997">proof</text></g><!--link Etherman to Rollup--><g id="link_Etherman_Rollup"><path d="M232.66,889.44 C202.76,916.41 145.38,968.16 112.92,997.43 " fill="none" id="Etherman-to-Rollup" style="stroke:#181818;stroke-width:1.0;"/><polygon fill="#181818" points="109.44,1000.57,118.8055,997.5225,113.1565,997.2252,113.4538,991.5761,109.44,1000.57" style="stroke:#181818;stroke-width:1.0;"/><text fill="#000000" font-family="sans-serif" font-size="13" lengthAdjust="spacing" textLength="33" x="181" y="947.0669">proof</text></g><!--reverse link Synchronizer to Rollup--><g id="link_Synchronizer_Rollup"><path d="M716.42,893.7 C702.7,905.47 684.16,919.01 665,926 C615.51,944.07 242.35,943.5 192,959 C162.13,968.19 131.66,987.42 111.7,1001.64 " fill="none" id="Synchronizer-backto-Rollup" style="stroke:#181818;stroke-width:1.0;"/><polygon fill="#181818" points="720.12,890.45,710.7183,893.3839,716.3633,893.7496,715.9976,899.3946,720.12,890.45" style="stroke:#181818;stroke-width:1.0;"/><text fill="#000000" font-family="sans-serif" font-size="13" lengthAdjust="spacing" textLength="100" x="611" y="947.0669">contract events</text></g><!--reverse link Synchronizer to Broadcast--><g id="link_Synchronizer_Broadcast"><path d="M736.24,895.86 C733.15,922.57 728.16,965.7 724.99,993.19 " fill="none" id="Synchronizer-backto-Broadcast" style="stroke:#181818;stroke-width:1.0;"/><polygon fill="#181818" points="736.81,890.94,731.8057,899.4227,736.2374,895.9071,739.753,900.3389,736.81,890.94" style="stroke:#181818;stroke-width:1.0;"/><text fill="#000000" font-family="sans-serif" font-size="13" lengthAdjust="spacing" textLength="36" x="732" y="947.0669">batch</text></g><!--reverse link State to Synchronizer--><g id="link_State_Synchronizer"><path d="M593.68,721.39 C610.27,731.03 629.47,743.45 645,757 C679.04,786.69 710.94,829.34 727.39,852.84 " fill="none" id="State-backto-Synchronizer" style="stroke:#181818;stroke-width:1.0;"/><polygon fill="#181818" points="589.48,718.99,595.304,726.9323,593.8195,721.4738,599.278,719.9892,589.48,718.99" style="stroke:#181818;stroke-width:1.0;"/></g><!--reverse link App to Submit--><g id="link_App_Submit"><path d="M693.5166,270.1064 C693.4944,270.2457 693.4721,270.3849 693.4496,270.5241 C693.4046,270.8024 693.3588,271.0806 693.3122,271.3585 C693.2192,271.9143 693.123,272.4692 693.0237,273.023 C692.2295,277.4536 691.235,281.8138 690,286 C682.75,310.59 666.85,335.63 655.33,351.68 " fill="none" id="App-backto-Submit" style="stroke:#181818;stroke-width:1.0;"/><polygon fill="#181818" points="693.5166,270.1064,688.1531,278.3668,692.7316,275.0444,696.0539,279.6228,693.5166,270.1064" style="stroke:#181818;stroke-width:1.0;"/><text fill="#000000" font-family="sans-serif" font-size="13" lengthAdjust="spacing" textLength="126" x="687" y="307.0669">wrap in HotShot txn</text></g><!--link HotShotEvents to Events--><g id="link_HotShotEvents_Events"><path d="M781.72,222.5 C789.07,241.82 803.84,272.03 828,286 C859.78,304.38 959.64,278.68 993,294 C1021.98,307.31 1044.97,338.34 1056.3,356.03 " fill="none" id="HotShotEvents-to-Events" style="stroke:#181818;stroke-width:1.0;"/><polygon fill="#181818" points="1058.89,360.19,1057.5268,350.4359,1056.2464,355.946,1050.7364,354.6657,1058.89,360.19" style="stroke:#181818;stroke-width:1.0;"/></g><!--SRC=[dLLDRziu4BtpLmoSWrjW5I0-2aM0E37QBfojMxVRGvK3BOqbmXAffQZOSP7_tY6fJxlkONsmf9d7uUFCcs6r4xBacXSGgw9K4gLPcvSSGMDik4npP6nBReGbfYWJ-CcWXyBakCFd8f0gGPZm2aGrcG0zFscH2ibpk5hn7DzhH7bnNQ4IiHMOk8MFpGTSBKMQcPMGk_52YNi7_0Vtx9KnUa3m8nD9Wl991xVTpgoZC7AtyHdhOtwhKCFLzqmOP2MFTpobmtnGPfqf4yatocJa5xAYVCHOlNNRD-x5mQ2scvoavRsgAb4wf7zjWPPpjyS3neJMF1T7El4Q_wkHTj0J5wr37NUBVn-1bpxSSNTNbWumsl1pZVg5GkXd4QC3EajZE4MlwqqX3DojFZge_tIWRjUl1naedQ0MCcrFsv7eAVGhManh_tC-Fiec7xy1BvxfKOtIx2mDzfMr_wysctqw5xPGM1Uml76BbpUdPVcYyhmkuLxPhCV6eHhRI6_JuQAv5Wc5RuBwBmezKFQ8nN86RtfrUxMGRSpaxqh9BwlxSNj8PH1ot1fGsnRXpafyjoAjDOd4ADWglUUQNZMN5Pr2A5cHtI4f0z0NryQnbcIaiwhLsJKjiIrjzwNNX1k-uHMTTFOm7p237ouqdM6UgtWNPrn8U9YJyMaeqm-e2pp2IgjdAs5RF6VnXZF5DkPH0eR-nG7ZsgWpHCVoAvdEMJgUQyCfauwY_JsYtkL-WRCyCI-VwM-AF1iMUNPfV3cb5LnUcb9tQQenvMVqXoreEKPoAJQQwnVVXexsfGLDAmG-gv6SQyMJc5TcrFMzzGArzOkCCwqaIK6VQDZDGPgHZVH2i7F776GaxGk9HWkisDJ3sg5wsqwFQQagqOYHDETG6tMWmGaSDcYetw7CEGsZimZB6MDjHmHr6RGnEmQCZQS6l2FCoM1bmu470G6wN8HG6Osy22FfHffD1uMFvEVxI6wuYJF6fdS9BurFW1y98Po21omjHrikJx7D3VCb36vT3uLqYVAajP7HAZ047iUgjkEiTxHY3o7cUVuNe8cl6HkegDzkIxuiagLhdqZIxLsR4TA6Q-GP0i7KzYIGxxmGw3f7xKJeKPseWq4Al6iwKisx8EZySJDA0Vs8_l_0GRLyINnwh6k8fKgri-Fw-hRhLB9wLGMTxOOraz1BYkwi4FQQbrQHxMLbjJMwOo18r5xQ77gQlm00]--></g></svg>