<?xml version="1.0" encoding="us-ascii" standalone="no"?><svg xmlns="http://www.w3.org/2000/svg" xmlns:xlink="http://www.w3.org/1999/xlink" contentStyleType="text/css" height="707px" preserveAspectRatio="none" style="width:1977px;height:707px;background:#FFFFFF;" version="1.1" viewBox="0 0 1977 707" width="1977px" zoomAndPan="magnify"><defs/><g><!--cluster L2--><g id="cluster_L2"><path d="M8.5,187 L77.5,187 A3.75,3.75 0 0 1 80,189.5 L87,209.2969 L834.5,209.2969 A2.5,2.5 0 0 1 837,211.7969 L837,689 A2.5,2.5 0 0 1 834.5,691.5 L8.5,691.5 A2.5,2.5 0 0 1 6,689 L6,189.5 A2.5,2.5 0 0 1 8.5,187 " fill="none" style="stroke:#000000;stroke-width:1.5;"/><line style="stroke:#000000;stroke-width:1.5;" x1="6" x2="87" y1="209.2969" y2="209.2969"/><text fill="#000000" font-family="sans-serif" font-size="14" font-weight="bold" lengthAdjust="spacing" textLength="68" x="10" y="201.9951">Layer 2s</text></g><!--cluster L2_1--><g id="cluster_L2_1"><rect fill="none" height="405.5" rx="2.5" ry="2.5" style="stroke:#181818;stroke-width:1.0;" width="495" x="46" y="246"/><rect fill="none" height="10" style="stroke:#181818;stroke-width:1.0;" width="15" x="521" y="251"/><rect fill="none" height="2" style="stroke:#181818;stroke-width:1.0;" width="4" x="519" y="253"/><rect fill="none" height="2" style="stroke:#181818;stroke-width:1.0;" width="4" x="519" y="257"/><text fill="#000000" font-family="sans-serif" font-size="14" font-weight="bold" lengthAdjust="spacing" textLength="63" x="262" y="271.9951">Rollup 1</text></g><!--cluster L1--><g id="cluster_L1"><path d="M941.5,471 L1001.5,471 A3.75,3.75 0 0 1 1004,473.5 L1011,493.2969 L1967.5,493.2969 A2.5,2.5 0 0 1 1970,495.7969 L1970,697.5 A2.5,2.5 0 0 1 1967.5,700 L941.5,700 A2.5,2.5 0 0 1 939,697.5 L939,473.5 A2.5,2.5 0 0 1 941.5,471 " fill="none" style="stroke:#000000;stroke-width:1.5;"/><line style="stroke:#000000;stroke-width:1.5;" x1="939" x2="1011" y1="493.2969" y2="493.2969"/><text fill="#000000" font-family="sans-serif" font-size="14" font-weight="bold" lengthAdjust="spacing" textLength="59" x="943" y="485.9951">Layer 1</text></g><!--cluster L2_L1--><g id="cluster_L2_L1"><path d="M981.5,530 L1112.5,530 A3.75,3.75 0 0 1 1115,532.5 L1122,552.2969 L1411.5,552.2969 A2.5,2.5 0 0 1 1414,554.7969 L1414,657.5 A2.5,2.5 0 0 1 1411.5,660 L981.5,660 A2.5,2.5 0 0 1 979,657.5 L979,532.5 A2.5,2.5 0 0 1 981.5,530 " fill="none" style="stroke:#000000;stroke-width:1.5;"/><line style="stroke:#000000;stroke-width:1.5;" x1="979" x2="1122" y1="552.2969" y2="552.2969"/><text fill="#000000" font-family="sans-serif" font-size="14" font-weight="bold" lengthAdjust="spacing" textLength="130" x="983" y="544.9951">Rollup Contracts</text></g><!--entity L2_2--><g id="elem_L2_2"><rect fill="#F1F1F1" height="46.2969" rx="2.5" ry="2.5" style="stroke:#181818;stroke-width:0.5;" width="96" x="565" y="289"/><rect fill="#F1F1F1" height="10" style="stroke:#181818;stroke-width:0.5;" width="15" x="641" y="294"/><rect fill="#F1F1F1" height="2" style="stroke:#181818;stroke-width:0.5;" width="4" x="639" y="296"/><rect fill="#F1F1F1" height="2" style="stroke:#181818;stroke-width:0.5;" width="4" x="639" y="300"/><text fill="#000000" font-family="sans-serif" font-size="14" lengthAdjust="spacing" textLength="56" x="580" y="321.9951">Rollup 2</text></g><!--entity L2_N--><g id="elem_L2_N"><rect fill="#F1F1F1" height="46.2969" rx="2.5" ry="2.5" style="stroke:#181818;stroke-width:0.5;" width="97" x="696.5" y="289"/><rect fill="#F1F1F1" height="10" style="stroke:#181818;stroke-width:0.5;" width="15" x="773.5" y="294"/><rect fill="#F1F1F1" height="2" style="stroke:#181818;stroke-width:0.5;" width="4" x="771.5" y="296"/><rect fill="#F1F1F1" height="2" style="stroke:#181818;stroke-width:0.5;" width="4" x="771.5" y="300"/><text fill="#000000" font-family="sans-serif" font-size="14" lengthAdjust="spacing" textLength="57" x="711.5" y="321.9951">Rollup N</text></g><!--entity L2_1_RPC--><g id="elem_L2_1_RPC"><rect fill="#F1F1F1" height="46.2969" rx="2.5" ry="2.5" style="stroke:#181818;stroke-width:0.5;" width="172" x="226" y="289"/><rect fill="#F1F1F1" height="10" style="stroke:#181818;stroke-width:0.5;" width="15" x="378" y="294"/><rect fill="#F1F1F1" height="2" style="stroke:#181818;stroke-width:0.5;" width="4" x="376" y="296"/><rect fill="#F1F1F1" height="2" style="stroke:#181818;stroke-width:0.5;" width="4" x="376" y="300"/><text fill="#000000" font-family="sans-serif" font-size="14" lengthAdjust="spacing" textLength="132" x="241" y="321.9951">API (e.g. JSON-RPC)</text></g><!--entity L2_1_Exec--><g id="elem_L2_1_Exec"><rect fill="#F1F1F1" height="46.2969" rx="2.5" ry="2.5" style="stroke:#181818;stroke-width:0.5;" width="101" x="89.5" y="289"/><rect fill="#F1F1F1" height="10" style="stroke:#181818;stroke-width:0.5;" width="15" x="170.5" y="294"/><rect fill="#F1F1F1" height="2" style="stroke:#181818;stroke-width:0.5;" width="4" x="168.5" y="296"/><rect fill="#F1F1F1" height="2" style="stroke:#181818;stroke-width:0.5;" width="4" x="168.5" y="300"/><text fill="#000000" font-family="sans-serif" font-size="14" lengthAdjust="spacing" textLength="61" x="104.5" y="321.9951">Executor</text></g><!--entity L2_1_Prover--><g id="elem_L2_1_Prover"><rect fill="#F1F1F1" height="46.2969" rx="2.5" ry="2.5" style="stroke:#181818;stroke-width:0.5;" width="84" x="433" y="289"/><rect fill="#F1F1F1" height="10" style="stroke:#181818;stroke-width:0.5;" width="15" x="497" y="294"/><rect fill="#F1F1F1" height="2" style="stroke:#181818;stroke-width:0.5;" width="4" x="495" y="296"/><rect fill="#F1F1F1" height="2" style="stroke:#181818;stroke-width:0.5;" width="4" x="495" y="300"/><text fill="#000000" font-family="sans-serif" font-size="14" lengthAdjust="spacing" textLength="44" x="448" y="321.9951">Prover</text></g><!--entity L2_1_State--><g id="elem_L2_1_State"><rect fill="#F1F1F1" height="46.2969" rx="2.5" ry="2.5" style="stroke:#181818;stroke-width:0.5;" width="101" x="261.5" y="581.5"/><rect fill="#F1F1F1" height="10" style="stroke:#181818;stroke-width:0.5;" width="15" x="342.5" y="586.5"/><rect fill="#F1F1F1" height="2" style="stroke:#181818;stroke-width:0.5;" width="4" x="340.5" y="588.5"/><rect fill="#F1F1F1" height="2" style="stroke:#181818;stroke-width:0.5;" width="4" x="340.5" y="592.5"/><text fill="#000000" font-family="sans-serif" font-size="14" lengthAdjust="spacing" textLength="61" x="276.5" y="614.4951">State DB</text></g><!--entity Seq_L1--><g id="elem_Seq_L1"><rect fill="#F1F1F1" height="46.2969" rx="2.5" ry="2.5" style="stroke:#181818;stroke-width:0.5;" width="179" x="1747.5" y="581.5"/><rect fill="#F1F1F1" height="10" style="stroke:#181818;stroke-width:0.5;" width="15" x="1906.5" y="586.5"/><rect fill="#F1F1F1" height="2" style="stroke:#181818;stroke-width:0.5;" width="4" x="1904.5" y="588.5"/><rect fill="#F1F1F1" height="2" style="stroke:#181818;stroke-width:0.5;" width="4" x="1904.5" y="592.5"/><text fill="#000000" font-family="sans-serif" font-size="14" lengthAdjust="spacing" textLength="139" x="1762.5" y="614.4951">Sequencer Contract</text></g><!--entity L2_1_L1--><g id="elem_L2_1_L1"><rect fill="#F1F1F1" height="62.5938" rx="2.5" ry="2.5" style="stroke:#181818;stroke-width:0.5;" width="99" x="1003.5" y="573"/><rect fill="#F1F1F1" height="10" style="stroke:#181818;stroke-width:0.5;" width="15" x="1082.5" y="578"/><rect fill="#F1F1F1" height="2" style="stroke:#181818;stroke-width:0.5;" width="4" x="1080.5" y="580"/><rect fill="#F1F1F1" height="2" style="stroke:#181818;stroke-width:0.5;" width="4" x="1080.5" y="584"/><text fill="#000000" font-family="sans-serif" font-size="14" lengthAdjust="spacing" textLength="56" x="1018.5" y="605.9951">Rollup 1</text><text fill="#000000" font-family="sans-serif" font-size="14" lengthAdjust="spacing" textLength="59" x="1018.5" y="622.292">Contract</text></g><!--entity L2_2_L1--><g id="elem_L2_2_L1"><rect fill="#F1F1F1" height="62.5938" rx="2.5" ry="2.5" style="stroke:#181818;stroke-width:0.5;" width="99" x="1137.5" y="573"/><rect fill="#F1F1F1" height="10" style="stroke:#181818;stroke-width:0.5;" width="15" x="1216.5" y="578"/><rect fill="#F1F1F1" height="2" style="stroke:#181818;stroke-width:0.5;" width="4" x="1214.5" y="580"/><rect fill="#F1F1F1" height="2" style="stroke:#181818;stroke-width:0.5;" width="4" x="1214.5" y="584"/><text fill="#000000" font-family="sans-serif" font-size="14" lengthAdjust="spacing" textLength="56" x="1152.5" y="605.9951">Rollup 2</text><text fill="#000000" font-family="sans-serif" font-size="14" lengthAdjust="spacing" textLength="59" x="1152.5" y="622.292">Contract</text></g><!--entity L2_N_L1--><g id="elem_L2_N_L1"><rect fill="#F1F1F1" height="62.5938" rx="2.5" ry="2.5" style="stroke:#181818;stroke-width:0.5;" width="99" x="1271.5" y="573"/><rect fill="#F1F1F1" height="10" style="stroke:#181818;stroke-width:0.5;" width="15" x="1350.5" y="578"/><rect fill="#F1F1F1" height="2" style="stroke:#181818;stroke-width:0.5;" width="4" x="1348.5" y="580"/><rect fill="#F1F1F1" height="2" style="stroke:#181818;stroke-width:0.5;" width="4" x="1348.5" y="584"/><text fill="#000000" font-family="sans-serif" font-size="14" lengthAdjust="spacing" textLength="57" x="1286.5" y="605.9951">Rollup N</text><text fill="#000000" font-family="sans-serif" font-size="14" lengthAdjust="spacing" textLength="59" x="1286.5" y="622.292">Contract</text></g><!--entity Seq--><g id="elem_Seq"><rect fill="#F1F1F1" height="46.2969" rx="2.5" ry="2.5" style="stroke:#181818;stroke-width:0.5;" width="176" x="580" y="7"/><rect fill="#F1F1F1" height="10" style="stroke:#181818;stroke-width:0.5;" width="15" x="736" y="12"/><rect fill="#F1F1F1" height="2" style="stroke:#181818;stroke-width:0.5;" width="4" x="734" y="14"/><rect fill="#F1F1F1" height="2" style="stroke:#181818;stroke-width:0.5;" width="4" x="734" y="18"/><text fill="#000000" font-family="sans-serif" font-size="14" lengthAdjust="spacing" textLength="136" x="595" y="39.9951">HotShot Sequencer</text></g><!--entity Client--><g id="elem_Client"><ellipse cx="888" cy="604.5" fill="#F1F1F1" rx="8" ry="8" style="stroke:#181818;stroke-width:0.5;"/><text fill="#000000" font-family="sans-serif" font-size="14" lengthAdjust="spacing" textLength="39" x="868.5" y="634.4951">Client</text></g><!--reverse link L2_1_RPC to Client--><g id="link_L2_1_RPC_Client"><path d="M374.93,337.69 C388.1,342.62 401.95,347.62 415,352 C459.79,367.04 473.7,363.07 517,382 C670.62,449.16 838.79,567.88 879.01,596.94 " fill="none" id="L2_1_RPC-backto-Client" style="stroke:#181818;stroke-width:1.0;"/><polygon fill="#181818" points="370.34,335.97,377.3625,342.8754,375.0216,337.7256,380.1715,335.3848,370.34,335.97" style="stroke:#181818;stroke-width:1.0;"/><text fill="#000000" font-family="sans-serif" font-size="13" lengthAdjust="spacing" textLength="81" x="648.5" y="411.6333">Transactions</text><text fill="#000000" font-family="sans-serif" font-size="13" lengthAdjust="spacing" textLength="86" x="646" y="426.7661">State queries</text><path d="M738,387 L738,442 L985,442 L985,397 L975,387 L738,387 " fill="#FEFFDD" style="stroke:#181818;stroke-width:0.5;"/><path d="M975,387 L975,397 L985,397 L975,387 " fill="#FEFFDD" style="stroke:#181818;stroke-width:0.5;"/><text fill="#000000" font-family="sans-serif" font-size="13" lengthAdjust="spacing" textLength="226" x="744" y="404.0669">1. Many clients submit transactions</text><text fill="#000000" font-family="sans-serif" font-size="13" lengthAdjust="spacing" textLength="193" x="760" y="419.1997">to each L2 simultaneously (for</text><text fill="#000000" font-family="sans-serif" font-size="13" lengthAdjust="spacing" textLength="159" x="760" y="434.3325">clarity only one is shown)</text></g><!--link L2_1_RPC to Seq--><g id="link_L2_1_RPC_Seq"><path d="M302.8,288.62 C285.96,243.62 256.32,141.5 307,83 C340.79,43.99 477.91,33.58 573.07,31.16 " fill="none" id="L2_1_RPC-to-Seq" style="stroke:#181818;stroke-width:1.0;"/><polygon fill="#181818" points="578.05,31.04,568.9502,27.2727,573.0517,31.1685,569.1558,35.27,578.05,31.04" style="stroke:#181818;stroke-width:1.0;"/><path d="M312,94.5 L312,119.5 L597,119.5 L597,104.5 L587,94.5 L312,94.5 " fill="#FEFFDD" style="stroke:#181818;stroke-width:0.5;"/><path d="M587,94.5 L587,104.5 L597,104.5 L587,94.5 " fill="#FEFFDD" style="stroke:#181818;stroke-width:0.5;"/><text fill="#000000" font-family="sans-serif" font-size="13" lengthAdjust="spacing" textLength="264" x="318" y="111.5669">2. L2s forward transactions to sequencer.</text><text fill="#000000" font-family="sans-serif" font-size="13" lengthAdjust="spacing" textLength="74" x="417.5" y="137.6997">Transaction</text><text fill="#000000" font-family="sans-serif" font-size="13" lengthAdjust="spacing" textLength="67" x="421" y="152.8325">Rollup 1 ID</text></g><!--link Seq to L2_1_Exec--><g id="link_Seq_L2_1_Exec"><path d="M579.58,31.41 C469.19,33.63 288.48,43.43 236,83 C171.18,131.87 149.74,232.87 142.96,282.38 " fill="none" id="Seq-to-L2_1_Exec" style="stroke:#181818;stroke-width:1.0;"/><polygon fill="#181818" points="142.33,287.22,147.4542,278.8092,142.973,282.2615,139.5207,277.7803,142.33,287.22" style="stroke:#181818;stroke-width:1.0;"/><text fill="#000000" font-family="sans-serif" font-size="13" lengthAdjust="spacing" textLength="34" x="237" y="127.5669">Block</text></g><!--link Seq to L2_2--><g id="link_Seq_L2_2"><path d="M645.45,53.43 C638.25,61.97 631.1,72.26 627,83 C601.13,150.81 605.09,238.18 609.45,282.5 " fill="none" id="Seq-to-L2_2" style="stroke:#181818;stroke-width:1.0;"/><polygon fill="#181818" points="609.94,287.21,612.9927,277.8462,609.4255,282.2365,605.0351,278.6694,609.94,287.21" style="stroke:#181818;stroke-width:1.0;"/><text fill="#000000" font-family="sans-serif" font-size="13" lengthAdjust="spacing" textLength="34" x="628" y="127.5669">Block</text></g><!--link Seq to L2_N--><g id="link_Seq_L2_N"><path d="M673.83,53.45 C680.68,79.75 692.46,124.59 703,163 C714.45,204.72 728.22,252.9 736.8,282.66 " fill="none" id="Seq-to-L2_N" style="stroke:#181818;stroke-width:1.0;"/><polygon fill="#181818" points="738.13,287.26,739.4768,277.5037,736.7432,282.4562,731.7907,279.7226,738.13,287.26" style="stroke:#181818;stroke-width:1.0;"/><text fill="#000000" font-family="sans-serif" font-size="13" lengthAdjust="spacing" textLength="34" x="704" y="127.7661">Block</text><path d="M744,88 L744,158 L980,158 L980,98 L970,88 L744,88 " fill="#FEFFDD" style="stroke:#181818;stroke-width:0.5;"/><path d="M970,88 L970,98 L980,98 L970,88 " fill="#FEFFDD" style="stroke:#181818;stroke-width:0.5;"/><text fill="#000000" font-family="sans-serif" font-size="13" lengthAdjust="spacing" textLength="206" x="750" y="105.0669">3. Sequencer produces blocks --</text><text fill="#000000" font-family="sans-serif" font-size="13" lengthAdjust="spacing" textLength="182" x="766" y="120.1997">ordered lists of transactions.</text><text fill="#000000" font-family="sans-serif" font-size="13" lengthAdjust="spacing" textLength="199" x="766" y="135.3325">L2s receive blocks and execute</text><text fill="#000000" font-family="sans-serif" font-size="13" lengthAdjust="spacing" textLength="176" x="766" y="150.4653">transactions for their rollup.</text></g><!--link Seq to Seq_L1--><g id="link_Seq_Seq_L1"><path d="M756.38,35.03 C829.7,40.46 935.84,53.18 1024,83 C1365.86,198.63 1707.83,488 1807.85,577.02 " fill="none" id="Seq-to-Seq_L1" style="stroke:#181818;stroke-width:1.0;"/><polygon fill="#181818" points="1811.3,580.1,1807.2329,571.1301,1807.5637,576.7773,1801.9166,577.1081,1811.3,580.1" style="stroke:#181818;stroke-width:1.0;"/><text fill="#000000" font-family="sans-serif" font-size="13" lengthAdjust="spacing" textLength="123" x="1520" y="309.1997">Block Commitment</text><text fill="#000000" font-family="sans-serif" font-size="13" lengthAdjust="spacing" textLength="19" x="1572" y="324.3325">QC</text><path d="M1649,277 L1649,347 L1937,347 L1937,287 L1927,277 L1649,277 " fill="#FEFFDD" style="stroke:#181818;stroke-width:0.5;"/><path d="M1927,277 L1927,287 L1937,287 L1927,277 " fill="#FEFFDD" style="stroke:#181818;stroke-width:0.5;"/><text fill="#000000" font-family="sans-serif" font-size="13" lengthAdjust="spacing" textLength="267" x="1655" y="294.0669">4. Sequencer posts succinct commitment</text><text fill="#000000" font-family="sans-serif" font-size="13" lengthAdjust="spacing" textLength="235" x="1671" y="309.1997">to block to L1. Contract verifies proof</text><text fill="#000000" font-family="sans-serif" font-size="13" lengthAdjust="spacing" textLength="224" x="1671" y="324.3325">of sequencing (Quorum Certificate)</text><text fill="#000000" font-family="sans-serif" font-size="13" lengthAdjust="spacing" textLength="226" x="1671" y="339.4653">then stores the block commitment.</text></g><!--link L2_1_Prover to L2_1_L1--><g id="link_L2_1_Prover_L2_1_L1"><path d="M495.52,335.26 C502.88,341.82 511.68,348.24 521,352 C619.51,391.69 916.43,313.98 998,382 C1051.99,427.02 1057.56,516.02 1055.9,566.42 " fill="none" id="L2_1_Prover-to-L2_1_L1" style="stroke:#181818;stroke-width:1.0;"/><polygon fill="#181818" points="1055.71,571.16,1060.0675,562.3276,1055.9104,566.164,1052.074,562.0069,1055.71,571.16" style="stroke:#181818;stroke-width:1.0;"/><text fill="#000000" font-family="sans-serif" font-size="13" lengthAdjust="spacing" textLength="35" x="1042" y="411.5669">State</text><text fill="#000000" font-family="sans-serif" font-size="13" lengthAdjust="spacing" textLength="33" x="1043" y="426.6997">Proof</text></g><!--link L2_2 to L2_2_L1--><g id="link_L2_2_L2_2_L1"><path d="M644.16,335.4 C654.73,341.89 666.93,348.23 679,352 C768.11,379.82 1022.58,327 1098,382 C1157.57,425.44 1177.32,515.46 1183.84,566.35 " fill="none" id="L2_2-to-L2_2_L1" style="stroke:#181818;stroke-width:1.0;"/><polygon fill="#181818" points="1184.42,571.16,1187.3096,561.7446,1183.8192,566.1962,1179.3675,562.7059,1184.42,571.16" style="stroke:#181818;stroke-width:1.0;"/><text fill="#000000" font-family="sans-serif" font-size="13" lengthAdjust="spacing" textLength="35" x="1151" y="411.5669">State</text><text fill="#000000" font-family="sans-serif" font-size="13" lengthAdjust="spacing" textLength="33" x="1152" y="426.6997">Proof</text></g><!--link L2_N to L2_N_L1--><g id="link_L2_N_L2_N_L1"><path d="M768.92,335.4 C777.22,341.89 786.96,348.23 797,352 C880.03,383.19 1116.46,340.79 1195,382 C1265.59,419.03 1299.23,513.66 1312.96,566.46 " fill="none" id="L2_N-to-L2_N_L1" style="stroke:#181818;stroke-width:1.0;"/><polygon fill="#181818" points="1314.17,571.22,1315.8341,561.5127,1312.9405,566.3735,1308.0797,563.4799,1314.17,571.22" style="stroke:#181818;stroke-width:1.0;"/><text fill="#000000" font-family="sans-serif" font-size="13" lengthAdjust="spacing" textLength="35" x="1260" y="411.5669">State</text><text fill="#000000" font-family="sans-serif" font-size="13" lengthAdjust="spacing" textLength="33" x="1261" y="426.6997">Proof</text><path d="M1301,394.5 L1301,434.5 L1549,434.5 L1549,404.5 L1539,394.5 L1301,394.5 " fill="#FEFFDD" style="stroke:#181818;stroke-width:0.5;"/><path d="M1539,394.5 L1539,404.5 L1549,404.5 L1539,394.5 " fill="#FEFFDD" style="stroke:#181818;stroke-width:0.5;"/><text fill="#000000" font-family="sans-serif" font-size="13" lengthAdjust="spacing" textLength="227" x="1307" y="411.5669">5. Rollups post updated state to L1.</text><text fill="#000000" font-family="sans-serif" font-size="13" lengthAdjust="spacing" textLength="167" x="1323" y="426.6997">ZK-rollups include a proof.</text></g><!--link Seq_L1 to L2_L1--><g id="link_Seq_L1_L2_L1"><path d="M1747.03,604.5 C1685.96,604.5 1604.2425,604.5 1536.11,604.5 C1502.0438,604.5 1471.3738,604.5 1448.3791,604.5 C1436.8817,604.5 1427.3032,604.5 1420.1784,604.5 C1418.3972,604.5 1416.7694,604.5 1415.3032,604.5 C1414.9367,604.5 1414.5803,604.5 1414.2341,604.5 " fill="none" id="Seq_L1-to-L2_L1" style="stroke:#181818;stroke-width:1.0;"/><polygon fill="#181818" points="1414.2341,604.5,1423.2341,608.5,1419.2341,604.5,1423.2341,600.5,1414.2341,604.5" style="stroke:#181818;stroke-width:1.0;"/><path d="M1428.43,511.5 L1428.43,596.5 L1725.43,596.5 L1725.43,521.5 L1715.43,511.5 L1428.43,511.5 " fill="#FEFFDD" style="stroke:#181818;stroke-width:0.5;"/><path d="M1715.43,511.5 L1715.43,521.5 L1725.43,521.5 L1715.43,511.5 " fill="#FEFFDD" style="stroke:#181818;stroke-width:0.5;"/><text fill="#000000" font-family="sans-serif" font-size="13" lengthAdjust="spacing" textLength="272" x="1434.43" y="528.5669">6. Rollup contracts read certified sequence</text><text fill="#000000" font-family="sans-serif" font-size="13" lengthAdjust="spacing" textLength="248" x="1450.43" y="543.6997">of block commitments from sequencer</text><text fill="#000000" font-family="sans-serif" font-size="13" lengthAdjust="spacing" textLength="242" x="1450.43" y="558.8325">contract. Verify state transition proofs</text><text fill="#000000" font-family="sans-serif" font-size="13" lengthAdjust="spacing" textLength="247" x="1450.43" y="573.9653">against this sequence (ZKR) or wait for</text><text fill="#000000" font-family="sans-serif" font-size="13" lengthAdjust="spacing" textLength="260" x="1450.43" y="589.0981">fraud proof against this sequence (ORU).</text></g><!--reverse link L2_1_RPC to L2_1_State--><g id="link_L2_1_RPC_L2_1_State"><path d="M312,341.67 C312,399.48 312,528.97 312,581.11 " fill="none" id="L2_1_RPC-backto-L2_1_State" style="stroke:#181818;stroke-width:1.0;"/><polygon fill="#181818" points="312,336.83,308,345.83,312,341.83,316,345.83,312,336.83" style="stroke:#181818;stroke-width:1.0;"/><text fill="#000000" font-family="sans-serif" font-size="13" lengthAdjust="spacing" textLength="69" x="313" y="419.0669">Read state</text></g><!--link L2_1_Exec to L2_1_State--><g id="link_L2_1_Exec_L2_1_State"><path d="M153.21,335.31 C184.23,387.7 261.64,518.44 295.6,575.8 " fill="none" id="L2_1_Exec-to-L2_1_State" style="stroke:#181818;stroke-width:1.0;"/><polygon fill="#181818" points="297.97,579.81,296.8078,570.03,295.4143,575.5125,289.9318,574.119,297.97,579.81" style="stroke:#181818;stroke-width:1.0;"/><text fill="#000000" font-family="sans-serif" font-size="13" lengthAdjust="spacing" textLength="69" x="217" y="419.0669">Write state</text></g><!--reverse link L2_1_Prover to L2_1_State--><g id="link_L2_1_Prover_L2_1_State"><path d="M459.31,340.97 C427.06,398.43 353.94,528.76 324.56,581.11 " fill="none" id="L2_1_Prover-backto-L2_1_State" style="stroke:#181818;stroke-width:1.0;"/><polygon fill="#181818" points="461.74,336.63,453.8496,342.5242,459.2948,340.9913,460.8277,346.4365,461.74,336.63" style="stroke:#181818;stroke-width:1.0;"/><text fill="#000000" font-family="sans-serif" font-size="13" lengthAdjust="spacing" textLength="71" x="437" y="419.0669">Read State</text></g><!--link L2_1_RPC to L2_1_Exec--><!--link L2_1 to L2_2--><!--link L2_2 to L2_N--><!--link L2_1_L1 to L2_2_L1--><!--link L2_2_L1 to L2_N_L1--><!--link L2 to L1--><!--link Seq to L2--><!--SRC=[VLN9Rjim4BthAmQvr3vOWDNbK1G56gT0qxYAutG1KXS6Gz4M4PbqIIgfKUJVEoH5BRPK7mo9VBEzUJEYShUNWWa3Pv-akSsbWLlsksI2CdK6HDktQ4_e0zaoE9kJ0rEGQ7SpJ-1l1FYZZO-bB8fo3zCAi9vMa2FOXyKbZ5YyZU7pxNKwMIvcuzfYZMyzDX__C5eQgMgOFUZ1BPHyP0tAl_RbS6k8ON1ntWHs9mxwF51N4i39020DW3HwFgQj8cLwobhDECoaC8fG4wXVpwSENBkguWHSwCHwFi1qQCXAT5oxUYlV0wMUMYJ_jqXFBT9WyOnqHBE2M_oat4_Urws6j_1L4Q7HYakXLyBt1GbHdEb8I7nHV9iRa1iek7Y8fZ5y8U80rBdJeClx7JTWMbvSJ2E14PfRdMg-Amj319EbBWumsaWl2LeGnSq1f2Zi7mEExdBv9COH4ndOu55KPufPOqkw2Qz4O1WkBtosHkxhN9COmsl0U4z4PPqSRNuwD3vknRCn9Xac4LYoIiUevuMa3yUtoT15Mb_qKFWoRgOSzafc9MKQxYrSmsJYk94gOufbQA2HPBHi9nyxY2rDCShu8ml61CjWRbJz97KgHXh0v8mhK8wqeQgzy4C1AFOTDdY7pLw9crbVFQywzKZjL44f5zHOeLRMGHKkLVimHoa5oGAk2Rv1oLa-vCPJi0aTuc8BevjIgd87CwOC8YdATEnTvao0njs4nlXS-M_YniTYgdPKwAyhrSb-9HOkk6jikylzcBJJy1vC3rMlO_2ArOueAFSP6cIOFt7QjQIugkwk9ge28ez5cJ4WdfkZjjcuFWKSTXVnNXeZTtN8Do4aSbAjBPGDoO1w9ctqgdk1zcCAKJiAFTRpKcrGxos6xxPtXr23bHotYlFf-cr0jeGBhDVaTiOhFp2wkrgEKUhmH725XBMmKQJClF6GtVNosxZDmmkxPgQGCKDuePkTySvtgFM1mHujRV4ksQWPyCx81-GFN4-i3QsaC-pMVyHiFkGWIzFQNZzpdcLC_5BjlUBkJ-wIIe57nsaKz7fYO7iVX7fYvY-RyyoUJ_t8TywIVm00]--></g></svg>