<?xml version="1.0" encoding="us-ascii" standalone="no"?><svg xmlns="http://www.w3.org/2000/svg" xmlns:xlink="http://www.w3.org/1999/xlink" contentStyleType="text/css" height="1680px" preserveAspectRatio="none" style="width:2358px;height:1680px;background:#FFFFFF;" version="1.1" viewBox="0 0 2358 1680" width="2358px" zoomAndPan="magnify"><defs/><g><!--cluster Network--><g id="cluster_Network"><path d="M8.5,211.29 L245.5,211.29 A3.75,3.75 0 0 1 248,213.79 L255,233.5869 L1816.5,233.5869 A2.5,2.5 0 0 1 1819,236.0869 L1819,1392.47 A2.5,2.5 0 0 1 1816.5,1394.97 L8.5,1394.97 A2.5,2.5 0 0 1 6,1392.47 L6,213.79 A2.5,2.5 0 0 1 8.5,211.29 " fill="none" style="stroke:#000000;stroke-width:1.5;"/><line style="stroke:#000000;stroke-width:1.5;" x1="6" x2="255" y1="233.5869" y2="233.5869"/><text fill="#000000" font-family="sans-serif" font-size="14" font-weight="bold" lengthAdjust="spacing" textLength="236" x="10" y="226.2851">Espresso Sequencer Network</text></g><!--cluster CDN--><g id="cluster_CDN"><path d="M40.5,754.18 L74.5,754.18 A3.75,3.75 0 0 1 77,756.68 L84,776.4769 L486.5,776.4769 A2.5,2.5 0 0 1 489,778.9769 L489,883.98 A2.5,2.5 0 0 1 486.5,886.48 L40.5,886.48 A2.5,2.5 0 0 1 38,883.98 L38,756.68 A2.5,2.5 0 0 1 40.5,754.18 " fill="none" style="stroke:#000000;stroke-width:1.5;"/><line style="stroke:#000000;stroke-width:1.5;" x1="38" x2="84" y1="776.4769" y2="776.4769"/><text fill="#000000" font-family="sans-serif" font-size="14" font-weight="bold" lengthAdjust="spacing" textLength="33" x="42" y="769.1751">CDN</text></g><!--cluster Seq--><g id="cluster_Seq"><path d="M531.5,439.89 L664.5,439.89 A3.75,3.75 0 0 1 667,442.39 L674,462.1869 L1612.5,462.1869 A2.5,2.5 0 0 1 1615,464.6869 L1615,1073.28 A2.5,2.5 0 0 1 1612.5,1075.78 L531.5,1075.78 A2.5,2.5 0 0 1 529,1073.28 L529,442.39 A2.5,2.5 0 0 1 531.5,439.89 " fill="none" style="stroke:#000000;stroke-width:1.5;"/><line style="stroke:#000000;stroke-width:1.5;" x1="529" x2="674" y1="462.1869" y2="462.1869"/><text fill="#000000" font-family="sans-serif" font-size="14" font-weight="bold" lengthAdjust="spacing" textLength="132" x="533" y="454.8851">Sequencer Node</text></g><!--cluster APIs--><g id="cluster_APIs"><rect fill="none" height="237.79" rx="2.5" ry="2.5" style="stroke:#181818;stroke-width:1.0;" width="461.5" x="1101.5" y="627.04"/><rect fill="none" height="10" style="stroke:#181818;stroke-width:1.0;" width="15" x="1543" y="632.04"/><rect fill="none" height="2" style="stroke:#181818;stroke-width:1.0;" width="4" x="1541" y="634.04"/><rect fill="none" height="2" style="stroke:#181818;stroke-width:1.0;" width="4" x="1541" y="638.04"/><text fill="#000000" font-family="sans-serif" font-size="14" font-weight="bold" lengthAdjust="spacing" textLength="34" x="1315.25" y="653.0351">APIs</text></g><!--cluster HotShot--><g id="cluster_HotShot"><path d="M563.5,490.89 L627.5,490.89 A3.75,3.75 0 0 1 630,493.39 L637,513.1869 L924.5,513.1869 A2.5,2.5 0 0 1 927,515.6869 L927,875.98 A2.5,2.5 0 0 1 924.5,878.48 L563.5,878.48 A2.5,2.5 0 0 1 561,875.98 L561,493.39 A2.5,2.5 0 0 1 563.5,490.89 " fill="none" style="stroke:#000000;stroke-width:1.5;"/><line style="stroke:#000000;stroke-width:1.5;" x1="561" x2="637" y1="513.1869" y2="513.1869"/><text fill="#000000" font-family="sans-serif" font-size="14" font-weight="bold" lengthAdjust="spacing" textLength="63" x="565" y="505.8851">HotShot</text></g><!--cluster Networking--><g id="cluster_Networking"><rect fill="none" height="132.29" rx="2.5" ry="2.5" style="stroke:#181818;stroke-width:1.0;" width="302" x="593" y="541.89"/><rect fill="none" height="10" style="stroke:#181818;stroke-width:1.0;" width="15" x="875" y="546.89"/><rect fill="none" height="2" style="stroke:#181818;stroke-width:1.0;" width="4" x="873" y="548.89"/><rect fill="none" height="2" style="stroke:#181818;stroke-width:1.0;" width="4" x="873" y="552.89"/><text fill="#000000" font-family="sans-serif" font-size="14" font-weight="bold" lengthAdjust="spacing" textLength="91" x="698.5" y="567.8851">Networking</text></g><!--cluster State--><g id="cluster_State"><path d="M639.5,927.48 L681.5,927.48 A3.75,3.75 0 0 1 684,929.98 L691,949.7769 L965.5,949.7769 A2.5,2.5 0 0 1 968,952.2769 L968,1041.28 A2.5,2.5 0 0 1 965.5,1043.78 L639.5,1043.78 A2.5,2.5 0 0 1 637,1041.28 L637,929.98 A2.5,2.5 0 0 1 639.5,927.48 " fill="none" style="stroke:#000000;stroke-width:1.5;"/><line style="stroke:#000000;stroke-width:1.5;" x1="637" x2="691" y1="949.7769" y2="949.7769"/><text fill="#000000" font-family="sans-serif" font-size="14" font-weight="bold" lengthAdjust="spacing" textLength="41" x="641" y="942.4751">State</text></g><!--cluster L2s--><g id="cluster_L2s"><path d="M1845.5,6 L1986.5,6 A3.75,3.75 0 0 1 1989,8.5 L1996,28.2969 L2348.5,28.2969 A2.5,2.5 0 0 1 2351,30.7969 L2351,365.39 A2.5,2.5 0 0 1 2348.5,367.89 L1845.5,367.89 A2.5,2.5 0 0 1 1843,365.39 L1843,8.5 A2.5,2.5 0 0 1 1845.5,6 " fill="none" style="stroke:#000000;stroke-width:1.5;"/><line style="stroke:#000000;stroke-width:1.5;" x1="1843" x2="1996" y1="28.2969" y2="28.2969"/><text fill="#000000" font-family="sans-serif" font-size="14" font-weight="bold" lengthAdjust="spacing" textLength="140" x="1847" y="20.9951">Layer 2s / Rollups</text></g><!--cluster L2--><g id="cluster_L2"><rect fill="none" height="294.89" rx="2.5" ry="2.5" style="stroke:#181818;stroke-width:1.0;" width="460" x="1867" y="49"/><rect fill="none" height="10" style="stroke:#181818;stroke-width:1.0;" width="15" x="2307" y="54"/><rect fill="none" height="2" style="stroke:#181818;stroke-width:1.0;" width="4" x="2305" y="56"/><rect fill="none" height="2" style="stroke:#181818;stroke-width:1.0;" width="4" x="2305" y="60"/><text fill="#000000" font-family="sans-serif" font-size="14" font-weight="bold" lengthAdjust="spacing" textLength="64" x="2065" y="74.9951">Rollup N</text></g><!--cluster L1--><g id="cluster_L1"><path d="M1346.5,1473.97 L1487.5,1473.97 A3.75,3.75 0 0 1 1490,1476.47 L1497,1496.2669 L1841.5,1496.2669 A2.5,2.5 0 0 1 1844,1498.7669 L1844,1671.06 A2.5,2.5 0 0 1 1841.5,1673.56 L1346.5,1673.56 A2.5,2.5 0 0 1 1344,1671.06 L1344,1476.47 A2.5,2.5 0 0 1 1346.5,1473.97 " fill="none" style="stroke:#000000;stroke-width:1.5;"/><line style="stroke:#000000;stroke-width:1.5;" x1="1344" x2="1497" y1="1496.2669" y2="1496.2669"/><text fill="#000000" font-family="sans-serif" font-size="14" font-weight="bold" lengthAdjust="spacing" textLength="140" x="1348" y="1488.9651">Ethereum Layer 1</text></g><!--cluster Esp_L1--><g id="cluster_Esp_L1"><path d="M1370.5,1516.97 L1526.5,1516.97 A3.75,3.75 0 0 1 1529,1519.47 L1536,1539.2669 L1647.5,1539.2669 A2.5,2.5 0 0 1 1650,1541.7669 L1650,1647.06 A2.5,2.5 0 0 1 1647.5,1649.56 L1370.5,1649.56 A2.5,2.5 0 0 1 1368,1647.06 L1368,1519.47 A2.5,2.5 0 0 1 1370.5,1516.97 " fill="none" style="stroke:#000000;stroke-width:1.5;"/><line style="stroke:#000000;stroke-width:1.5;" x1="1368" x2="1536" y1="1539.2669" y2="1539.2669"/><text fill="#000000" font-family="sans-serif" font-size="14" font-weight="bold" lengthAdjust="spacing" textLength="155" x="1372" y="1531.9651">Espresso Contracts</text></g><!--cluster Rollup Contracts--><g id="cluster_Rollup Contracts"><path d="M1676.5,1516.97 L1807.5,1516.97 A3.75,3.75 0 0 1 1810,1519.47 L1817,1539.2669 L1817.5,1539.2669 A2.5,2.5 0 0 1 1820,1541.7669 L1820,1647.06 A2.5,2.5 0 0 1 1817.5,1649.56 L1676.5,1649.56 A2.5,2.5 0 0 1 1674,1647.06 L1674,1519.47 A2.5,2.5 0 0 1 1676.5,1516.97 " fill="none" style="stroke:#000000;stroke-width:1.5;"/><line style="stroke:#000000;stroke-width:1.5;" x1="1674" x2="1817" y1="1539.2669" y2="1539.2669"/><text fill="#000000" font-family="sans-serif" font-size="14" font-weight="bold" lengthAdjust="spacing" textLength="130" x="1678" y="1531.9651">Rollup Contracts</text></g><!--entity Nodes--><g id="elem_Nodes"><rect fill="#F1F1F1" height="78.8906" rx="2.5" ry="2.5" style="stroke:#181818;stroke-width:0.5;" width="116" x="602" y="265.29"/><rect fill="#F1F1F1" height="10" style="stroke:#181818;stroke-width:0.5;" width="15" x="698" y="270.29"/><rect fill="#F1F1F1" height="2" style="stroke:#181818;stroke-width:0.5;" width="4" x="696" y="272.29"/><rect fill="#F1F1F1" height="2" style="stroke:#181818;stroke-width:0.5;" width="4" x="696" y="276.29"/><text fill="#000000" font-family="sans-serif" font-size="14" lengthAdjust="spacing" textLength="39" x="617" y="298.2851">Other</text><text fill="#000000" font-family="sans-serif" font-size="14" lengthAdjust="spacing" textLength="76" x="617" y="314.582">Sequencer</text><text fill="#000000" font-family="sans-serif" font-size="14" lengthAdjust="spacing" textLength="45" x="617" y="330.8789">Nodes</text></g><!--entity HSProver--><g id="elem_HSProver"><rect fill="#F1F1F1" height="62.5938" rx="2.5" ry="2.5" style="stroke:#181818;stroke-width:0.5;" width="137" x="1122.5" y="1316.37"/><rect fill="#F1F1F1" height="10" style="stroke:#181818;stroke-width:0.5;" width="15" x="1239.5" y="1321.37"/><rect fill="#F1F1F1" height="2" style="stroke:#181818;stroke-width:0.5;" width="4" x="1237.5" y="1323.37"/><rect fill="#F1F1F1" height="2" style="stroke:#181818;stroke-width:0.5;" width="4" x="1237.5" y="1327.37"/><text fill="#000000" font-family="sans-serif" font-size="14" lengthAdjust="spacing" textLength="95" x="1137.5" y="1349.3651">HotShot state</text><text fill="#000000" font-family="sans-serif" font-size="14" lengthAdjust="spacing" textLength="97" x="1137.5" y="1365.662">prover service</text></g><!--entity Relay--><g id="elem_Relay"><rect fill="#F1F1F1" height="62.5938" rx="2.5" ry="2.5" style="stroke:#181818;stroke-width:0.5;" width="135" x="688.5" y="1161.78"/><rect fill="#F1F1F1" height="10" style="stroke:#181818;stroke-width:0.5;" width="15" x="803.5" y="1166.78"/><rect fill="#F1F1F1" height="2" style="stroke:#181818;stroke-width:0.5;" width="4" x="801.5" y="1168.78"/><rect fill="#F1F1F1" height="2" style="stroke:#181818;stroke-width:0.5;" width="4" x="801.5" y="1172.78"/><text fill="#000000" font-family="sans-serif" font-size="14" lengthAdjust="spacing" textLength="95" x="703.5" y="1194.7751">HotShot state</text><text fill="#000000" font-family="sans-serif" font-size="14" lengthAdjust="spacing" textLength="85" x="703.5" y="1211.072">relay service</text></g><!--entity Builder--><g id="elem_Builder"><rect fill="#F1F1F1" height="46.2969" rx="2.5" ry="2.5" style="stroke:#181818;stroke-width:0.5;" width="88" x="1715" y="603.89"/><rect fill="#F1F1F1" height="10" style="stroke:#181818;stroke-width:0.5;" width="15" x="1783" y="608.89"/><rect fill="#F1F1F1" height="2" style="stroke:#181818;stroke-width:0.5;" width="4" x="1781" y="610.89"/><rect fill="#F1F1F1" height="2" style="stroke:#181818;stroke-width:0.5;" width="4" x="1781" y="614.89"/><text fill="#000000" font-family="sans-serif" font-size="14" lengthAdjust="spacing" textLength="48" x="1730" y="636.8851">Builder</text></g><!--entity Broker--><g id="elem_Broker"><rect fill="#F1F1F1" height="46.2969" rx="2.5" ry="2.5" style="stroke:#181818;stroke-width:0.5;" width="86" x="62" y="816.18"/><rect fill="#F1F1F1" height="10" style="stroke:#181818;stroke-width:0.5;" width="15" x="128" y="821.18"/><rect fill="#F1F1F1" height="2" style="stroke:#181818;stroke-width:0.5;" width="4" x="126" y="823.18"/><rect fill="#F1F1F1" height="2" style="stroke:#181818;stroke-width:0.5;" width="4" x="126" y="827.18"/><text fill="#000000" font-family="sans-serif" font-size="14" lengthAdjust="spacing" textLength="46" x="77" y="849.1751">Broker</text></g><!--entity Marshal--><g id="elem_Marshal"><rect fill="#F1F1F1" height="46.2969" rx="2.5" ry="2.5" style="stroke:#181818;stroke-width:0.5;" width="93" x="352.5" y="816.18"/><rect fill="#F1F1F1" height="10" style="stroke:#181818;stroke-width:0.5;" width="15" x="425.5" y="821.18"/><rect fill="#F1F1F1" height="2" style="stroke:#181818;stroke-width:0.5;" width="4" x="423.5" y="823.18"/><rect fill="#F1F1F1" height="2" style="stroke:#181818;stroke-width:0.5;" width="4" x="423.5" y="827.18"/><text fill="#000000" font-family="sans-serif" font-size="14" lengthAdjust="spacing" textLength="53" x="367.5" y="849.1751">Marshal</text></g><!--entity KeyDB--><g id="elem_KeyDB"><path d="M217,826.68 C217,816.68 250,816.68 250,816.68 C250,816.68 283,816.68 283,826.68 L283,851.9769 C283,861.9769 250,861.9769 250,861.9769 C250,861.9769 217,861.9769 217,851.9769 L217,826.68 " fill="#F1F1F1" style="stroke:#181818;stroke-width:0.5;"/><path d="M217,826.68 C217,836.68 250,836.68 250,836.68 C250,836.68 283,836.68 283,826.68 " fill="none" style="stroke:#181818;stroke-width:0.5;"/><text fill="#000000" font-family="sans-serif" font-size="14" lengthAdjust="spacing" textLength="46" x="227" y="853.6751">KeyDB</text></g><!--entity DB--><g id="elem_DB"><path d="M987,991.98 C987,981.98 1028,981.98 1028,981.98 C1028,981.98 1069,981.98 1069,991.98 L1069,1017.2769 C1069,1027.2769 1028,1027.2769 1028,1027.2769 C1028,1027.2769 987,1027.2769 987,1017.2769 L987,991.98 " fill="#F1F1F1" style="stroke:#181818;stroke-width:0.5;"/><path d="M987,991.98 C987,1001.98 1028,1001.98 1028,1001.98 C1028,1001.98 1069,1001.98 1069,991.98 " fill="none" style="stroke:#181818;stroke-width:0.5;"/><text fill="#000000" font-family="sans-serif" font-size="14" lengthAdjust="spacing" textLength="62" x="997" y="1018.9751">Postgres</text></g><!--entity QS--><g id="elem_QS"><rect fill="#F1F1F1" height="78.8906" rx="2.5" ry="2.5" style="stroke:#181818;stroke-width:0.5;" width="96" x="980" y="799.89"/><rect fill="#F1F1F1" height="10" style="stroke:#181818;stroke-width:0.5;" width="15" x="1056" y="804.89"/><rect fill="#F1F1F1" height="2" style="stroke:#181818;stroke-width:0.5;" width="4" x="1054" y="806.89"/><rect fill="#F1F1F1" height="2" style="stroke:#181818;stroke-width:0.5;" width="4" x="1054" y="810.89"/><text fill="#000000" font-family="sans-serif" font-size="14" lengthAdjust="spacing" textLength="56" x="995" y="832.8851">HotShot</text><text fill="#000000" font-family="sans-serif" font-size="14" lengthAdjust="spacing" textLength="41" x="995" y="849.182">Query</text><text fill="#000000" font-family="sans-serif" font-size="14" lengthAdjust="spacing" textLength="50" x="995" y="865.4789">Service</text></g><text fill="#000000" font-family="sans-serif" font-size="14" lengthAdjust="spacing" textLength="58" x="1090.5" y="605.7382">Catchup</text><rect fill="#F1F1F1" height="12" style="stroke:#181818;stroke-width:1.5;" width="12" x="1113.5" y="621.04"/><text fill="#000000" font-family="sans-serif" font-size="14" lengthAdjust="spacing" textLength="44" x="1221" y="605.7382">Status</text><rect fill="#F1F1F1" height="12" style="stroke:#181818;stroke-width:1.5;" width="12" x="1237" y="621.04"/><text fill="#000000" font-family="sans-serif" font-size="14" lengthAdjust="spacing" textLength="48" x="1432" y="605.7382">Submit</text><rect fill="#F1F1F1" height="12" style="stroke:#181818;stroke-width:1.5;" width="12" x="1450" y="621.04"/><text fill="#000000" font-family="sans-serif" font-size="14" lengthAdjust="spacing" textLength="41" x="1311.5" y="605.7382">Query</text><rect fill="#F1F1F1" height="12" style="stroke:#181818;stroke-width:1.5;" width="12" x="1326" y="621.04"/><text fill="#000000" font-family="sans-serif" font-size="14" lengthAdjust="spacing" textLength="55" x="1517.5" y="573.1445">Hotshot</text><text fill="#000000" font-family="sans-serif" font-size="14" lengthAdjust="spacing" textLength="47" x="1521.5" y="589.4414">Events</text><text fill="#000000" font-family="sans-serif" font-size="14" lengthAdjust="spacing" textLength="49" x="1520.5" y="605.7382">Stream</text><rect fill="#F1F1F1" height="12" style="stroke:#181818;stroke-width:1.5;" width="12" x="1539" y="621.04"/><!--entity Events--><g id="elem_Events"><rect fill="#F1F1F1" height="46.2969" rx="2.5" ry="2.5" style="stroke:#181818;stroke-width:0.5;" width="147" x="760.5" y="816.18"/><rect fill="#F1F1F1" height="10" style="stroke:#181818;stroke-width:0.5;" width="15" x="887.5" y="821.18"/><rect fill="#F1F1F1" height="2" style="stroke:#181818;stroke-width:0.5;" width="4" x="885.5" y="823.18"/><rect fill="#F1F1F1" height="2" style="stroke:#181818;stroke-width:0.5;" width="4" x="885.5" y="827.18"/><text fill="#000000" font-family="sans-serif" font-size="14" lengthAdjust="spacing" textLength="107" x="775.5" y="849.1751">HotShot Events</text></g><!--entity Libp2p--><g id="elem_Libp2p"><rect fill="#F1F1F1" height="46.2969" rx="2.5" ry="2.5" style="stroke:#181818;stroke-width:0.5;" width="86" x="617" y="603.89"/><rect fill="#F1F1F1" height="10" style="stroke:#181818;stroke-width:0.5;" width="15" x="683" y="608.89"/><rect fill="#F1F1F1" height="2" style="stroke:#181818;stroke-width:0.5;" width="4" x="681" y="610.89"/><rect fill="#F1F1F1" height="2" style="stroke:#181818;stroke-width:0.5;" width="4" x="681" y="614.89"/><text fill="#000000" font-family="sans-serif" font-size="14" lengthAdjust="spacing" textLength="46" x="632" y="636.8851">Libp2p</text></g><!--entity CDN Client--><g id="elem_CDN Client"><rect fill="#F1F1F1" height="46.2969" rx="2.5" ry="2.5" style="stroke:#181818;stroke-width:0.5;" width="114" x="738" y="603.89"/><rect fill="#F1F1F1" height="10" style="stroke:#181818;stroke-width:0.5;" width="15" x="832" y="608.89"/><rect fill="#F1F1F1" height="2" style="stroke:#181818;stroke-width:0.5;" width="4" x="830" y="610.89"/><rect fill="#F1F1F1" height="2" style="stroke:#181818;stroke-width:0.5;" width="4" x="830" y="614.89"/><text fill="#000000" font-family="sans-serif" font-size="14" lengthAdjust="spacing" textLength="74" x="753" y="636.8851">CDN Client</text></g><!--entity Signer--><g id="elem_Signer"><rect fill="#F1F1F1" height="46.2969" rx="2.5" ry="2.5" style="stroke:#181818;stroke-width:0.5;" width="124" x="653" y="981.48"/><rect fill="#F1F1F1" height="10" style="stroke:#181818;stroke-width:0.5;" width="15" x="757" y="986.48"/><rect fill="#F1F1F1" height="2" style="stroke:#181818;stroke-width:0.5;" width="4" x="755" y="988.48"/><rect fill="#F1F1F1" height="2" style="stroke:#181818;stroke-width:0.5;" width="4" x="755" y="992.48"/><text fill="#000000" font-family="sans-serif" font-size="14" lengthAdjust="spacing" textLength="84" x="668" y="1014.4751">State Signer</text></g><!--entity Validated--><g id="elem_Validated"><rect fill="#F1F1F1" height="46.2969" rx="2.5" ry="2.5" style="stroke:#181818;stroke-width:0.5;" width="139" x="812.5" y="981.48"/><rect fill="#F1F1F1" height="10" style="stroke:#181818;stroke-width:0.5;" width="15" x="931.5" y="986.48"/><rect fill="#F1F1F1" height="2" style="stroke:#181818;stroke-width:0.5;" width="4" x="929.5" y="988.48"/><rect fill="#F1F1F1" height="2" style="stroke:#181818;stroke-width:0.5;" width="4" x="929.5" y="992.48"/><text fill="#000000" font-family="sans-serif" font-size="14" lengthAdjust="spacing" textLength="99" x="827.5" y="1014.4751">ValidatedState</text></g><!--entity L2_RPC--><g id="elem_L2_RPC"><rect fill="#F1F1F1" height="46.2969" rx="2.5" ry="2.5" style="stroke:#181818;stroke-width:0.5;" width="172" x="2020" y="281.59"/><rect fill="#F1F1F1" height="10" style="stroke:#181818;stroke-width:0.5;" width="15" x="2172" y="286.59"/><rect fill="#F1F1F1" height="2" style="stroke:#181818;stroke-width:0.5;" width="4" x="2170" y="288.59"/><rect fill="#F1F1F1" height="2" style="stroke:#181818;stroke-width:0.5;" width="4" x="2170" y="292.59"/><text fill="#000000" font-family="sans-serif" font-size="14" lengthAdjust="spacing" textLength="132" x="2035" y="314.5851">API (e.g. JSON-RPC)</text></g><!--entity L2_Exec--><g id="elem_L2_Exec"><rect fill="#F1F1F1" height="46.2969" rx="2.5" ry="2.5" style="stroke:#181818;stroke-width:0.5;" width="101" x="1883.5" y="281.59"/><rect fill="#F1F1F1" height="10" style="stroke:#181818;stroke-width:0.5;" width="15" x="1964.5" y="286.59"/><rect fill="#F1F1F1" height="2" style="stroke:#181818;stroke-width:0.5;" width="4" x="1962.5" y="288.59"/><rect fill="#F1F1F1" height="2" style="stroke:#181818;stroke-width:0.5;" width="4" x="1962.5" y="292.59"/><text fill="#000000" font-family="sans-serif" font-size="14" lengthAdjust="spacing" textLength="61" x="1898.5" y="314.5851">Executor</text></g><!--entity L2_Prover--><g id="elem_L2_Prover"><rect fill="#F1F1F1" height="46.2969" rx="2.5" ry="2.5" style="stroke:#181818;stroke-width:0.5;" width="84" x="2227" y="281.59"/><rect fill="#F1F1F1" height="10" style="stroke:#181818;stroke-width:0.5;" width="15" x="2291" y="286.59"/><rect fill="#F1F1F1" height="2" style="stroke:#181818;stroke-width:0.5;" width="4" x="2289" y="288.59"/><rect fill="#F1F1F1" height="2" style="stroke:#181818;stroke-width:0.5;" width="4" x="2289" y="292.59"/><text fill="#000000" font-family="sans-serif" font-size="14" lengthAdjust="spacing" textLength="44" x="2242" y="314.5851">Prover</text></g><!--entity L2_State--><g id="elem_L2_State"><path d="M2065.5,113 C2065.5,103 2106,103 2106,103 C2106,103 2146.5,103 2146.5,113 L2146.5,138.2969 C2146.5,148.2969 2106,148.2969 2106,148.2969 C2106,148.2969 2065.5,148.2969 2065.5,138.2969 L2065.5,113 " fill="#F1F1F1" style="stroke:#181818;stroke-width:0.5;"/><path d="M2065.5,113 C2065.5,123 2106,123 2106,123 C2106,123 2146.5,123 2146.5,113 " fill="none" style="stroke:#181818;stroke-width:0.5;"/><text fill="#000000" font-family="sans-serif" font-size="14" lengthAdjust="spacing" textLength="61" x="2075.5" y="139.9951">State DB</text></g><!--entity LC_L1--><g id="elem_LC_L1"><rect fill="#F1F1F1" height="62.5938" rx="2.5" ry="2.5" style="stroke:#181818;stroke-width:0.5;" width="116" x="1384" y="1570.97"/><rect fill="#F1F1F1" height="10" style="stroke:#181818;stroke-width:0.5;" width="15" x="1480" y="1575.97"/><rect fill="#F1F1F1" height="2" style="stroke:#181818;stroke-width:0.5;" width="4" x="1478" y="1577.97"/><rect fill="#F1F1F1" height="2" style="stroke:#181818;stroke-width:0.5;" width="4" x="1478" y="1581.97"/><text fill="#000000" font-family="sans-serif" font-size="14" lengthAdjust="spacing" textLength="76" x="1399" y="1603.9651">Light Client</text><text fill="#000000" font-family="sans-serif" font-size="14" lengthAdjust="spacing" textLength="59" x="1399" y="1620.262">Contract</text></g><!--entity Fee_L1--><g id="elem_Fee_L1"><rect fill="#F1F1F1" height="62.5938" rx="2.5" ry="2.5" style="stroke:#181818;stroke-width:0.5;" width="99" x="1534.5" y="1570.97"/><rect fill="#F1F1F1" height="10" style="stroke:#181818;stroke-width:0.5;" width="15" x="1613.5" y="1575.97"/><rect fill="#F1F1F1" height="2" style="stroke:#181818;stroke-width:0.5;" width="4" x="1611.5" y="1577.97"/><rect fill="#F1F1F1" height="2" style="stroke:#181818;stroke-width:0.5;" width="4" x="1611.5" y="1581.97"/><text fill="#000000" font-family="sans-serif" font-size="14" lengthAdjust="spacing" textLength="26" x="1549.5" y="1603.9651">Fee</text><text fill="#000000" font-family="sans-serif" font-size="14" lengthAdjust="spacing" textLength="59" x="1549.5" y="1620.262">Contract</text></g><!--entity L2_L1--><g id="elem_L2_L1"><rect fill="#F1F1F1" height="62.5938" rx="2.5" ry="2.5" style="stroke:#181818;stroke-width:0.5;" width="99" x="1697.5" y="1570.97"/><rect fill="#F1F1F1" height="10" style="stroke:#181818;stroke-width:0.5;" width="15" x="1776.5" y="1575.97"/><rect fill="#F1F1F1" height="2" style="stroke:#181818;stroke-width:0.5;" width="4" x="1774.5" y="1577.97"/><rect fill="#F1F1F1" height="2" style="stroke:#181818;stroke-width:0.5;" width="4" x="1774.5" y="1581.97"/><text fill="#000000" font-family="sans-serif" font-size="14" lengthAdjust="spacing" textLength="57" x="1712.5" y="1603.9651">Rollup N</text><text fill="#000000" font-family="sans-serif" font-size="14" lengthAdjust="spacing" textLength="59" x="1712.5" y="1620.262">Contract</text></g><!--entity User--><g id="elem_User"><ellipse cx="2106" cy="618.89" fill="#F1F1F1" rx="12" ry="12" style="stroke:#181818;stroke-width:0.5;"/><line style="stroke:#181818;stroke-width:0.5;" x1="2094" x2="2118" y1="632.89" y2="632.89"/><text fill="#000000" font-family="sans-serif" font-size="14" lengthAdjust="spacing" textLength="32" x="2090" y="647.8851">User</text></g><!--link Broker to KeyDB--><g id="link_Broker_KeyDB"><path d="M148.11,839.33 C170.15,839.33 190.55,839.33 210.96,839.33 " fill="none" id="Broker-to-KeyDB" style="stroke:#181818;stroke-width:1.0;"/><polygon fill="#181818" points="216.96,839.33,207.96,835.33,211.96,839.33,207.96,843.33,216.96,839.33" style="stroke:#181818;stroke-width:1.0;"/><text fill="#000000" font-family="sans-serif" font-size="13" lengthAdjust="spacing" textLength="33" x="166" y="832.3969">state</text></g><!--link KeyDB to Marshal--><g id="link_KeyDB_Marshal"><path d="M283.44,839.33 C303.69,839.33 323.82,839.33 346.11,839.33 " fill="none" id="KeyDB-to-Marshal" style="stroke:#181818;stroke-width:1.0;"/><polygon fill="#181818" points="352.11,839.33,343.11,835.33,347.11,839.33,343.11,843.33,352.11,839.33" style="stroke:#181818;stroke-width:1.0;"/><text fill="#000000" font-family="sans-serif" font-size="13" lengthAdjust="spacing" textLength="33" x="301.25" y="832.3969">state</text></g><!--link Nodes to CDN--><g id="link_Nodes_CDN"><path d="M596.8529,348.168 C570.8629,368.598 547.24,392.28 531,423.89 C488.935,505.755 476.3,608.3925 474.2475,691.045 C473.7344,711.7081 473.8827,731.1222 474.3979,748.6504 C474.4301,749.7459 474.4637,750.834 474.4987,751.9146 C474.5162,752.4549 474.3309,746.9968 474.3491,747.5333 " fill="none" id="Nodes-CDN" style="stroke:#181818;stroke-width:1.0;"/><polygon fill="#181818" points="601.57,344.46,592.0224,346.8772,597.6391,347.55,596.9663,353.1667,601.57,344.46" style="stroke:#181818;stroke-width:1.0;"/><polygon fill="#181818" points="474.5522,753.5299,478.2453,744.3997,474.383,748.5328,470.2499,744.6704,474.5522,753.5299" style="stroke:#181818;stroke-width:1.0;"/><text fill="#000000" font-family="sans-serif" font-size="13" lengthAdjust="spacing" textLength="68" x="532" y="624.1069">consensus</text><text fill="#000000" font-family="sans-serif" font-size="13" lengthAdjust="spacing" textLength="66" x="533" y="639.2397">messages</text></g><!--link Query to QS--><g id="link_Query_QS"><path d="M1329.59,632.77 C1323.74,643.92 1307.79,672.25 1288,690.18 C1223.33,748.8 1137.0636,791.8676 1081.6136,816.2176 " fill="none" id="Query-to-QS" style="stroke:#181818;stroke-width:1.0;"/><polygon fill="#181818" points="1076.12,818.63,1085.9688,818.6738,1080.698,816.6196,1082.7522,811.3489,1076.12,818.63" style="stroke:#181818;stroke-width:1.0;"/></g><!--link Nodes to Catchup--><g id="link_Nodes_Catchup"><path d="M718.37,328.32 C769.31,349.35 844.11,383.49 903,423.89 C998.95,489.71 1090.6678,592.3368 1111.7678,616.5468 " fill="none" id="Nodes-to-Catchup" style="stroke:#181818;stroke-width:1.0;"/><polygon fill="#181818" points="1115.71,621.07,1112.8122,611.6571,1112.4249,617.3007,1106.7813,616.9133,1115.71,621.07" style="stroke:#181818;stroke-width:1.0;"/><text fill="#000000" font-family="sans-serif" font-size="13" lengthAdjust="spacing" textLength="4" x="891" y="404.4569">&#160;</text><text fill="#000000" font-family="sans-serif" font-size="13" lengthAdjust="spacing" textLength="49" x="726.0096" y="311.1905">missing</text><text fill="#000000" font-family="sans-serif" font-size="13" lengthAdjust="spacing" textLength="33" x="734.0096" y="326.3234">state</text><text fill="#000000" font-family="sans-serif" font-size="13" lengthAdjust="spacing" textLength="4" x="1108.1636" y="609.9272">&#160;</text></g><!--link Nodes to Libp2p--><g id="link_Nodes_Libp2p"><path d="M660,350.37 C660,417.93 660,543.45 660,597.5 " fill="none" id="Nodes-Libp2p" style="stroke:#181818;stroke-width:1.0;"/><polygon fill="#181818" points="660,344.37,656,353.37,660,349.37,664,353.37,660,344.37" style="stroke:#181818;stroke-width:1.0;"/><polygon fill="#181818" points="660,603.5,664,594.5,660,598.5,656,594.5,660,603.5" style="stroke:#181818;stroke-width:1.0;"/><text fill="#000000" font-family="sans-serif" font-size="13" lengthAdjust="spacing" textLength="68" x="661" y="396.9569">consensus</text><text fill="#000000" font-family="sans-serif" font-size="13" lengthAdjust="spacing" textLength="66" x="662" y="412.0897">messages</text></g><!--link CDN Client to CDN--><g id="link_CDN Client_CDN"><path d="M770.7895,654.6748 C756.8695,668.6748 741.26,681.41 720,690.18 C683.7,705.16 668.34,683.29 632,698.18 C611.25,706.69 613.03,720.11 593,730.18 C579.9,736.77 573.34,730.26 561,738.18 C537.405,753.335 517.6575,777.835 503.685,798.8087 C500.1919,804.0522 497.0597,809.0752 494.3186,813.6768 C492.948,815.9775 491.6752,818.1729 490.5039,820.2378 C490.2111,820.754 489.9246,821.2621 489.6446,821.7616 C489.5045,822.0114 489.3661,822.259 489.2293,822.5044 C489.1608,822.6271 492.0081,817.5051 491.9405,817.6268 " fill="none" id="CDN Client-CDN" style="stroke:#181818;stroke-width:1.0;"/><polygon fill="#181818" points="775.02,650.42,765.8378,653.9819,771.4946,653.9656,771.5108,659.6225,775.02,650.42" style="stroke:#181818;stroke-width:1.0;"/><polygon fill="#181818" points="489.0252,822.8709,496.8942,816.9482,491.4546,818.5008,489.902,813.0612,489.0252,822.8709" style="stroke:#181818;stroke-width:1.0;"/><text fill="#000000" font-family="sans-serif" font-size="13" lengthAdjust="spacing" textLength="68" x="633" y="711.2469">consensus</text><text fill="#000000" font-family="sans-serif" font-size="13" lengthAdjust="spacing" textLength="66" x="634" y="726.3797">messages</text></g><!--link QS to DB--><g id="link_QS_DB"><path d="M1028,879.03 C1028,911.1 1028,949.52 1028,975.75 " fill="none" id="QS-to-DB" style="stroke:#181818;stroke-width:1.0;"/><polygon fill="#181818" points="1028,981.75,1032,972.75,1028,976.75,1024,972.75,1028,981.75" style="stroke:#181818;stroke-width:1.0;"/></g><!--link Signer to Relay--><g id="link_Signer_Relay"><path d="M719.95,1028.12 C727.27,1061.44 739.741,1118.1401 747.981,1155.6001 " fill="none" id="Signer-to-Relay" style="stroke:#181818;stroke-width:1.0;"/><polygon fill="#181818" points="749.27,1161.46,751.2431,1151.8108,748.1958,1156.5767,743.4299,1153.5295,749.27,1161.46" style="stroke:#181818;stroke-width:1.0;"/><text fill="#000000" font-family="sans-serif" font-size="13" lengthAdjust="spacing" textLength="33" x="743" y="1120.3469">state</text></g><!--link Seq to Builder--><g id="link_Seq_Builder"><path d="M1615.1666,627.04 C1615.2533,627.04 1615.3406,627.04 1615.4285,627.04 C1615.7801,627.04 1616.1414,627.04 1616.5121,627.04 C1617.995,627.04 1619.6288,627.04 1621.3969,627.04 C1628.4694,627.04 1637.6925,627.04 1648.0175,627.04 C1668.6675,627.04 1687.725,627.04 1708.8,627.04 " fill="none" id="Seq-to-Builder" style="stroke:#181818;stroke-width:1.0;"/><polygon fill="#181818" points="1714.8,627.04,1705.8,623.04,1709.8,627.04,1705.8,631.04,1714.8,627.04" style="stroke:#181818;stroke-width:1.0;"/><text fill="#000000" font-family="sans-serif" font-size="13" lengthAdjust="spacing" textLength="71" x="1625.68" y="620.1069">claim block</text></g><!--reverse link Seq to Builder--><g id="link_Seq_Builder"><path d="M1620.0014,636.3541 C1620.0872,636.4125 1615.3465,633.1754 1615.4333,633.2343 C1615.607,633.352 1615.7827,633.4707 1615.9606,633.5901 C1617.3832,634.5455 1618.9378,635.5528 1620.5963,636.5737 C1627.23,640.6575 1635.525,644.96 1643.68,647.04 C1666.82,652.93 1693.01,649.2 1714.58,643.44 " fill="none" id="Seq-backto-Builder" style="stroke:#181818;stroke-width:1.0;"/><polygon fill="#181818" points="1615.0462,632.9709,1620.2236,641.3491,1619.1756,635.7902,1624.7345,634.7422,1615.0462,632.9709" style="stroke:#181818;stroke-width:1.0;"/><text fill="#000000" font-family="sans-serif" font-size="13" lengthAdjust="spacing" textLength="33" x="1644.68" y="643.1069">block</text></g><!--link Relay to HSProver--><g id="link_Relay_HSProver"><path d="M823.97,1217.92 C905.21,1246.42 1034.7483,1291.8536 1116.4083,1320.5036 " fill="none" id="Relay-to-HSProver" style="stroke:#181818;stroke-width:1.0;"/><polygon fill="#181818" points="1122.07,1322.49,1114.9018,1315.736,1117.352,1320.8347,1112.2533,1323.2849,1122.07,1322.49" style="stroke:#181818;stroke-width:1.0;"/><text fill="#000000" font-family="sans-serif" font-size="13" lengthAdjust="spacing" textLength="33" x="1013" y="1274.9369">state</text></g><!--reverse link EventsStream to Events--><g id="link_EventsStream_Events"><path d="M1541.0318,638.6284 C1536.3018,650.8984 1524.43,676.83 1501,690.18 C1272.81,820.24 1143.09,613.37 912,738.18 C880.01,755.46 856.85,792.07 844.43,815.92 " fill="none" id="EventsStream-backto-Events" style="stroke:#181818;stroke-width:1.0;"/><polygon fill="#181818" points="1543.19,633.03,1536.2205,639.9889,1541.3915,637.6954,1543.6851,642.8664,1543.19,633.03" style="stroke:#181818;stroke-width:1.0;"/></g><!--link Events to Validated--><g id="link_Events_Validated"><path d="M840.57,862.7 C849.71,893.79 864.4779,944.0235 873.6579,975.2535 " fill="none" id="Events-to-Validated" style="stroke:#181818;stroke-width:1.0;"/><polygon fill="#181818" points="875.35,981.01,876.6495,971.2472,873.9399,976.213,868.9742,973.5034,875.35,981.01" style="stroke:#181818;stroke-width:1.0;"/></g><!--link Networking to Events--><g id="link_Networking_Events"><path d="M873.1501,674.4691 C873.1156,674.5775 873.0812,674.686 873.0467,674.7944 C872.4951,676.5297 871.9381,678.2657 871.3782,679.9932 C870.2583,683.4481 869.1263,686.8687 868,690.18 C866.78,693.78 866.08,694.54 865,698.18 C852.89,739.04 844.2071,781.9493 839.0671,809.8493 " fill="none" id="Networking-to-Events" style="stroke:#181818;stroke-width:1.0;"/><polygon fill="#181818" points="837.98,815.75,843.5444,807.6237,838.8859,810.8328,835.6768,806.1742,837.98,815.75" style="stroke:#181818;stroke-width:1.0;"/></g><!--link EventsStream to Builder--><g id="link_EventsStream_Builder"><path d="M1543.79,621.28 C1538.92,596.32 1523.42,496.64 1576,452.58 C1645.47,394.36 1719.476,538.1093 1746.446,597.9893 " fill="none" id="EventsStream-to-Builder" style="stroke:#181818;stroke-width:1.0;"/><polygon fill="#181818" points="1748.91,603.46,1748.8611,593.6113,1746.8567,598.9011,1741.5668,596.8966,1748.91,603.46" style="stroke:#181818;stroke-width:1.0;"/><text fill="#000000" font-family="sans-serif" font-size="13" lengthAdjust="spacing" textLength="4" x="1603" y="404.4569">&#160;</text><text fill="#000000" font-family="sans-serif" font-size="13" lengthAdjust="spacing" textLength="4" x="1537.7436" y="609.936">&#160;</text><text fill="#000000" font-family="sans-serif" font-size="13" lengthAdjust="spacing" textLength="79" x="1657.8224" y="592.9677">transactions</text></g><!--link Validated to DB--><g id="link_Validated_DB"><path d="M951.86,1004.63 C963.46,1004.63 969.06,1004.63 980.66,1004.63 " fill="none" id="Validated-to-DB" style="stroke:#181818;stroke-width:1.0;"/><polygon fill="#181818" points="986.66,1004.63,977.66,1000.63,981.66,1004.63,977.66,1008.63,986.66,1004.63" style="stroke:#181818;stroke-width:1.0;"/></g><!--link Catchup to DB--><g id="link_Catchup_DB"><path d="M1113.56,630.1 C1088.45,638.56 996.79,673.19 963,738.18 C929.31,802.97 942.43,832.42 963,902.48 C971.88,932.72 989.1088,957.8295 1004.8588,977.1495 " fill="none" id="Catchup-to-DB" style="stroke:#181818;stroke-width:1.0;"/><polygon fill="#181818" points="1008.65,981.8,1006.0636,972.2968,1005.4907,977.9246,999.8629,977.3517,1008.65,981.8" style="stroke:#181818;stroke-width:1.0;"/></g><!--reverse link L2_RPC to User--><g id="link_L2_RPC_User"><path d="M2106,334.26 C2106,392.79 2106,543.23 2106,602.68 " fill="none" id="L2_RPC-backto-User" style="stroke:#181818;stroke-width:1.0;"/><polygon fill="#181818" points="2106,328.26,2102,337.26,2106,333.26,2110,337.26,2106,328.26" style="stroke:#181818;stroke-width:1.0;"/><text fill="#000000" font-family="sans-serif" font-size="13" lengthAdjust="spacing" textLength="83" x="2107.5" y="396.9569">transactions,</text><text fill="#000000" font-family="sans-serif" font-size="13" lengthAdjust="spacing" textLength="84" x="2107" y="412.0897">state queries</text></g><!--link L2_RPC to Submit--><g id="link_L2_RPC_Submit"><path d="M2089.42,328.19 C2068.19,354.87 2028.64,398 1983,415.89 C1958.06,425.66 1521.75,406.96 1501,423.89 C1437.47,475.7 1450.5268,589.6354 1454.3368,615.2354 " fill="none" id="L2_RPC-to-Submit" style="stroke:#181818;stroke-width:1.0;"/><polygon fill="#181818" points="1455.22,621.17,1457.8516,611.6792,1454.484,616.2245,1449.9387,612.8569,1455.22,621.17" style="stroke:#181818;stroke-width:1.0;"/><text fill="#000000" font-family="sans-serif" font-size="13" lengthAdjust="spacing" textLength="4" x="2033" y="404.4569">&#160;</text><text fill="#000000" font-family="sans-serif" font-size="13" lengthAdjust="spacing" textLength="72" x="1964.0839" y="347.9254">transaction</text><text fill="#000000" font-family="sans-serif" font-size="13" lengthAdjust="spacing" textLength="144" x="1928.0839" y="363.0582">NamespaceId Rollup N</text><text fill="#000000" font-family="sans-serif" font-size="13" lengthAdjust="spacing" textLength="4" x="1449.5173" y="610.0884">&#160;</text></g><!--reverse link L2_Exec to Query--><g id="link_L2_Exec_Query"><path d="M1899.6449,331.6676 C1861.2449,359.2176 1795.76,400.67 1727,415.89 C1709.91,419.67 1426.35,413.86 1412,423.89 C1341.45,473.16 1333.11,595.01 1332.13,621.08 " fill="none" id="L2_Exec-backto-Query" style="stroke:#181818;stroke-width:1.0;"/><polygon fill="#181818" points="1904.52,328.17,1894.8756,330.1664,1900.4574,331.0847,1899.5391,336.6665,1904.52,328.17" style="stroke:#181818;stroke-width:1.0;"/><text fill="#000000" font-family="sans-serif" font-size="13" lengthAdjust="spacing" textLength="34" x="1875.5" y="396.9569">Block</text><text fill="#000000" font-family="sans-serif" font-size="13" lengthAdjust="spacing" textLength="163" x="1811" y="412.0897">(sequenced transactions)</text></g><!--link HSProver to LC_L1--><g id="link_HSProver_LC_L1"><path d="M1221.53,1379.39 C1269.87,1428.04 1359.251,1517.9838 1407.461,1566.5038 " fill="none" id="HSProver-to-LC_L1" style="stroke:#181818;stroke-width:1.0;"/><polygon fill="#181818" points="1411.69,1570.76,1408.1839,1561.5563,1408.1658,1567.2132,1402.509,1567.195,1411.69,1570.76" style="stroke:#181818;stroke-width:1.0;"/><text fill="#000000" font-family="sans-serif" font-size="13" lengthAdjust="spacing" textLength="53" x="1295" y="1424.0369">HotShot</text><text fill="#000000" font-family="sans-serif" font-size="13" lengthAdjust="spacing" textLength="33" x="1305" y="1439.1697">state</text><text fill="#000000" font-family="sans-serif" font-size="13" lengthAdjust="spacing" textLength="33" x="1305" y="1454.3025">proof</text></g><!--link L2_Prover to L2_L1--><g id="link_L2_Prover_L2_L1"><path d="M2265.8,328.21 C2258.64,380.39 2242,513.87 2242,626.04 C2242,626.04 2242,626.04 2242,1348.67 C2242,1547.18 1928.2344,1589.3276 1802.7144,1598.3976 " fill="none" id="L2_Prover-to-L2_L1" style="stroke:#181818;stroke-width:1.0;"/><polygon fill="#181818" points="1796.73,1598.83,1805.9949,1602.171,1801.717,1598.4696,1805.4183,1594.1918,1796.73,1598.83" style="stroke:#181818;stroke-width:1.0;"/><text fill="#000000" font-family="sans-serif" font-size="13" lengthAdjust="spacing" textLength="35" x="2243" y="994.1969">rollup</text><text fill="#000000" font-family="sans-serif" font-size="13" lengthAdjust="spacing" textLength="33" x="2244" y="1009.3297">state</text><text fill="#000000" font-family="sans-serif" font-size="13" lengthAdjust="spacing" textLength="33" x="2244" y="1024.4625">proof</text></g><!--link LC_L1 to L2_L1--><g id="link_LC_L1_L2_L1"><path d="M1449.04,1570.68 C1459.81,1530.79 1484.61,1463.82 1534.5,1434.47 C1572.04,1412.38 1593.99,1414.12 1632.5,1434.47 C1686.76,1463.13 1717.959,1524.7683 1733.779,1564.8883 " fill="none" id="LC_L1-to-L2_L1" style="stroke:#181818;stroke-width:1.0;"/><polygon fill="#181818" points="1735.98,1570.47,1736.3997,1560.6301,1734.1459,1565.8186,1728.9574,1563.5647,1735.98,1570.47" style="stroke:#181818;stroke-width:1.0;"/></g><!--link L2_State to L2_RPC--><g id="link_L2_State_L2_RPC"><path d="M2106,148.72 C2106,182.56 2106,240.93 2106,275.11 " fill="none" id="L2_State-to-L2_RPC" style="stroke:#181818;stroke-width:1.0;"/><polygon fill="#181818" points="2106,281.11,2110,272.11,2106,276.11,2102,272.11,2106,281.11" style="stroke:#181818;stroke-width:1.0;"/><text fill="#000000" font-family="sans-serif" font-size="13" lengthAdjust="spacing" textLength="69" x="2107" y="191.3569">Read state</text></g><!--reverse link L2_State to L2_Exec--><g id="link_L2_State_L2_Exec"><path d="M2063.6482,152.0115 C2050.0882,160.6415 2039.97,167.76 2027,178.29 C1991.02,207.52 1961.61,253.68 1946.05,281.1 " fill="none" id="L2_State-backto-L2_Exec" style="stroke:#181818;stroke-width:1.0;"/><polygon fill="#181818" points="2068.71,148.79,2058.9696,150.2477,2064.4918,151.4746,2063.2649,156.9968,2068.71,148.79" style="stroke:#181818;stroke-width:1.0;"/><text fill="#000000" font-family="sans-serif" font-size="13" lengthAdjust="spacing" textLength="69" x="2028" y="191.3569">Write state</text></g><!--link L2_State to L2_Prover--><g id="link_L2_State_L2_Prover"><path d="M2143.29,148.79 C2156.85,157.42 2172.03,167.76 2185,178.29 C2219.99,206.72 2243.2933,248.1662 2256.5233,275.8562 " fill="none" id="L2_State-to-L2_Prover" style="stroke:#181818;stroke-width:1.0;"/><polygon fill="#181818" points="2259.11,281.27,2258.8392,271.4249,2256.9545,276.7585,2251.6208,274.8737,2259.11,281.27" style="stroke:#181818;stroke-width:1.0;"/><text fill="#000000" font-family="sans-serif" font-size="13" lengthAdjust="spacing" textLength="71" x="2203" y="191.3569">Read State</text></g><!--link Builder to Fee_L1--><g id="link_Builder_Fee_L1"><path d="M1749.76,650.63 C1735.07,688.68 1708,768.27 1708,838.33 C1708,838.33 1708,838.33 1708,1348.67 C1708,1436.36 1650.8002,1520.5845 1614.3602,1565.8945 " fill="none" id="Builder-to-Fee_L1" style="stroke:#181818;stroke-width:1.0;"/><polygon fill="#181818" points="1610.6,1570.57,1619.3574,1566.0635,1613.7335,1566.6737,1613.1233,1561.0499,1610.6,1570.57" style="stroke:#181818;stroke-width:1.0;"/><text fill="#000000" font-family="sans-serif" font-size="13" lengthAdjust="spacing" textLength="47" x="1709" y="1112.8469">deposit</text><text fill="#000000" font-family="sans-serif" font-size="13" lengthAdjust="spacing" textLength="20" x="1722.5" y="1127.9797">fee</text></g><!--reverse link Validated to Fee_L1--><g id="link_Validated_Fee_L1"><path d="M896.9106,1033.1648 C909.3006,1053.9648 927.81,1078.52 956,1091.78 C978.12,1102.18 1377.88,1083.37 1396,1099.78 C1457.9,1155.83 1405.36,1203.83 1418,1286.37 C1425.98,1338.5 1413.08,1357.62 1440,1402.97 C1462.57,1440.99 1489.46,1431.37 1517,1465.97 C1542.63,1498.16 1562.03,1541.75 1573.19,1570.65 " fill="none" id="Validated-backto-Fee_L1" style="stroke:#181818;stroke-width:1.0;"/><polygon fill="#181818" points="893.84,1028.01,895.0093,1037.7892,896.3988,1032.3056,901.8824,1033.6951,893.84,1028.01" style="stroke:#181818;stroke-width:1.0;"/><text fill="#000000" font-family="sans-serif" font-size="13" lengthAdjust="spacing" textLength="20" x="1436" y="1267.4369">fee</text><text fill="#000000" font-family="sans-serif" font-size="13" lengthAdjust="spacing" textLength="54" x="1419" y="1282.5697">deposits</text></g><!--SRC=[XLRRRkCs47tNLmpyaWIe7IIzF1YB0esJOhURvcPa2omCB1Y9jed8f4fIoHg5_xs7Lyksaas0H29dXkVCd1cgOUKpMt0QN9b6SsCKJVc_BPSbrtJ3xQlIpmDY9ZtJVmNXfrIhHaakBGrkxPBhcSnUCtcZAcw2atlo3aqyPd9v4qFiXhdGwfdhdes_cJPBLkUTYbdsn0odptnzUU6NDuN_T-HYNxErQgr_3o5f-7im7PEnp7A_vHVSJepUtVEOwSCGkmWu1XHfk3IjcSaLyWCIfjYXDEWa3BwUE9OwD3FcmPqoTg5ZTYBylNp-SVS9srjdVvJIbYRCbiksEToO0djhUjRRfvMmX-ltBTVhm-N1HsNDKjcPl7e14l2TMitPocCDIs4Xksxwy2FAr4VnnpXXw1THXhJSJxD7obuqtoFSYHU59-HYi6kpQtSjdfhpvXs3WPF7f1Pu7koORTuwEK4Bt3jfw2JWW8yh1lSIy0zlqWhRKx6GN0V9-CUtpB-mMa16lF9-tY4lxTLZKxp1msjy9XkjNg1LqwdBn-cTN_o1f-OrM-yuFhYLVQ-BLjHLP1MVlOaN1Bd6WWwGkj1fhi-2iiSqM0bZKEcPD84cVejEGuOYz_Tajxu_Qj_xgOU11WnPfs6bNYLMF9yq3LmJ3xLOB2rs8X44h9bOqLEjokV2c_jGAOF9jmXAeM7RO7UdUz9EF79RngtIysRKMzUVkc1yXgncqh3I2b0T53aU1OOnkV4jUjAmvdD72np7aKoH1ng6A4pE3PtIWwhhjWdYlyRAmVWF1dGJBNg7kvjfTCn7Yn7zDRsz6JxSJKwY_JSyztXSVUTbQvMEHkwrnogaFDfq5BmxSqEdNLwa4wTvr6-WmapwojrZl5rHO7yMpCyYeURWcfmeYSINQJ2OvbistcD_xIGKfJcJoI_4dy2hp-TFplTCiP9iDxkGOWawW7fXf4hjGpZVXaLJmbJODJsYomltXuQFJi6XKZIchjX-YdrAkF-qG6CTaLHujQeXDQTQo6SidOrmpSer6aTuuPjmBHrvVDrmy2FEocNSWfYCMBMrPPAhrjHhEfuh7JVHXThXLB9sVpW94tTmXRtA4xnmMNauHH71kpuDTo9uTBi6domCmm49vPygsYhQJP_Jeu9wQ67jVEGx0fXUcQuEc9ZqLJ1onXaC7PrY_eH9sCRCEda3qeLhmvayJfwxCK_UWVBpgFFLXlbUjIL6fczh39gXCt4_IgFr4ROM1dM0VpV-A5avKfgNNBpm5881FVSjoPFL3btaWD0-GfFsoUkXd0Pa7crU-c2TlnUsrvEQTxdw2Tnb-yiEMsMyfifIoD8wlQE-AmWj0rM1XNkuXXQJ-0bWn1ogfN1Yoj4yLSxDuUFxLcdCX0dN5iOb49xam4ikCUqLne5xZgTi0VGa8Oyf2eNt2GWfUvl_ax9MhRe9-7MKvhAddm2rJPZxyLisqtUiltuUXdDCsa2wwhR2fqhWtuVMLoWXVH_IRmcIkt3368A8M4Lbo9o35MlMoVH-og0aZRYvTP9fYZcYBwvewq0nQ50u2GOEcHjRC85yeYp2v6Xq_FNpmmcQW5uPHe2R9T5yhbbRXH1lkTu-F9xqfEZ8JQapghXbeZPfq7nmdPsl6fJumMKYb2MrUsx-PFCFvXdV6aMTz8SALzZsCaUaS3sC0GMI46YdEUT5M8ndvG-3CStTxH8jJV4_]--></g></svg>