<?xml version="1.0" encoding="us-ascii" standalone="no"?><svg xmlns="http://www.w3.org/2000/svg" xmlns:xlink="http://www.w3.org/1999/xlink" contentStyleType="text/css" height="1342px" preserveAspectRatio="none" style="width:2724px;height:1342px;background:#FFFFFF;" version="1.1" viewBox="0 0 2724 1342" width="2724px" zoomAndPan="magnify"><defs/><g><!--cluster Network--><g id="cluster_Network"><path d="M103.69,673.18 L340.69,673.18 A3.75,3.75 0 0 1 343.19,675.68 L350.19,695.4769 L613.69,695.4769 A2.5,2.5 0 0 1 616.19,697.9769 L616.19,1036.93 A2.5,2.5 0 0 1 613.69,1039.43 L103.69,1039.43 A2.5,2.5 0 0 1 101.19,1036.93 L101.19,675.68 A2.5,2.5 0 0 1 103.69,673.18 " fill="none" style="stroke:#000000;stroke-width:1.5;"/><line style="stroke:#000000;stroke-width:1.5;" x1="101.19" x2="350.19" y1="695.4769" y2="695.4769"/><text fill="#000000" font-family="sans-serif" font-size="14" font-weight="bold" lengthAdjust="spacing" textLength="236" x="105.19" y="688.1751">Espresso Sequencer Network</text></g><!--cluster CDN--><g id="cluster_CDN"><path d="M135.69,724.18 L169.69,724.18 A3.75,3.75 0 0 1 172.19,726.68 L179.19,746.4769 L581.69,746.4769 A2.5,2.5 0 0 1 584.19,748.9769 L584.19,853.98 A2.5,2.5 0 0 1 581.69,856.48 L135.69,856.48 A2.5,2.5 0 0 1 133.19,853.98 L133.19,726.68 A2.5,2.5 0 0 1 135.69,724.18 " fill="none" style="stroke:#000000;stroke-width:1.5;"/><line style="stroke:#000000;stroke-width:1.5;" x1="133.19" x2="179.19" y1="746.4769" y2="746.4769"/><text fill="#000000" font-family="sans-serif" font-size="14" font-weight="bold" lengthAdjust="spacing" textLength="33" x="137.19" y="739.1751">CDN</text></g><!--cluster Espresso--><g id="cluster_Espresso"><path d="M642.69,376.59 L807.69,376.59 A3.75,3.75 0 0 1 810.19,379.09 L817.19,398.8869 L2376.69,398.8869 A2.5,2.5 0 0 1 2379.19,401.3869 L2379.19,1036.93 A2.5,2.5 0 0 1 2376.69,1039.43 L642.69,1039.43 A2.5,2.5 0 0 1 640.19,1036.93 L640.19,379.09 A2.5,2.5 0 0 1 642.69,376.59 " fill="none" style="stroke:#000000;stroke-width:1.5;"/><line style="stroke:#000000;stroke-width:1.5;" x1="640.19" x2="817.19" y1="398.8869" y2="398.8869"/><text fill="#000000" font-family="sans-serif" font-size="14" font-weight="bold" lengthAdjust="spacing" textLength="164" x="644.19" y="391.5851">Espresso Sequencer</text></g><!--cluster Seq--><g id="cluster_Seq"><path d="M674.69,427.59 L807.69,427.59 A3.75,3.75 0 0 1 810.19,430.09 L817.19,449.8869 L2083.69,449.8869 A2.5,2.5 0 0 1 2086.19,452.3869 L2086.19,872.33 A2.5,2.5 0 0 1 2083.69,874.83 L674.69,874.83 A2.5,2.5 0 0 1 672.19,872.33 L672.19,430.09 A2.5,2.5 0 0 1 674.69,427.59 " fill="none" style="stroke:#000000;stroke-width:1.5;"/><line style="stroke:#000000;stroke-width:1.5;" x1="672.19" x2="817.19" y1="449.8869" y2="449.8869"/><text fill="#000000" font-family="sans-serif" font-size="14" font-weight="bold" lengthAdjust="spacing" textLength="132" x="676.19" y="442.5851">Sequencer Node</text></g><!--cluster APIs--><g id="cluster_APIs"><rect fill="none" height="287.09" rx="2.5" ry="2.5" style="stroke:#181818;stroke-width:1.0;" width="543.5" x="1012.69" y="555.74"/><rect fill="none" height="10" style="stroke:#181818;stroke-width:1.0;" width="15" x="1536.19" y="560.74"/><rect fill="none" height="2" style="stroke:#181818;stroke-width:1.0;" width="4" x="1534.19" y="562.74"/><rect fill="none" height="2" style="stroke:#181818;stroke-width:1.0;" width="4" x="1534.19" y="566.74"/><text fill="#000000" font-family="sans-serif" font-size="14" font-weight="bold" lengthAdjust="spacing" textLength="34" x="1267.44" y="581.7351">APIs</text></g><!--cluster Networking--><g id="cluster_Networking"><rect fill="none" height="116.3" rx="2.5" ry="2.5" style="stroke:#181818;stroke-width:1.0;" width="267" x="704.19" y="478.59"/><rect fill="none" height="10" style="stroke:#181818;stroke-width:1.0;" width="15" x="951.19" y="483.59"/><rect fill="none" height="2" style="stroke:#181818;stroke-width:1.0;" width="4" x="949.19" y="485.59"/><rect fill="none" height="2" style="stroke:#181818;stroke-width:1.0;" width="4" x="949.19" y="489.59"/><text fill="#000000" font-family="sans-serif" font-size="14" font-weight="bold" lengthAdjust="spacing" textLength="91" x="792.19" y="504.5851">Networking</text></g><!--cluster State--><g id="cluster_State"><path d="M1717.69,478.59 L1759.69,478.59 A3.75,3.75 0 0 1 1762.19,481.09 L1769.19,500.8869 L2043.69,500.8869 A2.5,2.5 0 0 1 2046.19,503.3869 L2046.19,592.39 A2.5,2.5 0 0 1 2043.69,594.89 L1717.69,594.89 A2.5,2.5 0 0 1 1715.19,592.39 L1715.19,481.09 A2.5,2.5 0 0 1 1717.69,478.59 " fill="none" style="stroke:#000000;stroke-width:1.5;"/><line style="stroke:#000000;stroke-width:1.5;" x1="1715.19" x2="1769.19" y1="500.8869" y2="500.8869"/><text fill="#000000" font-family="sans-serif" font-size="14" font-weight="bold" lengthAdjust="spacing" textLength="41" x="1719.19" y="493.5851">State</text></g><!--cluster L2--><g id="cluster_L2"><path d="M1781.69,6 L1850.69,6 A3.75,3.75 0 0 1 1853.19,8.5 L1860.19,28.2969 L2284.69,28.2969 A2.5,2.5 0 0 1 2287.19,30.7969 L2287.19,310.09 A2.5,2.5 0 0 1 2284.69,312.59 L1781.69,312.59 A2.5,2.5 0 0 1 1779.19,310.09 L1779.19,8.5 A2.5,2.5 0 0 1 1781.69,6 " fill="none" style="stroke:#000000;stroke-width:1.5;"/><line style="stroke:#000000;stroke-width:1.5;" x1="1779.19" x2="1860.19" y1="28.2969" y2="28.2969"/><text fill="#000000" font-family="sans-serif" font-size="14" font-weight="bold" lengthAdjust="spacing" textLength="68" x="1783.19" y="20.9951">Layer 2s</text></g><!--cluster L2_1--><g id="cluster_L2_1"><rect fill="none" height="239.59" rx="2.5" ry="2.5" style="stroke:#181818;stroke-width:1.0;" width="460" x="1803.19" y="49"/><rect fill="none" height="10" style="stroke:#181818;stroke-width:1.0;" width="15" x="2243.19" y="54"/><rect fill="none" height="2" style="stroke:#181818;stroke-width:1.0;" width="4" x="2241.19" y="56"/><rect fill="none" height="2" style="stroke:#181818;stroke-width:1.0;" width="4" x="2241.19" y="60"/><text fill="#000000" font-family="sans-serif" font-size="14" font-weight="bold" lengthAdjust="spacing" textLength="63" x="2001.69" y="74.9951">Rollup 1</text></g><!--cluster L1--><g id="cluster_L1"><path d="M2182.69,1103.43 L2323.69,1103.43 A3.75,3.75 0 0 1 2326.19,1105.93 L2333.19,1125.7269 L2714.69,1125.7269 A2.5,2.5 0 0 1 2717.19,1128.2269 L2717.19,1332.52 A2.5,2.5 0 0 1 2714.69,1335.02 L2182.69,1335.02 A2.5,2.5 0 0 1 2180.19,1332.52 L2180.19,1105.93 A2.5,2.5 0 0 1 2182.69,1103.43 " fill="none" style="stroke:#000000;stroke-width:1.5;"/><line style="stroke:#000000;stroke-width:1.5;" x1="2180.19" x2="2333.19" y1="1125.7269" y2="1125.7269"/><text fill="#000000" font-family="sans-serif" font-size="14" font-weight="bold" lengthAdjust="spacing" textLength="140" x="2184.19" y="1118.4251">Ethereum Layer 1</text></g><!--cluster Esp_L1--><g id="cluster_Esp_L1"><path d="M2206.69,1162.43 L2362.69,1162.43 A3.75,3.75 0 0 1 2365.19,1164.93 L2372.19,1184.7269 L2483.69,1184.7269 A2.5,2.5 0 0 1 2486.19,1187.2269 L2486.19,1292.52 A2.5,2.5 0 0 1 2483.69,1295.02 L2206.69,1295.02 A2.5,2.5 0 0 1 2204.19,1292.52 L2204.19,1164.93 A2.5,2.5 0 0 1 2206.69,1162.43 " fill="none" style="stroke:#000000;stroke-width:1.5;"/><line style="stroke:#000000;stroke-width:1.5;" x1="2204.19" x2="2372.19" y1="1184.7269" y2="1184.7269"/><text fill="#000000" font-family="sans-serif" font-size="14" font-weight="bold" lengthAdjust="spacing" textLength="155" x="2208.19" y="1177.4251">Espresso Contracts</text></g><!--cluster L2_L1--><g id="cluster_L2_L1"><path d="M2520.69,1154.43 L2651.69,1154.43 A3.75,3.75 0 0 1 2654.19,1156.93 L2661.19,1176.7269 L2682.69,1176.7269 A2.5,2.5 0 0 1 2685.19,1179.2269 L2685.19,1300.52 A2.5,2.5 0 0 1 2682.69,1303.02 L2520.69,1303.02 A2.5,2.5 0 0 1 2518.19,1300.52 L2518.19,1156.93 A2.5,2.5 0 0 1 2520.69,1154.43 " fill="none" style="stroke:#000000;stroke-width:1.5;"/><line style="stroke:#000000;stroke-width:1.5;" x1="2518.19" x2="2661.19" y1="1176.7269" y2="1176.7269"/><text fill="#000000" font-family="sans-serif" font-size="14" font-weight="bold" lengthAdjust="spacing" textLength="130" x="2522.19" y="1169.4251">Rollup Contracts</text></g><!--entity Nodes--><g id="elem_Nodes"><rect fill="#F1F1F1" height="62.5938" rx="2.5" ry="2.5" style="stroke:#181818;stroke-width:0.5;" width="116" x="472.19" y="960.83"/><rect fill="#F1F1F1" height="10" style="stroke:#181818;stroke-width:0.5;" width="15" x="568.19" y="965.83"/><rect fill="#F1F1F1" height="2" style="stroke:#181818;stroke-width:0.5;" width="4" x="566.19" y="967.83"/><rect fill="#F1F1F1" height="2" style="stroke:#181818;stroke-width:0.5;" width="4" x="566.19" y="971.83"/><text fill="#000000" font-family="sans-serif" font-size="14" lengthAdjust="spacing" textLength="76" x="487.19" y="993.8251">Sequencer</text><text fill="#000000" font-family="sans-serif" font-size="14" lengthAdjust="spacing" textLength="45" x="487.19" y="1010.122">Nodes</text></g><!--entity Broker--><g id="elem_Broker"><rect fill="#F1F1F1" height="46.2969" rx="2.5" ry="2.5" style="stroke:#181818;stroke-width:0.5;" width="86" x="157.19" y="786.18"/><rect fill="#F1F1F1" height="10" style="stroke:#181818;stroke-width:0.5;" width="15" x="223.19" y="791.18"/><rect fill="#F1F1F1" height="2" style="stroke:#181818;stroke-width:0.5;" width="4" x="221.19" y="793.18"/><rect fill="#F1F1F1" height="2" style="stroke:#181818;stroke-width:0.5;" width="4" x="221.19" y="797.18"/><text fill="#000000" font-family="sans-serif" font-size="14" lengthAdjust="spacing" textLength="46" x="172.19" y="819.1751">Broker</text></g><!--entity Marshal--><g id="elem_Marshal"><rect fill="#F1F1F1" height="46.2969" rx="2.5" ry="2.5" style="stroke:#181818;stroke-width:0.5;" width="93" x="447.69" y="786.18"/><rect fill="#F1F1F1" height="10" style="stroke:#181818;stroke-width:0.5;" width="15" x="520.69" y="791.18"/><rect fill="#F1F1F1" height="2" style="stroke:#181818;stroke-width:0.5;" width="4" x="518.69" y="793.18"/><rect fill="#F1F1F1" height="2" style="stroke:#181818;stroke-width:0.5;" width="4" x="518.69" y="797.18"/><text fill="#000000" font-family="sans-serif" font-size="14" lengthAdjust="spacing" textLength="53" x="462.69" y="819.1751">Marshal</text></g><!--entity KeyDB--><g id="elem_KeyDB"><path d="M312.19,796.68 C312.19,786.68 345.19,786.68 345.19,786.68 C345.19,786.68 378.19,786.68 378.19,796.68 L378.19,821.9769 C378.19,831.9769 345.19,831.9769 345.19,831.9769 C345.19,831.9769 312.19,831.9769 312.19,821.9769 L312.19,796.68 " fill="#F1F1F1" style="stroke:#181818;stroke-width:0.5;"/><path d="M312.19,796.68 C312.19,806.68 345.19,806.68 345.19,806.68 C345.19,806.68 378.19,806.68 378.19,796.68 " fill="none" style="stroke:#181818;stroke-width:0.5;"/><text fill="#000000" font-family="sans-serif" font-size="14" lengthAdjust="spacing" textLength="46" x="322.19" y="823.6751">KeyDB</text></g><!--entity DB--><g id="elem_DB"><path d="M2110.19,796.68 C2110.19,786.68 2151.19,786.68 2151.19,786.68 C2151.19,786.68 2192.19,786.68 2192.19,796.68 L2192.19,821.9769 C2192.19,831.9769 2151.19,831.9769 2151.19,831.9769 C2151.19,831.9769 2110.19,831.9769 2110.19,821.9769 L2110.19,796.68 " fill="#F1F1F1" style="stroke:#181818;stroke-width:0.5;"/><path d="M2110.19,796.68 C2110.19,806.68 2151.19,806.68 2151.19,806.68 C2151.19,806.68 2192.19,806.68 2192.19,796.68 " fill="none" style="stroke:#181818;stroke-width:0.5;"/><text fill="#000000" font-family="sans-serif" font-size="14" lengthAdjust="spacing" textLength="62" x="2120.19" y="823.6751">Postgres</text></g><!--entity HSProver--><g id="elem_HSProver"><rect fill="#F1F1F1" height="62.5938" rx="2.5" ry="2.5" style="stroke:#181818;stroke-width:0.5;" width="137" x="2215.69" y="960.83"/><rect fill="#F1F1F1" height="10" style="stroke:#181818;stroke-width:0.5;" width="15" x="2332.69" y="965.83"/><rect fill="#F1F1F1" height="2" style="stroke:#181818;stroke-width:0.5;" width="4" x="2330.69" y="967.83"/><rect fill="#F1F1F1" height="2" style="stroke:#181818;stroke-width:0.5;" width="4" x="2330.69" y="971.83"/><text fill="#000000" font-family="sans-serif" font-size="14" lengthAdjust="spacing" textLength="95" x="2230.69" y="993.8251">HotShot state</text><text fill="#000000" font-family="sans-serif" font-size="14" lengthAdjust="spacing" textLength="97" x="2230.69" y="1010.122">prover service</text></g><!--entity Relay--><g id="elem_Relay"><rect fill="#F1F1F1" height="62.5938" rx="2.5" ry="2.5" style="stroke:#181818;stroke-width:0.5;" width="135" x="2227.69" y="778.04"/><rect fill="#F1F1F1" height="10" style="stroke:#181818;stroke-width:0.5;" width="15" x="2342.69" y="783.04"/><rect fill="#F1F1F1" height="2" style="stroke:#181818;stroke-width:0.5;" width="4" x="2340.69" y="785.04"/><rect fill="#F1F1F1" height="2" style="stroke:#181818;stroke-width:0.5;" width="4" x="2340.69" y="789.04"/><text fill="#000000" font-family="sans-serif" font-size="14" lengthAdjust="spacing" textLength="95" x="2242.69" y="811.0351">HotShot state</text><text fill="#000000" font-family="sans-serif" font-size="14" lengthAdjust="spacing" textLength="85" x="2242.69" y="827.332">relay service</text></g><!--entity Builder--><g id="elem_Builder"><rect fill="#F1F1F1" height="46.2969" rx="2.5" ry="2.5" style="stroke:#181818;stroke-width:0.5;" width="88" x="2186.19" y="532.59"/><rect fill="#F1F1F1" height="10" style="stroke:#181818;stroke-width:0.5;" width="15" x="2254.19" y="537.59"/><rect fill="#F1F1F1" height="2" style="stroke:#181818;stroke-width:0.5;" width="4" x="2252.19" y="539.59"/><rect fill="#F1F1F1" height="2" style="stroke:#181818;stroke-width:0.5;" width="4" x="2252.19" y="543.59"/><text fill="#000000" font-family="sans-serif" font-size="14" lengthAdjust="spacing" textLength="48" x="2201.19" y="565.5851">Builder</text></g><!--entity QS--><g id="elem_QS"><rect fill="#F1F1F1" height="78.8906" rx="2.5" ry="2.5" style="stroke:#181818;stroke-width:0.5;" width="96" x="1600.19" y="516.29"/><rect fill="#F1F1F1" height="10" style="stroke:#181818;stroke-width:0.5;" width="15" x="1676.19" y="521.29"/><rect fill="#F1F1F1" height="2" style="stroke:#181818;stroke-width:0.5;" width="4" x="1674.19" y="523.29"/><rect fill="#F1F1F1" height="2" style="stroke:#181818;stroke-width:0.5;" width="4" x="1674.19" y="527.29"/><text fill="#000000" font-family="sans-serif" font-size="14" lengthAdjust="spacing" textLength="56" x="1615.19" y="549.2851">HotShot</text><text fill="#000000" font-family="sans-serif" font-size="14" lengthAdjust="spacing" textLength="41" x="1615.19" y="565.582">Query</text><text fill="#000000" font-family="sans-serif" font-size="14" lengthAdjust="spacing" textLength="50" x="1615.19" y="581.8789">Service</text></g><text fill="#000000" font-family="sans-serif" font-size="14" lengthAdjust="spacing" textLength="58" x="1001.69" y="534.4382">Catchup</text><rect fill="#F1F1F1" height="12" style="stroke:#181818;stroke-width:1.5;" width="12" x="1024.69" y="549.74"/><text fill="#000000" font-family="sans-serif" font-size="14" lengthAdjust="spacing" textLength="37" x="1114.69" y="534.4382">HTTP</text><rect fill="#F1F1F1" height="12" style="stroke:#181818;stroke-width:1.5;" width="12" x="1127.19" y="549.74"/><text fill="#000000" font-family="sans-serif" font-size="14" lengthAdjust="spacing" textLength="44" x="1214.19" y="534.4382">Status</text><rect fill="#F1F1F1" height="12" style="stroke:#181818;stroke-width:1.5;" width="12" x="1230.19" y="549.74"/><text fill="#000000" font-family="sans-serif" font-size="14" lengthAdjust="spacing" textLength="48" x="1425.19" y="534.4382">Submit</text><rect fill="#F1F1F1" height="12" style="stroke:#181818;stroke-width:1.5;" width="12" x="1443.19" y="549.74"/><text fill="#000000" font-family="sans-serif" font-size="14" lengthAdjust="spacing" textLength="41" x="1304.69" y="534.4382">Query</text><rect fill="#F1F1F1" height="12" style="stroke:#181818;stroke-width:1.5;" width="12" x="1319.19" y="549.74"/><text fill="#000000" font-family="sans-serif" font-size="14" lengthAdjust="spacing" textLength="55" x="1510.69" y="501.8445">Hotshot</text><text fill="#000000" font-family="sans-serif" font-size="14" lengthAdjust="spacing" textLength="47" x="1514.69" y="518.1414">Events</text><text fill="#000000" font-family="sans-serif" font-size="14" lengthAdjust="spacing" textLength="49" x="1513.69" y="534.4382">Stream</text><rect fill="#F1F1F1" height="12" style="stroke:#181818;stroke-width:1.5;" width="12" x="1532.19" y="549.74"/><!--entity Libp2p--><g id="elem_Libp2p"><rect fill="#F1F1F1" height="46.2969" rx="2.5" ry="2.5" style="stroke:#181818;stroke-width:0.5;" width="86" x="720.19" y="532.59"/><rect fill="#F1F1F1" height="10" style="stroke:#181818;stroke-width:0.5;" width="15" x="786.19" y="537.59"/><rect fill="#F1F1F1" height="2" style="stroke:#181818;stroke-width:0.5;" width="4" x="784.19" y="539.59"/><rect fill="#F1F1F1" height="2" style="stroke:#181818;stroke-width:0.5;" width="4" x="784.19" y="543.59"/><text fill="#000000" font-family="sans-serif" font-size="14" lengthAdjust="spacing" textLength="46" x="735.19" y="565.5851">Libp2p</text></g><!--entity CDN Client--><g id="elem_CDN Client"><rect fill="#F1F1F1" height="46.2969" rx="2.5" ry="2.5" style="stroke:#181818;stroke-width:0.5;" width="114" x="841.19" y="532.59"/><rect fill="#F1F1F1" height="10" style="stroke:#181818;stroke-width:0.5;" width="15" x="935.19" y="537.59"/><rect fill="#F1F1F1" height="2" style="stroke:#181818;stroke-width:0.5;" width="4" x="933.19" y="539.59"/><rect fill="#F1F1F1" height="2" style="stroke:#181818;stroke-width:0.5;" width="4" x="933.19" y="543.59"/><text fill="#000000" font-family="sans-serif" font-size="14" lengthAdjust="spacing" textLength="74" x="856.19" y="565.5851">CDN Client</text></g><!--entity Signer--><g id="elem_Signer"><rect fill="#F1F1F1" height="46.2969" rx="2.5" ry="2.5" style="stroke:#181818;stroke-width:0.5;" width="124" x="1731.19" y="532.59"/><rect fill="#F1F1F1" height="10" style="stroke:#181818;stroke-width:0.5;" width="15" x="1835.19" y="537.59"/><rect fill="#F1F1F1" height="2" style="stroke:#181818;stroke-width:0.5;" width="4" x="1833.19" y="539.59"/><rect fill="#F1F1F1" height="2" style="stroke:#181818;stroke-width:0.5;" width="4" x="1833.19" y="543.59"/><text fill="#000000" font-family="sans-serif" font-size="14" lengthAdjust="spacing" textLength="84" x="1746.19" y="565.5851">State Signer</text></g><!--entity Validated--><g id="elem_Validated"><rect fill="#F1F1F1" height="46.2969" rx="2.5" ry="2.5" style="stroke:#181818;stroke-width:0.5;" width="139" x="1890.69" y="532.59"/><rect fill="#F1F1F1" height="10" style="stroke:#181818;stroke-width:0.5;" width="15" x="2009.69" y="537.59"/><rect fill="#F1F1F1" height="2" style="stroke:#181818;stroke-width:0.5;" width="4" x="2007.69" y="539.59"/><rect fill="#F1F1F1" height="2" style="stroke:#181818;stroke-width:0.5;" width="4" x="2007.69" y="543.59"/><text fill="#000000" font-family="sans-serif" font-size="14" lengthAdjust="spacing" textLength="99" x="1905.69" y="565.5851">ValidatedState</text></g><!--entity L2_1_RPC--><g id="elem_L2_1_RPC"><rect fill="#F1F1F1" height="46.2969" rx="2.5" ry="2.5" style="stroke:#181818;stroke-width:0.5;" width="172" x="1956.19" y="226.29"/><rect fill="#F1F1F1" height="10" style="stroke:#181818;stroke-width:0.5;" width="15" x="2108.19" y="231.29"/><rect fill="#F1F1F1" height="2" style="stroke:#181818;stroke-width:0.5;" width="4" x="2106.19" y="233.29"/><rect fill="#F1F1F1" height="2" style="stroke:#181818;stroke-width:0.5;" width="4" x="2106.19" y="237.29"/><text fill="#000000" font-family="sans-serif" font-size="14" lengthAdjust="spacing" textLength="132" x="1971.19" y="259.2851">API (e.g. JSON-RPC)</text></g><!--entity L2_1_Exec--><g id="elem_L2_1_Exec"><rect fill="#F1F1F1" height="46.2969" rx="2.5" ry="2.5" style="stroke:#181818;stroke-width:0.5;" width="101" x="1819.69" y="226.29"/><rect fill="#F1F1F1" height="10" style="stroke:#181818;stroke-width:0.5;" width="15" x="1900.69" y="231.29"/><rect fill="#F1F1F1" height="2" style="stroke:#181818;stroke-width:0.5;" width="4" x="1898.69" y="233.29"/><rect fill="#F1F1F1" height="2" style="stroke:#181818;stroke-width:0.5;" width="4" x="1898.69" y="237.29"/><text fill="#000000" font-family="sans-serif" font-size="14" lengthAdjust="spacing" textLength="61" x="1834.69" y="259.2851">Executor</text></g><!--entity L2_1_Prover--><g id="elem_L2_1_Prover"><rect fill="#F1F1F1" height="46.2969" rx="2.5" ry="2.5" style="stroke:#181818;stroke-width:0.5;" width="84" x="2163.19" y="226.29"/><rect fill="#F1F1F1" height="10" style="stroke:#181818;stroke-width:0.5;" width="15" x="2227.19" y="231.29"/><rect fill="#F1F1F1" height="2" style="stroke:#181818;stroke-width:0.5;" width="4" x="2225.19" y="233.29"/><rect fill="#F1F1F1" height="2" style="stroke:#181818;stroke-width:0.5;" width="4" x="2225.19" y="237.29"/><text fill="#000000" font-family="sans-serif" font-size="14" lengthAdjust="spacing" textLength="44" x="2178.19" y="259.2851">Prover</text></g><!--entity L2_1_State--><g id="elem_L2_1_State"><rect fill="#F1F1F1" height="46.2969" rx="2.5" ry="2.5" style="stroke:#181818;stroke-width:0.5;" width="101" x="1991.69" y="103"/><rect fill="#F1F1F1" height="10" style="stroke:#181818;stroke-width:0.5;" width="15" x="2072.69" y="108"/><rect fill="#F1F1F1" height="2" style="stroke:#181818;stroke-width:0.5;" width="4" x="2070.69" y="110"/><rect fill="#F1F1F1" height="2" style="stroke:#181818;stroke-width:0.5;" width="4" x="2070.69" y="114"/><text fill="#000000" font-family="sans-serif" font-size="14" lengthAdjust="spacing" textLength="61" x="2006.69" y="135.9951">State DB</text></g><!--entity LC_L1--><g id="elem_LC_L1"><rect fill="#F1F1F1" height="62.5938" rx="2.5" ry="2.5" style="stroke:#181818;stroke-width:0.5;" width="116" x="2220.19" y="1216.43"/><rect fill="#F1F1F1" height="10" style="stroke:#181818;stroke-width:0.5;" width="15" x="2316.19" y="1221.43"/><rect fill="#F1F1F1" height="2" style="stroke:#181818;stroke-width:0.5;" width="4" x="2314.19" y="1223.43"/><rect fill="#F1F1F1" height="2" style="stroke:#181818;stroke-width:0.5;" width="4" x="2314.19" y="1227.43"/><text fill="#000000" font-family="sans-serif" font-size="14" lengthAdjust="spacing" textLength="76" x="2235.19" y="1249.4251">Light Client</text><text fill="#000000" font-family="sans-serif" font-size="14" lengthAdjust="spacing" textLength="59" x="2235.19" y="1265.722">Contract</text></g><!--entity Fee_L1--><g id="elem_Fee_L1"><rect fill="#F1F1F1" height="62.5938" rx="2.5" ry="2.5" style="stroke:#181818;stroke-width:0.5;" width="99" x="2370.69" y="1216.43"/><rect fill="#F1F1F1" height="10" style="stroke:#181818;stroke-width:0.5;" width="15" x="2449.69" y="1221.43"/><rect fill="#F1F1F1" height="2" style="stroke:#181818;stroke-width:0.5;" width="4" x="2447.69" y="1223.43"/><rect fill="#F1F1F1" height="2" style="stroke:#181818;stroke-width:0.5;" width="4" x="2447.69" y="1227.43"/><text fill="#000000" font-family="sans-serif" font-size="14" lengthAdjust="spacing" textLength="26" x="2385.69" y="1249.4251">Fee</text><text fill="#000000" font-family="sans-serif" font-size="14" lengthAdjust="spacing" textLength="59" x="2385.69" y="1265.722">Contract</text></g><!--entity L2_1_L1--><g id="elem_L2_1_L1"><rect fill="#F1F1F1" height="62.5938" rx="2.5" ry="2.5" style="stroke:#181818;stroke-width:0.5;" width="99" x="2561.69" y="1216.43"/><rect fill="#F1F1F1" height="10" style="stroke:#181818;stroke-width:0.5;" width="15" x="2640.69" y="1221.43"/><rect fill="#F1F1F1" height="2" style="stroke:#181818;stroke-width:0.5;" width="4" x="2638.69" y="1223.43"/><rect fill="#F1F1F1" height="2" style="stroke:#181818;stroke-width:0.5;" width="4" x="2638.69" y="1227.43"/><text fill="#000000" font-family="sans-serif" font-size="14" lengthAdjust="spacing" textLength="56" x="2576.69" y="1249.4251">Rollup 1</text><text fill="#000000" font-family="sans-serif" font-size="14" lengthAdjust="spacing" textLength="59" x="2576.69" y="1265.722">Contract</text></g><!--entity User--><g id="elem_User"><ellipse cx="2411.19" cy="547.59" fill="#F1F1F1" rx="12" ry="12" style="stroke:#181818;stroke-width:0.5;"/><line style="stroke:#181818;stroke-width:0.5;" x1="2399.19" x2="2423.19" y1="561.59" y2="561.59"/><text fill="#000000" font-family="sans-serif" font-size="14" lengthAdjust="spacing" textLength="32" x="2395.19" y="576.5851">User</text></g><!--link Broker to KeyDB--><g id="link_Broker_KeyDB"><path d="M243.31,809.33 C265.35,809.33 285.75,809.33 306.15,809.33 " fill="none" id="Broker-to-KeyDB" style="stroke:#181818;stroke-width:1.0;"/><polygon fill="#181818" points="312.15,809.33,303.15,805.33,307.15,809.33,303.15,813.33,312.15,809.33" style="stroke:#181818;stroke-width:1.0;"/><text fill="#000000" font-family="sans-serif" font-size="13" lengthAdjust="spacing" textLength="33" x="261.19" y="802.3969">state</text></g><!--link KeyDB to Marshal--><g id="link_KeyDB_Marshal"><path d="M378.63,809.33 C398.88,809.33 419.02,809.33 441.31,809.33 " fill="none" id="KeyDB-to-Marshal" style="stroke:#181818;stroke-width:1.0;"/><polygon fill="#181818" points="447.31,809.33,438.31,805.33,442.31,809.33,438.31,813.33,447.31,809.33" style="stroke:#181818;stroke-width:1.0;"/><text fill="#000000" font-family="sans-serif" font-size="13" lengthAdjust="spacing" textLength="33" x="396.44" y="802.3969">state</text></g><!--link CDN to Nodes--><g id="link_CDN_Nodes"><path d="M564.1471,862.4428 C563.6264,864.6385 564.2853,861.8441 563.75,864.0803 C561.6088,873.025 559.37,882.1975 557.19,890.83 C551.28,914.26 545.7501,934.8545 540.3001,954.6845 " fill="none" id="CDN-Nodes" style="stroke:#181818;stroke-width:1.0;"/><polygon fill="#181818" points="565.5301,856.6044,559.5633,864.44,564.3776,861.4697,567.3479,866.284,565.5301,856.6044" style="stroke:#181818;stroke-width:1.0;"/><polygon fill="#181818" points="538.71,960.47,544.9521,952.8518,540.035,955.6488,537.2381,950.7317,538.71,960.47" style="stroke:#181818;stroke-width:1.0;"/><text fill="#000000" font-family="sans-serif" font-size="13" lengthAdjust="spacing" textLength="68" x="555.19" y="911.8969">consensus</text><text fill="#000000" font-family="sans-serif" font-size="13" lengthAdjust="spacing" textLength="66" x="556.19" y="927.0297">messages</text></g><!--reverse link Catchup to Nodes--><g id="link_Catchup_Nodes"><path d="M1022.764,566.0397 C992.074,599.7997 809.95,797.51 632.19,930.83 C618.21,941.32 602.26,951.5 587.2,960.4 " fill="none" id="Catchup-backto-Nodes" style="stroke:#181818;stroke-width:1.0;"/><polygon fill="#181818" points="1026.8,561.6,1017.7862,565.5689,1023.4367,565.2997,1023.7058,570.9502,1026.8,561.6" style="stroke:#181818;stroke-width:1.0;"/></g><!--link Libp2p to Nodes--><g id="link_Libp2p_Nodes"><path d="M713.77,556.5782 C575.52,556.9982 155.68,566.43 71.19,665.18 C6,741.39 8.3,812.71 71.19,890.83 C120.94,952.62 354.0685,977.949 466.0785,986.769 " fill="none" id="Libp2p-Nodes" style="stroke:#181818;stroke-width:1.0;"/><polygon fill="#181818" points="719.77,556.56,710.7579,552.5874,714.77,556.5752,710.7822,560.5873,719.77,556.56" style="stroke:#181818;stroke-width:1.0;"/><polygon fill="#181818" points="472.06,987.24,463.4018,982.5458,467.0754,986.8475,462.7738,990.5212,472.06,987.24" style="stroke:#181818;stroke-width:1.0;"/><text fill="#000000" font-family="sans-serif" font-size="13" lengthAdjust="spacing" textLength="68" x="72.19" y="806.3969">consensus</text><text fill="#000000" font-family="sans-serif" font-size="13" lengthAdjust="spacing" textLength="66" x="73.19" y="821.5297">messages</text></g><!--link CDN Client to CDN--><g id="link_CDN Client_CDN"><path d="M864.6119,582.9839 C825.7069,613.3789 758.8125,665.645 696.1038,714.6413 C664.7494,739.1394 635.6234,761.8966 613.9298,778.8467 C603.083,787.3218 594.0943,794.3451 587.6142,799.4084 C586.8042,800.0413 586.0334,800.6436 585.303,801.2143 C584.9378,801.4996 589.3107,798.0829 588.9659,798.3523 " fill="none" id="CDN Client-CDN" style="stroke:#181818;stroke-width:1.0;"/><polygon fill="#181818" points="869.34,579.29,859.7852,581.6788,865.3999,582.3682,864.7104,587.9829,869.34,579.29" style="stroke:#181818;stroke-width:1.0;"/><polygon fill="#181818" points="584.238,802.0465,593.7926,799.6571,588.1779,798.968,588.867,793.3532,584.238,802.0465" style="stroke:#181818;stroke-width:1.0;"/><text fill="#000000" font-family="sans-serif" font-size="13" lengthAdjust="spacing" textLength="68" x="803.19" y="638.2469">consensus</text><text fill="#000000" font-family="sans-serif" font-size="13" lengthAdjust="spacing" textLength="66" x="804.19" y="653.3797">messages</text></g><!--link QS to DB--><g id="link_QS_DB"><path d="M1696.63,591.46 C1702.78,595.46 1709.07,599.37 1715.19,602.89 C1854.84,683.17 2025.4562,756.5851 2104.2562,789.2051 " fill="none" id="QS-to-DB" style="stroke:#181818;stroke-width:1.0;"/><polygon fill="#181818" points="2109.8,791.5,2103.0143,784.3618,2105.1802,789.5876,2099.9544,791.7535,2109.8,791.5" style="stroke:#181818;stroke-width:1.0;"/></g><!--link QS to APIs--><!--link Signer to Relay--><g id="link_Signer_Relay"><path d="M1826.15,579.3 C1840.11,587.9 1856.9,597.03 1873.19,602.89 C2016.52,654.44 2085.68,577.45 2210.19,665.18 C2249.3,692.74 2271.3082,738.8554 2283.4382,772.0054 " fill="none" id="Signer-to-Relay" style="stroke:#181818;stroke-width:1.0;"/><polygon fill="#181818" points="2285.5,777.64,2286.1637,767.8135,2283.7818,772.9445,2278.6509,770.5626,2285.5,777.64" style="stroke:#181818;stroke-width:1.0;"/><text fill="#000000" font-family="sans-serif" font-size="13" lengthAdjust="spacing" textLength="33" x="2196.19" y="645.7469">state</text></g><!--link Seq to Builder--><g id="link_Seq_Builder"><path d="M2086.3601,555.74 C2086.4468,555.74 2086.5341,555.74 2086.622,555.74 C2086.9737,555.74 2087.3351,555.74 2087.7058,555.74 C2089.189,555.74 2090.8229,555.74 2092.5911,555.74 C2099.6641,555.74 2108.8869,555.74 2119.2113,555.74 C2139.86,555.74 2158.915,555.74 2179.99,555.74 " fill="none" id="Seq-to-Builder" style="stroke:#181818;stroke-width:1.0;"/><polygon fill="#181818" points="2185.99,555.74,2176.99,551.74,2180.99,555.74,2176.99,559.74,2185.99,555.74" style="stroke:#181818;stroke-width:1.0;"/><text fill="#000000" font-family="sans-serif" font-size="13" lengthAdjust="spacing" textLength="71" x="2096.87" y="548.8069">claim block</text></g><!--reverse link Seq to Builder--><g id="link_Seq_Builder"><path d="M2091.1943,565.0534 C2091.2801,565.1118 2086.5389,561.8754 2086.6258,561.9343 C2086.7995,562.052 2086.9753,562.1707 2087.1532,562.2901 C2088.5763,563.2455 2090.1313,564.2528 2091.79,565.2738 C2098.425,569.3575 2106.72,573.66 2114.87,575.74 C2138.01,581.64 2164.2,577.91 2185.77,572.15 " fill="none" id="Seq-backto-Builder" style="stroke:#181818;stroke-width:1.0;"/><polygon fill="#181818" points="2086.2386,561.6709,2091.4172,570.0484,2090.3683,564.4896,2095.9271,563.4408,2086.2386,561.6709" style="stroke:#181818;stroke-width:1.0;"/><text fill="#000000" font-family="sans-serif" font-size="13" lengthAdjust="spacing" textLength="33" x="2115.87" y="571.8069">block</text></g><!--link Relay to HSProver--><g id="link_Relay_HSProver"><path d="M2293.33,841 C2291.3,874.35 2288.4452,921.3311 2286.4152,954.6211 " fill="none" id="Relay-to-HSProver" style="stroke:#181818;stroke-width:1.0;"/><polygon fill="#181818" points="2286.05,960.61,2290.5904,951.8702,2286.3543,955.6193,2282.6052,951.3832,2286.05,960.61" style="stroke:#181818;stroke-width:1.0;"/><text fill="#000000" font-family="sans-serif" font-size="13" lengthAdjust="spacing" textLength="33" x="2290.19" y="919.3969">state</text></g><!--link Events to Builder--><g id="link_Events_Builder"><path d="M1537.05,549.78 C1532.82,525.66 1520.66,434.7 1569.19,394.62 C1659.15,320.32 1988.39,345.46 2094.19,394.62 C2155.78,423.22 2196.7521,489.6466 2216.1721,526.9966 " fill="none" id="Events-to-Builder" style="stroke:#181818;stroke-width:1.0;"/><polygon fill="#181818" points="2218.94,532.32,2218.3371,522.4896,2216.6334,527.8838,2211.2392,526.1801,2218.94,532.32" style="stroke:#181818;stroke-width:1.0;"/><text fill="#000000" font-family="sans-serif" font-size="13" lengthAdjust="spacing" textLength="79" x="1835.69" y="349.1569">transactions</text></g><!--reverse link L2_1_RPC to User--><g id="link_L2_1_RPC_User"><path d="M2073.5831,276.713 C2093.4231,292.343 2117.1,308.71 2145.19,320.59 C2242.97,361.94 2305.34,292.33 2379.19,368.59 C2421.97,412.76 2419.25,492.08 2414.73,531.37 " fill="none" id="L2_1_RPC-backto-User" style="stroke:#181818;stroke-width:1.0;"/><polygon fill="#181818" points="2068.87,273,2073.4643,281.7116,2072.7976,276.0942,2078.415,275.4274,2068.87,273" style="stroke:#181818;stroke-width:1.0;"/><text fill="#000000" font-family="sans-serif" font-size="13" lengthAdjust="spacing" textLength="81" x="2373.69" y="341.6569">Transactions</text><text fill="#000000" font-family="sans-serif" font-size="13" lengthAdjust="spacing" textLength="86" x="2371.19" y="356.7897">State queries</text></g><!--link L2_1_RPC to Submit--><g id="link_L2_1_RPC_Submit"><path d="M2017.41,273 C1997.57,289.52 1968.19,310.71 1938.19,320.59 C1898.69,333.6 1792.59,324.5 1751.19,328.59 C1736.81,330.01 1504.83,358.8 1494.19,368.59 C1438.91,419.48 1445.5627,519.6208 1448.0227,543.8008 " fill="none" id="L2_1_RPC-to-Submit" style="stroke:#181818;stroke-width:1.0;"/><polygon fill="#181818" points="1448.63,549.77,1451.6985,540.4114,1448.1239,544.7957,1443.7396,541.2211,1448.63,549.77" style="stroke:#181818;stroke-width:1.0;"/><text fill="#000000" font-family="sans-serif" font-size="13" lengthAdjust="spacing" textLength="74" x="1752.19" y="341.6569">Transaction</text><text fill="#000000" font-family="sans-serif" font-size="13" lengthAdjust="spacing" textLength="67" x="1755.69" y="356.7897">Rollup 1 ID</text></g><!--reverse link L2_1_Exec to Query--><g id="link_L2_1_Exec_Query"><path d="M1813.5889,257.9788 C1706.0689,273.1588 1465.84,312.41 1405.19,368.59 C1346.87,422.61 1329.18,526.33 1325.83,549.89 " fill="none" id="L2_1_Exec-backto-Query" style="stroke:#181818;stroke-width:1.0;"/><polygon fill="#181818" points="1819.53,257.14,1810.0592,254.4374,1814.5791,257.839,1811.1776,262.3589,1819.53,257.14" style="stroke:#181818;stroke-width:1.0;"/><text fill="#000000" font-family="sans-serif" font-size="13" lengthAdjust="spacing" textLength="34" x="1474.19" y="349.1569">Block</text></g><!--link HSProver to LC_L1--><g id="link_HSProver_LC_L1"><path d="M2283.47,1023.72 C2282.32,1072.46 2280.2226,1161.2217 2279.0626,1210.0317 " fill="none" id="HSProver-to-LC_L1" style="stroke:#181818;stroke-width:1.0;"/><polygon fill="#181818" points="2278.92,1216.03,2283.1327,1207.1276,2279.0388,1211.0314,2275.135,1206.9375,2278.92,1216.03" style="stroke:#181818;stroke-width:1.0;"/><text fill="#000000" font-family="sans-serif" font-size="13" lengthAdjust="spacing" textLength="53" x="2291.69" y="1068.4969">HotShot</text><text fill="#000000" font-family="sans-serif" font-size="13" lengthAdjust="spacing" textLength="70" x="2283.19" y="1083.6297">state proof</text></g><!--link L2_1_Prover to L2_1_L1--><g id="link_L2_1_Prover_L2_1_L1"><path d="M2247.26,253.91 C2302.55,260.35 2400.32,278.46 2466.19,328.59 C2560.64,400.46 2608.19,436.06 2608.19,554.74 C2608.19,554.74 2608.19,554.74 2608.19,993.13 C2608.19,1073.7 2609.6204,1162.671 2610.4904,1210.281 " fill="none" id="L2_1_Prover-to-L2_1_L1" style="stroke:#181818;stroke-width:1.0;"/><polygon fill="#181818" points="2610.6,1216.28,2614.4349,1207.2084,2610.5086,1211.2808,2606.4362,1207.3546,2610.6,1216.28" style="stroke:#181818;stroke-width:1.0;"/><text fill="#000000" font-family="sans-serif" font-size="13" lengthAdjust="spacing" textLength="38" x="2625.19" y="806.3969">Rollup</text><text fill="#000000" font-family="sans-serif" font-size="13" lengthAdjust="spacing" textLength="70" x="2609.19" y="821.5297">state proof</text></g><!--link LC_L1 to L2_L1--><g id="link_LC_L1_L2_L1"><path d="M2283.53,1216 C2292.69,1173.23 2316.01,1099.23 2370.69,1071.43 C2409.52,1051.69 2429.87,1051.69 2468.69,1071.43 C2486.4825,1080.475 2499.0294,1095.4794 2507.828,1113.0259 C2512.2273,1121.7992 2515.6895,1131.208 2518.4018,1140.8253 C2519.0799,1143.2296 2519.7111,1145.6469 2520.2984,1148.0706 C2520.592,1149.2824 2520.8747,1150.4959 2521.1467,1151.71 C2521.2827,1152.3171 2520.1533,1147.0588 2520.2841,1147.6662 " fill="none" id="LC_L1-to-L2_L1" style="stroke:#181818;stroke-width:1.0;"/><polygon fill="#181818" points="2521.5468,1153.5318,2523.5632,1143.8915,2520.4945,1148.6438,2515.7423,1145.5751,2521.5468,1153.5318" style="stroke:#181818;stroke-width:1.0;"/></g><!--link L2_1_State to L2_1_RPC--><g id="link_L2_1_State_L2_1_RPC"><path d="M2042.19,149.68 C2042.19,171.46 2042.19,198.29 2042.19,220.03 " fill="none" id="L2_1_State-to-L2_1_RPC" style="stroke:#181818;stroke-width:1.0;"/><polygon fill="#181818" points="2042.19,226.03,2046.19,217.03,2042.19,221.03,2038.19,217.03,2042.19,226.03" style="stroke:#181818;stroke-width:1.0;"/><text fill="#000000" font-family="sans-serif" font-size="13" lengthAdjust="spacing" textLength="69" x="2043.19" y="192.3569">Read state</text></g><!--reverse link L2_1_State to L2_1_Exec--><g id="link_L2_1_State_L2_1_Exec"><path d="M2002.2772,152.862 C1988.4272,161.912 1977.46,169.29 1963.19,179.29 C1941.61,194.42 1917.76,212.17 1899.62,225.9 " fill="none" id="L2_1_State-backto-L2_1_Exec" style="stroke:#181818;stroke-width:1.0;"/><polygon fill="#181818" points="2007.3,149.58,1997.5778,151.1545,2003.1144,152.315,2001.9539,157.8516,2007.3,149.58" style="stroke:#181818;stroke-width:1.0;"/><text fill="#000000" font-family="sans-serif" font-size="13" lengthAdjust="spacing" textLength="69" x="1964.19" y="192.3569">Write state</text></g><!--link L2_1_State to L2_1_Prover--><g id="link_L2_1_State_L2_1_Prover"><path d="M2078.13,149.73 C2091.83,158.63 2107.45,169.14 2121.19,179.29 C2141.25,194.11 2158.3895,208.1428 2174.7095,222.0228 " fill="none" id="L2_1_State-to-L2_1_Prover" style="stroke:#181818;stroke-width:1.0;"/><polygon fill="#181818" points="2179.28,225.91,2175.0157,217.0322,2175.4712,222.6707,2169.8327,223.1262,2179.28,225.91" style="stroke:#181818;stroke-width:1.0;"/><text fill="#000000" font-family="sans-serif" font-size="13" lengthAdjust="spacing" textLength="71" x="2143.19" y="192.3569">Read State</text></g><!--link Builder to Fee_L1--><g id="link_Builder_Fee_L1"><path d="M2274.68,570.44 C2336.04,589.44 2439.44,621.82 2442.19,625.18 C2588.33,803.82 2477.4092,1111.9264 2436.0592,1210.5864 " fill="none" id="Builder-to-Fee_L1" style="stroke:#181818;stroke-width:1.0;"/><polygon fill="#181818" points="2433.74,1216.12,2440.9079,1209.3657,2435.6727,1211.5086,2433.5298,1206.2734,2433.74,1216.12" style="stroke:#181818;stroke-width:1.0;"/><text fill="#000000" font-family="sans-serif" font-size="13" lengthAdjust="spacing" textLength="49" x="2513.19" y="911.8969">Deposit</text><text fill="#000000" font-family="sans-serif" font-size="13" lengthAdjust="spacing" textLength="20" x="2527.69" y="927.0297">fee</text></g><!--reverse link Validated to Fee_L1--><g id="link_Validated_Fee_L1"><path d="M1993.7118,582.5927 C2006.8118,591.6127 2018.05,597.7 2034.19,602.89 C2070.76,614.64 2352.01,598.04 2379.19,625.18 C2462.79,708.67 2433.55,1102.43 2423.19,1215.99 " fill="none" id="Validated-backto-Fee_L1" style="stroke:#181818;stroke-width:1.0;"/><polygon fill="#181818" points="1988.77,579.19,1993.9143,587.5886,1992.8882,582.0256,1998.4512,580.9995,1988.77,579.19" style="stroke:#181818;stroke-width:1.0;"/><text fill="#000000" font-family="sans-serif" font-size="13" lengthAdjust="spacing" textLength="23" x="2452.69" y="911.8969">Fee</text><text fill="#000000" font-family="sans-serif" font-size="13" lengthAdjust="spacing" textLength="54" x="2437.19" y="927.0297">deposits</text></g><!--SRC=[XLTBRziu4BxhLn2-E3dOGBoFWx4eiB6pI3TUrR6IBj3r8c2aiKr49bMIIceiyjzt-98eMsvx2EIPRpZlZsn5ynUw1JAuKPK4fGJ9u6iDF0T9Kj1lGhuC25NXc_oN4FoNYtqbE71D1WrypLDHW79eysMHbJz_Da-zRTV-MeeNa3sAlwXKEresce9g-amLa3iupA-j-3rvJvAXENb13wBMYJkCZ3uuq9GeJJKazeUH-ZE3t4P9VXlL5Uhmc2cwvmgugjMQxx4O6BXAakfyYMooZTZbrmGwM0gbjzANnCVS71QL6SEm41JrrcXmAtIs4thDxskGXpNFGBwot1dTPv7DUv_rxykF648Bic48gHadCwhpNLtrgMuV7fPzyWnBLwjUJVsyPxfFOyFkKvZCbCtivXLZnR9dMWBTkxfQqVTpysF9-7RGJR35BDXpDQdEA0TcUcObm-z1vAdv3EqoMOFjaVquvslWr1dRSZySxlCS_3Cj6SuB5DRE6ZIYeyJVa_wXSBEyvfKKhpXCAXgDssnfXJ-mb53IGyTmPIJ7LjSrAmkVbVys- -UMoE-G7wVEOhdwz-zMN7x4VsyDXxDqRjpyisD50VnVn3gMIN03Z2KksD1y1a096urYtu1OKuWtZXgp5ydG0qwqo2MqoAdIIG1uXIrEe12piYF9jZlZobS5uoyfsvFdKkGlYONR04CxWYtwRfn4x7GizWoPk7KWiHyjALSqrmphbNWf6ON4uUlKnz1I618bGYQEaXQJKpfVYRAiAtBb0KzN_Oo4jICNCDwEoP_PftIqMiuk6uid_DLZS_CDybeBsS2Ce0VdYjIWeX7ktRNvTUlOIg9j6VPaDWdmoLb86Y0f3dZB_de74kezSJNq5GhrERqaPe9ZVtAjmYNnj3XJp8MP7xy6QnxitFapjEgp-GFW28gIW7tlXkJJwWQ4wPsB9yp0SIocn54qlTKzjPdyo2OzjKdRJ91Y4CpqWJmYHINc3nazMcBniqQcv25Q17E7cC70wrKoGno42_nfbvI83IaPVq7XrHWNZXzmLvdTAsLlh-vA3MtCMX2W-SwiYsBxkjIKWwXLUI0N6o4z25TUcY05ByqV80oFt25ZN280U663I98cvi0cxjBifh3ceGFaupp4hqKLHJyPOpYAeFytAejEr2PU5HuNuuvtUmzxhcvM47rVMvOOaYFzvBmgZLIzvVrf73qayMugwXol14j7o64ZNpKXaR6WG2E5BK3hE96n1vb49UJ0NY4SG34bi7m2eKbn1R0i1BULII9j8RjL23pSzC0k6IRKFBCiFvkenUPSVZztyXFAJb2UCvvhC-BOqpsELJj1Dd3piS312-DEC0gsmI5jVDcYR4B_y5b3Bkvh8P5rPe0lfWtBCRBBSEmEEDub0ld6V7iVhVVnwUY5p3-4RSQqtR0TPstxx-V0uJBtN5YsWDG3qbv0Rzr-6Nj_obQDr9LzxBWhqTV7f_VbRYGz5CjQrWK-m5nuHudPzhb8a3QyusUXjTX7ddyDditpmX4XZXKjIEugQuBm7MqRSLnId2s9fpRx5RRVdpWcdqr73o4TCvJCpAIBEp0AtLA6vSQc6PRmPv6BBtUhIrm9yaQH4LfgsKXQ5-w0SvQVLe-NtQAO_Y1_5A0fArNBE_PH5jsMfl-c2Ev9qf92H181zpSI7CH0FqpdZip2AyV_xspOCdRps98n4td4YNRIZEEH8WrdBdgCt2o4yJqn3UheuMSqHcWVTK5QM_onr6FRHnV-TXVmbCm19viXZMm04YVqvMpUzbDYx-_28LNoFm00]--></g></svg>