<?xml version="1.0" encoding="us-ascii" standalone="no"?><svg xmlns="http://www.w3.org/2000/svg" xmlns:xlink="http://www.w3.org/1999/xlink" contentStyleType="text/css" height="1422px" preserveAspectRatio="none" style="width:2618px;height:1422px;background:#FFFFFF;" version="1.1" viewBox="0 0 2618 1422" width="2618px" zoomAndPan="magnify"><defs/><g><!--cluster Network--><g id="cluster_Network"><path d="M8.5,455.59 L245.5,455.59 A3.75,3.75 0 0 1 248,458.09 L255,477.8869 L2010.5,477.8869 A2.5,2.5 0 0 1 2013,480.3869 L2013,1086.88 A2.5,2.5 0 0 1 2010.5,1089.38 L8.5,1089.38 A2.5,2.5 0 0 1 6,1086.88 L6,458.09 A2.5,2.5 0 0 1 8.5,455.59 " fill="none" style="stroke:#000000;stroke-width:1.5;"/><line style="stroke:#000000;stroke-width:1.5;" x1="6" x2="255" y1="477.8869" y2="477.8869"/><text fill="#000000" font-family="sans-serif" font-size="14" font-weight="bold" lengthAdjust="spacing" textLength="236" x="10" y="470.5851">Espresso Sequencer Network</text></g><!--cluster CDN--><g id="cluster_CDN"><path d="M40.5,760.19 L74.5,760.19 A3.75,3.75 0 0 1 77,762.69 L84,782.4869 L486.5,782.4869 A2.5,2.5 0 0 1 489,784.9869 L489,889.99 A2.5,2.5 0 0 1 486.5,892.49 L40.5,892.49 A2.5,2.5 0 0 1 38,889.99 L38,762.69 A2.5,2.5 0 0 1 40.5,760.19 " fill="none" style="stroke:#000000;stroke-width:1.5;"/><line style="stroke:#000000;stroke-width:1.5;" x1="38" x2="84" y1="782.4869" y2="782.4869"/><text fill="#000000" font-family="sans-serif" font-size="14" font-weight="bold" lengthAdjust="spacing" textLength="33" x="42" y="775.1851">CDN</text></g><!--cluster Seq--><g id="cluster_Seq"><path d="M531.5,506.59 L664.5,506.59 A3.75,3.75 0 0 1 667,509.09 L674,528.8869 L1806.5,528.8869 A2.5,2.5 0 0 1 1809,531.3869 L1809,922.28 A2.5,2.5 0 0 1 1806.5,924.78 L531.5,924.78 A2.5,2.5 0 0 1 529,922.28 L529,509.09 A2.5,2.5 0 0 1 531.5,506.59 " fill="none" style="stroke:#000000;stroke-width:1.5;"/><line style="stroke:#000000;stroke-width:1.5;" x1="529" x2="674" y1="528.8869" y2="528.8869"/><text fill="#000000" font-family="sans-serif" font-size="14" font-weight="bold" lengthAdjust="spacing" textLength="132" x="533" y="521.5851">Sequencer Node</text></g><!--cluster APIs--><g id="cluster_APIs"><rect fill="none" height="266.04" rx="2.5" ry="2.5" style="stroke:#181818;stroke-width:1.0;" width="543.5" x="861.5" y="634.74"/><rect fill="none" height="10" style="stroke:#181818;stroke-width:1.0;" width="15" x="1385" y="639.74"/><rect fill="none" height="2" style="stroke:#181818;stroke-width:1.0;" width="4" x="1383" y="641.74"/><rect fill="none" height="2" style="stroke:#181818;stroke-width:1.0;" width="4" x="1383" y="645.74"/><text fill="#000000" font-family="sans-serif" font-size="14" font-weight="bold" lengthAdjust="spacing" textLength="34" x="1116.25" y="660.7351">APIs</text></g><!--cluster Networking--><g id="cluster_Networking"><rect fill="none" height="116.3" rx="2.5" ry="2.5" style="stroke:#181818;stroke-width:1.0;" width="267" x="561" y="557.59"/><rect fill="none" height="10" style="stroke:#181818;stroke-width:1.0;" width="15" x="808" y="562.59"/><rect fill="none" height="2" style="stroke:#181818;stroke-width:1.0;" width="4" x="806" y="564.59"/><rect fill="none" height="2" style="stroke:#181818;stroke-width:1.0;" width="4" x="806" y="568.59"/><text fill="#000000" font-family="sans-serif" font-size="14" font-weight="bold" lengthAdjust="spacing" textLength="91" x="649" y="583.5851">Networking</text></g><!--cluster State--><g id="cluster_State"><path d="M1440.5,557.59 L1482.5,557.59 A3.75,3.75 0 0 1 1485,560.09 L1492,579.8869 L1766.5,579.8869 A2.5,2.5 0 0 1 1769,582.3869 L1769,671.39 A2.5,2.5 0 0 1 1766.5,673.89 L1440.5,673.89 A2.5,2.5 0 0 1 1438,671.39 L1438,560.09 A2.5,2.5 0 0 1 1440.5,557.59 " fill="none" style="stroke:#000000;stroke-width:1.5;"/><line style="stroke:#000000;stroke-width:1.5;" x1="1438" x2="1492" y1="579.8869" y2="579.8869"/><text fill="#000000" font-family="sans-serif" font-size="14" font-weight="bold" lengthAdjust="spacing" textLength="41" x="1442" y="572.5851">State</text></g><!--cluster L2s--><g id="cluster_L2s"><path d="M1450.5,6 L1591.5,6 A3.75,3.75 0 0 1 1594,8.5 L1601,28.2969 L1953.5,28.2969 A2.5,2.5 0 0 1 1956,30.7969 L1956,309.09 A2.5,2.5 0 0 1 1953.5,311.59 L1450.5,311.59 A2.5,2.5 0 0 1 1448,309.09 L1448,8.5 A2.5,2.5 0 0 1 1450.5,6 " fill="none" style="stroke:#000000;stroke-width:1.5;"/><line style="stroke:#000000;stroke-width:1.5;" x1="1448" x2="1601" y1="28.2969" y2="28.2969"/><text fill="#000000" font-family="sans-serif" font-size="14" font-weight="bold" lengthAdjust="spacing" textLength="140" x="1452" y="20.9951">Layer 2s / Rollups</text></g><!--cluster L2--><g id="cluster_L2"><rect fill="none" height="238.59" rx="2.5" ry="2.5" style="stroke:#181818;stroke-width:1.0;" width="460" x="1472" y="49"/><rect fill="none" height="10" style="stroke:#181818;stroke-width:1.0;" width="15" x="1912" y="54"/><rect fill="none" height="2" style="stroke:#181818;stroke-width:1.0;" width="4" x="1910" y="56"/><rect fill="none" height="2" style="stroke:#181818;stroke-width:1.0;" width="4" x="1910" y="60"/><text fill="#000000" font-family="sans-serif" font-size="14" font-weight="bold" lengthAdjust="spacing" textLength="64" x="1670" y="74.9951">Rollup N</text></g><!--cluster L1--><g id="cluster_L1"><path d="M1892.5,1216.38 L2033.5,1216.38 A3.75,3.75 0 0 1 2036,1218.88 L2043,1238.6769 L2489.5,1238.6769 A2.5,2.5 0 0 1 2492,1241.1769 L2492,1413.47 A2.5,2.5 0 0 1 2489.5,1415.97 L1892.5,1415.97 A2.5,2.5 0 0 1 1890,1413.47 L1890,1218.88 A2.5,2.5 0 0 1 1892.5,1216.38 " fill="none" style="stroke:#000000;stroke-width:1.5;"/><line style="stroke:#000000;stroke-width:1.5;" x1="1890" x2="2043" y1="1238.6769" y2="1238.6769"/><text fill="#000000" font-family="sans-serif" font-size="14" font-weight="bold" lengthAdjust="spacing" textLength="140" x="1894" y="1231.3751">Ethereum Layer 1</text></g><!--cluster Esp_L1--><g id="cluster_Esp_L1"><path d="M1916.5,1259.38 L2072.5,1259.38 A3.75,3.75 0 0 1 2075,1261.88 L2082,1281.6769 L2193.5,1281.6769 A2.5,2.5 0 0 1 2196,1284.1769 L2196,1389.47 A2.5,2.5 0 0 1 2193.5,1391.97 L1916.5,1391.97 A2.5,2.5 0 0 1 1914,1389.47 L1914,1261.88 A2.5,2.5 0 0 1 1916.5,1259.38 " fill="none" style="stroke:#000000;stroke-width:1.5;"/><line style="stroke:#000000;stroke-width:1.5;" x1="1914" x2="2082" y1="1281.6769" y2="1281.6769"/><text fill="#000000" font-family="sans-serif" font-size="14" font-weight="bold" lengthAdjust="spacing" textLength="155" x="1918" y="1274.3751">Espresso Contracts</text></g><!--cluster Rollup Contracts--><g id="cluster_Rollup Contracts"><path d="M2324.5,1259.38 L2455.5,1259.38 A3.75,3.75 0 0 1 2458,1261.88 L2465,1281.6769 L2465.5,1281.6769 A2.5,2.5 0 0 1 2468,1284.1769 L2468,1389.47 A2.5,2.5 0 0 1 2465.5,1391.97 L2324.5,1391.97 A2.5,2.5 0 0 1 2322,1389.47 L2322,1261.88 A2.5,2.5 0 0 1 2324.5,1259.38 " fill="none" style="stroke:#000000;stroke-width:1.5;"/><line style="stroke:#000000;stroke-width:1.5;" x1="2322" x2="2465" y1="1281.6769" y2="1281.6769"/><text fill="#000000" font-family="sans-serif" font-size="14" font-weight="bold" lengthAdjust="spacing" textLength="130" x="2326" y="1274.3751">Rollup Contracts</text></g><!--entity Nodes--><g id="elem_Nodes"><rect fill="#F1F1F1" height="78.8906" rx="2.5" ry="2.5" style="stroke:#181818;stroke-width:0.5;" width="116" x="357" y="595.3"/><rect fill="#F1F1F1" height="10" style="stroke:#181818;stroke-width:0.5;" width="15" x="453" y="600.3"/><rect fill="#F1F1F1" height="2" style="stroke:#181818;stroke-width:0.5;" width="4" x="451" y="602.3"/><rect fill="#F1F1F1" height="2" style="stroke:#181818;stroke-width:0.5;" width="4" x="451" y="606.3"/><text fill="#000000" font-family="sans-serif" font-size="14" lengthAdjust="spacing" textLength="39" x="372" y="628.2951">Other</text><text fill="#000000" font-family="sans-serif" font-size="14" lengthAdjust="spacing" textLength="76" x="372" y="644.592">Sequencer</text><text fill="#000000" font-family="sans-serif" font-size="14" lengthAdjust="spacing" textLength="45" x="372" y="660.8889">Nodes</text></g><!--entity DB--><g id="elem_DB"><path d="M1196,1029.43 C1196,1019.43 1237,1019.43 1237,1019.43 C1237,1019.43 1278,1019.43 1278,1029.43 L1278,1054.7269 C1278,1064.7269 1237,1064.7269 1237,1064.7269 C1237,1064.7269 1196,1064.7269 1196,1054.7269 L1196,1029.43 " fill="#F1F1F1" style="stroke:#181818;stroke-width:0.5;"/><path d="M1196,1029.43 C1196,1039.43 1237,1039.43 1237,1039.43 C1237,1039.43 1278,1039.43 1278,1029.43 " fill="none" style="stroke:#181818;stroke-width:0.5;"/><text fill="#000000" font-family="sans-serif" font-size="14" lengthAdjust="spacing" textLength="62" x="1206" y="1056.4251">Postgres</text></g><!--entity HSProver--><g id="elem_HSProver"><rect fill="#F1F1F1" height="62.5938" rx="2.5" ry="2.5" style="stroke:#181818;stroke-width:0.5;" width="137" x="1704.5" y="1010.78"/><rect fill="#F1F1F1" height="10" style="stroke:#181818;stroke-width:0.5;" width="15" x="1821.5" y="1015.78"/><rect fill="#F1F1F1" height="2" style="stroke:#181818;stroke-width:0.5;" width="4" x="1819.5" y="1017.78"/><rect fill="#F1F1F1" height="2" style="stroke:#181818;stroke-width:0.5;" width="4" x="1819.5" y="1021.78"/><text fill="#000000" font-family="sans-serif" font-size="14" lengthAdjust="spacing" textLength="95" x="1719.5" y="1043.7751">HotShot state</text><text fill="#000000" font-family="sans-serif" font-size="14" lengthAdjust="spacing" textLength="97" x="1719.5" y="1060.072">prover service</text></g><!--entity Relay--><g id="elem_Relay"><rect fill="#F1F1F1" height="62.5938" rx="2.5" ry="2.5" style="stroke:#181818;stroke-width:0.5;" width="135" x="1833.5" y="814.04"/><rect fill="#F1F1F1" height="10" style="stroke:#181818;stroke-width:0.5;" width="15" x="1948.5" y="819.04"/><rect fill="#F1F1F1" height="2" style="stroke:#181818;stroke-width:0.5;" width="4" x="1946.5" y="821.04"/><rect fill="#F1F1F1" height="2" style="stroke:#181818;stroke-width:0.5;" width="4" x="1946.5" y="825.04"/><text fill="#000000" font-family="sans-serif" font-size="14" lengthAdjust="spacing" textLength="95" x="1848.5" y="847.0351">HotShot state</text><text fill="#000000" font-family="sans-serif" font-size="14" lengthAdjust="spacing" textLength="85" x="1848.5" y="863.332">relay service</text></g><!--entity Builder--><g id="elem_Builder"><rect fill="#F1F1F1" height="46.2969" rx="2.5" ry="2.5" style="stroke:#181818;stroke-width:0.5;" width="88" x="1909" y="611.59"/><rect fill="#F1F1F1" height="10" style="stroke:#181818;stroke-width:0.5;" width="15" x="1977" y="616.59"/><rect fill="#F1F1F1" height="2" style="stroke:#181818;stroke-width:0.5;" width="4" x="1975" y="618.59"/><rect fill="#F1F1F1" height="2" style="stroke:#181818;stroke-width:0.5;" width="4" x="1975" y="622.59"/><text fill="#000000" font-family="sans-serif" font-size="14" lengthAdjust="spacing" textLength="48" x="1924" y="644.5851">Builder</text></g><!--entity Broker--><g id="elem_Broker"><rect fill="#F1F1F1" height="46.2969" rx="2.5" ry="2.5" style="stroke:#181818;stroke-width:0.5;" width="86" x="62" y="822.19"/><rect fill="#F1F1F1" height="10" style="stroke:#181818;stroke-width:0.5;" width="15" x="128" y="827.19"/><rect fill="#F1F1F1" height="2" style="stroke:#181818;stroke-width:0.5;" width="4" x="126" y="829.19"/><rect fill="#F1F1F1" height="2" style="stroke:#181818;stroke-width:0.5;" width="4" x="126" y="833.19"/><text fill="#000000" font-family="sans-serif" font-size="14" lengthAdjust="spacing" textLength="46" x="77" y="855.1851">Broker</text></g><!--entity Marshal--><g id="elem_Marshal"><rect fill="#F1F1F1" height="46.2969" rx="2.5" ry="2.5" style="stroke:#181818;stroke-width:0.5;" width="93" x="352.5" y="822.19"/><rect fill="#F1F1F1" height="10" style="stroke:#181818;stroke-width:0.5;" width="15" x="425.5" y="827.19"/><rect fill="#F1F1F1" height="2" style="stroke:#181818;stroke-width:0.5;" width="4" x="423.5" y="829.19"/><rect fill="#F1F1F1" height="2" style="stroke:#181818;stroke-width:0.5;" width="4" x="423.5" y="833.19"/><text fill="#000000" font-family="sans-serif" font-size="14" lengthAdjust="spacing" textLength="53" x="367.5" y="855.1851">Marshal</text></g><!--entity KeyDB--><g id="elem_KeyDB"><path d="M217,832.69 C217,822.69 250,822.69 250,822.69 C250,822.69 283,822.69 283,832.69 L283,857.9869 C283,867.9869 250,867.9869 250,867.9869 C250,867.9869 217,867.9869 217,857.9869 L217,832.69 " fill="#F1F1F1" style="stroke:#181818;stroke-width:0.5;"/><path d="M217,832.69 C217,842.69 250,842.69 250,842.69 C250,842.69 283,842.69 283,832.69 " fill="none" style="stroke:#181818;stroke-width:0.5;"/><text fill="#000000" font-family="sans-serif" font-size="14" lengthAdjust="spacing" textLength="46" x="227" y="859.6851">KeyDB</text></g><text fill="#000000" font-family="sans-serif" font-size="14" lengthAdjust="spacing" textLength="58" x="850.5" y="613.4382">Catchup</text><rect fill="#F1F1F1" height="12" style="stroke:#181818;stroke-width:1.5;" width="12" x="873.5" y="628.74"/><text fill="#000000" font-family="sans-serif" font-size="14" lengthAdjust="spacing" textLength="37" x="963.5" y="613.4382">HTTP</text><rect fill="#F1F1F1" height="12" style="stroke:#181818;stroke-width:1.5;" width="12" x="976" y="628.74"/><text fill="#000000" font-family="sans-serif" font-size="14" lengthAdjust="spacing" textLength="44" x="1063" y="613.4382">Status</text><rect fill="#F1F1F1" height="12" style="stroke:#181818;stroke-width:1.5;" width="12" x="1079" y="628.74"/><text fill="#000000" font-family="sans-serif" font-size="14" lengthAdjust="spacing" textLength="48" x="1274" y="613.4382">Submit</text><rect fill="#F1F1F1" height="12" style="stroke:#181818;stroke-width:1.5;" width="12" x="1292" y="628.74"/><text fill="#000000" font-family="sans-serif" font-size="14" lengthAdjust="spacing" textLength="41" x="1153.5" y="613.4382">Query</text><rect fill="#F1F1F1" height="12" style="stroke:#181818;stroke-width:1.5;" width="12" x="1168" y="628.74"/><text fill="#000000" font-family="sans-serif" font-size="14" lengthAdjust="spacing" textLength="55" x="1359.5" y="580.8445">Hotshot</text><text fill="#000000" font-family="sans-serif" font-size="14" lengthAdjust="spacing" textLength="47" x="1363.5" y="597.1414">Events</text><text fill="#000000" font-family="sans-serif" font-size="14" lengthAdjust="spacing" textLength="49" x="1362.5" y="613.4382">Stream</text><rect fill="#F1F1F1" height="12" style="stroke:#181818;stroke-width:1.5;" width="12" x="1381" y="628.74"/><!--entity QS--><g id="elem_QS"><rect fill="#F1F1F1" height="78.8906" rx="2.5" ry="2.5" style="stroke:#181818;stroke-width:0.5;" width="96" x="1189" y="805.89"/><rect fill="#F1F1F1" height="10" style="stroke:#181818;stroke-width:0.5;" width="15" x="1265" y="810.89"/><rect fill="#F1F1F1" height="2" style="stroke:#181818;stroke-width:0.5;" width="4" x="1263" y="812.89"/><rect fill="#F1F1F1" height="2" style="stroke:#181818;stroke-width:0.5;" width="4" x="1263" y="816.89"/><text fill="#000000" font-family="sans-serif" font-size="14" lengthAdjust="spacing" textLength="56" x="1204" y="838.8851">HotShot</text><text fill="#000000" font-family="sans-serif" font-size="14" lengthAdjust="spacing" textLength="41" x="1204" y="855.182">Query</text><text fill="#000000" font-family="sans-serif" font-size="14" lengthAdjust="spacing" textLength="50" x="1204" y="871.4789">Service</text></g><!--entity Libp2p--><g id="elem_Libp2p"><rect fill="#F1F1F1" height="46.2969" rx="2.5" ry="2.5" style="stroke:#181818;stroke-width:0.5;" width="86" x="577" y="611.59"/><rect fill="#F1F1F1" height="10" style="stroke:#181818;stroke-width:0.5;" width="15" x="643" y="616.59"/><rect fill="#F1F1F1" height="2" style="stroke:#181818;stroke-width:0.5;" width="4" x="641" y="618.59"/><rect fill="#F1F1F1" height="2" style="stroke:#181818;stroke-width:0.5;" width="4" x="641" y="622.59"/><text fill="#000000" font-family="sans-serif" font-size="14" lengthAdjust="spacing" textLength="46" x="592" y="644.5851">Libp2p</text></g><!--entity CDN Client--><g id="elem_CDN Client"><rect fill="#F1F1F1" height="46.2969" rx="2.5" ry="2.5" style="stroke:#181818;stroke-width:0.5;" width="114" x="698" y="611.59"/><rect fill="#F1F1F1" height="10" style="stroke:#181818;stroke-width:0.5;" width="15" x="792" y="616.59"/><rect fill="#F1F1F1" height="2" style="stroke:#181818;stroke-width:0.5;" width="4" x="790" y="618.59"/><rect fill="#F1F1F1" height="2" style="stroke:#181818;stroke-width:0.5;" width="4" x="790" y="622.59"/><text fill="#000000" font-family="sans-serif" font-size="14" lengthAdjust="spacing" textLength="74" x="713" y="644.5851">CDN Client</text></g><!--entity Signer--><g id="elem_Signer"><rect fill="#F1F1F1" height="46.2969" rx="2.5" ry="2.5" style="stroke:#181818;stroke-width:0.5;" width="124" x="1454" y="611.59"/><rect fill="#F1F1F1" height="10" style="stroke:#181818;stroke-width:0.5;" width="15" x="1558" y="616.59"/><rect fill="#F1F1F1" height="2" style="stroke:#181818;stroke-width:0.5;" width="4" x="1556" y="618.59"/><rect fill="#F1F1F1" height="2" style="stroke:#181818;stroke-width:0.5;" width="4" x="1556" y="622.59"/><text fill="#000000" font-family="sans-serif" font-size="14" lengthAdjust="spacing" textLength="84" x="1469" y="644.5851">State Signer</text></g><!--entity Validated--><g id="elem_Validated"><rect fill="#F1F1F1" height="46.2969" rx="2.5" ry="2.5" style="stroke:#181818;stroke-width:0.5;" width="139" x="1613.5" y="611.59"/><rect fill="#F1F1F1" height="10" style="stroke:#181818;stroke-width:0.5;" width="15" x="1732.5" y="616.59"/><rect fill="#F1F1F1" height="2" style="stroke:#181818;stroke-width:0.5;" width="4" x="1730.5" y="618.59"/><rect fill="#F1F1F1" height="2" style="stroke:#181818;stroke-width:0.5;" width="4" x="1730.5" y="622.59"/><text fill="#000000" font-family="sans-serif" font-size="14" lengthAdjust="spacing" textLength="99" x="1628.5" y="644.5851">ValidatedState</text></g><!--entity L2_RPC--><g id="elem_L2_RPC"><rect fill="#F1F1F1" height="46.2969" rx="2.5" ry="2.5" style="stroke:#181818;stroke-width:0.5;" width="172" x="1625" y="225.3"/><rect fill="#F1F1F1" height="10" style="stroke:#181818;stroke-width:0.5;" width="15" x="1777" y="230.3"/><rect fill="#F1F1F1" height="2" style="stroke:#181818;stroke-width:0.5;" width="4" x="1775" y="232.3"/><rect fill="#F1F1F1" height="2" style="stroke:#181818;stroke-width:0.5;" width="4" x="1775" y="236.3"/><text fill="#000000" font-family="sans-serif" font-size="14" lengthAdjust="spacing" textLength="132" x="1640" y="258.2951">API (e.g. JSON-RPC)</text></g><!--entity L2_Exec--><g id="elem_L2_Exec"><rect fill="#F1F1F1" height="46.2969" rx="2.5" ry="2.5" style="stroke:#181818;stroke-width:0.5;" width="101" x="1488.5" y="225.3"/><rect fill="#F1F1F1" height="10" style="stroke:#181818;stroke-width:0.5;" width="15" x="1569.5" y="230.3"/><rect fill="#F1F1F1" height="2" style="stroke:#181818;stroke-width:0.5;" width="4" x="1567.5" y="232.3"/><rect fill="#F1F1F1" height="2" style="stroke:#181818;stroke-width:0.5;" width="4" x="1567.5" y="236.3"/><text fill="#000000" font-family="sans-serif" font-size="14" lengthAdjust="spacing" textLength="61" x="1503.5" y="258.2951">Executor</text></g><!--entity L2_Prover--><g id="elem_L2_Prover"><rect fill="#F1F1F1" height="46.2969" rx="2.5" ry="2.5" style="stroke:#181818;stroke-width:0.5;" width="84" x="1832" y="225.3"/><rect fill="#F1F1F1" height="10" style="stroke:#181818;stroke-width:0.5;" width="15" x="1896" y="230.3"/><rect fill="#F1F1F1" height="2" style="stroke:#181818;stroke-width:0.5;" width="4" x="1894" y="232.3"/><rect fill="#F1F1F1" height="2" style="stroke:#181818;stroke-width:0.5;" width="4" x="1894" y="236.3"/><text fill="#000000" font-family="sans-serif" font-size="14" lengthAdjust="spacing" textLength="44" x="1847" y="258.2951">Prover</text></g><!--entity L2_State--><g id="elem_L2_State"><path d="M1670.5,113 C1670.5,103 1711,103 1711,103 C1711,103 1751.5,103 1751.5,113 L1751.5,138.2969 C1751.5,148.2969 1711,148.2969 1711,148.2969 C1711,148.2969 1670.5,148.2969 1670.5,138.2969 L1670.5,113 " fill="#F1F1F1" style="stroke:#181818;stroke-width:0.5;"/><path d="M1670.5,113 C1670.5,123 1711,123 1711,123 C1711,123 1751.5,123 1751.5,113 " fill="none" style="stroke:#181818;stroke-width:0.5;"/><text fill="#000000" font-family="sans-serif" font-size="14" lengthAdjust="spacing" textLength="61" x="1680.5" y="139.9951">State DB</text></g><!--entity LC_L1--><g id="elem_LC_L1"><rect fill="#F1F1F1" height="62.5938" rx="2.5" ry="2.5" style="stroke:#181818;stroke-width:0.5;" width="116" x="1930" y="1313.38"/><rect fill="#F1F1F1" height="10" style="stroke:#181818;stroke-width:0.5;" width="15" x="2026" y="1318.38"/><rect fill="#F1F1F1" height="2" style="stroke:#181818;stroke-width:0.5;" width="4" x="2024" y="1320.38"/><rect fill="#F1F1F1" height="2" style="stroke:#181818;stroke-width:0.5;" width="4" x="2024" y="1324.38"/><text fill="#000000" font-family="sans-serif" font-size="14" lengthAdjust="spacing" textLength="76" x="1945" y="1346.3751">Light Client</text><text fill="#000000" font-family="sans-serif" font-size="14" lengthAdjust="spacing" textLength="59" x="1945" y="1362.672">Contract</text></g><!--entity Fee_L1--><g id="elem_Fee_L1"><rect fill="#F1F1F1" height="62.5938" rx="2.5" ry="2.5" style="stroke:#181818;stroke-width:0.5;" width="99" x="2080.5" y="1313.38"/><rect fill="#F1F1F1" height="10" style="stroke:#181818;stroke-width:0.5;" width="15" x="2159.5" y="1318.38"/><rect fill="#F1F1F1" height="2" style="stroke:#181818;stroke-width:0.5;" width="4" x="2157.5" y="1320.38"/><rect fill="#F1F1F1" height="2" style="stroke:#181818;stroke-width:0.5;" width="4" x="2157.5" y="1324.38"/><text fill="#000000" font-family="sans-serif" font-size="14" lengthAdjust="spacing" textLength="26" x="2095.5" y="1346.3751">Fee</text><text fill="#000000" font-family="sans-serif" font-size="14" lengthAdjust="spacing" textLength="59" x="2095.5" y="1362.672">Contract</text></g><!--entity L2_L1--><g id="elem_L2_L1"><rect fill="#F1F1F1" height="62.5938" rx="2.5" ry="2.5" style="stroke:#181818;stroke-width:0.5;" width="99" x="2352.5" y="1313.38"/><rect fill="#F1F1F1" height="10" style="stroke:#181818;stroke-width:0.5;" width="15" x="2431.5" y="1318.38"/><rect fill="#F1F1F1" height="2" style="stroke:#181818;stroke-width:0.5;" width="4" x="2429.5" y="1320.38"/><rect fill="#F1F1F1" height="2" style="stroke:#181818;stroke-width:0.5;" width="4" x="2429.5" y="1324.38"/><text fill="#000000" font-family="sans-serif" font-size="14" lengthAdjust="spacing" textLength="57" x="2367.5" y="1346.3751">Rollup N</text><text fill="#000000" font-family="sans-serif" font-size="14" lengthAdjust="spacing" textLength="59" x="2367.5" y="1362.672">Contract</text></g><!--entity User--><g id="elem_User"><ellipse cx="2048" cy="626.59" fill="#F1F1F1" rx="12" ry="12" style="stroke:#181818;stroke-width:0.5;"/><line style="stroke:#181818;stroke-width:0.5;" x1="2036" x2="2060" y1="640.59" y2="640.59"/><text fill="#000000" font-family="sans-serif" font-size="14" lengthAdjust="spacing" textLength="32" x="2032" y="655.5851">User</text></g><!--link Broker to KeyDB--><g id="link_Broker_KeyDB"><path d="M148.11,845.34 C170.15,845.34 190.55,845.34 210.96,845.34 " fill="none" id="Broker-to-KeyDB" style="stroke:#181818;stroke-width:1.0;"/><polygon fill="#181818" points="216.96,845.34,207.96,841.34,211.96,845.34,207.96,849.34,216.96,845.34" style="stroke:#181818;stroke-width:1.0;"/><text fill="#000000" font-family="sans-serif" font-size="13" lengthAdjust="spacing" textLength="33" x="166" y="838.4069">state</text></g><!--link KeyDB to Marshal--><g id="link_KeyDB_Marshal"><path d="M283.44,845.34 C303.69,845.34 323.82,845.34 346.11,845.34 " fill="none" id="KeyDB-to-Marshal" style="stroke:#181818;stroke-width:1.0;"/><polygon fill="#181818" points="352.11,845.34,343.11,841.34,347.11,845.34,343.11,849.34,352.11,845.34" style="stroke:#181818;stroke-width:1.0;"/><text fill="#000000" font-family="sans-serif" font-size="13" lengthAdjust="spacing" textLength="33" x="301.25" y="838.4069">state</text></g><!--link Nodes to CDN--><g id="link_Nodes_CDN"><path d="M436.8745,680.0484 C446.3445,700.3684 454.7,720.46 462,744.19 C462.8063,746.8119 463.5845,749.4834 464.3353,752.1889 C464.7106,753.5417 465.0791,754.903 465.4408,756.2708 C465.6216,756.9547 465.8007,757.6403 465.9782,758.3272 C466.0669,758.6707 466.1551,759.0145 466.243,759.3587 C466.2869,759.5308 464.8545,753.8873 464.8983,754.0596 " fill="none" id="Nodes-CDN" style="stroke:#181818;stroke-width:1.0;"/><polygon fill="#181818" points="434.34,674.61,434.5162,684.4573,436.4521,679.142,441.7674,681.0779,434.34,674.61" style="stroke:#181818;stroke-width:1.0;"/><polygon fill="#181818" points="466.3745,759.8751,468.0372,750.1676,465.1443,755.0288,460.2831,752.1359,466.3745,759.8751" style="stroke:#181818;stroke-width:1.0;"/><text fill="#000000" font-family="sans-serif" font-size="13" lengthAdjust="spacing" textLength="68" x="460" y="717.2569">consensus</text><text fill="#000000" font-family="sans-serif" font-size="13" lengthAdjust="spacing" textLength="66" x="461" y="732.3897">messages</text></g><!--link Query to QS--><g id="link_Query_QS"><path d="M1175.43,640.49 C1181.97,662.14 1207.5951,746.9663 1223.5551,799.8063 " fill="none" id="Query-to-QS" style="stroke:#181818;stroke-width:1.0;"/><polygon fill="#181818" points="1225.29,805.55,1226.5169,795.7779,1223.8443,800.7636,1218.8586,798.091,1225.29,805.55" style="stroke:#181818;stroke-width:1.0;"/></g><!--reverse link Catchup to Nodes--><g id="link_Catchup_Nodes"><path d="M881.3359,623.146 C884.5759,593.686 894.46,463.67 817,440.29 C708.03,407.39 662.55,396.17 561,447.59 C499.05,478.96 455.4,550.12 432.8,595.09 " fill="none" id="Catchup-backto-Nodes" style="stroke:#181818;stroke-width:1.0;"/><polygon fill="#181818" points="880.68,629.11,885.6399,620.6012,881.2266,624.14,877.6879,619.7267,880.68,629.11" style="stroke:#181818;stroke-width:1.0;"/><text fill="#000000" font-family="sans-serif" font-size="13" lengthAdjust="spacing" textLength="4" x="812" y="388.1569">&#160;</text><text fill="#000000" font-family="sans-serif" font-size="13" lengthAdjust="spacing" textLength="4" x="876.1367" y="617.5223">&#160;</text><text fill="#000000" font-family="sans-serif" font-size="13" lengthAdjust="spacing" textLength="49" x="382.8159" y="569.1489">missing</text><text fill="#000000" font-family="sans-serif" font-size="13" lengthAdjust="spacing" textLength="33" x="390.8159" y="584.2817">state</text></g><!--link Nodes to Libp2p--><g id="link_Nodes_Libp2p"><path d="M479.47,634.74 C512.37,634.74 540.74,634.74 570.77,634.74 " fill="none" id="Nodes-Libp2p" style="stroke:#181818;stroke-width:1.0;"/><polygon fill="#181818" points="473.47,634.74,482.47,638.74,478.47,634.74,482.47,630.74,473.47,634.74" style="stroke:#181818;stroke-width:1.0;"/><polygon fill="#181818" points="576.77,634.74,567.77,630.74,571.77,634.74,567.77,638.74,576.77,634.74" style="stroke:#181818;stroke-width:1.0;"/><text fill="#000000" font-family="sans-serif" font-size="13" lengthAdjust="spacing" textLength="68" x="491" y="612.8069">consensus</text><text fill="#000000" font-family="sans-serif" font-size="13" lengthAdjust="spacing" textLength="66" x="492" y="627.9397">messages</text></g><!--link CDN Client to CDN--><g id="link_CDN Client_CDN"><path d="M720.646,661.8944 C685.771,688.4444 630.79,730.3025 579.095,769.6588 C553.2475,789.3369 529.415,807.4809 511.715,820.9561 C502.865,827.6937 495.5481,833.264 490.2791,837.2753 C489.9497,837.526 494.4024,834.1362 494.0893,834.3747 " fill="none" id="CDN Client-CDN" style="stroke:#181818;stroke-width:1.0;"/><polygon fill="#181818" points="725.42,658.26,715.8361,660.5289,721.4417,661.2887,720.6819,666.8943,725.42,658.26" style="stroke:#181818;stroke-width:1.0;"/><polygon fill="#181818" points="489.3152,838.009,498.8992,835.7401,493.2936,834.9804,494.0533,829.3748,489.3152,838.009" style="stroke:#181818;stroke-width:1.0;"/><text fill="#000000" font-family="sans-serif" font-size="13" lengthAdjust="spacing" textLength="68" x="659" y="717.2569">consensus</text><text fill="#000000" font-family="sans-serif" font-size="13" lengthAdjust="spacing" textLength="66" x="660" y="732.3897">messages</text></g><!--link QS to DB--><g id="link_QS_DB"><path d="M1237,885.28 C1237,925.46 1237,980.71 1237,1013.14 " fill="none" id="QS-to-DB" style="stroke:#181818;stroke-width:1.0;"/><polygon fill="#181818" points="1237,1019.14,1241,1010.14,1237,1014.14,1233,1010.14,1237,1019.14" style="stroke:#181818;stroke-width:1.0;"/></g><!--link Signer to Relay--><g id="link_Signer_Relay"><path d="M1554.51,658.31 C1567.62,665.9 1582.4,674.35 1596,681.89 C1680.86,728.95 1774.9326,778.6106 1836.6126,810.8506 " fill="none" id="Signer-to-Relay" style="stroke:#181818;stroke-width:1.0;"/><polygon fill="#181818" points="1841.93,813.63,1835.8068,805.916,1837.4988,811.3138,1832.1009,813.0058,1841.93,813.63" style="stroke:#181818;stroke-width:1.0;"/><text fill="#000000" font-family="sans-serif" font-size="13" lengthAdjust="spacing" textLength="33" x="1688" y="724.7569">state</text></g><!--link Seq to Builder--><g id="link_Seq_Builder"><path d="M1809.1666,634.74 C1809.2533,634.74 1809.3406,634.74 1809.4285,634.74 C1809.7801,634.74 1810.1414,634.74 1810.5121,634.74 C1811.995,634.74 1813.6288,634.74 1815.3969,634.74 C1822.4694,634.74 1831.6925,634.74 1842.0175,634.74 C1862.6675,634.74 1881.725,634.74 1902.8,634.74 " fill="none" id="Seq-to-Builder" style="stroke:#181818;stroke-width:1.0;"/><polygon fill="#181818" points="1908.8,634.74,1899.8,630.74,1903.8,634.74,1899.8,638.74,1908.8,634.74" style="stroke:#181818;stroke-width:1.0;"/><text fill="#000000" font-family="sans-serif" font-size="13" lengthAdjust="spacing" textLength="71" x="1819.68" y="627.8069">claim block</text></g><!--reverse link Seq to Builder--><g id="link_Seq_Builder"><path d="M1814.0017,644.0633 C1814.0874,644.1217 1809.3465,640.885 1809.4333,640.9438 C1809.607,641.0616 1809.7827,641.1802 1809.9606,641.2996 C1811.3832,642.2548 1812.9378,643.2619 1814.5963,644.2825 C1821.23,648.365 1829.525,652.665 1837.68,654.74 C1860.82,660.64 1887.01,656.91 1908.58,651.15 " fill="none" id="Seq-backto-Builder" style="stroke:#181818;stroke-width:1.0;"/><polygon fill="#181818" points="1809.0462,640.6805,1814.2243,649.0583,1813.1758,643.4995,1818.7346,642.451,1809.0462,640.6805" style="stroke:#181818;stroke-width:1.0;"/><text fill="#000000" font-family="sans-serif" font-size="13" lengthAdjust="spacing" textLength="33" x="1838.68" y="650.8069">block</text></g><!--link Relay to HSProver--><g id="link_Relay_HSProver"><path d="M1881,876.77 C1857.02,913.24 1820.3761,969.0065 1796.3661,1005.5265 " fill="none" id="Relay-to-HSProver" style="stroke:#181818;stroke-width:1.0;"/><polygon fill="#181818" points="1793.07,1010.54,1801.3566,1005.2171,1795.8168,1006.3621,1794.6718,1000.8223,1793.07,1010.54" style="stroke:#181818;stroke-width:1.0;"/><text fill="#000000" font-family="sans-serif" font-size="13" lengthAdjust="spacing" textLength="33" x="1834" y="969.3469">state</text></g><!--link Events to Builder--><g id="link_Events_Builder"><path d="M1386.4,628.87 C1384.08,602.47 1378.49,493.95 1438,447.59 C1574.42,341.33 1654.09,441.91 1827,440.29 C1829.67,440.26 1830.67,438.99 1833,440.29 C1899.51,477.4 1932.0319,562.4843 1944.9919,605.5743 " fill="none" id="Events-to-Builder" style="stroke:#181818;stroke-width:1.0;"/><polygon fill="#181818" points="1946.72,611.32,1947.9583,601.5493,1945.2799,606.5319,1940.2973,603.8535,1946.72,611.32" style="stroke:#181818;stroke-width:1.0;"/><text fill="#000000" font-family="sans-serif" font-size="13" lengthAdjust="spacing" textLength="4" x="1828" y="388.1569">&#160;</text><text fill="#000000" font-family="sans-serif" font-size="13" lengthAdjust="spacing" textLength="4" x="1380.8075" y="617.7884">&#160;</text><text fill="#000000" font-family="sans-serif" font-size="13" lengthAdjust="spacing" textLength="79" x="1855.9889" y="600.4811">transactions</text></g><!--reverse link L2_RPC to User--><g id="link_L2_RPC_User"><path d="M1743.6226,275.5663 C1763.5726,290.7663 1786.83,306.7 1814,319.59 C1825.31,324.96 1829.72,322.17 1841,327.59 C1924.99,368.02 1962.41,369.31 2013,447.59 C2045.93,498.55 2049.57,572.75 2049.04,610.22 " fill="none" id="L2_RPC-backto-User" style="stroke:#181818;stroke-width:1.0;"/><polygon fill="#181818" points="1738.85,271.93,1743.5847,280.5661,1742.8272,274.9602,1748.4331,274.2027,1738.85,271.93" style="stroke:#181818;stroke-width:1.0;"/><path d="M2011,332.59 L2011,417.59 L2189,417.59 L2189,342.59 L2179,332.59 L2011,332.59 " fill="#FEFFDD" style="stroke:#181818;stroke-width:0.5;"/><path d="M2179,332.59 L2179,342.59 L2189,342.59 L2179,332.59 " fill="#FEFFDD" style="stroke:#181818;stroke-width:0.5;"/><text fill="#000000" font-family="sans-serif" font-size="13" lengthAdjust="spacing" textLength="143" x="2017" y="349.6569">1. Many clients submit</text><text fill="#000000" font-family="sans-serif" font-size="13" lengthAdjust="spacing" textLength="131" x="2033" y="364.7897">transactions to each</text><text fill="#000000" font-family="sans-serif" font-size="13" lengthAdjust="spacing" textLength="141" x="2033" y="379.9225">L2 simultaneously (for</text><text fill="#000000" font-family="sans-serif" font-size="13" lengthAdjust="spacing" textLength="110" x="2033" y="395.0553">clarity only one is</text><text fill="#000000" font-family="sans-serif" font-size="13" lengthAdjust="spacing" textLength="45" x="2033" y="410.1881">shown)</text><text fill="#000000" font-family="sans-serif" font-size="13" lengthAdjust="spacing" textLength="4" x="2098" y="436.321">&#160;</text><text fill="#000000" font-family="sans-serif" font-size="13" lengthAdjust="spacing" textLength="4" x="1741.1509" y="291.5648">&#160;</text><text fill="#000000" font-family="sans-serif" font-size="13" lengthAdjust="spacing" textLength="83" x="1974.5294" y="584.3288">transactions,</text><text fill="#000000" font-family="sans-serif" font-size="13" lengthAdjust="spacing" textLength="84" x="1974.0294" y="599.4616">state queries</text></g><!--link L2_RPC to Submit--><g id="link_L2_RPC_Submit"><path d="M1685.65,271.89 C1665.73,288.13 1636.52,309 1607,319.59 C1572.12,332.12 1558.93,315.21 1524,327.59 C1433.03,359.85 1398.39,368.55 1343,447.59 C1300.07,508.86 1297.8162,600.23 1297.9062,622.91 " fill="none" id="L2_RPC-to-Submit" style="stroke:#181818;stroke-width:1.0;"/><polygon fill="#181818" points="1297.93,628.91,1301.8943,619.8942,1297.9102,623.91,1293.8943,619.9259,1297.93,628.91" style="stroke:#181818;stroke-width:1.0;"/><path d="M1529,362.59 L1529,387.59 L1814,387.59 L1814,372.59 L1804,362.59 L1529,362.59 " fill="#FEFFDD" style="stroke:#181818;stroke-width:0.5;"/><path d="M1804,362.59 L1804,372.59 L1814,372.59 L1804,362.59 " fill="#FEFFDD" style="stroke:#181818;stroke-width:0.5;"/><text fill="#000000" font-family="sans-serif" font-size="13" lengthAdjust="spacing" textLength="264" x="1535" y="379.6569">2. L2s forward transactions to sequencer.</text><text fill="#000000" font-family="sans-serif" font-size="13" lengthAdjust="spacing" textLength="4" x="1669.5" y="405.7897">&#160;</text><text fill="#000000" font-family="sans-serif" font-size="13" lengthAdjust="spacing" textLength="72" x="1558.5709" y="291.6234">transaction</text><text fill="#000000" font-family="sans-serif" font-size="13" lengthAdjust="spacing" textLength="144" x="1522.5709" y="306.7562">NamespaceId Rollup N</text><text fill="#000000" font-family="sans-serif" font-size="13" lengthAdjust="spacing" textLength="4" x="1292.6104" y="617.5214">&#160;</text></g><!--reverse link L2_Exec to Query--><g id="link_L2_Exec_Query"><path d="M1482.0301,249.5893 C1289.5601,250.5293 620.6,258.73 557,327.59 C523.23,364.16 522.05,404.15 557,439.59 C568.18,450.93 1117.59,437.63 1130,447.59 C1188.79,494.78 1177.92,604.65 1174.7,628.93 " fill="none" id="L2_Exec-backto-Query" style="stroke:#181818;stroke-width:1.0;"/><polygon fill="#181818" points="1488.03,249.56,1479.0106,245.604,1483.0301,249.5844,1479.0496,253.6039,1488.03,249.56" style="stroke:#181818;stroke-width:1.0;"/><path d="M562,340.09 L562,410.09 L798,410.09 L798,350.09 L788,340.09 L562,340.09 " fill="#FEFFDD" style="stroke:#181818;stroke-width:0.5;"/><path d="M788,340.09 L788,350.09 L798,350.09 L788,340.09 " fill="#FEFFDD" style="stroke:#181818;stroke-width:0.5;"/><text fill="#000000" font-family="sans-serif" font-size="13" lengthAdjust="spacing" textLength="206" x="568" y="357.1569">3. Sequencer produces blocks --</text><text fill="#000000" font-family="sans-serif" font-size="13" lengthAdjust="spacing" textLength="182" x="584" y="372.2897">ordered lists of transactions.</text><text fill="#000000" font-family="sans-serif" font-size="13" lengthAdjust="spacing" textLength="199" x="584" y="387.4225">L2s receive blocks and execute</text><text fill="#000000" font-family="sans-serif" font-size="13" lengthAdjust="spacing" textLength="176" x="584" y="402.5553">transactions for their rollup.</text><text fill="#000000" font-family="sans-serif" font-size="13" lengthAdjust="spacing" textLength="34" x="663" y="428.6881">Block</text></g><!--link HSProver to LC_L1--><g id="link_HSProver_LC_L1"><path d="M1704.26,1059.73 C1680.69,1069.08 1656.8,1083.46 1643,1105.38 C1620.5,1141.11 1619.56,1165.26 1643,1200.38 C1707.18,1296.53 1843.2996,1327.49 1923.6696,1337.89 " fill="none" id="HSProver-to-LC_L1" style="stroke:#181818;stroke-width:1.0;"/><polygon fill="#181818" points="1929.62,1338.66,1921.2077,1333.5381,1924.6613,1338.0183,1920.1811,1341.4719,1929.62,1338.66" style="stroke:#181818;stroke-width:1.0;"/><text fill="#000000" font-family="sans-serif" font-size="13" lengthAdjust="spacing" textLength="53" x="1644" y="1142.5133">HotShot</text><text fill="#000000" font-family="sans-serif" font-size="13" lengthAdjust="spacing" textLength="33" x="1654" y="1157.6461">state</text><text fill="#000000" font-family="sans-serif" font-size="13" lengthAdjust="spacing" textLength="33" x="1654" y="1172.7789">proof</text><path d="M1703,1117.88 L1703,1187.88 L1991,1187.88 L1991,1127.88 L1981,1117.88 L1703,1117.88 " fill="#FEFFDD" style="stroke:#181818;stroke-width:0.5;"/><path d="M1981,1117.88 L1981,1127.88 L1991,1127.88 L1981,1117.88 " fill="#FEFFDD" style="stroke:#181818;stroke-width:0.5;"/><text fill="#000000" font-family="sans-serif" font-size="13" lengthAdjust="spacing" textLength="267" x="1709" y="1134.9469">4. Sequencer posts succinct commitment</text><text fill="#000000" font-family="sans-serif" font-size="13" lengthAdjust="spacing" textLength="235" x="1725" y="1150.0797">to block to L1. Contract verifies proof</text><text fill="#000000" font-family="sans-serif" font-size="13" lengthAdjust="spacing" textLength="224" x="1725" y="1165.2125">of sequencing (Quorum Certificate)</text><text fill="#000000" font-family="sans-serif" font-size="13" lengthAdjust="spacing" textLength="226" x="1725" y="1180.3453">then stores the block commitment.</text></g><!--link L2_Prover to L2_L1--><g id="link_L2_Prover_L2_L1"><path d="M1916.23,251.24 C1981.91,255.77 2110.46,271.67 2202,327.59 C2354.83,420.96 2464,454.65 2464,633.74 C2464,633.74 2464,633.74 2464,1043.08 C2464,1143.52 2432.2529,1253.3198 2414.5329,1307.2498 " fill="none" id="L2_Prover-to-L2_L1" style="stroke:#181818;stroke-width:1.0;"/><polygon fill="#181818" points="2412.66,1312.95,2419.2695,1305.6483,2414.2208,1308.1998,2411.6693,1303.1511,2412.66,1312.95" style="stroke:#181818;stroke-width:1.0;"/><text fill="#000000" font-family="sans-serif" font-size="13" lengthAdjust="spacing" textLength="35" x="2522.5" y="794.9069">rollup</text><text fill="#000000" font-family="sans-serif" font-size="13" lengthAdjust="spacing" textLength="33" x="2523.5" y="810.0397">state</text><text fill="#000000" font-family="sans-serif" font-size="13" lengthAdjust="spacing" textLength="33" x="2523.5" y="825.1725">proof</text><path d="M2469,834.2384 L2469,904.2384 L2611,904.2384 L2611,844.2384 L2601,834.2384 L2469,834.2384 " fill="#FEFFDD" style="stroke:#181818;stroke-width:0.5;"/><path d="M2601,834.2384 L2601,844.2384 L2611,844.2384 L2601,834.2384 " fill="#FEFFDD" style="stroke:#181818;stroke-width:0.5;"/><text fill="#000000" font-family="sans-serif" font-size="13" lengthAdjust="spacing" textLength="93" x="2475" y="851.3053">5. Rollups post</text><text fill="#000000" font-family="sans-serif" font-size="13" lengthAdjust="spacing" textLength="90" x="2491" y="866.4381">updated state</text><text fill="#000000" font-family="sans-serif" font-size="13" lengthAdjust="spacing" textLength="105" x="2491" y="881.571">to L1. ZK-rollups</text><text fill="#000000" font-family="sans-serif" font-size="13" lengthAdjust="spacing" textLength="98" x="2491" y="896.7038">include a proof.</text></g><!--link LC_L1 to L2_L1--><g id="link_LC_L1_L2_L1"><path d="M1986.58,1312.94 C1986.5,1267.6 1994.01,1185.49 2045.5,1146.84 C2100.06,1105.88 2298.72,1104.86 2352.5,1146.84 C2402.73,1186.06 2407.0681,1261.936 2405.0481,1307.096 " fill="none" id="LC_L1-to-L2_L1" style="stroke:#181818;stroke-width:1.0;"/><polygon fill="#181818" points="2404.78,1313.09,2409.1782,1304.2777,2405.0034,1308.095,2401.1862,1303.9202,2404.78,1313.09" style="stroke:#181818;stroke-width:1.0;"/><path d="M2050.5,1110.38 L2050.5,1195.38 L2347.5,1195.38 L2347.5,1120.38 L2337.5,1110.38 L2050.5,1110.38 " fill="#FEFFDD" style="stroke:#181818;stroke-width:0.5;"/><path d="M2337.5,1110.38 L2337.5,1120.38 L2347.5,1120.38 L2337.5,1110.38 " fill="#FEFFDD" style="stroke:#181818;stroke-width:0.5;"/><text fill="#000000" font-family="sans-serif" font-size="13" lengthAdjust="spacing" textLength="272" x="2056.5" y="1127.4469">6. Rollup contracts read certified sequence</text><text fill="#000000" font-family="sans-serif" font-size="13" lengthAdjust="spacing" textLength="248" x="2072.5" y="1142.5797">of block commitments from sequencer</text><text fill="#000000" font-family="sans-serif" font-size="13" lengthAdjust="spacing" textLength="242" x="2072.5" y="1157.7125">contract. Verify state transition proofs</text><text fill="#000000" font-family="sans-serif" font-size="13" lengthAdjust="spacing" textLength="247" x="2072.5" y="1172.8453">against this sequence (ZKR) or wait for</text><text fill="#000000" font-family="sans-serif" font-size="13" lengthAdjust="spacing" textLength="260" x="2072.5" y="1187.9781">fraud proof against this sequence (ORU).</text></g><!--link L2_State to L2_RPC--><g id="link_L2_State_L2_RPC"><path d="M1711,148.53 C1711,170.15 1711,197.07 1711,218.91 " fill="none" id="L2_State-to-L2_RPC" style="stroke:#181818;stroke-width:1.0;"/><polygon fill="#181818" points="1711,224.91,1715,215.91,1711,219.91,1707,215.91,1711,224.91" style="stroke:#181818;stroke-width:1.0;"/><text fill="#000000" font-family="sans-serif" font-size="13" lengthAdjust="spacing" textLength="69" x="1712" y="191.3669">Read state</text></g><!--reverse link L2_State to L2_Exec--><g id="link_L2_State_L2_Exec"><path d="M1671.4426,151.8395 C1657.5026,160.8595 1646.38,168.27 1632,178.3 C1610.38,193.38 1586.54,211.13 1568.4,224.87 " fill="none" id="L2_State-backto-L2_Exec" style="stroke:#181818;stroke-width:1.0;"/><polygon fill="#181818" points="1676.48,148.58,1666.7509,150.111,1672.2821,151.2963,1671.0969,156.8275,1676.48,148.58" style="stroke:#181818;stroke-width:1.0;"/><text fill="#000000" font-family="sans-serif" font-size="13" lengthAdjust="spacing" textLength="69" x="1633" y="191.3669">Write state</text></g><!--link L2_State to L2_Prover--><g id="link_L2_State_L2_Prover"><path d="M1746.56,148.72 C1760.36,157.59 1776.14,168.11 1790,178.3 C1810.09,193.07 1827.2222,207.0996 1843.5422,220.9996 " fill="none" id="L2_State-to-L2_Prover" style="stroke:#181818;stroke-width:1.0;"/><polygon fill="#181818" points="1848.11,224.89,1843.852,216.0092,1844.3035,221.648,1838.6647,222.0995,1848.11,224.89" style="stroke:#181818;stroke-width:1.0;"/><text fill="#000000" font-family="sans-serif" font-size="13" lengthAdjust="spacing" textLength="71" x="1812" y="191.3669">Read State</text></g><!--link Builder to Fee_L1--><g id="link_Builder_Fee_L1"><path d="M1982.76,658.32 C1992.91,665.91 2004.38,674.36 2015,681.89 C2029.44,692.13 2035.13,692.04 2048,704.19 C2211.05,858.14 2282.22,892.92 2354,1105.38 C2367.51,1145.38 2377.01,1164.97 2354,1200.38 C2349.23,1207.72 2343.68,1204.18 2336,1208.38 C2277.04,1240.56 2217.8153,1280.6908 2177.0353,1309.5908 " fill="none" id="Builder-to-Fee_L1" style="stroke:#181818;stroke-width:1.0;"/><polygon fill="#181818" points="2172.14,1313.06,2181.7958,1311.1197,2176.2195,1310.169,2177.1702,1304.5926,2172.14,1313.06" style="stroke:#181818;stroke-width:1.0;"/><text fill="#000000" font-family="sans-serif" font-size="13" lengthAdjust="spacing" textLength="47" x="2302" y="961.8469">deposit</text><text fill="#000000" font-family="sans-serif" font-size="13" lengthAdjust="spacing" textLength="20" x="2315.5" y="976.9797">fee</text></g><!--reverse link Validated to Fee_L1--><g id="link_Validated_Fee_L1"><path d="M1716.954,661.615 C1729.994,670.525 1741.07,676.53 1757,681.89 C1808.4,699.18 1961.71,665.79 2000,704.19 C2156.31,860.98 1913.5,1021.53 2044,1200.38 C2049.4,1207.78 2056.33,1202.1 2063,1208.38 C2093.55,1237.11 2112.08,1282.78 2121.69,1312.99 " fill="none" id="Validated-backto-Fee_L1" style="stroke:#181818;stroke-width:1.0;"/><polygon fill="#181818" points="1712,658.23,1717.1743,666.6101,1716.1283,661.0508,1721.6876,660.0048,1712,658.23" style="stroke:#181818;stroke-width:1.0;"/><text fill="#000000" font-family="sans-serif" font-size="13" lengthAdjust="spacing" textLength="20" x="2047" y="961.8469">fee</text><text fill="#000000" font-family="sans-serif" font-size="13" lengthAdjust="spacing" textLength="54" x="2030" y="976.9797">deposits</text></g><!--SRC=[XLPjQniv4Fw-lsBOBqtWx9BSomTJ2esJ8xtadCHkUb0CHTaTso9hQK_I9cTA_lkDDD9wRQzf0aOUpTipCy_8jIYUnH8XlxArGMirpF3V1bM11YReNhLvpa7OT8OV6T1VeTUrLgWSv7TkXMQkMgkvckWIBHlvKp2eOvZnvIIws7LpOVGpcfwBluMnAr6rDwLmuabOX1lSN5u4yLkMlVD-RyL6DovZLp3uo2eZi4uupC8NBuqUappa21y6T4DEHXHQMLIsiNErfdfGqZRBTYBdzzgwfOaOOn89ODuf7taEAYJg1Pr_klzCJhPNmP4s3iR25QkcFhou_lBb_b0w8oIDxP4tJslf3kKF3PhDeJY_riwkj9khgnVAZoemSmR5Ee1WqOvH1mbPpe9bSEt7mRp8Wk4_p5ghjxugnD6IQfd_EEB_LZxLv_MnuBxvuqhIEUz4Qe-fDRvA6FeH3iTYvNmzaqk5XliNZiVKlufAqcnW6Uo2GIlQ0_wMzPUDHt6kQgDVQ71iftZNi_iW_8cbmKfiTWodNh9lTT78geoeuZceXAw1vm0rYqh7f1WqjMS5p-88yhMqbheqLvQHqd-NFjoaVWPrU_GpiZtCGYP4B2uy34hzgaWI82NUUb8DZ5ok7Dr4BEIm4d8DJvKkdhEW7bob8YRRZ8SPkfO1ZZD2ML4uINdbMRo3GOKB7uL2ZgBlhEKxRHrIERVm7gQwgfgQry8jIGvs9Il096eSNGfmWiFb4FwQtKq6q_lnQTJ_JkSUYwl_i6YSDb79V-tHuWf4dSvCxQusdltBYnGnV8-p-xO5VUMNFZPhOFHdh7uM0TK7RyfOAofjuRWs9FxUAk-Xl_KTZPCoLycE_O_9gi_cJyGzLP8atRVTb68BEWdrff4wjP_2-TOjqOHKfTl08_4kynymUFICuKx1Q7UUVecy0NeVZFIlX-UFqYHnkWQzW4ggv-niI2-Ksj0aop2ZThl3kzx81b0Kgt11esJbkgcSKAWRMstWPA7ZogY4yJbgLVaF1CaxdFRygpeb12Nu5B8i9ktfmi_6NlxqhWlYA1KIFvUmdUHU4EV3G01AubMOyY1nczx8OIU1k8EQM44_nfJ2HQ3RGO1VXvtVARGsowQWDHIuIRGU18ZQ47cn90DBTIJBRXh3M3WB1WkKBvYC1IM4WL5uM7G213Jwqe091UZcdvPCkwx2l1A4zctSRdczO4XXVxMWVji1fMteVb58LJW_czIJDOq4PwKvNt-ufP59KmgKW5pGT0572NLOf8BJyeQJXqOROkuOZIFDWb8wPPShLBGVDJ7MdwF_RTpXxh0ai1-P58IJIz87yqaxfzSjpj-7QLK6b25wKuS7Coxe2D4Z-tOpOCSyjrICgYdf6MU0Eqc5UgU4UYF_aIBxbuSN0FLVb51mDNm2iGEfTFjbe24mvB4TuRZZsTiGllhwRnW6puxqeyFPCWIn59AAH4MMjlK39zzkfgSqi_0gY7k9lWiZcfADZzdTJHzFksLuvzV16PJeXAniulK7JwnserEtfXusLpknhULUqlc7LWTkbMBB-rtnIx5zCyaJR-4HfK9jbaI01MB6mXYh_Q4qWeLVub7JPly3]--></g></svg>