<?xml version="1.0" encoding="us-ascii" standalone="no"?><svg xmlns="http://www.w3.org/2000/svg" xmlns:xlink="http://www.w3.org/1999/xlink" contentStyleType="text/css" height="1342px" preserveAspectRatio="none" style="width:2796px;height:1342px;background:#FFFFFF;" version="1.1" viewBox="0 0 2796 1342" width="2796px" zoomAndPan="magnify"><defs/><g><!--cluster Network--><g id="cluster_Network"><path d="M180.27,673.18 L417.27,673.18 A3.75,3.75 0 0 1 419.77,675.68 L426.77,695.4769 L690.27,695.4769 A2.5,2.5 0 0 1 692.77,697.9769 L692.77,1036.93 A2.5,2.5 0 0 1 690.27,1039.43 L180.27,1039.43 A2.5,2.5 0 0 1 177.77,1036.93 L177.77,675.68 A2.5,2.5 0 0 1 180.27,673.18 " fill="none" style="stroke:#000000;stroke-width:1.5;"/><line style="stroke:#000000;stroke-width:1.5;" x1="177.77" x2="426.77" y1="695.4769" y2="695.4769"/><text fill="#000000" font-family="sans-serif" font-size="14" font-weight="bold" lengthAdjust="spacing" textLength="236" x="181.77" y="688.1751">Espresso Sequencer Network</text></g><!--cluster CDN--><g id="cluster_CDN"><path d="M212.27,724.18 L246.27,724.18 A3.75,3.75 0 0 1 248.77,726.68 L255.77,746.4769 L658.27,746.4769 A2.5,2.5 0 0 1 660.77,748.9769 L660.77,853.98 A2.5,2.5 0 0 1 658.27,856.48 L212.27,856.48 A2.5,2.5 0 0 1 209.77,853.98 L209.77,726.68 A2.5,2.5 0 0 1 212.27,724.18 " fill="none" style="stroke:#000000;stroke-width:1.5;"/><line style="stroke:#000000;stroke-width:1.5;" x1="209.77" x2="255.77" y1="746.4769" y2="746.4769"/><text fill="#000000" font-family="sans-serif" font-size="14" font-weight="bold" lengthAdjust="spacing" textLength="33" x="213.77" y="739.1751">CDN</text></g><!--cluster Espresso--><g id="cluster_Espresso"><path d="M719.27,376.59 L884.27,376.59 A3.75,3.75 0 0 1 886.77,379.09 L893.77,398.8869 L2453.27,398.8869 A2.5,2.5 0 0 1 2455.77,401.3869 L2455.77,1036.93 A2.5,2.5 0 0 1 2453.27,1039.43 L719.27,1039.43 A2.5,2.5 0 0 1 716.77,1036.93 L716.77,379.09 A2.5,2.5 0 0 1 719.27,376.59 " fill="none" style="stroke:#000000;stroke-width:1.5;"/><line style="stroke:#000000;stroke-width:1.5;" x1="716.77" x2="893.77" y1="398.8869" y2="398.8869"/><text fill="#000000" font-family="sans-serif" font-size="14" font-weight="bold" lengthAdjust="spacing" textLength="164" x="720.77" y="391.5851">Espresso Sequencer</text></g><!--cluster Seq--><g id="cluster_Seq"><path d="M751.27,427.59 L884.27,427.59 A3.75,3.75 0 0 1 886.77,430.09 L893.77,449.8869 L2160.27,449.8869 A2.5,2.5 0 0 1 2162.77,452.3869 L2162.77,872.33 A2.5,2.5 0 0 1 2160.27,874.83 L751.27,874.83 A2.5,2.5 0 0 1 748.77,872.33 L748.77,430.09 A2.5,2.5 0 0 1 751.27,427.59 " fill="none" style="stroke:#000000;stroke-width:1.5;"/><line style="stroke:#000000;stroke-width:1.5;" x1="748.77" x2="893.77" y1="449.8869" y2="449.8869"/><text fill="#000000" font-family="sans-serif" font-size="14" font-weight="bold" lengthAdjust="spacing" textLength="132" x="752.77" y="442.5851">Sequencer Node</text></g><!--cluster APIs--><g id="cluster_APIs"><rect fill="none" height="287.09" rx="2.5" ry="2.5" style="stroke:#181818;stroke-width:1.0;" width="543.5" x="1089.27" y="555.74"/><rect fill="none" height="10" style="stroke:#181818;stroke-width:1.0;" width="15" x="1612.77" y="560.74"/><rect fill="none" height="2" style="stroke:#181818;stroke-width:1.0;" width="4" x="1610.77" y="562.74"/><rect fill="none" height="2" style="stroke:#181818;stroke-width:1.0;" width="4" x="1610.77" y="566.74"/><text fill="#000000" font-family="sans-serif" font-size="14" font-weight="bold" lengthAdjust="spacing" textLength="34" x="1344.02" y="581.7351">APIs</text></g><!--cluster Networking--><g id="cluster_Networking"><rect fill="none" height="116.3" rx="2.5" ry="2.5" style="stroke:#181818;stroke-width:1.0;" width="267" x="780.77" y="478.59"/><rect fill="none" height="10" style="stroke:#181818;stroke-width:1.0;" width="15" x="1027.77" y="483.59"/><rect fill="none" height="2" style="stroke:#181818;stroke-width:1.0;" width="4" x="1025.77" y="485.59"/><rect fill="none" height="2" style="stroke:#181818;stroke-width:1.0;" width="4" x="1025.77" y="489.59"/><text fill="#000000" font-family="sans-serif" font-size="14" font-weight="bold" lengthAdjust="spacing" textLength="91" x="868.77" y="504.5851">Networking</text></g><!--cluster State--><g id="cluster_State"><path d="M1794.27,478.59 L1836.27,478.59 A3.75,3.75 0 0 1 1838.77,481.09 L1845.77,500.8869 L2120.27,500.8869 A2.5,2.5 0 0 1 2122.77,503.3869 L2122.77,592.39 A2.5,2.5 0 0 1 2120.27,594.89 L1794.27,594.89 A2.5,2.5 0 0 1 1791.77,592.39 L1791.77,481.09 A2.5,2.5 0 0 1 1794.27,478.59 " fill="none" style="stroke:#000000;stroke-width:1.5;"/><line style="stroke:#000000;stroke-width:1.5;" x1="1791.77" x2="1845.77" y1="500.8869" y2="500.8869"/><text fill="#000000" font-family="sans-serif" font-size="14" font-weight="bold" lengthAdjust="spacing" textLength="41" x="1795.77" y="493.5851">State</text></g><!--cluster L2--><g id="cluster_L2"><path d="M1853.27,6 L1922.27,6 A3.75,3.75 0 0 1 1924.77,8.5 L1931.77,28.2969 L2356.27,28.2969 A2.5,2.5 0 0 1 2358.77,30.7969 L2358.77,310.09 A2.5,2.5 0 0 1 2356.27,312.59 L1853.27,312.59 A2.5,2.5 0 0 1 1850.77,310.09 L1850.77,8.5 A2.5,2.5 0 0 1 1853.27,6 " fill="none" style="stroke:#000000;stroke-width:1.5;"/><line style="stroke:#000000;stroke-width:1.5;" x1="1850.77" x2="1931.77" y1="28.2969" y2="28.2969"/><text fill="#000000" font-family="sans-serif" font-size="14" font-weight="bold" lengthAdjust="spacing" textLength="68" x="1854.77" y="20.9951">Layer 2s</text></g><!--cluster L2_1--><g id="cluster_L2_1"><rect fill="none" height="239.59" rx="2.5" ry="2.5" style="stroke:#181818;stroke-width:1.0;" width="460" x="1874.77" y="49"/><rect fill="none" height="10" style="stroke:#181818;stroke-width:1.0;" width="15" x="2314.77" y="54"/><rect fill="none" height="2" style="stroke:#181818;stroke-width:1.0;" width="4" x="2312.77" y="56"/><rect fill="none" height="2" style="stroke:#181818;stroke-width:1.0;" width="4" x="2312.77" y="60"/><text fill="#000000" font-family="sans-serif" font-size="14" font-weight="bold" lengthAdjust="spacing" textLength="63" x="2073.27" y="74.9951">Rollup 1</text></g><!--cluster L1--><g id="cluster_L1"><path d="M2255.27,1103.43 L2396.27,1103.43 A3.75,3.75 0 0 1 2398.77,1105.93 L2405.77,1125.7269 L2787.27,1125.7269 A2.5,2.5 0 0 1 2789.77,1128.2269 L2789.77,1332.52 A2.5,2.5 0 0 1 2787.27,1335.02 L2255.27,1335.02 A2.5,2.5 0 0 1 2252.77,1332.52 L2252.77,1105.93 A2.5,2.5 0 0 1 2255.27,1103.43 " fill="none" style="stroke:#000000;stroke-width:1.5;"/><line style="stroke:#000000;stroke-width:1.5;" x1="2252.77" x2="2405.77" y1="1125.7269" y2="1125.7269"/><text fill="#000000" font-family="sans-serif" font-size="14" font-weight="bold" lengthAdjust="spacing" textLength="140" x="2256.77" y="1118.4251">Ethereum Layer 1</text></g><!--cluster Esp_L1--><g id="cluster_Esp_L1"><path d="M2279.27,1162.43 L2435.27,1162.43 A3.75,3.75 0 0 1 2437.77,1164.93 L2444.77,1184.7269 L2556.27,1184.7269 A2.5,2.5 0 0 1 2558.77,1187.2269 L2558.77,1292.52 A2.5,2.5 0 0 1 2556.27,1295.02 L2279.27,1295.02 A2.5,2.5 0 0 1 2276.77,1292.52 L2276.77,1164.93 A2.5,2.5 0 0 1 2279.27,1162.43 " fill="none" style="stroke:#000000;stroke-width:1.5;"/><line style="stroke:#000000;stroke-width:1.5;" x1="2276.77" x2="2444.77" y1="1184.7269" y2="1184.7269"/><text fill="#000000" font-family="sans-serif" font-size="14" font-weight="bold" lengthAdjust="spacing" textLength="155" x="2280.77" y="1177.4251">Espresso Contracts</text></g><!--cluster L2_L1--><g id="cluster_L2_L1"><path d="M2593.27,1154.43 L2724.27,1154.43 A3.75,3.75 0 0 1 2726.77,1156.93 L2733.77,1176.7269 L2755.27,1176.7269 A2.5,2.5 0 0 1 2757.77,1179.2269 L2757.77,1300.52 A2.5,2.5 0 0 1 2755.27,1303.02 L2593.27,1303.02 A2.5,2.5 0 0 1 2590.77,1300.52 L2590.77,1156.93 A2.5,2.5 0 0 1 2593.27,1154.43 " fill="none" style="stroke:#000000;stroke-width:1.5;"/><line style="stroke:#000000;stroke-width:1.5;" x1="2590.77" x2="2733.77" y1="1176.7269" y2="1176.7269"/><text fill="#000000" font-family="sans-serif" font-size="14" font-weight="bold" lengthAdjust="spacing" textLength="130" x="2594.77" y="1169.4251">Rollup Contracts</text></g><!--entity Nodes--><g id="elem_Nodes"><rect fill="#F1F1F1" height="62.5938" rx="2.5" ry="2.5" style="stroke:#181818;stroke-width:0.5;" width="116" x="193.77" y="960.83"/><rect fill="#F1F1F1" height="10" style="stroke:#181818;stroke-width:0.5;" width="15" x="289.77" y="965.83"/><rect fill="#F1F1F1" height="2" style="stroke:#181818;stroke-width:0.5;" width="4" x="287.77" y="967.83"/><rect fill="#F1F1F1" height="2" style="stroke:#181818;stroke-width:0.5;" width="4" x="287.77" y="971.83"/><text fill="#000000" font-family="sans-serif" font-size="14" lengthAdjust="spacing" textLength="76" x="208.77" y="993.8251">Sequencer</text><text fill="#000000" font-family="sans-serif" font-size="14" lengthAdjust="spacing" textLength="45" x="208.77" y="1010.122">Nodes</text></g><!--entity Broker--><g id="elem_Broker"><rect fill="#F1F1F1" height="46.2969" rx="2.5" ry="2.5" style="stroke:#181818;stroke-width:0.5;" width="86" x="233.77" y="786.18"/><rect fill="#F1F1F1" height="10" style="stroke:#181818;stroke-width:0.5;" width="15" x="299.77" y="791.18"/><rect fill="#F1F1F1" height="2" style="stroke:#181818;stroke-width:0.5;" width="4" x="297.77" y="793.18"/><rect fill="#F1F1F1" height="2" style="stroke:#181818;stroke-width:0.5;" width="4" x="297.77" y="797.18"/><text fill="#000000" font-family="sans-serif" font-size="14" lengthAdjust="spacing" textLength="46" x="248.77" y="819.1751">Broker</text></g><!--entity Marshal--><g id="elem_Marshal"><rect fill="#F1F1F1" height="46.2969" rx="2.5" ry="2.5" style="stroke:#181818;stroke-width:0.5;" width="93" x="524.27" y="786.18"/><rect fill="#F1F1F1" height="10" style="stroke:#181818;stroke-width:0.5;" width="15" x="597.27" y="791.18"/><rect fill="#F1F1F1" height="2" style="stroke:#181818;stroke-width:0.5;" width="4" x="595.27" y="793.18"/><rect fill="#F1F1F1" height="2" style="stroke:#181818;stroke-width:0.5;" width="4" x="595.27" y="797.18"/><text fill="#000000" font-family="sans-serif" font-size="14" lengthAdjust="spacing" textLength="53" x="539.27" y="819.1751">Marshal</text></g><!--entity KeyDB--><g id="elem_KeyDB"><path d="M388.77,796.68 C388.77,786.68 421.77,786.68 421.77,786.68 C421.77,786.68 454.77,786.68 454.77,796.68 L454.77,821.9769 C454.77,831.9769 421.77,831.9769 421.77,831.9769 C421.77,831.9769 388.77,831.9769 388.77,821.9769 L388.77,796.68 " fill="#F1F1F1" style="stroke:#181818;stroke-width:0.5;"/><path d="M388.77,796.68 C388.77,806.68 421.77,806.68 421.77,806.68 C421.77,806.68 454.77,806.68 454.77,796.68 " fill="none" style="stroke:#181818;stroke-width:0.5;"/><text fill="#000000" font-family="sans-serif" font-size="14" lengthAdjust="spacing" textLength="46" x="398.77" y="823.6751">KeyDB</text></g><!--entity DB--><g id="elem_DB"><path d="M2186.77,796.68 C2186.77,786.68 2227.77,786.68 2227.77,786.68 C2227.77,786.68 2268.77,786.68 2268.77,796.68 L2268.77,821.9769 C2268.77,831.9769 2227.77,831.9769 2227.77,831.9769 C2227.77,831.9769 2186.77,831.9769 2186.77,821.9769 L2186.77,796.68 " fill="#F1F1F1" style="stroke:#181818;stroke-width:0.5;"/><path d="M2186.77,796.68 C2186.77,806.68 2227.77,806.68 2227.77,806.68 C2227.77,806.68 2268.77,806.68 2268.77,796.68 " fill="none" style="stroke:#181818;stroke-width:0.5;"/><text fill="#000000" font-family="sans-serif" font-size="14" lengthAdjust="spacing" textLength="62" x="2196.77" y="823.6751">Postgres</text></g><!--entity HSProver--><g id="elem_HSProver"><rect fill="#F1F1F1" height="62.5938" rx="2.5" ry="2.5" style="stroke:#181818;stroke-width:0.5;" width="137" x="2292.27" y="960.83"/><rect fill="#F1F1F1" height="10" style="stroke:#181818;stroke-width:0.5;" width="15" x="2409.27" y="965.83"/><rect fill="#F1F1F1" height="2" style="stroke:#181818;stroke-width:0.5;" width="4" x="2407.27" y="967.83"/><rect fill="#F1F1F1" height="2" style="stroke:#181818;stroke-width:0.5;" width="4" x="2407.27" y="971.83"/><text fill="#000000" font-family="sans-serif" font-size="14" lengthAdjust="spacing" textLength="95" x="2307.27" y="993.8251">HotShot state</text><text fill="#000000" font-family="sans-serif" font-size="14" lengthAdjust="spacing" textLength="97" x="2307.27" y="1010.122">prover service</text></g><!--entity Relay--><g id="elem_Relay"><rect fill="#F1F1F1" height="62.5938" rx="2.5" ry="2.5" style="stroke:#181818;stroke-width:0.5;" width="135" x="2304.27" y="778.04"/><rect fill="#F1F1F1" height="10" style="stroke:#181818;stroke-width:0.5;" width="15" x="2419.27" y="783.04"/><rect fill="#F1F1F1" height="2" style="stroke:#181818;stroke-width:0.5;" width="4" x="2417.27" y="785.04"/><rect fill="#F1F1F1" height="2" style="stroke:#181818;stroke-width:0.5;" width="4" x="2417.27" y="789.04"/><text fill="#000000" font-family="sans-serif" font-size="14" lengthAdjust="spacing" textLength="95" x="2319.27" y="811.0351">HotShot state</text><text fill="#000000" font-family="sans-serif" font-size="14" lengthAdjust="spacing" textLength="85" x="2319.27" y="827.332">relay service</text></g><!--entity Builder--><g id="elem_Builder"><rect fill="#F1F1F1" height="46.2969" rx="2.5" ry="2.5" style="stroke:#181818;stroke-width:0.5;" width="88" x="2262.77" y="532.59"/><rect fill="#F1F1F1" height="10" style="stroke:#181818;stroke-width:0.5;" width="15" x="2330.77" y="537.59"/><rect fill="#F1F1F1" height="2" style="stroke:#181818;stroke-width:0.5;" width="4" x="2328.77" y="539.59"/><rect fill="#F1F1F1" height="2" style="stroke:#181818;stroke-width:0.5;" width="4" x="2328.77" y="543.59"/><text fill="#000000" font-family="sans-serif" font-size="14" lengthAdjust="spacing" textLength="48" x="2277.77" y="565.5851">Builder</text></g><!--entity QS--><g id="elem_QS"><rect fill="#F1F1F1" height="78.8906" rx="2.5" ry="2.5" style="stroke:#181818;stroke-width:0.5;" width="96" x="1676.77" y="516.29"/><rect fill="#F1F1F1" height="10" style="stroke:#181818;stroke-width:0.5;" width="15" x="1752.77" y="521.29"/><rect fill="#F1F1F1" height="2" style="stroke:#181818;stroke-width:0.5;" width="4" x="1750.77" y="523.29"/><rect fill="#F1F1F1" height="2" style="stroke:#181818;stroke-width:0.5;" width="4" x="1750.77" y="527.29"/><text fill="#000000" font-family="sans-serif" font-size="14" lengthAdjust="spacing" textLength="56" x="1691.77" y="549.2851">HotShot</text><text fill="#000000" font-family="sans-serif" font-size="14" lengthAdjust="spacing" textLength="41" x="1691.77" y="565.582">Query</text><text fill="#000000" font-family="sans-serif" font-size="14" lengthAdjust="spacing" textLength="50" x="1691.77" y="581.8789">Service</text></g><text fill="#000000" font-family="sans-serif" font-size="14" lengthAdjust="spacing" textLength="58" x="1078.27" y="534.4382">Catchup</text><rect fill="#F1F1F1" height="12" style="stroke:#181818;stroke-width:1.5;" width="12" x="1101.27" y="549.74"/><text fill="#000000" font-family="sans-serif" font-size="14" lengthAdjust="spacing" textLength="37" x="1191.27" y="534.4382">HTTP</text><rect fill="#F1F1F1" height="12" style="stroke:#181818;stroke-width:1.5;" width="12" x="1203.77" y="549.74"/><text fill="#000000" font-family="sans-serif" font-size="14" lengthAdjust="spacing" textLength="44" x="1290.77" y="534.4382">Status</text><rect fill="#F1F1F1" height="12" style="stroke:#181818;stroke-width:1.5;" width="12" x="1306.77" y="549.74"/><text fill="#000000" font-family="sans-serif" font-size="14" lengthAdjust="spacing" textLength="48" x="1501.77" y="534.4382">Submit</text><rect fill="#F1F1F1" height="12" style="stroke:#181818;stroke-width:1.5;" width="12" x="1519.77" y="549.74"/><text fill="#000000" font-family="sans-serif" font-size="14" lengthAdjust="spacing" textLength="41" x="1381.27" y="534.4382">Query</text><rect fill="#F1F1F1" height="12" style="stroke:#181818;stroke-width:1.5;" width="12" x="1395.77" y="549.74"/><text fill="#000000" font-family="sans-serif" font-size="14" lengthAdjust="spacing" textLength="55" x="1587.27" y="501.8445">Hotshot</text><text fill="#000000" font-family="sans-serif" font-size="14" lengthAdjust="spacing" textLength="47" x="1591.27" y="518.1414">Events</text><text fill="#000000" font-family="sans-serif" font-size="14" lengthAdjust="spacing" textLength="49" x="1590.27" y="534.4382">Stream</text><rect fill="#F1F1F1" height="12" style="stroke:#181818;stroke-width:1.5;" width="12" x="1608.77" y="549.74"/><!--entity Libp2p--><g id="elem_Libp2p"><rect fill="#F1F1F1" height="46.2969" rx="2.5" ry="2.5" style="stroke:#181818;stroke-width:0.5;" width="86" x="796.77" y="532.59"/><rect fill="#F1F1F1" height="10" style="stroke:#181818;stroke-width:0.5;" width="15" x="862.77" y="537.59"/><rect fill="#F1F1F1" height="2" style="stroke:#181818;stroke-width:0.5;" width="4" x="860.77" y="539.59"/><rect fill="#F1F1F1" height="2" style="stroke:#181818;stroke-width:0.5;" width="4" x="860.77" y="543.59"/><text fill="#000000" font-family="sans-serif" font-size="14" lengthAdjust="spacing" textLength="46" x="811.77" y="565.5851">Libp2p</text></g><!--entity CDN Client--><g id="elem_CDN Client"><rect fill="#F1F1F1" height="46.2969" rx="2.5" ry="2.5" style="stroke:#181818;stroke-width:0.5;" width="114" x="917.77" y="532.59"/><rect fill="#F1F1F1" height="10" style="stroke:#181818;stroke-width:0.5;" width="15" x="1011.77" y="537.59"/><rect fill="#F1F1F1" height="2" style="stroke:#181818;stroke-width:0.5;" width="4" x="1009.77" y="539.59"/><rect fill="#F1F1F1" height="2" style="stroke:#181818;stroke-width:0.5;" width="4" x="1009.77" y="543.59"/><text fill="#000000" font-family="sans-serif" font-size="14" lengthAdjust="spacing" textLength="74" x="932.77" y="565.5851">CDN Client</text></g><!--entity Signer--><g id="elem_Signer"><rect fill="#F1F1F1" height="46.2969" rx="2.5" ry="2.5" style="stroke:#181818;stroke-width:0.5;" width="124" x="1807.77" y="532.59"/><rect fill="#F1F1F1" height="10" style="stroke:#181818;stroke-width:0.5;" width="15" x="1911.77" y="537.59"/><rect fill="#F1F1F1" height="2" style="stroke:#181818;stroke-width:0.5;" width="4" x="1909.77" y="539.59"/><rect fill="#F1F1F1" height="2" style="stroke:#181818;stroke-width:0.5;" width="4" x="1909.77" y="543.59"/><text fill="#000000" font-family="sans-serif" font-size="14" lengthAdjust="spacing" textLength="84" x="1822.77" y="565.5851">State Signer</text></g><!--entity Validated--><g id="elem_Validated"><rect fill="#F1F1F1" height="46.2969" rx="2.5" ry="2.5" style="stroke:#181818;stroke-width:0.5;" width="139" x="1967.27" y="532.59"/><rect fill="#F1F1F1" height="10" style="stroke:#181818;stroke-width:0.5;" width="15" x="2086.27" y="537.59"/><rect fill="#F1F1F1" height="2" style="stroke:#181818;stroke-width:0.5;" width="4" x="2084.27" y="539.59"/><rect fill="#F1F1F1" height="2" style="stroke:#181818;stroke-width:0.5;" width="4" x="2084.27" y="543.59"/><text fill="#000000" font-family="sans-serif" font-size="14" lengthAdjust="spacing" textLength="99" x="1982.27" y="565.5851">ValidatedState</text></g><!--entity L2_1_RPC--><g id="elem_L2_1_RPC"><rect fill="#F1F1F1" height="46.2969" rx="2.5" ry="2.5" style="stroke:#181818;stroke-width:0.5;" width="172" x="2027.77" y="226.29"/><rect fill="#F1F1F1" height="10" style="stroke:#181818;stroke-width:0.5;" width="15" x="2179.77" y="231.29"/><rect fill="#F1F1F1" height="2" style="stroke:#181818;stroke-width:0.5;" width="4" x="2177.77" y="233.29"/><rect fill="#F1F1F1" height="2" style="stroke:#181818;stroke-width:0.5;" width="4" x="2177.77" y="237.29"/><text fill="#000000" font-family="sans-serif" font-size="14" lengthAdjust="spacing" textLength="132" x="2042.77" y="259.2851">API (e.g. JSON-RPC)</text></g><!--entity L2_1_Exec--><g id="elem_L2_1_Exec"><rect fill="#F1F1F1" height="46.2969" rx="2.5" ry="2.5" style="stroke:#181818;stroke-width:0.5;" width="101" x="1891.27" y="226.29"/><rect fill="#F1F1F1" height="10" style="stroke:#181818;stroke-width:0.5;" width="15" x="1972.27" y="231.29"/><rect fill="#F1F1F1" height="2" style="stroke:#181818;stroke-width:0.5;" width="4" x="1970.27" y="233.29"/><rect fill="#F1F1F1" height="2" style="stroke:#181818;stroke-width:0.5;" width="4" x="1970.27" y="237.29"/><text fill="#000000" font-family="sans-serif" font-size="14" lengthAdjust="spacing" textLength="61" x="1906.27" y="259.2851">Executor</text></g><!--entity L2_1_Prover--><g id="elem_L2_1_Prover"><rect fill="#F1F1F1" height="46.2969" rx="2.5" ry="2.5" style="stroke:#181818;stroke-width:0.5;" width="84" x="2234.77" y="226.29"/><rect fill="#F1F1F1" height="10" style="stroke:#181818;stroke-width:0.5;" width="15" x="2298.77" y="231.29"/><rect fill="#F1F1F1" height="2" style="stroke:#181818;stroke-width:0.5;" width="4" x="2296.77" y="233.29"/><rect fill="#F1F1F1" height="2" style="stroke:#181818;stroke-width:0.5;" width="4" x="2296.77" y="237.29"/><text fill="#000000" font-family="sans-serif" font-size="14" lengthAdjust="spacing" textLength="44" x="2249.77" y="259.2851">Prover</text></g><!--entity L2_1_State--><g id="elem_L2_1_State"><rect fill="#F1F1F1" height="46.2969" rx="2.5" ry="2.5" style="stroke:#181818;stroke-width:0.5;" width="101" x="2063.27" y="103"/><rect fill="#F1F1F1" height="10" style="stroke:#181818;stroke-width:0.5;" width="15" x="2144.27" y="108"/><rect fill="#F1F1F1" height="2" style="stroke:#181818;stroke-width:0.5;" width="4" x="2142.27" y="110"/><rect fill="#F1F1F1" height="2" style="stroke:#181818;stroke-width:0.5;" width="4" x="2142.27" y="114"/><text fill="#000000" font-family="sans-serif" font-size="14" lengthAdjust="spacing" textLength="61" x="2078.27" y="135.9951">State DB</text></g><!--entity LC_L1--><g id="elem_LC_L1"><rect fill="#F1F1F1" height="62.5938" rx="2.5" ry="2.5" style="stroke:#181818;stroke-width:0.5;" width="116" x="2292.77" y="1216.43"/><rect fill="#F1F1F1" height="10" style="stroke:#181818;stroke-width:0.5;" width="15" x="2388.77" y="1221.43"/><rect fill="#F1F1F1" height="2" style="stroke:#181818;stroke-width:0.5;" width="4" x="2386.77" y="1223.43"/><rect fill="#F1F1F1" height="2" style="stroke:#181818;stroke-width:0.5;" width="4" x="2386.77" y="1227.43"/><text fill="#000000" font-family="sans-serif" font-size="14" lengthAdjust="spacing" textLength="76" x="2307.77" y="1249.4251">Light Client</text><text fill="#000000" font-family="sans-serif" font-size="14" lengthAdjust="spacing" textLength="59" x="2307.77" y="1265.722">Contract</text></g><!--entity Fee_L1--><g id="elem_Fee_L1"><rect fill="#F1F1F1" height="62.5938" rx="2.5" ry="2.5" style="stroke:#181818;stroke-width:0.5;" width="99" x="2443.27" y="1216.43"/><rect fill="#F1F1F1" height="10" style="stroke:#181818;stroke-width:0.5;" width="15" x="2522.27" y="1221.43"/><rect fill="#F1F1F1" height="2" style="stroke:#181818;stroke-width:0.5;" width="4" x="2520.27" y="1223.43"/><rect fill="#F1F1F1" height="2" style="stroke:#181818;stroke-width:0.5;" width="4" x="2520.27" y="1227.43"/><text fill="#000000" font-family="sans-serif" font-size="14" lengthAdjust="spacing" textLength="26" x="2458.27" y="1249.4251">Fee</text><text fill="#000000" font-family="sans-serif" font-size="14" lengthAdjust="spacing" textLength="59" x="2458.27" y="1265.722">Contract</text></g><!--entity L2_1_L1--><g id="elem_L2_1_L1"><rect fill="#F1F1F1" height="62.5938" rx="2.5" ry="2.5" style="stroke:#181818;stroke-width:0.5;" width="99" x="2634.27" y="1216.43"/><rect fill="#F1F1F1" height="10" style="stroke:#181818;stroke-width:0.5;" width="15" x="2713.27" y="1221.43"/><rect fill="#F1F1F1" height="2" style="stroke:#181818;stroke-width:0.5;" width="4" x="2711.27" y="1223.43"/><rect fill="#F1F1F1" height="2" style="stroke:#181818;stroke-width:0.5;" width="4" x="2711.27" y="1227.43"/><text fill="#000000" font-family="sans-serif" font-size="14" lengthAdjust="spacing" textLength="56" x="2649.27" y="1249.4251">Rollup 1</text><text fill="#000000" font-family="sans-serif" font-size="14" lengthAdjust="spacing" textLength="59" x="2649.27" y="1265.722">Contract</text></g><!--entity User--><g id="elem_User"><ellipse cx="2487.77" cy="547.59" fill="#F1F1F1" rx="12" ry="12" style="stroke:#181818;stroke-width:0.5;"/><line style="stroke:#181818;stroke-width:0.5;" x1="2475.77" x2="2499.77" y1="561.59" y2="561.59"/><text fill="#000000" font-family="sans-serif" font-size="14" lengthAdjust="spacing" textLength="32" x="2471.77" y="576.5851">User</text></g><!--link Broker to KeyDB--><g id="link_Broker_KeyDB"><path d="M319.88,809.33 C341.92,809.33 362.32,809.33 382.73,809.33 " fill="none" id="Broker-to-KeyDB" style="stroke:#181818;stroke-width:1.0;"/><polygon fill="#181818" points="388.73,809.33,379.73,805.33,383.73,809.33,379.73,813.33,388.73,809.33" style="stroke:#181818;stroke-width:1.0;"/><text fill="#000000" font-family="sans-serif" font-size="13" lengthAdjust="spacing" textLength="33" x="337.77" y="802.3969">state</text></g><!--link KeyDB to Marshal--><g id="link_KeyDB_Marshal"><path d="M455.21,809.33 C475.46,809.33 495.59,809.33 517.89,809.33 " fill="none" id="KeyDB-to-Marshal" style="stroke:#181818;stroke-width:1.0;"/><polygon fill="#181818" points="523.89,809.33,514.89,805.33,518.89,809.33,514.89,813.33,523.89,809.33" style="stroke:#181818;stroke-width:1.0;"/><text fill="#000000" font-family="sans-serif" font-size="13" lengthAdjust="spacing" textLength="33" x="473.02" y="802.3969">state</text></g><!--link CDN to Nodes--><g id="link_CDN_Nodes"><path d="M649.1787,862.5352 C648.9226,863.6183 649.5688,860.4662 649.2762,861.546 C648.6909,863.7056 648.0304,865.8541 647.2859,867.9733 C644.3081,876.45 639.9875,884.4575 633.77,890.83 C588.95,936.79 411.2557,968.3039 315.8657,982.3839 " fill="none" id="CDN-Nodes" style="stroke:#181818;stroke-width:1.0;"/><polygon fill="#181818" points="650.4696,856.6758,644.6269,864.6043,649.3938,861.5587,652.4395,866.3256,650.4696,856.6758" style="stroke:#181818;stroke-width:1.0;"/><polygon fill="#181818" points="309.93,983.26,319.4176,985.9029,314.8764,982.5299,318.2494,977.9887,309.93,983.26" style="stroke:#181818;stroke-width:1.0;"/><text fill="#000000" font-family="sans-serif" font-size="13" lengthAdjust="spacing" textLength="68" x="620.77" y="911.8969">consensus</text><text fill="#000000" font-family="sans-serif" font-size="13" lengthAdjust="spacing" textLength="66" x="621.77" y="927.0297">messages</text></g><!--reverse link Catchup to Nodes--><g id="link_Catchup_Nodes"><path d="M1099.3083,566.0377 C1090.1383,575.9177 1071.83,593.69 1047.77,602.89 C875.01,668.96 343.57,529.59 217.77,665.18 C141.35,747.56 203.08,896.83 235.29,960.75 " fill="none" id="Catchup-backto-Nodes" style="stroke:#181818;stroke-width:1.0;"/><polygon fill="#181818" points="1103.39,561.64,1094.3357,565.5154,1099.9886,565.3048,1100.1993,570.9577,1103.39,561.64" style="stroke:#181818;stroke-width:1.0;"/></g><!--link Libp2p to Nodes--><g id="link_Libp2p_Nodes"><path d="M790.424,560.0003 C635.194,570.6403 119.82,609.88 71.77,665.18 C6,740.89 21.44,804.09 71.77,890.83 C97.63,935.39 145.6722,959.6102 187.7322,973.9802 " fill="none" id="Libp2p-Nodes" style="stroke:#181818;stroke-width:1.0;"/><polygon fill="#181818" points="796.41,559.59,787.1575,556.2148,791.4217,559.9319,787.7046,564.1961,796.41,559.59" style="stroke:#181818;stroke-width:1.0;"/><polygon fill="#181818" points="193.41,975.92,186.1866,969.2251,188.6785,974.3035,183.6001,976.7954,193.41,975.92" style="stroke:#181818;stroke-width:1.0;"/><text fill="#000000" font-family="sans-serif" font-size="13" lengthAdjust="spacing" textLength="68" x="72.77" y="806.3969">consensus</text><text fill="#000000" font-family="sans-serif" font-size="13" lengthAdjust="spacing" textLength="66" x="73.77" y="821.5297">messages</text></g><!--link CDN Client to CDN--><g id="link_CDN Client_CDN"><path d="M941.1821,582.9842 C902.2821,613.3792 835.39,665.645 772.6825,714.6413 C741.3287,739.1394 712.2031,761.8966 690.5097,778.8467 C679.663,787.3218 670.6743,794.3451 664.1942,799.4084 C663.3842,800.0413 662.6133,800.6436 661.883,801.2143 C661.5178,801.4996 665.8906,798.0829 665.5459,798.3523 " fill="none" id="CDN Client-CDN" style="stroke:#181818;stroke-width:1.0;"/><polygon fill="#181818" points="945.91,579.29,936.3554,581.6794,941.9701,582.3685,941.281,587.9832,945.91,579.29" style="stroke:#181818;stroke-width:1.0;"/><polygon fill="#181818" points="660.818,802.0465,670.3726,799.6571,664.7579,798.968,665.447,793.3532,660.818,802.0465" style="stroke:#181818;stroke-width:1.0;"/><text fill="#000000" font-family="sans-serif" font-size="13" lengthAdjust="spacing" textLength="68" x="879.77" y="638.2469">consensus</text><text fill="#000000" font-family="sans-serif" font-size="13" lengthAdjust="spacing" textLength="66" x="880.77" y="653.3797">messages</text></g><!--link QS to DB--><g id="link_QS_DB"><path d="M1773.21,591.46 C1779.36,595.46 1785.65,599.37 1791.77,602.89 C1931.42,683.17 2102.0362,756.5851 2180.8362,789.2051 " fill="none" id="QS-to-DB" style="stroke:#181818;stroke-width:1.0;"/><polygon fill="#181818" points="2186.38,791.5,2179.5943,784.3618,2181.7602,789.5876,2176.5344,791.7535,2186.38,791.5" style="stroke:#181818;stroke-width:1.0;"/></g><!--link QS to APIs--><!--link Signer to Relay--><g id="link_Signer_Relay"><path d="M1902.73,579.3 C1916.69,587.9 1933.48,597.03 1949.77,602.89 C2093.1,654.44 2162.26,577.45 2286.77,665.18 C2325.88,692.74 2347.8767,738.8559 2360.0167,772.0059 " fill="none" id="Signer-to-Relay" style="stroke:#181818;stroke-width:1.0;"/><polygon fill="#181818" points="2362.08,777.64,2362.7411,767.8134,2360.3606,772.9449,2355.229,770.5644,2362.08,777.64" style="stroke:#181818;stroke-width:1.0;"/><text fill="#000000" font-family="sans-serif" font-size="13" lengthAdjust="spacing" textLength="33" x="2272.77" y="645.7469">state</text></g><!--link Seq to Builder--><g id="link_Seq_Builder"><path d="M2162.9401,555.74 C2163.0268,555.74 2163.1141,555.74 2163.202,555.74 C2163.5537,555.74 2163.9151,555.74 2164.2858,555.74 C2165.769,555.74 2167.4029,555.74 2169.1711,555.74 C2176.2441,555.74 2185.4669,555.74 2195.7913,555.74 C2216.44,555.74 2235.495,555.74 2256.57,555.74 " fill="none" id="Seq-to-Builder" style="stroke:#181818;stroke-width:1.0;"/><polygon fill="#181818" points="2262.57,555.74,2253.57,551.74,2257.57,555.74,2253.57,559.74,2262.57,555.74" style="stroke:#181818;stroke-width:1.0;"/><text fill="#000000" font-family="sans-serif" font-size="13" lengthAdjust="spacing" textLength="71" x="2173.45" y="548.8069">claim block</text></g><!--reverse link Seq to Builder--><g id="link_Seq_Builder"><path d="M2167.7743,565.0534 C2167.8601,565.1118 2163.1189,561.8754 2163.2058,561.9343 C2163.3795,562.052 2163.5553,562.1707 2163.7332,562.2901 C2165.1563,563.2455 2166.7113,564.2528 2168.37,565.2738 C2175.005,569.3575 2183.3,573.66 2191.45,575.74 C2214.59,581.64 2240.78,577.91 2262.35,572.15 " fill="none" id="Seq-backto-Builder" style="stroke:#181818;stroke-width:1.0;"/><polygon fill="#181818" points="2162.8186,561.6709,2167.9972,570.0484,2166.9483,564.4896,2172.5071,563.4408,2162.8186,561.6709" style="stroke:#181818;stroke-width:1.0;"/><text fill="#000000" font-family="sans-serif" font-size="13" lengthAdjust="spacing" textLength="33" x="2192.45" y="571.8069">block</text></g><!--link Relay to HSProver--><g id="link_Relay_HSProver"><path d="M2369.91,841 C2367.88,874.35 2365.0134,921.331 2362.9934,954.621 " fill="none" id="Relay-to-HSProver" style="stroke:#181818;stroke-width:1.0;"/><polygon fill="#181818" points="2362.63,960.61,2367.1678,951.8688,2362.9328,955.6192,2359.1825,951.3843,2362.63,960.61" style="stroke:#181818;stroke-width:1.0;"/><text fill="#000000" font-family="sans-serif" font-size="13" lengthAdjust="spacing" textLength="33" x="2366.77" y="919.3969">state</text></g><!--link Events to Builder--><g id="link_Events_Builder"><path d="M1613.63,549.78 C1609.4,525.66 1597.23,434.7 1645.77,394.62 C1735.72,320.32 2064.97,345.46 2170.77,394.62 C2232.36,423.22 2273.3321,489.6466 2292.7521,526.9966 " fill="none" id="Events-to-Builder" style="stroke:#181818;stroke-width:1.0;"/><polygon fill="#181818" points="2295.52,532.32,2294.9171,522.4896,2293.2134,527.8838,2287.8192,526.1801,2295.52,532.32" style="stroke:#181818;stroke-width:1.0;"/><text fill="#000000" font-family="sans-serif" font-size="13" lengthAdjust="spacing" textLength="79" x="1912.27" y="349.1569">transactions</text></g><!--reverse link L2_1_RPC to User--><g id="link_L2_1_RPC_User"><path d="M2145.1387,276.7486 C2164.9687,292.4086 2188.65,308.77 2216.77,320.59 C2316.65,362.59 2380.24,290.92 2455.77,368.59 C2498.64,412.67 2495.88,492.04 2491.33,531.36 " fill="none" id="L2_1_RPC-backto-User" style="stroke:#181818;stroke-width:1.0;"/><polygon fill="#181818" points="2140.43,273.03,2145.0141,281.747,2144.354,276.1288,2149.9722,275.4687,2140.43,273.03" style="stroke:#181818;stroke-width:1.0;"/><text fill="#000000" font-family="sans-serif" font-size="13" lengthAdjust="spacing" textLength="81" x="2449.27" y="341.6569">Transactions</text><text fill="#000000" font-family="sans-serif" font-size="13" lengthAdjust="spacing" textLength="86" x="2446.77" y="356.7897">State queries</text></g><!--link L2_1_RPC to Submit--><g id="link_L2_1_RPC_Submit"><path d="M2088.99,272.99 C2069.14,289.51 2039.76,310.7 2009.77,320.59 C1971.33,333.27 1868.06,324.58 1827.77,328.59 C1820.58,329.31 1576.09,363.7 1570.77,368.59 C1515.49,419.48 1522.1327,519.6208 1524.5927,543.8008 " fill="none" id="L2_1_RPC-to-Submit" style="stroke:#181818;stroke-width:1.0;"/><polygon fill="#181818" points="1525.2,549.77,1528.2685,540.4114,1524.6939,544.7957,1520.3096,541.2211,1525.2,549.77" style="stroke:#181818;stroke-width:1.0;"/><text fill="#000000" font-family="sans-serif" font-size="13" lengthAdjust="spacing" textLength="74" x="1828.77" y="341.6569">Transaction</text><text fill="#000000" font-family="sans-serif" font-size="13" lengthAdjust="spacing" textLength="67" x="1832.27" y="356.7897">Rollup 1 ID</text></g><!--reverse link L2_1_Exec to Query--><g id="link_L2_1_Exec_Query"><path d="M1884.9217,258.2081 C1778.1417,273.6381 1541.66,313.12 1481.77,368.59 C1423.45,422.61 1405.76,526.33 1402.41,549.89 " fill="none" id="L2_1_Exec-backto-Query" style="stroke:#181818;stroke-width:1.0;"/><polygon fill="#181818" points="1890.86,257.35,1881.3804,254.6783,1885.9114,258.0651,1882.5246,262.596,1890.86,257.35" style="stroke:#181818;stroke-width:1.0;"/><text fill="#000000" font-family="sans-serif" font-size="13" lengthAdjust="spacing" textLength="34" x="1559.77" y="349.1569">Block</text></g><!--link HSProver to LC_L1--><g id="link_HSProver_LC_L1"><path d="M2359.57,1023.72 C2357.64,1072.46 2354.1471,1161.2247 2352.2171,1210.0347 " fill="none" id="HSProver-to-LC_L1" style="stroke:#181818;stroke-width:1.0;"/><polygon fill="#181818" points="2351.98,1216.03,2356.3325,1207.1951,2352.1776,1211.0339,2348.3387,1206.879,2351.98,1216.03" style="stroke:#181818;stroke-width:1.0;"/><text fill="#000000" font-family="sans-serif" font-size="13" lengthAdjust="spacing" textLength="53" x="2367.27" y="1068.4969">HotShot</text><text fill="#000000" font-family="sans-serif" font-size="13" lengthAdjust="spacing" textLength="70" x="2358.77" y="1083.6297">state proof</text></g><!--link L2_1_Prover to L2_1_L1--><g id="link_L2_1_Prover_L2_1_L1"><path d="M2319.19,252.17 C2376.36,256.67 2478.26,272.61 2541.77,328.59 C2624.08,401.14 2640.77,445.02 2640.77,554.74 C2640.77,554.74 2640.77,554.74 2640.77,993.13 C2640.77,1074.62 2661.0942,1163.0099 2673.6342,1210.3699 " fill="none" id="L2_1_Prover-to-L2_1_L1" style="stroke:#181818;stroke-width:1.0;"/><polygon fill="#181818" points="2675.17,1216.17,2676.7331,1206.446,2673.8902,1211.3366,2668.9996,1208.4937,2675.17,1216.17" style="stroke:#181818;stroke-width:1.0;"/><text fill="#000000" font-family="sans-serif" font-size="13" lengthAdjust="spacing" textLength="38" x="2657.77" y="806.3969">Rollup</text><text fill="#000000" font-family="sans-serif" font-size="13" lengthAdjust="spacing" textLength="70" x="2641.77" y="821.5297">state proof</text></g><!--link LC_L1 to L2_L1--><g id="link_LC_L1_L2_L1"><path d="M2356.1,1216 C2365.26,1173.23 2388.58,1099.23 2443.27,1071.43 C2482.1,1051.69 2502.45,1051.69 2541.27,1071.43 C2559.0625,1080.475 2571.6094,1095.4794 2580.408,1113.0259 C2584.8073,1121.7992 2588.2695,1131.208 2590.9818,1140.8253 C2591.6599,1143.2296 2592.2911,1145.6469 2592.8784,1148.0706 C2593.172,1149.2824 2593.4547,1150.4959 2593.7267,1151.71 C2593.8627,1152.3171 2592.7333,1147.0588 2592.8641,1147.6662 " fill="none" id="LC_L1-to-L2_L1" style="stroke:#181818;stroke-width:1.0;"/><polygon fill="#181818" points="2594.1268,1153.5318,2596.1432,1143.8915,2593.0745,1148.6438,2588.3223,1145.5751,2594.1268,1153.5318" style="stroke:#181818;stroke-width:1.0;"/></g><!--link L2_1_State to L2_1_RPC--><g id="link_L2_1_State_L2_1_RPC"><path d="M2113.77,149.68 C2113.77,171.46 2113.77,198.29 2113.77,220.03 " fill="none" id="L2_1_State-to-L2_1_RPC" style="stroke:#181818;stroke-width:1.0;"/><polygon fill="#181818" points="2113.77,226.03,2117.77,217.03,2113.77,221.03,2109.77,217.03,2113.77,226.03" style="stroke:#181818;stroke-width:1.0;"/><text fill="#000000" font-family="sans-serif" font-size="13" lengthAdjust="spacing" textLength="69" x="2114.77" y="192.3569">Read state</text></g><!--reverse link L2_1_State to L2_1_Exec--><g id="link_L2_1_State_L2_1_Exec"><path d="M2073.8572,152.862 C2060.0072,161.912 2049.04,169.29 2034.77,179.29 C2013.19,194.42 1989.34,212.17 1971.2,225.9 " fill="none" id="L2_1_State-backto-L2_1_Exec" style="stroke:#181818;stroke-width:1.0;"/><polygon fill="#181818" points="2078.88,149.58,2069.1578,151.1545,2074.6944,152.315,2073.5339,157.8516,2078.88,149.58" style="stroke:#181818;stroke-width:1.0;"/><text fill="#000000" font-family="sans-serif" font-size="13" lengthAdjust="spacing" textLength="69" x="2035.77" y="192.3569">Write state</text></g><!--link L2_1_State to L2_1_Prover--><g id="link_L2_1_State_L2_1_Prover"><path d="M2149.71,149.73 C2163.41,158.63 2179.02,169.14 2192.77,179.29 C2212.83,194.11 2229.9695,208.1428 2246.2895,222.0228 " fill="none" id="L2_1_State-to-L2_1_Prover" style="stroke:#181818;stroke-width:1.0;"/><polygon fill="#181818" points="2250.86,225.91,2246.5957,217.0322,2247.0512,222.6707,2241.4127,223.1262,2250.86,225.91" style="stroke:#181818;stroke-width:1.0;"/><text fill="#000000" font-family="sans-serif" font-size="13" lengthAdjust="spacing" textLength="71" x="2214.77" y="192.3569">Read State</text></g><!--link Builder to Fee_L1--><g id="link_Builder_Fee_L1"><path d="M2351.02,575.58 C2386.34,593.19 2433.6,623.1 2456.77,665.18 C2559.6,851.93 2518.6922,1119.4456 2500.6022,1210.2556 " fill="none" id="Builder-to-Fee_L1" style="stroke:#181818;stroke-width:1.0;"/><polygon fill="#181818" points="2499.43,1216.14,2505.1112,1208.0949,2500.4068,1211.2364,2497.2654,1206.532,2499.43,1216.14" style="stroke:#181818;stroke-width:1.0;"/><text fill="#000000" font-family="sans-serif" font-size="13" lengthAdjust="spacing" textLength="76" x="2522.77" y="919.3969">Deposit Fee</text></g><!--SRC=[XLTBR-Cs4BxhLn2-E3dOGDp78IWMQEmKsSRLEb6o1ROk0aOQsqHaKajIoHf5_dk7BucofTqS36hc6tAU7vcAvYzq2sHqhIe9IWcImTSQU0wIfA3VX7mP4Qh2cloN4FpBnRuI7BWcemQ-vgaeG3cqMLbavVUVBr9lsxM_ak85P8_YBohLZfQDfg2QFbC5v1OEYoihVa_UasHiTbxIWwXruZOZamyET4cKfXeI-s6aViyWjrwItoPrXJhSvXAFvmgugjMQxp4PwBXAaceuHJROHkpYQnmThOJIM-bJudrkDelIZ6vO28fwSpIw4JhR2RtcTpN8mvfd85zPxepkiiZclS_wzzL7TA45MJU4r8oJETNvhgxwL3SF3wi-UOQfgrMlfdxUCzsdiMxtAKnaoaPs_Og-OjepBO7kNLwjwFkn-RPaV3lg1jXYbkovcbK3of7fddd9S3sAJcgMeLmcQh0riekXiqPEdR4jzytXbaFmpxHas2zGM3jhq8YE0dzF-fl2zVAQLrAyOZEfg3LkifKL_i1IGaaF7SDx8pcskgfPMVYe_DhCdniYFqE-dJg3vVBVFrjn-X7_lJ4SpzE5EUQV7IiAuFyYrh5CWXDWB770ncOP02LiD8fz0M9D8TuuQinS96CFED4Ybz0Yfqed0U0LDZc1Gip8JYJRxinHFYleVqdPdZoN8dz9BDmw6CeHRF7ivf28dOx5dY4JDmuaFaTBoXNDDSDy9LvA9Y5m-7hfVMWf38aI8JD7ISlPAPtVYxAiAtBX0KyN_Oo4kIDdCDrEoP_PftHolvgVDnPF-DLZS_qDybeBsS2Ce0VdajIWeXRkdRN5LNkmbKJJCkw9R1RWiq586Y0fDdZB_de74kezSJdq6GhvERqave9ZVNAjmYNnj1n8vjBqZn-3DGzsRlyvMlNP_05m14L9mBvtNV9XTHt2y8Ry2Jrmx8j9SUHDRtPFRMO_iabFRT8s4gGO13Dz88z8KOdv8PD7Ioo-ryWbUOW6mTmXfZ7mUfNC40VX0Z_ja1An8INZBoYycEB0yGFEAhDpfUpjrHsfiVLP2m8qtvbnKMnVbvfo4BKg3-Hi8wG7uSXBuwJWfVa1md3B7JB6EGA05zQ996by3cpYBirk26iUAa0-BeB_MbIHzxCfkgC8dlz6PT7nslYhmkDYsZdTtiEUgviHnBElB4kCoP5-DgnA8rLlUd-QHWz9l9kAEiShmT8HSjZ4Pqr8P2meq4XX2T0w3cJgGIPG2JcmLmWRK0m9B9z0A5AS0KmBmMbbaaYRo6uM0WytDR13XW4rpopBpyPhiHcAx-TEV4BP3ifpndDjMXnhkiUsQZl8EcuMIsoyqEu4lM0RRDBcB9kKJQWVFcl8sLqj9BBE7F35j64vUdOUjjq1nxj48D-OjJ-ZFNrwsdeXyWzXcZ5irsp7KTlw-pvmkCmz5rOj8FM0j1VGcxTVfluyPRD6wie-TjoLwFFZm_joEv4UYcajwm8VOCwzey1i-PmdI1l-u6UXjTX79_yQJZRF2qU4s5Qq8BdBh772LxGjn75AiRSaxjhCLvX-l-EKV3OLFOHmJ5CoqvFExy0eT4iPfXkBPbZ2xqNEljpUd-D8a3UAZD1IoqRIkd0R35b-kdyyxoR5r0Vvem1DMQbQth6FikYsDFKtIN1FafOK8f88kB-Hu206-cOQsZ8Bhnp_tzcuPUpciILZ9lA84-siQSSZHHhsNFOOkLu8xNjY6jJHmyzeZD0-weAqjlXZgSUsZoxyTXVm9La0TZPM4B-J_m40]--></g></svg>