<?xml version="1.0" encoding="UTF-8" standalone="no"?><svg xmlns="http://www.w3.org/2000/svg" xmlns:xlink="http://www.w3.org/1999/xlink" contentStyleType="text/css" height="1212px" preserveAspectRatio="none" style="width:896px;height:1212px;background:#FFFFFF;" version="1.1" viewBox="0 0 896 1212" width="896px" zoomAndPan="magnify"><defs/><g><!--MD5=[fb3681035abf3c9c7eca592094bbf4a9]
cluster WWW--><g id="cluster_WWW"><path d="M502.5,337 L548.5,337 A3.75,3.75 0 0 1 551,339.5 L558,359.2969 L748.5,359.2969 A2.5,2.5 0 0 1 751,361.7969 L751,498.5 A2.5,2.5 0 0 1 748.5,501 L502.5,501 A2.5,2.5 0 0 1 500,498.5 L500,339.5 A2.5,2.5 0 0 1 502.5,337 " fill="none" style="stroke:#000000;stroke-width:1.5;"/><line style="stroke:#000000;stroke-width:1.5;" x1="500" x2="558" y1="359.2969" y2="359.2969"/><text fill="#000000" font-family="sans-serif" font-size="14" font-weight="bold" lengthAdjust="spacing" textLength="45" x="504" y="351.9951">WWW</text></g><!--MD5=[3746f487d7820090e32c72dc756be46d]
cluster HotShotExternal--><g id="cluster_HotShotExternal"><path d="M609.5,380 L673.5,380 A3.75,3.75 0 0 1 676,382.5 L683,402.2969 L724.5,402.2969 A2.5,2.5 0 0 1 727,404.7969 L727,474.5 A2.5,2.5 0 0 1 724.5,477 L609.5,477 A2.5,2.5 0 0 1 607,474.5 L607,382.5 A2.5,2.5 0 0 1 609.5,380 " fill="none" style="stroke:#000000;stroke-width:1.5;"/><line style="stroke:#000000;stroke-width:1.5;" x1="607" x2="683" y1="402.2969" y2="402.2969"/><text fill="#000000" font-family="sans-serif" font-size="14" font-weight="bold" lengthAdjust="spacing" textLength="63" x="611" y="394.9951">HotShot</text></g><!--MD5=[074479fc2b8718e85f223949db21494f]
cluster Decentralized Sequencer--><g id="cluster_Decentralized Sequencer"><path d="M8.5,6 L209.5,6 A3.75,3.75 0 0 1 212,8.5 L219,28.2969 L430.5,28.2969 A2.5,2.5 0 0 1 433,30.7969 L433,498.5 A2.5,2.5 0 0 1 430.5,501 L8.5,501 A2.5,2.5 0 0 1 6,498.5 L6,8.5 A2.5,2.5 0 0 1 8.5,6 " fill="none" style="stroke:#000000;stroke-width:1.5;"/><line style="stroke:#000000;stroke-width:1.5;" x1="6" x2="219" y1="28.2969" y2="28.2969"/><text fill="#000000" font-family="sans-serif" font-size="14" font-weight="bold" lengthAdjust="spacing" textLength="200" x="10" y="20.9951">Decentralized Sequencer</text></g><!--MD5=[bcfbdd31683a7d01cd062dc0c4be3661]
cluster zkApp--><g id="cluster_zkApp"><path d="M32.5,49 L118.5,49 A3.75,3.75 0 0 1 121,51.5 L128,71.2969 L406.5,71.2969 A2.5,2.5 0 0 1 409,73.7969 L409,474.5 A2.5,2.5 0 0 1 406.5,477 L32.5,477 A2.5,2.5 0 0 1 30,474.5 L30,51.5 A2.5,2.5 0 0 1 32.5,49 " fill="none" style="stroke:#000000;stroke-width:1.5;"/><line style="stroke:#000000;stroke-width:1.5;" x1="30" x2="128" y1="71.2969" y2="71.2969"/><text fill="#000000" font-family="sans-serif" font-size="14" font-weight="bold" lengthAdjust="spacing" textLength="85" x="34" y="63.9951">zkEVM app</text></g><!--MD5=[975d7fda8cf98ff1a26ca528bf10cecf]
cluster App--><g id="cluster_App"><path d="M64.5,100 L270.5,100 A3.75,3.75 0 0 1 273,102.5 L280,122.2969 L374.5,122.2969 A2.5,2.5 0 0 1 377,124.7969 L377,277.5 A2.5,2.5 0 0 1 374.5,280 L64.5,280 A2.5,2.5 0 0 1 62,277.5 L62,102.5 A2.5,2.5 0 0 1 64.5,100 " fill="none" style="stroke:#000000;stroke-width:1.5;"/><line style="stroke:#000000;stroke-width:1.5;" x1="62" x2="280" y1="122.2969" y2="122.2969"/><text fill="#000000" font-family="sans-serif" font-size="14" font-weight="bold" lengthAdjust="spacing" textLength="205" x="66" y="114.9951">Txn-ordering HotShot app</text></g><!--MD5=[583d55fc1e2a49743832e160d5573292]
cluster HotShot--><g id="cluster_HotShot"><path d="M104.5,151 L168.5,151 A3.75,3.75 0 0 1 171,153.5 L178,173.2969 L342.5,173.2969 A2.5,2.5 0 0 1 345,175.7969 L345,245.5 A2.5,2.5 0 0 1 342.5,248 L104.5,248 A2.5,2.5 0 0 1 102,245.5 L102,153.5 A2.5,2.5 0 0 1 104.5,151 " fill="none" style="stroke:#000000;stroke-width:1.5;"/><line style="stroke:#000000;stroke-width:1.5;" x1="102" x2="178" y1="173.2969" y2="173.2969"/><text fill="#000000" font-family="sans-serif" font-size="14" font-weight="bold" lengthAdjust="spacing" textLength="63" x="106" y="165.9951">HotShot</text></g><!--MD5=[30107c386ad61863a1077fa9b8608265]
cluster L2--><g id="cluster_L2"><path d="M89.5,550 L109.5,550 A3.75,3.75 0 0 1 112,552.5 L119,572.2969 L833.5,572.2969 A2.5,2.5 0 0 1 836,574.7969 L836,1041.5 A2.5,2.5 0 0 1 833.5,1044 L89.5,1044 A2.5,2.5 0 0 1 87,1041.5 L87,552.5 A2.5,2.5 0 0 1 89.5,550 " fill="none" style="stroke:#000000;stroke-width:1.5;"/><line style="stroke:#000000;stroke-width:1.5;" x1="87" x2="119" y1="572.2969" y2="572.2969"/><text fill="#000000" font-family="sans-serif" font-size="14" font-weight="bold" lengthAdjust="spacing" textLength="19" x="91" y="564.9951">L2</text></g><!--MD5=[72078431e26b572f5b2226d95bfc722b]
cluster HermezProver--><g id="cluster_HermezProver"><path d="M289.5,750.5 L409.5,750.5 A3.75,3.75 0 0 1 412,753 L419,772.7969 L571.5,772.7969 A2.5,2.5 0 0 1 574,775.2969 L574,1017.5 A2.5,2.5 0 0 1 571.5,1020 L289.5,1020 A2.5,2.5 0 0 1 287,1017.5 L287,753 A2.5,2.5 0 0 1 289.5,750.5 " fill="none" style="stroke:#000000;stroke-width:1.5;"/><line style="stroke:#000000;stroke-width:1.5;" x1="287" x2="419" y1="772.7969" y2="772.7969"/><text fill="#000000" font-family="sans-serif" font-size="14" font-weight="bold" lengthAdjust="spacing" textLength="119" x="291" y="765.4951">Hermez Prover</text></g><!--MD5=[4499c58aefeb8777a4ef8729a6b9746a]
cluster L1--><g id="cluster_L1"><path d="M572.5,1108 L592.5,1108 A3.75,3.75 0 0 1 595,1110.5 L602,1130.2969 L886.5,1130.2969 A2.5,2.5 0 0 1 889,1132.7969 L889,1202.5 A2.5,2.5 0 0 1 886.5,1205 L572.5,1205 A2.5,2.5 0 0 1 570,1202.5 L570,1110.5 A2.5,2.5 0 0 1 572.5,1108 " fill="none" style="stroke:#000000;stroke-width:1.5;"/><line style="stroke:#000000;stroke-width:1.5;" x1="570" x2="602" y1="1130.2969" y2="1130.2969"/><text fill="#000000" font-family="sans-serif" font-size="14" font-weight="bold" lengthAdjust="spacing" textLength="19" x="574" y="1122.9951">L1</text></g><!--MD5=[fee662a292a0353a69bd162820bae93b]
entity User--><g id="elem_User"><rect fill="#F1F1F1" height="46.2969" rx="2.5" ry="2.5" style="stroke:#181818;stroke-width:0.5;" width="72" x="516" y="415"/><rect fill="#F1F1F1" height="10" style="stroke:#181818;stroke-width:0.5;" width="15" x="568" y="420"/><rect fill="#F1F1F1" height="2" style="stroke:#181818;stroke-width:0.5;" width="4" x="566" y="422"/><rect fill="#F1F1F1" height="2" style="stroke:#181818;stroke-width:0.5;" width="4" x="566" y="426"/><text fill="#000000" font-family="sans-serif" font-size="14" lengthAdjust="spacing" textLength="32" x="531" y="447.9951">User</text></g><!--MD5=[896ddc638b163aeba3d9eafdbb3e5908]
entity GossipExternal--><g id="elem_GossipExternal"><rect fill="#F1F1F1" height="46.2969" rx="2.5" ry="2.5" style="stroke:#181818;stroke-width:0.5;" width="88" x="623" y="415"/><rect fill="#F1F1F1" height="10" style="stroke:#181818;stroke-width:0.5;" width="15" x="691" y="420"/><rect fill="#F1F1F1" height="2" style="stroke:#181818;stroke-width:0.5;" width="4" x="689" y="422"/><rect fill="#F1F1F1" height="2" style="stroke:#181818;stroke-width:0.5;" width="4" x="689" y="426"/><text fill="#000000" font-family="sans-serif" font-size="14" lengthAdjust="spacing" textLength="48" x="638" y="447.9951">Gossip</text></g><!--MD5=[1fdded0352c3e8b8e8e5fa4c440e3206]
entity Events--><g id="elem_Events"><rect fill="#F1F1F1" height="46.2969" rx="2.5" ry="2.5" style="stroke:#181818;stroke-width:0.5;" width="87" x="194.5" y="415"/><rect fill="#F1F1F1" height="10" style="stroke:#181818;stroke-width:0.5;" width="15" x="261.5" y="420"/><rect fill="#F1F1F1" height="2" style="stroke:#181818;stroke-width:0.5;" width="4" x="259.5" y="422"/><rect fill="#F1F1F1" height="2" style="stroke:#181818;stroke-width:0.5;" width="4" x="259.5" y="426"/><text fill="#000000" font-family="sans-serif" font-size="14" lengthAdjust="spacing" textLength="47" x="209.5" y="447.9951">Events</text></g><!--MD5=[fc241586e3e4cf255457dad9b5d09a8f]
entity Submit--><g id="elem_Submit"><rect fill="#F1F1F1" height="46.2969" rx="2.5" ry="2.5" style="stroke:#181818;stroke-width:0.5;" width="113" x="46.5" y="415"/><rect fill="#F1F1F1" height="10" style="stroke:#181818;stroke-width:0.5;" width="15" x="139.5" y="420"/><rect fill="#F1F1F1" height="2" style="stroke:#181818;stroke-width:0.5;" width="4" x="137.5" y="422"/><rect fill="#F1F1F1" height="2" style="stroke:#181818;stroke-width:0.5;" width="4" x="137.5" y="426"/><text fill="#000000" font-family="sans-serif" font-size="14" lengthAdjust="spacing" textLength="73" x="61.5" y="447.9951">Submit API</text></g><!--MD5=[72906ce1eb61e5bac7b26d06e51547ad]
entity GossipInternal--><g id="elem_GossipInternal"><rect fill="#F1F1F1" height="46.2969" rx="2.5" ry="2.5" style="stroke:#181818;stroke-width:0.5;" width="88" x="241" y="186"/><rect fill="#F1F1F1" height="10" style="stroke:#181818;stroke-width:0.5;" width="15" x="309" y="191"/><rect fill="#F1F1F1" height="2" style="stroke:#181818;stroke-width:0.5;" width="4" x="307" y="193"/><rect fill="#F1F1F1" height="2" style="stroke:#181818;stroke-width:0.5;" width="4" x="307" y="197"/><text fill="#000000" font-family="sans-serif" font-size="14" lengthAdjust="spacing" textLength="48" x="256" y="218.9951">Gossip</text></g><!--MD5=[657580825c081e24058a2374906e8018]
entity HotShotEvents--><g id="elem_HotShotEvents"><rect fill="#F1F1F1" height="46.2969" rx="2.5" ry="2.5" style="stroke:#181818;stroke-width:0.5;" width="87" x="118.5" y="186"/><rect fill="#F1F1F1" height="10" style="stroke:#181818;stroke-width:0.5;" width="15" x="185.5" y="191"/><rect fill="#F1F1F1" height="2" style="stroke:#181818;stroke-width:0.5;" width="4" x="183.5" y="193"/><rect fill="#F1F1F1" height="2" style="stroke:#181818;stroke-width:0.5;" width="4" x="183.5" y="197"/><text fill="#000000" font-family="sans-serif" font-size="14" lengthAdjust="spacing" textLength="47" x="133.5" y="218.9951">Events</text></g><!--MD5=[ee57f16ef1ba8b49a548a5b41deaf6ed]
entity JsonRPC--><g id="elem_JsonRPC"><rect fill="#F1F1F1" height="46.2969" rx="2.5" ry="2.5" style="stroke:#181818;stroke-width:0.5;" width="98" x="503" y="585"/><rect fill="#F1F1F1" height="10" style="stroke:#181818;stroke-width:0.5;" width="15" x="581" y="590"/><rect fill="#F1F1F1" height="2" style="stroke:#181818;stroke-width:0.5;" width="4" x="579" y="592"/><rect fill="#F1F1F1" height="2" style="stroke:#181818;stroke-width:0.5;" width="4" x="579" y="596"/><text fill="#000000" font-family="sans-serif" font-size="14" lengthAdjust="spacing" textLength="58" x="518" y="617.9951">JsonRPC</text></g><!--MD5=[58f3bb20197d49c7ea139ae014477a42]
entity L2DB--><g id="elem_L2DB"><rect fill="#D3D3D3" height="111.4844" rx="2.5" ry="2.5" style="stroke:#181818;stroke-width:0.5;" width="160" x="660" y="753"/><rect fill="#D3D3D3" height="10" style="stroke:#181818;stroke-width:0.5;" width="15" x="800" y="758"/><rect fill="#D3D3D3" height="2" style="stroke:#181818;stroke-width:0.5;" width="4" x="798" y="760"/><rect fill="#D3D3D3" height="2" style="stroke:#181818;stroke-width:0.5;" width="4" x="798" y="764"/><text fill="#000000" font-family="sans-serif" font-size="14" lengthAdjust="spacing" textLength="120" x="675" y="785.9951">L2 Blockchain DB</text><text fill="#000000" font-family="sans-serif" font-size="14" lengthAdjust="spacing" textLength="4" x="675" y="802.292"> </text><text fill="#000000" font-family="sans-serif" font-size="14" lengthAdjust="spacing" textLength="45" x="675" y="818.5889">blocks</text><text fill="#000000" font-family="sans-serif" font-size="14" lengthAdjust="spacing" textLength="56" x="675" y="834.8857">receipts</text><text fill="#000000" font-family="sans-serif" font-size="14" lengthAdjust="spacing" textLength="29" x="675" y="851.1826">logs</text></g><!--MD5=[daa17a87a602f85fbd6c6a31524a683b]
entity BridgeL2--><g id="elem_BridgeL2"><rect fill="#D3D3D3" height="46.2969" rx="2.5" ry="2.5" style="stroke:#181818;stroke-width:0.5;" width="105" x="292.5" y="585"/><rect fill="#D3D3D3" height="10" style="stroke:#181818;stroke-width:0.5;" width="15" x="377.5" y="590"/><rect fill="#D3D3D3" height="2" style="stroke:#181818;stroke-width:0.5;" width="4" x="375.5" y="592"/><rect fill="#D3D3D3" height="2" style="stroke:#181818;stroke-width:0.5;" width="4" x="375.5" y="596"/><text fill="#000000" font-family="sans-serif" font-size="14" lengthAdjust="spacing" textLength="65" x="307.5" y="617.9951">Bridge L2</text></g><!--MD5=[08fbae345e6b96db5cca938e56a03ce4]
entity RollupCoordinator--><g id="elem_RollupCoordinator"><rect fill="#F1F1F1" height="46.2969" rx="2.5" ry="2.5" style="stroke:#181818;stroke-width:0.5;" width="168" x="103" y="949.5"/><rect fill="#F1F1F1" height="10" style="stroke:#181818;stroke-width:0.5;" width="15" x="251" y="954.5"/><rect fill="#F1F1F1" height="2" style="stroke:#181818;stroke-width:0.5;" width="4" x="249" y="956.5"/><rect fill="#F1F1F1" height="2" style="stroke:#181818;stroke-width:0.5;" width="4" x="249" y="960.5"/><text fill="#000000" font-family="sans-serif" font-size="14" lengthAdjust="spacing" textLength="128" x="118" y="982.4951">Rollup Coordinator</text></g><!--MD5=[c3bd79b6cca3d8fa787b3b807ac7237d]
entity Prover--><g id="elem_Prover"><rect fill="#F1F1F1" height="46.2969" rx="2.5" ry="2.5" style="stroke:#181818;stroke-width:0.5;" width="84" x="303" y="785.5"/><rect fill="#F1F1F1" height="10" style="stroke:#181818;stroke-width:0.5;" width="15" x="367" y="790.5"/><rect fill="#F1F1F1" height="2" style="stroke:#181818;stroke-width:0.5;" width="4" x="365" y="792.5"/><rect fill="#F1F1F1" height="2" style="stroke:#181818;stroke-width:0.5;" width="4" x="365" y="796.5"/><text fill="#000000" font-family="sans-serif" font-size="14" lengthAdjust="spacing" textLength="44" x="318" y="818.4951">Prover</text></g><!--MD5=[77b6810f9f1d8e17e1346401c10c77dc]
entity Executor--><g id="elem_Executor"><rect fill="#D3D3D3" height="46.2969" rx="2.5" ry="2.5" style="stroke:#181818;stroke-width:0.5;" width="101" x="422.5" y="785.5"/><rect fill="#D3D3D3" height="10" style="stroke:#181818;stroke-width:0.5;" width="15" x="503.5" y="790.5"/><rect fill="#D3D3D3" height="2" style="stroke:#181818;stroke-width:0.5;" width="4" x="501.5" y="792.5"/><rect fill="#D3D3D3" height="2" style="stroke:#181818;stroke-width:0.5;" width="4" x="501.5" y="796.5"/><text fill="#000000" font-family="sans-serif" font-size="14" lengthAdjust="spacing" textLength="61" x="437.5" y="818.4951">Executor</text></g><!--MD5=[47b51ac2f4ace7439b689a6295ba6363]
entity Tree--><g id="elem_Tree"><rect fill="#F1F1F1" height="62.5938" rx="2.5" ry="2.5" style="stroke:#181818;stroke-width:0.5;" width="122" x="384" y="941"/><rect fill="#F1F1F1" height="10" style="stroke:#181818;stroke-width:0.5;" width="15" x="486" y="946"/><rect fill="#F1F1F1" height="2" style="stroke:#181818;stroke-width:0.5;" width="4" x="484" y="948"/><rect fill="#F1F1F1" height="2" style="stroke:#181818;stroke-width:0.5;" width="4" x="484" y="952"/><text fill="#000000" font-family="sans-serif" font-size="14" lengthAdjust="spacing" textLength="81" x="399" y="973.9951">L2 State DB</text><text fill="#000000" font-family="sans-serif" font-size="14" lengthAdjust="spacing" textLength="82" x="399" y="990.292">Merkle Tree</text></g><!--MD5=[02772cf4a850889cc654a495925d36fb]
entity Rollup--><g id="elem_Rollup"><rect fill="#F1F1F1" height="46.2969" rx="2.5" ry="2.5" style="stroke:#181818;stroke-width:0.5;" width="146" x="586" y="1143"/><rect fill="#F1F1F1" height="10" style="stroke:#181818;stroke-width:0.5;" width="15" x="712" y="1148"/><rect fill="#F1F1F1" height="2" style="stroke:#181818;stroke-width:0.5;" width="4" x="710" y="1150"/><rect fill="#F1F1F1" height="2" style="stroke:#181818;stroke-width:0.5;" width="4" x="710" y="1154"/><text fill="#000000" font-family="sans-serif" font-size="14" lengthAdjust="spacing" textLength="106" x="601" y="1175.9951">Rollup Contract</text></g><!--MD5=[8408e9abc57f2e0dae33bcd01efd5900]
entity BridgeL1--><g id="elem_BridgeL1"><rect fill="#D3D3D3" height="46.2969" rx="2.5" ry="2.5" style="stroke:#181818;stroke-width:0.5;" width="105" x="767.5" y="1143"/><rect fill="#D3D3D3" height="10" style="stroke:#181818;stroke-width:0.5;" width="15" x="852.5" y="1148"/><rect fill="#D3D3D3" height="2" style="stroke:#181818;stroke-width:0.5;" width="4" x="850.5" y="1150"/><rect fill="#D3D3D3" height="2" style="stroke:#181818;stroke-width:0.5;" width="4" x="850.5" y="1154"/><text fill="#000000" font-family="sans-serif" font-size="14" lengthAdjust="spacing" textLength="65" x="782.5" y="1175.9951">Bridge L1</text></g><!--MD5=[91cafd777a61df7305284aff3f8c2f32]
link GossipInternal to GossipExternal--><g id="link_GossipInternal_GossipExternal"><path d="M335.72,215.52 C407.31,225.81 538.25,254.16 619,329 C641.93,350.25 654.57,384.47 661.05,408.69 " fill="none" id="GossipInternal-GossipExternal" style="stroke:#181818;stroke-width:1.0;"/><polygon fill="#181818" points="662.26,413.46,663.8972,403.7482,661.0171,408.6169,656.1483,405.7368,662.26,413.46" style="stroke:#181818;stroke-width:1.0;"/><polygon fill="#181818" points="330.9,214.84,339.267,220.0355,335.8528,215.5251,340.3632,212.1109,330.9,214.84" style="stroke:#181818;stroke-width:1.0;"/></g><!--MD5=[8bd5665a06ab55cd3a2a517292e29228]
reverse link BridgeL2 to Prover--><g id="link_BridgeL2_Prover"><path d="M345,637.5 C345,677.37 345,748.97 345,785.2 " fill="none" id="BridgeL2-backto-Prover" style="stroke:#181818;stroke-width:1.0;stroke-dasharray:7.0,7.0;"/><polygon fill="#181818" points="345,632.9,341,641.9,345,637.9,349,641.9,345,632.9" style="stroke:#181818;stroke-width:1.0;"/></g><!--MD5=[41bf5c2ff0458362cd2ec6a26f1e4ae9]
link User to JsonRPC--><g id="link_User_JsonRPC"><path d="M552,461.31 C552,491.43 552,545.15 552,578.26 " fill="none" id="User-to-JsonRPC" style="stroke:#181818;stroke-width:1.0;"/><polygon fill="#181818" points="552,583.09,556,574.09,552,578.09,548,574.09,552,583.09" style="stroke:#181818;stroke-width:1.0;"/><text fill="#000000" font-family="sans-serif" font-size="13" lengthAdjust="spacing" textLength="107" x="553" y="530.0669">EVM txn, queries</text></g><!--MD5=[a17d139141063a3331d17a0fa6f70ee5]
reverse link Submit to JsonRPC--><g id="link_Submit_JsonRPC"><path d="M124.2,466.09 C137.63,481.26 156.34,499.08 177,509 C273.26,555.23 312.68,511.42 415,542 C449.56,552.33 486.36,570.22 513.11,584.62 " fill="none" id="Submit-backto-JsonRPC" style="stroke:#181818;stroke-width:1.0;"/><polygon fill="#181818" points="121.19,462.62,124.0684,472.0389,124.4674,466.3961,130.1101,466.7951,121.19,462.62" style="stroke:#181818;stroke-width:1.0;"/><text fill="#000000" font-family="sans-serif" font-size="13" lengthAdjust="spacing" textLength="52" x="381" y="530.0669">EVM txn</text></g><!--MD5=[0f85c64cbe394fdbbcb7903f2cd04337]
link JsonRPC to L2DB--><g id="link_JsonRPC_L2DB"><path d="M574.21,631.41 C583.2,640.54 593.64,651.23 603,661 C630.21,689.41 660.08,721.27 684.97,748.01 " fill="none" id="JsonRPC-to-L2DB" style="stroke:#181818;stroke-width:1.0;"/><polygon fill="#181818" points="688.2,751.49,685.0015,742.175,684.7956,747.8281,679.1424,747.6221,688.2,751.49" style="stroke:#181818;stroke-width:1.0;"/><text fill="#000000" font-family="sans-serif" font-size="13" lengthAdjust="spacing" textLength="29" x="660" y="696.5669">read</text></g><!--MD5=[54efc4a2d23f41f3f0dc12b7324a18cb]
link JsonRPC to Tree--><g id="link_JsonRPC_Tree"><path d="M572.52,631.38 C579.12,640 585.59,650.34 589,661 C609.15,724.06 593.53,871.98 566,911 C552.94,929.51 532.55,942.65 512.21,951.86 " fill="none" id="JsonRPC-to-Tree" style="stroke:#181818;stroke-width:1.0;"/><polygon fill="#181818" points="507.86,953.74,517.7086,953.8085,512.4431,951.7412,514.5105,946.4756,507.86,953.74" style="stroke:#181818;stroke-width:1.0;"/><text fill="#000000" font-family="sans-serif" font-size="13" lengthAdjust="spacing" textLength="29" x="599" y="813.0669">read</text></g><!--MD5=[9eb4f09f33922fd95390af3a7601fb36]
link JsonRPC to Executor--><g id="link_JsonRPC_Executor"><path d="M502.5,629.47 C489.62,637.33 477.31,647.71 470,661 C449.77,697.78 456.87,748.01 464.46,779.07 " fill="none" id="JsonRPC-to-Executor" style="stroke:#181818;stroke-width:1.0;"/><polygon fill="#181818" points="465.61,783.55,467.2472,773.8382,464.3671,778.7069,459.4983,775.8268,465.61,783.55" style="stroke:#181818;stroke-width:1.0;"/><text fill="#000000" font-family="sans-serif" font-size="13" lengthAdjust="spacing" textLength="113" x="471" y="696.5669">call, estimate gas</text></g><!--MD5=[5fee4087329efc2ae6490d423f82bd1c]
link User to BridgeL1--><g id="link_User_BridgeL1"><path d="M563.46,461.5 C572.87,477.52 587.78,498.08 607,509 C631.16,522.72 641.48,513.17 669,517 C743.33,527.36 774.1,499.56 836,542 C863.42,560.8 873,573.76 873,607 C873,607 873,607 873,973.5 C873,1033.42 848.6,1100.2 832.91,1136.93 " fill="none" id="User-to-BridgeL1" style="stroke:#181818;stroke-width:1.0;"/><polygon fill="#181818" points="831.07,1141.18,838.3169,1134.5105,833.0568,1136.5917,830.9757,1131.3316,831.07,1141.18" style="stroke:#181818;stroke-width:1.0;"/></g><!--MD5=[eb6b988b0512d6b84233d2583692179c]
reverse link App to Submit--><g id="link_App_Submit"><path d="M80.2385,280.4196 C80.286,280.7465 80.3336,281.074 80.3813,281.4019 C80.572,282.7139 80.764,284.0346 80.9572,285.3632 C81.3434,288.0203 81.7343,290.7091 82.1288,293.4225 C88.44,336.8375 95.67,386.58 99.75,414.65 " fill="none" id="App-backto-Submit" style="stroke:#181818;stroke-width:1.0;"/><polygon fill="#181818" points="80.2385,280.4196,77.5749,289.9015,80.9578,285.3676,85.4916,288.7506,80.2385,280.4196" style="stroke:#181818;stroke-width:1.0;"/><text fill="#000000" font-family="sans-serif" font-size="13" lengthAdjust="spacing" textLength="126" x="87" y="317.0669">wrap in HotShot txn</text></g><!--MD5=[25a03e75ea8af1b5fbad106de56d561d]
link HotShotEvents to Events--><g id="link_HotShotEvents_Events"><path d="M180.43,232.41 C194.29,250.56 212.47,277.39 222,304 C234.34,338.46 237.56,380.82 238.2,408.34 " fill="none" id="HotShotEvents-to-Events" style="stroke:#181818;stroke-width:1.0;"/><polygon fill="#181818" points="238.28,413.14,242.0992,404.0618,238.18,408.141,234.1008,404.2218,238.28,413.14" style="stroke:#181818;stroke-width:1.0;"/></g><!--MD5=[4d6bd62da00033941d5a40d1ae2f47cd]
link Executor to Tree--><g id="link_Executor_Tree"><path d="M463.37,831.96 C456.73,848.71 448.5,872.33 445,894 C442.88,907.13 442.4,921.67 442.6,934.58 " fill="none" id="Executor-to-Tree" style="stroke:#181818;stroke-width:1.0;"/><polygon fill="#181818" points="442.72,939.26,446.4873,930.1602,442.5915,934.2617,438.49,930.3658,442.72,939.26" style="stroke:#181818;stroke-width:1.0;"/><text fill="#000000" font-family="sans-serif" font-size="13" lengthAdjust="spacing" textLength="111" x="446" y="907.0669">execute (dry-run)</text></g><!--MD5=[a2a14a62da07da7dcefcccd0a9c3b3c2]
link Prover to Tree--><g id="link_Prover_Tree"><path d="M345.79,831.72 C347.49,853.44 352.65,886.72 368,911 C373.98,920.46 381.97,929.05 390.55,936.6 " fill="none" id="Prover-to-Tree" style="stroke:#181818;stroke-width:1.0;"/><polygon fill="#181818" points="394.21,939.7,389.9412,930.8243,390.3996,936.4626,384.7613,936.921,394.21,939.7" style="stroke:#181818;stroke-width:1.0;"/><text fill="#000000" font-family="sans-serif" font-size="13" lengthAdjust="spacing" textLength="65" x="369" y="907.0669">apply txns</text></g><!--MD5=[7643e228b505f0dd36cd119ad2309017]
link Events to RollupCoordinator--><g id="link_Events_RollupCoordinator"><path d="M235.87,461.2 C227.77,545.78 198.85,847.81 189.76,942.73 " fill="none" id="Events-to-RollupCoordinator" style="stroke:#181818;stroke-width:1.0;"/><polygon fill="#181818" points="189.28,947.7,194.1338,939.1303,189.7648,942.7236,186.1715,938.3546,189.28,947.7" style="stroke:#181818;stroke-width:1.0;"/><text fill="#000000" font-family="sans-serif" font-size="13" lengthAdjust="spacing" textLength="46" x="240.5" y="674.0669">stream</text><text fill="#000000" font-family="sans-serif" font-size="13" lengthAdjust="spacing" textLength="91" x="218" y="689.1997">order commit,</text><text fill="#000000" font-family="sans-serif" font-size="13" lengthAdjust="spacing" textLength="23" x="252" y="704.3325">QC,</text><text fill="#000000" font-family="sans-serif" font-size="13" lengthAdjust="spacing" textLength="36" x="245.5" y="719.4653">batch</text></g><!--MD5=[0b1211de9c55aa348d2c85ec5b67caea]
reverse link Prover to RollupCoordinator--><g id="link_Prover_RollupCoordinator"><path d="M322.93,836.78 C315.52,845.63 307.08,855.39 299,864 C270.23,894.66 234.94,927.88 211.75,949.14 " fill="none" id="Prover-backto-RollupCoordinator" style="stroke:#181818;stroke-width:1.0;"/><polygon fill="#181818" points="325.97,833.13,317.145,837.5026,322.7775,836.9781,323.302,842.6106,325.97,833.13" style="stroke:#181818;stroke-width:1.0;"/><text fill="#000000" font-family="sans-serif" font-size="13" lengthAdjust="spacing" textLength="58" x="271" y="907.0669">get proof</text></g><!--MD5=[78e6295b58aeec651e903783ceece310]
link RollupCoordinator to Rollup--><g id="link_RollupCoordinator_Rollup"><path d="M210.3,995.92 C229.52,1013.35 258.22,1037.01 287,1052 C381.95,1101.46 502.05,1133.01 579.68,1149.86 " fill="none" id="RollupCoordinator-to-Rollup" style="stroke:#181818;stroke-width:1.0;"/><polygon fill="#181818" points="584.18,1150.83,576.2133,1145.0394,579.2902,1149.7863,574.5433,1152.8631,584.18,1150.83" style="stroke:#181818;stroke-width:1.0;"/><text fill="#000000" font-family="sans-serif" font-size="13" lengthAdjust="spacing" textLength="91" x="375" y="1073.0669">order commit,</text><text fill="#000000" font-family="sans-serif" font-size="13" lengthAdjust="spacing" textLength="60" x="390.5" y="1088.1997">QC, proof</text></g><!--MD5=[5dd76ec1b4319faeb0400bc1ad50d55d]
@startuml
package "WWW" {
  component User
  package "HotShot" as HotShotExternal {
    component "Gossip" as GossipExternal
  }
}

package "Decentralized Sequencer" {
  package "zkEVM app" as zkApp {
    component Events
    component "Submit API" as Submit
    package "Txn-ordering HotShot app" as App {
      package HotShot {
        component "Gossip" as GossipInternal
        component "Events" as HotShotEvents
      }
    }
  }
}

package L2 {
  component JsonRPC
  component L2DB #lightgrey [
    L2 Blockchain DB

    blocks
    receipts
    logs
  ]
  package "Hermez Prover" as HermezProver {
    component Prover
    component Executor #lightgrey
    component Tree [
      L2 State DB
      Merkle Tree
    ]
  }
  component "Bridge L2" as BridgeL2 #lightgrey
  component "Rollup Coordinator" as RollupCoordinator
}


package L1 {
  component Rollup [
    Rollup Contract
  ]
  component "Bridge L1" as BridgeL1 #lightgrey
}

GossipInternal <-down-> GossipExternal
Prover .up.> BridgeL2

User - -> JsonRPC: EVM txn, queries
JsonRPC -up-> Submit: EVM txn
JsonRPC - -> L2DB: read
JsonRPC - -> Tree: read
JsonRPC - -> Executor: call, estimate gas

User - -> BridgeL1
Submit -up-> App: wrap in HotShot txn
HotShotEvents -down-> Events

Executor - -> Tree: execute (dry-run)
Prover - -> Tree: apply txns
Events - -> RollupCoordinator: stream\norder commit,\nQC,\nbatch
RollupCoordinator -up-> Prover: get proof
RollupCoordinator - -> Rollup: order commit,\nQC, proof
@enduml

PlantUML version 1.2022.12(Sun Oct 23 20:12:26 CEST 2022)
(GPL source distribution)
Java Runtime: OpenJDK Runtime Environment
JVM: OpenJDK 64-Bit Server VM
Default Encoding: UTF-8
Language: en
Country: US
--></g></svg>