<?xml version="1.0" encoding="us-ascii" standalone="no"?><svg xmlns="http://www.w3.org/2000/svg" xmlns:xlink="http://www.w3.org/1999/xlink" contentStyleType="text/css" height="1423px" preserveAspectRatio="none" style="width:2569px;height:1423px;background:#FFFFFF;" version="1.1" viewBox="0 0 2569 1423" width="2569px" zoomAndPan="magnify"><defs/><g><!--cluster Network--><g id="cluster_Network"><path d="M180.66,665.04 L417.66,665.04 A3.75,3.75 0 0 1 420.16,667.54 L427.16,687.3369 L690.66,687.3369 A2.5,2.5 0 0 1 693.16,689.8369 L693.16,1020.63 A2.5,2.5 0 0 1 690.66,1023.13 L180.66,1023.13 A2.5,2.5 0 0 1 178.16,1020.63 L178.16,667.54 A2.5,2.5 0 0 1 180.66,665.04 " fill="none" style="stroke:#000000;stroke-width:1.5;"/><line style="stroke:#000000;stroke-width:1.5;" x1="178.16" x2="427.16" y1="687.3369" y2="687.3369"/><text fill="#000000" font-family="sans-serif" font-size="14" font-weight="bold" lengthAdjust="spacing" textLength="236" x="182.16" y="680.0351">Espresso Sequencer Network</text></g><!--cluster CDN--><g id="cluster_CDN"><path d="M212.66,716.04 L246.66,716.04 A3.75,3.75 0 0 1 249.16,718.54 L256.16,738.3369 L658.66,738.3369 A2.5,2.5 0 0 1 661.16,740.8369 L661.16,845.83 A2.5,2.5 0 0 1 658.66,848.33 L212.66,848.33 A2.5,2.5 0 0 1 210.16,845.83 L210.16,718.54 A2.5,2.5 0 0 1 212.66,716.04 " fill="none" style="stroke:#000000;stroke-width:1.5;"/><line style="stroke:#000000;stroke-width:1.5;" x1="210.16" x2="256.16" y1="738.3369" y2="738.3369"/><text fill="#000000" font-family="sans-serif" font-size="14" font-weight="bold" lengthAdjust="spacing" textLength="33" x="214.16" y="731.0351">CDN</text></g><!--cluster Espresso--><g id="cluster_Espresso"><path d="M719.66,376.59 L884.66,376.59 A3.75,3.75 0 0 1 887.16,379.09 L894.16,398.8869 L2344.66,398.8869 A2.5,2.5 0 0 1 2347.16,401.3869 L2347.16,1028.78 A2.5,2.5 0 0 1 2344.66,1031.28 L719.66,1031.28 A2.5,2.5 0 0 1 717.16,1028.78 L717.16,379.09 A2.5,2.5 0 0 1 719.66,376.59 " fill="none" style="stroke:#000000;stroke-width:1.5;"/><line style="stroke:#000000;stroke-width:1.5;" x1="717.16" x2="894.16" y1="398.8869" y2="398.8869"/><text fill="#000000" font-family="sans-serif" font-size="14" font-weight="bold" lengthAdjust="spacing" textLength="164" x="721.16" y="391.5851">Espresso Sequencer</text></g><!--cluster Seq--><g id="cluster_Seq"><path d="M751.66,427.59 L884.66,427.59 A3.75,3.75 0 0 1 887.16,430.09 L894.16,449.8869 L2051.66,449.8869 A2.5,2.5 0 0 1 2054.16,452.3869 L2054.16,864.19 A2.5,2.5 0 0 1 2051.66,866.69 L751.66,866.69 A2.5,2.5 0 0 1 749.16,864.19 L749.16,430.09 A2.5,2.5 0 0 1 751.66,427.59 " fill="none" style="stroke:#000000;stroke-width:1.5;"/><line style="stroke:#000000;stroke-width:1.5;" x1="749.16" x2="894.16" y1="449.8869" y2="449.8869"/><text fill="#000000" font-family="sans-serif" font-size="14" font-weight="bold" lengthAdjust="spacing" textLength="132" x="753.16" y="442.5851">Sequencer Node</text></g><!--cluster APIs--><g id="cluster_APIs"><rect fill="none" height="278.95" rx="2.5" ry="2.5" style="stroke:#181818;stroke-width:1.0;" width="579" x="1089.16" y="555.74"/><rect fill="none" height="10" style="stroke:#181818;stroke-width:1.0;" width="15" x="1648.16" y="560.74"/><rect fill="none" height="2" style="stroke:#181818;stroke-width:1.0;" width="4" x="1646.16" y="562.74"/><rect fill="none" height="2" style="stroke:#181818;stroke-width:1.0;" width="4" x="1646.16" y="566.74"/><text fill="#000000" font-family="sans-serif" font-size="14" font-weight="bold" lengthAdjust="spacing" textLength="34" x="1361.66" y="581.7351">APIs</text></g><!--cluster Networking--><g id="cluster_Networking"><rect fill="none" height="116.3" rx="2.5" ry="2.5" style="stroke:#181818;stroke-width:1.0;" width="267" x="781.16" y="478.59"/><rect fill="none" height="10" style="stroke:#181818;stroke-width:1.0;" width="15" x="1028.16" y="483.59"/><rect fill="none" height="2" style="stroke:#181818;stroke-width:1.0;" width="4" x="1026.16" y="485.59"/><rect fill="none" height="2" style="stroke:#181818;stroke-width:1.0;" width="4" x="1026.16" y="489.59"/><text fill="#000000" font-family="sans-serif" font-size="14" font-weight="bold" lengthAdjust="spacing" textLength="91" x="869.16" y="504.5851">Networking</text></g><!--cluster L2--><g id="cluster_L2"><path d="M1703.66,6 L1772.66,6 A3.75,3.75 0 0 1 1775.16,8.5 L1782.16,28.2969 L2206.66,28.2969 A2.5,2.5 0 0 1 2209.16,30.7969 L2209.16,310.09 A2.5,2.5 0 0 1 2206.66,312.59 L1703.66,312.59 A2.5,2.5 0 0 1 1701.16,310.09 L1701.16,8.5 A2.5,2.5 0 0 1 1703.66,6 " fill="none" style="stroke:#000000;stroke-width:1.5;"/><line style="stroke:#000000;stroke-width:1.5;" x1="1701.16" x2="1782.16" y1="28.2969" y2="28.2969"/><text fill="#000000" font-family="sans-serif" font-size="14" font-weight="bold" lengthAdjust="spacing" textLength="68" x="1705.16" y="20.9951">Layer 2s</text></g><!--cluster L2_1--><g id="cluster_L2_1"><rect fill="none" height="239.59" rx="2.5" ry="2.5" style="stroke:#181818;stroke-width:1.0;" width="460" x="1725.16" y="49"/><rect fill="none" height="10" style="stroke:#181818;stroke-width:1.0;" width="15" x="2165.16" y="54"/><rect fill="none" height="2" style="stroke:#181818;stroke-width:1.0;" width="4" x="2163.16" y="56"/><rect fill="none" height="2" style="stroke:#181818;stroke-width:1.0;" width="4" x="2163.16" y="60"/><text fill="#000000" font-family="sans-serif" font-size="14" font-weight="bold" lengthAdjust="spacing" textLength="63" x="1923.66" y="74.9951">Rollup 1</text></g><!--cluster L1--><g id="cluster_L1"><path d="M2198.66,1080.28 L2258.66,1080.28 A3.75,3.75 0 0 1 2261.16,1082.78 L2268.16,1102.5769 L2424.66,1102.5769 A2.5,2.5 0 0 1 2427.16,1105.0769 L2427.16,1413.67 A2.5,2.5 0 0 1 2424.66,1416.17 L2198.66,1416.17 A2.5,2.5 0 0 1 2196.16,1413.67 L2196.16,1082.78 A2.5,2.5 0 0 1 2198.66,1080.28 " fill="none" style="stroke:#000000;stroke-width:1.5;"/><line style="stroke:#000000;stroke-width:1.5;" x1="2196.16" x2="2268.16" y1="1102.5769" y2="1102.5769"/><text fill="#000000" font-family="sans-serif" font-size="14" font-weight="bold" lengthAdjust="spacing" textLength="59" x="2200.16" y="1095.2751">Layer 1</text></g><!--cluster L2_L1--><g id="cluster_L2_L1"><path d="M2230.66,1235.58 L2361.66,1235.58 A3.75,3.75 0 0 1 2364.16,1238.08 L2371.16,1257.8769 L2392.66,1257.8769 A2.5,2.5 0 0 1 2395.16,1260.3769 L2395.16,1381.67 A2.5,2.5 0 0 1 2392.66,1384.17 L2230.66,1384.17 A2.5,2.5 0 0 1 2228.16,1381.67 L2228.16,1238.08 A2.5,2.5 0 0 1 2230.66,1235.58 " fill="none" style="stroke:#000000;stroke-width:1.5;"/><line style="stroke:#000000;stroke-width:1.5;" x1="2228.16" x2="2371.16" y1="1257.8769" y2="1257.8769"/><text fill="#000000" font-family="sans-serif" font-size="14" font-weight="bold" lengthAdjust="spacing" textLength="130" x="2232.16" y="1250.5751">Rollup Contracts</text></g><!--entity Nodes--><g id="elem_Nodes"><rect fill="#F1F1F1" height="46.2969" rx="2.5" ry="2.5" style="stroke:#181818;stroke-width:0.5;" width="165" x="194.66" y="960.83"/><rect fill="#F1F1F1" height="10" style="stroke:#181818;stroke-width:0.5;" width="15" x="339.66" y="965.83"/><rect fill="#F1F1F1" height="2" style="stroke:#181818;stroke-width:0.5;" width="4" x="337.66" y="967.83"/><rect fill="#F1F1F1" height="2" style="stroke:#181818;stroke-width:0.5;" width="4" x="337.66" y="971.83"/><text fill="#000000" font-family="sans-serif" font-size="14" lengthAdjust="spacing" textLength="125" x="209.66" y="993.8251">Sequencer Nodes</text></g><!--entity Broker--><g id="elem_Broker"><rect fill="#F1F1F1" height="46.2969" rx="2.5" ry="2.5" style="stroke:#181818;stroke-width:0.5;" width="86" x="234.16" y="778.04"/><rect fill="#F1F1F1" height="10" style="stroke:#181818;stroke-width:0.5;" width="15" x="300.16" y="783.04"/><rect fill="#F1F1F1" height="2" style="stroke:#181818;stroke-width:0.5;" width="4" x="298.16" y="785.04"/><rect fill="#F1F1F1" height="2" style="stroke:#181818;stroke-width:0.5;" width="4" x="298.16" y="789.04"/><text fill="#000000" font-family="sans-serif" font-size="14" lengthAdjust="spacing" textLength="46" x="249.16" y="811.0351">Broker</text></g><!--entity Marshal--><g id="elem_Marshal"><rect fill="#F1F1F1" height="46.2969" rx="2.5" ry="2.5" style="stroke:#181818;stroke-width:0.5;" width="93" x="524.66" y="778.04"/><rect fill="#F1F1F1" height="10" style="stroke:#181818;stroke-width:0.5;" width="15" x="597.66" y="783.04"/><rect fill="#F1F1F1" height="2" style="stroke:#181818;stroke-width:0.5;" width="4" x="595.66" y="785.04"/><rect fill="#F1F1F1" height="2" style="stroke:#181818;stroke-width:0.5;" width="4" x="595.66" y="789.04"/><text fill="#000000" font-family="sans-serif" font-size="14" lengthAdjust="spacing" textLength="53" x="539.66" y="811.0351">Marshal</text></g><!--entity KeyDB--><g id="elem_KeyDB"><path d="M389.16,788.54 C389.16,778.54 422.16,778.54 422.16,778.54 C422.16,778.54 455.16,778.54 455.16,788.54 L455.16,813.8369 C455.16,823.8369 422.16,823.8369 422.16,823.8369 C422.16,823.8369 389.16,823.8369 389.16,813.8369 L389.16,788.54 " fill="#F1F1F1" style="stroke:#181818;stroke-width:0.5;"/><path d="M389.16,788.54 C389.16,798.54 422.16,798.54 422.16,798.54 C422.16,798.54 455.16,798.54 455.16,788.54 " fill="none" style="stroke:#181818;stroke-width:0.5;"/><text fill="#000000" font-family="sans-serif" font-size="14" lengthAdjust="spacing" textLength="46" x="399.16" y="815.5351">KeyDB</text></g><!--entity DB--><g id="elem_DB"><path d="M2078.16,788.54 C2078.16,778.54 2119.16,778.54 2119.16,778.54 C2119.16,778.54 2160.16,778.54 2160.16,788.54 L2160.16,813.8369 C2160.16,823.8369 2119.16,823.8369 2119.16,823.8369 C2119.16,823.8369 2078.16,823.8369 2078.16,813.8369 L2078.16,788.54 " fill="#F1F1F1" style="stroke:#181818;stroke-width:0.5;"/><path d="M2078.16,788.54 C2078.16,798.54 2119.16,798.54 2119.16,798.54 C2119.16,798.54 2160.16,798.54 2160.16,788.54 " fill="none" style="stroke:#181818;stroke-width:0.5;"/><text fill="#000000" font-family="sans-serif" font-size="14" lengthAdjust="spacing" textLength="62" x="2088.16" y="815.5351">Postgres</text></g><!--entity HSProver--><g id="elem_HSProver"><rect fill="#F1F1F1" height="62.5938" rx="2.5" ry="2.5" style="stroke:#181818;stroke-width:0.5;" width="137" x="2193.66" y="952.69"/><rect fill="#F1F1F1" height="10" style="stroke:#181818;stroke-width:0.5;" width="15" x="2310.66" y="957.69"/><rect fill="#F1F1F1" height="2" style="stroke:#181818;stroke-width:0.5;" width="4" x="2308.66" y="959.69"/><rect fill="#F1F1F1" height="2" style="stroke:#181818;stroke-width:0.5;" width="4" x="2308.66" y="963.69"/><text fill="#000000" font-family="sans-serif" font-size="14" lengthAdjust="spacing" textLength="95" x="2208.66" y="985.6851">HotShot state</text><text fill="#000000" font-family="sans-serif" font-size="14" lengthAdjust="spacing" textLength="97" x="2208.66" y="1001.982">prover service</text></g><!--entity Relay--><g id="elem_Relay"><rect fill="#F1F1F1" height="62.5938" rx="2.5" ry="2.5" style="stroke:#181818;stroke-width:0.5;" width="135" x="2195.66" y="769.89"/><rect fill="#F1F1F1" height="10" style="stroke:#181818;stroke-width:0.5;" width="15" x="2310.66" y="774.89"/><rect fill="#F1F1F1" height="2" style="stroke:#181818;stroke-width:0.5;" width="4" x="2308.66" y="776.89"/><rect fill="#F1F1F1" height="2" style="stroke:#181818;stroke-width:0.5;" width="4" x="2308.66" y="780.89"/><text fill="#000000" font-family="sans-serif" font-size="14" lengthAdjust="spacing" textLength="95" x="2210.66" y="802.8851">HotShot state</text><text fill="#000000" font-family="sans-serif" font-size="14" lengthAdjust="spacing" textLength="85" x="2210.66" y="819.182">relay service</text></g><!--entity Builder--><g id="elem_Builder"><rect fill="#F1F1F1" height="46.2969" rx="2.5" ry="2.5" style="stroke:#181818;stroke-width:0.5;" width="88" x="2154.16" y="532.59"/><rect fill="#F1F1F1" height="10" style="stroke:#181818;stroke-width:0.5;" width="15" x="2222.16" y="537.59"/><rect fill="#F1F1F1" height="2" style="stroke:#181818;stroke-width:0.5;" width="4" x="2220.16" y="539.59"/><rect fill="#F1F1F1" height="2" style="stroke:#181818;stroke-width:0.5;" width="4" x="2220.16" y="543.59"/><text fill="#000000" font-family="sans-serif" font-size="14" lengthAdjust="spacing" textLength="48" x="2169.16" y="565.5851">Builder</text></g><!--entity QS--><g id="elem_QS"><rect fill="#F1F1F1" height="62.5938" rx="2.5" ry="2.5" style="stroke:#181818;stroke-width:0.5;" width="141" x="1711.66" y="524.44"/><rect fill="#F1F1F1" height="10" style="stroke:#181818;stroke-width:0.5;" width="15" x="1832.66" y="529.44"/><rect fill="#F1F1F1" height="2" style="stroke:#181818;stroke-width:0.5;" width="4" x="1830.66" y="531.44"/><rect fill="#F1F1F1" height="2" style="stroke:#181818;stroke-width:0.5;" width="4" x="1830.66" y="535.44"/><text fill="#000000" font-family="sans-serif" font-size="14" lengthAdjust="spacing" textLength="101" x="1726.66" y="557.4351">HotShot Query</text><text fill="#000000" font-family="sans-serif" font-size="14" lengthAdjust="spacing" textLength="50" x="1726.66" y="573.732">Service</text></g><text fill="#000000" font-family="sans-serif" font-size="14" lengthAdjust="spacing" textLength="55" x="1079.66" y="501.8445">Hotshot</text><text fill="#000000" font-family="sans-serif" font-size="14" lengthAdjust="spacing" textLength="47" x="1083.66" y="518.1414">Events</text><text fill="#000000" font-family="sans-serif" font-size="14" lengthAdjust="spacing" textLength="49" x="1082.66" y="534.4382">Stream</text><rect fill="#F1F1F1" height="12" style="stroke:#181818;stroke-width:1.5;" width="12" x="1101.16" y="549.74"/><text fill="#000000" font-family="sans-serif" font-size="14" lengthAdjust="spacing" textLength="58" x="1202.66" y="534.4382">Catchup</text><rect fill="#F1F1F1" height="12" style="stroke:#181818;stroke-width:1.5;" width="12" x="1225.66" y="549.74"/><text fill="#000000" font-family="sans-serif" font-size="14" lengthAdjust="spacing" textLength="37" x="1315.66" y="534.4382">HTTP</text><rect fill="#F1F1F1" height="12" style="stroke:#181818;stroke-width:1.5;" width="12" x="1328.16" y="549.74"/><text fill="#000000" font-family="sans-serif" font-size="14" lengthAdjust="spacing" textLength="44" x="1415.16" y="534.4382">Status</text><rect fill="#F1F1F1" height="12" style="stroke:#181818;stroke-width:1.5;" width="12" x="1431.16" y="549.74"/><text fill="#000000" font-family="sans-serif" font-size="14" lengthAdjust="spacing" textLength="48" x="1626.16" y="534.4382">Submit</text><rect fill="#F1F1F1" height="12" style="stroke:#181818;stroke-width:1.5;" width="12" x="1644.16" y="549.74"/><text fill="#000000" font-family="sans-serif" font-size="14" lengthAdjust="spacing" textLength="41" x="1505.66" y="534.4382">Query</text><rect fill="#F1F1F1" height="12" style="stroke:#181818;stroke-width:1.5;" width="12" x="1520.16" y="549.74"/><!--entity Libp2p--><g id="elem_Libp2p"><rect fill="#F1F1F1" height="46.2969" rx="2.5" ry="2.5" style="stroke:#181818;stroke-width:0.5;" width="86" x="797.16" y="532.59"/><rect fill="#F1F1F1" height="10" style="stroke:#181818;stroke-width:0.5;" width="15" x="863.16" y="537.59"/><rect fill="#F1F1F1" height="2" style="stroke:#181818;stroke-width:0.5;" width="4" x="861.16" y="539.59"/><rect fill="#F1F1F1" height="2" style="stroke:#181818;stroke-width:0.5;" width="4" x="861.16" y="543.59"/><text fill="#000000" font-family="sans-serif" font-size="14" lengthAdjust="spacing" textLength="46" x="812.16" y="565.5851">Libp2p</text></g><!--entity CDN Client--><g id="elem_CDN Client"><rect fill="#F1F1F1" height="46.2969" rx="2.5" ry="2.5" style="stroke:#181818;stroke-width:0.5;" width="114" x="918.16" y="532.59"/><rect fill="#F1F1F1" height="10" style="stroke:#181818;stroke-width:0.5;" width="15" x="1012.16" y="537.59"/><rect fill="#F1F1F1" height="2" style="stroke:#181818;stroke-width:0.5;" width="4" x="1010.16" y="539.59"/><rect fill="#F1F1F1" height="2" style="stroke:#181818;stroke-width:0.5;" width="4" x="1010.16" y="543.59"/><text fill="#000000" font-family="sans-serif" font-size="14" lengthAdjust="spacing" textLength="74" x="933.16" y="565.5851">CDN Client</text></g><!--entity Signer--><g id="elem_Signer"><rect fill="#F1F1F1" height="46.2969" rx="2.5" ry="2.5" style="stroke:#181818;stroke-width:0.5;" width="124" x="1887.16" y="532.59"/><rect fill="#F1F1F1" height="10" style="stroke:#181818;stroke-width:0.5;" width="15" x="1991.16" y="537.59"/><rect fill="#F1F1F1" height="2" style="stroke:#181818;stroke-width:0.5;" width="4" x="1989.16" y="539.59"/><rect fill="#F1F1F1" height="2" style="stroke:#181818;stroke-width:0.5;" width="4" x="1989.16" y="543.59"/><text fill="#000000" font-family="sans-serif" font-size="14" lengthAdjust="spacing" textLength="84" x="1902.16" y="565.5851">State Signer</text></g><!--entity L2_1_RPC--><g id="elem_L2_1_RPC"><rect fill="#F1F1F1" height="46.2969" rx="2.5" ry="2.5" style="stroke:#181818;stroke-width:0.5;" width="172" x="1878.16" y="226.29"/><rect fill="#F1F1F1" height="10" style="stroke:#181818;stroke-width:0.5;" width="15" x="2030.16" y="231.29"/><rect fill="#F1F1F1" height="2" style="stroke:#181818;stroke-width:0.5;" width="4" x="2028.16" y="233.29"/><rect fill="#F1F1F1" height="2" style="stroke:#181818;stroke-width:0.5;" width="4" x="2028.16" y="237.29"/><text fill="#000000" font-family="sans-serif" font-size="14" lengthAdjust="spacing" textLength="132" x="1893.16" y="259.2851">API (e.g. JSON-RPC)</text></g><!--entity L2_1_Exec--><g id="elem_L2_1_Exec"><rect fill="#F1F1F1" height="46.2969" rx="2.5" ry="2.5" style="stroke:#181818;stroke-width:0.5;" width="101" x="1741.66" y="226.29"/><rect fill="#F1F1F1" height="10" style="stroke:#181818;stroke-width:0.5;" width="15" x="1822.66" y="231.29"/><rect fill="#F1F1F1" height="2" style="stroke:#181818;stroke-width:0.5;" width="4" x="1820.66" y="233.29"/><rect fill="#F1F1F1" height="2" style="stroke:#181818;stroke-width:0.5;" width="4" x="1820.66" y="237.29"/><text fill="#000000" font-family="sans-serif" font-size="14" lengthAdjust="spacing" textLength="61" x="1756.66" y="259.2851">Executor</text></g><!--entity L2_1_Prover--><g id="elem_L2_1_Prover"><rect fill="#F1F1F1" height="46.2969" rx="2.5" ry="2.5" style="stroke:#181818;stroke-width:0.5;" width="84" x="2085.16" y="226.29"/><rect fill="#F1F1F1" height="10" style="stroke:#181818;stroke-width:0.5;" width="15" x="2149.16" y="231.29"/><rect fill="#F1F1F1" height="2" style="stroke:#181818;stroke-width:0.5;" width="4" x="2147.16" y="233.29"/><rect fill="#F1F1F1" height="2" style="stroke:#181818;stroke-width:0.5;" width="4" x="2147.16" y="237.29"/><text fill="#000000" font-family="sans-serif" font-size="14" lengthAdjust="spacing" textLength="44" x="2100.16" y="259.2851">Prover</text></g><!--entity L2_1_State--><g id="elem_L2_1_State"><rect fill="#F1F1F1" height="46.2969" rx="2.5" ry="2.5" style="stroke:#181818;stroke-width:0.5;" width="101" x="1913.66" y="103"/><rect fill="#F1F1F1" height="10" style="stroke:#181818;stroke-width:0.5;" width="15" x="1994.66" y="108"/><rect fill="#F1F1F1" height="2" style="stroke:#181818;stroke-width:0.5;" width="4" x="1992.66" y="110"/><rect fill="#F1F1F1" height="2" style="stroke:#181818;stroke-width:0.5;" width="4" x="1992.66" y="114"/><text fill="#000000" font-family="sans-serif" font-size="14" lengthAdjust="spacing" textLength="61" x="1928.66" y="135.9951">State DB</text></g><!--entity LC_L1--><g id="elem_LC_L1"><rect fill="#F1F1F1" height="46.2969" rx="2.5" ry="2.5" style="stroke:#181818;stroke-width:0.5;" width="179" x="2211.66" y="1134.28"/><rect fill="#F1F1F1" height="10" style="stroke:#181818;stroke-width:0.5;" width="15" x="2370.66" y="1139.28"/><rect fill="#F1F1F1" height="2" style="stroke:#181818;stroke-width:0.5;" width="4" x="2368.66" y="1141.28"/><rect fill="#F1F1F1" height="2" style="stroke:#181818;stroke-width:0.5;" width="4" x="2368.66" y="1145.28"/><text fill="#000000" font-family="sans-serif" font-size="14" lengthAdjust="spacing" textLength="139" x="2226.66" y="1167.2751">Light Client Contract</text></g><!--entity L2_1_L1--><g id="elem_L2_1_L1"><rect fill="#F1F1F1" height="62.5938" rx="2.5" ry="2.5" style="stroke:#181818;stroke-width:0.5;" width="99" x="2271.66" y="1297.58"/><rect fill="#F1F1F1" height="10" style="stroke:#181818;stroke-width:0.5;" width="15" x="2350.66" y="1302.58"/><rect fill="#F1F1F1" height="2" style="stroke:#181818;stroke-width:0.5;" width="4" x="2348.66" y="1304.58"/><rect fill="#F1F1F1" height="2" style="stroke:#181818;stroke-width:0.5;" width="4" x="2348.66" y="1308.58"/><text fill="#000000" font-family="sans-serif" font-size="14" lengthAdjust="spacing" textLength="56" x="2286.66" y="1330.5751">Rollup 1</text><text fill="#000000" font-family="sans-serif" font-size="14" lengthAdjust="spacing" textLength="59" x="2286.66" y="1346.872">Contract</text></g><!--entity User--><g id="elem_User"><ellipse cx="2379.16" cy="547.59" fill="#F1F1F1" rx="12" ry="12" style="stroke:#181818;stroke-width:0.5;"/><line style="stroke:#181818;stroke-width:0.5;" x1="2367.16" x2="2391.16" y1="561.59" y2="561.59"/><text fill="#000000" font-family="sans-serif" font-size="14" lengthAdjust="spacing" textLength="32" x="2363.16" y="576.5851">User</text></g><!--link Broker to KeyDB--><g id="link_Broker_KeyDB"><path d="M320.27,801.19 C342.31,801.19 362.71,801.19 383.12,801.19 " fill="none" id="Broker-to-KeyDB" style="stroke:#181818;stroke-width:1.0;"/><polygon fill="#181818" points="389.12,801.19,380.12,797.19,384.12,801.19,380.12,805.19,389.12,801.19" style="stroke:#181818;stroke-width:1.0;"/><text fill="#000000" font-family="sans-serif" font-size="13" lengthAdjust="spacing" textLength="33" x="338.16" y="794.2569">state</text></g><!--link KeyDB to Marshal--><g id="link_KeyDB_Marshal"><path d="M455.6,801.19 C475.85,801.19 495.98,801.19 518.28,801.19 " fill="none" id="KeyDB-to-Marshal" style="stroke:#181818;stroke-width:1.0;"/><polygon fill="#181818" points="524.28,801.19,515.28,797.19,519.28,801.19,515.28,805.19,524.28,801.19" style="stroke:#181818;stroke-width:1.0;"/><text fill="#000000" font-family="sans-serif" font-size="13" lengthAdjust="spacing" textLength="33" x="473.41" y="794.2569">state</text></g><!--link CDN to Nodes--><g id="link_CDN_Nodes"><path d="M649.4656,854.2923 C649.2095,855.3755 649.8568,852.2238 649.5647,853.3042 C648.9804,855.4648 648.3218,857.6153 647.5803,859.7375 C644.6144,868.2263 640.3225,876.2625 634.16,882.69 C596.51,921.95 458.8968,952.0367 365.6968,968.6567 " fill="none" id="CDN-Nodes" style="stroke:#181818;stroke-width:1.0;"/><polygon fill="#181818" points="650.7573,848.433,644.9135,856.3608,649.6809,853.3157,652.7259,858.0831,650.7573,848.433" style="stroke:#181818;stroke-width:1.0;"/><polygon fill="#181818" points="359.79,969.71,369.3525,972.0679,364.7123,968.8322,367.948,964.1921,359.79,969.71" style="stroke:#181818;stroke-width:1.0;"/><text fill="#000000" font-family="sans-serif" font-size="13" lengthAdjust="spacing" textLength="68" x="622.16" y="903.7569">consensus</text><text fill="#000000" font-family="sans-serif" font-size="13" lengthAdjust="spacing" textLength="66" x="623.16" y="918.8897">messages</text></g><!--reverse link Catchup to Nodes--><g id="link_Catchup_Nodes"><path d="M1221.2587,565.347 C1208.4287,575.297 1182.27,593.89 1152.16,602.89 C1052.57,632.67 289.51,581.43 218.16,657.04 C149.33,729.97 191.81,785.92 218.16,882.69 C226.12,911.92 245.01,941.33 259.29,960.67 " fill="none" id="Catchup-backto-Nodes" style="stroke:#181818;stroke-width:1.0;"/><polygon fill="#181818" points="1226,561.67,1216.4368,564.0246,1222.0489,564.7342,1221.3394,570.3463,1226,561.67" style="stroke:#181818;stroke-width:1.0;"/></g><!--link Libp2p to Nodes--><g id="link_Libp2p_Nodes"><path d="M790.83,559.4655 C635.65,568.4155 120.43,602.06 72.16,657.04 C6,732.4 21.83,795.95 72.16,882.69 C97.72,926.72 143.5436,950.0287 188.5536,964.1087 " fill="none" id="Libp2p-Nodes" style="stroke:#181818;stroke-width:1.0;"/><polygon fill="#181818" points="796.82,559.12,787.6046,555.6448,791.8283,559.4079,788.0652,563.6316,796.82,559.12" style="stroke:#181818;stroke-width:1.0;"/><polygon fill="#181818" points="194.28,965.9,186.8847,959.3955,189.508,964.4072,184.4963,967.0306,194.28,965.9" style="stroke:#181818;stroke-width:1.0;"/><text fill="#000000" font-family="sans-serif" font-size="13" lengthAdjust="spacing" textLength="68" x="73.16" y="798.2569">consensus</text><text fill="#000000" font-family="sans-serif" font-size="13" lengthAdjust="spacing" textLength="66" x="74.16" y="813.3897">messages</text></g><!--link CDN Client to CDN--><g id="link_CDN Client_CDN"><path d="M940.6637,582.8282 C901.4287,612.4882 834.795,662.865 772.3775,710.055 C741.1688,733.65 712.2106,755.5438 690.6516,771.8438 C679.872,779.9938 670.9423,786.7453 664.5058,791.6119 C663.7013,792.2202 662.9357,792.7991 662.2103,793.3475 C662.0289,793.4846 666.636,790.0012 666.4597,790.1345 " fill="none" id="CDN Client-CDN" style="stroke:#181818;stroke-width:1.0;"/><polygon fill="#181818" points="945.45,579.21,935.8584,581.4465,941.4614,582.2252,940.6827,587.8282,945.45,579.21" style="stroke:#181818;stroke-width:1.0;"/><polygon fill="#181818" points="661.6738,793.7532,671.2652,791.5158,665.6621,790.7376,666.4403,785.1345,661.6738,793.7532" style="stroke:#181818;stroke-width:1.0;"/><text fill="#000000" font-family="sans-serif" font-size="13" lengthAdjust="spacing" textLength="68" x="889.16" y="630.1069">consensus</text><text fill="#000000" font-family="sans-serif" font-size="13" lengthAdjust="spacing" textLength="66" x="890.16" y="645.2397">messages</text></g><!--link QS to DB--><g id="link_QS_DB"><path d="M1824.5,587.33 C1893.45,637.13 2023.4559,731.0571 2083.8259,774.6571 " fill="none" id="QS-to-DB" style="stroke:#181818;stroke-width:1.0;"/><polygon fill="#181818" points="2088.69,778.17,2083.7358,769.6579,2084.6366,775.2426,2079.0519,776.1434,2088.69,778.17" style="stroke:#181818;stroke-width:1.0;"/></g><!--link QS to APIs--><!--link Signer to Relay--><g id="link_Signer_Relay"><path d="M1977.59,579.33 C1988.84,587.52 2002.17,596.36 2015.16,602.89 C2083.38,637.15 2118.7,609.17 2178.16,657.04 C2215.08,686.76 2237.3683,731.5725 2250.2083,763.9525 " fill="none" id="Signer-to-Relay" style="stroke:#181818;stroke-width:1.0;"/><polygon fill="#181818" points="2252.42,769.53,2252.8208,759.6893,2250.5769,764.8821,2245.3841,762.6382,2252.42,769.53" style="stroke:#181818;stroke-width:1.0;"/><text fill="#000000" font-family="sans-serif" font-size="13" lengthAdjust="spacing" textLength="33" x="2165.16" y="637.6069">state</text></g><!--link Seq to Builder--><g id="link_Seq_Builder"><path d="M2054.3301,555.74 C2054.4168,555.74 2054.5041,555.74 2054.592,555.74 C2054.9437,555.74 2055.3051,555.74 2055.6758,555.74 C2057.159,555.74 2058.7929,555.74 2060.5611,555.74 C2067.6341,555.74 2076.8569,555.74 2087.1813,555.74 C2107.83,555.74 2126.885,555.74 2147.96,555.74 " fill="none" id="Seq-to-Builder" style="stroke:#181818;stroke-width:1.0;"/><polygon fill="#181818" points="2153.96,555.74,2144.96,551.74,2148.96,555.74,2144.96,559.74,2153.96,555.74" style="stroke:#181818;stroke-width:1.0;"/><text fill="#000000" font-family="sans-serif" font-size="13" lengthAdjust="spacing" textLength="71" x="2064.84" y="548.8069">claim block</text></g><!--reverse link Seq to Builder--><g id="link_Seq_Builder"><path d="M2059.1652,565.0592 C2059.251,565.1176 2054.5089,561.8825 2054.5958,561.9414 C2054.7695,562.059 2054.9453,562.1776 2055.1232,562.2969 C2056.5463,563.2518 2058.1013,564.2584 2059.76,565.2788 C2066.395,569.36 2074.69,573.66 2082.84,575.74 C2105.98,581.64 2132.17,577.91 2153.74,572.15 " fill="none" id="Seq-backto-Builder" style="stroke:#181818;stroke-width:1.0;"/><polygon fill="#181818" points="2054.2086,561.6781,2059.3895,570.0541,2058.3391,564.4957,2063.8976,563.4452,2054.2086,561.6781" style="stroke:#181818;stroke-width:1.0;"/><text fill="#000000" font-family="sans-serif" font-size="13" lengthAdjust="spacing" textLength="33" x="2083.84" y="571.8069">block</text></g><!--link Relay to HSProver--><g id="link_Relay_HSProver"><path d="M2262.99,832.86 C2262.81,866.2 2262.5543,913.1801 2262.3643,946.4601 " fill="none" id="Relay-to-HSProver" style="stroke:#181818;stroke-width:1.0;"/><polygon fill="#181818" points="2262.33,952.46,2266.3813,943.483,2262.3585,947.4601,2258.3814,943.4373,2262.33,952.46" style="stroke:#181818;stroke-width:1.0;"/><text fill="#000000" font-family="sans-serif" font-size="13" lengthAdjust="spacing" textLength="33" x="2263.16" y="911.2569">state</text></g><!--link Events to Builder--><g id="link_Events_Builder"><path d="M1107.9,549.9 C1111.35,525.49 1128.24,431.15 1187.16,394.62 C1269.79,343.39 1973.99,353.66 2062.16,394.62 C2123.75,423.22 2164.7221,489.6466 2184.1421,526.9966 " fill="none" id="Events-to-Builder" style="stroke:#181818;stroke-width:1.0;"/><polygon fill="#181818" points="2186.91,532.32,2186.3071,522.4896,2184.6034,527.8838,2179.2092,526.1801,2186.91,532.32" style="stroke:#181818;stroke-width:1.0;"/><text fill="#000000" font-family="sans-serif" font-size="13" lengthAdjust="spacing" textLength="79" x="1269.66" y="349.1569">transactions</text></g><!--reverse link L2_1_RPC to User--><g id="link_L2_1_RPC_User"><path d="M1994.9875,276.6853 C2014.7875,292.5053 2038.68,309.09 2067.16,320.59 C2096.43,332.41 2324.84,346.28 2347.16,368.59 C2390.65,412.06 2387.6,491.71 2382.86,531.23 " fill="none" id="L2_1_RPC-backto-User" style="stroke:#181818;stroke-width:1.0;"/><polygon fill="#181818" points="1990.3,272.94,1994.8344,281.6829,1994.2063,276.0611,1999.8281,275.4329,1990.3,272.94" style="stroke:#181818;stroke-width:1.0;"/><text fill="#000000" font-family="sans-serif" font-size="13" lengthAdjust="spacing" textLength="81" x="2329.66" y="341.6569">Transactions</text><text fill="#000000" font-family="sans-serif" font-size="13" lengthAdjust="spacing" textLength="86" x="2327.16" y="356.7897">State queries</text></g><!--link L2_1_RPC to Submit--><g id="link_L2_1_RPC_Submit"><path d="M1936.54,272.81 C1916.41,288.15 1887.91,307.95 1860.16,320.59 C1785.22,354.76 1736.51,307.6 1681.16,368.59 C1631.41,423.42 1644.3417,520.6036 1648.2917,544.0136 " fill="none" id="L2_1_RPC-to-Submit" style="stroke:#181818;stroke-width:1.0;"/><polygon fill="#181818" points="1649.29,549.93,1651.7368,540.3899,1648.4581,544.9997,1643.8483,541.721,1649.29,549.93" style="stroke:#181818;stroke-width:1.0;"/><text fill="#000000" font-family="sans-serif" font-size="13" lengthAdjust="spacing" textLength="74" x="1835.16" y="341.6569">Transaction</text><text fill="#000000" font-family="sans-serif" font-size="13" lengthAdjust="spacing" textLength="67" x="1838.66" y="356.7897">Rollup 1 ID</text></g><!--reverse link L2_1_Exec to Query--><g id="link_L2_1_Exec_Query"><path d="M1735.8095,274.9843 C1694.6595,294.9043 1643.12,325.19 1606.16,368.59 C1554.85,428.85 1531.94,526.98 1527.14,549.86 " fill="none" id="L2_1_Exec-backto-Query" style="stroke:#181818;stroke-width:1.0;"/><polygon fill="#181818" points="1741.21,272.37,1731.3664,272.6911,1736.7096,274.5486,1734.8521,279.8918,1741.21,272.37" style="stroke:#181818;stroke-width:1.0;"/><text fill="#000000" font-family="sans-serif" font-size="13" lengthAdjust="spacing" textLength="34" x="1645.16" y="349.1569">Block</text></g><!--link HSProver to LC_L1--><g id="link_HSProver_LC_L1"><path d="M2269.13,1015.63 C2276.87,1049.63 2287.8288,1097.8295 2294.7188,1128.1095 " fill="none" id="HSProver-to-LC_L1" style="stroke:#181818;stroke-width:1.0;"/><polygon fill="#181818" points="2296.05,1133.96,2297.9535,1124.2968,2294.9406,1129.0846,2290.1529,1126.0718,2296.05,1133.96" style="stroke:#181818;stroke-width:1.0;"/><text fill="#000000" font-family="sans-serif" font-size="13" lengthAdjust="spacing" textLength="127" x="2280.16" y="1060.3469">HotShot state proof</text></g><!--link L2_1_Prover to L2_1_L1--><g id="link_L2_1_Prover_L2_1_L1"><path d="M2169.6,255.8 C2243.07,265.98 2389.28,290.58 2422.16,328.59 C2488.35,405.11 2448.16,453.57 2448.16,554.74 C2448.16,554.74 2448.16,554.74 2448.16,1158.43 C2448.16,1216.15 2405.0242,1262.9768 2368.0742,1293.5268 " fill="none" id="L2_1_Prover-to-L2_1_L1" style="stroke:#181818;stroke-width:1.0;"/><polygon fill="#181818" points="2363.45,1297.35,2372.9351,1294.6979,2367.3035,1294.164,2367.8374,1288.5324,2363.45,1297.35" style="stroke:#181818;stroke-width:1.0;"/><text fill="#000000" font-family="sans-serif" font-size="13" lengthAdjust="spacing" textLength="112" x="2449.16" y="911.2569">Rollup state proof</text></g><!--link LC_L1 to L2_L1--><g id="link_LC_L1_L2_L1"><path d="M2280.2,1180.89 C2271.14,1191.8 2261.24,1205.56 2255.16,1219.58 C2253.9637,1222.3381 2252.8428,1225.1668 2251.7923,1228.0468 C2251.2671,1229.4868 2250.7595,1230.9397 2250.269,1232.403 C2250.0237,1233.1346 2249.7827,1233.8689 2249.5459,1234.6055 C2249.4867,1234.7897 2251.247,1229.2564 2251.1883,1229.4408 " fill="none" id="LC_L1-to-L2_L1" style="stroke:#181818;stroke-width:1.0;"/><polygon fill="#181818" points="2249.3691,1235.1584,2255.9096,1227.7949,2250.8851,1230.3938,2248.2862,1225.3692,2249.3691,1235.1584" style="stroke:#181818;stroke-width:1.0;"/></g><!--link L2_1_State to L2_1_RPC--><g id="link_L2_1_State_L2_1_RPC"><path d="M1964.16,149.68 C1964.16,171.46 1964.16,198.29 1964.16,220.03 " fill="none" id="L2_1_State-to-L2_1_RPC" style="stroke:#181818;stroke-width:1.0;"/><polygon fill="#181818" points="1964.16,226.03,1968.16,217.03,1964.16,221.03,1960.16,217.03,1964.16,226.03" style="stroke:#181818;stroke-width:1.0;"/><text fill="#000000" font-family="sans-serif" font-size="13" lengthAdjust="spacing" textLength="69" x="1965.16" y="192.3569">Read state</text></g><!--reverse link L2_1_State to L2_1_Exec--><g id="link_L2_1_State_L2_1_Exec"><path d="M1924.2489,152.8646 C1910.3989,161.9246 1899.43,169.3 1885.16,179.29 C1863.58,194.42 1839.73,212.18 1821.59,225.91 " fill="none" id="L2_1_State-backto-L2_1_Exec" style="stroke:#181818;stroke-width:1.0;"/><polygon fill="#181818" points="1929.27,149.58,1919.5486,151.1594,1925.0857,152.3171,1923.928,157.8543,1929.27,149.58" style="stroke:#181818;stroke-width:1.0;"/><text fill="#000000" font-family="sans-serif" font-size="13" lengthAdjust="spacing" textLength="69" x="1886.16" y="192.3569">Write state</text></g><!--link L2_1_State to L2_1_Prover--><g id="link_L2_1_State_L2_1_Prover"><path d="M2000.1,149.73 C2013.8,158.63 2029.41,169.14 2043.16,179.29 C2063.22,194.11 2080.3595,208.1428 2096.6795,222.0228 " fill="none" id="L2_1_State-to-L2_1_Prover" style="stroke:#181818;stroke-width:1.0;"/><polygon fill="#181818" points="2101.25,225.91,2096.9857,217.0322,2097.4412,222.6707,2091.8027,223.1262,2101.25,225.91" style="stroke:#181818;stroke-width:1.0;"/><text fill="#000000" font-family="sans-serif" font-size="13" lengthAdjust="spacing" textLength="71" x="2065.16" y="192.3569">Read State</text></g><!--SRC=[XLTBRziu4BxhLmnySNAmWNWVXs1HeB43f1klwbZ95kXw4T0IRHEHIPMaaXgB_FSTlYJAbjiU0ddupUkR1zcAv2zaIs5mgof9bHAGqMyrvJcLa5Bz9kJB08WAt_1V0lWl5_jASCer32AuAAXoOFDbWPKtFvsbNhMhVYF52vKz1tyHgNQaR4uAeicQA0htz32xiUBtv3r9XiRod1n4hHDd34OV7EWQb2QQ9lQ7aNgRGMwZX3z6TOLdQEOQtND5kQhLYk-H2mnS9KbrdY6RR2Ds-JM13XP2wQtqbFYO6sDTsYm4HRqS3Uw4pdP2mqDDvM75CofVMUvq7h98vRrF-UFY4qRGWcmKGch6hM65XbVyzXMnc7Mc9ILxbvOLzQbDYSvtTTLtTFVukEYJPqXutMiigzTxfljERBO_piqt9UFRGJV15ZDdwsfIdJaScEQPbWo_1v6dFbSc0mePst9VTlTvmlvxSgPujkTMl9BY5TLKLCExR665Fz6Kj2I7ZkBII8wrRcfM5Zv6_stcn3MxxtLVmCu0EABwPo3c2V4_6fVXD9qPD__iM55G_YzYtJP8i5MD9Wx2q7m6G4at6iMEpYG-ASGRnnFJmCamy7ryYZDFYfmedGI0Fx3aX54tepMIRBiphZmh67z9s1xMfSXV4Wkt0OPo15tqtJY9jiYns6-onCqDn7wq95oHN3FaA_5I68N4wRTh7qExQd2X8MJYLiTyShfrbw8iwmgkFE3vgdzp87TmGSVRCVoPVKv7oyNqij5unbyzEhVVQLvh8HkO4VJW74aDAchXticPtRIEhIIQbc5FPfC0dvo5f06IOeCVKUU9kJfbRcwwm3SpJ0N7ukJQeQVFywlkblQU0YpKutb-XkzGbXNlMZPPUzjd4pxLcVnC9ptLIOEElHqHpFG1dd1h9EOFZ9xihFlompKyHhrfzh-f5TvCafbP1YxmfvqR41ie6Nz1uTKOPu0VS7oORNLbLtYtouSsPYs0adndEbYnVLrgmgceLNc0YusG7eHJA4sGWfVc3mM69dSun9S8eBomGIH94tCOS7TpT5DOyL01-3GByMjHHT5FnXYE0lJ_HcJHYTh4gyAzFEvujvUHNv_DLA3l6pkuGpWwdvm_IgEZNdf_6KTFCBmkYZh7BMqt1AwLaMTDI5mYj40bXIL0xJYHiGUPH2NDANkbmG31bAWTSHgA53E0j83UKIP1MYAxB8JLsDJ0ZWmcrBcgJD1YSowzNplf2MKRACyPpxNfS2pf7hkgRI0Rj_cOOz-5RWSCWcsmHnjVbfDDA1- -2E3YeHQotiEKudDYmtACx3AOtL6EiGfyd9blxwFrFZxjl93uXp3CcBNljMxIjlg-2nmiS_VteWMa7f3s0dff-stitIbB6jGLFZIn_iwveyTdz_L-93qKMIthWW9nuHtbPOlNbD9k6-zzBRGM-yZzxy6zkVJTBiJE8WNaZbqJYQzgMunZMh6z95fjHYmi06zn37-RgXv2JgOlcMbB5tnOAcHB64S6zCui2cyBBhxUBoznAk2Du59ejyj6ahfm1ivfVbu-NNQPCKN25L9GJLYfsjLZdqhH7MPwm93W7WhjNeZsHC1zmHr7Ow1lg7Cci_3syF-t6RPBkta2oNWPUSJ9wQJfoQE3DDYSzoYvNWWzVA8QZgFdc3anGllK2jBQue-b7li_]--></g></svg>