<?xml version="1.0" encoding="us-ascii" standalone="no"?><svg xmlns="http://www.w3.org/2000/svg" xmlns:xlink="http://www.w3.org/1999/xlink" contentStyleType="text/css" height="1444px" preserveAspectRatio="none" style="width:2620px;height:1444px;background:#FFFFFF;" version="1.1" viewBox="0 0 2620 1444" width="2620px" zoomAndPan="magnify"><defs/><g><!--cluster Network--><g id="cluster_Network"><path d="M8.5,455.59 L245.5,455.59 A3.75,3.75 0 0 1 248,458.09 L255,477.8869 L2010.5,477.8869 A2.5,2.5 0 0 1 2013,480.3869 L2013,1108.28 A2.5,2.5 0 0 1 2010.5,1110.78 L8.5,1110.78 A2.5,2.5 0 0 1 6,1108.28 L6,458.09 A2.5,2.5 0 0 1 8.5,455.59 " fill="none" style="stroke:#000000;stroke-width:1.5;"/><line style="stroke:#000000;stroke-width:1.5;" x1="6" x2="255" y1="477.8869" y2="477.8869"/><text fill="#000000" font-family="sans-serif" font-size="14" font-weight="bold" lengthAdjust="spacing" textLength="236" x="10" y="470.5851">Espresso Sequencer Network</text></g><!--cluster CDN--><g id="cluster_CDN"><path d="M40.5,760.18 L74.5,760.18 A3.75,3.75 0 0 1 77,762.68 L84,782.4769 L486.5,782.4769 A2.5,2.5 0 0 1 489,784.9769 L489,889.98 A2.5,2.5 0 0 1 486.5,892.48 L40.5,892.48 A2.5,2.5 0 0 1 38,889.98 L38,762.68 A2.5,2.5 0 0 1 40.5,760.18 " fill="none" style="stroke:#000000;stroke-width:1.5;"/><line style="stroke:#000000;stroke-width:1.5;" x1="38" x2="84" y1="782.4769" y2="782.4769"/><text fill="#000000" font-family="sans-serif" font-size="14" font-weight="bold" lengthAdjust="spacing" textLength="33" x="42" y="775.1751">CDN</text></g><!--cluster Seq--><g id="cluster_Seq"><path d="M531.5,506.59 L664.5,506.59 A3.75,3.75 0 0 1 667,509.09 L674,528.8869 L1806.5,528.8869 A2.5,2.5 0 0 1 1809,531.3869 L1809,1076.28 A2.5,2.5 0 0 1 1806.5,1078.78 L531.5,1078.78 A2.5,2.5 0 0 1 529,1076.28 L529,509.09 A2.5,2.5 0 0 1 531.5,506.59 " fill="none" style="stroke:#000000;stroke-width:1.5;"/><line style="stroke:#000000;stroke-width:1.5;" x1="529" x2="674" y1="528.8869" y2="528.8869"/><text fill="#000000" font-family="sans-serif" font-size="14" font-weight="bold" lengthAdjust="spacing" textLength="132" x="533" y="521.5851">Sequencer Node</text></g><!--cluster APIs--><g id="cluster_APIs"><rect fill="none" height="266.04" rx="2.5" ry="2.5" style="stroke:#181818;stroke-width:1.0;" width="543.5" x="861.5" y="634.74"/><rect fill="none" height="10" style="stroke:#181818;stroke-width:1.0;" width="15" x="1385" y="639.74"/><rect fill="none" height="2" style="stroke:#181818;stroke-width:1.0;" width="4" x="1383" y="641.74"/><rect fill="none" height="2" style="stroke:#181818;stroke-width:1.0;" width="4" x="1383" y="645.74"/><text fill="#000000" font-family="sans-serif" font-size="14" font-weight="bold" lengthAdjust="spacing" textLength="34" x="1116.25" y="660.7351">APIs</text></g><!--cluster Networking--><g id="cluster_Networking"><rect fill="none" height="116.3" rx="2.5" ry="2.5" style="stroke:#181818;stroke-width:1.0;" width="267" x="561" y="557.59"/><rect fill="none" height="10" style="stroke:#181818;stroke-width:1.0;" width="15" x="808" y="562.59"/><rect fill="none" height="2" style="stroke:#181818;stroke-width:1.0;" width="4" x="806" y="564.59"/><rect fill="none" height="2" style="stroke:#181818;stroke-width:1.0;" width="4" x="806" y="568.59"/><text fill="#000000" font-family="sans-serif" font-size="14" font-weight="bold" lengthAdjust="spacing" textLength="91" x="649" y="583.5851">Networking</text></g><!--cluster State--><g id="cluster_State"><path d="M1440.5,557.59 L1482.5,557.59 A3.75,3.75 0 0 1 1485,560.09 L1492,579.8869 L1766.5,579.8869 A2.5,2.5 0 0 1 1769,582.3869 L1769,671.39 A2.5,2.5 0 0 1 1766.5,673.89 L1440.5,673.89 A2.5,2.5 0 0 1 1438,671.39 L1438,560.09 A2.5,2.5 0 0 1 1440.5,557.59 " fill="none" style="stroke:#000000;stroke-width:1.5;"/><line style="stroke:#000000;stroke-width:1.5;" x1="1438" x2="1492" y1="579.8869" y2="579.8869"/><text fill="#000000" font-family="sans-serif" font-size="14" font-weight="bold" lengthAdjust="spacing" textLength="41" x="1442" y="572.5851">State</text></g><!--cluster L2s--><g id="cluster_L2s"><path d="M1450.5,6 L1591.5,6 A3.75,3.75 0 0 1 1594,8.5 L1601,28.2969 L1953.5,28.2969 A2.5,2.5 0 0 1 1956,30.7969 L1956,309.09 A2.5,2.5 0 0 1 1953.5,311.59 L1450.5,311.59 A2.5,2.5 0 0 1 1448,309.09 L1448,8.5 A2.5,2.5 0 0 1 1450.5,6 " fill="none" style="stroke:#000000;stroke-width:1.5;"/><line style="stroke:#000000;stroke-width:1.5;" x1="1448" x2="1601" y1="28.2969" y2="28.2969"/><text fill="#000000" font-family="sans-serif" font-size="14" font-weight="bold" lengthAdjust="spacing" textLength="140" x="1452" y="20.9951">Layer 2s / Rollups</text></g><!--cluster L2--><g id="cluster_L2"><rect fill="none" height="238.59" rx="2.5" ry="2.5" style="stroke:#181818;stroke-width:1.0;" width="460" x="1472" y="49"/><rect fill="none" height="10" style="stroke:#181818;stroke-width:1.0;" width="15" x="1912" y="54"/><rect fill="none" height="2" style="stroke:#181818;stroke-width:1.0;" width="4" x="1910" y="56"/><rect fill="none" height="2" style="stroke:#181818;stroke-width:1.0;" width="4" x="1910" y="60"/><text fill="#000000" font-family="sans-serif" font-size="14" font-weight="bold" lengthAdjust="spacing" textLength="64" x="1670" y="74.9951">Rollup N</text></g><!--cluster L1--><g id="cluster_L1"><path d="M1894.5,1237.78 L2035.5,1237.78 A3.75,3.75 0 0 1 2038,1240.28 L2045,1260.0769 L2491.5,1260.0769 A2.5,2.5 0 0 1 2494,1262.5769 L2494,1434.87 A2.5,2.5 0 0 1 2491.5,1437.37 L1894.5,1437.37 A2.5,2.5 0 0 1 1892,1434.87 L1892,1240.28 A2.5,2.5 0 0 1 1894.5,1237.78 " fill="none" style="stroke:#000000;stroke-width:1.5;"/><line style="stroke:#000000;stroke-width:1.5;" x1="1892" x2="2045" y1="1260.0769" y2="1260.0769"/><text fill="#000000" font-family="sans-serif" font-size="14" font-weight="bold" lengthAdjust="spacing" textLength="140" x="1896" y="1252.7751">Ethereum Layer 1</text></g><!--cluster Esp_L1--><g id="cluster_Esp_L1"><path d="M1918.5,1280.78 L2074.5,1280.78 A3.75,3.75 0 0 1 2077,1283.28 L2084,1303.0769 L2195.5,1303.0769 A2.5,2.5 0 0 1 2198,1305.5769 L2198,1410.87 A2.5,2.5 0 0 1 2195.5,1413.37 L1918.5,1413.37 A2.5,2.5 0 0 1 1916,1410.87 L1916,1283.28 A2.5,2.5 0 0 1 1918.5,1280.78 " fill="none" style="stroke:#000000;stroke-width:1.5;"/><line style="stroke:#000000;stroke-width:1.5;" x1="1916" x2="2084" y1="1303.0769" y2="1303.0769"/><text fill="#000000" font-family="sans-serif" font-size="14" font-weight="bold" lengthAdjust="spacing" textLength="155" x="1920" y="1295.7751">Espresso Contracts</text></g><!--cluster Rollup Contracts--><g id="cluster_Rollup Contracts"><path d="M2326.5,1280.78 L2457.5,1280.78 A3.75,3.75 0 0 1 2460,1283.28 L2467,1303.0769 L2467.5,1303.0769 A2.5,2.5 0 0 1 2470,1305.5769 L2470,1410.87 A2.5,2.5 0 0 1 2467.5,1413.37 L2326.5,1413.37 A2.5,2.5 0 0 1 2324,1410.87 L2324,1283.28 A2.5,2.5 0 0 1 2326.5,1280.78 " fill="none" style="stroke:#000000;stroke-width:1.5;"/><line style="stroke:#000000;stroke-width:1.5;" x1="2324" x2="2467" y1="1303.0769" y2="1303.0769"/><text fill="#000000" font-family="sans-serif" font-size="14" font-weight="bold" lengthAdjust="spacing" textLength="130" x="2328" y="1295.7751">Rollup Contracts</text></g><!--entity Nodes--><g id="elem_Nodes"><rect fill="#F1F1F1" height="78.8906" rx="2.5" ry="2.5" style="stroke:#181818;stroke-width:0.5;" width="116" x="357" y="595.29"/><rect fill="#F1F1F1" height="10" style="stroke:#181818;stroke-width:0.5;" width="15" x="453" y="600.29"/><rect fill="#F1F1F1" height="2" style="stroke:#181818;stroke-width:0.5;" width="4" x="451" y="602.29"/><rect fill="#F1F1F1" height="2" style="stroke:#181818;stroke-width:0.5;" width="4" x="451" y="606.29"/><text fill="#000000" font-family="sans-serif" font-size="14" lengthAdjust="spacing" textLength="39" x="372" y="628.2851">Other</text><text fill="#000000" font-family="sans-serif" font-size="14" lengthAdjust="spacing" textLength="76" x="372" y="644.582">Sequencer</text><text fill="#000000" font-family="sans-serif" font-size="14" lengthAdjust="spacing" textLength="45" x="372" y="660.8789">Nodes</text></g><!--entity HSProver--><g id="elem_HSProver"><rect fill="#F1F1F1" height="62.5938" rx="2.5" ry="2.5" style="stroke:#181818;stroke-width:0.5;" width="137" x="1833.5" y="1000.83"/><rect fill="#F1F1F1" height="10" style="stroke:#181818;stroke-width:0.5;" width="15" x="1950.5" y="1005.83"/><rect fill="#F1F1F1" height="2" style="stroke:#181818;stroke-width:0.5;" width="4" x="1948.5" y="1007.83"/><rect fill="#F1F1F1" height="2" style="stroke:#181818;stroke-width:0.5;" width="4" x="1948.5" y="1011.83"/><text fill="#000000" font-family="sans-serif" font-size="14" lengthAdjust="spacing" textLength="95" x="1848.5" y="1033.8251">HotShot state</text><text fill="#000000" font-family="sans-serif" font-size="14" lengthAdjust="spacing" textLength="97" x="1848.5" y="1050.122">prover service</text></g><!--entity Relay--><g id="elem_Relay"><rect fill="#F1F1F1" height="62.5938" rx="2.5" ry="2.5" style="stroke:#181818;stroke-width:0.5;" width="135" x="1834.5" y="814.03"/><rect fill="#F1F1F1" height="10" style="stroke:#181818;stroke-width:0.5;" width="15" x="1949.5" y="819.03"/><rect fill="#F1F1F1" height="2" style="stroke:#181818;stroke-width:0.5;" width="4" x="1947.5" y="821.03"/><rect fill="#F1F1F1" height="2" style="stroke:#181818;stroke-width:0.5;" width="4" x="1947.5" y="825.03"/><text fill="#000000" font-family="sans-serif" font-size="14" lengthAdjust="spacing" textLength="95" x="1849.5" y="847.0251">HotShot state</text><text fill="#000000" font-family="sans-serif" font-size="14" lengthAdjust="spacing" textLength="85" x="1849.5" y="863.322">relay service</text></g><!--entity Builder--><g id="elem_Builder"><rect fill="#F1F1F1" height="46.2969" rx="2.5" ry="2.5" style="stroke:#181818;stroke-width:0.5;" width="88" x="1909" y="611.59"/><rect fill="#F1F1F1" height="10" style="stroke:#181818;stroke-width:0.5;" width="15" x="1977" y="616.59"/><rect fill="#F1F1F1" height="2" style="stroke:#181818;stroke-width:0.5;" width="4" x="1975" y="618.59"/><rect fill="#F1F1F1" height="2" style="stroke:#181818;stroke-width:0.5;" width="4" x="1975" y="622.59"/><text fill="#000000" font-family="sans-serif" font-size="14" lengthAdjust="spacing" textLength="48" x="1924" y="644.5851">Builder</text></g><!--entity Broker--><g id="elem_Broker"><rect fill="#F1F1F1" height="46.2969" rx="2.5" ry="2.5" style="stroke:#181818;stroke-width:0.5;" width="86" x="62" y="822.18"/><rect fill="#F1F1F1" height="10" style="stroke:#181818;stroke-width:0.5;" width="15" x="128" y="827.18"/><rect fill="#F1F1F1" height="2" style="stroke:#181818;stroke-width:0.5;" width="4" x="126" y="829.18"/><rect fill="#F1F1F1" height="2" style="stroke:#181818;stroke-width:0.5;" width="4" x="126" y="833.18"/><text fill="#000000" font-family="sans-serif" font-size="14" lengthAdjust="spacing" textLength="46" x="77" y="855.1751">Broker</text></g><!--entity Marshal--><g id="elem_Marshal"><rect fill="#F1F1F1" height="46.2969" rx="2.5" ry="2.5" style="stroke:#181818;stroke-width:0.5;" width="93" x="352.5" y="822.18"/><rect fill="#F1F1F1" height="10" style="stroke:#181818;stroke-width:0.5;" width="15" x="425.5" y="827.18"/><rect fill="#F1F1F1" height="2" style="stroke:#181818;stroke-width:0.5;" width="4" x="423.5" y="829.18"/><rect fill="#F1F1F1" height="2" style="stroke:#181818;stroke-width:0.5;" width="4" x="423.5" y="833.18"/><text fill="#000000" font-family="sans-serif" font-size="14" lengthAdjust="spacing" textLength="53" x="367.5" y="855.1751">Marshal</text></g><!--entity KeyDB--><g id="elem_KeyDB"><path d="M217,832.68 C217,822.68 250,822.68 250,822.68 C250,822.68 283,822.68 283,832.68 L283,857.9769 C283,867.9769 250,867.9769 250,867.9769 C250,867.9769 217,867.9769 217,857.9769 L217,832.68 " fill="#F1F1F1" style="stroke:#181818;stroke-width:0.5;"/><path d="M217,832.68 C217,842.68 250,842.68 250,842.68 C250,842.68 283,842.68 283,832.68 " fill="none" style="stroke:#181818;stroke-width:0.5;"/><text fill="#000000" font-family="sans-serif" font-size="14" lengthAdjust="spacing" textLength="46" x="227" y="859.6751">KeyDB</text></g><!--entity DB--><g id="elem_DB"><path d="M1196,1019.48 C1196,1009.48 1237,1009.48 1237,1009.48 C1237,1009.48 1278,1009.48 1278,1019.48 L1278,1044.7769 C1278,1054.7769 1237,1054.7769 1237,1054.7769 C1237,1054.7769 1196,1054.7769 1196,1044.7769 L1196,1019.48 " fill="#F1F1F1" style="stroke:#181818;stroke-width:0.5;"/><path d="M1196,1019.48 C1196,1029.48 1237,1029.48 1237,1029.48 C1237,1029.48 1278,1029.48 1278,1019.48 " fill="none" style="stroke:#181818;stroke-width:0.5;"/><text fill="#000000" font-family="sans-serif" font-size="14" lengthAdjust="spacing" textLength="62" x="1206" y="1046.4751">Postgres</text></g><text fill="#000000" font-family="sans-serif" font-size="14" lengthAdjust="spacing" textLength="58" x="850.5" y="613.4382">Catchup</text><rect fill="#F1F1F1" height="12" style="stroke:#181818;stroke-width:1.5;" width="12" x="873.5" y="628.74"/><text fill="#000000" font-family="sans-serif" font-size="14" lengthAdjust="spacing" textLength="37" x="963.5" y="613.4382">HTTP</text><rect fill="#F1F1F1" height="12" style="stroke:#181818;stroke-width:1.5;" width="12" x="976" y="628.74"/><text fill="#000000" font-family="sans-serif" font-size="14" lengthAdjust="spacing" textLength="44" x="1063" y="613.4382">Status</text><rect fill="#F1F1F1" height="12" style="stroke:#181818;stroke-width:1.5;" width="12" x="1079" y="628.74"/><text fill="#000000" font-family="sans-serif" font-size="14" lengthAdjust="spacing" textLength="48" x="1274" y="613.4382">Submit</text><rect fill="#F1F1F1" height="12" style="stroke:#181818;stroke-width:1.5;" width="12" x="1292" y="628.74"/><text fill="#000000" font-family="sans-serif" font-size="14" lengthAdjust="spacing" textLength="41" x="1153.5" y="613.4382">Query</text><rect fill="#F1F1F1" height="12" style="stroke:#181818;stroke-width:1.5;" width="12" x="1168" y="628.74"/><text fill="#000000" font-family="sans-serif" font-size="14" lengthAdjust="spacing" textLength="55" x="1359.5" y="580.8445">Hotshot</text><text fill="#000000" font-family="sans-serif" font-size="14" lengthAdjust="spacing" textLength="47" x="1363.5" y="597.1414">Events</text><text fill="#000000" font-family="sans-serif" font-size="14" lengthAdjust="spacing" textLength="49" x="1362.5" y="613.4382">Stream</text><rect fill="#F1F1F1" height="12" style="stroke:#181818;stroke-width:1.5;" width="12" x="1381" y="628.74"/><!--entity QS--><g id="elem_QS"><rect fill="#F1F1F1" height="78.8906" rx="2.5" ry="2.5" style="stroke:#181818;stroke-width:0.5;" width="96" x="1189" y="805.89"/><rect fill="#F1F1F1" height="10" style="stroke:#181818;stroke-width:0.5;" width="15" x="1265" y="810.89"/><rect fill="#F1F1F1" height="2" style="stroke:#181818;stroke-width:0.5;" width="4" x="1263" y="812.89"/><rect fill="#F1F1F1" height="2" style="stroke:#181818;stroke-width:0.5;" width="4" x="1263" y="816.89"/><text fill="#000000" font-family="sans-serif" font-size="14" lengthAdjust="spacing" textLength="56" x="1204" y="838.8851">HotShot</text><text fill="#000000" font-family="sans-serif" font-size="14" lengthAdjust="spacing" textLength="41" x="1204" y="855.182">Query</text><text fill="#000000" font-family="sans-serif" font-size="14" lengthAdjust="spacing" textLength="50" x="1204" y="871.4789">Service</text></g><!--entity Libp2p--><g id="elem_Libp2p"><rect fill="#F1F1F1" height="46.2969" rx="2.5" ry="2.5" style="stroke:#181818;stroke-width:0.5;" width="86" x="577" y="611.59"/><rect fill="#F1F1F1" height="10" style="stroke:#181818;stroke-width:0.5;" width="15" x="643" y="616.59"/><rect fill="#F1F1F1" height="2" style="stroke:#181818;stroke-width:0.5;" width="4" x="641" y="618.59"/><rect fill="#F1F1F1" height="2" style="stroke:#181818;stroke-width:0.5;" width="4" x="641" y="622.59"/><text fill="#000000" font-family="sans-serif" font-size="14" lengthAdjust="spacing" textLength="46" x="592" y="644.5851">Libp2p</text></g><!--entity CDN Client--><g id="elem_CDN Client"><rect fill="#F1F1F1" height="46.2969" rx="2.5" ry="2.5" style="stroke:#181818;stroke-width:0.5;" width="114" x="698" y="611.59"/><rect fill="#F1F1F1" height="10" style="stroke:#181818;stroke-width:0.5;" width="15" x="792" y="616.59"/><rect fill="#F1F1F1" height="2" style="stroke:#181818;stroke-width:0.5;" width="4" x="790" y="618.59"/><rect fill="#F1F1F1" height="2" style="stroke:#181818;stroke-width:0.5;" width="4" x="790" y="622.59"/><text fill="#000000" font-family="sans-serif" font-size="14" lengthAdjust="spacing" textLength="74" x="713" y="644.5851">CDN Client</text></g><!--entity Signer--><g id="elem_Signer"><rect fill="#F1F1F1" height="46.2969" rx="2.5" ry="2.5" style="stroke:#181818;stroke-width:0.5;" width="124" x="1454" y="611.59"/><rect fill="#F1F1F1" height="10" style="stroke:#181818;stroke-width:0.5;" width="15" x="1558" y="616.59"/><rect fill="#F1F1F1" height="2" style="stroke:#181818;stroke-width:0.5;" width="4" x="1556" y="618.59"/><rect fill="#F1F1F1" height="2" style="stroke:#181818;stroke-width:0.5;" width="4" x="1556" y="622.59"/><text fill="#000000" font-family="sans-serif" font-size="14" lengthAdjust="spacing" textLength="84" x="1469" y="644.5851">State Signer</text></g><!--entity Validated--><g id="elem_Validated"><rect fill="#F1F1F1" height="46.2969" rx="2.5" ry="2.5" style="stroke:#181818;stroke-width:0.5;" width="139" x="1613.5" y="611.59"/><rect fill="#F1F1F1" height="10" style="stroke:#181818;stroke-width:0.5;" width="15" x="1732.5" y="616.59"/><rect fill="#F1F1F1" height="2" style="stroke:#181818;stroke-width:0.5;" width="4" x="1730.5" y="618.59"/><rect fill="#F1F1F1" height="2" style="stroke:#181818;stroke-width:0.5;" width="4" x="1730.5" y="622.59"/><text fill="#000000" font-family="sans-serif" font-size="14" lengthAdjust="spacing" textLength="99" x="1628.5" y="644.5851">ValidatedState</text></g><!--entity L2_RPC--><g id="elem_L2_RPC"><rect fill="#F1F1F1" height="46.2969" rx="2.5" ry="2.5" style="stroke:#181818;stroke-width:0.5;" width="172" x="1625" y="225.29"/><rect fill="#F1F1F1" height="10" style="stroke:#181818;stroke-width:0.5;" width="15" x="1777" y="230.29"/><rect fill="#F1F1F1" height="2" style="stroke:#181818;stroke-width:0.5;" width="4" x="1775" y="232.29"/><rect fill="#F1F1F1" height="2" style="stroke:#181818;stroke-width:0.5;" width="4" x="1775" y="236.29"/><text fill="#000000" font-family="sans-serif" font-size="14" lengthAdjust="spacing" textLength="132" x="1640" y="258.2851">API (e.g. JSON-RPC)</text></g><!--entity L2_Exec--><g id="elem_L2_Exec"><rect fill="#F1F1F1" height="46.2969" rx="2.5" ry="2.5" style="stroke:#181818;stroke-width:0.5;" width="101" x="1488.5" y="225.29"/><rect fill="#F1F1F1" height="10" style="stroke:#181818;stroke-width:0.5;" width="15" x="1569.5" y="230.29"/><rect fill="#F1F1F1" height="2" style="stroke:#181818;stroke-width:0.5;" width="4" x="1567.5" y="232.29"/><rect fill="#F1F1F1" height="2" style="stroke:#181818;stroke-width:0.5;" width="4" x="1567.5" y="236.29"/><text fill="#000000" font-family="sans-serif" font-size="14" lengthAdjust="spacing" textLength="61" x="1503.5" y="258.2851">Executor</text></g><!--entity L2_Prover--><g id="elem_L2_Prover"><rect fill="#F1F1F1" height="46.2969" rx="2.5" ry="2.5" style="stroke:#181818;stroke-width:0.5;" width="84" x="1832" y="225.29"/><rect fill="#F1F1F1" height="10" style="stroke:#181818;stroke-width:0.5;" width="15" x="1896" y="230.29"/><rect fill="#F1F1F1" height="2" style="stroke:#181818;stroke-width:0.5;" width="4" x="1894" y="232.29"/><rect fill="#F1F1F1" height="2" style="stroke:#181818;stroke-width:0.5;" width="4" x="1894" y="236.29"/><text fill="#000000" font-family="sans-serif" font-size="14" lengthAdjust="spacing" textLength="44" x="1847" y="258.2851">Prover</text></g><!--entity L2_State--><g id="elem_L2_State"><path d="M1670.5,113 C1670.5,103 1711,103 1711,103 C1711,103 1751.5,103 1751.5,113 L1751.5,138.2969 C1751.5,148.2969 1711,148.2969 1711,148.2969 C1711,148.2969 1670.5,148.2969 1670.5,138.2969 L1670.5,113 " fill="#F1F1F1" style="stroke:#181818;stroke-width:0.5;"/><path d="M1670.5,113 C1670.5,123 1711,123 1711,123 C1711,123 1751.5,123 1751.5,113 " fill="none" style="stroke:#181818;stroke-width:0.5;"/><text fill="#000000" font-family="sans-serif" font-size="14" lengthAdjust="spacing" textLength="61" x="1680.5" y="139.9951">State DB</text></g><!--entity LC_L1--><g id="elem_LC_L1"><rect fill="#F1F1F1" height="62.5938" rx="2.5" ry="2.5" style="stroke:#181818;stroke-width:0.5;" width="116" x="1932" y="1334.78"/><rect fill="#F1F1F1" height="10" style="stroke:#181818;stroke-width:0.5;" width="15" x="2028" y="1339.78"/><rect fill="#F1F1F1" height="2" style="stroke:#181818;stroke-width:0.5;" width="4" x="2026" y="1341.78"/><rect fill="#F1F1F1" height="2" style="stroke:#181818;stroke-width:0.5;" width="4" x="2026" y="1345.78"/><text fill="#000000" font-family="sans-serif" font-size="14" lengthAdjust="spacing" textLength="76" x="1947" y="1367.7751">Light Client</text><text fill="#000000" font-family="sans-serif" font-size="14" lengthAdjust="spacing" textLength="59" x="1947" y="1384.072">Contract</text></g><!--entity Fee_L1--><g id="elem_Fee_L1"><rect fill="#F1F1F1" height="62.5938" rx="2.5" ry="2.5" style="stroke:#181818;stroke-width:0.5;" width="99" x="2082.5" y="1334.78"/><rect fill="#F1F1F1" height="10" style="stroke:#181818;stroke-width:0.5;" width="15" x="2161.5" y="1339.78"/><rect fill="#F1F1F1" height="2" style="stroke:#181818;stroke-width:0.5;" width="4" x="2159.5" y="1341.78"/><rect fill="#F1F1F1" height="2" style="stroke:#181818;stroke-width:0.5;" width="4" x="2159.5" y="1345.78"/><text fill="#000000" font-family="sans-serif" font-size="14" lengthAdjust="spacing" textLength="26" x="2097.5" y="1367.7751">Fee</text><text fill="#000000" font-family="sans-serif" font-size="14" lengthAdjust="spacing" textLength="59" x="2097.5" y="1384.072">Contract</text></g><!--entity L2_L1--><g id="elem_L2_L1"><rect fill="#F1F1F1" height="62.5938" rx="2.5" ry="2.5" style="stroke:#181818;stroke-width:0.5;" width="99" x="2354.5" y="1334.78"/><rect fill="#F1F1F1" height="10" style="stroke:#181818;stroke-width:0.5;" width="15" x="2433.5" y="1339.78"/><rect fill="#F1F1F1" height="2" style="stroke:#181818;stroke-width:0.5;" width="4" x="2431.5" y="1341.78"/><rect fill="#F1F1F1" height="2" style="stroke:#181818;stroke-width:0.5;" width="4" x="2431.5" y="1345.78"/><text fill="#000000" font-family="sans-serif" font-size="14" lengthAdjust="spacing" textLength="57" x="2369.5" y="1367.7751">Rollup N</text><text fill="#000000" font-family="sans-serif" font-size="14" lengthAdjust="spacing" textLength="59" x="2369.5" y="1384.072">Contract</text></g><!--entity User--><g id="elem_User"><ellipse cx="2048" cy="626.59" fill="#F1F1F1" rx="12" ry="12" style="stroke:#181818;stroke-width:0.5;"/><line style="stroke:#181818;stroke-width:0.5;" x1="2036" x2="2060" y1="640.59" y2="640.59"/><text fill="#000000" font-family="sans-serif" font-size="14" lengthAdjust="spacing" textLength="32" x="2032" y="655.5851">User</text></g><!--link Broker to KeyDB--><g id="link_Broker_KeyDB"><path d="M148.11,845.33 C170.15,845.33 190.55,845.33 210.96,845.33 " fill="none" id="Broker-to-KeyDB" style="stroke:#181818;stroke-width:1.0;"/><polygon fill="#181818" points="216.96,845.33,207.96,841.33,211.96,845.33,207.96,849.33,216.96,845.33" style="stroke:#181818;stroke-width:1.0;"/><text fill="#000000" font-family="sans-serif" font-size="13" lengthAdjust="spacing" textLength="33" x="166" y="838.3969">state</text></g><!--link KeyDB to Marshal--><g id="link_KeyDB_Marshal"><path d="M283.44,845.33 C303.69,845.33 323.82,845.33 346.11,845.33 " fill="none" id="KeyDB-to-Marshal" style="stroke:#181818;stroke-width:1.0;"/><polygon fill="#181818" points="352.11,845.33,343.11,841.33,347.11,845.33,343.11,849.33,352.11,845.33" style="stroke:#181818;stroke-width:1.0;"/><text fill="#000000" font-family="sans-serif" font-size="13" lengthAdjust="spacing" textLength="33" x="301.25" y="838.3969">state</text></g><!--link Nodes to CDN--><g id="link_Nodes_CDN"><path d="M436.8745,680.0384 C446.3445,700.3584 454.7,720.45 462,744.18 C462.8063,746.8019 463.5845,749.4734 464.3353,752.1789 C464.7106,753.5317 465.0791,754.893 465.4408,756.2608 C465.6216,756.9448 465.8007,757.6303 465.9782,758.3173 C466.0669,758.6607 466.1551,759.0046 466.243,759.3487 C466.2869,759.5208 464.8545,753.8774 464.8983,754.0496 " fill="none" id="Nodes-CDN" style="stroke:#181818;stroke-width:1.0;"/><polygon fill="#181818" points="434.34,674.6,434.5162,684.4473,436.4521,679.132,441.7674,681.0679,434.34,674.6" style="stroke:#181818;stroke-width:1.0;"/><polygon fill="#181818" points="466.3745,759.8651,468.0372,750.1577,465.1443,755.0188,460.2831,752.126,466.3745,759.8651" style="stroke:#181818;stroke-width:1.0;"/><text fill="#000000" font-family="sans-serif" font-size="13" lengthAdjust="spacing" textLength="68" x="461" y="717.2469">consensus</text><text fill="#000000" font-family="sans-serif" font-size="13" lengthAdjust="spacing" textLength="66" x="462" y="732.3797">messages</text></g><!--link Query to QS--><g id="link_Query_QS"><path d="M1175.43,640.49 C1181.97,662.14 1207.5954,746.9562 1223.5554,799.8062 " fill="none" id="Query-to-QS" style="stroke:#181818;stroke-width:1.0;"/><polygon fill="#181818" points="1225.29,805.55,1226.5174,795.7779,1223.8445,800.7635,1218.859,798.0907,1225.29,805.55" style="stroke:#181818;stroke-width:1.0;"/></g><!--reverse link Catchup to Nodes--><g id="link_Catchup_Nodes"><path d="M881.3357,623.1459 C884.5757,593.6759 894.46,463.67 817,440.28 C708.03,407.38 662.55,396.17 561,447.59 C499.05,478.96 455.4,550.11 432.8,595.09 " fill="none" id="Catchup-backto-Nodes" style="stroke:#181818;stroke-width:1.0;"/><polygon fill="#181818" points="880.68,629.11,885.6396,620.601,881.2264,624.1399,877.6875,619.7268,880.68,629.11" style="stroke:#181818;stroke-width:1.0;"/><text fill="#000000" font-family="sans-serif" font-size="13" lengthAdjust="spacing" textLength="4" x="812" y="388.1569">&#160;</text><text fill="#000000" font-family="sans-serif" font-size="13" lengthAdjust="spacing" textLength="4" x="876.1367" y="617.5223">&#160;</text><text fill="#000000" font-family="sans-serif" font-size="13" lengthAdjust="spacing" textLength="49" x="382.8159" y="569.1504">missing</text><text fill="#000000" font-family="sans-serif" font-size="13" lengthAdjust="spacing" textLength="33" x="390.8159" y="584.2832">state</text></g><!--link Nodes to Libp2p--><g id="link_Nodes_Libp2p"><path d="M479.47,634.74 C512.37,634.74 540.74,634.74 570.77,634.74 " fill="none" id="Nodes-Libp2p" style="stroke:#181818;stroke-width:1.0;"/><polygon fill="#181818" points="473.47,634.74,482.47,638.74,478.47,634.74,482.47,630.74,473.47,634.74" style="stroke:#181818;stroke-width:1.0;"/><polygon fill="#181818" points="576.77,634.74,567.77,630.74,571.77,634.74,567.77,638.74,576.77,634.74" style="stroke:#181818;stroke-width:1.0;"/><text fill="#000000" font-family="sans-serif" font-size="13" lengthAdjust="spacing" textLength="68" x="491" y="612.8069">consensus</text><text fill="#000000" font-family="sans-serif" font-size="13" lengthAdjust="spacing" textLength="66" x="492" y="627.9397">messages</text></g><!--link CDN Client to CDN--><g id="link_CDN Client_CDN"><path d="M720.6457,661.894 C685.7707,688.439 630.79,730.295 579.095,769.65 C553.2475,789.3275 529.415,807.4712 511.715,820.9462 C502.865,827.6837 495.5481,833.2541 490.2791,837.2653 C489.9497,837.516 494.4025,834.1263 494.0893,834.3647 " fill="none" id="CDN Client-CDN" style="stroke:#181818;stroke-width:1.0;"/><polygon fill="#181818" points="725.42,658.26,715.8359,660.5281,721.4414,661.2883,720.6811,666.8938,725.42,658.26" style="stroke:#181818;stroke-width:1.0;"/><polygon fill="#181818" points="489.3152,837.9991,498.8992,835.7302,493.2936,834.9704,494.0534,829.3648,489.3152,837.9991" style="stroke:#181818;stroke-width:1.0;"/><text fill="#000000" font-family="sans-serif" font-size="13" lengthAdjust="spacing" textLength="68" x="659" y="717.2469">consensus</text><text fill="#000000" font-family="sans-serif" font-size="13" lengthAdjust="spacing" textLength="66" x="660" y="732.3797">messages</text></g><!--link QS to DB--><g id="link_QS_DB"><path d="M1237,885.07 C1237,922.75 1237,972.64 1237,1003.21 " fill="none" id="QS-to-DB" style="stroke:#181818;stroke-width:1.0;"/><polygon fill="#181818" points="1237,1009.21,1241,1000.21,1237,1004.21,1233,1000.21,1237,1009.21" style="stroke:#181818;stroke-width:1.0;"/></g><!--link Signer to Relay--><g id="link_Signer_Relay"><path d="M1554.5,658.31 C1567.61,665.9 1582.39,674.35 1596,681.89 C1681.11,729.01 1775.508,778.6594 1837.398,810.8794 " fill="none" id="Signer-to-Relay" style="stroke:#181818;stroke-width:1.0;"/><polygon fill="#181818" points="1842.72,813.65,1836.5841,805.9461,1838.285,811.3411,1832.8899,813.042,1842.72,813.65" style="stroke:#181818;stroke-width:1.0;"/><text fill="#000000" font-family="sans-serif" font-size="13" lengthAdjust="spacing" textLength="33" x="1689" y="724.7469">state</text></g><!--link Seq to Builder--><g id="link_Seq_Builder"><path d="M1809.1666,634.74 C1809.2533,634.74 1809.3406,634.74 1809.4285,634.74 C1809.7801,634.74 1810.1414,634.74 1810.5121,634.74 C1811.995,634.74 1813.6288,634.74 1815.3969,634.74 C1822.4694,634.74 1831.6925,634.74 1842.0175,634.74 C1862.6675,634.74 1881.725,634.74 1902.8,634.74 " fill="none" id="Seq-to-Builder" style="stroke:#181818;stroke-width:1.0;"/><polygon fill="#181818" points="1908.8,634.74,1899.8,630.74,1903.8,634.74,1899.8,638.74,1908.8,634.74" style="stroke:#181818;stroke-width:1.0;"/><text fill="#000000" font-family="sans-serif" font-size="13" lengthAdjust="spacing" textLength="71" x="1819.68" y="627.8069">claim block</text></g><!--reverse link Seq to Builder--><g id="link_Seq_Builder"><path d="M1814.0014,644.0541 C1814.0872,644.1125 1809.3465,640.8754 1809.4333,640.9343 C1809.607,641.052 1809.7827,641.1707 1809.9606,641.2901 C1811.3832,642.2455 1812.9378,643.2528 1814.5963,644.2737 C1821.23,648.3575 1829.525,652.66 1837.68,654.74 C1860.82,660.63 1887.01,656.91 1908.58,651.14 " fill="none" id="Seq-backto-Builder" style="stroke:#181818;stroke-width:1.0;"/><polygon fill="#181818" points="1809.0462,640.6709,1814.2236,649.0491,1813.1756,643.4902,1818.7345,642.4422,1809.0462,640.6709" style="stroke:#181818;stroke-width:1.0;"/><text fill="#000000" font-family="sans-serif" font-size="13" lengthAdjust="spacing" textLength="33" x="1838.68" y="650.8069">block</text></g><!--link Relay to HSProver--><g id="link_Relay_HSProver"><path d="M1902,876.85 C1902,911.09 1902,960.31 1902,994.57 " fill="none" id="Relay-to-HSProver" style="stroke:#181818;stroke-width:1.0;"/><polygon fill="#181818" points="1902,1000.57,1906,991.57,1902,995.57,1898,991.57,1902,1000.57" style="stroke:#181818;stroke-width:1.0;"/><text fill="#000000" font-family="sans-serif" font-size="13" lengthAdjust="spacing" textLength="33" x="1903" y="959.3969">state</text></g><!--link Events to Builder--><g id="link_Events_Builder"><path d="M1386.4,628.87 C1384.08,602.46 1378.49,493.94 1438,447.59 C1574.42,341.33 1654.09,441.9 1827,440.28 C1829.67,440.26 1830.67,438.98 1833,440.28 C1899.51,477.39 1932.0319,562.4743 1944.9919,605.5643 " fill="none" id="Events-to-Builder" style="stroke:#181818;stroke-width:1.0;"/><polygon fill="#181818" points="1946.72,611.31,1947.9583,601.5393,1945.2799,606.5219,1940.2973,603.8435,1946.72,611.31" style="stroke:#181818;stroke-width:1.0;"/><text fill="#000000" font-family="sans-serif" font-size="13" lengthAdjust="spacing" textLength="4" x="1828" y="388.1569">&#160;</text><text fill="#000000" font-family="sans-serif" font-size="13" lengthAdjust="spacing" textLength="4" x="1380.8075" y="617.7884">&#160;</text><text fill="#000000" font-family="sans-serif" font-size="13" lengthAdjust="spacing" textLength="79" x="1855.9889" y="600.4685">transactions</text></g><!--reverse link L2_RPC to User--><g id="link_L2_RPC_User"><path d="M1743.6226,275.5663 C1763.5726,290.7663 1786.83,306.7 1814,319.59 C1825.31,324.95 1829.72,322.16 1841,327.59 C1924.99,368.02 1962.41,369.3 2013,447.59 C2045.93,498.54 2049.57,572.74 2049.04,610.21 " fill="none" id="L2_RPC-backto-User" style="stroke:#181818;stroke-width:1.0;"/><polygon fill="#181818" points="1738.85,271.93,1743.5847,280.5661,1742.8272,274.9602,1748.4331,274.2027,1738.85,271.93" style="stroke:#181818;stroke-width:1.0;"/><path d="M2011,332.59 L2011,417.59 L2189,417.59 L2189,342.59 L2179,332.59 L2011,332.59 " fill="#FEFFDD" style="stroke:#181818;stroke-width:0.5;"/><path d="M2179,332.59 L2179,342.59 L2189,342.59 L2179,332.59 " fill="#FEFFDD" style="stroke:#181818;stroke-width:0.5;"/><text fill="#000000" font-family="sans-serif" font-size="13" lengthAdjust="spacing" textLength="143" x="2017" y="349.6569">1. Many clients submit</text><text fill="#000000" font-family="sans-serif" font-size="13" lengthAdjust="spacing" textLength="131" x="2033" y="364.7897">transactions to each</text><text fill="#000000" font-family="sans-serif" font-size="13" lengthAdjust="spacing" textLength="141" x="2033" y="379.9225">L2 simultaneously (for</text><text fill="#000000" font-family="sans-serif" font-size="13" lengthAdjust="spacing" textLength="110" x="2033" y="395.0553">clarity only one is</text><text fill="#000000" font-family="sans-serif" font-size="13" lengthAdjust="spacing" textLength="45" x="2033" y="410.1881">shown)</text><text fill="#000000" font-family="sans-serif" font-size="13" lengthAdjust="spacing" textLength="4" x="2098" y="436.321">&#160;</text><text fill="#000000" font-family="sans-serif" font-size="13" lengthAdjust="spacing" textLength="4" x="1741.1509" y="291.5673">&#160;</text><text fill="#000000" font-family="sans-serif" font-size="13" lengthAdjust="spacing" textLength="83" x="1974.0858" y="584.4237">transactions,</text><text fill="#000000" font-family="sans-serif" font-size="13" lengthAdjust="spacing" textLength="84" x="1973.5858" y="599.5566">state queries</text></g><!--link L2_RPC to Submit--><g id="link_L2_RPC_Submit"><path d="M1685.65,271.89 C1665.73,288.12 1636.52,308.99 1607,319.59 C1572.12,332.11 1558.93,315.2 1524,327.59 C1433.03,359.85 1398.39,368.55 1343,447.59 C1300.07,508.85 1297.8162,600.22 1297.9062,622.9 " fill="none" id="L2_RPC-to-Submit" style="stroke:#181818;stroke-width:1.0;"/><polygon fill="#181818" points="1297.93,628.9,1301.8943,619.8842,1297.9102,623.9,1293.8943,619.9159,1297.93,628.9" style="stroke:#181818;stroke-width:1.0;"/><path d="M1529,362.59 L1529,387.59 L1814,387.59 L1814,372.59 L1804,362.59 L1529,362.59 " fill="#FEFFDD" style="stroke:#181818;stroke-width:0.5;"/><path d="M1804,362.59 L1804,372.59 L1814,372.59 L1804,362.59 " fill="#FEFFDD" style="stroke:#181818;stroke-width:0.5;"/><text fill="#000000" font-family="sans-serif" font-size="13" lengthAdjust="spacing" textLength="264" x="1535" y="379.6569">2. L2s forward transactions to sequencer.</text><text fill="#000000" font-family="sans-serif" font-size="13" lengthAdjust="spacing" textLength="4" x="1669.5" y="405.7897">&#160;</text><text fill="#000000" font-family="sans-serif" font-size="13" lengthAdjust="spacing" textLength="72" x="1558.5709" y="291.6254">transaction</text><text fill="#000000" font-family="sans-serif" font-size="13" lengthAdjust="spacing" textLength="144" x="1522.5709" y="306.7582">NamespaceId Rollup N</text><text fill="#000000" font-family="sans-serif" font-size="13" lengthAdjust="spacing" textLength="4" x="1292.6621" y="617.8368">&#160;</text></g><!--reverse link L2_Exec to Query--><g id="link_L2_Exec_Query"><path d="M1482.0301,249.5796 C1289.5601,250.5296 620.6,258.72 557,327.59 C523.23,364.16 522.05,404.15 557,439.59 C568.18,450.92 1117.59,437.63 1130,447.59 C1188.79,494.77 1177.92,604.64 1174.7,628.93 " fill="none" id="L2_Exec-backto-Query" style="stroke:#181818;stroke-width:1.0;"/><polygon fill="#181818" points="1488.03,249.55,1479.0104,245.5945,1483.0301,249.5747,1479.0499,253.5944,1488.03,249.55" style="stroke:#181818;stroke-width:1.0;"/><path d="M562,340.09 L562,410.09 L798,410.09 L798,350.09 L788,340.09 L562,340.09 " fill="#FEFFDD" style="stroke:#181818;stroke-width:0.5;"/><path d="M788,340.09 L788,350.09 L798,350.09 L788,340.09 " fill="#FEFFDD" style="stroke:#181818;stroke-width:0.5;"/><text fill="#000000" font-family="sans-serif" font-size="13" lengthAdjust="spacing" textLength="206" x="568" y="357.1569">3. Sequencer produces blocks --</text><text fill="#000000" font-family="sans-serif" font-size="13" lengthAdjust="spacing" textLength="182" x="584" y="372.2897">ordered lists of transactions.</text><text fill="#000000" font-family="sans-serif" font-size="13" lengthAdjust="spacing" textLength="199" x="584" y="387.4225">L2s receive blocks and execute</text><text fill="#000000" font-family="sans-serif" font-size="13" lengthAdjust="spacing" textLength="176" x="584" y="402.5553">transactions for their rollup.</text><text fill="#000000" font-family="sans-serif" font-size="13" lengthAdjust="spacing" textLength="34" x="663" y="428.6881">Block</text></g><!--link HSProver to LC_L1--><g id="link_HSProver_LC_L1"><path d="M1873.24,1063.91 C1852.9,1083.45 1823.86,1107.16 1793,1118.78 C1777.59,1124.58 1656.33,1114.82 1645,1126.78 C1615.96,1157.43 1621.56,1186.66 1645,1221.78 C1709.18,1317.93 1845.2996,1348.89 1925.6696,1359.29 " fill="none" id="HSProver-to-LC_L1" style="stroke:#181818;stroke-width:1.0;"/><polygon fill="#181818" points="1931.62,1360.06,1923.2077,1354.9381,1926.6613,1359.4183,1922.1811,1362.8719,1931.62,1360.06" style="stroke:#181818;stroke-width:1.0;"/><text fill="#000000" font-family="sans-serif" font-size="13" lengthAdjust="spacing" textLength="53" x="1646" y="1163.9133">HotShot</text><text fill="#000000" font-family="sans-serif" font-size="13" lengthAdjust="spacing" textLength="33" x="1656" y="1179.0461">state</text><text fill="#000000" font-family="sans-serif" font-size="13" lengthAdjust="spacing" textLength="33" x="1656" y="1194.1789">proof</text><path d="M1705,1139.28 L1705,1209.28 L1993,1209.28 L1993,1149.28 L1983,1139.28 L1705,1139.28 " fill="#FEFFDD" style="stroke:#181818;stroke-width:0.5;"/><path d="M1983,1139.28 L1983,1149.28 L1993,1149.28 L1983,1139.28 " fill="#FEFFDD" style="stroke:#181818;stroke-width:0.5;"/><text fill="#000000" font-family="sans-serif" font-size="13" lengthAdjust="spacing" textLength="267" x="1711" y="1156.3469">4. Sequencer posts succinct commitment</text><text fill="#000000" font-family="sans-serif" font-size="13" lengthAdjust="spacing" textLength="235" x="1727" y="1171.4797">to block to L1. Contract verifies proof</text><text fill="#000000" font-family="sans-serif" font-size="13" lengthAdjust="spacing" textLength="224" x="1727" y="1186.6125">of sequencing (Quorum Certificate)</text><text fill="#000000" font-family="sans-serif" font-size="13" lengthAdjust="spacing" textLength="226" x="1727" y="1201.7453">then stores the block commitment.</text></g><!--link L2_Prover to L2_L1--><g id="link_L2_Prover_L2_L1"><path d="M1916.48,251.3 C1982.2,255.9 2110.48,271.91 2202,327.59 C2355.5,420.97 2466,454.07 2466,633.74 C2466,633.74 2466,633.74 2466,1033.13 C2466,1145.69 2432.8419,1270.3824 2415.4119,1328.5624 " fill="none" id="L2_Prover-to-L2_L1" style="stroke:#181818;stroke-width:1.0;"/><polygon fill="#181818" points="2413.69,1334.31,2420.1046,1326.8365,2415.1249,1329.5203,2412.4411,1324.5406,2413.69,1334.31" style="stroke:#181818;stroke-width:1.0;"/><text fill="#000000" font-family="sans-serif" font-size="13" lengthAdjust="spacing" textLength="35" x="2524.5" y="794.8969">rollup</text><text fill="#000000" font-family="sans-serif" font-size="13" lengthAdjust="spacing" textLength="33" x="2525.5" y="810.0297">state</text><text fill="#000000" font-family="sans-serif" font-size="13" lengthAdjust="spacing" textLength="33" x="2525.5" y="825.1625">proof</text><path d="M2471,834.2284 L2471,904.2284 L2613,904.2284 L2613,844.2284 L2603,834.2284 L2471,834.2284 " fill="#FEFFDD" style="stroke:#181818;stroke-width:0.5;"/><path d="M2603,834.2284 L2603,844.2284 L2613,844.2284 L2603,834.2284 " fill="#FEFFDD" style="stroke:#181818;stroke-width:0.5;"/><text fill="#000000" font-family="sans-serif" font-size="13" lengthAdjust="spacing" textLength="93" x="2477" y="851.2953">5. Rollups post</text><text fill="#000000" font-family="sans-serif" font-size="13" lengthAdjust="spacing" textLength="90" x="2493" y="866.4281">updated state</text><text fill="#000000" font-family="sans-serif" font-size="13" lengthAdjust="spacing" textLength="105" x="2493" y="881.561">to L1. ZK-rollups</text><text fill="#000000" font-family="sans-serif" font-size="13" lengthAdjust="spacing" textLength="98" x="2493" y="896.6938">include a proof.</text></g><!--link LC_L1 to L2_L1--><g id="link_LC_L1_L2_L1"><path d="M1988.58,1334.34 C1988.5,1289 1996.01,1206.89 2047.5,1168.24 C2102.06,1127.28 2300.72,1126.26 2354.5,1168.24 C2404.73,1207.46 2409.0681,1283.336 2407.0481,1328.496 " fill="none" id="LC_L1-to-L2_L1" style="stroke:#181818;stroke-width:1.0;"/><polygon fill="#181818" points="2406.78,1334.49,2411.1782,1325.6777,2407.0034,1329.495,2403.1862,1325.3202,2406.78,1334.49" style="stroke:#181818;stroke-width:1.0;"/><path d="M2052.5,1131.78 L2052.5,1216.78 L2349.5,1216.78 L2349.5,1141.78 L2339.5,1131.78 L2052.5,1131.78 " fill="#FEFFDD" style="stroke:#181818;stroke-width:0.5;"/><path d="M2339.5,1131.78 L2339.5,1141.78 L2349.5,1141.78 L2339.5,1131.78 " fill="#FEFFDD" style="stroke:#181818;stroke-width:0.5;"/><text fill="#000000" font-family="sans-serif" font-size="13" lengthAdjust="spacing" textLength="272" x="2058.5" y="1148.8469">6. Rollup contracts read certified sequence</text><text fill="#000000" font-family="sans-serif" font-size="13" lengthAdjust="spacing" textLength="248" x="2074.5" y="1163.9797">of block commitments from sequencer</text><text fill="#000000" font-family="sans-serif" font-size="13" lengthAdjust="spacing" textLength="242" x="2074.5" y="1179.1125">contract. Verify state transition proofs</text><text fill="#000000" font-family="sans-serif" font-size="13" lengthAdjust="spacing" textLength="247" x="2074.5" y="1194.2453">against this sequence (ZKR) or wait for</text><text fill="#000000" font-family="sans-serif" font-size="13" lengthAdjust="spacing" textLength="260" x="2074.5" y="1209.3781">fraud proof against this sequence (ORU).</text></g><!--link L2_State to L2_RPC--><g id="link_L2_State_L2_RPC"><path d="M1711,148.52 C1711,170.14 1711,197.06 1711,218.91 " fill="none" id="L2_State-to-L2_RPC" style="stroke:#181818;stroke-width:1.0;"/><polygon fill="#181818" points="1711,224.91,1715,215.91,1711,219.91,1707,215.91,1711,224.91" style="stroke:#181818;stroke-width:1.0;"/><text fill="#000000" font-family="sans-serif" font-size="13" lengthAdjust="spacing" textLength="69" x="1712" y="191.3569">Read state</text></g><!--reverse link L2_State to L2_Exec--><g id="link_L2_State_L2_Exec"><path d="M1671.4426,151.8295 C1657.5026,160.8495 1646.38,168.26 1632,178.29 C1610.38,193.37 1586.54,211.13 1568.4,224.87 " fill="none" id="L2_State-backto-L2_Exec" style="stroke:#181818;stroke-width:1.0;"/><polygon fill="#181818" points="1676.48,148.57,1666.7509,150.101,1672.2821,151.2863,1671.0969,156.8175,1676.48,148.57" style="stroke:#181818;stroke-width:1.0;"/><text fill="#000000" font-family="sans-serif" font-size="13" lengthAdjust="spacing" textLength="69" x="1633" y="191.3569">Write state</text></g><!--link L2_State to L2_Prover--><g id="link_L2_State_L2_Prover"><path d="M1746.56,148.72 C1760.36,157.58 1776.14,168.1 1790,178.29 C1810.09,193.06 1827.2222,207.0896 1843.5422,220.9896 " fill="none" id="L2_State-to-L2_Prover" style="stroke:#181818;stroke-width:1.0;"/><polygon fill="#181818" points="1848.11,224.88,1843.852,215.9992,1844.3035,221.638,1838.6647,222.0895,1848.11,224.88" style="stroke:#181818;stroke-width:1.0;"/><text fill="#000000" font-family="sans-serif" font-size="13" lengthAdjust="spacing" textLength="71" x="1812" y="191.3569">Read State</text></g><!--link Builder to Fee_L1--><g id="link_Builder_Fee_L1"><path d="M1982.33,658.25 C1992.55,665.91 2004.17,674.42 2015,681.89 C2030.19,692.35 2036.58,691.53 2050,704.18 C2218.77,863.2 2284.52,906.18 2356,1126.78 C2369.02,1166.94 2379.01,1186.37 2356,1221.78 C2351.23,1229.12 2345.68,1225.58 2338,1229.78 C2279.04,1261.96 2219.8153,1302.0908 2179.0353,1330.9908 " fill="none" id="Builder-to-Fee_L1" style="stroke:#181818;stroke-width:1.0;"/><polygon fill="#181818" points="2174.14,1334.46,2183.7958,1332.5197,2178.2195,1331.569,2179.1702,1325.9926,2174.14,1334.46" style="stroke:#181818;stroke-width:1.0;"/><text fill="#000000" font-family="sans-serif" font-size="13" lengthAdjust="spacing" textLength="47" x="2291" y="951.8969">deposit</text><text fill="#000000" font-family="sans-serif" font-size="13" lengthAdjust="spacing" textLength="20" x="2304.5" y="967.0297">fee</text></g><!--reverse link Validated to Fee_L1--><g id="link_Validated_Fee_L1"><path d="M1716.9522,661.6176 C1729.9922,670.5376 1741.07,676.53 1757,681.89 C1808.82,699.3 1963.46,665.41 2002,704.18 C2164.76,867.92 1910.26,1035.03 2046,1221.78 C2051.39,1229.19 2058.33,1223.5 2065,1229.78 C2095.55,1258.51 2114.08,1304.18 2123.69,1334.39 " fill="none" id="Validated-backto-Fee_L1" style="stroke:#181818;stroke-width:1.0;"/><polygon fill="#181818" points="1712,658.23,1717.17,666.6128,1716.1268,661.053,1721.6867,660.0099,1712,658.23" style="stroke:#181818;stroke-width:1.0;"/><text fill="#000000" font-family="sans-serif" font-size="13" lengthAdjust="spacing" textLength="20" x="2055" y="951.8969">fee</text><text fill="#000000" font-family="sans-serif" font-size="13" lengthAdjust="spacing" textLength="54" x="2038" y="967.0297">deposits</text></g><!--SRC=[XLPjJniv4Fw-lsAKBmNfaWhkvKDKLIg14pquNfBIawf8bTbr4ekDlMTxuQAA_twFFTxD9bbKaC2nPyRpF3FFE9N8dyHIqk32LLOwPsWc_wsbpgMb6-bVZ7qQa73DcdvaX9_Sh2kZfVOqkFKhQUUwzPhh6rD8nqvX5HsgTCta_2Q5s0rpPisJj3q7VmlhLg9iJmhXnQDmagxavlmiRhzcyT-x4FjQR4pjusSEISEFR3ecvuMNyIXkX9CKlNiMSwOFGvmYu1YfQ2UrgzrShy4FGBXi1zAWGnXy8t1iTM2sEG_kZFDBczX9wU_n-UdkCuwtpl4gOprDXCzNTNLuSFdboztXxWo8QjUpNp-kbJ_Slw-btHnk3owDTolZv_hY6Vc1XPctKgmZ0jxQSUeWWUSiUiRGeKNiiygPeFjPw_NQnq9gDwMNWnzlnBzMZzLfzTRbeHacfS9wqBcfNJR52op9MB6uUEkk0H_Fr59BonMEoxVClufIeUgoY7xHeTtQ0_wQzTF6BJdNbJNFQ2tN8UzoTXStV-9fPIasEuxJiBFlTLQhiaYeqZgQnAfHq06A1UfO6CEw2ihWNXpJOAsSGvNcsZ5I_6OT2N6H-bNKhT7F17S_Yvb0Camy3Glpeh4J8JNw3R8RMhLSUPmaB0XO2hMcnzBaJraqZw4Q4XlVZ9kPkfuHZhT2Ev5xXRm6MJgZOIaNuHPSEKwnitOYO0h1vDJHUvgQigmh5lmrTWxc9nlGJRBedOvXAD2H72r7zDVizcOulPiS9_llMFTuNFmdyzeRcup2nnuhPY3PT7fgTsXnxv-VDJVEsbdvYhveGL-4Xq3MQsBq9sn-aW1L1-_Cn6XGctlc1jlVM-CzzDUXegbJvhhnu_WJUFNv_2dbdYbs6jlNtPHI2Je9zQRHL6e_XTDjMCW4fiflw06woy8V6Zu4nN2bQBpRJxyatH1U4Al2kn3qemrslAd8BAXK-Yax6U6bqXjqieezwhOpl1iDFYH5lee7Q2MdrdNfXPQcTkM6ZXOcZOnIs92ZqMNu8qdn3CUSVz77G51GI27BKj91BlnixEMFjrv0eo1IVYvesycz84v7KG18uaNOuY1nrxoYequ2QGRLYS7GnaZXBChju89VHvtlBXYRHPrZ34LjGjR32D5OY5SMS73W4PxTD4Q9E4TMvb8zoyPP824P5IKFIGSWGkihIpOIqCs_6JBjk8hz2WZjsxYTycR1aEByQa7zjWFAk5ZzF5Swzw4tKPCrMeApCfnlM5oZPPek9IIW5kWkubiY3uk6S0nlEhglZOLo9z9wMEP8wPX3hgJ6V3HGR5Yd-DjxHxlDqe3zoA80JgQa3-QZyTwiMvo_ZvfH6L76s-igFfYTBsS9sRUh8GVclWKPPLtW6MU0Eqb5lfk4Uc_-exavl3my051_KL3ER8G4KWKQwlPfG1DOH6nRECruZZQYhu7_3SFWtb6XTJXRXY2MGe4aaAnS6uUElbrDZz6pz2AWlKQ-2olgWftVyhkTFXntQNWNni495T8BLRf6rn-2iDg9ZcfD0snckr5Rgxt6vX-C3harIYNl3yKlnVRDH2IUmcEaWZ8h260XPSQRwQxsYzAO5c689qkN_Gy0]--></g></svg>