<svg xmlns="http://www.w3.org/2000/svg" xmlns:xlink="http://www.w3.org/1999/xlink" contentStyleType="text/css" height="848px" preserveAspectRatio="none" style="width:1069px;height:848px;background:#FFFFFF;" version="1.1" viewBox="0 0 1069 848" width="1069px" zoomAndPan="magnify"><defs/><g><!--cluster L2--><g id="cluster_L2"><path d="M8.5,156 L77.5,156 A3.75,3.75 0 0 1 80,158.5 L87,178.2969 L980.5,178.2969 A2.5,2.5 0 0 1 983,180.7969 L983,333.5 A2.5,2.5 0 0 1 980.5,336 L8.5,336 A2.5,2.5 0 0 1 6,333.5 L6,158.5 A2.5,2.5 0 0 1 8.5,156 " fill="none" style="stroke:#000000;stroke-width:1.5;"/><line style="stroke:#000000;stroke-width:1.5;" x1="6" x2="87" y1="178.2969" y2="178.2969"/><text fill="#000000" font-family="sans-serif" font-size="14" font-weight="bold" lengthAdjust="spacing" textLength="68" x="10" y="170.9951">Layer 2s</text></g><!--cluster L2_1--><g id="cluster_L2_1"><rect fill="none" height="113" rx="2.5" ry="2.5" style="stroke:#181818;stroke-width:1.0;" width="691" x="268" y="199"/><rect fill="none" height="10" style="stroke:#181818;stroke-width:1.0;" width="15" x="939" y="204"/><rect fill="none" height="2" style="stroke:#181818;stroke-width:1.0;" width="4" x="937" y="206"/><rect fill="none" height="2" style="stroke:#181818;stroke-width:1.0;" width="4" x="937" y="210"/><text fill="#000000" font-family="sans-serif" font-size="14" font-weight="bold" lengthAdjust="spacing" textLength="63" x="582" y="224.9951">Rollup 1</text></g><!--cluster L1--><g id="cluster_L1"><path d="M393.5,629 L453.5,629 A3.75,3.75 0 0 1 456,631.5 L463,651.2969 L1059.5,651.2969 A2.5,2.5 0 0 1 1062,653.7969 L1062,839.09 A2.5,2.5 0 0 1 1059.5,841.59 L393.5,841.59 A2.5,2.5 0 0 1 391,839.09 L391,631.5 A2.5,2.5 0 0 1 393.5,629 " fill="none" style="stroke:#000000;stroke-width:1.5;"/><line style="stroke:#000000;stroke-width:1.5;" x1="391" x2="463" y1="651.2969" y2="651.2969"/><text fill="#000000" font-family="sans-serif" font-size="14" font-weight="bold" lengthAdjust="spacing" textLength="59" x="395" y="643.9951">Layer 1</text></g><!--cluster L2_L1--><g id="cluster_L2_L1"><path d="M594.5,680 L725.5,680 A3.75,3.75 0 0 1 728,682.5 L735,702.2969 L1027.5,702.2969 A2.5,2.5 0 0 1 1030,704.7969 L1030,807.09 A2.5,2.5 0 0 1 1027.5,809.59 L594.5,809.59 A2.5,2.5 0 0 1 592,807.09 L592,682.5 A2.5,2.5 0 0 1 594.5,680 " fill="none" style="stroke:#000000;stroke-width:1.5;"/><line style="stroke:#000000;stroke-width:1.5;" x1="592" x2="735" y1="702.2969" y2="702.2969"/><text fill="#000000" font-family="sans-serif" font-size="14" font-weight="bold" lengthAdjust="spacing" textLength="130" x="596" y="694.9951">Rollup Contracts</text></g><!--entity L2_2--><g id="elem_L2_2"><rect fill="#F1F1F1" height="46.2969" rx="2.5" ry="2.5" style="stroke:#181818;stroke-width:0.5;" width="96" x="22" y="241.85"/><rect fill="#F1F1F1" height="10" style="stroke:#181818;stroke-width:0.5;" width="15" x="98" y="246.85"/><rect fill="#F1F1F1" height="2" style="stroke:#181818;stroke-width:0.5;" width="4" x="96" y="248.85"/><rect fill="#F1F1F1" height="2" style="stroke:#181818;stroke-width:0.5;" width="4" x="96" y="252.85"/><text fill="#000000" font-family="sans-serif" font-size="14" lengthAdjust="spacing" textLength="56" x="37" y="274.8451">Rollup 2</text></g><!--entity L2_N--><g id="elem_L2_N"><rect fill="#F1F1F1" height="46.2969" rx="2.5" ry="2.5" style="stroke:#181818;stroke-width:0.5;" width="97" x="152.5" y="241.85"/><rect fill="#F1F1F1" height="10" style="stroke:#181818;stroke-width:0.5;" width="15" x="229.5" y="246.85"/><rect fill="#F1F1F1" height="2" style="stroke:#181818;stroke-width:0.5;" width="4" x="227.5" y="248.85"/><rect fill="#F1F1F1" height="2" style="stroke:#181818;stroke-width:0.5;" width="4" x="227.5" y="252.85"/><text fill="#000000" font-family="sans-serif" font-size="14" lengthAdjust="spacing" textLength="57" x="167.5" y="274.8451">Rollup N</text></g><!--entity L2_1_RPC--><g id="elem_L2_1_RPC"><rect fill="#F1F1F1" height="46.2969" rx="2.5" ry="2.5" style="stroke:#181818;stroke-width:0.5;" width="172" x="652" y="241.85"/><rect fill="#F1F1F1" height="10" style="stroke:#181818;stroke-width:0.5;" width="15" x="804" y="246.85"/><rect fill="#F1F1F1" height="2" style="stroke:#181818;stroke-width:0.5;" width="4" x="802" y="248.85"/><rect fill="#F1F1F1" height="2" style="stroke:#181818;stroke-width:0.5;" width="4" x="802" y="252.85"/><text fill="#000000" font-family="sans-serif" font-size="14" lengthAdjust="spacing" textLength="132" x="667" y="274.8451">API (e.g. JSON-RPC)</text></g><!--entity L2_Seq--><g id="elem_L2_Seq"><rect fill="#F1F1F1" height="46.2969" rx="2.5" ry="2.5" style="stroke:#181818;stroke-width:0.5;" width="116" x="284" y="241.85"/><rect fill="#F1F1F1" height="10" style="stroke:#181818;stroke-width:0.5;" width="15" x="380" y="246.85"/><rect fill="#F1F1F1" height="2" style="stroke:#181818;stroke-width:0.5;" width="4" x="378" y="248.85"/><rect fill="#F1F1F1" height="2" style="stroke:#181818;stroke-width:0.5;" width="4" x="378" y="252.85"/><text fill="#000000" font-family="sans-serif" font-size="14" lengthAdjust="spacing" textLength="76" x="299" y="274.8451">Sequencer</text></g><!--entity L2_1_Val--><g id="elem_L2_1_Val"><rect fill="#F1F1F1" height="46.2969" rx="2.5" ry="2.5" style="stroke:#181818;stroke-width:0.5;" width="99" x="517.5" y="241.85"/><rect fill="#F1F1F1" height="10" style="stroke:#181818;stroke-width:0.5;" width="15" x="596.5" y="246.85"/><rect fill="#F1F1F1" height="2" style="stroke:#181818;stroke-width:0.5;" width="4" x="594.5" y="248.85"/><rect fill="#F1F1F1" height="2" style="stroke:#181818;stroke-width:0.5;" width="4" x="594.5" y="252.85"/><text fill="#000000" font-family="sans-serif" font-size="14" lengthAdjust="spacing" textLength="59" x="532.5" y="274.8451">Validator</text></g><!--entity L2_1_Prover--><g id="elem_L2_1_Prover"><rect fill="#F1F1F1" height="46.2969" rx="2.5" ry="2.5" style="stroke:#181818;stroke-width:0.5;" width="84" x="859" y="241.85"/><rect fill="#F1F1F1" height="10" style="stroke:#181818;stroke-width:0.5;" width="15" x="923" y="246.85"/><rect fill="#F1F1F1" height="2" style="stroke:#181818;stroke-width:0.5;" width="4" x="921" y="248.85"/><rect fill="#F1F1F1" height="2" style="stroke:#181818;stroke-width:0.5;" width="4" x="921" y="252.85"/><text fill="#000000" font-family="sans-serif" font-size="14" lengthAdjust="spacing" textLength="44" x="874" y="274.8451">Prover</text></g><!--entity LC--><g id="elem_LC"><rect fill="#F1F1F1" height="62.5938" rx="2.5" ry="2.5" style="stroke:#181818;stroke-width:0.5;" width="116" x="407" y="723"/><rect fill="#F1F1F1" height="10" style="stroke:#181818;stroke-width:0.5;" width="15" x="503" y="728"/><rect fill="#F1F1F1" height="2" style="stroke:#181818;stroke-width:0.5;" width="4" x="501" y="730"/><rect fill="#F1F1F1" height="2" style="stroke:#181818;stroke-width:0.5;" width="4" x="501" y="734"/><text fill="#000000" font-family="sans-serif" font-size="14" lengthAdjust="spacing" textLength="76" x="422" y="755.9951">Light Client</text><text fill="#000000" font-family="sans-serif" font-size="14" lengthAdjust="spacing" textLength="59" x="422" y="772.292">Contract</text></g><!--entity L2_1_L1--><g id="elem_L2_1_L1"><rect fill="#F1F1F1" height="62.5938" rx="2.5" ry="2.5" style="stroke:#181818;stroke-width:0.5;" width="99" x="638.5" y="723"/><rect fill="#F1F1F1" height="10" style="stroke:#181818;stroke-width:0.5;" width="15" x="717.5" y="728"/><rect fill="#F1F1F1" height="2" style="stroke:#181818;stroke-width:0.5;" width="4" x="715.5" y="730"/><rect fill="#F1F1F1" height="2" style="stroke:#181818;stroke-width:0.5;" width="4" x="715.5" y="734"/><text fill="#000000" font-family="sans-serif" font-size="14" lengthAdjust="spacing" textLength="56" x="653.5" y="755.9951">Rollup 1</text><text fill="#000000" font-family="sans-serif" font-size="14" lengthAdjust="spacing" textLength="59" x="653.5" y="772.292">Contract</text></g><!--entity L2_2_L1--><g id="elem_L2_2_L1"><rect fill="#F1F1F1" height="62.5938" rx="2.5" ry="2.5" style="stroke:#181818;stroke-width:0.5;" width="99" x="772.5" y="723"/><rect fill="#F1F1F1" height="10" style="stroke:#181818;stroke-width:0.5;" width="15" x="851.5" y="728"/><rect fill="#F1F1F1" height="2" style="stroke:#181818;stroke-width:0.5;" width="4" x="849.5" y="730"/><rect fill="#F1F1F1" height="2" style="stroke:#181818;stroke-width:0.5;" width="4" x="849.5" y="734"/><text fill="#000000" font-family="sans-serif" font-size="14" lengthAdjust="spacing" textLength="56" x="787.5" y="755.9951">Rollup 2</text><text fill="#000000" font-family="sans-serif" font-size="14" lengthAdjust="spacing" textLength="59" x="787.5" y="772.292">Contract</text></g><!--entity L2_N_L1--><g id="elem_L2_N_L1"><rect fill="#F1F1F1" height="62.5938" rx="2.5" ry="2.5" style="stroke:#181818;stroke-width:0.5;" width="99" x="906.5" y="723"/><rect fill="#F1F1F1" height="10" style="stroke:#181818;stroke-width:0.5;" width="15" x="985.5" y="728"/><rect fill="#F1F1F1" height="2" style="stroke:#181818;stroke-width:0.5;" width="4" x="983.5" y="730"/><rect fill="#F1F1F1" height="2" style="stroke:#181818;stroke-width:0.5;" width="4" x="983.5" y="734"/><text fill="#000000" font-family="sans-serif" font-size="14" lengthAdjust="spacing" textLength="57" x="921.5" y="755.9951">Rollup N</text><text fill="#000000" font-family="sans-serif" font-size="14" lengthAdjust="spacing" textLength="59" x="921.5" y="772.292">Contract</text></g><!--entity Esp--><g id="elem_Esp"><rect fill="#F1F1F1" height="46.2969" rx="2.5" ry="2.5" style="stroke:#181818;stroke-width:0.5;" width="236" x="252" y="459.35"/><rect fill="#F1F1F1" height="10" style="stroke:#181818;stroke-width:0.5;" width="15" x="468" y="464.35"/><rect fill="#F1F1F1" height="2" style="stroke:#181818;stroke-width:0.5;" width="4" x="466" y="466.35"/><rect fill="#F1F1F1" height="2" style="stroke:#181818;stroke-width:0.5;" width="4" x="466" y="470.35"/><text fill="#000000" font-family="sans-serif" font-size="14" lengthAdjust="spacing" textLength="196" x="267" y="492.3451">Espresso Confirmation Layer</text></g><!--entity Client--><g id="elem_Client"><ellipse cx="217" cy="14" fill="#F1F1F1" rx="8" ry="8" style="stroke:#181818;stroke-width:0.5;"/><text fill="#000000" font-family="sans-serif" font-size="14" lengthAdjust="spacing" textLength="39" x="197.5" y="43.9951">Client</text></g><!--link Client to L2_1_RPC--><g id="link_Client_L2_1_RPC"><path d="M225.96,16.08 C272.36,22.05 488.86,54.08 634,148 C672.38,172.83 701.9993,210.4937 720.0193,236.5737 " fill="none" id="Client-to-L2_1_RPC" style="stroke:#181818;stroke-width:1.0;"/><polygon fill="#181818" points="723.43,241.51,721.6048,231.8318,720.5877,237.3964,715.023,236.3794,723.43,241.51" style="stroke:#181818;stroke-width:1.0;"/><path d="M650.99,78 L650.99,103 L683.99,103 L683.99,88 L673.99,78 L650.99,78 " fill="#FEFFDD" style="stroke:#181818;stroke-width:0.5;"/><path d="M673.99,78 L673.99,88 L683.99,88 L673.99,78 " fill="#FEFFDD" style="stroke:#181818;stroke-width:0.5;"/><text fill="#000000" font-family="sans-serif" font-size="13" lengthAdjust="spacing" textLength="12" x="656.99" y="95.0669">1.</text><text fill="#000000" font-family="sans-serif" font-size="13" lengthAdjust="spacing" textLength="100" x="617.49" y="121.1997">L2 Transactions</text><text fill="#000000" font-family="sans-serif" font-size="13" lengthAdjust="spacing" textLength="105" x="614.99" y="136.3325">L2 State queries</text></g><!--link Client to L2_2--><g id="link_Client_L2_2"><path d="M208.02,16.26 C184.8,20.06 122.56,33.63 94,73 C57.11,123.85 60.7004,197.0683 65.6104,235.5383 " fill="none" id="Client-to-L2_2" style="stroke:#181818;stroke-width:1.0;"/><polygon fill="#181818" points="66.37,241.49,69.1984,232.056,65.737,236.5302,61.2627,233.0688,66.37,241.49" style="stroke:#181818;stroke-width:1.0;"/><text fill="#000000" font-family="sans-serif" font-size="13" lengthAdjust="spacing" textLength="100" x="97.5" y="103.5669">L2 Transactions</text><text fill="#000000" font-family="sans-serif" font-size="13" lengthAdjust="spacing" textLength="105" x="95" y="118.6997">L2 State queries</text></g><!--link Client to L2_N--><g id="link_Client_L2_N"><path d="M216.5,22.72 C214.36,56.05 206.2552,182.2424 202.8252,235.5524 " fill="none" id="Client-to-L2_N" style="stroke:#181818;stroke-width:1.0;"/><polygon fill="#181818" points="202.44,241.54,207.0096,232.8154,202.761,236.5503,199.0261,232.3017,202.44,241.54" style="stroke:#181818;stroke-width:1.0;"/><text fill="#000000" font-family="sans-serif" font-size="13" lengthAdjust="spacing" textLength="100" x="216.63" y="103.5669">L2 Transactions</text><text fill="#000000" font-family="sans-serif" font-size="13" lengthAdjust="spacing" textLength="105" x="214.13" y="118.6997">L2 State queries</text></g><!--link L2_Seq to L2_Seq--><g id="link_L2_Seq_L2_Seq"><path d="M400.12,242.4 C419.5,242.4 435,249.93 435,265 C435,280.06 425.5,287.59 406.12,287.59 " fill="none" id="L2_Seq-to-L2_Seq" style="stroke:#181818;stroke-width:1.0;"/><polygon fill="#181818" points="400.12,287.59,409.12,291.59,405.12,287.59,409.12,283.59,400.12,287.59" style="stroke:#181818;stroke-width:1.0;"/><path d="M451,239 L451,264 L484,264 L484,249 L474,239 L451,239 " fill="#FEFFDD" style="stroke:#181818;stroke-width:0.5;"/><path d="M474,239 L474,249 L484,249 L474,239 " fill="#FEFFDD" style="stroke:#181818;stroke-width:0.5;"/><text fill="#000000" font-family="sans-serif" font-size="13" lengthAdjust="spacing" textLength="12" x="457" y="256.0669">2.</text><text fill="#000000" font-family="sans-serif" font-size="13" lengthAdjust="spacing" textLength="53" x="441" y="287.1997">L2 Block</text></g><!--link L2_Seq to Esp--><g id="link_L2_Seq_Esp"><path d="M344.89,288.25 C350.26,329.54 360.9275,411.6499 366.3075,453.0899 " fill="none" id="L2_Seq-to-Esp" style="stroke:#181818;stroke-width:1.0;"/><polygon fill="#181818" points="367.08,459.04,369.888,449.5999,366.4363,454.0816,361.9546,450.6299,367.08,459.04" style="stroke:#181818;stroke-width:1.0;"/><text fill="#000000" font-family="sans-serif" font-size="13" lengthAdjust="spacing" textLength="107" x="362.73" y="365.0669">Rollup 1 L2 Block</text><text fill="#000000" font-family="sans-serif" font-size="13" lengthAdjust="spacing" textLength="67" x="382.73" y="380.1997">Rollup 1 ID</text><path d="M399.73,389.2656 L399.73,414.2656 L432.73,414.2656 L432.73,399.2656 L422.73,389.2656 L399.73,389.2656 " fill="#FEFFDD" style="stroke:#181818;stroke-width:0.5;"/><path d="M422.73,389.2656 L422.73,399.2656 L432.73,399.2656 L422.73,389.2656 " fill="#FEFFDD" style="stroke:#181818;stroke-width:0.5;"/><text fill="#000000" font-family="sans-serif" font-size="13" lengthAdjust="spacing" textLength="12" x="405.73" y="406.3325">3.</text></g><!--link L2_2 to Esp--><g id="link_L2_2_Esp"><path d="M65.55,288.47 C60.41,321.51 56.41,383.15 89,419 C111.19,443.4 179.2619,458.4001 245.7619,468.0301 " fill="none" id="L2_2-to-Esp" style="stroke:#181818;stroke-width:1.0;"/><polygon fill="#181818" points="251.7,468.89,243.3662,463.6414,246.7516,468.1734,242.2196,471.5589,251.7,468.89" style="stroke:#181818;stroke-width:1.0;"/><text fill="#000000" font-family="sans-serif" font-size="13" lengthAdjust="spacing" textLength="107" x="90" y="382.5669">Rollup 2 L2 Block</text><text fill="#000000" font-family="sans-serif" font-size="13" lengthAdjust="spacing" textLength="67" x="110" y="397.6997">Rollup 2 ID</text></g><!--link L2_N to Esp--><g id="link_L2_N_Esp"><path d="M199.9,288.63 C199.53,321.04 203.47,380.95 234,419 C248.23,436.73 263.1499,447.1747 283.8299,456.4947 " fill="none" id="L2_N-to-Esp" style="stroke:#181818;stroke-width:1.0;"/><polygon fill="#181818" points="289.3,458.96,282.7383,451.6153,284.7415,456.9056,279.4513,458.9089,289.3,458.96" style="stroke:#181818;stroke-width:1.0;"/><text fill="#000000" font-family="sans-serif" font-size="13" lengthAdjust="spacing" textLength="109" x="235" y="382.5669">Rollup N L2 Block</text><text fill="#000000" font-family="sans-serif" font-size="13" lengthAdjust="spacing" textLength="69" x="255" y="397.6997">Rollup N ID</text></g><!--reverse link L2_1_Val to Esp--><g id="link_L2_1_Val_Esp"><path d="M556.2957,293.9704 C543.2657,326.1104 517.92,380.13 479,419 C462.72,435.26 441.34,448.73 421.84,458.95 " fill="none" id="L2_1_Val-backto-Esp" style="stroke:#181818;stroke-width:1.0;"/><polygon fill="#181818" points="558.55,288.41,551.4616,295.2478,556.6714,293.0437,558.8755,298.2535,558.55,288.41" style="stroke:#181818;stroke-width:1.0;"/><path d="M544.76,357 L544.76,382 L577.76,382 L577.76,367 L567.76,357 L544.76,357 " fill="#FEFFDD" style="stroke:#181818;stroke-width:0.5;"/><path d="M567.76,357 L567.76,367 L577.76,367 L567.76,357 " fill="#FEFFDD" style="stroke:#181818;stroke-width:0.5;"/><text fill="#000000" font-family="sans-serif" font-size="13" lengthAdjust="spacing" textLength="12" x="550.76" y="374.0669">4.</text><text fill="#000000" font-family="sans-serif" font-size="13" lengthAdjust="spacing" textLength="66" x="528.26" y="400.1997">Confirmed</text><text fill="#000000" font-family="sans-serif" font-size="13" lengthAdjust="spacing" textLength="34" x="544.26" y="415.3325">Block</text></g><!--link Esp to LC--><g id="link_Esp_LC"><path d="M377.94,506.03 C394.97,554.41 433.0567,662.5808 452.3167,717.2608 " fill="none" id="Esp-to-LC" style="stroke:#181818;stroke-width:1.0;"/><polygon fill="#181818" points="454.31,722.92,455.0928,713.1023,452.6489,718.204,447.5472,715.7601,454.31,722.92" style="stroke:#181818;stroke-width:1.0;"/><text fill="#000000" font-family="sans-serif" font-size="13" lengthAdjust="spacing" textLength="138" x="415.65" y="559.0669">Block Commitment +</text><text fill="#000000" font-family="sans-serif" font-size="13" lengthAdjust="spacing" textLength="121" x="424.15" y="574.1997">Proof of consensus</text><path d="M468.15,583.2656 L468.15,608.2656 L501.15,608.2656 L501.15,593.2656 L491.15,583.2656 L468.15,583.2656 " fill="#FEFFDD" style="stroke:#181818;stroke-width:0.5;"/><path d="M491.15,583.2656 L491.15,593.2656 L501.15,593.2656 L491.15,583.2656 " fill="#FEFFDD" style="stroke:#181818;stroke-width:0.5;"/><text fill="#000000" font-family="sans-serif" font-size="13" lengthAdjust="spacing" textLength="12" x="474.15" y="600.3325">5.</text></g><!--link L2_1_Prover to L2_1_L1--><g id="link_L2_1_Prover_L2_1_L1"><path d="M891.15,288.52 C856.63,367.51 743.4136,626.5325 703.8236,717.0825 " fill="none" id="L2_1_Prover-to-L2_1_L1" style="stroke:#181818;stroke-width:1.0;"/><polygon fill="#181818" points="701.42,722.58,708.6904,715.9361,703.423,717.9987,701.3604,712.7313,701.42,722.58" style="stroke:#181818;stroke-width:1.0;"/><path d="M824.15,454 L824.15,479 L857.15,479 L857.15,464 L847.15,454 L824.15,454 " fill="#FEFFDD" style="stroke:#181818;stroke-width:0.5;"/><path d="M847.15,454 L847.15,464 L857.15,464 L847.15,454 " fill="#FEFFDD" style="stroke:#181818;stroke-width:0.5;"/><text fill="#000000" font-family="sans-serif" font-size="13" lengthAdjust="spacing" textLength="12" x="830.15" y="471.0669">6.</text><text fill="#000000" font-family="sans-serif" font-size="13" lengthAdjust="spacing" textLength="35" x="823.15" y="497.1997">State</text><text fill="#000000" font-family="sans-serif" font-size="13" lengthAdjust="spacing" textLength="33" x="824.15" y="512.3325">Proof</text></g><!--link LC to L2_L1--><g id="link_LC_L2_L1"><path d="M523.5,754.29 C539.645,754.29 556.5475,754.29 570.515,754.29 C577.4988,754.29 583.7488,754.29 588.8034,754.29 C589.4353,754.29 590.0484,754.29 590.642,754.29 C590.9388,754.29 591.2307,754.29 591.5176,754.29 C591.661,754.29 585.8032,754.29 585.9442,754.29 " fill="none" id="LC-to-L2_L1" style="stroke:#181818;stroke-width:1.0;"/><polygon fill="#181818" points="591.9442,754.29,582.9442,750.29,586.9442,754.29,582.9442,758.29,591.9442,754.29" style="stroke:#181818;stroke-width:1.0;"/><path d="M545.1,721.29 L545.1,746.29 L578.1,746.29 L578.1,731.29 L568.1,721.29 L545.1,721.29 " fill="#FEFFDD" style="stroke:#181818;stroke-width:0.5;"/><path d="M568.1,721.29 L568.1,731.29 L578.1,731.29 L568.1,721.29 " fill="#FEFFDD" style="stroke:#181818;stroke-width:0.5;"/><text fill="#000000" font-family="sans-serif" font-size="13" lengthAdjust="spacing" textLength="12" x="551.1" y="738.3569">7.</text></g><!--SRC=[ZLHTQzim57tNhn1voSP88DeNb39Oqprq62qqOtjeHj1iDHMn9S-MDyh8V- -LzM77iajBeEZUSuxllUTAgIfA9RdKUFQbBYjUrmglbRmNLS6qK18dx95NCyng37bKilJ83XpFsZ0cTPj92FwFCFobdTgjolEcn2i7sAySP03xlBd1h_ZoiCHVjz_eudQpVXqOUpYDSBRyJyDb2f-tE3YFe7wmN6HCgogeGMG4jwdKNzw1x37WvlrQjvffZg-lkWBRI0i-JVHFF9XC0AW7K7GQZjSDRnLFDn671utNkO3JJe9XkcAfjd0xio3blkCnth5zCk68DsueQ_fDLiymICmWppDepA2USO9n8DiWNYm-XON05sRTlbTCra233Qrt4WBM6rYCIl0QIGK7hKgixd4kv16jbeZB39luG9IyIF2SGr_4GVEkQCk3JOs82Dd407ALg_GOzq5wVGGYCE5kGatUkY2mao5qSstLlDBRWHA9TKYiGunEEu48JMCqDMXaK8kcz1x2DGIIUsDujfCJhRxh5zXgPEgVD2fc1reIg1I5q8MnvirEmjq5ClnIc2kNTUCMuRVIMXL1-FsWSt_fkpM3gt5XpNIYrahYF29J0Ee0T0GGzVVXh0o_8h3zOpL_x8FDjy3HZ6icyhg_PfTsHht7oVZ3MORhzgMQTnQ4QVQXFoi1_y-mRZRJolODD73sg1fzjlLt3oBBkFnLzSntW2X9mf072Ueban6I6TWyc19HVRhBP2PZWkrA-MZJuj4J]--></g></svg>