<svg xmlns="http://www.w3.org/2000/svg" xmlns:xlink="http://www.w3.org/1999/xlink" contentStyleType="text/css" height="956px" preserveAspectRatio="none" style="width:1223px;height:956px;background:#FFFFFF;" version="1.1" viewBox="0 0 1223 956" width="1223px" zoomAndPan="magnify"><defs/><g><rect fill="#DDDDDD" height="172.9688" id="_legend" rx="7.5" ry="7.5" style="stroke:#000000;stroke-width:1.0;" width="839" x="185.295" y="12"/><text fill="#000000" font-family="sans-serif" font-size="14" lengthAdjust="spacing" textLength="746" x="190.295" y="29.9951">1. Many clients submit transactions to each L2 simultaneously (for clarity only one rollup is depicted in detail).</text><text fill="#000000" font-family="sans-serif" font-size="14" lengthAdjust="spacing" textLength="518" x="190.295" y="46.292">2. The rollup sequencer or block builder builds a block with L2 transactions.</text><text fill="#000000" font-family="sans-serif" font-size="14" lengthAdjust="spacing" textLength="331" x="190.295" y="62.5889">3. L2 forwards L2 block to the confirmation layer.</text><text fill="#000000" font-family="sans-serif" font-size="14" lengthAdjust="spacing" textLength="824" x="190.295" y="78.8857">4. Espresso produces Espresso blocks containing rollup namespaces with confirmed rollup blocks. L2 validators receive</text><text fill="#000000" font-family="sans-serif" font-size="14" lengthAdjust="spacing" textLength="448" x="198.295" y="95.1826">blocks and execute the state transition functions for their rollups.</text><text fill="#000000" font-family="sans-serif" font-size="14" lengthAdjust="spacing" textLength="727" x="190.295" y="111.4795">5. Espresso posts succinct commitment to block to L1. Contract verifies proof of Espresso state transition</text><text fill="#000000" font-family="sans-serif" font-size="14" lengthAdjust="spacing" textLength="243" x="198.295" y="127.7764">then stores the block commitment.</text><text fill="#000000" font-family="sans-serif" font-size="14" lengthAdjust="spacing" textLength="430" x="190.295" y="144.0732">6. Rollups post updated state to L1. ZK-rollups include a proof.</text><text fill="#000000" font-family="sans-serif" font-size="14" lengthAdjust="spacing" textLength="829" x="190.295" y="160.3701">7. Rollup contracts read certified sequence of block commitments from sequencer contract. Verify state transition proofs</text><text fill="#000000" font-family="sans-serif" font-size="14" lengthAdjust="spacing" textLength="552" x="198.295" y="176.667">against this sequence (ZKR) or wait for fraud proof against this sequence (ORU).</text><!--cluster L2--><g id="cluster_L2"><path d="M148.09,378.1188 L217.09,378.1188 A3.75,3.75 0 0 1 219.59,380.6188 L226.59,400.4156 L1214.09,400.4156 A2.5,2.5 0 0 1 1216.59,402.9156 L1216.59,603.6188 A2.5,2.5 0 0 1 1214.09,606.1188 L148.09,606.1188 A2.5,2.5 0 0 1 145.59,603.6188 L145.59,380.6188 A2.5,2.5 0 0 1 148.09,378.1188 " fill="none" style="stroke:#000000;stroke-width:1.5;"/><line style="stroke:#000000;stroke-width:1.5;" x1="145.59" x2="226.59" y1="400.4156" y2="400.4156"/><text fill="#000000" font-family="sans-serif" font-size="14" font-weight="bold" lengthAdjust="spacing" textLength="68" x="149.59" y="393.1139">Layer 2s</text></g><!--cluster L2_1--><g id="cluster_L2_1"><rect fill="none" height="129" rx="2.5" ry="2.5" style="stroke:#181818;stroke-width:1.0;" width="730" x="185.59" y="437.1188"/><rect fill="none" height="10" style="stroke:#181818;stroke-width:1.0;" width="15" x="895.59" y="442.1188"/><rect fill="none" height="2" style="stroke:#181818;stroke-width:1.0;" width="4" x="893.59" y="444.1188"/><rect fill="none" height="2" style="stroke:#181818;stroke-width:1.0;" width="4" x="893.59" y="448.1188"/><text fill="#000000" font-family="sans-serif" font-size="14" font-weight="bold" lengthAdjust="spacing" textLength="63" x="519.09" y="463.1139">Rollup 1</text></g><!--cluster L1--><g id="cluster_L1"><path d="M317.09,721.1188 L377.09,721.1188 A3.75,3.75 0 0 1 379.59,723.6188 L386.59,743.4156 L1011.09,743.4156 A2.5,2.5 0 0 1 1013.59,745.9156 L1013.59,947.2088 A2.5,2.5 0 0 1 1011.09,949.7088 L317.09,949.7088 A2.5,2.5 0 0 1 314.59,947.2088 L314.59,723.6188 A2.5,2.5 0 0 1 317.09,721.1188 " fill="none" style="stroke:#000000;stroke-width:1.5;"/><line style="stroke:#000000;stroke-width:1.5;" x1="314.59" x2="386.59" y1="743.4156" y2="743.4156"/><text fill="#000000" font-family="sans-serif" font-size="14" font-weight="bold" lengthAdjust="spacing" textLength="59" x="318.59" y="736.1139">Layer 1</text></g><!--cluster L2_L1--><g id="cluster_L2_L1"><path d="M526.09,780.1188 L657.09,780.1188 A3.75,3.75 0 0 1 659.59,782.6188 L666.59,802.4156 L959.09,802.4156 A2.5,2.5 0 0 1 961.59,804.9156 L961.59,907.2088 A2.5,2.5 0 0 1 959.09,909.7088 L526.09,909.7088 A2.5,2.5 0 0 1 523.59,907.2088 L523.59,782.6188 A2.5,2.5 0 0 1 526.09,780.1188 " fill="none" style="stroke:#000000;stroke-width:1.5;"/><line style="stroke:#000000;stroke-width:1.5;" x1="523.59" x2="666.59" y1="802.4156" y2="802.4156"/><text fill="#000000" font-family="sans-serif" font-size="14" font-weight="bold" lengthAdjust="spacing" textLength="130" x="527.59" y="795.1139">Rollup Contracts</text></g><!--entity L2_2--><g id="elem_L2_2"><rect fill="#F1F1F1" height="46.2969" rx="2.5" ry="2.5" style="stroke:#181818;stroke-width:0.5;" width="96" x="942.59" y="487.9688"/><rect fill="#F1F1F1" height="10" style="stroke:#181818;stroke-width:0.5;" width="15" x="1018.59" y="492.9688"/><rect fill="#F1F1F1" height="2" style="stroke:#181818;stroke-width:0.5;" width="4" x="1016.59" y="494.9688"/><rect fill="#F1F1F1" height="2" style="stroke:#181818;stroke-width:0.5;" width="4" x="1016.59" y="498.9688"/><text fill="#000000" font-family="sans-serif" font-size="14" lengthAdjust="spacing" textLength="56" x="957.59" y="520.9639">Rollup 2</text></g><!--entity L2_N--><g id="elem_L2_N"><rect fill="#F1F1F1" height="46.2969" rx="2.5" ry="2.5" style="stroke:#181818;stroke-width:0.5;" width="97" x="1073.09" y="487.9688"/><rect fill="#F1F1F1" height="10" style="stroke:#181818;stroke-width:0.5;" width="15" x="1150.09" y="492.9688"/><rect fill="#F1F1F1" height="2" style="stroke:#181818;stroke-width:0.5;" width="4" x="1148.09" y="494.9688"/><rect fill="#F1F1F1" height="2" style="stroke:#181818;stroke-width:0.5;" width="4" x="1148.09" y="498.9688"/><text fill="#000000" font-family="sans-serif" font-size="14" lengthAdjust="spacing" textLength="57" x="1088.09" y="520.9639">Rollup N</text></g><!--entity L2_1_RPC--><g id="elem_L2_1_RPC"><rect fill="#F1F1F1" height="46.2969" rx="2.5" ry="2.5" style="stroke:#181818;stroke-width:0.5;" width="172" x="696.59" y="487.9688"/><rect fill="#F1F1F1" height="10" style="stroke:#181818;stroke-width:0.5;" width="15" x="848.59" y="492.9688"/><rect fill="#F1F1F1" height="2" style="stroke:#181818;stroke-width:0.5;" width="4" x="846.59" y="494.9688"/><rect fill="#F1F1F1" height="2" style="stroke:#181818;stroke-width:0.5;" width="4" x="846.59" y="498.9688"/><text fill="#000000" font-family="sans-serif" font-size="14" lengthAdjust="spacing" textLength="132" x="711.59" y="520.9639">API (e.g. JSON-RPC)</text></g><!--entity L2_Seq--><g id="elem_L2_Seq"><rect fill="#F1F1F1" height="46.2969" rx="2.5" ry="2.5" style="stroke:#181818;stroke-width:0.5;" width="116" x="209.59" y="487.9688"/><rect fill="#F1F1F1" height="10" style="stroke:#181818;stroke-width:0.5;" width="15" x="305.59" y="492.9688"/><rect fill="#F1F1F1" height="2" style="stroke:#181818;stroke-width:0.5;" width="4" x="303.59" y="494.9688"/><rect fill="#F1F1F1" height="2" style="stroke:#181818;stroke-width:0.5;" width="4" x="303.59" y="498.9688"/><text fill="#000000" font-family="sans-serif" font-size="14" lengthAdjust="spacing" textLength="76" x="224.59" y="520.9639">Sequencer</text></g><!--entity L2_1_Val--><g id="elem_L2_1_Val"><rect fill="#F1F1F1" height="46.2969" rx="2.5" ry="2.5" style="stroke:#181818;stroke-width:0.5;" width="99" x="443.09" y="487.9688"/><rect fill="#F1F1F1" height="10" style="stroke:#181818;stroke-width:0.5;" width="15" x="522.09" y="492.9688"/><rect fill="#F1F1F1" height="2" style="stroke:#181818;stroke-width:0.5;" width="4" x="520.09" y="494.9688"/><rect fill="#F1F1F1" height="2" style="stroke:#181818;stroke-width:0.5;" width="4" x="520.09" y="498.9688"/><text fill="#000000" font-family="sans-serif" font-size="14" lengthAdjust="spacing" textLength="59" x="458.09" y="520.9639">Validator</text></g><!--entity L2_1_Prover--><g id="elem_L2_1_Prover"><rect fill="#F1F1F1" height="46.2969" rx="2.5" ry="2.5" style="stroke:#181818;stroke-width:0.5;" width="84" x="577.59" y="487.9688"/><rect fill="#F1F1F1" height="10" style="stroke:#181818;stroke-width:0.5;" width="15" x="641.59" y="492.9688"/><rect fill="#F1F1F1" height="2" style="stroke:#181818;stroke-width:0.5;" width="4" x="639.59" y="494.9688"/><rect fill="#F1F1F1" height="2" style="stroke:#181818;stroke-width:0.5;" width="4" x="639.59" y="498.9688"/><text fill="#000000" font-family="sans-serif" font-size="14" lengthAdjust="spacing" textLength="44" x="592.59" y="520.9639">Prover</text></g><!--entity LC--><g id="elem_LC"><rect fill="#F1F1F1" height="62.5938" rx="2.5" ry="2.5" style="stroke:#181818;stroke-width:0.5;" width="116" x="338.59" y="823.1188"/><rect fill="#F1F1F1" height="10" style="stroke:#181818;stroke-width:0.5;" width="15" x="434.59" y="828.1188"/><rect fill="#F1F1F1" height="2" style="stroke:#181818;stroke-width:0.5;" width="4" x="432.59" y="830.1188"/><rect fill="#F1F1F1" height="2" style="stroke:#181818;stroke-width:0.5;" width="4" x="432.59" y="834.1188"/><text fill="#000000" font-family="sans-serif" font-size="14" lengthAdjust="spacing" textLength="76" x="353.59" y="856.1139">Light Client</text><text fill="#000000" font-family="sans-serif" font-size="14" lengthAdjust="spacing" textLength="59" x="353.59" y="872.4107">Contract</text></g><!--entity L2_1_L1--><g id="elem_L2_1_L1"><rect fill="#F1F1F1" height="62.5938" rx="2.5" ry="2.5" style="stroke:#181818;stroke-width:0.5;" width="99" x="570.09" y="823.1188"/><rect fill="#F1F1F1" height="10" style="stroke:#181818;stroke-width:0.5;" width="15" x="649.09" y="828.1188"/><rect fill="#F1F1F1" height="2" style="stroke:#181818;stroke-width:0.5;" width="4" x="647.09" y="830.1188"/><rect fill="#F1F1F1" height="2" style="stroke:#181818;stroke-width:0.5;" width="4" x="647.09" y="834.1188"/><text fill="#000000" font-family="sans-serif" font-size="14" lengthAdjust="spacing" textLength="56" x="585.09" y="856.1139">Rollup 1</text><text fill="#000000" font-family="sans-serif" font-size="14" lengthAdjust="spacing" textLength="59" x="585.09" y="872.4107">Contract</text></g><!--entity L2_2_L1--><g id="elem_L2_2_L1"><rect fill="#F1F1F1" height="62.5938" rx="2.5" ry="2.5" style="stroke:#181818;stroke-width:0.5;" width="99" x="704.09" y="823.1188"/><rect fill="#F1F1F1" height="10" style="stroke:#181818;stroke-width:0.5;" width="15" x="783.09" y="828.1188"/><rect fill="#F1F1F1" height="2" style="stroke:#181818;stroke-width:0.5;" width="4" x="781.09" y="830.1188"/><rect fill="#F1F1F1" height="2" style="stroke:#181818;stroke-width:0.5;" width="4" x="781.09" y="834.1188"/><text fill="#000000" font-family="sans-serif" font-size="14" lengthAdjust="spacing" textLength="56" x="719.09" y="856.1139">Rollup 2</text><text fill="#000000" font-family="sans-serif" font-size="14" lengthAdjust="spacing" textLength="59" x="719.09" y="872.4107">Contract</text></g><!--entity L2_N_L1--><g id="elem_L2_N_L1"><rect fill="#F1F1F1" height="62.5938" rx="2.5" ry="2.5" style="stroke:#181818;stroke-width:0.5;" width="99" x="838.09" y="823.1188"/><rect fill="#F1F1F1" height="10" style="stroke:#181818;stroke-width:0.5;" width="15" x="917.09" y="828.1188"/><rect fill="#F1F1F1" height="2" style="stroke:#181818;stroke-width:0.5;" width="4" x="915.09" y="830.1188"/><rect fill="#F1F1F1" height="2" style="stroke:#181818;stroke-width:0.5;" width="4" x="915.09" y="834.1188"/><text fill="#000000" font-family="sans-serif" font-size="14" lengthAdjust="spacing" textLength="57" x="853.09" y="856.1139">Rollup N</text><text fill="#000000" font-family="sans-serif" font-size="14" lengthAdjust="spacing" textLength="59" x="853.09" y="872.4107">Contract</text></g><!--entity Esp--><g id="elem_Esp"><rect fill="#F1F1F1" height="46.2969" rx="2.5" ry="2.5" style="stroke:#181818;stroke-width:0.5;" width="236" x="243.59" y="204.9688"/><rect fill="#F1F1F1" height="10" style="stroke:#181818;stroke-width:0.5;" width="15" x="459.59" y="209.9688"/><rect fill="#F1F1F1" height="2" style="stroke:#181818;stroke-width:0.5;" width="4" x="457.59" y="211.9688"/><rect fill="#F1F1F1" height="2" style="stroke:#181818;stroke-width:0.5;" width="4" x="457.59" y="215.9688"/><text fill="#000000" font-family="sans-serif" font-size="14" lengthAdjust="spacing" textLength="196" x="258.59" y="237.9639">Espresso Confirmation Layer</text></g><!--entity Client--><g id="elem_Client"><ellipse cx="782.59" cy="228.1187" fill="#F1F1F1" rx="8" ry="8" style="stroke:#181818;stroke-width:0.5;"/><text fill="#000000" font-family="sans-serif" font-size="14" lengthAdjust="spacing" textLength="39" x="763.09" y="258.1139">Client</text></g><!--link Client to L2_1_RPC--><g id="link_Client_L2_1_RPC"><path d="M782.59,236.9288 C782.59,273.5288 782.59,422.8388 782.59,481.5288 " fill="none" id="Client-to-L2_1_RPC" style="stroke:#181818;stroke-width:1.0;"/><polygon fill="#181818" points="782.59,487.5288,786.59,478.5288,782.59,482.5288,778.59,478.5288,782.59,487.5288" style="stroke:#181818;stroke-width:1.0;"/><path d="M819.59,292.1188 L819.59,317.1188 L852.59,317.1188 L852.59,302.1188 L842.59,292.1188 L819.59,292.1188 " fill="#FEFFDD" style="stroke:#181818;stroke-width:0.5;"/><path d="M842.59,292.1188 L842.59,302.1188 L852.59,302.1188 L842.59,292.1188 " fill="#FEFFDD" style="stroke:#181818;stroke-width:0.5;"/><text fill="#000000" font-family="sans-serif" font-size="13" lengthAdjust="spacing" textLength="12" x="825.59" y="309.1856">1.</text><text fill="#000000" font-family="sans-serif" font-size="13" lengthAdjust="spacing" textLength="100" x="786.09" y="335.3185">L2 Transactions</text><text fill="#000000" font-family="sans-serif" font-size="13" lengthAdjust="spacing" textLength="105" x="783.59" y="350.4513">L2 State queries</text></g><!--link L2_Seq to L2_Seq--><g id="link_L2_Seq_L2_Seq"><path d="M300,487.6088 C329.25,476.1788 360.59,484.0088 360.59,511.1188 C360.59,538.2188 334.8378,548.2442 305.5878,536.8042 " fill="none" id="L2_Seq-to-L2_Seq" style="stroke:#181818;stroke-width:1.0;"/><polygon fill="#181818" points="300,534.6188,306.9248,541.6222,304.6565,536.44,309.8387,534.1717,300,534.6188" style="stroke:#181818;stroke-width:1.0;"/><path d="M376.59,485.1188 L376.59,510.1188 L409.59,510.1188 L409.59,495.1188 L399.59,485.1188 L376.59,485.1188 " fill="#FEFFDD" style="stroke:#181818;stroke-width:0.5;"/><path d="M399.59,485.1188 L399.59,495.1188 L409.59,495.1188 L399.59,485.1188 " fill="#FEFFDD" style="stroke:#181818;stroke-width:0.5;"/><text fill="#000000" font-family="sans-serif" font-size="13" lengthAdjust="spacing" textLength="12" x="382.59" y="502.1856">2.</text><text fill="#000000" font-family="sans-serif" font-size="13" lengthAdjust="spacing" textLength="53" x="366.59" y="533.3185">L2 Block</text></g><!--reverse link Esp to L2_Seq--><g id="link_Esp_L2_Seq"><path d="M327.2594,255.5705 C316.3894,265.3005 309.55,273.5788 302.59,287.1188 C268.28,353.8588 265.71,445.5288 266.6,487.4888 " fill="none" id="Esp-backto-L2_Seq" style="stroke:#181818;stroke-width:1.0;"/><polygon fill="#181818" points="331.73,251.5688,322.3563,254.591,328.0045,254.9035,327.6919,260.5517,331.73,251.5688" style="stroke:#181818;stroke-width:1.0;"/><text fill="#000000" font-family="sans-serif" font-size="13" lengthAdjust="spacing" textLength="107" x="303.59" y="300.1856">Rollup 1 L2 Block</text><text fill="#000000" font-family="sans-serif" font-size="13" lengthAdjust="spacing" textLength="67" x="323.59" y="315.3185">Rollup 1 ID</text><path d="M340.59,324.3844 L340.59,349.3844 L373.59,349.3844 L373.59,334.3844 L363.59,324.3844 L340.59,324.3844 " fill="#FEFFDD" style="stroke:#181818;stroke-width:0.5;"/><path d="M363.59,324.3844 L363.59,334.3844 L373.59,334.3844 L363.59,324.3844 " fill="#FEFFDD" style="stroke:#181818;stroke-width:0.5;"/><text fill="#000000" font-family="sans-serif" font-size="13" lengthAdjust="spacing" textLength="12" x="346.59" y="341.4513">3.</text></g><!--link Esp to L2_1_Val--><g id="link_Esp_L2_1_Val"><path d="M386.64,251.5388 C396.73,261.6088 407.79,274.1387 415.59,287.1188 C455.99,354.3488 477.7604,439.9146 486.8104,481.7146 " fill="none" id="Esp-to-L2_1_Val" style="stroke:#181818;stroke-width:1.0;"/><polygon fill="#181818" points="488.08,487.5788,490.085,477.9361,487.022,482.692,482.2661,479.629,488.08,487.5788" style="stroke:#181818;stroke-width:1.0;"/><path d="M464.31,292.1188 L464.31,317.1188 L497.31,317.1188 L497.31,302.1188 L487.31,292.1188 L464.31,292.1188 " fill="#FEFFDD" style="stroke:#181818;stroke-width:0.5;"/><path d="M487.31,292.1188 L487.31,302.1188 L497.31,302.1188 L487.31,292.1188 " fill="#FEFFDD" style="stroke:#181818;stroke-width:0.5;"/><text fill="#000000" font-family="sans-serif" font-size="13" lengthAdjust="spacing" textLength="12" x="470.31" y="309.1856">4.</text><text fill="#000000" font-family="sans-serif" font-size="13" lengthAdjust="spacing" textLength="66" x="447.81" y="335.3185">Confirmed</text><text fill="#000000" font-family="sans-serif" font-size="13" lengthAdjust="spacing" textLength="34" x="463.81" y="350.4513">Block</text></g><!--link Esp to LC--><g id="link_Esp_LC"><path d="M243.39,250.7487 C179.99,269.0187 107.16,302.2388 68.59,362.1188 C6,459.2587 15.4,519.5288 68.59,622.1188 C125.35,731.6088 254.8681,797.9835 332.8281,829.9335 " fill="none" id="Esp-to-LC" style="stroke:#181818;stroke-width:1.0;"/><polygon fill="#181818" points="338.38,832.2088,331.5691,825.0946,333.7535,830.3127,328.5354,832.497,338.38,832.2088" style="stroke:#181818;stroke-width:1.0;"/><text fill="#000000" font-family="sans-serif" font-size="13" lengthAdjust="spacing" textLength="123" x="69.59" y="490.6856">Block Commitment</text><text fill="#000000" font-family="sans-serif" font-size="13" lengthAdjust="spacing" textLength="19" x="121.59" y="505.8185">QC</text><path d="M114.59,514.8844 L114.59,539.8844 L147.59,539.8844 L147.59,524.8844 L137.59,514.8844 L114.59,514.8844 " fill="#FEFFDD" style="stroke:#181818;stroke-width:0.5;"/><path d="M137.59,514.8844 L137.59,524.8844 L147.59,524.8844 L137.59,514.8844 " fill="#FEFFDD" style="stroke:#181818;stroke-width:0.5;"/><text fill="#000000" font-family="sans-serif" font-size="13" lengthAdjust="spacing" textLength="12" x="120.59" y="531.9513">5.</text></g><!--link L2_1_Prover to L2_1_L1--><g id="link_L2_1_Prover_L2_1_L1"><path d="M619.59,534.5088 C619.59,593.8288 619.59,749.1088 619.59,816.8188 " fill="none" id="L2_1_Prover-to-L2_1_L1" style="stroke:#181818;stroke-width:1.0;"/><polygon fill="#181818" points="619.59,822.8188,623.59,813.8188,619.59,817.8188,615.59,813.8188,619.59,822.8188" style="stroke:#181818;stroke-width:1.0;"/><path d="M624.59,635.1188 L624.59,660.1188 L657.59,660.1188 L657.59,645.1188 L647.59,635.1188 L624.59,635.1188 " fill="#FEFFDD" style="stroke:#181818;stroke-width:0.5;"/><path d="M647.59,635.1188 L647.59,645.1188 L657.59,645.1188 L647.59,635.1188 " fill="#FEFFDD" style="stroke:#181818;stroke-width:0.5;"/><text fill="#000000" font-family="sans-serif" font-size="13" lengthAdjust="spacing" textLength="12" x="630.59" y="652.1856">6.</text><text fill="#000000" font-family="sans-serif" font-size="13" lengthAdjust="spacing" textLength="35" x="623.59" y="678.3185">State</text><text fill="#000000" font-family="sans-serif" font-size="13" lengthAdjust="spacing" textLength="33" x="624.59" y="693.4513">Proof</text></g><!--link LC to L2_L1--><g id="link_LC_L2_L1"><path d="M455.09,854.4088 C471.235,854.4088 488.1375,854.4088 502.105,854.4088 C509.0888,854.4088 515.3388,854.4088 520.3934,854.4088 C521.0253,854.4088 521.6384,854.4088 522.232,854.4088 C522.5288,854.4088 522.8207,854.4088 523.1076,854.4088 C523.251,854.4088 517.3932,854.4088 517.5342,854.4088 " fill="none" id="LC-to-L2_L1" style="stroke:#181818;stroke-width:1.0;"/><polygon fill="#181818" points="523.5342,854.4088,514.5342,850.4088,518.5342,854.4088,514.5342,858.4088,523.5342,854.4088" style="stroke:#181818;stroke-width:1.0;"/><path d="M476.69,821.4088 L476.69,846.4088 L509.69,846.4088 L509.69,831.4088 L499.69,821.4088 L476.69,821.4088 " fill="#FEFFDD" style="stroke:#181818;stroke-width:0.5;"/><path d="M499.69,821.4088 L499.69,831.4088 L509.69,831.4088 L499.69,821.4088 " fill="#FEFFDD" style="stroke:#181818;stroke-width:0.5;"/><text fill="#000000" font-family="sans-serif" font-size="13" lengthAdjust="spacing" textLength="12" x="482.69" y="838.4756">7.</text></g><!--link L2_1 to L2_2--><!--link L2_2 to L2_N--><!--link L2_1_L1 to L2_2_L1--><!--link L2_2_L1 to L2_N_L1--><!--link L2 to L1--><!--link Esp to L2--><!--SRC=[XLLDRziu4BthLmnoINAm06ktBH0K1Tfq3zrwtJJf1z2w21YAjed8f9UaaZKM-Uzz94L9bkms219e-6RuPkRDaElDLYkX79tyPRT6MAlfKgkbD1lcf5OqOpjXJeXPmdcsPVoUhGIT13CLDfpC2le_8_pmBjgrhgfwIzC6S3jj80FOwwjtT2RoLKv_ttoOJwwlBizRZrjy7V2v4V_MGd5S7t7uFe3wmYfPCgTD6msM0xWhenz41ugVBUwqp_N6CIVexPkEOB04yDEH_8i4Beu0vWampvw6vMsADnrNToPNQqUNbSJNGg5XpZ3k8ZpMh0tLt9CmgMEtioCTIOqRXlNvpgQ_y2Z67iMlFUPZZtdoU48vifWWJIQlMa7GXPVR9yEKXHiKQXSAXjWR2CD8OJEbyU7qblIIAgdkiscU2LMIjsVPQHSi1eQ2Hb6pB1uC86ygpU_7yOj-_EHOYQM3D-O6f5DPso0BrPhUlOqHKxG_-j6yUyeV4aQePZv5kL2HpYbreE9tWFaXm2YXFqSKlBUlVd10XCr6kasGtyVBw7-ddTERDiIpGKtISBNPG84NiN4BXIEzZ9qfKYR70FEKoG70A97dUonIno6oGvHV36M2vfJ2CLdPlcfUJahzg2Qz7U0RB5X9DYo4qwvR4Vbg7_hLIFpVmpQbEHuvhXeFPpjTkpqHVr_BiXJgX-df95HyT5HaiS03ypnB3Hav-5AbPepSuc5dBxrz6lMoPokoIgnyQT4Q32FzmzIEU9XkIxQ-WvR8zQOFE1AChtqBhDpKbMDAwDfMEpfROgVpYg66EzAgydy4cJXBqg9VMycTA4cgfdVdEUQJFgrRb6rV48Iw2tg-gsLLmX3-MsAD-L6wmA7FBSTyUXjuF39JXkSlea7QuHRUVpyhlybpp1Erx-lMwBBcmdQMu6wz8_WggLQ9gM8ROR7A0GvKU1hS18YUWSz3Ul4i6S65VF0lKnEPeVJYFy5hFnthHdinAnbeBclLLDwN5n1fcYkGxxC-UMr3opYNyF1BlTa3Flks33FqEArsWh3b4clP9uv9msyRRSW3Z76tWbq34AZ6cDqzEKQwsQOsiA5wYxH5cOB5sx-zdpJy8GHUrQL0KmE176EUrZ5Fho9AXY6399odMhOIyMo7350ZWwNHgIX5oUcBJtKtBc-us28xjaA3mTcj8TNsahDlxw_FlHWV6GR1Ts1fM5qs1JlYy-7wytdOLt6qify0]--></g></svg>