<?xml version="1.0" encoding="us-ascii" standalone="no"?><svg xmlns="http://www.w3.org/2000/svg" xmlns:xlink="http://www.w3.org/1999/xlink" contentStyleType="text/css" height="574px" preserveAspectRatio="none" style="width:964px;height:574px;background:#FFFFFF;" version="1.1" viewBox="0 0 964 574" width="964px" zoomAndPan="magnify"><defs/><g><!--cluster Rollup--><g id="cluster_Rollup"><rect fill="none" height="212" rx="2.5" ry="2.5" style="stroke:#181818;stroke-width:1.0;" width="499" x="149.03" y="142"/><rect fill="none" height="10" style="stroke:#181818;stroke-width:1.0;" width="15" x="628.03" y="147"/><rect fill="none" height="2" style="stroke:#181818;stroke-width:1.0;" width="4" x="626.03" y="149"/><rect fill="none" height="2" style="stroke:#181818;stroke-width:1.0;" width="4" x="626.03" y="153"/><text fill="#000000" font-family="sans-serif" font-size="14" font-weight="bold" lengthAdjust="spacing" textLength="112" x="342.53" y="168.5352">Example Rollup</text></g><!--cluster Exec--><g id="cluster_Exec"><rect fill="none" height="113" rx="2.5" ry="2.5" style="stroke:#181818;stroke-width:1.0;" width="151" x="449.03" y="201"/><rect fill="none" height="10" style="stroke:#181818;stroke-width:1.0;" width="15" x="580.03" y="206"/><rect fill="none" height="2" style="stroke:#181818;stroke-width:1.0;" width="4" x="578.03" y="208"/><rect fill="none" height="2" style="stroke:#181818;stroke-width:1.0;" width="4" x="578.03" y="212"/><text fill="#000000" font-family="sans-serif" font-size="14" font-weight="bold" lengthAdjust="spacing" textLength="61" x="494.03" y="227.5352">Executor</text></g><!--cluster L1--><g id="cluster_L1"><path d="M366.53,437 L419.53,437 A3.75,3.75 0 0 1 422.03,439.5 L429.03,459.4883 L942.53,459.4883 A2.5,2.5 0 0 1 945.03,461.9883 L945.03,564.5 A2.5,2.5 0 0 1 942.53,567 L366.53,567 A2.5,2.5 0 0 1 364.03,564.5 L364.03,439.5 A2.5,2.5 0 0 1 366.53,437 " fill="none" style="stroke:#000000;stroke-width:1.5;"/><line style="stroke:#000000;stroke-width:1.5;" x1="364.03" x2="429.03" y1="459.4883" y2="459.4883"/><text fill="#000000" font-family="sans-serif" font-size="14" font-weight="bold" lengthAdjust="spacing" textLength="52" x="368.03" y="452.5352">Layer 1</text></g><!--entity API--><g id="elem_API"><rect fill="#F1F1F1" height="46.4883" rx="2.5" ry="2.5" style="stroke:#181818;stroke-width:0.5;" width="62" x="173.03" y="244"/><rect fill="#F1F1F1" height="10" style="stroke:#181818;stroke-width:0.5;" width="15" x="215.03" y="249"/><rect fill="#F1F1F1" height="2" style="stroke:#181818;stroke-width:0.5;" width="4" x="213.03" y="251"/><rect fill="#F1F1F1" height="2" style="stroke:#181818;stroke-width:0.5;" width="4" x="213.03" y="255"/><text fill="#000000" font-family="sans-serif" font-size="14" lengthAdjust="spacing" textLength="22" x="188.03" y="277.5352">API</text></g><!--entity Prover--><g id="elem_Prover"><rect fill="#F1F1F1" height="46.4883" rx="2.5" ry="2.5" style="stroke:#181818;stroke-width:0.5;" width="84" x="492.03" y="244"/><rect fill="#F1F1F1" height="10" style="stroke:#181818;stroke-width:0.5;" width="15" x="556.03" y="249"/><rect fill="#F1F1F1" height="2" style="stroke:#181818;stroke-width:0.5;" width="4" x="554.03" y="251"/><rect fill="#F1F1F1" height="2" style="stroke:#181818;stroke-width:0.5;" width="4" x="554.03" y="255"/><text fill="#000000" font-family="sans-serif" font-size="14" lengthAdjust="spacing" textLength="44" x="507.03" y="277.5352">Prover</text></g><!--entity Seq_L1--><g id="elem_Seq_L1"><rect fill="#F1F1F1" height="46.4883" rx="2.5" ry="2.5" style="stroke:#181818;stroke-width:0.5;" width="175" x="745.53" y="488.5"/><rect fill="#F1F1F1" height="10" style="stroke:#181818;stroke-width:0.5;" width="15" x="900.53" y="493.5"/><rect fill="#F1F1F1" height="2" style="stroke:#181818;stroke-width:0.5;" width="4" x="898.53" y="495.5"/><rect fill="#F1F1F1" height="2" style="stroke:#181818;stroke-width:0.5;" width="4" x="898.53" y="499.5"/><text fill="#000000" font-family="sans-serif" font-size="14" lengthAdjust="spacing" textLength="135" x="760.53" y="522.0352">Sequencer Contract</text></g><!--entity Rollup_L1--><g id="elem_Rollup_L1"><rect fill="#F1F1F1" height="62.9766" rx="2.5" ry="2.5" style="stroke:#181818;stroke-width:0.5;" width="99" x="407.53" y="480"/><rect fill="#F1F1F1" height="10" style="stroke:#181818;stroke-width:0.5;" width="15" x="486.53" y="485"/><rect fill="#F1F1F1" height="2" style="stroke:#181818;stroke-width:0.5;" width="4" x="484.53" y="487"/><rect fill="#F1F1F1" height="2" style="stroke:#181818;stroke-width:0.5;" width="4" x="484.53" y="491"/><text fill="#000000" font-family="sans-serif" font-size="14" lengthAdjust="spacing" textLength="57" x="422.53" y="513.5352">Rollup 1</text><text fill="#000000" font-family="sans-serif" font-size="14" lengthAdjust="spacing" textLength="59" x="422.53" y="530.0234">Contract</text></g><!--entity Seq--><g id="elem_Seq"><rect fill="#F1F1F1" height="46.4883" rx="2.5" ry="2.5" style="stroke:#181818;stroke-width:0.5;" width="171" x="468.53" y="7"/><rect fill="#F1F1F1" height="10" style="stroke:#181818;stroke-width:0.5;" width="15" x="619.53" y="12"/><rect fill="#F1F1F1" height="2" style="stroke:#181818;stroke-width:0.5;" width="4" x="617.53" y="14"/><rect fill="#F1F1F1" height="2" style="stroke:#181818;stroke-width:0.5;" width="4" x="617.53" y="18"/><text fill="#000000" font-family="sans-serif" font-size="14" lengthAdjust="spacing" textLength="131" x="483.53" y="40.5352">HotShot Sequencer</text></g><!--entity Alice--><g id="elem_Alice"><ellipse cx="75.03" cy="511.5" fill="#F1F1F1" rx="8" ry="8" style="stroke:#181818;stroke-width:0.5;"/><text fill="#000000" font-family="sans-serif" font-size="14" lengthAdjust="spacing" textLength="33" x="58.53" y="542.0352">Alice</text></g><!--entity Bob--><g id="elem_Bob"><ellipse cx="204.03" cy="511.5" fill="#F1F1F1" rx="8" ry="8" style="stroke:#181818;stroke-width:0.5;"/><text fill="#000000" font-family="sans-serif" font-size="14" lengthAdjust="spacing" textLength="26" x="191.03" y="542.0352">Bob</text></g><!--reverse link API to Alice--><g id="link_API_Alice"><path d="M166.57,279.48 C124.69,294.56 58.96,325.49 30.03,378 C6,421.62 49.32,480.35 67.53,502.01 " fill="none" id="API-backto-Alice" style="stroke:#181818;stroke-width:1.0;"/><polygon fill="#181818" points="171.14,277.87,161.3207,277.1074,166.4274,279.5408,163.994,284.6475,171.14,277.87" style="stroke:#181818;stroke-width:1.0;"/><path d="M35.03,383 L35.03,408 L191.03,408 L191.03,393 L181.03,383 L35.03,383 " fill="#FEFFDD" style="stroke:#181818;stroke-width:0.5;"/><path d="M181.03,383 L181.03,393 L191.03,393 L181.03,383 " fill="#FEFFDD" style="stroke:#181818;stroke-width:0.5;"/><text fill="#000000" font-family="sans-serif" font-size="13" lengthAdjust="spacing" textLength="135" x="41.03" y="400.5684">1. Submit transaction</text></g><!--link API to Seq--><g id="link_API_Seq"><path d="M202.09,243.63 C200.06,204.85 202.07,125.22 247.03,83 C277.52,54.38 383.29,41.36 462.21,35.54 " fill="none" id="API-to-Seq" style="stroke:#181818;stroke-width:1.0;"/><polygon fill="#181818" points="466.82,35.2,457.5477,31.8797,461.8338,35.5715,458.142,39.8576,466.82,35.2" style="stroke:#181818;stroke-width:1.0;"/><path d="M252.03,88 L252.03,113 L414.03,113 L414.03,98 L404.03,88 L252.03,88 " fill="#FEFFDD" style="stroke:#181818;stroke-width:0.5;"/><path d="M404.03,88 L404.03,98 L414.03,98 L404.03,88 " fill="#FEFFDD" style="stroke:#181818;stroke-width:0.5;"/><text fill="#000000" font-family="sans-serif" font-size="13" lengthAdjust="spacing" textLength="141" x="258.03" y="105.5684">2. Forward transaction</text></g><!--link Seq to Seq_L1--><g id="link_Seq_Seq_L1"><path d="M636.36,53.48 C651.84,60.81 666.7,70.43 678.03,83 C767.32,181.96 716.52,245.86 765.03,370 C780.69,410.06 803.07,454.45 817.82,482.4 " fill="none" id="Seq-to-Seq_L1" style="stroke:#181818;stroke-width:1.0;"/><polygon fill="#181818" points="820.14,486.78,819.4539,476.9551,817.796,482.3635,812.3875,480.7055,820.14,486.78" style="stroke:#181818;stroke-width:1.0;"/><path d="M770.03,254.5 L770.03,279.5 L957.03,279.5 L957.03,264.5 L947.03,254.5 L770.03,254.5 " fill="#FEFFDD" style="stroke:#181818;stroke-width:0.5;"/><path d="M947.03,254.5 L947.03,264.5 L957.03,264.5 L947.03,254.5 " fill="#FEFFDD" style="stroke:#181818;stroke-width:0.5;"/><text fill="#000000" font-family="sans-serif" font-size="13" lengthAdjust="spacing" textLength="166" x="776.03" y="272.0684">3. Post block commitment</text></g><!--reverse link Seq to Exec--><g id="link_Seq_Exec"><path d="M462.44,56.6 C451.23,63.43 441.21,72.07 434.03,83 C425.5,96 425.43,105.04 434.03,118 C439.1,125.63 447.86,118.44 453.03,126 C461.685,138.64 466.3225,153.5375 468.3958,168.8159 C469.4324,176.4552 469.828,184.1896 469.7642,191.7847 C469.7482,193.6835 469.7036,195.5736 469.633,197.4513 C469.5978,198.3901 469.556,199.3259 469.5082,200.2581 C469.4962,200.4911 469.4839,200.724 469.4712,200.9566 " fill="none" id="Seq-backto-Exec" style="stroke:#181818;stroke-width:1.0;"/><polygon fill="#181818" points="466.73,54.14,456.9334,55.1531,462.3941,56.6299,460.9173,62.0906,466.73,54.14" style="stroke:#181818;stroke-width:1.0;"/><path d="M439.03,88 L439.03,113 L633.03,113 L633.03,98 L623.03,88 L439.03,88 " fill="#FEFFDD" style="stroke:#181818;stroke-width:0.5;"/><path d="M623.03,88 L623.03,98 L633.03,98 L623.03,88 " fill="#FEFFDD" style="stroke:#181818;stroke-width:0.5;"/><text fill="#000000" font-family="sans-serif" font-size="13" lengthAdjust="spacing" textLength="173" x="445.03" y="105.5684">4. Fetch block commitment</text></g><!--link Exec to API--><g id="link_Exec_API"><path d="M448.9483,267 C448.811,267 448.6721,267 448.5317,267 C447.9698,267 447.3825,267 446.7705,267 C441.8746,267 435.3988,267 427.722,267 C412.3684,267 392.2106,267 370.2788,267 C326.415,267 275.455,267 241.64,267 " fill="none" id="Exec-to-API" style="stroke:#181818;stroke-width:1.0;"/><polygon fill="#181818" points="236.82,267,245.82,271,241.82,267,245.82,263,236.82,267" style="stroke:#181818;stroke-width:1.0;"/><path d="M257.35,234 L257.35,259 L434.35,259 L434.35,244 L424.35,234 L257.35,234 " fill="#FEFFDD" style="stroke:#181818;stroke-width:0.5;"/><path d="M424.35,234 L424.35,244 L434.35,244 L424.35,234 " fill="#FEFFDD" style="stroke:#181818;stroke-width:0.5;"/><text fill="#000000" font-family="sans-serif" font-size="13" lengthAdjust="spacing" textLength="156" x="263.35" y="251.5684">5. Fetch transaction data</text></g><!--link API to Exec--><!--link Exec to Rollup_L1--><g id="link_Exec_Rollup_L1"><path d="M457.03,314.8224 C457.03,315.3935 457.03,315.9683 457.03,316.5465 C457.03,325.7981 457.03,335.945 457.03,346.595 C457.03,389.195 457.03,439.845 457.03,473.45 " fill="none" id="Exec-to-Rollup_L1" style="stroke:#181818;stroke-width:1.0;"/><polygon fill="#181818" points="457.03,478.22,461.03,469.22,457.03,473.22,453.03,469.22,457.03,478.22" style="stroke:#181818;stroke-width:1.0;"/><path d="M462.03,383 L462.03,408 L564.03,408 L564.03,393 L554.03,383 L462.03,383 " fill="#FEFFDD" style="stroke:#181818;stroke-width:0.5;"/><path d="M554.03,383 L554.03,393 L564.03,393 L554.03,383 " fill="#FEFFDD" style="stroke:#181818;stroke-width:0.5;"/><text fill="#000000" font-family="sans-serif" font-size="13" lengthAdjust="spacing" textLength="81" x="468.03" y="400.5684">6. Post proof</text></g><!--link Seq_L1 to Rollup_L1--><g id="link_Seq_L1_Rollup_L1"><path d="M745.38,511.5 C673.72,511.5 574.54,511.5 513.15,511.5 " fill="none" id="Seq_L1-to-Rollup_L1" style="stroke:#181818;stroke-width:1.0;"/><polygon fill="#181818" points="508.48,511.5,517.48,515.5,513.48,511.5,517.48,507.5,508.48,511.5" style="stroke:#181818;stroke-width:1.0;"/><path d="M529.03,478.5 L529.03,503.5 L723.03,503.5 L723.03,488.5 L713.03,478.5 L529.03,478.5 " fill="#FEFFDD" style="stroke:#181818;stroke-width:0.5;"/><path d="M713.03,478.5 L713.03,488.5 L723.03,488.5 L713.03,478.5 " fill="#FEFFDD" style="stroke:#181818;stroke-width:0.5;"/><text fill="#000000" font-family="sans-serif" font-size="13" lengthAdjust="spacing" textLength="173" x="535.03" y="496.0684">7. Fetch block commitment</text></g><!--link Bob to API--><g id="link_Bob_API"><path d="M204.03,502.19 C204.03,469.91 204.03,351.94 204.03,296.78 " fill="none" id="Bob-to-API" style="stroke:#181818;stroke-width:1.0;"/><polygon fill="#181818" points="204.03,291.89,200.03,300.89,204.03,296.89,208.03,300.89,204.03,291.89" style="stroke:#181818;stroke-width:1.0;"/><path d="M209.03,383 L209.03,408 L335.03,408 L335.03,393 L325.03,383 L209.03,383 " fill="#FEFFDD" style="stroke:#181818;stroke-width:0.5;"/><path d="M325.03,383 L325.03,393 L335.03,393 L325.03,383 " fill="#FEFFDD" style="stroke:#181818;stroke-width:0.5;"/><text fill="#000000" font-family="sans-serif" font-size="13" lengthAdjust="spacing" textLength="105" x="215.03" y="400.5684">8. Query balance</text></g><!--link Rollup to L1--><!--link Alice to Bob--><!--link Seq to Rollup--><!--SRC=[ZP9FJuD04CNl-oaclNWg2Vu_69DgQcpI0zgZ6hCisq8AExWTR8tnkpliKaeRQkJ2mlxUstapgx0eqMX3C7X4cgL8CDCVbJPAsm78LVqbXDfHuuqiobp3C-PvLJh4B-5RGFDqy54qSGo_UxR76wqgGbiJzRhZiGz65Z-rm_ognNw4Q5wbL4kvq32OoYz6GtViD6miEoMr-U0U3LcfQ1lqVHeUmassyDNimVvtmmi-VPHdIiEmAeUtBgj1qc2pHKg0SyWpinHX0BCgBZ82zZ4hjihG26qIg6717j44M5vttCa9orPy6i03shMqoH4rgs2OuDfuXxgqdXhE0eXmHH3dg9PrJYwduA07HZVUoSsap-QSgz6aqhzyt3oFT-DYQz690uaasMEnwtQFqMKJgRI8y_qShEYHnqY4HQk_-aUMEupRvXx9Snt0KwNj5yGobtoxEkeJu2k95Va1lwHPacZpPjdBzRUvOkr6mXjSQtEZkZYNuUVSHRty5m00]--></g></svg>