<?xml version="1.0" encoding="us-ascii" standalone="no"?><svg xmlns="http://www.w3.org/2000/svg" xmlns:xlink="http://www.w3.org/1999/xlink" contentStyleType="text/css" height="574px" preserveAspectRatio="none" style="width:989px;height:574px;background:#FFFFFF;" version="1.1" viewBox="0 0 989 574" width="989px" zoomAndPan="magnify"><defs/><g><!--cluster Rollup--><g id="cluster_Rollup"><rect fill="none" height="212" rx="2.5" ry="2.5" style="stroke:#181818;stroke-width:1.0;" width="463" x="159.27" y="142"/><rect fill="none" height="10" style="stroke:#181818;stroke-width:1.0;" width="15" x="602.27" y="147"/><rect fill="none" height="2" style="stroke:#181818;stroke-width:1.0;" width="4" x="600.27" y="149"/><rect fill="none" height="2" style="stroke:#181818;stroke-width:1.0;" width="4" x="600.27" y="153"/><text fill="#000000" font-family="sans-serif" font-size="14" font-weight="bold" lengthAdjust="spacing" textLength="112" x="334.77" y="168.5352">Example Rollup</text></g><!--cluster Exec--><g id="cluster_Exec"><rect fill="none" height="113" rx="2.5" ry="2.5" style="stroke:#181818;stroke-width:1.0;" width="151" x="423.27" y="201"/><rect fill="none" height="10" style="stroke:#181818;stroke-width:1.0;" width="15" x="554.27" y="206"/><rect fill="none" height="2" style="stroke:#181818;stroke-width:1.0;" width="4" x="552.27" y="208"/><rect fill="none" height="2" style="stroke:#181818;stroke-width:1.0;" width="4" x="552.27" y="212"/><text fill="#000000" font-family="sans-serif" font-size="14" font-weight="bold" lengthAdjust="spacing" textLength="61" x="468.27" y="227.5352">Executor</text></g><!--cluster L1--><g id="cluster_L1"><path d="M340.77,437 L393.77,437 A3.75,3.75 0 0 1 396.27,439.5 L403.27,459.4883 L916.77,459.4883 A2.5,2.5 0 0 1 919.27,461.9883 L919.27,564.5 A2.5,2.5 0 0 1 916.77,567 L340.77,567 A2.5,2.5 0 0 1 338.27,564.5 L338.27,439.5 A2.5,2.5 0 0 1 340.77,437 " fill="none" style="stroke:#000000;stroke-width:1.5;"/><line style="stroke:#000000;stroke-width:1.5;" x1="338.27" x2="403.27" y1="459.4883" y2="459.4883"/><text fill="#000000" font-family="sans-serif" font-size="14" font-weight="bold" lengthAdjust="spacing" textLength="52" x="342.27" y="452.5352">Layer 1</text></g><!--entity API--><g id="elem_API"><rect fill="#F1F1F1" height="46.4883" rx="2.5" ry="2.5" style="stroke:#181818;stroke-width:0.5;" width="62" x="183.27" y="244"/><rect fill="#F1F1F1" height="10" style="stroke:#181818;stroke-width:0.5;" width="15" x="225.27" y="249"/><rect fill="#F1F1F1" height="2" style="stroke:#181818;stroke-width:0.5;" width="4" x="223.27" y="251"/><rect fill="#F1F1F1" height="2" style="stroke:#181818;stroke-width:0.5;" width="4" x="223.27" y="255"/><text fill="#000000" font-family="sans-serif" font-size="14" lengthAdjust="spacing" textLength="22" x="198.27" y="277.5352">API</text></g><!--entity Prover--><g id="elem_Prover"><rect fill="#F1F1F1" height="46.4883" rx="2.5" ry="2.5" style="stroke:#181818;stroke-width:0.5;" width="84" x="466.27" y="244"/><rect fill="#F1F1F1" height="10" style="stroke:#181818;stroke-width:0.5;" width="15" x="530.27" y="249"/><rect fill="#F1F1F1" height="2" style="stroke:#181818;stroke-width:0.5;" width="4" x="528.27" y="251"/><rect fill="#F1F1F1" height="2" style="stroke:#181818;stroke-width:0.5;" width="4" x="528.27" y="255"/><text fill="#000000" font-family="sans-serif" font-size="14" lengthAdjust="spacing" textLength="44" x="481.27" y="277.5352">Prover</text></g><!--entity Seq_L1--><g id="elem_Seq_L1"><rect fill="#F1F1F1" height="46.4883" rx="2.5" ry="2.5" style="stroke:#181818;stroke-width:0.5;" width="175" x="719.77" y="488.5"/><rect fill="#F1F1F1" height="10" style="stroke:#181818;stroke-width:0.5;" width="15" x="874.77" y="493.5"/><rect fill="#F1F1F1" height="2" style="stroke:#181818;stroke-width:0.5;" width="4" x="872.77" y="495.5"/><rect fill="#F1F1F1" height="2" style="stroke:#181818;stroke-width:0.5;" width="4" x="872.77" y="499.5"/><text fill="#000000" font-family="sans-serif" font-size="14" lengthAdjust="spacing" textLength="135" x="734.77" y="522.0352">Sequencer Contract</text></g><!--entity Rollup_L1--><g id="elem_Rollup_L1"><rect fill="#F1F1F1" height="62.9766" rx="2.5" ry="2.5" style="stroke:#181818;stroke-width:0.5;" width="99" x="381.77" y="480"/><rect fill="#F1F1F1" height="10" style="stroke:#181818;stroke-width:0.5;" width="15" x="460.77" y="485"/><rect fill="#F1F1F1" height="2" style="stroke:#181818;stroke-width:0.5;" width="4" x="458.77" y="487"/><rect fill="#F1F1F1" height="2" style="stroke:#181818;stroke-width:0.5;" width="4" x="458.77" y="491"/><text fill="#000000" font-family="sans-serif" font-size="14" lengthAdjust="spacing" textLength="57" x="396.77" y="513.5352">Rollup 1</text><text fill="#000000" font-family="sans-serif" font-size="14" lengthAdjust="spacing" textLength="59" x="396.77" y="530.0234">Contract</text></g><!--entity Seq--><g id="elem_Seq"><rect fill="#F1F1F1" height="46.4883" rx="2.5" ry="2.5" style="stroke:#181818;stroke-width:0.5;" width="171" x="456.77" y="7"/><rect fill="#F1F1F1" height="10" style="stroke:#181818;stroke-width:0.5;" width="15" x="607.77" y="12"/><rect fill="#F1F1F1" height="2" style="stroke:#181818;stroke-width:0.5;" width="4" x="605.77" y="14"/><rect fill="#F1F1F1" height="2" style="stroke:#181818;stroke-width:0.5;" width="4" x="605.77" y="18"/><text fill="#000000" font-family="sans-serif" font-size="14" lengthAdjust="spacing" textLength="131" x="471.77" y="40.5352">HotShot Sequencer</text></g><!--entity Alice--><g id="elem_Alice"><ellipse cx="67.27" cy="511.5" fill="#F1F1F1" rx="8" ry="8" style="stroke:#181818;stroke-width:0.5;"/><text fill="#000000" font-family="sans-serif" font-size="14" lengthAdjust="spacing" textLength="33" x="50.77" y="542.0352">Alice</text></g><!--entity Bob--><g id="elem_Bob"><ellipse cx="196.27" cy="511.5" fill="#F1F1F1" rx="8" ry="8" style="stroke:#181818;stroke-width:0.5;"/><text fill="#000000" font-family="sans-serif" font-size="14" lengthAdjust="spacing" textLength="26" x="183.27" y="542.0352">Bob</text></g><!--reverse link API to Alice--><g id="link_API_Alice"><path d="M176.87,278.15 C132.79,292.35 61.58,322.81 30.27,378 C6,420.79 44.75,480.51 60.81,502.21 " fill="none" id="API-backto-Alice" style="stroke:#181818;stroke-width:1.0;"/><polygon fill="#181818" points="181.46,276.71,171.6737,275.6016,176.6914,278.2136,174.0795,283.2313,181.46,276.71" style="stroke:#181818;stroke-width:1.0;"/><path d="M35.27,383 L35.27,408 L191.27,408 L191.27,393 L181.27,383 L35.27,383 " fill="#FEFFDD" style="stroke:#181818;stroke-width:0.5;"/><path d="M181.27,383 L181.27,393 L191.27,393 L181.27,383 " fill="#FEFFDD" style="stroke:#181818;stroke-width:0.5;"/><text fill="#000000" font-family="sans-serif" font-size="13" lengthAdjust="spacing" textLength="135" x="41.27" y="400.5684">1. Submit transaction</text></g><!--link API to Seq--><g id="link_API_Seq"><path d="M209.52,243.64 C202.79,205.21 195.54,126.61 237.27,83 C266.01,52.98 371.41,40.25 450.32,34.88 " fill="none" id="API-to-Seq" style="stroke:#181818;stroke-width:1.0;"/><polygon fill="#181818" points="454.92,34.58,445.6764,31.1805,449.9308,34.9088,446.2025,39.1632,454.92,34.58" style="stroke:#181818;stroke-width:1.0;"/><path d="M242.27,88 L242.27,113 L404.27,113 L404.27,98 L394.27,88 L242.27,88 " fill="#FEFFDD" style="stroke:#181818;stroke-width:0.5;"/><path d="M394.27,88 L394.27,98 L404.27,98 L394.27,88 " fill="#FEFFDD" style="stroke:#181818;stroke-width:0.5;"/><text fill="#000000" font-family="sans-serif" font-size="13" lengthAdjust="spacing" textLength="141" x="248.27" y="105.5684">2. Forward transaction</text></g><!--link Seq to Seq_L1--><g id="link_Seq_Seq_L1"><path d="M622.73,53.37 C638.44,60.74 653.63,70.4 665.27,83 C774.73,201.5 799.99,406.59 805.67,481.79 " fill="none" id="Seq-to-Seq_L1" style="stroke:#181818;stroke-width:1.0;"/><polygon fill="#181818" points="806.03,486.73,809.3767,477.4672,805.6727,481.7428,801.3972,478.0388,806.03,486.73" style="stroke:#181818;stroke-width:1.0;"/><path d="M795.27,254.5 L795.27,279.5 L982.27,279.5 L982.27,264.5 L972.27,254.5 L795.27,254.5 " fill="#FEFFDD" style="stroke:#181818;stroke-width:0.5;"/><path d="M972.27,254.5 L972.27,264.5 L982.27,264.5 L972.27,254.5 " fill="#FEFFDD" style="stroke:#181818;stroke-width:0.5;"/><text fill="#000000" font-family="sans-serif" font-size="13" lengthAdjust="spacing" textLength="166" x="801.27" y="272.0684">3. Post block commitment</text></g><!--reverse link Seq to Exec--><g id="link_Seq_Exec"><path d="M450.68,56.6 C439.47,63.43 429.45,72.07 422.27,83 C413.74,96 417.98,103.05 422.27,118 C423.43,122.03 426.06,121.99 427.27,126 C431.705,140.6625 434.1994,156.5869 435.4397,172.2641 C436.0598,180.1027 436.3665,187.8795 436.4454,195.4058 C436.4553,196.3466 436.4616,197.2835 436.4645,198.2161 C436.466,198.6824 436.4666,199.1476 436.4664,199.6117 C436.4663,199.8438 436.466,200.0756 436.4654,200.3071 " fill="none" id="Seq-backto-Exec" style="stroke:#181818;stroke-width:1.0;"/><polygon fill="#181818" points="454.97,54.14,445.1734,55.1531,450.6341,56.6299,449.1573,62.0906,454.97,54.14" style="stroke:#181818;stroke-width:1.0;"/><path d="M427.27,88 L427.27,113 L621.27,113 L621.27,98 L611.27,88 L427.27,88 " fill="#FEFFDD" style="stroke:#181818;stroke-width:0.5;"/><path d="M611.27,88 L611.27,98 L621.27,98 L611.27,88 " fill="#FEFFDD" style="stroke:#181818;stroke-width:0.5;"/><text fill="#000000" font-family="sans-serif" font-size="13" lengthAdjust="spacing" textLength="173" x="433.27" y="105.5684">4. Fetch block commitment</text></g><!--link Exec to API--><g id="link_Exec_API"><path d="M422.9486,267 C422.7018,267 422.4501,267 422.1934,267 C418.087,267 412.7269,267 406.4044,267 C393.7594,267 377.265,267 359.2525,267 C323.2275,267 281.13,267 251.61,267 " fill="none" id="Exec-to-API" style="stroke:#181818;stroke-width:1.0;"/><polygon fill="#181818" points="246.88,267,255.88,271,251.88,267,255.88,263,246.88,267" style="stroke:#181818;stroke-width:1.0;"/><path d="M267.59,234 L267.59,259 L408.59,259 L408.59,244 L398.59,234 L267.59,234 " fill="#FEFFDD" style="stroke:#181818;stroke-width:0.5;"/><path d="M398.59,234 L398.59,244 L408.59,244 L398.59,234 " fill="#FEFFDD" style="stroke:#181818;stroke-width:0.5;"/><text fill="#000000" font-family="sans-serif" font-size="13" lengthAdjust="spacing" textLength="120" x="273.59" y="251.5684">5. Fetch block data</text></g><!--link API to Exec--><!--link Exec to Rollup_L1--><g id="link_Exec_Rollup_L1"><path d="M431.27,314.8224 C431.27,315.3935 431.27,315.9683 431.27,316.5465 C431.27,325.7981 431.27,335.945 431.27,346.595 C431.27,389.195 431.27,439.845 431.27,473.45 " fill="none" id="Exec-to-Rollup_L1" style="stroke:#181818;stroke-width:1.0;"/><polygon fill="#181818" points="431.27,478.22,435.27,469.22,431.27,473.22,427.27,469.22,431.27,478.22" style="stroke:#181818;stroke-width:1.0;"/><path d="M436.27,383 L436.27,408 L538.27,408 L538.27,393 L528.27,383 L436.27,383 " fill="#FEFFDD" style="stroke:#181818;stroke-width:0.5;"/><path d="M528.27,383 L528.27,393 L538.27,393 L528.27,383 " fill="#FEFFDD" style="stroke:#181818;stroke-width:0.5;"/><text fill="#000000" font-family="sans-serif" font-size="13" lengthAdjust="spacing" textLength="81" x="442.27" y="400.5684">6. Post proof</text></g><!--link Seq_L1 to Rollup_L1--><g id="link_Seq_L1_Rollup_L1"><path d="M719.62,511.5 C647.96,511.5 548.78,511.5 487.39,511.5 " fill="none" id="Seq_L1-to-Rollup_L1" style="stroke:#181818;stroke-width:1.0;"/><polygon fill="#181818" points="482.72,511.5,491.72,515.5,487.72,511.5,491.72,507.5,482.72,511.5" style="stroke:#181818;stroke-width:1.0;"/><path d="M503.27,478.5 L503.27,503.5 L697.27,503.5 L697.27,488.5 L687.27,478.5 L503.27,478.5 " fill="#FEFFDD" style="stroke:#181818;stroke-width:0.5;"/><path d="M687.27,478.5 L687.27,488.5 L697.27,488.5 L687.27,478.5 " fill="#FEFFDD" style="stroke:#181818;stroke-width:0.5;"/><text fill="#000000" font-family="sans-serif" font-size="13" lengthAdjust="spacing" textLength="173" x="509.27" y="496.0684">7. Fetch block commitment</text></g><!--link Bob to API--><g id="link_Bob_API"><path d="M196.89,502.19 C199.29,469.91 208.04,351.94 212.14,296.78 " fill="none" id="Bob-to-API" style="stroke:#181818;stroke-width:1.0;"/><polygon fill="#181818" points="212.5,291.89,207.8689,300.5821,212.1438,296.8773,215.8486,301.1521,212.5,291.89" style="stroke:#181818;stroke-width:1.0;"/><path d="M211.27,383 L211.27,408 L337.27,408 L337.27,393 L327.27,383 L211.27,383 " fill="#FEFFDD" style="stroke:#181818;stroke-width:0.5;"/><path d="M327.27,383 L327.27,393 L337.27,393 L327.27,383 " fill="#FEFFDD" style="stroke:#181818;stroke-width:0.5;"/><text fill="#000000" font-family="sans-serif" font-size="13" lengthAdjust="spacing" textLength="105" x="217.27" y="400.5684">8. Query balance</text></g><!--link Rollup to L1--><!--link Alice to Bob--><!--link Seq to Rollup--><!--SRC=[ZP9FJuD04CNl-oaclNXg4_n_C2RLrDYa1xH7DMPPjeKKTd0xs3R6x-wmYnGQQkJ2mlxUstapgp0lq6X3C7X4cYT8CDSVfJPAsm78TVKbXDfJawtCYqp3CsPPMJZ4B-5BGFsqy74uTGo_UxOdMwrAGbiHrRhbqGL3Yv_QONxLODz2rAz2gfLSQXZCv8xHm1qx2shBLabDFhX7GrOg-WtwFWiEuJfRy6ewiFzTyu9F7sUfqZ0iY-6josgGDDXqcH3W0hBKh4GmWdaPvIa1-vWrMwLeX3OnLB1WZt0ABAywxkI4HIC-7S43sesqyH4rgs0OuyPuXwgqdXhEHX3YcY3AKAsgd5nEpa4FZ6wyavj9dyqvLwD99N_vk7aUxyP5roAM97l4-pxtM5pMOGgBkEWcO4MFF48Yp1lzrJzIt67KjFL8akiHF9NQxY2IcUHxrLAV05z6BCcFzYL9urYRDyjUhhFrvMesOjxWMkkxrCQv33_XDkhbFm00]--></g></svg>