<svg xmlns="http://www.w3.org/2000/svg" xmlns:xlink="http://www.w3.org/1999/xlink" contentStyleType="text/css" height="472px" preserveAspectRatio="none" style="width:524px;height:472px;background:#FFFFFF;" version="1.1" viewBox="0 0 524 472" width="524px" zoomAndPan="magnify"><defs/><g><rect fill="none" height="188.7969" style="stroke:#000000;stroke-width:1.5;" width="478.5" x="10" y="185.6953"/><line style="stroke:#181818;stroke-width:0.5;stroke-dasharray:5.0,5.0;" x1="42" x2="42" y1="81.2969" y2="391.4922"/><line style="stroke:#181818;stroke-width:0.5;stroke-dasharray:5.0,5.0;" x1="160" x2="160" y1="81.2969" y2="391.4922"/><line style="stroke:#181818;stroke-width:0.5;stroke-dasharray:5.0,5.0;" x1="418.5" x2="418.5" y1="81.2969" y2="391.4922"/><line style="stroke:#181818;stroke-width:0.5;stroke-dasharray:5.0,5.0;" x1="503.5" x2="503.5" y1="81.2969" y2="391.4922"/><text fill="#000000" font-family="sans-serif" font-size="14" lengthAdjust="spacing" textLength="39" x="20" y="77.9951">Client</text><ellipse cx="42.5" cy="13.5" fill="#E2E2F0" rx="8" ry="8" style="stroke:#181818;stroke-width:0.5;"/><path d="M42.5,21.5 L42.5,48.5 M29.5,29.5 L55.5,29.5 M42.5,48.5 L29.5,63.5 M42.5,48.5 L55.5,63.5 " fill="none" style="stroke:#181818;stroke-width:0.5;"/><text fill="#000000" font-family="sans-serif" font-size="14" lengthAdjust="spacing" textLength="39" x="20" y="403.4873">Client</text><ellipse cx="42.5" cy="415.2891" fill="#E2E2F0" rx="8" ry="8" style="stroke:#181818;stroke-width:0.5;"/><path d="M42.5,423.2891 L42.5,450.2891 M29.5,431.2891 L55.5,431.2891 M42.5,450.2891 L29.5,465.2891 M42.5,450.2891 L55.5,465.2891 " fill="none" style="stroke:#181818;stroke-width:0.5;"/><rect fill="#E2E2F0" height="30.2969" rx="2.5" ry="2.5" style="stroke:#181818;stroke-width:0.5;" width="57" x="132" y="50"/><text fill="#000000" font-family="sans-serif" font-size="14" lengthAdjust="spacing" textLength="43" x="139" y="69.9951">Rollup</text><rect fill="#E2E2F0" height="30.2969" rx="2.5" ry="2.5" style="stroke:#181818;stroke-width:0.5;" width="57" x="132" y="390.4922"/><text fill="#000000" font-family="sans-serif" font-size="14" lengthAdjust="spacing" textLength="43" x="139" y="410.4873">Rollup</text><rect fill="#E2E2F0" height="30.2969" rx="2.5" ry="2.5" style="stroke:#181818;stroke-width:0.5;" width="120" x="358.5" y="50"/><text fill="#000000" font-family="sans-serif" font-size="14" lengthAdjust="spacing" textLength="106" x="365.5" y="69.9951">Espresso Node</text><rect fill="#E2E2F0" height="30.2969" rx="2.5" ry="2.5" style="stroke:#181818;stroke-width:0.5;" width="120" x="358.5" y="390.4922"/><text fill="#000000" font-family="sans-serif" font-size="14" lengthAdjust="spacing" textLength="106" x="365.5" y="410.4873">Espresso Node</text><rect fill="#E2E2F0" height="30.2969" rx="2.5" ry="2.5" style="stroke:#181818;stroke-width:0.5;" width="30" x="488.5" y="50"/><text fill="#000000" font-family="sans-serif" font-size="14" lengthAdjust="spacing" textLength="16" x="495.5" y="69.9951">L1</text><rect fill="#E2E2F0" height="30.2969" rx="2.5" ry="2.5" style="stroke:#181818;stroke-width:0.5;" width="30" x="488.5" y="390.4922"/><text fill="#000000" font-family="sans-serif" font-size="14" lengthAdjust="spacing" textLength="16" x="495.5" y="410.4873">L1</text><polygon fill="#181818" points="171.5,108.4297,161.5,112.4297,171.5,116.4297,167.5,112.4297" style="stroke:#181818;stroke-width:1.0;"/><line style="stroke:#181818;stroke-width:1.0;" x1="165.5" x2="502.5" y1="112.4297" y2="112.4297"/><text fill="#000000" font-family="sans-serif" font-size="13" font-style="italic" lengthAdjust="spacing" textLength="40" x="177.5" y="107.3638">height</text><text fill="#000000" font-family="sans-serif" font-size="13" lengthAdjust="spacing" textLength="126" x="221.5" y="107.3638">of last verified block</text><polygon fill="#181818" points="406.5,137.5625,416.5,141.5625,406.5,145.5625,410.5,141.5625" style="stroke:#181818;stroke-width:1.0;"/><line style="stroke:#181818;stroke-width:1.0;" x1="160.5" x2="412.5" y1="141.5625" y2="141.5625"/><text fill="#000000" font-family="sans-serif" font-size="13" lengthAdjust="spacing" textLength="193" x="167.5" y="136.4966">GET availability/stream/blocks/</text><text fill="#000000" font-family="sans-serif" font-size="13" font-style="italic" lengthAdjust="spacing" textLength="40" x="360.5" y="136.4966">height</text><polygon fill="#181818" points="406.5,166.6953,416.5,170.6953,406.5,174.6953,410.5,170.6953" style="stroke:#181818;stroke-width:1.0;"/><line style="stroke:#181818;stroke-width:1.0;" x1="160.5" x2="412.5" y1="170.6953" y2="170.6953"/><text fill="#000000" font-family="sans-serif" font-size="13" lengthAdjust="spacing" textLength="194" x="167.5" y="165.6294">GET availability/stream/leaves/</text><text fill="#000000" font-family="sans-serif" font-size="13" font-style="italic" lengthAdjust="spacing" textLength="40" x="361.5" y="165.6294">height</text><path d="M10,185.6953 L87,185.6953 L87,192.8281 L77,202.8281 L10,202.8281 L10,185.6953 " fill="#EEEEEE" style="stroke:#000000;stroke-width:1.5;"/><rect fill="none" height="188.7969" style="stroke:#000000;stroke-width:1.5;" width="478.5" x="10" y="185.6953"/><text fill="#000000" font-family="sans-serif" font-size="13" font-weight="bold" lengthAdjust="spacing" textLength="32" x="25" y="198.7622">loop</text><polygon fill="#181818" points="171.5,219.9609,161.5,223.9609,171.5,227.9609,167.5,223.9609" style="stroke:#181818;stroke-width:1.0;"/><line style="stroke:#181818;stroke-width:1.0;stroke-dasharray:2.0,2.0;" x1="165.5" x2="417.5" y1="223.9609" y2="223.9609"/><text fill="#000000" font-family="sans-serif" font-size="13" lengthAdjust="spacing" textLength="34" x="177.5" y="218.895">Block</text><polygon fill="#181818" points="171.5,249.0938,161.5,253.0938,171.5,257.0938,167.5,253.0938" style="stroke:#181818;stroke-width:1.0;"/><line style="stroke:#181818;stroke-width:1.0;stroke-dasharray:2.0,2.0;" x1="165.5" x2="417.5" y1="253.0938" y2="253.0938"/><text fill="#000000" font-family="sans-serif" font-size="13" lengthAdjust="spacing" textLength="156" x="177.5" y="248.0278">Leaf, Proof of consensus</text><line style="stroke:#181818;stroke-width:1.0;" x1="160.5" x2="202.5" y1="282.2266" y2="282.2266"/><line style="stroke:#181818;stroke-width:1.0;" x1="202.5" x2="202.5" y1="282.2266" y2="295.2266"/><line style="stroke:#181818;stroke-width:1.0;" x1="161.5" x2="202.5" y1="295.2266" y2="295.2266"/><polygon fill="#181818" points="171.5,291.2266,161.5,295.2266,171.5,299.2266,167.5,295.2266" style="stroke:#181818;stroke-width:1.0;"/><text fill="#000000" font-family="sans-serif" font-size="13" lengthAdjust="spacing" textLength="161" x="167.5" y="277.1606">Verify Proof of consensus</text><line style="stroke:#181818;stroke-width:1.0;" x1="160.5" x2="202.5" y1="324.3594" y2="324.3594"/><line style="stroke:#181818;stroke-width:1.0;" x1="202.5" x2="202.5" y1="324.3594" y2="337.3594"/><line style="stroke:#181818;stroke-width:1.0;" x1="161.5" x2="202.5" y1="337.3594" y2="337.3594"/><polygon fill="#181818" points="171.5,333.3594,161.5,337.3594,171.5,341.3594,167.5,337.3594" style="stroke:#181818;stroke-width:1.0;"/><text fill="#000000" font-family="sans-serif" font-size="13" lengthAdjust="spacing" textLength="89" x="167.5" y="319.2935">Execute Block</text><polygon fill="#181818" points="53.5,362.4922,43.5,366.4922,53.5,370.4922,49.5,366.4922" style="stroke:#181818;stroke-width:1.0;"/><line style="stroke:#181818;stroke-width:1.0;stroke-dasharray:2.0,2.0;" x1="47.5" x2="159.5" y1="366.4922" y2="366.4922"/><text fill="#000000" font-family="sans-serif" font-size="13" lengthAdjust="spacing" textLength="94" x="59.5" y="361.4263">Updated State</text><!--SRC=[bL5DQyCm3BtxLuYU5yAk8UIm4NOfO-phhZhAAkfPnbB2-k_djljenWuR22p9xpq_MUXDCbm7fcWkOJRsd30Qt4i8KrgqLhscJAe2jpBG2b2XT0xv0hQ-TEx4XhOg5JJGShSbVjbQMtC7Ca90DPWfyyWqm2Q8ttsHgkvJjZ1l-aV06JdWXWFRlbRBXA_raQBrGlXV0e5mffy2BeYaR_FLcSxLqUElLsl2yGBkifJ1IdY9Ib4dFVFpaJNmV9Xv_qTm_qP-Cbg-NHN4QLyDFAK1hNpWWvN3KHpU0G00]--></g></svg>