<svg xmlns="http://www.w3.org/2000/svg" xmlns:xlink="http://www.w3.org/1999/xlink" contentStyleType="text/css" height="367px" preserveAspectRatio="none" style="width:445px;height:367px;background:#FFFFFF;" version="1.1" viewBox="0 0 445 367" width="445px" zoomAndPan="magnify"><defs/><g><rect fill="none" height="203.9297" style="stroke:#000000;stroke-width:1.5;" width="429.5" x="10" y="111.5625"/><line style="stroke:#181818;stroke-width:0.5;stroke-dasharray:5.0,5.0;" x1="72" x2="72" y1="36.2969" y2="332.4922"/><line style="stroke:#181818;stroke-width:0.5;stroke-dasharray:5.0,5.0;" x1="329.5" x2="329.5" y1="36.2969" y2="332.4922"/><line style="stroke:#181818;stroke-width:0.5;stroke-dasharray:5.0,5.0;" x1="414.5" x2="414.5" y1="36.2969" y2="332.4922"/><rect fill="#E2E2F0" height="30.2969" rx="2.5" ry="2.5" style="stroke:#181818;stroke-width:0.5;" width="105" x="20" y="5"/><text fill="#000000" font-family="sans-serif" font-size="14" lengthAdjust="spacing" textLength="91" x="27" y="24.9951">Rollup Prover</text><rect fill="#E2E2F0" height="30.2969" rx="2.5" ry="2.5" style="stroke:#181818;stroke-width:0.5;" width="105" x="20" y="331.4922"/><text fill="#000000" font-family="sans-serif" font-size="14" lengthAdjust="spacing" textLength="91" x="27" y="351.4873">Rollup Prover</text><rect fill="#E2E2F0" height="30.2969" rx="2.5" ry="2.5" style="stroke:#181818;stroke-width:0.5;" width="120" x="269.5" y="5"/><text fill="#000000" font-family="sans-serif" font-size="14" lengthAdjust="spacing" textLength="106" x="276.5" y="24.9951">Espresso Node</text><rect fill="#E2E2F0" height="30.2969" rx="2.5" ry="2.5" style="stroke:#181818;stroke-width:0.5;" width="120" x="269.5" y="331.4922"/><text fill="#000000" font-family="sans-serif" font-size="14" lengthAdjust="spacing" textLength="106" x="276.5" y="351.4873">Espresso Node</text><rect fill="#E2E2F0" height="30.2969" rx="2.5" ry="2.5" style="stroke:#181818;stroke-width:0.5;" width="30" x="399.5" y="5"/><text fill="#000000" font-family="sans-serif" font-size="14" lengthAdjust="spacing" textLength="16" x="406.5" y="24.9951">L1</text><rect fill="#E2E2F0" height="30.2969" rx="2.5" ry="2.5" style="stroke:#181818;stroke-width:0.5;" width="30" x="399.5" y="331.4922"/><text fill="#000000" font-family="sans-serif" font-size="14" lengthAdjust="spacing" textLength="16" x="406.5" y="351.4873">L1</text><polygon fill="#181818" points="83.5,63.4297,73.5,67.4297,83.5,71.4297,79.5,67.4297" style="stroke:#181818;stroke-width:1.0;"/><line style="stroke:#181818;stroke-width:1.0;" x1="77.5" x2="413.5" y1="67.4297" y2="67.4297"/><text fill="#000000" font-family="sans-serif" font-size="13" font-style="italic" lengthAdjust="spacing" textLength="40" x="89.5" y="62.3638">height</text><text fill="#000000" font-family="sans-serif" font-size="13" lengthAdjust="spacing" textLength="126" x="133.5" y="62.3638">of last verified block</text><polygon fill="#181818" points="317.5,92.5625,327.5,96.5625,317.5,100.5625,321.5,96.5625" style="stroke:#181818;stroke-width:1.0;"/><line style="stroke:#181818;stroke-width:1.0;" x1="72.5" x2="323.5" y1="96.5625" y2="96.5625"/><text fill="#000000" font-family="sans-serif" font-size="13" lengthAdjust="spacing" textLength="193" x="79.5" y="91.4966">GET availability/stream/blocks/</text><text fill="#000000" font-family="sans-serif" font-size="13" font-style="italic" lengthAdjust="spacing" textLength="40" x="272.5" y="91.4966">height</text><path d="M10,111.5625 L87,111.5625 L87,118.6953 L77,128.6953 L10,128.6953 L10,111.5625 " fill="#EEEEEE" style="stroke:#000000;stroke-width:1.5;"/><rect fill="none" height="203.9297" style="stroke:#000000;stroke-width:1.5;" width="429.5" x="10" y="111.5625"/><text fill="#000000" font-family="sans-serif" font-size="13" font-weight="bold" lengthAdjust="spacing" textLength="32" x="25" y="124.6294">loop</text><polygon fill="#181818" points="83.5,145.8281,73.5,149.8281,83.5,153.8281,79.5,149.8281" style="stroke:#181818;stroke-width:1.0;"/><line style="stroke:#181818;stroke-width:1.0;stroke-dasharray:2.0,2.0;" x1="77.5" x2="328.5" y1="149.8281" y2="149.8281"/><text fill="#000000" font-family="sans-serif" font-size="13" lengthAdjust="spacing" textLength="34" x="89.5" y="144.7622">Block</text><polygon fill="#181818" points="83.5,174.9609,73.5,178.9609,83.5,182.9609,79.5,178.9609" style="stroke:#181818;stroke-width:1.0;"/><line style="stroke:#181818;stroke-width:1.0;" x1="77.5" x2="413.5" y1="178.9609" y2="178.9609"/><text fill="#000000" font-family="sans-serif" font-size="13" lengthAdjust="spacing" textLength="177" x="89.5" y="173.895">Certified block commitment</text><line style="stroke:#181818;stroke-width:1.0;" x1="72.5" x2="114.5" y1="208.0938" y2="208.0938"/><line style="stroke:#181818;stroke-width:1.0;" x1="114.5" x2="114.5" y1="208.0938" y2="221.0938"/><line style="stroke:#181818;stroke-width:1.0;" x1="73.5" x2="114.5" y1="221.0938" y2="221.0938"/><polygon fill="#181818" points="83.5,217.0938,73.5,221.0938,83.5,225.0938,79.5,221.0938" style="stroke:#181818;stroke-width:1.0;"/><text fill="#000000" font-family="sans-serif" font-size="13" lengthAdjust="spacing" textLength="214" x="79.5" y="203.0278">Check block against commitment</text><line style="stroke:#181818;stroke-width:1.0;" x1="72.5" x2="114.5" y1="250.2266" y2="250.2266"/><line style="stroke:#181818;stroke-width:1.0;" x1="114.5" x2="114.5" y1="250.2266" y2="263.2266"/><line style="stroke:#181818;stroke-width:1.0;" x1="73.5" x2="114.5" y1="263.2266" y2="263.2266"/><polygon fill="#181818" points="83.5,259.2266,73.5,263.2266,83.5,267.2266,79.5,263.2266" style="stroke:#181818;stroke-width:1.0;"/><text fill="#000000" font-family="sans-serif" font-size="13" lengthAdjust="spacing" textLength="88" x="79.5" y="245.1606">Execute block</text><polygon fill="#181818" points="402.5,303.4922,412.5,307.4922,402.5,311.4922,406.5,307.4922" style="stroke:#181818;stroke-width:1.0;"/><line style="stroke:#181818;stroke-width:1.0;" x1="72.5" x2="408.5" y1="307.4922" y2="307.4922"/><text fill="#000000" font-family="sans-serif" font-size="13" lengthAdjust="spacing" textLength="66" x="79.5" y="287.2935">New State</text><text fill="#000000" font-family="sans-serif" font-size="13" lengthAdjust="spacing" textLength="33" x="79.5" y="302.4263">Proof</text><!--SRC=[VP1DQyCm38Rl_XMYzn1s7I67Zh3BA6NRSHSrKHennpAssgt_lchQq9J1Rh9utWyvOb9kEM9GMBsBzuS8soH7IYl03DUDYqkgoJ5HpW8RwMYYR7EP7x2t9-TkVbLXBtY6Ykk1U3zeLN8DqeF7h61Ht3DriFFIVi-QefvTJVZQV08UaJtksBEUogo9S2mdHIuVV9tp8l4UNInyrik4kTKBMUbx0MXb75b72hheSfkC7iYOAubxv60N_AzeVgazAFqvRmhVq0zyA2fz1VjrwHs5xWm0]--></g></svg>