<?xml version="1.0" encoding="us-ascii" standalone="no"?><svg xmlns="http://www.w3.org/2000/svg" xmlns:xlink="http://www.w3.org/1999/xlink" contentStyleType="text/css" height="1123px" preserveAspectRatio="none" style="width:1579px;height:1123px;background:#FFFFFF;" version="1.1" viewBox="0 0 1579 1123" width="1579px" zoomAndPan="magnify"><defs/><g><rect fill="#FFFFE0" height="1111.2266" style="stroke:#181818;stroke-width:0.5;" width="214" x="89.5" y="6"/><text fill="#000000" font-family="sans-serif" font-size="13" font-weight="bold" lengthAdjust="spacing" textLength="42" x="173" y="18.0669">rollup</text><rect fill="#FFE4E1" height="1111.2266" style="stroke:#181818;stroke-width:0.5;" width="974.5" x="315.5" y="6"/><text fill="#000000" font-family="sans-serif" font-size="13" font-weight="bold" lengthAdjust="spacing" textLength="217" x="691.75" y="18.0669">Espresso Sequencer Network</text><rect fill="#FFE4C4" height="1091.0938" style="stroke:#181818;stroke-width:0.5;" width="399.5" x="315.5" y="26.1328"/><text fill="#000000" font-family="sans-serif" font-size="13" font-weight="bold" lengthAdjust="spacing" textLength="122" x="451.75" y="38.1997">Sequencer Node</text><rect fill="#E0FFFF" height="1070.9609" style="stroke:#181818;stroke-width:0.5;" width="135" x="315.5" y="46.2656"/><text fill="#000000" font-family="sans-serif" font-size="13" font-weight="bold" lengthAdjust="spacing" textLength="32" x="364.5" y="58.3325">APIs</text><rect fill="#D3D3D3" height="1111.2266" style="stroke:#181818;stroke-width:0.5;" width="271" x="1302" y="6"/><text fill="#000000" font-family="sans-serif" font-size="13" font-weight="bold" lengthAdjust="spacing" textLength="93" x="1391" y="18.0669">Ethereum L1</text><line style="stroke:#181818;stroke-width:0.5;stroke-dasharray:5.0,5.0;" x1="24" x2="24" y1="145.5859" y2="1031.0391"/><line style="stroke:#181818;stroke-width:0.5;stroke-dasharray:5.0,5.0;" x1="120" x2="120" y1="145.5859" y2="1031.0391"/><line style="stroke:#181818;stroke-width:0.5;stroke-dasharray:5.0,5.0;" x1="185.5" x2="185.5" y1="145.5859" y2="1031.0391"/><line style="stroke:#181818;stroke-width:0.5;stroke-dasharray:5.0,5.0;" x1="262" x2="262" y1="145.5859" y2="1031.0391"/><line style="stroke:#181818;stroke-width:0.5;stroke-dasharray:5.0,5.0;" x1="350.5" x2="350.5" y1="145.5859" y2="1031.0391"/><line style="stroke:#181818;stroke-width:0.5;stroke-dasharray:5.0,5.0;" x1="419" x2="419" y1="145.5859" y2="1031.0391"/><line style="stroke:#181818;stroke-width:0.5;stroke-dasharray:5.0,5.0;" x1="501.5" x2="501.5" y1="145.5859" y2="1031.0391"/><line style="stroke:#181818;stroke-width:0.5;stroke-dasharray:5.0,5.0;" x1="585" x2="585" y1="145.5859" y2="1031.0391"/><line style="stroke:#181818;stroke-width:0.5;stroke-dasharray:5.0,5.0;" x1="682" x2="682" y1="145.5859" y2="1031.0391"/><line style="stroke:#181818;stroke-width:0.5;stroke-dasharray:5.0,5.0;" x1="762" x2="762" y1="145.5859" y2="1031.0391"/><line style="stroke:#181818;stroke-width:0.5;stroke-dasharray:5.0,5.0;" x1="886" x2="886" y1="145.5859" y2="1031.0391"/><line style="stroke:#181818;stroke-width:0.5;stroke-dasharray:5.0,5.0;" x1="953.5" x2="953.5" y1="145.5859" y2="1031.0391"/><line style="stroke:#181818;stroke-width:0.5;stroke-dasharray:5.0,5.0;" x1="1016" x2="1016" y1="145.5859" y2="1031.0391"/><line style="stroke:#181818;stroke-width:0.5;stroke-dasharray:5.0,5.0;" x1="1091" x2="1091" y1="145.5859" y2="1031.0391"/><line style="stroke:#181818;stroke-width:0.5;stroke-dasharray:5.0,5.0;" x1="1171" x2="1171" y1="145.5859" y2="1031.0391"/><line style="stroke:#181818;stroke-width:0.5;stroke-dasharray:5.0,5.0;" x1="1251" x2="1251" y1="145.5859" y2="1031.0391"/><line style="stroke:#181818;stroke-width:0.5;stroke-dasharray:5.0,5.0;" x1="1342.5" x2="1342.5" y1="145.5859" y2="1031.0391"/><line style="stroke:#181818;stroke-width:0.5;stroke-dasharray:5.0,5.0;" x1="1449.5" x2="1449.5" y1="145.5859" y2="1031.0391"/><line style="stroke:#181818;stroke-width:0.5;stroke-dasharray:5.0,5.0;" x1="1532.5" x2="1532.5" y1="145.5859" y2="1031.0391"/><text fill="#000000" font-family="sans-serif" font-size="14" lengthAdjust="spacing" textLength="32" x="5" y="142.2842">User</text><ellipse cx="24" cy="77.7891" fill="#E2E2F0" rx="8" ry="8" style="stroke:#181818;stroke-width:0.5;"/><path d="M24,85.7891 L24,112.7891 M11,93.7891 L37,93.7891 M24,112.7891 L11,127.7891 M24,112.7891 L37,127.7891 " fill="none" style="stroke:#181818;stroke-width:0.5;"/><rect fill="#E2E2F0" height="46.5938" rx="2.5" ry="2.5" style="stroke:#181818;stroke-width:0.5;" width="53" x="93.5" y="97.9922"/><text fill="#000000" font-family="sans-serif" font-size="14" lengthAdjust="spacing" textLength="21" x="109.5" y="117.9873">API</text><text fill="#000000" font-family="sans-serif" font-size="14" lengthAdjust="spacing" textLength="39" x="100.5" y="134.2842">(RPC)</text><rect fill="#E2E2F0" height="30.2969" rx="2.5" ry="2.5" style="stroke:#181818;stroke-width:0.5;" width="58" x="156.5" y="114.2891"/><text fill="#000000" font-family="sans-serif" font-size="14" lengthAdjust="spacing" textLength="44" x="163.5" y="134.2842">Prover</text><rect fill="#E2E2F0" height="30.2969" rx="2.5" ry="2.5" style="stroke:#181818;stroke-width:0.5;" width="75" x="224.5" y="114.2891"/><text fill="#000000" font-family="sans-serif" font-size="14" lengthAdjust="spacing" textLength="61" x="231.5" y="134.2842">Executor</text><rect fill="#E2E2F0" height="46.5938" rx="2.5" ry="2.5" style="stroke:#181818;stroke-width:0.5;" width="62" x="319.5" y="97.9922"/><text fill="#000000" font-family="sans-serif" font-size="14" lengthAdjust="spacing" textLength="48" x="326.5" y="117.9873">Submit</text><text fill="#000000" font-family="sans-serif" font-size="14" lengthAdjust="spacing" textLength="21" x="340" y="134.2842">API</text><rect fill="#E2E2F0" height="46.5938" rx="2.5" ry="2.5" style="stroke:#181818;stroke-width:0.5;" width="55" x="391.5" y="97.9922"/><text fill="#000000" font-family="sans-serif" font-size="14" lengthAdjust="spacing" textLength="41" x="398.5" y="117.9873">Query</text><text fill="#000000" font-family="sans-serif" font-size="14" lengthAdjust="spacing" textLength="21" x="408.5" y="134.2842">API</text><rect fill="#E2E2F0" height="62.8906" rx="2.5" ry="2.5" style="stroke:#181818;stroke-width:0.5;" width="70" x="466.5" y="81.6953"/><text fill="#000000" font-family="sans-serif" font-size="14" lengthAdjust="spacing" textLength="56" x="473.5" y="101.6904">HotShot</text><text fill="#000000" font-family="sans-serif" font-size="14" lengthAdjust="spacing" textLength="47" x="478" y="117.9873">Events</text><text fill="#000000" font-family="sans-serif" font-size="14" lengthAdjust="spacing" textLength="49" x="477" y="134.2842">Stream</text><rect fill="#E2E2F0" height="46.5938" rx="2.5" ry="2.5" style="stroke:#181818;stroke-width:0.5;" width="77" x="546.5" y="97.9922"/><text fill="#000000" font-family="sans-serif" font-size="14" lengthAdjust="spacing" textLength="63" x="553.5" y="117.9873">Validated</text><text fill="#000000" font-family="sans-serif" font-size="14" lengthAdjust="spacing" textLength="36" x="567" y="134.2842">State</text><rect fill="#E2E2F0" height="46.5938" rx="2.5" ry="2.5" style="stroke:#181818;stroke-width:0.5;" width="58" x="653" y="97.9922"/><text fill="#000000" font-family="sans-serif" font-size="14" lengthAdjust="spacing" textLength="36" x="664" y="117.9873">State</text><text fill="#000000" font-family="sans-serif" font-size="14" lengthAdjust="spacing" textLength="44" x="660" y="134.2842">Signer</text><rect fill="#E2E2F0" height="30.2969" rx="2.5" ry="2.5" style="stroke:#181818;stroke-width:0.5;" width="62" x="731" y="114.2891"/><text fill="#000000" font-family="sans-serif" font-size="14" lengthAdjust="spacing" textLength="48" x="738" y="134.2842">Builder</text><rect fill="#E2E2F0" height="46.5938" rx="2.5" ry="2.5" style="stroke:#181818;stroke-width:0.5;" width="70" x="851" y="97.9922"/><text fill="#000000" font-family="sans-serif" font-size="14" lengthAdjust="spacing" textLength="56" x="858" y="117.9873">HotShot</text><text fill="#000000" font-family="sans-serif" font-size="14" lengthAdjust="spacing" textLength="47" x="862.5" y="134.2842">Leader</text><rect fill="#E2E2F0" height="30.2969" rx="2.5" ry="2.5" style="stroke:#181818;stroke-width:0.5;" width="45" x="931" y="114.2891"/><text fill="#000000" font-family="sans-serif" font-size="14" lengthAdjust="spacing" textLength="31" x="938" y="134.2842">CDN</text><rect fill="#E2E2F0" height="30.2969" rx="2.5" ry="2.5" style="stroke:#181818;stroke-width:0.5;" width="60" x="986" y="114.2891"/><text fill="#000000" font-family="sans-serif" font-size="14" lengthAdjust="spacing" textLength="46" x="993" y="134.2842">Libp2p</text><rect fill="#E2E2F0" height="46.5938" rx="2.5" ry="2.5" style="stroke:#181818;stroke-width:0.5;" width="70" x="1056" y="97.9922"/><text fill="#000000" font-family="sans-serif" font-size="14" lengthAdjust="spacing" textLength="56" x="1063" y="117.9873">HotShot</text><text fill="#000000" font-family="sans-serif" font-size="14" lengthAdjust="spacing" textLength="53" x="1064.5" y="134.2842">replicas</text><rect fill="#E2E2F0" height="79.1875" rx="2.5" ry="2.5" style="stroke:#181818;stroke-width:0.5;" width="70" x="1136" y="65.3984"/><text fill="#000000" font-family="sans-serif" font-size="14" lengthAdjust="spacing" textLength="56" x="1143" y="85.3936">HotShot</text><text fill="#000000" font-family="sans-serif" font-size="14" lengthAdjust="spacing" textLength="35" x="1153.5" y="101.6904">state</text><text fill="#000000" font-family="sans-serif" font-size="14" lengthAdjust="spacing" textLength="32" x="1155" y="117.9873">relay</text><text fill="#000000" font-family="sans-serif" font-size="14" lengthAdjust="spacing" textLength="49" x="1146.5" y="134.2842">service</text><rect fill="#E2E2F0" height="79.1875" rx="2.5" ry="2.5" style="stroke:#181818;stroke-width:0.5;" width="70" x="1216" y="65.3984"/><text fill="#000000" font-family="sans-serif" font-size="14" lengthAdjust="spacing" textLength="56" x="1223" y="85.3936">HotShot</text><text fill="#000000" font-family="sans-serif" font-size="14" lengthAdjust="spacing" textLength="35" x="1233.5" y="101.6904">state</text><text fill="#000000" font-family="sans-serif" font-size="14" lengthAdjust="spacing" textLength="44" x="1229" y="117.9873">prover</text><text fill="#000000" font-family="sans-serif" font-size="14" lengthAdjust="spacing" textLength="49" x="1226.5" y="134.2842">service</text><rect fill="#E2E2F0" height="46.5938" rx="2.5" ry="2.5" style="stroke:#181818;stroke-width:0.5;" width="73" x="1306" y="97.9922"/><text fill="#000000" font-family="sans-serif" font-size="14" lengthAdjust="spacing" textLength="43" x="1321" y="117.9873">Rollup</text><text fill="#000000" font-family="sans-serif" font-size="14" lengthAdjust="spacing" textLength="59" x="1313" y="134.2842">Contract</text><rect fill="#E2E2F0" height="62.8906" rx="2.5" ry="2.5" style="stroke:#181818;stroke-width:0.5;" width="73" x="1413" y="81.6953"/><text fill="#000000" font-family="sans-serif" font-size="14" lengthAdjust="spacing" textLength="33" x="1433" y="101.6904">Light</text><text fill="#000000" font-family="sans-serif" font-size="14" lengthAdjust="spacing" textLength="39" x="1430" y="117.9873">Client</text><text fill="#000000" font-family="sans-serif" font-size="14" lengthAdjust="spacing" textLength="59" x="1420" y="134.2842">Contract</text><rect fill="#E2E2F0" height="46.5938" rx="2.5" ry="2.5" style="stroke:#181818;stroke-width:0.5;" width="73" x="1496" y="97.9922"/><text fill="#000000" font-family="sans-serif" font-size="14" lengthAdjust="spacing" textLength="26" x="1519.5" y="117.9873">Fee</text><text fill="#000000" font-family="sans-serif" font-size="14" lengthAdjust="spacing" textLength="59" x="1503" y="134.2842">Contract</text><text fill="#000000" font-family="sans-serif" font-size="14" lengthAdjust="spacing" textLength="32" x="5" y="1104.0342">User</text><ellipse cx="24" cy="1039.5391" fill="#E2E2F0" rx="8" ry="8" style="stroke:#181818;stroke-width:0.5;"/><path d="M24,1047.5391 L24,1074.5391 M11,1055.5391 L37,1055.5391 M24,1074.5391 L11,1089.5391 M24,1074.5391 L37,1089.5391 " fill="none" style="stroke:#181818;stroke-width:0.5;"/><rect fill="#E2E2F0" height="46.5938" rx="2.5" ry="2.5" style="stroke:#181818;stroke-width:0.5;" width="53" x="93.5" y="1031.0391"/><text fill="#000000" font-family="sans-serif" font-size="14" lengthAdjust="spacing" textLength="21" x="109.5" y="1051.0342">API</text><text fill="#000000" font-family="sans-serif" font-size="14" lengthAdjust="spacing" textLength="39" x="100.5" y="1067.3311">(RPC)</text><rect fill="#E2E2F0" height="30.2969" rx="2.5" ry="2.5" style="stroke:#181818;stroke-width:0.5;" width="58" x="156.5" y="1031.0391"/><text fill="#000000" font-family="sans-serif" font-size="14" lengthAdjust="spacing" textLength="44" x="163.5" y="1051.0342">Prover</text><rect fill="#E2E2F0" height="30.2969" rx="2.5" ry="2.5" style="stroke:#181818;stroke-width:0.5;" width="75" x="224.5" y="1031.0391"/><text fill="#000000" font-family="sans-serif" font-size="14" lengthAdjust="spacing" textLength="61" x="231.5" y="1051.0342">Executor</text><rect fill="#E2E2F0" height="46.5938" rx="2.5" ry="2.5" style="stroke:#181818;stroke-width:0.5;" width="62" x="319.5" y="1031.0391"/><text fill="#000000" font-family="sans-serif" font-size="14" lengthAdjust="spacing" textLength="48" x="326.5" y="1051.0342">Submit</text><text fill="#000000" font-family="sans-serif" font-size="14" lengthAdjust="spacing" textLength="21" x="340" y="1067.3311">API</text><rect fill="#E2E2F0" height="46.5938" rx="2.5" ry="2.5" style="stroke:#181818;stroke-width:0.5;" width="55" x="391.5" y="1031.0391"/><text fill="#000000" font-family="sans-serif" font-size="14" lengthAdjust="spacing" textLength="41" x="398.5" y="1051.0342">Query</text><text fill="#000000" font-family="sans-serif" font-size="14" lengthAdjust="spacing" textLength="21" x="408.5" y="1067.3311">API</text><rect fill="#E2E2F0" height="62.8906" rx="2.5" ry="2.5" style="stroke:#181818;stroke-width:0.5;" width="70" x="466.5" y="1031.0391"/><text fill="#000000" font-family="sans-serif" font-size="14" lengthAdjust="spacing" textLength="56" x="473.5" y="1051.0342">HotShot</text><text fill="#000000" font-family="sans-serif" font-size="14" lengthAdjust="spacing" textLength="47" x="478" y="1067.3311">Events</text><text fill="#000000" font-family="sans-serif" font-size="14" lengthAdjust="spacing" textLength="49" x="477" y="1083.6279">Stream</text><rect fill="#E2E2F0" height="46.5938" rx="2.5" ry="2.5" style="stroke:#181818;stroke-width:0.5;" width="77" x="546.5" y="1031.0391"/><text fill="#000000" font-family="sans-serif" font-size="14" lengthAdjust="spacing" textLength="63" x="553.5" y="1051.0342">Validated</text><text fill="#000000" font-family="sans-serif" font-size="14" lengthAdjust="spacing" textLength="36" x="567" y="1067.3311">State</text><rect fill="#E2E2F0" height="46.5938" rx="2.5" ry="2.5" style="stroke:#181818;stroke-width:0.5;" width="58" x="653" y="1031.0391"/><text fill="#000000" font-family="sans-serif" font-size="14" lengthAdjust="spacing" textLength="36" x="664" y="1051.0342">State</text><text fill="#000000" font-family="sans-serif" font-size="14" lengthAdjust="spacing" textLength="44" x="660" y="1067.3311">Signer</text><rect fill="#E2E2F0" height="30.2969" rx="2.5" ry="2.5" style="stroke:#181818;stroke-width:0.5;" width="62" x="731" y="1031.0391"/><text fill="#000000" font-family="sans-serif" font-size="14" lengthAdjust="spacing" textLength="48" x="738" y="1051.0342">Builder</text><rect fill="#E2E2F0" height="46.5938" rx="2.5" ry="2.5" style="stroke:#181818;stroke-width:0.5;" width="70" x="851" y="1031.0391"/><text fill="#000000" font-family="sans-serif" font-size="14" lengthAdjust="spacing" textLength="56" x="858" y="1051.0342">HotShot</text><text fill="#000000" font-family="sans-serif" font-size="14" lengthAdjust="spacing" textLength="47" x="862.5" y="1067.3311">Leader</text><rect fill="#E2E2F0" height="30.2969" rx="2.5" ry="2.5" style="stroke:#181818;stroke-width:0.5;" width="45" x="931" y="1031.0391"/><text fill="#000000" font-family="sans-serif" font-size="14" lengthAdjust="spacing" textLength="31" x="938" y="1051.0342">CDN</text><rect fill="#E2E2F0" height="30.2969" rx="2.5" ry="2.5" style="stroke:#181818;stroke-width:0.5;" width="60" x="986" y="1031.0391"/><text fill="#000000" font-family="sans-serif" font-size="14" lengthAdjust="spacing" textLength="46" x="993" y="1051.0342">Libp2p</text><rect fill="#E2E2F0" height="46.5938" rx="2.5" ry="2.5" style="stroke:#181818;stroke-width:0.5;" width="70" x="1056" y="1031.0391"/><text fill="#000000" font-family="sans-serif" font-size="14" lengthAdjust="spacing" textLength="56" x="1063" y="1051.0342">HotShot</text><text fill="#000000" font-family="sans-serif" font-size="14" lengthAdjust="spacing" textLength="53" x="1064.5" y="1067.3311">replicas</text><rect fill="#E2E2F0" height="79.1875" rx="2.5" ry="2.5" style="stroke:#181818;stroke-width:0.5;" width="70" x="1136" y="1031.0391"/><text fill="#000000" font-family="sans-serif" font-size="14" lengthAdjust="spacing" textLength="56" x="1143" y="1051.0342">HotShot</text><text fill="#000000" font-family="sans-serif" font-size="14" lengthAdjust="spacing" textLength="35" x="1153.5" y="1067.3311">state</text><text fill="#000000" font-family="sans-serif" font-size="14" lengthAdjust="spacing" textLength="32" x="1155" y="1083.6279">relay</text><text fill="#000000" font-family="sans-serif" font-size="14" lengthAdjust="spacing" textLength="49" x="1146.5" y="1099.9248">service</text><rect fill="#E2E2F0" height="79.1875" rx="2.5" ry="2.5" style="stroke:#181818;stroke-width:0.5;" width="70" x="1216" y="1031.0391"/><text fill="#000000" font-family="sans-serif" font-size="14" lengthAdjust="spacing" textLength="56" x="1223" y="1051.0342">HotShot</text><text fill="#000000" font-family="sans-serif" font-size="14" lengthAdjust="spacing" textLength="35" x="1233.5" y="1067.3311">state</text><text fill="#000000" font-family="sans-serif" font-size="14" lengthAdjust="spacing" textLength="44" x="1229" y="1083.6279">prover</text><text fill="#000000" font-family="sans-serif" font-size="14" lengthAdjust="spacing" textLength="49" x="1226.5" y="1099.9248">service</text><rect fill="#E2E2F0" height="46.5938" rx="2.5" ry="2.5" style="stroke:#181818;stroke-width:0.5;" width="73" x="1306" y="1031.0391"/><text fill="#000000" font-family="sans-serif" font-size="14" lengthAdjust="spacing" textLength="43" x="1321" y="1051.0342">Rollup</text><text fill="#000000" font-family="sans-serif" font-size="14" lengthAdjust="spacing" textLength="59" x="1313" y="1067.3311">Contract</text><rect fill="#E2E2F0" height="62.8906" rx="2.5" ry="2.5" style="stroke:#181818;stroke-width:0.5;" width="73" x="1413" y="1031.0391"/><text fill="#000000" font-family="sans-serif" font-size="14" lengthAdjust="spacing" textLength="33" x="1433" y="1051.0342">Light</text><text fill="#000000" font-family="sans-serif" font-size="14" lengthAdjust="spacing" textLength="39" x="1430" y="1067.3311">Client</text><text fill="#000000" font-family="sans-serif" font-size="14" lengthAdjust="spacing" textLength="59" x="1420" y="1083.6279">Contract</text><rect fill="#E2E2F0" height="46.5938" rx="2.5" ry="2.5" style="stroke:#181818;stroke-width:0.5;" width="73" x="1496" y="1031.0391"/><text fill="#000000" font-family="sans-serif" font-size="14" lengthAdjust="spacing" textLength="26" x="1519.5" y="1051.0342">Fee</text><text fill="#000000" font-family="sans-serif" font-size="14" lengthAdjust="spacing" textLength="59" x="1503" y="1067.3311">Contract</text><path d="M746,157.5859 L899,157.5859 L899,164.7188 L889,174.7188 L746,174.7188 L746,157.5859 " fill="#EEEEEE" style="stroke:#000000;stroke-width:1.5;"/><rect fill="none" height="56.2656" style="stroke:#000000;stroke-width:1.5;" width="802.5" x="746" y="157.5859"/><text fill="#000000" font-family="sans-serif" font-size="13" font-weight="bold" lengthAdjust="spacing" textLength="108" x="761" y="170.6528">1. Fee Deposit</text><polygon fill="#181818" points="1520.5,201.8516,1530.5,205.8516,1520.5,209.8516,1524.5,205.8516" style="stroke:#181818;stroke-width:1.0;"/><line style="stroke:#181818;stroke-width:1.0;" x1="762" x2="1526.5" y1="205.8516" y2="205.8516"/><text fill="#000000" font-family="sans-serif" font-size="13" lengthAdjust="spacing" textLength="71" x="769" y="200.7856">fee deposit</text><path d="M8,231.8516 L254,231.8516 L254,238.9844 L244,248.9844 L8,248.9844 L8,231.8516 " fill="#EEEEEE" style="stroke:#000000;stroke-width:1.5;"/><rect fill="none" height="114.5313" style="stroke:#000000;stroke-width:1.5;" width="770" x="8" y="231.8516"/><text fill="#000000" font-family="sans-serif" font-size="13" font-weight="bold" lengthAdjust="spacing" textLength="201" x="23" y="244.9185">2. Transaction Submisssion</text><polygon fill="#181818" points="108,276.1172,118,280.1172,108,284.1172,112,280.1172" style="stroke:#181818;stroke-width:1.0;"/><line style="stroke:#181818;stroke-width:1.0;" x1="24" x2="114" y1="280.1172" y2="280.1172"/><text fill="#000000" font-family="sans-serif" font-size="13" lengthAdjust="spacing" textLength="72" x="31" y="275.0513">transaction</text><polygon fill="#181818" points="338.5,305.25,348.5,309.25,338.5,313.25,342.5,309.25" style="stroke:#181818;stroke-width:1.0;"/><line style="stroke:#181818;stroke-width:1.0;" x1="120" x2="344.5" y1="309.25" y2="309.25"/><text fill="#000000" font-family="sans-serif" font-size="13" lengthAdjust="spacing" textLength="172" x="127" y="304.1841">transaction, namespace ID</text><polygon fill="#181818" points="750,334.3828,760,338.3828,750,342.3828,754,338.3828" style="stroke:#181818;stroke-width:1.0;"/><line style="stroke:#181818;stroke-width:1.0;" x1="501.5" x2="756" y1="338.3828" y2="338.3828"/><text fill="#000000" font-family="sans-serif" font-size="13" lengthAdjust="spacing" textLength="79" x="508.5" y="333.3169">transactions</text><path d="M746,364.3828 L966,364.3828 L966,371.5156 L956,381.5156 L746,381.5156 L746,364.3828 " fill="#EEEEEE" style="stroke:#000000;stroke-width:1.5;"/><rect fill="none" height="85.3984" style="stroke:#000000;stroke-width:1.5;" width="236" x="746" y="364.3828"/><text fill="#000000" font-family="sans-serif" font-size="13" font-weight="bold" lengthAdjust="spacing" textLength="175" x="761" y="377.4497">3. Leader obtains block</text><polygon fill="#181818" points="874,408.6484,884,412.6484,874,416.6484,878,412.6484" style="stroke:#181818;stroke-width:1.0;"/><line style="stroke:#181818;stroke-width:1.0;" x1="762" x2="880" y1="412.6484" y2="412.6484"/><text fill="#000000" font-family="sans-serif" font-size="13" lengthAdjust="spacing" textLength="100" x="769" y="407.5825">available blocks</text><polygon fill="#181818" points="773,437.7813,763,441.7813,773,445.7813,769,441.7813" style="stroke:#181818;stroke-width:1.0;"/><line style="stroke:#181818;stroke-width:1.0;" x1="767" x2="885" y1="441.7813" y2="441.7813"/><text fill="#000000" font-family="sans-serif" font-size="13" lengthAdjust="spacing" textLength="71" x="779" y="436.7153">claim block</text><path d="M569,467.7813 L774,467.7813 L774,474.9141 L764,484.9141 L569,484.9141 L569,467.7813 " fill="#EEEEEE" style="stroke:#000000;stroke-width:1.5;"/><rect fill="none" height="142.6641" style="stroke:#000000;stroke-width:1.5;" width="979.5" x="569" y="467.7813"/><text fill="#000000" font-family="sans-serif" font-size="13" font-weight="bold" lengthAdjust="spacing" textLength="160" x="584" y="480.8481">4. HotShot consensus</text><polygon fill="#181818" points="897,512.0469,887,516.0469,897,520.0469,893,516.0469" style="stroke:#181818;stroke-width:1.0;"/><polygon fill="#181818" points="1079,512.0469,1089,516.0469,1079,520.0469,1083,516.0469" style="stroke:#181818;stroke-width:1.0;"/><line style="stroke:#181818;stroke-width:1.0;" x1="891" x2="1085" y1="516.0469" y2="516.0469"/><text fill="#000000" font-family="sans-serif" font-size="13" lengthAdjust="spacing" textLength="138" x="903" y="510.981">consensus messages</text><polygon fill="#181818" points="897,512.0469,887,516.0469,897,520.0469,893,516.0469" style="stroke:#181818;stroke-width:1.0;"/><polygon fill="#181818" points="1004,512.0469,1014,516.0469,1004,520.0469,1008,516.0469" style="stroke:#181818;stroke-width:1.0;"/><line style="stroke:#181818;stroke-width:1.0;" x1="891" x2="1010" y1="516.0469" y2="516.0469"/><polygon fill="#181818" points="1027,512.0469,1017,516.0469,1027,520.0469,1023,516.0469" style="stroke:#181818;stroke-width:1.0;"/><polygon fill="#181818" points="1079,512.0469,1089,516.0469,1079,520.0469,1083,516.0469" style="stroke:#181818;stroke-width:1.0;"/><line style="stroke:#181818;stroke-width:1.0;" x1="1021" x2="1085" y1="516.0469" y2="516.0469"/><polygon fill="#181818" points="964.5,512.0469,954.5,516.0469,964.5,520.0469,960.5,516.0469" style="stroke:#181818;stroke-width:1.0;"/><line style="stroke:#181818;stroke-width:1.0;" x1="958.5" x2="1090" y1="516.0469" y2="516.0469"/><polygon fill="#181818" points="596,541.1797,586,545.1797,596,549.1797,592,545.1797" style="stroke:#181818;stroke-width:1.0;"/><line style="stroke:#181818;stroke-width:1.0;" x1="590" x2="1531.5" y1="545.1797" y2="545.1797"/><text fill="#000000" font-family="sans-serif" font-size="13" lengthAdjust="spacing" textLength="111" x="602" y="540.1138">credit fee deposit</text><line style="stroke:#181818;stroke-width:1.0;" x1="585" x2="627" y1="589.4453" y2="589.4453"/><line style="stroke:#181818;stroke-width:1.0;" x1="627" x2="627" y1="589.4453" y2="602.4453"/><line style="stroke:#181818;stroke-width:1.0;" x1="586" x2="627" y1="602.4453" y2="602.4453"/><polygon fill="#181818" points="596,598.4453,586,602.4453,596,606.4453,592,602.4453" style="stroke:#181818;stroke-width:1.0;"/><text fill="#000000" font-family="sans-serif" font-size="13" lengthAdjust="spacing" textLength="83" x="592" y="569.2466">apply header</text><text fill="#000000" font-family="sans-serif" font-size="13" lengthAdjust="spacing" textLength="68" x="592" y="584.3794">charge fee</text><path d="M666,628.4453 L850,628.4453 L850,635.5781 L840,645.5781 L666,645.5781 L666,628.4453 " fill="#EEEEEE" style="stroke:#000000;stroke-width:1.5;"/><rect fill="none" height="156.6641" style="stroke:#000000;stroke-width:1.5;" width="847.5" x="666" y="628.4453"/><text fill="#000000" font-family="sans-serif" font-size="13" font-weight="bold" lengthAdjust="spacing" textLength="139" x="681" y="641.5122">5. HotShot proving</text><polygon fill="#181818" points="1159,672.7109,1169,676.7109,1159,680.7109,1163,676.7109" style="stroke:#181818;stroke-width:1.0;"/><line style="stroke:#181818;stroke-width:1.0;" x1="682" x2="1165" y1="676.7109" y2="676.7109"/><text fill="#000000" font-family="sans-serif" font-size="13" lengthAdjust="spacing" textLength="33" x="689" y="671.645">state</text><polygon fill="#181818" points="1239,701.8438,1249,705.8438,1239,709.8438,1243,705.8438" style="stroke:#181818;stroke-width:1.0;"/><line style="stroke:#181818;stroke-width:1.0;" x1="1171" x2="1245" y1="705.8438" y2="705.8438"/><text fill="#000000" font-family="sans-serif" font-size="13" lengthAdjust="spacing" textLength="33" x="1178" y="700.7778">state</text><polygon fill="#181818" points="1437.5,730.9766,1447.5,734.9766,1437.5,738.9766,1441.5,734.9766" style="stroke:#181818;stroke-width:1.0;"/><line style="stroke:#181818;stroke-width:1.0;" x1="1251" x2="1443.5" y1="734.9766" y2="734.9766"/><text fill="#000000" font-family="sans-serif" font-size="13" lengthAdjust="spacing" textLength="33" x="1258" y="729.9106">proof</text><line style="stroke:#181818;stroke-width:1.0;" x1="1449.5" x2="1491.5" y1="764.1094" y2="764.1094"/><line style="stroke:#181818;stroke-width:1.0;" x1="1491.5" x2="1491.5" y1="764.1094" y2="777.1094"/><line style="stroke:#181818;stroke-width:1.0;" x1="1450.5" x2="1491.5" y1="777.1094" y2="777.1094"/><polygon fill="#181818" points="1460.5,773.1094,1450.5,777.1094,1460.5,781.1094,1456.5,777.1094" style="stroke:#181818;stroke-width:1.0;"/><text fill="#000000" font-family="sans-serif" font-size="13" lengthAdjust="spacing" textLength="34" x="1456.5" y="759.0435">verify</text><path d="M169.5,803.1094 L340.5,803.1094 L340.5,810.2422 L330.5,820.2422 L169.5,820.2422 L169.5,803.1094 " fill="#EEEEEE" style="stroke:#000000;stroke-width:1.5;"/><rect fill="none" height="203.9297" style="stroke:#000000;stroke-width:1.5;" width="1321" x="169.5" y="803.1094"/><text fill="#000000" font-family="sans-serif" font-size="13" font-weight="bold" lengthAdjust="spacing" textLength="126" x="184.5" y="816.1763">6. Rollup proving</text><polygon fill="#181818" points="273,847.375,263,851.375,273,855.375,269,851.375" style="stroke:#181818;stroke-width:1.0;"/><line style="stroke:#181818;stroke-width:1.0;" x1="267" x2="418" y1="851.375" y2="851.375"/><text fill="#000000" font-family="sans-serif" font-size="13" lengthAdjust="spacing" textLength="33" x="279" y="846.3091">block</text><polygon fill="#181818" points="196.5,876.5078,186.5,880.5078,196.5,884.5078,192.5,880.5078" style="stroke:#181818;stroke-width:1.0;"/><line style="stroke:#181818;stroke-width:1.0;" x1="190.5" x2="261" y1="880.5078" y2="880.5078"/><text fill="#000000" font-family="sans-serif" font-size="13" lengthAdjust="spacing" textLength="33" x="202.5" y="875.4419">block</text><polygon fill="#181818" points="1330.5,905.6406,1340.5,909.6406,1330.5,913.6406,1334.5,909.6406" style="stroke:#181818;stroke-width:1.0;"/><line style="stroke:#181818;stroke-width:1.0;" x1="185.5" x2="1336.5" y1="909.6406" y2="909.6406"/><text fill="#000000" font-family="sans-serif" font-size="13" lengthAdjust="spacing" textLength="109" x="192.5" y="904.5747">rollup state proof</text><path d="M1326.5,921.6406 L1412.5,921.6406 L1412.5,928.7734 L1402.5,938.7734 L1326.5,938.7734 L1326.5,921.6406 " fill="#EEEEEE" style="stroke:#000000;stroke-width:1.5;"/><rect fill="none" height="71.3984" style="stroke:#000000;stroke-width:1.5;" width="139" x="1326.5" y="921.6406"/><text fill="#000000" font-family="sans-serif" font-size="13" font-weight="bold" lengthAdjust="spacing" textLength="41" x="1341.5" y="934.7075">verify</text><polygon fill="#181818" points="1353.5,981.0391,1343.5,985.0391,1353.5,989.0391,1349.5,985.0391" style="stroke:#181818;stroke-width:1.0;"/><line style="stroke:#181818;stroke-width:1.0;" x1="1347.5" x2="1448.5" y1="985.0391" y2="985.0391"/><text fill="#000000" font-family="sans-serif" font-size="13" lengthAdjust="spacing" textLength="53" x="1359.5" y="964.8403">HotShot</text><text fill="#000000" font-family="sans-serif" font-size="13" lengthAdjust="spacing" textLength="83" x="1359.5" y="979.9731">commitment</text><!--SRC=[XLNVRnen37xdh_2eD6tIXjJknyDfchHIjbLY5ODjqYHUmfrxHCqbroH7o_xwEKuuk1vjUO34_ZxxIsAR5xKLPIN0e_a7tZOu4Bat5duxj8F1ojo3DKerDPnCPRdsVr4fSpS0-jJ2UfdBMcWFmo-powL-DP-DNmz1EB1rtiVChDcWJNvUzp6JUymRoiyeJ9i1wW98IjGpSRL5vmmiyBP1dQE5A_Htnjx0oG_f_7Pk77BaW3u0cGBXv5mwCh1x1o7jBXrll1MwzVN4BPfL9VrI4u7rETu_Zl_PeDtkuRTXsw9tPphA_6xyOcqerMI3shkbNdYBeegtmgRZl3z2oK9uB0A3VfdG6jbqdCWk8ibIfoTol1mSIkqzrtaZLN7i6LlzKnH52gXusSEEBwvwjgbSrMVr4s4jrahcmiLYIfidy2uUpw8Iz21KsXkPOoAJwNbchDSkDTLmfpY74xz6Yqq5qzDXAgfl5ezac7DRBVNOQ6-fvpZaVDm7SWp2AKdl_W0_FOB_YlW0TOsuLrbQGzryEWB2mGNMngKIJey9Rpy7GXQ-e4Z-m6RYZdysWbzMQ4SffD70dU6SepN72jCZ1A8vaD5KQO7i96FmnUxfkD-05XMwMkG8bnUnzhZQ0pxfwn1SNzcx4SIY0xFoGce7AsNocuT7ZDMOWTW8gSHAOOJ58ehEJj9S2LcbKBsSxqUG2WPo4eNQDPr0dy9Lf2hDzX2WipfHOiI-F4J73iYI8-wwOP9hjmzYgPMYEJmTxRkDJuaj5j9t7ZQWkx1ZH57NQWjhbhVK-LhO4jkgwjp4X_rDXFQGkkGKSPXmHOH-oy2reuWDmHFRwT0LBS7tJ1Da0MgkcJGT1qAm4LTUR_iQFuuWDbz78a_dGDtzwsG7XREpnPfEGlTkkrSwfyJf7vCFafGnBAPFidPZEEfzR1naq4wYt5JKBnMTlntAyLZjwZy0]--></g></svg>