<?xml version="1.0" encoding="us-ascii" standalone="no"?><svg xmlns="http://www.w3.org/2000/svg" xmlns:xlink="http://www.w3.org/1999/xlink" contentStyleType="text/css" height="1551px" preserveAspectRatio="none" style="width:1960px;height:1551px;background:#FFFFFF;" version="1.1" viewBox="0 0 1960 1551" width="1960px" zoomAndPan="magnify"><defs/><g><rect fill="#FFFFE0" height="1539.2188" style="stroke:#181818;stroke-width:0.5;" width="491.5" x="142.5" y="6"/><text fill="#000000" font-family="sans-serif" font-size="13" font-weight="bold" lengthAdjust="spacing" textLength="131" x="320.25" y="18.0669">Layer 2s / Rollups</text><rect fill="#90EE90" height="1519.0859" style="stroke:#181818;stroke-width:0.5;" width="246" x="142.5" y="26.1328"/><text fill="#000000" font-family="sans-serif" font-size="13" font-weight="bold" lengthAdjust="spacing" textLength="142" x="194.5" y="38.1997">Optimistic Rollup O</text><rect fill="#ADD8E6" height="1519.0859" style="stroke:#181818;stroke-width:0.5;" width="233.5" x="400.5" y="26.1328"/><text fill="#000000" font-family="sans-serif" font-size="13" font-weight="bold" lengthAdjust="spacing" textLength="86" x="474.25" y="38.1997">ZK Rollup Z</text><rect fill="#D3D3D3" height="1539.2188" style="stroke:#181818;stroke-width:0.5;" width="271" x="646" y="6"/><text fill="#000000" font-family="sans-serif" font-size="13" font-weight="bold" lengthAdjust="spacing" textLength="93" x="735" y="18.0669">Ethereum L1</text><rect fill="#FFE4E1" height="1539.2188" style="stroke:#181818;stroke-width:0.5;" width="1025.5" x="929" y="6"/><text fill="#000000" font-family="sans-serif" font-size="13" font-weight="bold" lengthAdjust="spacing" textLength="217" x="1330.75" y="18.0669">Espresso Sequencer Network</text><rect fill="#FFE4C4" height="1519.0859" style="stroke:#181818;stroke-width:0.5;" width="399.5" x="929" y="26.1328"/><text fill="#000000" font-family="sans-serif" font-size="13" font-weight="bold" lengthAdjust="spacing" textLength="122" x="1065.25" y="38.1997">Sequencer Node</text><rect fill="#E0FFFF" height="1498.9531" style="stroke:#181818;stroke-width:0.5;" width="135" x="929" y="46.2656"/><text fill="#000000" font-family="sans-serif" font-size="13" font-weight="bold" lengthAdjust="spacing" textLength="32" x="978" y="58.3325">APIs</text><line style="stroke:#181818;stroke-width:0.5;stroke-dasharray:5.0,5.0;" x1="24" x2="24" y1="145.5859" y2="1459.0313"/><line style="stroke:#181818;stroke-width:0.5;stroke-dasharray:5.0,5.0;" x1="173" x2="173" y1="145.5859" y2="1459.0313"/><line style="stroke:#181818;stroke-width:0.5;stroke-dasharray:5.0,5.0;" x1="248" x2="248" y1="145.5859" y2="1459.0313"/><line style="stroke:#181818;stroke-width:0.5;stroke-dasharray:5.0,5.0;" x1="340.5" x2="340.5" y1="145.5859" y2="1459.0313"/><line style="stroke:#181818;stroke-width:0.5;stroke-dasharray:5.0,5.0;" x1="431" x2="431" y1="145.5859" y2="1459.0313"/><line style="stroke:#181818;stroke-width:0.5;stroke-dasharray:5.0,5.0;" x1="496.5" x2="496.5" y1="145.5859" y2="1459.0313"/><line style="stroke:#181818;stroke-width:0.5;stroke-dasharray:5.0,5.0;" x1="592.5" x2="592.5" y1="145.5859" y2="1459.0313"/><line style="stroke:#181818;stroke-width:0.5;stroke-dasharray:5.0,5.0;" x1="686.5" x2="686.5" y1="145.5859" y2="1459.0313"/><line style="stroke:#181818;stroke-width:0.5;stroke-dasharray:5.0,5.0;" x1="793.5" x2="793.5" y1="145.5859" y2="1459.0313"/><line style="stroke:#181818;stroke-width:0.5;stroke-dasharray:5.0,5.0;" x1="876.5" x2="876.5" y1="145.5859" y2="1459.0313"/><line style="stroke:#181818;stroke-width:0.5;stroke-dasharray:5.0,5.0;" x1="964" x2="964" y1="145.5859" y2="1459.0313"/><line style="stroke:#181818;stroke-width:0.5;stroke-dasharray:5.0,5.0;" x1="1032.5" x2="1032.5" y1="145.5859" y2="1459.0313"/><line style="stroke:#181818;stroke-width:0.5;stroke-dasharray:5.0,5.0;" x1="1115" x2="1115" y1="145.5859" y2="1459.0313"/><line style="stroke:#181818;stroke-width:0.5;stroke-dasharray:5.0,5.0;" x1="1198.5" x2="1198.5" y1="145.5859" y2="1459.0313"/><line style="stroke:#181818;stroke-width:0.5;stroke-dasharray:5.0,5.0;" x1="1295.5" x2="1295.5" y1="145.5859" y2="1459.0313"/><line style="stroke:#181818;stroke-width:0.5;stroke-dasharray:5.0,5.0;" x1="1375.5" x2="1375.5" y1="145.5859" y2="1459.0313"/><line style="stroke:#181818;stroke-width:0.5;stroke-dasharray:5.0,5.0;" x1="1499.5" x2="1499.5" y1="145.5859" y2="1459.0313"/><line style="stroke:#181818;stroke-width:0.5;stroke-dasharray:5.0,5.0;" x1="1567" x2="1567" y1="145.5859" y2="1459.0313"/><line style="stroke:#181818;stroke-width:0.5;stroke-dasharray:5.0,5.0;" x1="1629.5" x2="1629.5" y1="145.5859" y2="1459.0313"/><line style="stroke:#181818;stroke-width:0.5;stroke-dasharray:5.0,5.0;" x1="1704.5" x2="1704.5" y1="145.5859" y2="1459.0313"/><line style="stroke:#181818;stroke-width:0.5;stroke-dasharray:5.0,5.0;" x1="1784.5" x2="1784.5" y1="145.5859" y2="1459.0313"/><line style="stroke:#181818;stroke-width:0.5;stroke-dasharray:5.0,5.0;" x1="1915.5" x2="1915.5" y1="145.5859" y2="1459.0313"/><text fill="#000000" font-family="sans-serif" font-size="14" lengthAdjust="spacing" textLength="32" x="5" y="142.2842">User</text><ellipse cx="24" cy="77.7891" fill="#E2E2F0" rx="8" ry="8" style="stroke:#181818;stroke-width:0.5;"/><path d="M24,85.7891 L24,112.7891 M11,93.7891 L37,93.7891 M24,112.7891 L11,127.7891 M24,112.7891 L37,127.7891 " fill="none" style="stroke:#181818;stroke-width:0.5;"/><rect fill="#E2E2F0" height="46.5938" rx="2.5" ry="2.5" style="stroke:#181818;stroke-width:0.5;" width="53" x="146.5" y="97.9922"/><text fill="#000000" font-family="sans-serif" font-size="14" lengthAdjust="spacing" textLength="21" x="162.5" y="117.9873">API</text><text fill="#000000" font-family="sans-serif" font-size="14" lengthAdjust="spacing" textLength="39" x="153.5" y="134.2842">(RPC)</text><rect fill="#E2E2F0" height="30.2969" rx="2.5" ry="2.5" style="stroke:#181818;stroke-width:0.5;" width="77" x="209.5" y="114.2891"/><text fill="#000000" font-family="sans-serif" font-size="14" lengthAdjust="spacing" textLength="63" x="216.5" y="134.2842">Proposer</text><rect fill="#E2E2F0" height="30.2969" rx="2.5" ry="2.5" style="stroke:#181818;stroke-width:0.5;" width="88" x="296.5" y="114.2891"/><text fill="#000000" font-family="sans-serif" font-size="14" lengthAdjust="spacing" textLength="74" x="303.5" y="134.2842">Challenger</text><rect fill="#E2E2F0" height="46.5938" rx="2.5" ry="2.5" style="stroke:#181818;stroke-width:0.5;" width="53" x="404.5" y="97.9922"/><text fill="#000000" font-family="sans-serif" font-size="14" lengthAdjust="spacing" textLength="21" x="420.5" y="117.9873">API</text><text fill="#000000" font-family="sans-serif" font-size="14" lengthAdjust="spacing" textLength="39" x="411.5" y="134.2842">(RPC)</text><rect fill="#E2E2F0" height="30.2969" rx="2.5" ry="2.5" style="stroke:#181818;stroke-width:0.5;" width="58" x="467.5" y="114.2891"/><text fill="#000000" font-family="sans-serif" font-size="14" lengthAdjust="spacing" textLength="44" x="474.5" y="134.2842">Prover</text><rect fill="#E2E2F0" height="30.2969" rx="2.5" ry="2.5" style="stroke:#181818;stroke-width:0.5;" width="75" x="555" y="114.2891"/><text fill="#000000" font-family="sans-serif" font-size="14" lengthAdjust="spacing" textLength="61" x="562" y="134.2842">Executor</text><rect fill="#E2E2F0" height="46.5938" rx="2.5" ry="2.5" style="stroke:#181818;stroke-width:0.5;" width="73" x="650" y="97.9922"/><text fill="#000000" font-family="sans-serif" font-size="14" lengthAdjust="spacing" textLength="43" x="665" y="117.9873">Rollup</text><text fill="#000000" font-family="sans-serif" font-size="14" lengthAdjust="spacing" textLength="59" x="657" y="134.2842">Contract</text><rect fill="#E2E2F0" height="62.8906" rx="2.5" ry="2.5" style="stroke:#181818;stroke-width:0.5;" width="73" x="757" y="81.6953"/><text fill="#000000" font-family="sans-serif" font-size="14" lengthAdjust="spacing" textLength="33" x="777" y="101.6904">Light</text><text fill="#000000" font-family="sans-serif" font-size="14" lengthAdjust="spacing" textLength="39" x="774" y="117.9873">Client</text><text fill="#000000" font-family="sans-serif" font-size="14" lengthAdjust="spacing" textLength="59" x="764" y="134.2842">Contract</text><rect fill="#E2E2F0" height="46.5938" rx="2.5" ry="2.5" style="stroke:#181818;stroke-width:0.5;" width="73" x="840" y="97.9922"/><text fill="#000000" font-family="sans-serif" font-size="14" lengthAdjust="spacing" textLength="26" x="863.5" y="117.9873">Fee</text><text fill="#000000" font-family="sans-serif" font-size="14" lengthAdjust="spacing" textLength="59" x="847" y="134.2842">Contract</text><rect fill="#E2E2F0" height="46.5938" rx="2.5" ry="2.5" style="stroke:#181818;stroke-width:0.5;" width="62" x="933" y="97.9922"/><text fill="#000000" font-family="sans-serif" font-size="14" lengthAdjust="spacing" textLength="48" x="940" y="117.9873">Submit</text><text fill="#000000" font-family="sans-serif" font-size="14" lengthAdjust="spacing" textLength="21" x="953.5" y="134.2842">API</text><rect fill="#E2E2F0" height="46.5938" rx="2.5" ry="2.5" style="stroke:#181818;stroke-width:0.5;" width="55" x="1005" y="97.9922"/><text fill="#000000" font-family="sans-serif" font-size="14" lengthAdjust="spacing" textLength="41" x="1012" y="117.9873">Query</text><text fill="#000000" font-family="sans-serif" font-size="14" lengthAdjust="spacing" textLength="21" x="1022" y="134.2842">API</text><rect fill="#E2E2F0" height="62.8906" rx="2.5" ry="2.5" style="stroke:#181818;stroke-width:0.5;" width="70" x="1080" y="81.6953"/><text fill="#000000" font-family="sans-serif" font-size="14" lengthAdjust="spacing" textLength="56" x="1087" y="101.6904">HotShot</text><text fill="#000000" font-family="sans-serif" font-size="14" lengthAdjust="spacing" textLength="47" x="1091.5" y="117.9873">Events</text><text fill="#000000" font-family="sans-serif" font-size="14" lengthAdjust="spacing" textLength="49" x="1090.5" y="134.2842">Stream</text><rect fill="#E2E2F0" height="46.5938" rx="2.5" ry="2.5" style="stroke:#181818;stroke-width:0.5;" width="77" x="1160" y="97.9922"/><text fill="#000000" font-family="sans-serif" font-size="14" lengthAdjust="spacing" textLength="63" x="1167" y="117.9873">Validated</text><text fill="#000000" font-family="sans-serif" font-size="14" lengthAdjust="spacing" textLength="36" x="1180.5" y="134.2842">State</text><rect fill="#E2E2F0" height="46.5938" rx="2.5" ry="2.5" style="stroke:#181818;stroke-width:0.5;" width="58" x="1266.5" y="97.9922"/><text fill="#000000" font-family="sans-serif" font-size="14" lengthAdjust="spacing" textLength="36" x="1277.5" y="117.9873">State</text><text fill="#000000" font-family="sans-serif" font-size="14" lengthAdjust="spacing" textLength="44" x="1273.5" y="134.2842">Signer</text><rect fill="#E2E2F0" height="30.2969" rx="2.5" ry="2.5" style="stroke:#181818;stroke-width:0.5;" width="62" x="1344.5" y="114.2891"/><text fill="#000000" font-family="sans-serif" font-size="14" lengthAdjust="spacing" textLength="48" x="1351.5" y="134.2842">Builder</text><rect fill="#E2E2F0" height="46.5938" rx="2.5" ry="2.5" style="stroke:#181818;stroke-width:0.5;" width="70" x="1464.5" y="97.9922"/><text fill="#000000" font-family="sans-serif" font-size="14" lengthAdjust="spacing" textLength="56" x="1471.5" y="117.9873">HotShot</text><text fill="#000000" font-family="sans-serif" font-size="14" lengthAdjust="spacing" textLength="47" x="1476" y="134.2842">Leader</text><rect fill="#E2E2F0" height="30.2969" rx="2.5" ry="2.5" style="stroke:#181818;stroke-width:0.5;" width="45" x="1544.5" y="114.2891"/><text fill="#000000" font-family="sans-serif" font-size="14" lengthAdjust="spacing" textLength="31" x="1551.5" y="134.2842">CDN</text><rect fill="#E2E2F0" height="30.2969" rx="2.5" ry="2.5" style="stroke:#181818;stroke-width:0.5;" width="60" x="1599.5" y="114.2891"/><text fill="#000000" font-family="sans-serif" font-size="14" lengthAdjust="spacing" textLength="46" x="1606.5" y="134.2842">Libp2p</text><rect fill="#E2E2F0" height="46.5938" rx="2.5" ry="2.5" style="stroke:#181818;stroke-width:0.5;" width="70" x="1669.5" y="97.9922"/><text fill="#000000" font-family="sans-serif" font-size="14" lengthAdjust="spacing" textLength="56" x="1676.5" y="117.9873">HotShot</text><text fill="#000000" font-family="sans-serif" font-size="14" lengthAdjust="spacing" textLength="53" x="1678" y="134.2842">replicas</text><rect fill="#E2E2F0" height="79.1875" rx="2.5" ry="2.5" style="stroke:#181818;stroke-width:0.5;" width="70" x="1749.5" y="65.3984"/><text fill="#000000" font-family="sans-serif" font-size="14" lengthAdjust="spacing" textLength="56" x="1756.5" y="85.3936">HotShot</text><text fill="#000000" font-family="sans-serif" font-size="14" lengthAdjust="spacing" textLength="35" x="1767" y="101.6904">state</text><text fill="#000000" font-family="sans-serif" font-size="14" lengthAdjust="spacing" textLength="32" x="1768.5" y="117.9873">relay</text><text fill="#000000" font-family="sans-serif" font-size="14" lengthAdjust="spacing" textLength="49" x="1760" y="134.2842">service</text><rect fill="#E2E2F0" height="79.1875" rx="2.5" ry="2.5" style="stroke:#181818;stroke-width:0.5;" width="70" x="1880.5" y="65.3984"/><text fill="#000000" font-family="sans-serif" font-size="14" lengthAdjust="spacing" textLength="56" x="1887.5" y="85.3936">HotShot</text><text fill="#000000" font-family="sans-serif" font-size="14" lengthAdjust="spacing" textLength="35" x="1898" y="101.6904">state</text><text fill="#000000" font-family="sans-serif" font-size="14" lengthAdjust="spacing" textLength="44" x="1893.5" y="117.9873">prover</text><text fill="#000000" font-family="sans-serif" font-size="14" lengthAdjust="spacing" textLength="49" x="1891" y="134.2842">service</text><text fill="#000000" font-family="sans-serif" font-size="14" lengthAdjust="spacing" textLength="32" x="5" y="1532.0264">User</text><ellipse cx="24" cy="1467.5313" fill="#E2E2F0" rx="8" ry="8" style="stroke:#181818;stroke-width:0.5;"/><path d="M24,1475.5313 L24,1502.5313 M11,1483.5313 L37,1483.5313 M24,1502.5313 L11,1517.5313 M24,1502.5313 L37,1517.5313 " fill="none" style="stroke:#181818;stroke-width:0.5;"/><rect fill="#E2E2F0" height="46.5938" rx="2.5" ry="2.5" style="stroke:#181818;stroke-width:0.5;" width="53" x="146.5" y="1459.0313"/><text fill="#000000" font-family="sans-serif" font-size="14" lengthAdjust="spacing" textLength="21" x="162.5" y="1479.0264">API</text><text fill="#000000" font-family="sans-serif" font-size="14" lengthAdjust="spacing" textLength="39" x="153.5" y="1495.3232">(RPC)</text><rect fill="#E2E2F0" height="30.2969" rx="2.5" ry="2.5" style="stroke:#181818;stroke-width:0.5;" width="77" x="209.5" y="1459.0313"/><text fill="#000000" font-family="sans-serif" font-size="14" lengthAdjust="spacing" textLength="63" x="216.5" y="1479.0264">Proposer</text><rect fill="#E2E2F0" height="30.2969" rx="2.5" ry="2.5" style="stroke:#181818;stroke-width:0.5;" width="88" x="296.5" y="1459.0313"/><text fill="#000000" font-family="sans-serif" font-size="14" lengthAdjust="spacing" textLength="74" x="303.5" y="1479.0264">Challenger</text><rect fill="#E2E2F0" height="46.5938" rx="2.5" ry="2.5" style="stroke:#181818;stroke-width:0.5;" width="53" x="404.5" y="1459.0313"/><text fill="#000000" font-family="sans-serif" font-size="14" lengthAdjust="spacing" textLength="21" x="420.5" y="1479.0264">API</text><text fill="#000000" font-family="sans-serif" font-size="14" lengthAdjust="spacing" textLength="39" x="411.5" y="1495.3232">(RPC)</text><rect fill="#E2E2F0" height="30.2969" rx="2.5" ry="2.5" style="stroke:#181818;stroke-width:0.5;" width="58" x="467.5" y="1459.0313"/><text fill="#000000" font-family="sans-serif" font-size="14" lengthAdjust="spacing" textLength="44" x="474.5" y="1479.0264">Prover</text><rect fill="#E2E2F0" height="30.2969" rx="2.5" ry="2.5" style="stroke:#181818;stroke-width:0.5;" width="75" x="555" y="1459.0313"/><text fill="#000000" font-family="sans-serif" font-size="14" lengthAdjust="spacing" textLength="61" x="562" y="1479.0264">Executor</text><rect fill="#E2E2F0" height="46.5938" rx="2.5" ry="2.5" style="stroke:#181818;stroke-width:0.5;" width="73" x="650" y="1459.0313"/><text fill="#000000" font-family="sans-serif" font-size="14" lengthAdjust="spacing" textLength="43" x="665" y="1479.0264">Rollup</text><text fill="#000000" font-family="sans-serif" font-size="14" lengthAdjust="spacing" textLength="59" x="657" y="1495.3232">Contract</text><rect fill="#E2E2F0" height="62.8906" rx="2.5" ry="2.5" style="stroke:#181818;stroke-width:0.5;" width="73" x="757" y="1459.0313"/><text fill="#000000" font-family="sans-serif" font-size="14" lengthAdjust="spacing" textLength="33" x="777" y="1479.0264">Light</text><text fill="#000000" font-family="sans-serif" font-size="14" lengthAdjust="spacing" textLength="39" x="774" y="1495.3232">Client</text><text fill="#000000" font-family="sans-serif" font-size="14" lengthAdjust="spacing" textLength="59" x="764" y="1511.6201">Contract</text><rect fill="#E2E2F0" height="46.5938" rx="2.5" ry="2.5" style="stroke:#181818;stroke-width:0.5;" width="73" x="840" y="1459.0313"/><text fill="#000000" font-family="sans-serif" font-size="14" lengthAdjust="spacing" textLength="26" x="863.5" y="1479.0264">Fee</text><text fill="#000000" font-family="sans-serif" font-size="14" lengthAdjust="spacing" textLength="59" x="847" y="1495.3232">Contract</text><rect fill="#E2E2F0" height="46.5938" rx="2.5" ry="2.5" style="stroke:#181818;stroke-width:0.5;" width="62" x="933" y="1459.0313"/><text fill="#000000" font-family="sans-serif" font-size="14" lengthAdjust="spacing" textLength="48" x="940" y="1479.0264">Submit</text><text fill="#000000" font-family="sans-serif" font-size="14" lengthAdjust="spacing" textLength="21" x="953.5" y="1495.3232">API</text><rect fill="#E2E2F0" height="46.5938" rx="2.5" ry="2.5" style="stroke:#181818;stroke-width:0.5;" width="55" x="1005" y="1459.0313"/><text fill="#000000" font-family="sans-serif" font-size="14" lengthAdjust="spacing" textLength="41" x="1012" y="1479.0264">Query</text><text fill="#000000" font-family="sans-serif" font-size="14" lengthAdjust="spacing" textLength="21" x="1022" y="1495.3232">API</text><rect fill="#E2E2F0" height="62.8906" rx="2.5" ry="2.5" style="stroke:#181818;stroke-width:0.5;" width="70" x="1080" y="1459.0313"/><text fill="#000000" font-family="sans-serif" font-size="14" lengthAdjust="spacing" textLength="56" x="1087" y="1479.0264">HotShot</text><text fill="#000000" font-family="sans-serif" font-size="14" lengthAdjust="spacing" textLength="47" x="1091.5" y="1495.3232">Events</text><text fill="#000000" font-family="sans-serif" font-size="14" lengthAdjust="spacing" textLength="49" x="1090.5" y="1511.6201">Stream</text><rect fill="#E2E2F0" height="46.5938" rx="2.5" ry="2.5" style="stroke:#181818;stroke-width:0.5;" width="77" x="1160" y="1459.0313"/><text fill="#000000" font-family="sans-serif" font-size="14" lengthAdjust="spacing" textLength="63" x="1167" y="1479.0264">Validated</text><text fill="#000000" font-family="sans-serif" font-size="14" lengthAdjust="spacing" textLength="36" x="1180.5" y="1495.3232">State</text><rect fill="#E2E2F0" height="46.5938" rx="2.5" ry="2.5" style="stroke:#181818;stroke-width:0.5;" width="58" x="1266.5" y="1459.0313"/><text fill="#000000" font-family="sans-serif" font-size="14" lengthAdjust="spacing" textLength="36" x="1277.5" y="1479.0264">State</text><text fill="#000000" font-family="sans-serif" font-size="14" lengthAdjust="spacing" textLength="44" x="1273.5" y="1495.3232">Signer</text><rect fill="#E2E2F0" height="30.2969" rx="2.5" ry="2.5" style="stroke:#181818;stroke-width:0.5;" width="62" x="1344.5" y="1459.0313"/><text fill="#000000" font-family="sans-serif" font-size="14" lengthAdjust="spacing" textLength="48" x="1351.5" y="1479.0264">Builder</text><rect fill="#E2E2F0" height="46.5938" rx="2.5" ry="2.5" style="stroke:#181818;stroke-width:0.5;" width="70" x="1464.5" y="1459.0313"/><text fill="#000000" font-family="sans-serif" font-size="14" lengthAdjust="spacing" textLength="56" x="1471.5" y="1479.0264">HotShot</text><text fill="#000000" font-family="sans-serif" font-size="14" lengthAdjust="spacing" textLength="47" x="1476" y="1495.3232">Leader</text><rect fill="#E2E2F0" height="30.2969" rx="2.5" ry="2.5" style="stroke:#181818;stroke-width:0.5;" width="45" x="1544.5" y="1459.0313"/><text fill="#000000" font-family="sans-serif" font-size="14" lengthAdjust="spacing" textLength="31" x="1551.5" y="1479.0264">CDN</text><rect fill="#E2E2F0" height="30.2969" rx="2.5" ry="2.5" style="stroke:#181818;stroke-width:0.5;" width="60" x="1599.5" y="1459.0313"/><text fill="#000000" font-family="sans-serif" font-size="14" lengthAdjust="spacing" textLength="46" x="1606.5" y="1479.0264">Libp2p</text><rect fill="#E2E2F0" height="46.5938" rx="2.5" ry="2.5" style="stroke:#181818;stroke-width:0.5;" width="70" x="1669.5" y="1459.0313"/><text fill="#000000" font-family="sans-serif" font-size="14" lengthAdjust="spacing" textLength="56" x="1676.5" y="1479.0264">HotShot</text><text fill="#000000" font-family="sans-serif" font-size="14" lengthAdjust="spacing" textLength="53" x="1678" y="1495.3232">replicas</text><rect fill="#E2E2F0" height="79.1875" rx="2.5" ry="2.5" style="stroke:#181818;stroke-width:0.5;" width="70" x="1749.5" y="1459.0313"/><text fill="#000000" font-family="sans-serif" font-size="14" lengthAdjust="spacing" textLength="56" x="1756.5" y="1479.0264">HotShot</text><text fill="#000000" font-family="sans-serif" font-size="14" lengthAdjust="spacing" textLength="35" x="1767" y="1495.3232">state</text><text fill="#000000" font-family="sans-serif" font-size="14" lengthAdjust="spacing" textLength="32" x="1768.5" y="1511.6201">relay</text><text fill="#000000" font-family="sans-serif" font-size="14" lengthAdjust="spacing" textLength="49" x="1760" y="1527.917">service</text><rect fill="#E2E2F0" height="79.1875" rx="2.5" ry="2.5" style="stroke:#181818;stroke-width:0.5;" width="70" x="1880.5" y="1459.0313"/><text fill="#000000" font-family="sans-serif" font-size="14" lengthAdjust="spacing" textLength="56" x="1887.5" y="1479.0264">HotShot</text><text fill="#000000" font-family="sans-serif" font-size="14" lengthAdjust="spacing" textLength="35" x="1898" y="1495.3232">state</text><text fill="#000000" font-family="sans-serif" font-size="14" lengthAdjust="spacing" textLength="44" x="1893.5" y="1511.6201">prover</text><text fill="#000000" font-family="sans-serif" font-size="14" lengthAdjust="spacing" textLength="49" x="1891" y="1527.917">service</text><path d="M860.5,157.5859 L1012.5,157.5859 L1012.5,164.7188 L1002.5,174.7188 L860.5,174.7188 L860.5,157.5859 " fill="#EEEEEE" style="stroke:#000000;stroke-width:1.5;"/><rect fill="none" height="56.2656" style="stroke:#000000;stroke-width:1.5;" width="531" x="860.5" y="157.5859"/><text fill="#000000" font-family="sans-serif" font-size="13" font-weight="bold" lengthAdjust="spacing" textLength="107" x="875.5" y="170.6528">1. Fee deposit</text><polygon fill="#181818" points="887.5,201.8516,877.5,205.8516,887.5,209.8516,883.5,205.8516" style="stroke:#181818;stroke-width:1.0;"/><line style="stroke:#181818;stroke-width:1.0;" x1="881.5" x2="1374.5" y1="205.8516" y2="205.8516"/><text fill="#000000" font-family="sans-serif" font-size="13" lengthAdjust="spacing" textLength="71" x="893.5" y="200.7856">fee deposit</text><path d="M8,231.8516 L253,231.8516 L253,238.9844 L243,248.9844 L8,248.9844 L8,231.8516 " fill="#EEEEEE" style="stroke:#000000;stroke-width:1.5;"/><rect fill="none" height="172.7969" style="stroke:#000000;stroke-width:1.5;" width="1383.5" x="8" y="231.8516"/><text fill="#000000" font-family="sans-serif" font-size="13" font-weight="bold" lengthAdjust="spacing" textLength="200" x="23" y="244.9185">2. Transaction submisssion</text><polygon fill="#181818" points="161,276.1172,171,280.1172,161,284.1172,165,280.1172" style="stroke:#181818;stroke-width:1.0;"/><line style="stroke:#181818;stroke-width:1.0;" x1="24" x2="167" y1="280.1172" y2="280.1172"/><text fill="#000000" font-family="sans-serif" font-size="13" lengthAdjust="spacing" textLength="125" x="31" y="275.0513">rollup O transaction</text><polygon fill="#181818" points="952,305.25,962,309.25,952,313.25,956,309.25" style="stroke:#181818;stroke-width:1.0;"/><line style="stroke:#181818;stroke-width:1.0;" x1="173" x2="958" y1="309.25" y2="309.25"/><text fill="#000000" font-family="sans-serif" font-size="13" lengthAdjust="spacing" textLength="72" x="180" y="304.1841">transaction</text><polygon fill="#181818" points="419,334.3828,429,338.3828,419,342.3828,423,338.3828" style="stroke:#181818;stroke-width:1.0;"/><line style="stroke:#181818;stroke-width:1.0;" x1="24" x2="425" y1="338.3828" y2="338.3828"/><text fill="#000000" font-family="sans-serif" font-size="13" lengthAdjust="spacing" textLength="125" x="31" y="333.3169">rollup Z transaction</text><polygon fill="#181818" points="952,363.5156,962,367.5156,952,371.5156,956,367.5156" style="stroke:#181818;stroke-width:1.0;"/><line style="stroke:#181818;stroke-width:1.0;" x1="431" x2="958" y1="367.5156" y2="367.5156"/><text fill="#000000" font-family="sans-serif" font-size="13" lengthAdjust="spacing" textLength="72" x="438" y="362.4497">transaction</text><polygon fill="#181818" points="1363.5,392.6484,1373.5,396.6484,1363.5,400.6484,1367.5,396.6484" style="stroke:#181818;stroke-width:1.0;"/><line style="stroke:#181818;stroke-width:1.0;" x1="1115" x2="1369.5" y1="396.6484" y2="396.6484"/><text fill="#000000" font-family="sans-serif" font-size="13" lengthAdjust="spacing" textLength="79" x="1122" y="391.5825">transactions</text><path d="M1359.5,422.6484 L1651.5,422.6484 L1651.5,429.7813 L1641.5,439.7813 L1359.5,439.7813 L1359.5,422.6484 " fill="#EEEEEE" style="stroke:#000000;stroke-width:1.5;"/><rect fill="none" height="85.3984" style="stroke:#000000;stroke-width:1.5;" width="308" x="1359.5" y="422.6484"/><text fill="#000000" font-family="sans-serif" font-size="13" font-weight="bold" lengthAdjust="spacing" textLength="247" x="1374.5" y="435.7153">3. Leader obtains Espresso block</text><polygon fill="#181818" points="1487.5,466.9141,1497.5,470.9141,1487.5,474.9141,1491.5,470.9141" style="stroke:#181818;stroke-width:1.0;"/><line style="stroke:#181818;stroke-width:1.0;" x1="1375.5" x2="1493.5" y1="470.9141" y2="470.9141"/><text fill="#000000" font-family="sans-serif" font-size="13" lengthAdjust="spacing" textLength="100" x="1382.5" y="465.8481">available blocks</text><polygon fill="#181818" points="1386.5,496.0469,1376.5,500.0469,1386.5,504.0469,1382.5,500.0469" style="stroke:#181818;stroke-width:1.0;"/><line style="stroke:#181818;stroke-width:1.0;" x1="1380.5" x2="1498.5" y1="500.0469" y2="500.0469"/><text fill="#000000" font-family="sans-serif" font-size="13" lengthAdjust="spacing" textLength="71" x="1392.5" y="494.981">claim block</text><path d="M860.5,526.0469 L1065.5,526.0469 L1065.5,533.1797 L1055.5,543.1797 L860.5,543.1797 L860.5,526.0469 " fill="#EEEEEE" style="stroke:#000000;stroke-width:1.5;"/><rect fill="none" height="142.6641" style="stroke:#000000;stroke-width:1.5;" width="860" x="860.5" y="526.0469"/><text fill="#000000" font-family="sans-serif" font-size="13" font-weight="bold" lengthAdjust="spacing" textLength="160" x="875.5" y="539.1138">4. HotShot consensus</text><polygon fill="#181818" points="1510.5,570.3125,1500.5,574.3125,1510.5,578.3125,1506.5,574.3125" style="stroke:#181818;stroke-width:1.0;"/><polygon fill="#181818" points="1692.5,570.3125,1702.5,574.3125,1692.5,578.3125,1696.5,574.3125" style="stroke:#181818;stroke-width:1.0;"/><line style="stroke:#181818;stroke-width:1.0;" x1="1504.5" x2="1698.5" y1="574.3125" y2="574.3125"/><text fill="#000000" font-family="sans-serif" font-size="13" lengthAdjust="spacing" textLength="138" x="1516.5" y="569.2466">consensus messages</text><polygon fill="#181818" points="1510.5,570.3125,1500.5,574.3125,1510.5,578.3125,1506.5,574.3125" style="stroke:#181818;stroke-width:1.0;"/><polygon fill="#181818" points="1617.5,570.3125,1627.5,574.3125,1617.5,578.3125,1621.5,574.3125" style="stroke:#181818;stroke-width:1.0;"/><line style="stroke:#181818;stroke-width:1.0;" x1="1504.5" x2="1623.5" y1="574.3125" y2="574.3125"/><polygon fill="#181818" points="1640.5,570.3125,1630.5,574.3125,1640.5,578.3125,1636.5,574.3125" style="stroke:#181818;stroke-width:1.0;"/><polygon fill="#181818" points="1692.5,570.3125,1702.5,574.3125,1692.5,578.3125,1696.5,574.3125" style="stroke:#181818;stroke-width:1.0;"/><line style="stroke:#181818;stroke-width:1.0;" x1="1634.5" x2="1698.5" y1="574.3125" y2="574.3125"/><polygon fill="#181818" points="1578,570.3125,1568,574.3125,1578,578.3125,1574,574.3125" style="stroke:#181818;stroke-width:1.0;"/><line style="stroke:#181818;stroke-width:1.0;" x1="1572" x2="1703.5" y1="574.3125" y2="574.3125"/><polygon fill="#181818" points="1186.5,599.4453,1196.5,603.4453,1186.5,607.4453,1190.5,603.4453" style="stroke:#181818;stroke-width:1.0;"/><line style="stroke:#181818;stroke-width:1.0;" x1="876.5" x2="1192.5" y1="603.4453" y2="603.4453"/><text fill="#000000" font-family="sans-serif" font-size="13" lengthAdjust="spacing" textLength="111" x="883.5" y="598.3794">credit fee deposit</text><line style="stroke:#181818;stroke-width:1.0;" x1="1198.5" x2="1240.5" y1="647.7109" y2="647.7109"/><line style="stroke:#181818;stroke-width:1.0;" x1="1240.5" x2="1240.5" y1="647.7109" y2="660.7109"/><line style="stroke:#181818;stroke-width:1.0;" x1="1199.5" x2="1240.5" y1="660.7109" y2="660.7109"/><polygon fill="#181818" points="1209.5,656.7109,1199.5,660.7109,1209.5,664.7109,1205.5,660.7109" style="stroke:#181818;stroke-width:1.0;"/><text fill="#000000" font-family="sans-serif" font-size="13" lengthAdjust="spacing" textLength="83" x="1205.5" y="627.5122">apply header</text><text fill="#000000" font-family="sans-serif" font-size="13" lengthAdjust="spacing" textLength="68" x="1205.5" y="642.645">charge fee</text><path d="M480.5,686.7109 L720.5,686.7109 L720.5,693.8438 L710.5,703.8438 L480.5,703.8438 L480.5,686.7109 " fill="#EEEEEE" style="stroke:#000000;stroke-width:1.5;"/><rect fill="none" height="172.9297" style="stroke:#000000;stroke-width:1.5;" width="568" x="480.5" y="686.7109"/><text fill="#000000" font-family="sans-serif" font-size="13" font-weight="bold" lengthAdjust="spacing" textLength="195" x="495.5" y="699.7778">5. Rollup block production</text><polygon fill="#181818" points="603.5,746.1094,593.5,750.1094,603.5,754.1094,599.5,750.1094" style="stroke:#181818;stroke-width:1.0;"/><line style="stroke:#181818;stroke-width:1.0;" x1="597.5" x2="1031.5" y1="750.1094" y2="750.1094"/><text fill="#000000" font-family="sans-serif" font-size="13" lengthAdjust="spacing" textLength="111" x="609.5" y="729.9106">Espresso header,</text><text fill="#000000" font-family="sans-serif" font-size="13" lengthAdjust="spacing" textLength="173" x="609.5" y="745.0435">transactions in namespace</text><line style="stroke:#181818;stroke-width:1.0;" x1="592.5" x2="634.5" y1="809.5078" y2="809.5078"/><line style="stroke:#181818;stroke-width:1.0;" x1="634.5" x2="634.5" y1="809.5078" y2="822.5078"/><line style="stroke:#181818;stroke-width:1.0;" x1="593.5" x2="634.5" y1="822.5078" y2="822.5078"/><polygon fill="#181818" points="603.5,818.5078,593.5,822.5078,603.5,826.5078,599.5,822.5078" style="stroke:#181818;stroke-width:1.0;"/><text fill="#000000" font-family="sans-serif" font-size="13" lengthAdjust="spacing" textLength="34" x="599.5" y="774.1763">verify</text><text fill="#000000" font-family="sans-serif" font-size="13" lengthAdjust="spacing" textLength="75" x="599.5" y="789.3091">namespace</text><text fill="#000000" font-family="sans-serif" font-size="13" lengthAdjust="spacing" textLength="33" x="599.5" y="804.4419">proof</text><polygon fill="#181818" points="507.5,847.6406,497.5,851.6406,507.5,855.6406,503.5,851.6406" style="stroke:#181818;stroke-width:1.0;"/><line style="stroke:#181818;stroke-width:1.0;" x1="501.5" x2="591.5" y1="851.6406" y2="851.6406"/><text fill="#000000" font-family="sans-serif" font-size="13" lengthAdjust="spacing" textLength="72" x="513.5" y="846.5747">rollup block</text><path d="M777.5,877.6406 L961.5,877.6406 L961.5,884.7734 L951.5,894.7734 L777.5,894.7734 L777.5,877.6406 " fill="#EEEEEE" style="stroke:#000000;stroke-width:1.5;"/><rect fill="none" height="171.7969" style="stroke:#000000;stroke-width:1.5;" width="1154" x="777.5" y="877.6406"/><text fill="#000000" font-family="sans-serif" font-size="13" font-weight="bold" lengthAdjust="spacing" textLength="139" x="792.5" y="890.7075">6. HotShot proving</text><polygon fill="#181818" points="1772.5,921.9063,1782.5,925.9063,1772.5,929.9063,1776.5,925.9063" style="stroke:#181818;stroke-width:1.0;"/><line style="stroke:#181818;stroke-width:1.0;" x1="1295.5" x2="1778.5" y1="925.9063" y2="925.9063"/><text fill="#000000" font-family="sans-serif" font-size="13" lengthAdjust="spacing" textLength="101" x="1302.5" y="920.8403">state, signature</text><polygon fill="#181818" points="1903.5,966.1719,1913.5,970.1719,1903.5,974.1719,1907.5,970.1719" style="stroke:#181818;stroke-width:1.0;"/><line style="stroke:#181818;stroke-width:1.0;" x1="1784.5" x2="1909.5" y1="970.1719" y2="970.1719"/><text fill="#000000" font-family="sans-serif" font-size="13" lengthAdjust="spacing" textLength="37" x="1791.5" y="949.9731">state,</text><text fill="#000000" font-family="sans-serif" font-size="13" lengthAdjust="spacing" textLength="107" x="1791.5" y="965.106">signature bundle</text><polygon fill="#181818" points="804.5,995.3047,794.5,999.3047,804.5,1003.3047,800.5,999.3047" style="stroke:#181818;stroke-width:1.0;"/><line style="stroke:#181818;stroke-width:1.0;" x1="798.5" x2="1914.5" y1="999.3047" y2="999.3047"/><text fill="#000000" font-family="sans-serif" font-size="13" lengthAdjust="spacing" textLength="33" x="810.5" y="994.2388">proof</text><line style="stroke:#181818;stroke-width:1.0;" x1="793.5" x2="835.5" y1="1028.4375" y2="1028.4375"/><line style="stroke:#181818;stroke-width:1.0;" x1="835.5" x2="835.5" y1="1028.4375" y2="1041.4375"/><line style="stroke:#181818;stroke-width:1.0;" x1="794.5" x2="835.5" y1="1041.4375" y2="1041.4375"/><polygon fill="#181818" points="804.5,1037.4375,794.5,1041.4375,804.5,1045.4375,800.5,1041.4375" style="stroke:#181818;stroke-width:1.0;"/><text fill="#000000" font-family="sans-serif" font-size="13" lengthAdjust="spacing" textLength="34" x="800.5" y="1023.3716">verify</text><path d="M480.5,1067.4375 L676.5,1067.4375 L676.5,1074.5703 L666.5,1084.5703 L480.5,1084.5703 L480.5,1067.4375 " fill="#EEEEEE" style="stroke:#000000;stroke-width:1.5;"/><rect fill="none" height="145.6641" style="stroke:#000000;stroke-width:1.5;" width="354" x="480.5" y="1067.4375"/><text fill="#000000" font-family="sans-serif" font-size="13" font-weight="bold" lengthAdjust="spacing" textLength="151" x="495.5" y="1080.5044">7. ZK Rollup proving</text><polygon fill="#181818" points="674.5,1111.7031,684.5,1115.7031,674.5,1119.7031,678.5,1115.7031" style="stroke:#181818;stroke-width:1.0;"/><line style="stroke:#181818;stroke-width:1.0;" x1="496.5" x2="680.5" y1="1115.7031" y2="1115.7031"/><text fill="#000000" font-family="sans-serif" font-size="13" lengthAdjust="spacing" textLength="109" x="503.5" y="1110.6372">rollup state proof</text><path d="M670.5,1127.7031 L756.5,1127.7031 L756.5,1134.8359 L746.5,1144.8359 L670.5,1144.8359 L670.5,1127.7031 " fill="#EEEEEE" style="stroke:#000000;stroke-width:1.5;"/><rect fill="none" height="71.3984" style="stroke:#000000;stroke-width:1.5;" width="139" x="670.5" y="1127.7031"/><text fill="#000000" font-family="sans-serif" font-size="13" font-weight="bold" lengthAdjust="spacing" textLength="41" x="685.5" y="1140.77">verify</text><polygon fill="#181818" points="697.5,1187.1016,687.5,1191.1016,697.5,1195.1016,693.5,1191.1016" style="stroke:#181818;stroke-width:1.0;"/><line style="stroke:#181818;stroke-width:1.0;" x1="691.5" x2="792.5" y1="1191.1016" y2="1191.1016"/><text fill="#000000" font-family="sans-serif" font-size="13" lengthAdjust="spacing" textLength="53" x="703.5" y="1170.9028">HotShot</text><text fill="#000000" font-family="sans-serif" font-size="13" lengthAdjust="spacing" textLength="83" x="703.5" y="1186.0356">commitment</text><path d="M213,1231.1016 L464,1231.1016 L464,1238.2344 L454,1248.2344 L213,1248.2344 L213,1231.1016 " fill="#EEEEEE" style="stroke:#000000;stroke-width:1.5;"/><rect fill="none" height="203.9297" style="stroke:#000000;stroke-width:1.5;" width="621.5" x="213" y="1231.1016"/><text fill="#000000" font-family="sans-serif" font-size="13" font-weight="bold" lengthAdjust="spacing" textLength="206" x="228" y="1244.1685">8. Optimistic Rollup dispute</text><polygon fill="#181818" points="674.5,1275.3672,684.5,1279.3672,674.5,1283.3672,678.5,1279.3672" style="stroke:#181818;stroke-width:1.0;"/><line style="stroke:#181818;stroke-width:1.0;" x1="340.5" x2="680.5" y1="1279.3672" y2="1279.3672"/><text fill="#000000" font-family="sans-serif" font-size="13" lengthAdjust="spacing" textLength="61" x="347.5" y="1274.3013">challenge</text><path d="M232,1291.3672 L309,1291.3672 L309,1298.5 L299,1308.5 L232,1308.5 L232,1291.3672 " fill="#EEEEEE" style="stroke:#000000;stroke-width:1.5;"/><rect fill="none" height="129.6641" style="stroke:#000000;stroke-width:1.5;" width="577.5" x="232" y="1291.3672"/><text fill="#000000" font-family="sans-serif" font-size="13" font-weight="bold" lengthAdjust="spacing" textLength="32" x="247" y="1304.4341">loop</text><text fill="#000000" font-family="sans-serif" font-size="11" font-weight="bold" lengthAdjust="spacing" textLength="150" x="324" y="1303.5776">[until dispute resolved]</text><polygon fill="#181818" points="674.5,1335.6328,684.5,1339.6328,674.5,1343.6328,678.5,1339.6328" style="stroke:#181818;stroke-width:1.0;"/><line style="stroke:#181818;stroke-width:1.0;" x1="248" x2="680.5" y1="1339.6328" y2="1339.6328"/><text fill="#000000" font-family="sans-serif" font-size="13" lengthAdjust="spacing" textLength="52" x="255" y="1334.5669">respond</text><polygon fill="#181818" points="697.5,1379.8984,687.5,1383.8984,697.5,1387.8984,693.5,1383.8984" style="stroke:#181818;stroke-width:1.0;"/><line style="stroke:#181818;stroke-width:1.0;stroke-dasharray:2.0,2.0;" x1="691.5" x2="792.5" y1="1383.8984" y2="1383.8984"/><text fill="#000000" font-family="sans-serif" font-size="13" lengthAdjust="spacing" textLength="53" x="703.5" y="1363.6997">HotShot</text><text fill="#000000" font-family="sans-serif" font-size="13" lengthAdjust="spacing" textLength="83" x="703.5" y="1378.8325">commitment</text><polygon fill="#181818" points="674.5,1409.0313,684.5,1413.0313,674.5,1417.0313,678.5,1413.0313" style="stroke:#181818;stroke-width:1.0;"/><line style="stroke:#181818;stroke-width:1.0;" x1="340.5" x2="680.5" y1="1413.0313" y2="1413.0313"/><text fill="#000000" font-family="sans-serif" font-size="13" lengthAdjust="spacing" textLength="52" x="347.5" y="1407.9653">respond</text><!--SRC=[ZLPjRnCv4FwUNp6a4W89WYW7TreX91hAYowq9Rr3kYfVdDrfOjLhkxOt9Vnwnc-xsMvIBX_QjVtC-9cPPsRtaJPiLJDmg7w2CmsEMEcKWNyjcj5egNx0Z6tHmB655p1NGZJQmj6ChzRkFnH2tOs0VXutFjUErzmwNYOWd8yJz9D1b07fVveP0d7Df8Fn-uil2_baVZ5zEWPcGHcZoxt82wEqygps7KxNJ0YKgtICilASEcvNVsTELvdJYQ1W_m-bdpU7A8s9qmPDG1aTdlVZJdzWsL1Q0nBJeiSq_myf7v-wDHfiQfYzt4dXTZHm78DQoAcIpb3bmWNpwH0OV11ES9Jk7dws1_yHyHxg6h7FyjHgWzOgkCJR1cL9AZb3TwVC3Hnz9HrivrIkjWGx85KX79rmUxjJ00-Xl6TjJRUiqyk0t6Mph3b5GGQ1cWthm_Xl3Pfj1x_ronQzgvM1vMVbBjUAhZhTKDxiGbuwWwoETGnR- -s-Cy4hvh3o5lG_6BIROMk_OJWY8xwIILWsFFR4CYZNISD5bK3x-S-GLScX28y3xFJ3sM1lnfVwM3_Wrg0Ml6Gsja1QF82tCJo3Wb51g9itlCHaJ5k_junTrZTDdTTcPsKKDVhB2P28eKAQ6aaSAKtm_9rNS-7_jEVUEXXc- -C9_6EOjAH_hcJKcBMMdeClFo2zep2m2Z1fuj4CRMq2BfnxO1HfCG1aHs7Cj8wk1hXm_f2Zg4UFI77s87OOuQi9H5c0MZh6fUrQUYbKUNC_Pr4u1R0Duu8j1KPOh7SyxDrU2iRhv6fm-HyJIBM5ajYXj4tFqLlob0LLT12eYHzROSG-taL7iHRf8AxwRj9HNdkofFguxRL0wtwFqiK6A-vwIl7eFcoV8TDQR64Tw2rakMPcXUqCxMNYzII_cqAgl9ohfYjhc5R-XlpUABeoHVVF5dAtqC0bI4PvqgoCKoPRzhrGp_1hwi8M6xfBNGzCqgkjrUQ1YhxfAkeDk5m5Jt5-1J- -nGi8dVmix3FNc4Wnd7bGlYkYgD4p39QDh4H4Hv27_-R5La0Nqcpg3VnUZ7mOmPyJw3uKTcCmtONpQPk7G77dWkWaES_JFTvww4LTG3lWIbLJMzSKHJlh8xa1pRycCFpMghZLJNghT5z3cN6PTsABAQMXaOwBR4Rvjqfii0hd-LEhZPVqeMJLPZ5j7w8-l3uxQ4Fv1G00]--></g></svg>