<svg xmlns="http://www.w3.org/2000/svg" xmlns:xlink="http://www.w3.org/1999/xlink" contentStyleType="text/css" height="1566px" preserveAspectRatio="none" style="width:973px;height:1566px;background:#FFFFFF;" version="1.1" viewBox="0 0 973 1566" width="973px" zoomAndPan="magnify"><defs/><g><rect fill="none" height="309.5938" style="stroke:#000000;stroke-width:1.5;" width="830.5" x="9" y="668.5078"/><rect fill="none" height="476.6563" style="stroke:#000000;stroke-width:1.5;" width="940.5" x="26" y="992.1016"/><line style="stroke:#181818;stroke-width:0.5;stroke-dasharray:5.0,5.0;" x1="278" x2="278" y1="377.0469" y2="1485.7578"/><line style="stroke:#181818;stroke-width:0.5;stroke-dasharray:5.0,5.0;" x1="426" x2="426" y1="377.0469" y2="1485.7578"/><line style="stroke:#181818;stroke-width:0.5;stroke-dasharray:5.0,5.0;" x1="588" x2="588" y1="377.0469" y2="1485.7578"/><line style="stroke:#181818;stroke-width:0.5;stroke-dasharray:5.0,5.0;" x1="690.5" x2="690.5" y1="377.0469" y2="1485.7578"/><line style="stroke:#181818;stroke-width:0.5;stroke-dasharray:5.0,5.0;" x1="834" x2="834" y1="377.0469" y2="1485.7578"/><text fill="#000000" font-family="sans-serif" font-size="14" lengthAdjust="spacing" textLength="39" x="256" y="373.7451">Client</text><ellipse cx="278.5" cy="309.25" fill="#E2E2F0" rx="8" ry="8" style="stroke:#181818;stroke-width:0.5;"/><path d="M278.5,317.25 L278.5,344.25 M265.5,325.25 L291.5,325.25 M278.5,344.25 L265.5,359.25 M278.5,344.25 L291.5,359.25 " fill="none" style="stroke:#181818;stroke-width:0.5;"/><text fill="#000000" font-family="sans-serif" font-size="14" lengthAdjust="spacing" textLength="39" x="256" y="1497.7529">Client</text><ellipse cx="278.5" cy="1509.5547" fill="#E2E2F0" rx="8" ry="8" style="stroke:#181818;stroke-width:0.5;"/><path d="M278.5,1517.5547 L278.5,1544.5547 M265.5,1525.5547 L291.5,1525.5547 M278.5,1544.5547 L265.5,1559.5547 M278.5,1544.5547 L291.5,1559.5547 " fill="none" style="stroke:#181818;stroke-width:0.5;"/><rect fill="#E2E2F0" height="46.5938" rx="2.5" ry="2.5" style="stroke:#181818;stroke-width:0.5;" width="141" x="356" y="329.4531"/><text fill="#000000" font-family="sans-serif" font-size="14" lengthAdjust="spacing" textLength="65" x="394" y="349.4482">Espresso</text><text fill="#000000" font-family="sans-serif" font-size="14" lengthAdjust="spacing" textLength="127" x="363" y="365.7451">Confirmation Layer</text><rect fill="#E2E2F0" height="46.5938" rx="2.5" ry="2.5" style="stroke:#181818;stroke-width:0.5;" width="141" x="356" y="1484.7578"/><text fill="#000000" font-family="sans-serif" font-size="14" lengthAdjust="spacing" textLength="65" x="394" y="1504.7529">Espresso</text><text fill="#000000" font-family="sans-serif" font-size="14" lengthAdjust="spacing" textLength="127" x="363" y="1521.0498">Confirmation Layer</text><rect fill="#E2E2F0" height="30.2969" rx="2.5" ry="2.5" style="stroke:#181818;stroke-width:0.5;" width="57" x="560" y="345.75"/><text fill="#000000" font-family="sans-serif" font-size="14" lengthAdjust="spacing" textLength="43" x="567" y="365.7451">Rollup</text><rect fill="#E2E2F0" height="30.2969" rx="2.5" ry="2.5" style="stroke:#181818;stroke-width:0.5;" width="57" x="560" y="1484.7578"/><text fill="#000000" font-family="sans-serif" font-size="14" lengthAdjust="spacing" textLength="43" x="567" y="1504.7529">Rollup</text><rect fill="#E2E2F0" height="46.5938" rx="2.5" ry="2.5" style="stroke:#181818;stroke-width:0.5;" width="90" x="645.5" y="329.4531"/><text fill="#000000" font-family="sans-serif" font-size="14" lengthAdjust="spacing" textLength="76" x="652.5" y="349.4482">Light Client</text><text fill="#000000" font-family="sans-serif" font-size="14" lengthAdjust="spacing" textLength="59" x="661" y="365.7451">Contract</text><rect fill="#E2E2F0" height="46.5938" rx="2.5" ry="2.5" style="stroke:#181818;stroke-width:0.5;" width="90" x="645.5" y="1484.7578"/><text fill="#000000" font-family="sans-serif" font-size="14" lengthAdjust="spacing" textLength="76" x="652.5" y="1504.7529">Light Client</text><text fill="#000000" font-family="sans-serif" font-size="14" lengthAdjust="spacing" textLength="59" x="661" y="1521.0498">Contract</text><rect fill="#E2E2F0" height="46.5938" rx="2.5" ry="2.5" style="stroke:#181818;stroke-width:0.5;" width="73" x="798" y="329.4531"/><text fill="#000000" font-family="sans-serif" font-size="14" lengthAdjust="spacing" textLength="43" x="813" y="349.4482">Rollup</text><text fill="#000000" font-family="sans-serif" font-size="14" lengthAdjust="spacing" textLength="59" x="805" y="365.7451">Contract</text><rect fill="#E2E2F0" height="46.5938" rx="2.5" ry="2.5" style="stroke:#181818;stroke-width:0.5;" width="73" x="798" y="1484.7578"/><text fill="#000000" font-family="sans-serif" font-size="14" lengthAdjust="spacing" textLength="43" x="813" y="1504.7529">Rollup</text><text fill="#000000" font-family="sans-serif" font-size="14" lengthAdjust="spacing" textLength="59" x="805" y="1521.0498">Contract</text><polygon fill="#181818" points="576.5,407.1797,586.5,411.1797,576.5,415.1797,580.5,411.1797" style="stroke:#181818;stroke-width:1.0;"/><line style="stroke:#181818;stroke-width:1.0;" x1="278.5" x2="582.5" y1="411.1797" y2="411.1797"/><text fill="#000000" font-family="sans-serif" font-size="13" lengthAdjust="spacing" textLength="91" x="285.5" y="406.1138">L2 transaction</text><path d="M593,392.0469 L593,417.0469 L626,417.0469 L626,402.0469 L616,392.0469 L593,392.0469 " fill="#FEFFDD" style="stroke:#181818;stroke-width:0.5;"/><path d="M616,392.0469 L616,402.0469 L626,402.0469 L616,392.0469 " fill="#FEFFDD" style="stroke:#181818;stroke-width:0.5;"/><text fill="#000000" font-family="sans-serif" font-size="13" lengthAdjust="spacing" textLength="12" x="599" y="409.1138">1.</text><line style="stroke:#181818;stroke-width:1.0;" x1="588.5" x2="630.5" y1="443.3125" y2="443.3125"/><line style="stroke:#181818;stroke-width:1.0;" x1="630.5" x2="630.5" y1="443.3125" y2="456.3125"/><line style="stroke:#181818;stroke-width:1.0;" x1="589.5" x2="630.5" y1="456.3125" y2="456.3125"/><polygon fill="#181818" points="599.5,452.3125,589.5,456.3125,599.5,460.3125,595.5,456.3125" style="stroke:#181818;stroke-width:1.0;"/><text fill="#000000" font-family="sans-serif" font-size="13" lengthAdjust="spacing" textLength="53" x="595.5" y="438.2466">L2 Block</text><path d="M660,430.6797 L660,455.6797 L693,455.6797 L693,440.6797 L683,430.6797 L660,430.6797 " fill="#FEFFDD" style="stroke:#181818;stroke-width:0.5;"/><path d="M683,430.6797 L683,440.6797 L693,440.6797 L683,430.6797 " fill="#FEFFDD" style="stroke:#181818;stroke-width:0.5;"/><text fill="#000000" font-family="sans-serif" font-size="13" lengthAdjust="spacing" textLength="12" x="666" y="447.7466">2.</text><polygon fill="#181818" points="289.5,507.1445,279.5,511.1445,289.5,515.1445,285.5,511.1445" style="stroke:#181818;stroke-width:1.0;"/><line style="stroke:#181818;stroke-width:1.0;stroke-dasharray:2.0,2.0;" x1="283.5" x2="587.5" y1="511.1445" y2="511.1445"/><text fill="#000000" font-family="sans-serif" font-size="13" lengthAdjust="spacing" textLength="27" x="295.5" y="506.0786">New</text><text fill="#000000" font-family="sans-serif" font-size="13" font-style="italic" lengthAdjust="spacing" textLength="46" x="326.5" y="506.0786">trusted</text><text fill="#000000" font-family="sans-serif" font-size="13" lengthAdjust="spacing" textLength="33" x="376.5" y="506.0786">state</text><path d="M35,469.3125 L35,539.3125 L273,539.3125 L273,479.3125 L263,469.3125 L35,469.3125 " fill="#FEFFDD" style="stroke:#181818;stroke-width:0.5;"/><path d="M263,469.3125 L263,479.3125 L273,479.3125 L263,469.3125 " fill="#FEFFDD" style="stroke:#181818;stroke-width:0.5;"/><text fill="#000000" font-family="sans-serif" font-size="13" lengthAdjust="spacing" textLength="202" x="41" y="486.3794">Clients that trust a rollup server</text><text fill="#000000" font-family="sans-serif" font-size="13" lengthAdjust="spacing" textLength="217" x="41" y="501.5122">can get the updated state without</text><text fill="#000000" font-family="sans-serif" font-size="13" lengthAdjust="spacing" textLength="213" x="41" y="516.645">waiting for the state update proof</text><text fill="#000000" font-family="sans-serif" font-size="13" lengthAdjust="spacing" textLength="197" x="41" y="531.7778">or confirmation from Espresso.</text><polygon fill="#181818" points="437.5,577.1094,427.5,581.1094,437.5,585.1094,433.5,581.1094" style="stroke:#181818;stroke-width:1.0;"/><line style="stroke:#181818;stroke-width:1.0;" x1="431.5" x2="587.5" y1="581.1094" y2="581.1094"/><text fill="#000000" font-family="sans-serif" font-size="13" lengthAdjust="spacing" textLength="138" x="443.5" y="560.9106">Espresso transaction:</text><text fill="#000000" font-family="sans-serif" font-size="13" lengthAdjust="spacing" textLength="116" x="443.5" y="576.0435">L2 Block, Rollup ID</text><path d="M593,554.4102 L593,579.4102 L626,579.4102 L626,564.4102 L616,554.4102 L593,554.4102 " fill="#FEFFDD" style="stroke:#181818;stroke-width:0.5;"/><path d="M616,554.4102 L616,564.4102 L626,564.4102 L616,554.4102 " fill="#FEFFDD" style="stroke:#181818;stroke-width:0.5;"/><text fill="#000000" font-family="sans-serif" font-size="13" lengthAdjust="spacing" textLength="12" x="599" y="571.4771">3.</text><line style="stroke:#181818;stroke-width:1.0;" x1="426.5" x2="468.5" y1="640.5078" y2="640.5078"/><line style="stroke:#181818;stroke-width:1.0;" x1="468.5" x2="468.5" y1="640.5078" y2="653.5078"/><line style="stroke:#181818;stroke-width:1.0;" x1="427.5" x2="468.5" y1="653.5078" y2="653.5078"/><polygon fill="#181818" points="437.5,649.5078,427.5,653.5078,437.5,657.5078,433.5,653.5078" style="stroke:#181818;stroke-width:1.0;"/><text fill="#000000" font-family="sans-serif" font-size="13" lengthAdjust="spacing" textLength="115" x="433.5" y="605.1763">Consensus orders</text><text fill="#000000" font-family="sans-serif" font-size="13" lengthAdjust="spacing" textLength="141" x="433.5" y="620.3091">Espresso transactions</text><text fill="#000000" font-family="sans-serif" font-size="13" lengthAdjust="spacing" textLength="130" x="433.5" y="635.4419">into Espresso blocks</text><path d="M9,668.5078 L79,668.5078 L79,675.6406 L69,685.6406 L9,685.6406 L9,668.5078 " fill="#EEEEEE" style="stroke:#000000;stroke-width:1.5;"/><rect fill="none" height="309.5938" style="stroke:#000000;stroke-width:1.5;" width="830.5" x="9" y="668.5078"/><text fill="#000000" font-family="sans-serif" font-size="13" font-weight="bold" lengthAdjust="spacing" textLength="25" x="24" y="681.5747">par</text><text fill="#000000" font-family="sans-serif" font-size="11" font-weight="bold" lengthAdjust="spacing" textLength="217" x="94" y="680.7183">[Interested parties process block]</text><polygon fill="#181818" points="289.5,702.7734,279.5,706.7734,289.5,710.7734,285.5,706.7734" style="stroke:#181818;stroke-width:1.0;"/><line style="stroke:#181818;stroke-width:1.0;stroke-dasharray:2.0,2.0;" x1="283.5" x2="425.5" y1="706.7734" y2="706.7734"/><text fill="#000000" font-family="sans-serif" font-size="13" lengthAdjust="spacing" textLength="34" x="295.5" y="701.7075">Block</text><line style="stroke:#181818;stroke-width:1.0;" x1="278.5" x2="320.5" y1="755.1055" y2="755.1055"/><line style="stroke:#181818;stroke-width:1.0;" x1="320.5" x2="320.5" y1="755.1055" y2="768.1055"/><line style="stroke:#181818;stroke-width:1.0;" x1="279.5" x2="320.5" y1="768.1055" y2="768.1055"/><polygon fill="#181818" points="289.5,764.1055,279.5,768.1055,289.5,772.1055,285.5,768.1055" style="stroke:#181818;stroke-width:1.0;"/><text fill="#000000" font-family="sans-serif" font-size="13" lengthAdjust="spacing" textLength="88" x="285.5" y="750.0396">Execute block</text><path d="M19,719.7734 L19,789.7734 L273,789.7734 L273,729.7734 L263,719.7734 L19,719.7734 " fill="#FEFFDD" style="stroke:#181818;stroke-width:0.5;"/><path d="M263,719.7734 L263,729.7734 L273,729.7734 L263,719.7734 " fill="#FEFFDD" style="stroke:#181818;stroke-width:0.5;"/><text fill="#000000" font-family="sans-serif" font-size="13" lengthAdjust="spacing" textLength="201" x="25" y="736.8403">Optionally, clients can check for</text><text fill="#000000" font-family="sans-serif" font-size="13" lengthAdjust="spacing" textLength="229" x="25" y="751.9731">confirmations themselves to quickly</text><text fill="#000000" font-family="sans-serif" font-size="13" lengthAdjust="spacing" textLength="233" x="25" y="767.106">know about new L2 blocks confirmed</text><text fill="#000000" font-family="sans-serif" font-size="13" lengthAdjust="spacing" textLength="81" x="25" y="782.2388">by Espresso.</text><line style="stroke:#000000;stroke-width:1.0;stroke-dasharray:2.0,2.0;" x1="9" x2="839.5" y1="796.3047" y2="796.3047"/><polygon fill="#181818" points="576.5,817.4375,586.5,821.4375,576.5,825.4375,580.5,821.4375" style="stroke:#181818;stroke-width:1.0;"/><line style="stroke:#181818;stroke-width:1.0;" x1="426.5" x2="582.5" y1="821.4375" y2="821.4375"/><text fill="#000000" font-family="sans-serif" font-size="13" lengthAdjust="spacing" textLength="34" x="433.5" y="816.3716">Block</text><path d="M593,802.3047 L593,827.3047 L626,827.3047 L626,812.3047 L616,802.3047 L593,802.3047 " fill="#FEFFDD" style="stroke:#181818;stroke-width:0.5;"/><path d="M616,802.3047 L616,812.3047 L626,812.3047 L616,802.3047 " fill="#FEFFDD" style="stroke:#181818;stroke-width:0.5;"/><text fill="#000000" font-family="sans-serif" font-size="13" lengthAdjust="spacing" textLength="12" x="599" y="819.3716">4.</text><line style="stroke:#181818;stroke-width:1.0;" x1="588.5" x2="630.5" y1="853.5703" y2="853.5703"/><line style="stroke:#181818;stroke-width:1.0;" x1="630.5" x2="630.5" y1="853.5703" y2="866.5703"/><line style="stroke:#181818;stroke-width:1.0;" x1="589.5" x2="630.5" y1="866.5703" y2="866.5703"/><polygon fill="#181818" points="599.5,862.5703,589.5,866.5703,599.5,870.5703,595.5,866.5703" style="stroke:#181818;stroke-width:1.0;"/><text fill="#000000" font-family="sans-serif" font-size="13" lengthAdjust="spacing" textLength="88" x="595.5" y="848.5044">Execute block</text><line style="stroke:#000000;stroke-width:1.0;stroke-dasharray:2.0,2.0;" x1="9" x2="839.5" y1="875.5703" y2="875.5703"/><polygon fill="#181818" points="678.5,908.8359,688.5,912.8359,678.5,916.8359,682.5,912.8359" style="stroke:#181818;stroke-width:1.0;"/><line style="stroke:#181818;stroke-width:1.0;" x1="426.5" x2="684.5" y1="912.8359" y2="912.8359"/><text fill="#000000" font-family="sans-serif" font-size="13" lengthAdjust="spacing" textLength="123" x="433.5" y="892.6372">Block Commitment</text><text fill="#000000" font-family="sans-serif" font-size="13" lengthAdjust="spacing" textLength="19" x="433.5" y="907.77">QC</text><path d="M695,886.1367 L695,911.1367 L728,911.1367 L728,896.1367 L718,886.1367 L695,886.1367 " fill="#FEFFDD" style="stroke:#181818;stroke-width:0.5;"/><path d="M718,886.1367 L718,896.1367 L728,896.1367 L718,886.1367 " fill="#FEFFDD" style="stroke:#181818;stroke-width:0.5;"/><text fill="#000000" font-family="sans-serif" font-size="13" lengthAdjust="spacing" textLength="12" x="701" y="903.2036">5.</text><line style="stroke:#181818;stroke-width:1.0;" x1="690.5" x2="732.5" y1="957.1016" y2="957.1016"/><line style="stroke:#181818;stroke-width:1.0;" x1="732.5" x2="732.5" y1="957.1016" y2="970.1016"/><line style="stroke:#181818;stroke-width:1.0;" x1="691.5" x2="732.5" y1="970.1016" y2="970.1016"/><polygon fill="#181818" points="701.5,966.1016,691.5,970.1016,701.5,974.1016,697.5,970.1016" style="stroke:#181818;stroke-width:1.0;"/><text fill="#000000" font-family="sans-serif" font-size="13" lengthAdjust="spacing" textLength="75" x="697.5" y="936.9028">Validate QC</text><text fill="#000000" font-family="sans-serif" font-size="13" lengthAdjust="spacing" textLength="130" x="697.5" y="952.0356">Store commitmenet</text><path d="M26,992.1016 L96,992.1016 L96,999.2344 L86,1009.2344 L26,1009.2344 L26,992.1016 " fill="#EEEEEE" style="stroke:#000000;stroke-width:1.5;"/><rect fill="none" height="476.6563" style="stroke:#000000;stroke-width:1.5;" width="940.5" x="26" y="992.1016"/><text fill="#000000" font-family="sans-serif" font-size="13" font-weight="bold" lengthAdjust="spacing" textLength="25" x="41" y="1005.1685">par</text><text fill="#000000" font-family="sans-serif" font-size="11" font-weight="bold" lengthAdjust="spacing" textLength="247" x="111" y="1004.312">[Interested parties process new state]</text><polygon fill="#181818" points="289.5,1041.5,279.5,1045.5,289.5,1049.5,285.5,1045.5" style="stroke:#181818;stroke-width:1.0;"/><line style="stroke:#181818;stroke-width:1.0;stroke-dasharray:2.0,2.0;" x1="283.5" x2="425.5" y1="1045.5" y2="1045.5"/><text fill="#000000" font-family="sans-serif" font-size="13" lengthAdjust="spacing" textLength="123" x="295.5" y="1025.3013">Block Commitment</text><text fill="#000000" font-family="sans-serif" font-size="13" lengthAdjust="spacing" textLength="19" x="295.5" y="1040.4341">QC</text><line style="stroke:#181818;stroke-width:1.0;" x1="278.5" x2="320.5" y1="1074.6328" y2="1074.6328"/><line style="stroke:#181818;stroke-width:1.0;" x1="320.5" x2="320.5" y1="1074.6328" y2="1087.6328"/><line style="stroke:#181818;stroke-width:1.0;" x1="279.5" x2="320.5" y1="1087.6328" y2="1087.6328"/><polygon fill="#181818" points="289.5,1083.6328,279.5,1087.6328,289.5,1091.6328,285.5,1087.6328" style="stroke:#181818;stroke-width:1.0;"/><text fill="#000000" font-family="sans-serif" font-size="13" lengthAdjust="spacing" textLength="75" x="285.5" y="1069.5669">Validate QC</text><polygon fill="#181818" points="289.5,1127.8984,279.5,1131.8984,289.5,1135.8984,285.5,1131.8984" style="stroke:#181818;stroke-width:1.0;"/><line style="stroke:#181818;stroke-width:1.0;stroke-dasharray:2.0,2.0;" x1="283.5" x2="587.5" y1="1131.8984" y2="1131.8984"/><text fill="#000000" font-family="sans-serif" font-size="13" lengthAdjust="spacing" textLength="66" x="295.5" y="1111.6997">New State</text><text fill="#000000" font-family="sans-serif" font-size="13" lengthAdjust="spacing" textLength="33" x="295.5" y="1126.8325">Proof</text><line style="stroke:#181818;stroke-width:1.0;" x1="278.5" x2="320.5" y1="1195.3633" y2="1195.3633"/><line style="stroke:#181818;stroke-width:1.0;" x1="320.5" x2="320.5" y1="1195.3633" y2="1208.3633"/><line style="stroke:#181818;stroke-width:1.0;" x1="279.5" x2="320.5" y1="1208.3633" y2="1208.3633"/><polygon fill="#181818" points="289.5,1204.3633,279.5,1208.3633,289.5,1212.3633,285.5,1208.3633" style="stroke:#181818;stroke-width:1.0;"/><text fill="#000000" font-family="sans-serif" font-size="13" lengthAdjust="spacing" textLength="89" x="285.5" y="1175.1646">Validate proof</text><text fill="#000000" font-family="sans-serif" font-size="13" lengthAdjust="spacing" textLength="134" x="285.5" y="1190.2974">against commitment</text><path d="M62,1144.8984 L62,1229.8984 L273,1229.8984 L273,1154.8984 L263,1144.8984 L62,1144.8984 " fill="#FEFFDD" style="stroke:#181818;stroke-width:0.5;"/><path d="M263,1144.8984 L263,1154.8984 L273,1154.8984 L263,1144.8984 " fill="#FEFFDD" style="stroke:#181818;stroke-width:0.5;"/><text fill="#000000" font-family="sans-serif" font-size="13" lengthAdjust="spacing" textLength="180" x="68" y="1161.9653">Optionally, clients can check</text><text fill="#000000" font-family="sans-serif" font-size="13" lengthAdjust="spacing" textLength="182" x="68" y="1177.0981">proofs themselves to quickly</text><text fill="#000000" font-family="sans-serif" font-size="13" lengthAdjust="spacing" textLength="190" x="68" y="1192.231">get the updated state without</text><text fill="#000000" font-family="sans-serif" font-size="13" lengthAdjust="spacing" textLength="136" x="68" y="1207.3638">trusting a full node or</text><text fill="#000000" font-family="sans-serif" font-size="13" lengthAdjust="spacing" textLength="155" x="68" y="1222.4966">executing a whole block.</text><line style="stroke:#000000;stroke-width:1.0;stroke-dasharray:2.0,2.0;" x1="26" x2="966.5" y1="1236.5625" y2="1236.5625"/><polygon fill="#181818" points="822.5,1269.8281,832.5,1273.8281,822.5,1277.8281,826.5,1273.8281" style="stroke:#181818;stroke-width:1.0;"/><line style="stroke:#181818;stroke-width:1.0;" x1="588.5" x2="828.5" y1="1273.8281" y2="1273.8281"/><text fill="#000000" font-family="sans-serif" font-size="13" lengthAdjust="spacing" textLength="64" x="595.5" y="1253.6294">New state</text><text fill="#000000" font-family="sans-serif" font-size="13" lengthAdjust="spacing" textLength="33" x="595.5" y="1268.7622">Proof</text><path d="M839,1247.1289 L839,1272.1289 L872,1272.1289 L872,1257.1289 L862,1247.1289 L839,1247.1289 " fill="#FEFFDD" style="stroke:#181818;stroke-width:0.5;"/><path d="M862,1247.1289 L862,1257.1289 L872,1257.1289 L862,1247.1289 " fill="#FEFFDD" style="stroke:#181818;stroke-width:0.5;"/><text fill="#000000" font-family="sans-serif" font-size="13" lengthAdjust="spacing" textLength="12" x="845" y="1264.1958">6.</text><polygon fill="#181818" points="701.5,1298.9609,691.5,1302.9609,701.5,1306.9609,697.5,1302.9609" style="stroke:#181818;stroke-width:1.0;"/><line style="stroke:#181818;stroke-width:1.0;" x1="695.5" x2="833.5" y1="1302.9609" y2="1302.9609"/><text fill="#000000" font-family="sans-serif" font-size="13" lengthAdjust="spacing" textLength="98" x="707.5" y="1297.895">Read sequence</text><polygon fill="#181818" points="822.5,1331.0938,832.5,1335.0938,822.5,1339.0938,826.5,1335.0938" style="stroke:#181818;stroke-width:1.0;"/><line style="stroke:#181818;stroke-width:1.0;stroke-dasharray:2.0,2.0;" x1="690.5" x2="828.5" y1="1335.0938" y2="1335.0938"/><text fill="#000000" font-family="sans-serif" font-size="13" lengthAdjust="spacing" textLength="92" x="697.5" y="1330.0278">Commitments</text><path d="M839,1315.9609 L839,1340.9609 L872,1340.9609 L872,1325.9609 L862,1315.9609 L839,1315.9609 " fill="#FEFFDD" style="stroke:#181818;stroke-width:0.5;"/><path d="M862,1315.9609 L862,1325.9609 L872,1325.9609 L862,1315.9609 " fill="#FEFFDD" style="stroke:#181818;stroke-width:0.5;"/><text fill="#000000" font-family="sans-serif" font-size="13" lengthAdjust="spacing" textLength="12" x="845" y="1333.0278">7.</text><line style="stroke:#181818;stroke-width:1.0;" x1="834.5" x2="876.5" y1="1382.3594" y2="1382.3594"/><line style="stroke:#181818;stroke-width:1.0;" x1="876.5" x2="876.5" y1="1382.3594" y2="1395.3594"/><line style="stroke:#181818;stroke-width:1.0;" x1="835.5" x2="876.5" y1="1395.3594" y2="1395.3594"/><polygon fill="#181818" points="845.5,1391.3594,835.5,1395.3594,845.5,1399.3594,841.5,1395.3594" style="stroke:#181818;stroke-width:1.0;"/><text fill="#000000" font-family="sans-serif" font-size="13" lengthAdjust="spacing" textLength="89" x="841.5" y="1362.1606">Validate proof</text><text fill="#000000" font-family="sans-serif" font-size="13" lengthAdjust="spacing" textLength="113" x="841.5" y="1377.2935">against sequence</text><polygon fill="#181818" points="289.5,1438.625,279.5,1442.625,289.5,1446.625,285.5,1442.625" style="stroke:#181818;stroke-width:1.0;"/><line style="stroke:#181818;stroke-width:1.0;stroke-dasharray:2.0,2.0;" x1="283.5" x2="833.5" y1="1442.625" y2="1442.625"/><text fill="#000000" font-family="sans-serif" font-size="13" lengthAdjust="spacing" textLength="27" x="295.5" y="1437.5591">New</text><text fill="#000000" font-family="sans-serif" font-size="13" font-style="italic" lengthAdjust="spacing" textLength="51" x="326.5" y="1437.5591">certified</text><text fill="#000000" font-family="sans-serif" font-size="13" lengthAdjust="spacing" textLength="33" x="381.5" y="1437.5591">state</text><path d="M36,1408.3594 L36,1463.3594 L273,1463.3594 L273,1418.3594 L263,1408.3594 L36,1408.3594 " fill="#FEFFDD" style="stroke:#181818;stroke-width:0.5;"/><path d="M263,1408.3594 L263,1418.3594 L273,1418.3594 L263,1408.3594 " fill="#FEFFDD" style="stroke:#181818;stroke-width:0.5;"/><text fill="#000000" font-family="sans-serif" font-size="13" lengthAdjust="spacing" textLength="216" x="42" y="1425.4263">With some latency, clients receive</text><text fill="#000000" font-family="sans-serif" font-size="13" lengthAdjust="spacing" textLength="181" x="42" y="1440.5591">the latest state with no trust</text><text fill="#000000" font-family="sans-serif" font-size="13" font-style="italic" lengthAdjust="spacing" textLength="13" x="227" y="1440.5591">or</text><text fill="#000000" font-family="sans-serif" font-size="13" lengthAdjust="spacing" textLength="167" x="42" y="1455.6919">computation, from the L1.</text><rect fill="#DDDDDD" height="270.75" id="_legend" rx="7.5" ry="7.5" style="stroke:#000000;stroke-width:1.0;" width="654" x="160.75" y="17"/><text fill="#000000" font-family="sans-serif" font-size="14" lengthAdjust="spacing" textLength="498" x="165.75" y="34.9951">1. User sends an L2 transaction to a chain's server (e.g. an RPC service).</text><text fill="#000000" font-family="sans-serif" font-size="14" lengthAdjust="spacing" textLength="442" x="165.75" y="51.292">2. The rollup builds a block that includes the rollup's transaction.</text><text fill="#000000" font-family="sans-serif" font-size="14" lengthAdjust="spacing" textLength="644" x="165.75" y="67.5889">3. The rollup builds an Espress transaction containing the serialized L2 block, and an identifier</text><text fill="#000000" font-family="sans-serif" font-size="14" lengthAdjust="spacing" textLength="427" x="181.75" y="83.8857">for that rollup, and sends it to the Espresso confirmation layer.</text><text fill="#000000" font-family="sans-serif" font-size="14" lengthAdjust="spacing" textLength="615" x="165.75" y="100.1826">4. Clients, rollup validators and bridges are notified the L2 block is confirmed by Espresso.</text><text fill="#000000" font-family="sans-serif" font-size="14" lengthAdjust="spacing" textLength="577" x="181.75" y="116.4795">Interested parties can now derive the new state of the rollup if desired. The zk proof</text><text fill="#000000" font-family="sans-serif" font-size="14" lengthAdjust="spacing" textLength="599" x="181.75" y="132.7764">or fraud proofs guarantee that the rollups canonical chain will be derived from the rollup</text><text fill="#000000" font-family="sans-serif" font-size="14" lengthAdjust="spacing" textLength="203" x="181.75" y="149.0732">block confirmed by Espresso.</text><text fill="#000000" font-family="sans-serif" font-size="14" lengthAdjust="spacing" textLength="614" x="165.75" y="165.3701">5. A commitment to the block containing the transaction is persisted in the L1 Light Client</text><text fill="#000000" font-family="sans-serif" font-size="14" lengthAdjust="spacing" textLength="595" x="181.75" y="181.667">contract (along with a proof that the block has been finalized by Espresso consensus).</text><text fill="#000000" font-family="sans-serif" font-size="14" lengthAdjust="spacing" textLength="575" x="165.75" y="197.9639">6. A rollup node which has executed the block sends the new rollup state to the L1.</text><text fill="#000000" font-family="sans-serif" font-size="14" lengthAdjust="spacing" textLength="535" x="181.75" y="214.2607">It may include a validity proof (for ZK rollups) or open a window for fraud proofs</text><text fill="#000000" font-family="sans-serif" font-size="14" lengthAdjust="spacing" textLength="130" x="181.75" y="230.5576">(optimistic rollups).</text><text fill="#000000" font-family="sans-serif" font-size="14" lengthAdjust="spacing" textLength="557" x="165.75" y="246.8545">7. The L1 rollup contract verifies any proofs related to the state update, using the</text><text fill="#000000" font-family="sans-serif" font-size="14" lengthAdjust="spacing" textLength="550" x="181.75" y="263.1514">certified block commitment from the sequencer contract to check that the state</text><text fill="#000000" font-family="sans-serif" font-size="14" lengthAdjust="spacing" textLength="284" x="181.75" y="279.4482">update corresponds to the correct block.</text><!--SRC=[ZLRRRXit47tdLmpoKWUGLTYv0OPXe5Nx45He4wTjW410GN5d9S8hSaDohIXVtnbULbnRTki7mrxEdBcSCqDA5Qo3HQVH1D5B5xJIlJG1NlpgUuVUsvLPMDDgjvD1MmDBUK3t0gG7CfXutDgk6te-MLvEePPwimqvI8GBJgeGGPQBgMa2UMXq-S_oGeW40EStz06k-1UP64zMb9WmDY0uZYGkvW9D0_n523AB7j7XvywgkzhqiZRD0QxFprE4tt4Fr_eckC47RAv_r3VWWoJB2D1X6xABXx2L0Q8XI72f4nxTFJgXf84DqkaMOUWRycyI3EnrsDeXYBtKGPiDj4G5MwNJP0kzixOLTA9g6bfdTr0eUbmkdL3-vRpkqzNAb3xC2cNlVwbRygg6Ow0HZqZnQFpWmRe6dL-PKn7eipR17gElEPWNJ3IyDm7fA_SWyewU2rHabymc9AIeYRCZ-ValAkyRge7INXz9ZPpyqNCQikiECr2P7oP1RL7TSPD5tKhc3dSUktlAXTB-EcXrrnt4dR5xa6lY1mpfW9gMwYWyO2FMXvCKOEUFdOj2UYIxrvLz4UYZYXu0BGeGyR3RwR2Bq_HnKUE-gN4NoUqA_fQTZbhwk5YPJpJmI4La20o2NVwJ7Uv14lyJ33tCwWHXLHudP-qJuw_CXwZuv_pZJAoCt4XjQEB6OiB_LO6824zH__oqnYddSPNG3br7pMwG1a9W92yTxBUsopJMoiYC5iPfg-NAVLrvnUVRYKxOlYZX5YKbXby7DAgSnMOkhYecV0tsxYHOpkAfteuX9eGTCwVzg92aqkedDkHdQXjukwD_wS2eYWw72lKz2kur7tAuiTMKPrwe5C8wngQvtVL3Y6CxIokGNPUJVH_5tE66lmJR2w2VYpdyHTkOYZ6D1nB1zEvWxYK9Woh-mUUr3MSutypPzlR38dxJ2b_E8zpb7Fwak7dDhmVTCMgYEzq4sgXkQ30ABDiHSXKo0Rqw2MJALfdaI6idK8AihtX7eDD4sNUIPrbDCt9js5qtr5vcnCKe_9Ek5ieinKgcgHqwSFsCEMxioLNJyOsVydqzpyFePoNf-wGRwto4N3lTRAXkIJk6-8YoI2Jb945N6nGc6xJaUc8ByU3oFgPRXmGJ0SU51BQjsWow9Ikl7JQfkT_lyXLQuAaJhPD30ta7R0P9RGw8-H8VeM9OQxIINH87wPBcVOqvZUOemUGmXaYLFbFccpdyLAsjGi3eLpDTYu2QrzF5gsDpAA4aVwWVM6CIAZ-Xu4nsbh3YKCbKzR7K579Bhwmr8hqhjCcggd9cg7Jnvm5uo-ddViVrjzzgjOqeQGjcqXDuabdXh3oE8dMvRfxWaVq0Etae4qG9HuNfSCYPdx6Kl_nME7h9VDgUKgUjgqr38caVC3n2drcw4tRKFAr6znJuNT8AjJAdDpQFLW6BcDLzA8fnsCLx8MTVFzTcCFXCt968iXz7VaVUHm6LDUkEaGazlLX6hj9gBR3vVQYi8v9w6tkS4egV2E5u_wHzAFu5]--></g></svg>