<?xml version="1.0" encoding="us-ascii" standalone="no"?><svg xmlns="http://www.w3.org/2000/svg" xmlns:xlink="http://www.w3.org/1999/xlink" contentStyleType="text/css" height="1225px" preserveAspectRatio="none" style="width:1805px;height:1225px;background:#FFFFFF;" version="1.1" viewBox="0 0 1805 1225" width="1805px" zoomAndPan="magnify"><defs/><g><rect fill="#FFFFE0" height="1213.625" style="stroke:#181818;stroke-width:0.5;" width="233.5" x="128.5" y="6"/><text fill="#000000" font-family="sans-serif" font-size="13" font-weight="bold" lengthAdjust="spacing" textLength="42" x="221.75" y="18.0669">rollup</text><rect fill="#FFE4E1" height="1213.625" style="stroke:#181818;stroke-width:0.5;" width="1066.5" x="449.5" y="6"/><text fill="#000000" font-family="sans-serif" font-size="13" font-weight="bold" lengthAdjust="spacing" textLength="217" x="871.75" y="18.0669">Espresso Sequencer Network</text><rect fill="#FFE4C4" height="1193.4922" style="stroke:#181818;stroke-width:0.5;" width="399.5" x="449.5" y="26.1328"/><text fill="#000000" font-family="sans-serif" font-size="13" font-weight="bold" lengthAdjust="spacing" textLength="122" x="585.75" y="38.1997">Sequencer Node</text><rect fill="#E0FFFF" height="1173.3594" style="stroke:#181818;stroke-width:0.5;" width="135" x="449.5" y="46.2656"/><text fill="#000000" font-family="sans-serif" font-size="13" font-weight="bold" lengthAdjust="spacing" textLength="32" x="498.5" y="58.3325">APIs</text><rect fill="#D3D3D3" height="1213.625" style="stroke:#181818;stroke-width:0.5;" width="271" x="1528" y="6"/><text fill="#000000" font-family="sans-serif" font-size="13" font-weight="bold" lengthAdjust="spacing" textLength="93" x="1617" y="18.0669">Ethereum L1</text><line style="stroke:#181818;stroke-width:0.5;stroke-dasharray:5.0,5.0;" x1="24" x2="24" y1="145.5859" y2="1133.4375"/><line style="stroke:#181818;stroke-width:0.5;stroke-dasharray:5.0,5.0;" x1="159" x2="159" y1="145.5859" y2="1133.4375"/><line style="stroke:#181818;stroke-width:0.5;stroke-dasharray:5.0,5.0;" x1="224.5" x2="224.5" y1="145.5859" y2="1133.4375"/><line style="stroke:#181818;stroke-width:0.5;stroke-dasharray:5.0,5.0;" x1="320.5" x2="320.5" y1="145.5859" y2="1133.4375"/><line style="stroke:#181818;stroke-width:0.5;stroke-dasharray:5.0,5.0;" x1="484.5" x2="484.5" y1="145.5859" y2="1133.4375"/><line style="stroke:#181818;stroke-width:0.5;stroke-dasharray:5.0,5.0;" x1="553" x2="553" y1="145.5859" y2="1133.4375"/><line style="stroke:#181818;stroke-width:0.5;stroke-dasharray:5.0,5.0;" x1="635.5" x2="635.5" y1="145.5859" y2="1133.4375"/><line style="stroke:#181818;stroke-width:0.5;stroke-dasharray:5.0,5.0;" x1="719" x2="719" y1="145.5859" y2="1133.4375"/><line style="stroke:#181818;stroke-width:0.5;stroke-dasharray:5.0,5.0;" x1="816" x2="816" y1="145.5859" y2="1133.4375"/><line style="stroke:#181818;stroke-width:0.5;stroke-dasharray:5.0,5.0;" x1="896" x2="896" y1="145.5859" y2="1133.4375"/><line style="stroke:#181818;stroke-width:0.5;stroke-dasharray:5.0,5.0;" x1="1020" x2="1020" y1="145.5859" y2="1133.4375"/><line style="stroke:#181818;stroke-width:0.5;stroke-dasharray:5.0,5.0;" x1="1087.5" x2="1087.5" y1="145.5859" y2="1133.4375"/><line style="stroke:#181818;stroke-width:0.5;stroke-dasharray:5.0,5.0;" x1="1150" x2="1150" y1="145.5859" y2="1133.4375"/><line style="stroke:#181818;stroke-width:0.5;stroke-dasharray:5.0,5.0;" x1="1225" x2="1225" y1="145.5859" y2="1133.4375"/><line style="stroke:#181818;stroke-width:0.5;stroke-dasharray:5.0,5.0;" x1="1305" x2="1305" y1="145.5859" y2="1133.4375"/><line style="stroke:#181818;stroke-width:0.5;stroke-dasharray:5.0,5.0;" x1="1477" x2="1477" y1="145.5859" y2="1133.4375"/><line style="stroke:#181818;stroke-width:0.5;stroke-dasharray:5.0,5.0;" x1="1568.5" x2="1568.5" y1="145.5859" y2="1133.4375"/><line style="stroke:#181818;stroke-width:0.5;stroke-dasharray:5.0,5.0;" x1="1675.5" x2="1675.5" y1="145.5859" y2="1133.4375"/><line style="stroke:#181818;stroke-width:0.5;stroke-dasharray:5.0,5.0;" x1="1758.5" x2="1758.5" y1="145.5859" y2="1133.4375"/><text fill="#000000" font-family="sans-serif" font-size="14" lengthAdjust="spacing" textLength="32" x="5" y="142.2842">User</text><ellipse cx="24" cy="77.7891" fill="#E2E2F0" rx="8" ry="8" style="stroke:#181818;stroke-width:0.5;"/><path d="M24,85.7891 L24,112.7891 M11,93.7891 L37,93.7891 M24,112.7891 L11,127.7891 M24,112.7891 L37,127.7891 " fill="none" style="stroke:#181818;stroke-width:0.5;"/><rect fill="#E2E2F0" height="46.5938" rx="2.5" ry="2.5" style="stroke:#181818;stroke-width:0.5;" width="53" x="132.5" y="97.9922"/><text fill="#000000" font-family="sans-serif" font-size="14" lengthAdjust="spacing" textLength="21" x="148.5" y="117.9873">API</text><text fill="#000000" font-family="sans-serif" font-size="14" lengthAdjust="spacing" textLength="39" x="139.5" y="134.2842">(RPC)</text><rect fill="#E2E2F0" height="30.2969" rx="2.5" ry="2.5" style="stroke:#181818;stroke-width:0.5;" width="58" x="195.5" y="114.2891"/><text fill="#000000" font-family="sans-serif" font-size="14" lengthAdjust="spacing" textLength="44" x="202.5" y="134.2842">Prover</text><rect fill="#E2E2F0" height="30.2969" rx="2.5" ry="2.5" style="stroke:#181818;stroke-width:0.5;" width="75" x="283" y="114.2891"/><text fill="#000000" font-family="sans-serif" font-size="14" lengthAdjust="spacing" textLength="61" x="290" y="134.2842">Executor</text><rect fill="#E2E2F0" height="46.5938" rx="2.5" ry="2.5" style="stroke:#181818;stroke-width:0.5;" width="62" x="453.5" y="97.9922"/><text fill="#000000" font-family="sans-serif" font-size="14" lengthAdjust="spacing" textLength="48" x="460.5" y="117.9873">Submit</text><text fill="#000000" font-family="sans-serif" font-size="14" lengthAdjust="spacing" textLength="21" x="474" y="134.2842">API</text><rect fill="#E2E2F0" height="46.5938" rx="2.5" ry="2.5" style="stroke:#181818;stroke-width:0.5;" width="55" x="525.5" y="97.9922"/><text fill="#000000" font-family="sans-serif" font-size="14" lengthAdjust="spacing" textLength="41" x="532.5" y="117.9873">Query</text><text fill="#000000" font-family="sans-serif" font-size="14" lengthAdjust="spacing" textLength="21" x="542.5" y="134.2842">API</text><rect fill="#E2E2F0" height="62.8906" rx="2.5" ry="2.5" style="stroke:#181818;stroke-width:0.5;" width="70" x="600.5" y="81.6953"/><text fill="#000000" font-family="sans-serif" font-size="14" lengthAdjust="spacing" textLength="56" x="607.5" y="101.6904">HotShot</text><text fill="#000000" font-family="sans-serif" font-size="14" lengthAdjust="spacing" textLength="47" x="612" y="117.9873">Events</text><text fill="#000000" font-family="sans-serif" font-size="14" lengthAdjust="spacing" textLength="49" x="611" y="134.2842">Stream</text><rect fill="#E2E2F0" height="46.5938" rx="2.5" ry="2.5" style="stroke:#181818;stroke-width:0.5;" width="77" x="680.5" y="97.9922"/><text fill="#000000" font-family="sans-serif" font-size="14" lengthAdjust="spacing" textLength="63" x="687.5" y="117.9873">Validated</text><text fill="#000000" font-family="sans-serif" font-size="14" lengthAdjust="spacing" textLength="36" x="701" y="134.2842">State</text><rect fill="#E2E2F0" height="46.5938" rx="2.5" ry="2.5" style="stroke:#181818;stroke-width:0.5;" width="58" x="787" y="97.9922"/><text fill="#000000" font-family="sans-serif" font-size="14" lengthAdjust="spacing" textLength="36" x="798" y="117.9873">State</text><text fill="#000000" font-family="sans-serif" font-size="14" lengthAdjust="spacing" textLength="44" x="794" y="134.2842">Signer</text><rect fill="#E2E2F0" height="30.2969" rx="2.5" ry="2.5" style="stroke:#181818;stroke-width:0.5;" width="62" x="865" y="114.2891"/><text fill="#000000" font-family="sans-serif" font-size="14" lengthAdjust="spacing" textLength="48" x="872" y="134.2842">Builder</text><rect fill="#E2E2F0" height="46.5938" rx="2.5" ry="2.5" style="stroke:#181818;stroke-width:0.5;" width="70" x="985" y="97.9922"/><text fill="#000000" font-family="sans-serif" font-size="14" lengthAdjust="spacing" textLength="56" x="992" y="117.9873">HotShot</text><text fill="#000000" font-family="sans-serif" font-size="14" lengthAdjust="spacing" textLength="47" x="996.5" y="134.2842">Leader</text><rect fill="#E2E2F0" height="30.2969" rx="2.5" ry="2.5" style="stroke:#181818;stroke-width:0.5;" width="45" x="1065" y="114.2891"/><text fill="#000000" font-family="sans-serif" font-size="14" lengthAdjust="spacing" textLength="31" x="1072" y="134.2842">CDN</text><rect fill="#E2E2F0" height="30.2969" rx="2.5" ry="2.5" style="stroke:#181818;stroke-width:0.5;" width="60" x="1120" y="114.2891"/><text fill="#000000" font-family="sans-serif" font-size="14" lengthAdjust="spacing" textLength="46" x="1127" y="134.2842">Libp2p</text><rect fill="#E2E2F0" height="46.5938" rx="2.5" ry="2.5" style="stroke:#181818;stroke-width:0.5;" width="70" x="1190" y="97.9922"/><text fill="#000000" font-family="sans-serif" font-size="14" lengthAdjust="spacing" textLength="56" x="1197" y="117.9873">HotShot</text><text fill="#000000" font-family="sans-serif" font-size="14" lengthAdjust="spacing" textLength="53" x="1198.5" y="134.2842">replicas</text><rect fill="#E2E2F0" height="79.1875" rx="2.5" ry="2.5" style="stroke:#181818;stroke-width:0.5;" width="70" x="1270" y="65.3984"/><text fill="#000000" font-family="sans-serif" font-size="14" lengthAdjust="spacing" textLength="56" x="1277" y="85.3936">HotShot</text><text fill="#000000" font-family="sans-serif" font-size="14" lengthAdjust="spacing" textLength="35" x="1287.5" y="101.6904">state</text><text fill="#000000" font-family="sans-serif" font-size="14" lengthAdjust="spacing" textLength="32" x="1289" y="117.9873">relay</text><text fill="#000000" font-family="sans-serif" font-size="14" lengthAdjust="spacing" textLength="49" x="1280.5" y="134.2842">service</text><rect fill="#E2E2F0" height="79.1875" rx="2.5" ry="2.5" style="stroke:#181818;stroke-width:0.5;" width="70" x="1442" y="65.3984"/><text fill="#000000" font-family="sans-serif" font-size="14" lengthAdjust="spacing" textLength="56" x="1449" y="85.3936">HotShot</text><text fill="#000000" font-family="sans-serif" font-size="14" lengthAdjust="spacing" textLength="35" x="1459.5" y="101.6904">state</text><text fill="#000000" font-family="sans-serif" font-size="14" lengthAdjust="spacing" textLength="44" x="1455" y="117.9873">prover</text><text fill="#000000" font-family="sans-serif" font-size="14" lengthAdjust="spacing" textLength="49" x="1452.5" y="134.2842">service</text><rect fill="#E2E2F0" height="46.5938" rx="2.5" ry="2.5" style="stroke:#181818;stroke-width:0.5;" width="73" x="1532" y="97.9922"/><text fill="#000000" font-family="sans-serif" font-size="14" lengthAdjust="spacing" textLength="43" x="1547" y="117.9873">Rollup</text><text fill="#000000" font-family="sans-serif" font-size="14" lengthAdjust="spacing" textLength="59" x="1539" y="134.2842">Contract</text><rect fill="#E2E2F0" height="62.8906" rx="2.5" ry="2.5" style="stroke:#181818;stroke-width:0.5;" width="73" x="1639" y="81.6953"/><text fill="#000000" font-family="sans-serif" font-size="14" lengthAdjust="spacing" textLength="33" x="1659" y="101.6904">Light</text><text fill="#000000" font-family="sans-serif" font-size="14" lengthAdjust="spacing" textLength="39" x="1656" y="117.9873">Client</text><text fill="#000000" font-family="sans-serif" font-size="14" lengthAdjust="spacing" textLength="59" x="1646" y="134.2842">Contract</text><rect fill="#E2E2F0" height="46.5938" rx="2.5" ry="2.5" style="stroke:#181818;stroke-width:0.5;" width="73" x="1722" y="97.9922"/><text fill="#000000" font-family="sans-serif" font-size="14" lengthAdjust="spacing" textLength="26" x="1745.5" y="117.9873">Fee</text><text fill="#000000" font-family="sans-serif" font-size="14" lengthAdjust="spacing" textLength="59" x="1729" y="134.2842">Contract</text><text fill="#000000" font-family="sans-serif" font-size="14" lengthAdjust="spacing" textLength="32" x="5" y="1206.4326">User</text><ellipse cx="24" cy="1141.9375" fill="#E2E2F0" rx="8" ry="8" style="stroke:#181818;stroke-width:0.5;"/><path d="M24,1149.9375 L24,1176.9375 M11,1157.9375 L37,1157.9375 M24,1176.9375 L11,1191.9375 M24,1176.9375 L37,1191.9375 " fill="none" style="stroke:#181818;stroke-width:0.5;"/><rect fill="#E2E2F0" height="46.5938" rx="2.5" ry="2.5" style="stroke:#181818;stroke-width:0.5;" width="53" x="132.5" y="1133.4375"/><text fill="#000000" font-family="sans-serif" font-size="14" lengthAdjust="spacing" textLength="21" x="148.5" y="1153.4326">API</text><text fill="#000000" font-family="sans-serif" font-size="14" lengthAdjust="spacing" textLength="39" x="139.5" y="1169.7295">(RPC)</text><rect fill="#E2E2F0" height="30.2969" rx="2.5" ry="2.5" style="stroke:#181818;stroke-width:0.5;" width="58" x="195.5" y="1133.4375"/><text fill="#000000" font-family="sans-serif" font-size="14" lengthAdjust="spacing" textLength="44" x="202.5" y="1153.4326">Prover</text><rect fill="#E2E2F0" height="30.2969" rx="2.5" ry="2.5" style="stroke:#181818;stroke-width:0.5;" width="75" x="283" y="1133.4375"/><text fill="#000000" font-family="sans-serif" font-size="14" lengthAdjust="spacing" textLength="61" x="290" y="1153.4326">Executor</text><rect fill="#E2E2F0" height="46.5938" rx="2.5" ry="2.5" style="stroke:#181818;stroke-width:0.5;" width="62" x="453.5" y="1133.4375"/><text fill="#000000" font-family="sans-serif" font-size="14" lengthAdjust="spacing" textLength="48" x="460.5" y="1153.4326">Submit</text><text fill="#000000" font-family="sans-serif" font-size="14" lengthAdjust="spacing" textLength="21" x="474" y="1169.7295">API</text><rect fill="#E2E2F0" height="46.5938" rx="2.5" ry="2.5" style="stroke:#181818;stroke-width:0.5;" width="55" x="525.5" y="1133.4375"/><text fill="#000000" font-family="sans-serif" font-size="14" lengthAdjust="spacing" textLength="41" x="532.5" y="1153.4326">Query</text><text fill="#000000" font-family="sans-serif" font-size="14" lengthAdjust="spacing" textLength="21" x="542.5" y="1169.7295">API</text><rect fill="#E2E2F0" height="62.8906" rx="2.5" ry="2.5" style="stroke:#181818;stroke-width:0.5;" width="70" x="600.5" y="1133.4375"/><text fill="#000000" font-family="sans-serif" font-size="14" lengthAdjust="spacing" textLength="56" x="607.5" y="1153.4326">HotShot</text><text fill="#000000" font-family="sans-serif" font-size="14" lengthAdjust="spacing" textLength="47" x="612" y="1169.7295">Events</text><text fill="#000000" font-family="sans-serif" font-size="14" lengthAdjust="spacing" textLength="49" x="611" y="1186.0264">Stream</text><rect fill="#E2E2F0" height="46.5938" rx="2.5" ry="2.5" style="stroke:#181818;stroke-width:0.5;" width="77" x="680.5" y="1133.4375"/><text fill="#000000" font-family="sans-serif" font-size="14" lengthAdjust="spacing" textLength="63" x="687.5" y="1153.4326">Validated</text><text fill="#000000" font-family="sans-serif" font-size="14" lengthAdjust="spacing" textLength="36" x="701" y="1169.7295">State</text><rect fill="#E2E2F0" height="46.5938" rx="2.5" ry="2.5" style="stroke:#181818;stroke-width:0.5;" width="58" x="787" y="1133.4375"/><text fill="#000000" font-family="sans-serif" font-size="14" lengthAdjust="spacing" textLength="36" x="798" y="1153.4326">State</text><text fill="#000000" font-family="sans-serif" font-size="14" lengthAdjust="spacing" textLength="44" x="794" y="1169.7295">Signer</text><rect fill="#E2E2F0" height="30.2969" rx="2.5" ry="2.5" style="stroke:#181818;stroke-width:0.5;" width="62" x="865" y="1133.4375"/><text fill="#000000" font-family="sans-serif" font-size="14" lengthAdjust="spacing" textLength="48" x="872" y="1153.4326">Builder</text><rect fill="#E2E2F0" height="46.5938" rx="2.5" ry="2.5" style="stroke:#181818;stroke-width:0.5;" width="70" x="985" y="1133.4375"/><text fill="#000000" font-family="sans-serif" font-size="14" lengthAdjust="spacing" textLength="56" x="992" y="1153.4326">HotShot</text><text fill="#000000" font-family="sans-serif" font-size="14" lengthAdjust="spacing" textLength="47" x="996.5" y="1169.7295">Leader</text><rect fill="#E2E2F0" height="30.2969" rx="2.5" ry="2.5" style="stroke:#181818;stroke-width:0.5;" width="45" x="1065" y="1133.4375"/><text fill="#000000" font-family="sans-serif" font-size="14" lengthAdjust="spacing" textLength="31" x="1072" y="1153.4326">CDN</text><rect fill="#E2E2F0" height="30.2969" rx="2.5" ry="2.5" style="stroke:#181818;stroke-width:0.5;" width="60" x="1120" y="1133.4375"/><text fill="#000000" font-family="sans-serif" font-size="14" lengthAdjust="spacing" textLength="46" x="1127" y="1153.4326">Libp2p</text><rect fill="#E2E2F0" height="46.5938" rx="2.5" ry="2.5" style="stroke:#181818;stroke-width:0.5;" width="70" x="1190" y="1133.4375"/><text fill="#000000" font-family="sans-serif" font-size="14" lengthAdjust="spacing" textLength="56" x="1197" y="1153.4326">HotShot</text><text fill="#000000" font-family="sans-serif" font-size="14" lengthAdjust="spacing" textLength="53" x="1198.5" y="1169.7295">replicas</text><rect fill="#E2E2F0" height="79.1875" rx="2.5" ry="2.5" style="stroke:#181818;stroke-width:0.5;" width="70" x="1270" y="1133.4375"/><text fill="#000000" font-family="sans-serif" font-size="14" lengthAdjust="spacing" textLength="56" x="1277" y="1153.4326">HotShot</text><text fill="#000000" font-family="sans-serif" font-size="14" lengthAdjust="spacing" textLength="35" x="1287.5" y="1169.7295">state</text><text fill="#000000" font-family="sans-serif" font-size="14" lengthAdjust="spacing" textLength="32" x="1289" y="1186.0264">relay</text><text fill="#000000" font-family="sans-serif" font-size="14" lengthAdjust="spacing" textLength="49" x="1280.5" y="1202.3232">service</text><rect fill="#E2E2F0" height="79.1875" rx="2.5" ry="2.5" style="stroke:#181818;stroke-width:0.5;" width="70" x="1442" y="1133.4375"/><text fill="#000000" font-family="sans-serif" font-size="14" lengthAdjust="spacing" textLength="56" x="1449" y="1153.4326">HotShot</text><text fill="#000000" font-family="sans-serif" font-size="14" lengthAdjust="spacing" textLength="35" x="1459.5" y="1169.7295">state</text><text fill="#000000" font-family="sans-serif" font-size="14" lengthAdjust="spacing" textLength="44" x="1455" y="1186.0264">prover</text><text fill="#000000" font-family="sans-serif" font-size="14" lengthAdjust="spacing" textLength="49" x="1452.5" y="1202.3232">service</text><rect fill="#E2E2F0" height="46.5938" rx="2.5" ry="2.5" style="stroke:#181818;stroke-width:0.5;" width="73" x="1532" y="1133.4375"/><text fill="#000000" font-family="sans-serif" font-size="14" lengthAdjust="spacing" textLength="43" x="1547" y="1153.4326">Rollup</text><text fill="#000000" font-family="sans-serif" font-size="14" lengthAdjust="spacing" textLength="59" x="1539" y="1169.7295">Contract</text><rect fill="#E2E2F0" height="62.8906" rx="2.5" ry="2.5" style="stroke:#181818;stroke-width:0.5;" width="73" x="1639" y="1133.4375"/><text fill="#000000" font-family="sans-serif" font-size="14" lengthAdjust="spacing" textLength="33" x="1659" y="1153.4326">Light</text><text fill="#000000" font-family="sans-serif" font-size="14" lengthAdjust="spacing" textLength="39" x="1656" y="1169.7295">Client</text><text fill="#000000" font-family="sans-serif" font-size="14" lengthAdjust="spacing" textLength="59" x="1646" y="1186.0264">Contract</text><rect fill="#E2E2F0" height="46.5938" rx="2.5" ry="2.5" style="stroke:#181818;stroke-width:0.5;" width="73" x="1722" y="1133.4375"/><text fill="#000000" font-family="sans-serif" font-size="14" lengthAdjust="spacing" textLength="26" x="1745.5" y="1153.4326">Fee</text><text fill="#000000" font-family="sans-serif" font-size="14" lengthAdjust="spacing" textLength="59" x="1729" y="1169.7295">Contract</text><path d="M880,157.5859 L1032,157.5859 L1032,164.7188 L1022,174.7188 L880,174.7188 L880,157.5859 " fill="#EEEEEE" style="stroke:#000000;stroke-width:1.5;"/><rect fill="none" height="56.2656" style="stroke:#000000;stroke-width:1.5;" width="894.5" x="880" y="157.5859"/><text fill="#000000" font-family="sans-serif" font-size="13" font-weight="bold" lengthAdjust="spacing" textLength="107" x="895" y="170.6528">1. Fee deposit</text><polygon fill="#181818" points="1746.5,201.8516,1756.5,205.8516,1746.5,209.8516,1750.5,205.8516" style="stroke:#181818;stroke-width:1.0;"/><line style="stroke:#181818;stroke-width:1.0;" x1="896" x2="1752.5" y1="205.8516" y2="205.8516"/><text fill="#000000" font-family="sans-serif" font-size="13" lengthAdjust="spacing" textLength="71" x="903" y="200.7856">fee deposit</text><path d="M8,231.8516 L253,231.8516 L253,238.9844 L243,248.9844 L8,248.9844 L8,231.8516 " fill="#EEEEEE" style="stroke:#000000;stroke-width:1.5;"/><rect fill="none" height="114.5313" style="stroke:#000000;stroke-width:1.5;" width="904" x="8" y="231.8516"/><text fill="#000000" font-family="sans-serif" font-size="13" font-weight="bold" lengthAdjust="spacing" textLength="200" x="23" y="244.9185">2. Transaction submisssion</text><polygon fill="#181818" points="147,276.1172,157,280.1172,147,284.1172,151,280.1172" style="stroke:#181818;stroke-width:1.0;"/><line style="stroke:#181818;stroke-width:1.0;" x1="24" x2="153" y1="280.1172" y2="280.1172"/><text fill="#000000" font-family="sans-serif" font-size="13" lengthAdjust="spacing" textLength="111" x="31" y="275.0513">rollup transaction</text><polygon fill="#181818" points="472.5,305.25,482.5,309.25,472.5,313.25,476.5,309.25" style="stroke:#181818;stroke-width:1.0;"/><line style="stroke:#181818;stroke-width:1.0;" x1="159" x2="478.5" y1="309.25" y2="309.25"/><text fill="#000000" font-family="sans-serif" font-size="13" lengthAdjust="spacing" textLength="72" x="166" y="304.1841">transaction</text><polygon fill="#181818" points="884,334.3828,894,338.3828,884,342.3828,888,338.3828" style="stroke:#181818;stroke-width:1.0;"/><line style="stroke:#181818;stroke-width:1.0;" x1="635.5" x2="890" y1="338.3828" y2="338.3828"/><text fill="#000000" font-family="sans-serif" font-size="13" lengthAdjust="spacing" textLength="79" x="642.5" y="333.3169">transactions</text><path d="M880,364.3828 L1172,364.3828 L1172,371.5156 L1162,381.5156 L880,381.5156 L880,364.3828 " fill="#EEEEEE" style="stroke:#000000;stroke-width:1.5;"/><rect fill="none" height="85.3984" style="stroke:#000000;stroke-width:1.5;" width="308" x="880" y="364.3828"/><text fill="#000000" font-family="sans-serif" font-size="13" font-weight="bold" lengthAdjust="spacing" textLength="247" x="895" y="377.4497">3. Leader obtains Espresso block</text><polygon fill="#181818" points="1008,408.6484,1018,412.6484,1008,416.6484,1012,412.6484" style="stroke:#181818;stroke-width:1.0;"/><line style="stroke:#181818;stroke-width:1.0;" x1="896" x2="1014" y1="412.6484" y2="412.6484"/><text fill="#000000" font-family="sans-serif" font-size="13" lengthAdjust="spacing" textLength="100" x="903" y="407.5825">available blocks</text><polygon fill="#181818" points="907,437.7813,897,441.7813,907,445.7813,903,441.7813" style="stroke:#181818;stroke-width:1.0;"/><line style="stroke:#181818;stroke-width:1.0;" x1="901" x2="1019" y1="441.7813" y2="441.7813"/><text fill="#000000" font-family="sans-serif" font-size="13" lengthAdjust="spacing" textLength="71" x="913" y="436.7153">claim block</text><path d="M703,467.7813 L908,467.7813 L908,474.9141 L898,484.9141 L703,484.9141 L703,467.7813 " fill="#EEEEEE" style="stroke:#000000;stroke-width:1.5;"/><rect fill="none" height="142.6641" style="stroke:#000000;stroke-width:1.5;" width="1071.5" x="703" y="467.7813"/><text fill="#000000" font-family="sans-serif" font-size="13" font-weight="bold" lengthAdjust="spacing" textLength="160" x="718" y="480.8481">4. HotShot consensus</text><polygon fill="#181818" points="1031,512.0469,1021,516.0469,1031,520.0469,1027,516.0469" style="stroke:#181818;stroke-width:1.0;"/><polygon fill="#181818" points="1213,512.0469,1223,516.0469,1213,520.0469,1217,516.0469" style="stroke:#181818;stroke-width:1.0;"/><line style="stroke:#181818;stroke-width:1.0;" x1="1025" x2="1219" y1="516.0469" y2="516.0469"/><text fill="#000000" font-family="sans-serif" font-size="13" lengthAdjust="spacing" textLength="138" x="1037" y="510.981">consensus messages</text><polygon fill="#181818" points="1031,512.0469,1021,516.0469,1031,520.0469,1027,516.0469" style="stroke:#181818;stroke-width:1.0;"/><polygon fill="#181818" points="1138,512.0469,1148,516.0469,1138,520.0469,1142,516.0469" style="stroke:#181818;stroke-width:1.0;"/><line style="stroke:#181818;stroke-width:1.0;" x1="1025" x2="1144" y1="516.0469" y2="516.0469"/><polygon fill="#181818" points="1161,512.0469,1151,516.0469,1161,520.0469,1157,516.0469" style="stroke:#181818;stroke-width:1.0;"/><polygon fill="#181818" points="1213,512.0469,1223,516.0469,1213,520.0469,1217,516.0469" style="stroke:#181818;stroke-width:1.0;"/><line style="stroke:#181818;stroke-width:1.0;" x1="1155" x2="1219" y1="516.0469" y2="516.0469"/><polygon fill="#181818" points="1098.5,512.0469,1088.5,516.0469,1098.5,520.0469,1094.5,516.0469" style="stroke:#181818;stroke-width:1.0;"/><line style="stroke:#181818;stroke-width:1.0;" x1="1092.5" x2="1224" y1="516.0469" y2="516.0469"/><polygon fill="#181818" points="730,541.1797,720,545.1797,730,549.1797,726,545.1797" style="stroke:#181818;stroke-width:1.0;"/><line style="stroke:#181818;stroke-width:1.0;" x1="724" x2="1757.5" y1="545.1797" y2="545.1797"/><text fill="#000000" font-family="sans-serif" font-size="13" lengthAdjust="spacing" textLength="111" x="736" y="540.1138">credit fee deposit</text><line style="stroke:#181818;stroke-width:1.0;" x1="719" x2="761" y1="589.4453" y2="589.4453"/><line style="stroke:#181818;stroke-width:1.0;" x1="761" x2="761" y1="589.4453" y2="602.4453"/><line style="stroke:#181818;stroke-width:1.0;" x1="720" x2="761" y1="602.4453" y2="602.4453"/><polygon fill="#181818" points="730,598.4453,720,602.4453,730,606.4453,726,602.4453" style="stroke:#181818;stroke-width:1.0;"/><text fill="#000000" font-family="sans-serif" font-size="13" lengthAdjust="spacing" textLength="83" x="726" y="569.2466">apply header</text><text fill="#000000" font-family="sans-serif" font-size="13" lengthAdjust="spacing" textLength="68" x="726" y="584.3794">charge fee</text><path d="M800,628.4453 L984,628.4453 L984,635.5781 L974,645.5781 L800,645.5781 L800,628.4453 " fill="#EEEEEE" style="stroke:#000000;stroke-width:1.5;"/><rect fill="none" height="156.6641" style="stroke:#000000;stroke-width:1.5;" width="939.5" x="800" y="628.4453"/><text fill="#000000" font-family="sans-serif" font-size="13" font-weight="bold" lengthAdjust="spacing" textLength="139" x="815" y="641.5122">5. HotShot proving</text><polygon fill="#181818" points="1293,672.7109,1303,676.7109,1293,680.7109,1297,676.7109" style="stroke:#181818;stroke-width:1.0;"/><line style="stroke:#181818;stroke-width:1.0;" x1="816" x2="1299" y1="676.7109" y2="676.7109"/><text fill="#000000" font-family="sans-serif" font-size="13" lengthAdjust="spacing" textLength="101" x="823" y="671.645">state, signature</text><polygon fill="#181818" points="1465,701.8438,1475,705.8438,1465,709.8438,1469,705.8438" style="stroke:#181818;stroke-width:1.0;"/><line style="stroke:#181818;stroke-width:1.0;" x1="1305" x2="1471" y1="705.8438" y2="705.8438"/><text fill="#000000" font-family="sans-serif" font-size="13" lengthAdjust="spacing" textLength="148" x="1312" y="700.7778">state, signature bundle</text><polygon fill="#181818" points="1663.5,730.9766,1673.5,734.9766,1663.5,738.9766,1667.5,734.9766" style="stroke:#181818;stroke-width:1.0;"/><line style="stroke:#181818;stroke-width:1.0;" x1="1477" x2="1669.5" y1="734.9766" y2="734.9766"/><text fill="#000000" font-family="sans-serif" font-size="13" lengthAdjust="spacing" textLength="33" x="1484" y="729.9106">proof</text><line style="stroke:#181818;stroke-width:1.0;" x1="1675.5" x2="1717.5" y1="764.1094" y2="764.1094"/><line style="stroke:#181818;stroke-width:1.0;" x1="1717.5" x2="1717.5" y1="764.1094" y2="777.1094"/><line style="stroke:#181818;stroke-width:1.0;" x1="1676.5" x2="1717.5" y1="777.1094" y2="777.1094"/><polygon fill="#181818" points="1686.5,773.1094,1676.5,777.1094,1686.5,781.1094,1682.5,777.1094" style="stroke:#181818;stroke-width:1.0;"/><text fill="#000000" font-family="sans-serif" font-size="13" lengthAdjust="spacing" textLength="34" x="1682.5" y="759.0435">verify</text><path d="M189.5,803.1094 L360.5,803.1094 L360.5,810.2422 L350.5,820.2422 L189.5,820.2422 L189.5,803.1094 " fill="#EEEEEE" style="stroke:#000000;stroke-width:1.5;"/><rect fill="none" height="306.3281" style="stroke:#000000;stroke-width:1.5;" width="1527" x="189.5" y="803.1094"/><text fill="#000000" font-family="sans-serif" font-size="13" font-weight="bold" lengthAdjust="spacing" textLength="126" x="204.5" y="816.1763">6. Rollup proving</text><path d="M208.5,834.2422 L285.5,834.2422 L285.5,841.375 L275.5,851.375 L208.5,851.375 L208.5,834.2422 " fill="#EEEEEE" style="stroke:#000000;stroke-width:1.5;"/><rect fill="none" height="142.6641" style="stroke:#000000;stroke-width:1.5;" width="360.5" x="208.5" y="834.2422"/><text fill="#000000" font-family="sans-serif" font-size="13" font-weight="bold" lengthAdjust="spacing" textLength="32" x="223.5" y="847.3091">loop</text><text fill="#000000" font-family="sans-serif" font-size="11" font-weight="bold" lengthAdjust="spacing" textLength="217" x="300.5" y="846.4526">[N (rollup blocks per proof) times]</text><polygon fill="#181818" points="331.5,893.6406,321.5,897.6406,331.5,901.6406,327.5,897.6406" style="stroke:#181818;stroke-width:1.0;"/><line style="stroke:#181818;stroke-width:1.0;" x1="325.5" x2="552" y1="897.6406" y2="897.6406"/><text fill="#000000" font-family="sans-serif" font-size="13" lengthAdjust="spacing" textLength="111" x="337.5" y="877.4419">Espresso header,</text><text fill="#000000" font-family="sans-serif" font-size="13" lengthAdjust="spacing" textLength="173" x="337.5" y="892.5747">transactions in namespace</text><line style="stroke:#181818;stroke-width:1.0;" x1="320.5" x2="362.5" y1="926.7734" y2="926.7734"/><line style="stroke:#181818;stroke-width:1.0;" x1="362.5" x2="362.5" y1="926.7734" y2="939.7734"/><line style="stroke:#181818;stroke-width:1.0;" x1="321.5" x2="362.5" y1="939.7734" y2="939.7734"/><polygon fill="#181818" points="331.5,935.7734,321.5,939.7734,331.5,943.7734,327.5,939.7734" style="stroke:#181818;stroke-width:1.0;"/><text fill="#000000" font-family="sans-serif" font-size="13" lengthAdjust="spacing" textLength="150" x="327.5" y="921.7075">verify namespace proof</text><polygon fill="#181818" points="235.5,964.9063,225.5,968.9063,235.5,972.9063,231.5,968.9063" style="stroke:#181818;stroke-width:1.0;"/><line style="stroke:#181818;stroke-width:1.0;" x1="229.5" x2="319.5" y1="968.9063" y2="968.9063"/><text fill="#000000" font-family="sans-serif" font-size="13" lengthAdjust="spacing" textLength="72" x="241.5" y="963.8403">rollup block</text><polygon fill="#181818" points="1556.5,1008.0391,1566.5,1012.0391,1556.5,1016.0391,1560.5,1012.0391" style="stroke:#181818;stroke-width:1.0;"/><line style="stroke:#181818;stroke-width:1.0;" x1="224.5" x2="1562.5" y1="1012.0391" y2="1012.0391"/><text fill="#000000" font-family="sans-serif" font-size="13" lengthAdjust="spacing" textLength="109" x="231.5" y="1006.9731">rollup state proof</text><path d="M1552.5,1024.0391 L1638.5,1024.0391 L1638.5,1031.1719 L1628.5,1041.1719 L1552.5,1041.1719 L1552.5,1024.0391 " fill="#EEEEEE" style="stroke:#000000;stroke-width:1.5;"/><rect fill="none" height="71.3984" style="stroke:#000000;stroke-width:1.5;" width="139" x="1552.5" y="1024.0391"/><text fill="#000000" font-family="sans-serif" font-size="13" font-weight="bold" lengthAdjust="spacing" textLength="41" x="1567.5" y="1037.106">verify</text><polygon fill="#181818" points="1579.5,1083.4375,1569.5,1087.4375,1579.5,1091.4375,1575.5,1087.4375" style="stroke:#181818;stroke-width:1.0;"/><line style="stroke:#181818;stroke-width:1.0;" x1="1573.5" x2="1674.5" y1="1087.4375" y2="1087.4375"/><text fill="#000000" font-family="sans-serif" font-size="13" lengthAdjust="spacing" textLength="53" x="1585.5" y="1067.2388">HotShot</text><text fill="#000000" font-family="sans-serif" font-size="13" lengthAdjust="spacing" textLength="83" x="1585.5" y="1082.3716">commitment</text><!--SRC=[XLNRQXin47ttLqmTA0saXgINXwKK6jUzW1jIkoqK_2BlJcmHhQH8MYVkrtTqsPlNIVoGI9fpPaOpPxGlj66Rae53zG-SgN34SgSC_BPeHgErUW2ZXAWqdCpvPkl-eX3gVWJqqymuddFDf8Fnf-llA_bgSJqz7GEpO7G-n5mRjKEJx64znCmUCAyeVa1XsenG5a2fn7ncLXkqLi4IxogKEHguGdUlp2sS_E3MxHVAOl3iqHsGAX1EBhcbWs2k8PIxJTURxfbiR8FabjMwv6ubYH3ois7_EFvdXMRVmk_yja7NTphA_ARSSgier6o7qjcLN3g3h8nL2KV7UN-Ou0LpM7W6_G-4vZ0S7IS64v7uHgOMsR0STLCTjEkoug8uriOc_pco8ZaKOJd0JZzV3SxcVAqlz1Dk3Mh1SsQZcDBc2RoDrpCe63M4fBtZEIOo7JtFZ7hjKvE6U-8SpzmM3LObpC_7ILHV3Hw9i0XZjP9J9PsXcGik5zCXCFWWdE3KzmFy_0Z-2-81wWQnpN9Z54tp-GG81mLgPPE4KpFXzKTFoFoVnkxPWLZpBoRmop1fAGHNCaw2jPRMmPT_FRmZUWUo-W5nBJvWoEOXSOYoWJdAt2DIOZs87QRqPW9HRQ3MZd5fsvTYBLH-UtZ9gCSCs8vnmTO28opAA1fxqNF1U9bS3OA_dK2I3EIK7KfRzHnzyCL8EirQ29IK7zjWnBxiekCCPCaGTtqtoLJlVR8qJF7ODu_s_T6dm0OBxdgjzUW-x1YHQItsi0tfhMI-PMQ3ZQvwbNZNLi8F29UR428-9q4JVk8o28Dr5iwPgqnybuBDW-9i3L6mhcGX8ZXYFFgP6SayLDq4qdpg2VwCkFncFxp0-md4sUpbBvJIS0MlafYZL41J_E3x51mlKnl3E- -ZrD-lh5LYhE3PIdQr35o2P4JNB8zNgvbzBp7Z5jgvLfTWwk9rS-rzfGv-L88qaKr55zE67bgGGWLOB5CgN-qZrlMnLos3va7DLKdpNbAVcczBB7-p-Wy0]--></g></svg>