<?xml version="1.0" encoding="us-ascii" standalone="no"?><svg xmlns="http://www.w3.org/2000/svg" xmlns:xlink="http://www.w3.org/1999/xlink" contentStyleType="text/css" height="1492px" preserveAspectRatio="none" style="width:1906px;height:1492px;background:#FFFFFF;" version="1.1" viewBox="0 0 1906 1492" width="1906px" zoomAndPan="magnify"><defs/><g><rect fill="#FFFFE0" height="1480.9531" style="stroke:#181818;stroke-width:0.5;" width="421.5" x="128.5" y="6"/><text fill="#000000" font-family="sans-serif" font-size="13" font-weight="bold" lengthAdjust="spacing" textLength="42" x="315.75" y="18.0669">rollup</text><rect fill="#D3D3D3" height="1480.9531" style="stroke:#181818;stroke-width:0.5;" width="271" x="591.5" y="6"/><text fill="#000000" font-family="sans-serif" font-size="13" font-weight="bold" lengthAdjust="spacing" textLength="93" x="680.5" y="18.0669">Ethereum L1</text><rect fill="#FFE4E1" height="1480.9531" style="stroke:#181818;stroke-width:0.5;" width="1025.5" x="874.5" y="6"/><text fill="#000000" font-family="sans-serif" font-size="13" font-weight="bold" lengthAdjust="spacing" textLength="217" x="1276.25" y="18.0669">Espresso Sequencer Network</text><rect fill="#FFE4C4" height="1460.8203" style="stroke:#181818;stroke-width:0.5;" width="399.5" x="874.5" y="26.1328"/><text fill="#000000" font-family="sans-serif" font-size="13" font-weight="bold" lengthAdjust="spacing" textLength="122" x="1010.75" y="38.1997">Sequencer Node</text><rect fill="#E0FFFF" height="1440.6875" style="stroke:#181818;stroke-width:0.5;" width="135" x="874.5" y="46.2656"/><text fill="#000000" font-family="sans-serif" font-size="13" font-weight="bold" lengthAdjust="spacing" textLength="32" x="923.5" y="58.3325">APIs</text><line style="stroke:#181818;stroke-width:0.5;stroke-dasharray:5.0,5.0;" x1="24" x2="24" y1="145.5859" y2="1400.7656"/><line style="stroke:#181818;stroke-width:0.5;stroke-dasharray:5.0,5.0;" x1="159" x2="159" y1="145.5859" y2="1400.7656"/><line style="stroke:#181818;stroke-width:0.5;stroke-dasharray:5.0,5.0;" x1="224.5" x2="224.5" y1="145.5859" y2="1400.7656"/><line style="stroke:#181818;stroke-width:0.5;stroke-dasharray:5.0,5.0;" x1="320.5" x2="320.5" y1="145.5859" y2="1400.7656"/><line style="stroke:#181818;stroke-width:0.5;stroke-dasharray:5.0,5.0;" x1="409.5" x2="409.5" y1="145.5859" y2="1400.7656"/><line style="stroke:#181818;stroke-width:0.5;stroke-dasharray:5.0,5.0;" x1="502" x2="502" y1="145.5859" y2="1400.7656"/><line style="stroke:#181818;stroke-width:0.5;stroke-dasharray:5.0,5.0;" x1="632" x2="632" y1="145.5859" y2="1400.7656"/><line style="stroke:#181818;stroke-width:0.5;stroke-dasharray:5.0,5.0;" x1="739" x2="739" y1="145.5859" y2="1400.7656"/><line style="stroke:#181818;stroke-width:0.5;stroke-dasharray:5.0,5.0;" x1="822" x2="822" y1="145.5859" y2="1400.7656"/><line style="stroke:#181818;stroke-width:0.5;stroke-dasharray:5.0,5.0;" x1="909.5" x2="909.5" y1="145.5859" y2="1400.7656"/><line style="stroke:#181818;stroke-width:0.5;stroke-dasharray:5.0,5.0;" x1="978" x2="978" y1="145.5859" y2="1400.7656"/><line style="stroke:#181818;stroke-width:0.5;stroke-dasharray:5.0,5.0;" x1="1060.5" x2="1060.5" y1="145.5859" y2="1400.7656"/><line style="stroke:#181818;stroke-width:0.5;stroke-dasharray:5.0,5.0;" x1="1144" x2="1144" y1="145.5859" y2="1400.7656"/><line style="stroke:#181818;stroke-width:0.5;stroke-dasharray:5.0,5.0;" x1="1241" x2="1241" y1="145.5859" y2="1400.7656"/><line style="stroke:#181818;stroke-width:0.5;stroke-dasharray:5.0,5.0;" x1="1321" x2="1321" y1="145.5859" y2="1400.7656"/><line style="stroke:#181818;stroke-width:0.5;stroke-dasharray:5.0,5.0;" x1="1445" x2="1445" y1="145.5859" y2="1400.7656"/><line style="stroke:#181818;stroke-width:0.5;stroke-dasharray:5.0,5.0;" x1="1512.5" x2="1512.5" y1="145.5859" y2="1400.7656"/><line style="stroke:#181818;stroke-width:0.5;stroke-dasharray:5.0,5.0;" x1="1575" x2="1575" y1="145.5859" y2="1400.7656"/><line style="stroke:#181818;stroke-width:0.5;stroke-dasharray:5.0,5.0;" x1="1650" x2="1650" y1="145.5859" y2="1400.7656"/><line style="stroke:#181818;stroke-width:0.5;stroke-dasharray:5.0,5.0;" x1="1730" x2="1730" y1="145.5859" y2="1400.7656"/><line style="stroke:#181818;stroke-width:0.5;stroke-dasharray:5.0,5.0;" x1="1861" x2="1861" y1="145.5859" y2="1400.7656"/><text fill="#000000" font-family="sans-serif" font-size="14" lengthAdjust="spacing" textLength="32" x="5" y="142.2842">User</text><ellipse cx="24" cy="77.7891" fill="#E2E2F0" rx="8" ry="8" style="stroke:#181818;stroke-width:0.5;"/><path d="M24,85.7891 L24,112.7891 M11,93.7891 L37,93.7891 M24,112.7891 L11,127.7891 M24,112.7891 L37,127.7891 " fill="none" style="stroke:#181818;stroke-width:0.5;"/><rect fill="#E2E2F0" height="46.5938" rx="2.5" ry="2.5" style="stroke:#181818;stroke-width:0.5;" width="53" x="132.5" y="97.9922"/><text fill="#000000" font-family="sans-serif" font-size="14" lengthAdjust="spacing" textLength="21" x="148.5" y="117.9873">API</text><text fill="#000000" font-family="sans-serif" font-size="14" lengthAdjust="spacing" textLength="39" x="139.5" y="134.2842">(RPC)</text><rect fill="#E2E2F0" height="30.2969" rx="2.5" ry="2.5" style="stroke:#181818;stroke-width:0.5;" width="58" x="195.5" y="114.2891"/><text fill="#000000" font-family="sans-serif" font-size="14" lengthAdjust="spacing" textLength="44" x="202.5" y="134.2842">Prover</text><rect fill="#E2E2F0" height="30.2969" rx="2.5" ry="2.5" style="stroke:#181818;stroke-width:0.5;" width="75" x="283" y="114.2891"/><text fill="#000000" font-family="sans-serif" font-size="14" lengthAdjust="spacing" textLength="61" x="290" y="134.2842">Executor</text><rect fill="#E2E2F0" height="30.2969" rx="2.5" ry="2.5" style="stroke:#181818;stroke-width:0.5;" width="77" x="371" y="114.2891"/><text fill="#000000" font-family="sans-serif" font-size="14" lengthAdjust="spacing" textLength="63" x="378" y="134.2842">Proposer</text><rect fill="#E2E2F0" height="30.2969" rx="2.5" ry="2.5" style="stroke:#181818;stroke-width:0.5;" width="88" x="458" y="114.2891"/><text fill="#000000" font-family="sans-serif" font-size="14" lengthAdjust="spacing" textLength="74" x="465" y="134.2842">Challenger</text><rect fill="#E2E2F0" height="46.5938" rx="2.5" ry="2.5" style="stroke:#181818;stroke-width:0.5;" width="73" x="595.5" y="97.9922"/><text fill="#000000" font-family="sans-serif" font-size="14" lengthAdjust="spacing" textLength="43" x="610.5" y="117.9873">Rollup</text><text fill="#000000" font-family="sans-serif" font-size="14" lengthAdjust="spacing" textLength="59" x="602.5" y="134.2842">Contract</text><rect fill="#E2E2F0" height="62.8906" rx="2.5" ry="2.5" style="stroke:#181818;stroke-width:0.5;" width="73" x="702.5" y="81.6953"/><text fill="#000000" font-family="sans-serif" font-size="14" lengthAdjust="spacing" textLength="33" x="722.5" y="101.6904">Light</text><text fill="#000000" font-family="sans-serif" font-size="14" lengthAdjust="spacing" textLength="39" x="719.5" y="117.9873">Client</text><text fill="#000000" font-family="sans-serif" font-size="14" lengthAdjust="spacing" textLength="59" x="709.5" y="134.2842">Contract</text><rect fill="#E2E2F0" height="46.5938" rx="2.5" ry="2.5" style="stroke:#181818;stroke-width:0.5;" width="73" x="785.5" y="97.9922"/><text fill="#000000" font-family="sans-serif" font-size="14" lengthAdjust="spacing" textLength="26" x="809" y="117.9873">Fee</text><text fill="#000000" font-family="sans-serif" font-size="14" lengthAdjust="spacing" textLength="59" x="792.5" y="134.2842">Contract</text><rect fill="#E2E2F0" height="46.5938" rx="2.5" ry="2.5" style="stroke:#181818;stroke-width:0.5;" width="62" x="878.5" y="97.9922"/><text fill="#000000" font-family="sans-serif" font-size="14" lengthAdjust="spacing" textLength="48" x="885.5" y="117.9873">Submit</text><text fill="#000000" font-family="sans-serif" font-size="14" lengthAdjust="spacing" textLength="21" x="899" y="134.2842">API</text><rect fill="#E2E2F0" height="46.5938" rx="2.5" ry="2.5" style="stroke:#181818;stroke-width:0.5;" width="55" x="950.5" y="97.9922"/><text fill="#000000" font-family="sans-serif" font-size="14" lengthAdjust="spacing" textLength="41" x="957.5" y="117.9873">Query</text><text fill="#000000" font-family="sans-serif" font-size="14" lengthAdjust="spacing" textLength="21" x="967.5" y="134.2842">API</text><rect fill="#E2E2F0" height="62.8906" rx="2.5" ry="2.5" style="stroke:#181818;stroke-width:0.5;" width="70" x="1025.5" y="81.6953"/><text fill="#000000" font-family="sans-serif" font-size="14" lengthAdjust="spacing" textLength="56" x="1032.5" y="101.6904">HotShot</text><text fill="#000000" font-family="sans-serif" font-size="14" lengthAdjust="spacing" textLength="47" x="1037" y="117.9873">Events</text><text fill="#000000" font-family="sans-serif" font-size="14" lengthAdjust="spacing" textLength="49" x="1036" y="134.2842">Stream</text><rect fill="#E2E2F0" height="46.5938" rx="2.5" ry="2.5" style="stroke:#181818;stroke-width:0.5;" width="77" x="1105.5" y="97.9922"/><text fill="#000000" font-family="sans-serif" font-size="14" lengthAdjust="spacing" textLength="63" x="1112.5" y="117.9873">Validated</text><text fill="#000000" font-family="sans-serif" font-size="14" lengthAdjust="spacing" textLength="36" x="1126" y="134.2842">State</text><rect fill="#E2E2F0" height="46.5938" rx="2.5" ry="2.5" style="stroke:#181818;stroke-width:0.5;" width="58" x="1212" y="97.9922"/><text fill="#000000" font-family="sans-serif" font-size="14" lengthAdjust="spacing" textLength="36" x="1223" y="117.9873">State</text><text fill="#000000" font-family="sans-serif" font-size="14" lengthAdjust="spacing" textLength="44" x="1219" y="134.2842">Signer</text><rect fill="#E2E2F0" height="30.2969" rx="2.5" ry="2.5" style="stroke:#181818;stroke-width:0.5;" width="62" x="1290" y="114.2891"/><text fill="#000000" font-family="sans-serif" font-size="14" lengthAdjust="spacing" textLength="48" x="1297" y="134.2842">Builder</text><rect fill="#E2E2F0" height="46.5938" rx="2.5" ry="2.5" style="stroke:#181818;stroke-width:0.5;" width="70" x="1410" y="97.9922"/><text fill="#000000" font-family="sans-serif" font-size="14" lengthAdjust="spacing" textLength="56" x="1417" y="117.9873">HotShot</text><text fill="#000000" font-family="sans-serif" font-size="14" lengthAdjust="spacing" textLength="47" x="1421.5" y="134.2842">Leader</text><rect fill="#E2E2F0" height="30.2969" rx="2.5" ry="2.5" style="stroke:#181818;stroke-width:0.5;" width="45" x="1490" y="114.2891"/><text fill="#000000" font-family="sans-serif" font-size="14" lengthAdjust="spacing" textLength="31" x="1497" y="134.2842">CDN</text><rect fill="#E2E2F0" height="30.2969" rx="2.5" ry="2.5" style="stroke:#181818;stroke-width:0.5;" width="60" x="1545" y="114.2891"/><text fill="#000000" font-family="sans-serif" font-size="14" lengthAdjust="spacing" textLength="46" x="1552" y="134.2842">Libp2p</text><rect fill="#E2E2F0" height="46.5938" rx="2.5" ry="2.5" style="stroke:#181818;stroke-width:0.5;" width="70" x="1615" y="97.9922"/><text fill="#000000" font-family="sans-serif" font-size="14" lengthAdjust="spacing" textLength="56" x="1622" y="117.9873">HotShot</text><text fill="#000000" font-family="sans-serif" font-size="14" lengthAdjust="spacing" textLength="53" x="1623.5" y="134.2842">replicas</text><rect fill="#E2E2F0" height="79.1875" rx="2.5" ry="2.5" style="stroke:#181818;stroke-width:0.5;" width="70" x="1695" y="65.3984"/><text fill="#000000" font-family="sans-serif" font-size="14" lengthAdjust="spacing" textLength="56" x="1702" y="85.3936">HotShot</text><text fill="#000000" font-family="sans-serif" font-size="14" lengthAdjust="spacing" textLength="35" x="1712.5" y="101.6904">state</text><text fill="#000000" font-family="sans-serif" font-size="14" lengthAdjust="spacing" textLength="32" x="1714" y="117.9873">relay</text><text fill="#000000" font-family="sans-serif" font-size="14" lengthAdjust="spacing" textLength="49" x="1705.5" y="134.2842">service</text><rect fill="#E2E2F0" height="79.1875" rx="2.5" ry="2.5" style="stroke:#181818;stroke-width:0.5;" width="70" x="1826" y="65.3984"/><text fill="#000000" font-family="sans-serif" font-size="14" lengthAdjust="spacing" textLength="56" x="1833" y="85.3936">HotShot</text><text fill="#000000" font-family="sans-serif" font-size="14" lengthAdjust="spacing" textLength="35" x="1843.5" y="101.6904">state</text><text fill="#000000" font-family="sans-serif" font-size="14" lengthAdjust="spacing" textLength="44" x="1839" y="117.9873">prover</text><text fill="#000000" font-family="sans-serif" font-size="14" lengthAdjust="spacing" textLength="49" x="1836.5" y="134.2842">service</text><text fill="#000000" font-family="sans-serif" font-size="14" lengthAdjust="spacing" textLength="32" x="5" y="1473.7607">User</text><ellipse cx="24" cy="1409.2656" fill="#E2E2F0" rx="8" ry="8" style="stroke:#181818;stroke-width:0.5;"/><path d="M24,1417.2656 L24,1444.2656 M11,1425.2656 L37,1425.2656 M24,1444.2656 L11,1459.2656 M24,1444.2656 L37,1459.2656 " fill="none" style="stroke:#181818;stroke-width:0.5;"/><rect fill="#E2E2F0" height="46.5938" rx="2.5" ry="2.5" style="stroke:#181818;stroke-width:0.5;" width="53" x="132.5" y="1400.7656"/><text fill="#000000" font-family="sans-serif" font-size="14" lengthAdjust="spacing" textLength="21" x="148.5" y="1420.7607">API</text><text fill="#000000" font-family="sans-serif" font-size="14" lengthAdjust="spacing" textLength="39" x="139.5" y="1437.0576">(RPC)</text><rect fill="#E2E2F0" height="30.2969" rx="2.5" ry="2.5" style="stroke:#181818;stroke-width:0.5;" width="58" x="195.5" y="1400.7656"/><text fill="#000000" font-family="sans-serif" font-size="14" lengthAdjust="spacing" textLength="44" x="202.5" y="1420.7607">Prover</text><rect fill="#E2E2F0" height="30.2969" rx="2.5" ry="2.5" style="stroke:#181818;stroke-width:0.5;" width="75" x="283" y="1400.7656"/><text fill="#000000" font-family="sans-serif" font-size="14" lengthAdjust="spacing" textLength="61" x="290" y="1420.7607">Executor</text><rect fill="#E2E2F0" height="30.2969" rx="2.5" ry="2.5" style="stroke:#181818;stroke-width:0.5;" width="77" x="371" y="1400.7656"/><text fill="#000000" font-family="sans-serif" font-size="14" lengthAdjust="spacing" textLength="63" x="378" y="1420.7607">Proposer</text><rect fill="#E2E2F0" height="30.2969" rx="2.5" ry="2.5" style="stroke:#181818;stroke-width:0.5;" width="88" x="458" y="1400.7656"/><text fill="#000000" font-family="sans-serif" font-size="14" lengthAdjust="spacing" textLength="74" x="465" y="1420.7607">Challenger</text><rect fill="#E2E2F0" height="46.5938" rx="2.5" ry="2.5" style="stroke:#181818;stroke-width:0.5;" width="73" x="595.5" y="1400.7656"/><text fill="#000000" font-family="sans-serif" font-size="14" lengthAdjust="spacing" textLength="43" x="610.5" y="1420.7607">Rollup</text><text fill="#000000" font-family="sans-serif" font-size="14" lengthAdjust="spacing" textLength="59" x="602.5" y="1437.0576">Contract</text><rect fill="#E2E2F0" height="62.8906" rx="2.5" ry="2.5" style="stroke:#181818;stroke-width:0.5;" width="73" x="702.5" y="1400.7656"/><text fill="#000000" font-family="sans-serif" font-size="14" lengthAdjust="spacing" textLength="33" x="722.5" y="1420.7607">Light</text><text fill="#000000" font-family="sans-serif" font-size="14" lengthAdjust="spacing" textLength="39" x="719.5" y="1437.0576">Client</text><text fill="#000000" font-family="sans-serif" font-size="14" lengthAdjust="spacing" textLength="59" x="709.5" y="1453.3545">Contract</text><rect fill="#E2E2F0" height="46.5938" rx="2.5" ry="2.5" style="stroke:#181818;stroke-width:0.5;" width="73" x="785.5" y="1400.7656"/><text fill="#000000" font-family="sans-serif" font-size="14" lengthAdjust="spacing" textLength="26" x="809" y="1420.7607">Fee</text><text fill="#000000" font-family="sans-serif" font-size="14" lengthAdjust="spacing" textLength="59" x="792.5" y="1437.0576">Contract</text><rect fill="#E2E2F0" height="46.5938" rx="2.5" ry="2.5" style="stroke:#181818;stroke-width:0.5;" width="62" x="878.5" y="1400.7656"/><text fill="#000000" font-family="sans-serif" font-size="14" lengthAdjust="spacing" textLength="48" x="885.5" y="1420.7607">Submit</text><text fill="#000000" font-family="sans-serif" font-size="14" lengthAdjust="spacing" textLength="21" x="899" y="1437.0576">API</text><rect fill="#E2E2F0" height="46.5938" rx="2.5" ry="2.5" style="stroke:#181818;stroke-width:0.5;" width="55" x="950.5" y="1400.7656"/><text fill="#000000" font-family="sans-serif" font-size="14" lengthAdjust="spacing" textLength="41" x="957.5" y="1420.7607">Query</text><text fill="#000000" font-family="sans-serif" font-size="14" lengthAdjust="spacing" textLength="21" x="967.5" y="1437.0576">API</text><rect fill="#E2E2F0" height="62.8906" rx="2.5" ry="2.5" style="stroke:#181818;stroke-width:0.5;" width="70" x="1025.5" y="1400.7656"/><text fill="#000000" font-family="sans-serif" font-size="14" lengthAdjust="spacing" textLength="56" x="1032.5" y="1420.7607">HotShot</text><text fill="#000000" font-family="sans-serif" font-size="14" lengthAdjust="spacing" textLength="47" x="1037" y="1437.0576">Events</text><text fill="#000000" font-family="sans-serif" font-size="14" lengthAdjust="spacing" textLength="49" x="1036" y="1453.3545">Stream</text><rect fill="#E2E2F0" height="46.5938" rx="2.5" ry="2.5" style="stroke:#181818;stroke-width:0.5;" width="77" x="1105.5" y="1400.7656"/><text fill="#000000" font-family="sans-serif" font-size="14" lengthAdjust="spacing" textLength="63" x="1112.5" y="1420.7607">Validated</text><text fill="#000000" font-family="sans-serif" font-size="14" lengthAdjust="spacing" textLength="36" x="1126" y="1437.0576">State</text><rect fill="#E2E2F0" height="46.5938" rx="2.5" ry="2.5" style="stroke:#181818;stroke-width:0.5;" width="58" x="1212" y="1400.7656"/><text fill="#000000" font-family="sans-serif" font-size="14" lengthAdjust="spacing" textLength="36" x="1223" y="1420.7607">State</text><text fill="#000000" font-family="sans-serif" font-size="14" lengthAdjust="spacing" textLength="44" x="1219" y="1437.0576">Signer</text><rect fill="#E2E2F0" height="30.2969" rx="2.5" ry="2.5" style="stroke:#181818;stroke-width:0.5;" width="62" x="1290" y="1400.7656"/><text fill="#000000" font-family="sans-serif" font-size="14" lengthAdjust="spacing" textLength="48" x="1297" y="1420.7607">Builder</text><rect fill="#E2E2F0" height="46.5938" rx="2.5" ry="2.5" style="stroke:#181818;stroke-width:0.5;" width="70" x="1410" y="1400.7656"/><text fill="#000000" font-family="sans-serif" font-size="14" lengthAdjust="spacing" textLength="56" x="1417" y="1420.7607">HotShot</text><text fill="#000000" font-family="sans-serif" font-size="14" lengthAdjust="spacing" textLength="47" x="1421.5" y="1437.0576">Leader</text><rect fill="#E2E2F0" height="30.2969" rx="2.5" ry="2.5" style="stroke:#181818;stroke-width:0.5;" width="45" x="1490" y="1400.7656"/><text fill="#000000" font-family="sans-serif" font-size="14" lengthAdjust="spacing" textLength="31" x="1497" y="1420.7607">CDN</text><rect fill="#E2E2F0" height="30.2969" rx="2.5" ry="2.5" style="stroke:#181818;stroke-width:0.5;" width="60" x="1545" y="1400.7656"/><text fill="#000000" font-family="sans-serif" font-size="14" lengthAdjust="spacing" textLength="46" x="1552" y="1420.7607">Libp2p</text><rect fill="#E2E2F0" height="46.5938" rx="2.5" ry="2.5" style="stroke:#181818;stroke-width:0.5;" width="70" x="1615" y="1400.7656"/><text fill="#000000" font-family="sans-serif" font-size="14" lengthAdjust="spacing" textLength="56" x="1622" y="1420.7607">HotShot</text><text fill="#000000" font-family="sans-serif" font-size="14" lengthAdjust="spacing" textLength="53" x="1623.5" y="1437.0576">replicas</text><rect fill="#E2E2F0" height="79.1875" rx="2.5" ry="2.5" style="stroke:#181818;stroke-width:0.5;" width="70" x="1695" y="1400.7656"/><text fill="#000000" font-family="sans-serif" font-size="14" lengthAdjust="spacing" textLength="56" x="1702" y="1420.7607">HotShot</text><text fill="#000000" font-family="sans-serif" font-size="14" lengthAdjust="spacing" textLength="35" x="1712.5" y="1437.0576">state</text><text fill="#000000" font-family="sans-serif" font-size="14" lengthAdjust="spacing" textLength="32" x="1714" y="1453.3545">relay</text><text fill="#000000" font-family="sans-serif" font-size="14" lengthAdjust="spacing" textLength="49" x="1705.5" y="1469.6514">service</text><rect fill="#E2E2F0" height="79.1875" rx="2.5" ry="2.5" style="stroke:#181818;stroke-width:0.5;" width="70" x="1826" y="1400.7656"/><text fill="#000000" font-family="sans-serif" font-size="14" lengthAdjust="spacing" textLength="56" x="1833" y="1420.7607">HotShot</text><text fill="#000000" font-family="sans-serif" font-size="14" lengthAdjust="spacing" textLength="35" x="1843.5" y="1437.0576">state</text><text fill="#000000" font-family="sans-serif" font-size="14" lengthAdjust="spacing" textLength="44" x="1839" y="1453.3545">prover</text><text fill="#000000" font-family="sans-serif" font-size="14" lengthAdjust="spacing" textLength="49" x="1836.5" y="1469.6514">service</text><path d="M806,157.5859 L958,157.5859 L958,164.7188 L948,174.7188 L806,174.7188 L806,157.5859 " fill="#EEEEEE" style="stroke:#000000;stroke-width:1.5;"/><rect fill="none" height="56.2656" style="stroke:#000000;stroke-width:1.5;" width="531" x="806" y="157.5859"/><text fill="#000000" font-family="sans-serif" font-size="13" font-weight="bold" lengthAdjust="spacing" textLength="107" x="821" y="170.6528">1. Fee deposit</text><polygon fill="#181818" points="833,201.8516,823,205.8516,833,209.8516,829,205.8516" style="stroke:#181818;stroke-width:1.0;"/><line style="stroke:#181818;stroke-width:1.0;" x1="827" x2="1320" y1="205.8516" y2="205.8516"/><text fill="#000000" font-family="sans-serif" font-size="13" lengthAdjust="spacing" textLength="71" x="839" y="200.7856">fee deposit</text><path d="M8,231.8516 L253,231.8516 L253,238.9844 L243,248.9844 L8,248.9844 L8,231.8516 " fill="#EEEEEE" style="stroke:#000000;stroke-width:1.5;"/><rect fill="none" height="114.5313" style="stroke:#000000;stroke-width:1.5;" width="1329" x="8" y="231.8516"/><text fill="#000000" font-family="sans-serif" font-size="13" font-weight="bold" lengthAdjust="spacing" textLength="200" x="23" y="244.9185">2. Transaction submisssion</text><polygon fill="#181818" points="147,276.1172,157,280.1172,147,284.1172,151,280.1172" style="stroke:#181818;stroke-width:1.0;"/><line style="stroke:#181818;stroke-width:1.0;" x1="24" x2="153" y1="280.1172" y2="280.1172"/><text fill="#000000" font-family="sans-serif" font-size="13" lengthAdjust="spacing" textLength="111" x="31" y="275.0513">rollup transaction</text><polygon fill="#181818" points="897.5,305.25,907.5,309.25,897.5,313.25,901.5,309.25" style="stroke:#181818;stroke-width:1.0;"/><line style="stroke:#181818;stroke-width:1.0;" x1="159" x2="903.5" y1="309.25" y2="309.25"/><text fill="#000000" font-family="sans-serif" font-size="13" lengthAdjust="spacing" textLength="72" x="166" y="304.1841">transaction</text><polygon fill="#181818" points="1309,334.3828,1319,338.3828,1309,342.3828,1313,338.3828" style="stroke:#181818;stroke-width:1.0;"/><line style="stroke:#181818;stroke-width:1.0;" x1="1060.5" x2="1315" y1="338.3828" y2="338.3828"/><text fill="#000000" font-family="sans-serif" font-size="13" lengthAdjust="spacing" textLength="79" x="1067.5" y="333.3169">transactions</text><path d="M1305,364.3828 L1597,364.3828 L1597,371.5156 L1587,381.5156 L1305,381.5156 L1305,364.3828 " fill="#EEEEEE" style="stroke:#000000;stroke-width:1.5;"/><rect fill="none" height="85.3984" style="stroke:#000000;stroke-width:1.5;" width="308" x="1305" y="364.3828"/><text fill="#000000" font-family="sans-serif" font-size="13" font-weight="bold" lengthAdjust="spacing" textLength="247" x="1320" y="377.4497">3. Leader obtains Espresso block</text><polygon fill="#181818" points="1433,408.6484,1443,412.6484,1433,416.6484,1437,412.6484" style="stroke:#181818;stroke-width:1.0;"/><line style="stroke:#181818;stroke-width:1.0;" x1="1321" x2="1439" y1="412.6484" y2="412.6484"/><text fill="#000000" font-family="sans-serif" font-size="13" lengthAdjust="spacing" textLength="100" x="1328" y="407.5825">available blocks</text><polygon fill="#181818" points="1332,437.7813,1322,441.7813,1332,445.7813,1328,441.7813" style="stroke:#181818;stroke-width:1.0;"/><line style="stroke:#181818;stroke-width:1.0;" x1="1326" x2="1444" y1="441.7813" y2="441.7813"/><text fill="#000000" font-family="sans-serif" font-size="13" lengthAdjust="spacing" textLength="71" x="1338" y="436.7153">claim block</text><path d="M806,467.7813 L1011,467.7813 L1011,474.9141 L1001,484.9141 L806,484.9141 L806,467.7813 " fill="#EEEEEE" style="stroke:#000000;stroke-width:1.5;"/><rect fill="none" height="142.6641" style="stroke:#000000;stroke-width:1.5;" width="860" x="806" y="467.7813"/><text fill="#000000" font-family="sans-serif" font-size="13" font-weight="bold" lengthAdjust="spacing" textLength="160" x="821" y="480.8481">4. HotShot consensus</text><polygon fill="#181818" points="1456,512.0469,1446,516.0469,1456,520.0469,1452,516.0469" style="stroke:#181818;stroke-width:1.0;"/><polygon fill="#181818" points="1638,512.0469,1648,516.0469,1638,520.0469,1642,516.0469" style="stroke:#181818;stroke-width:1.0;"/><line style="stroke:#181818;stroke-width:1.0;" x1="1450" x2="1644" y1="516.0469" y2="516.0469"/><text fill="#000000" font-family="sans-serif" font-size="13" lengthAdjust="spacing" textLength="138" x="1462" y="510.981">consensus messages</text><polygon fill="#181818" points="1456,512.0469,1446,516.0469,1456,520.0469,1452,516.0469" style="stroke:#181818;stroke-width:1.0;"/><polygon fill="#181818" points="1563,512.0469,1573,516.0469,1563,520.0469,1567,516.0469" style="stroke:#181818;stroke-width:1.0;"/><line style="stroke:#181818;stroke-width:1.0;" x1="1450" x2="1569" y1="516.0469" y2="516.0469"/><polygon fill="#181818" points="1586,512.0469,1576,516.0469,1586,520.0469,1582,516.0469" style="stroke:#181818;stroke-width:1.0;"/><polygon fill="#181818" points="1638,512.0469,1648,516.0469,1638,520.0469,1642,516.0469" style="stroke:#181818;stroke-width:1.0;"/><line style="stroke:#181818;stroke-width:1.0;" x1="1580" x2="1644" y1="516.0469" y2="516.0469"/><polygon fill="#181818" points="1523.5,512.0469,1513.5,516.0469,1523.5,520.0469,1519.5,516.0469" style="stroke:#181818;stroke-width:1.0;"/><line style="stroke:#181818;stroke-width:1.0;" x1="1517.5" x2="1649" y1="516.0469" y2="516.0469"/><polygon fill="#181818" points="1132,541.1797,1142,545.1797,1132,549.1797,1136,545.1797" style="stroke:#181818;stroke-width:1.0;"/><line style="stroke:#181818;stroke-width:1.0;" x1="822" x2="1138" y1="545.1797" y2="545.1797"/><text fill="#000000" font-family="sans-serif" font-size="13" lengthAdjust="spacing" textLength="111" x="829" y="540.1138">credit fee deposit</text><line style="stroke:#181818;stroke-width:1.0;" x1="1144" x2="1186" y1="589.4453" y2="589.4453"/><line style="stroke:#181818;stroke-width:1.0;" x1="1186" x2="1186" y1="589.4453" y2="602.4453"/><line style="stroke:#181818;stroke-width:1.0;" x1="1145" x2="1186" y1="602.4453" y2="602.4453"/><polygon fill="#181818" points="1155,598.4453,1145,602.4453,1155,606.4453,1151,602.4453" style="stroke:#181818;stroke-width:1.0;"/><text fill="#000000" font-family="sans-serif" font-size="13" lengthAdjust="spacing" textLength="83" x="1151" y="569.2466">apply header</text><text fill="#000000" font-family="sans-serif" font-size="13" lengthAdjust="spacing" textLength="68" x="1151" y="584.3794">charge fee</text><path d="M208.5,628.4453 L448.5,628.4453 L448.5,635.5781 L438.5,645.5781 L208.5,645.5781 L208.5,628.4453 " fill="#EEEEEE" style="stroke:#000000;stroke-width:1.5;"/><rect fill="none" height="172.9297" style="stroke:#000000;stroke-width:1.5;" width="785.5" x="208.5" y="628.4453"/><text fill="#000000" font-family="sans-serif" font-size="13" font-weight="bold" lengthAdjust="spacing" textLength="195" x="223.5" y="641.5122">5. Rollup block production</text><polygon fill="#181818" points="331.5,687.8438,321.5,691.8438,331.5,695.8438,327.5,691.8438" style="stroke:#181818;stroke-width:1.0;"/><line style="stroke:#181818;stroke-width:1.0;" x1="325.5" x2="977" y1="691.8438" y2="691.8438"/><text fill="#000000" font-family="sans-serif" font-size="13" lengthAdjust="spacing" textLength="111" x="337.5" y="671.645">Espresso header,</text><text fill="#000000" font-family="sans-serif" font-size="13" lengthAdjust="spacing" textLength="173" x="337.5" y="686.7778">transactions in namespace</text><line style="stroke:#181818;stroke-width:1.0;" x1="320.5" x2="362.5" y1="751.2422" y2="751.2422"/><line style="stroke:#181818;stroke-width:1.0;" x1="362.5" x2="362.5" y1="751.2422" y2="764.2422"/><line style="stroke:#181818;stroke-width:1.0;" x1="321.5" x2="362.5" y1="764.2422" y2="764.2422"/><polygon fill="#181818" points="331.5,760.2422,321.5,764.2422,331.5,768.2422,327.5,764.2422" style="stroke:#181818;stroke-width:1.0;"/><text fill="#000000" font-family="sans-serif" font-size="13" lengthAdjust="spacing" textLength="34" x="327.5" y="715.9106">verify</text><text fill="#000000" font-family="sans-serif" font-size="13" lengthAdjust="spacing" textLength="75" x="327.5" y="731.0435">namespace</text><text fill="#000000" font-family="sans-serif" font-size="13" lengthAdjust="spacing" textLength="33" x="327.5" y="746.1763">proof</text><polygon fill="#181818" points="235.5,789.375,225.5,793.375,235.5,797.375,231.5,793.375" style="stroke:#181818;stroke-width:1.0;"/><line style="stroke:#181818;stroke-width:1.0;" x1="229.5" x2="319.5" y1="793.375" y2="793.375"/><text fill="#000000" font-family="sans-serif" font-size="13" lengthAdjust="spacing" textLength="72" x="241.5" y="788.3091">rollup block</text><path d="M723,819.375 L907,819.375 L907,826.5078 L897,836.5078 L723,836.5078 L723,819.375 " fill="#EEEEEE" style="stroke:#000000;stroke-width:1.5;"/><rect fill="none" height="171.7969" style="stroke:#000000;stroke-width:1.5;" width="1154" x="723" y="819.375"/><text fill="#000000" font-family="sans-serif" font-size="13" font-weight="bold" lengthAdjust="spacing" textLength="139" x="738" y="832.4419">6. HotShot proving</text><polygon fill="#181818" points="1718,863.6406,1728,867.6406,1718,871.6406,1722,867.6406" style="stroke:#181818;stroke-width:1.0;"/><line style="stroke:#181818;stroke-width:1.0;" x1="1241" x2="1724" y1="867.6406" y2="867.6406"/><text fill="#000000" font-family="sans-serif" font-size="13" lengthAdjust="spacing" textLength="101" x="1248" y="862.5747">state, signature</text><polygon fill="#181818" points="1849,907.9063,1859,911.9063,1849,915.9063,1853,911.9063" style="stroke:#181818;stroke-width:1.0;"/><line style="stroke:#181818;stroke-width:1.0;" x1="1730" x2="1855" y1="911.9063" y2="911.9063"/><text fill="#000000" font-family="sans-serif" font-size="13" lengthAdjust="spacing" textLength="37" x="1737" y="891.7075">state,</text><text fill="#000000" font-family="sans-serif" font-size="13" lengthAdjust="spacing" textLength="107" x="1737" y="906.8403">signature bundle</text><polygon fill="#181818" points="750,937.0391,740,941.0391,750,945.0391,746,941.0391" style="stroke:#181818;stroke-width:1.0;"/><line style="stroke:#181818;stroke-width:1.0;" x1="744" x2="1860" y1="941.0391" y2="941.0391"/><text fill="#000000" font-family="sans-serif" font-size="13" lengthAdjust="spacing" textLength="33" x="756" y="935.9731">proof</text><line style="stroke:#181818;stroke-width:1.0;" x1="739" x2="781" y1="970.1719" y2="970.1719"/><line style="stroke:#181818;stroke-width:1.0;" x1="781" x2="781" y1="970.1719" y2="983.1719"/><line style="stroke:#181818;stroke-width:1.0;" x1="740" x2="781" y1="983.1719" y2="983.1719"/><polygon fill="#181818" points="750,979.1719,740,983.1719,750,987.1719,746,983.1719" style="stroke:#181818;stroke-width:1.0;"/><text fill="#000000" font-family="sans-serif" font-size="13" lengthAdjust="spacing" textLength="34" x="746" y="965.106">verify</text><path d="M208.5,1009.1719 L379.5,1009.1719 L379.5,1016.3047 L369.5,1026.3047 L208.5,1026.3047 L208.5,1009.1719 " fill="#EEEEEE" style="stroke:#000000;stroke-width:1.5;"/><rect fill="none" height="145.6641" style="stroke:#000000;stroke-width:1.5;" width="571.5" x="208.5" y="1009.1719"/><text fill="#000000" font-family="sans-serif" font-size="13" font-weight="bold" lengthAdjust="spacing" textLength="126" x="223.5" y="1022.2388">7. Rollup proving</text><polygon fill="#181818" points="620,1053.4375,630,1057.4375,620,1061.4375,624,1057.4375" style="stroke:#181818;stroke-width:1.0;"/><line style="stroke:#181818;stroke-width:1.0;" x1="224.5" x2="626" y1="1057.4375" y2="1057.4375"/><text fill="#000000" font-family="sans-serif" font-size="13" lengthAdjust="spacing" textLength="109" x="231.5" y="1052.3716">rollup state proof</text><path d="M616,1069.4375 L702,1069.4375 L702,1076.5703 L692,1086.5703 L616,1086.5703 L616,1069.4375 " fill="#EEEEEE" style="stroke:#000000;stroke-width:1.5;"/><rect fill="none" height="71.3984" style="stroke:#000000;stroke-width:1.5;" width="139" x="616" y="1069.4375"/><text fill="#000000" font-family="sans-serif" font-size="13" font-weight="bold" lengthAdjust="spacing" textLength="41" x="631" y="1082.5044">verify</text><polygon fill="#181818" points="643,1128.8359,633,1132.8359,643,1136.8359,639,1132.8359" style="stroke:#181818;stroke-width:1.0;"/><line style="stroke:#181818;stroke-width:1.0;" x1="637" x2="738" y1="1132.8359" y2="1132.8359"/><text fill="#000000" font-family="sans-serif" font-size="13" lengthAdjust="spacing" textLength="53" x="649" y="1112.6372">HotShot</text><text fill="#000000" font-family="sans-serif" font-size="13" lengthAdjust="spacing" textLength="83" x="649" y="1127.77">commitment</text><path d="M374.5,1172.8359 L545.5,1172.8359 L545.5,1179.9688 L535.5,1189.9688 L374.5,1189.9688 L374.5,1172.8359 " fill="#EEEEEE" style="stroke:#000000;stroke-width:1.5;"/><rect fill="none" height="203.9297" style="stroke:#000000;stroke-width:1.5;" width="405.5" x="374.5" y="1172.8359"/><text fill="#000000" font-family="sans-serif" font-size="13" font-weight="bold" lengthAdjust="spacing" textLength="126" x="389.5" y="1185.9028">8. Rollup dispute</text><polygon fill="#181818" points="620,1217.1016,630,1221.1016,620,1225.1016,624,1221.1016" style="stroke:#181818;stroke-width:1.0;"/><line style="stroke:#181818;stroke-width:1.0;" x1="502" x2="626" y1="1221.1016" y2="1221.1016"/><text fill="#000000" font-family="sans-serif" font-size="13" lengthAdjust="spacing" textLength="81" x="509" y="1216.0356">start dispute</text><path d="M393.5,1233.1016 L470.5,1233.1016 L470.5,1240.2344 L460.5,1250.2344 L393.5,1250.2344 L393.5,1233.1016 " fill="#EEEEEE" style="stroke:#000000;stroke-width:1.5;"/><rect fill="none" height="129.6641" style="stroke:#000000;stroke-width:1.5;" width="361.5" x="393.5" y="1233.1016"/><text fill="#000000" font-family="sans-serif" font-size="13" font-weight="bold" lengthAdjust="spacing" textLength="32" x="408.5" y="1246.1685">loop</text><text fill="#000000" font-family="sans-serif" font-size="11" font-weight="bold" lengthAdjust="spacing" textLength="150" x="485.5" y="1245.312">[until dispute resolved]</text><polygon fill="#181818" points="620,1277.3672,630,1281.3672,620,1285.3672,624,1281.3672" style="stroke:#181818;stroke-width:1.0;"/><line style="stroke:#181818;stroke-width:1.0;" x1="409.5" x2="626" y1="1281.3672" y2="1281.3672"/><text fill="#000000" font-family="sans-serif" font-size="13" lengthAdjust="spacing" textLength="106" x="416.5" y="1276.3013">continue dispute</text><polygon fill="#181818" points="643,1321.6328,633,1325.6328,643,1329.6328,639,1325.6328" style="stroke:#181818;stroke-width:1.0;"/><line style="stroke:#181818;stroke-width:1.0;stroke-dasharray:2.0,2.0;" x1="637" x2="738" y1="1325.6328" y2="1325.6328"/><text fill="#000000" font-family="sans-serif" font-size="13" lengthAdjust="spacing" textLength="53" x="649" y="1305.4341">HotShot</text><text fill="#000000" font-family="sans-serif" font-size="13" lengthAdjust="spacing" textLength="83" x="649" y="1320.5669">commitment</text><polygon fill="#181818" points="620,1350.7656,630,1354.7656,620,1358.7656,624,1354.7656" style="stroke:#181818;stroke-width:1.0;"/><line style="stroke:#181818;stroke-width:1.0;" x1="502" x2="626" y1="1354.7656" y2="1354.7656"/><text fill="#000000" font-family="sans-serif" font-size="13" lengthAdjust="spacing" textLength="106" x="509" y="1349.6997">continue dispute</text><!--SRC=[XLPjQzim4FwUNt5BOMpG1TgzOiPWpR8No4gNR8D1lYZsrH6L9LUIqsQ_VgSNst6LTFtGMdVFdPvxLP_KcfKL0ulgBrZTu8ZbLcduPL2FHcjr3re9qTHmCkVbnlv18TJT2EYdPjhodDTCMXX_lFgsaiyMLzFdOs06T9sdc2kjjgYZtd-dcDazvWtTxr4O3mcCFDNA7B2VRfWGA4jIeIo0w8SOnZExGOrD1VEpSGpbYyPTIc3Xert9gP9MKoeyaSKq1NeVX1CSfNs0dn_0VqPyWBf67BAScLgZCGgMUDkWp5739TexfM_Wv3itThUWeBrdXzu3gGBXv88R4dXr2w6gc1ZjTCTafql8BPjrnIaACl3KZ3yVn_zeKEzw-AqxTkWsfeEMNvLTRXHTDTjItinABgr6LeLwUz5XkzzCy89PB9m5_VK6dT2B3Xjw5HdnKiRcC_vpj4yrATT5mqLng44x_dDaHNGe_6VQZ9yk4zcSh-lp-X6t6cl1SsR2cCJ38tWJmjCe61M4PcBBSup69Fg_PPZ4eMcSpYuxfLQq0SucG4qC1TBinUQ8QO8N7rmtP-vNftVMth2rFv_0JysaeVxdIeOUCyRGj_VbDevpHBiZQvUExV4UGpe72UsP9UhGG0uHYGqW9gNqSWAXZg3Mbd5f-XbS2vNVF0moL3e3jcLSiBN000i52ih1xRbWl8gkaijVJI0M0t9YXz8q0qVlNJ9Y1sGz12hYnqeCsAVxwD1TMLI4qz1DLBLdHvRQD8XTyUWy72gwM6F1xQ2q3Zs47J9aTIrsiF7qLZBVC5rYj_G6cNWzWR1tGwfS_nLDNrQ_NjmDxOEGzMKAxazNSh_Gm2L8HdcgMHxMGcivz49DpgzfR3gi7mTrdPZ4zwhhooCLVTDNr1bmMNfFOU5uFsucC_2ZT-hbp3OwKFGw1shl2YYQp1O6wqOM8g03oC7_yn9bq8Sqdpe39mkHfn6yxIgn7u3kRrjCkoHuVj6xXmKNqNMxZCETnzxL3BfzbAkAXhgY6BhL7AWb9Dzr90jkwYPk_lxjRtaIGMq76A5K3OsqNBHYIhjHOek5rxV_MBGUQEWibmqEdBY8eluO-PHBugcBwXy0]--></g></svg>