<svg xmlns="http://www.w3.org/2000/svg" xmlns:xlink="http://www.w3.org/1999/xlink" contentStyleType="text/css" height="1270px" preserveAspectRatio="none" style="width:1063px;height:1270px;background:#FFFFFF;" version="1.1" viewBox="0 0 1063 1270" width="1063px" zoomAndPan="magnify"><defs/><g><rect fill="none" height="309.5938" style="stroke:#000000;stroke-width:1.5;" width="920.5" x="9" y="372.7578"/><rect fill="none" height="476.6563" style="stroke:#000000;stroke-width:1.5;" width="1030.5" x="26" y="696.3516"/><line style="stroke:#181818;stroke-width:0.5;stroke-dasharray:5.0,5.0;" x1="278" x2="278" y1="81.2969" y2="1190.0078"/><line style="stroke:#181818;stroke-width:0.5;stroke-dasharray:5.0,5.0;" x1="469" x2="469" y1="81.2969" y2="1190.0078"/><line style="stroke:#181818;stroke-width:0.5;stroke-dasharray:5.0,5.0;" x1="631" x2="631" y1="81.2969" y2="1190.0078"/><line style="stroke:#181818;stroke-width:0.5;stroke-dasharray:5.0,5.0;" x1="733.5" x2="733.5" y1="81.2969" y2="1190.0078"/><line style="stroke:#181818;stroke-width:0.5;stroke-dasharray:5.0,5.0;" x1="924" x2="924" y1="81.2969" y2="1190.0078"/><text fill="#000000" font-family="sans-serif" font-size="14" lengthAdjust="spacing" textLength="39" x="256" y="77.9951">Client</text><ellipse cx="278.5" cy="13.5" fill="#E2E2F0" rx="8" ry="8" style="stroke:#181818;stroke-width:0.5;"/><path d="M278.5,21.5 L278.5,48.5 M265.5,29.5 L291.5,29.5 M278.5,48.5 L265.5,63.5 M278.5,48.5 L291.5,63.5 " fill="none" style="stroke:#181818;stroke-width:0.5;"/><text fill="#000000" font-family="sans-serif" font-size="14" lengthAdjust="spacing" textLength="39" x="256" y="1202.0029">Client</text><ellipse cx="278.5" cy="1213.8047" fill="#E2E2F0" rx="8" ry="8" style="stroke:#181818;stroke-width:0.5;"/><path d="M278.5,1221.8047 L278.5,1248.8047 M265.5,1229.8047 L291.5,1229.8047 M278.5,1248.8047 L265.5,1263.8047 M278.5,1248.8047 L291.5,1263.8047 " fill="none" style="stroke:#181818;stroke-width:0.5;"/><rect fill="#E2E2F0" height="46.5938" rx="2.5" ry="2.5" style="stroke:#181818;stroke-width:0.5;" width="141" x="399" y="33.7031"/><text fill="#000000" font-family="sans-serif" font-size="14" lengthAdjust="spacing" textLength="65" x="437" y="53.6982">Espresso</text><text fill="#000000" font-family="sans-serif" font-size="14" lengthAdjust="spacing" textLength="127" x="406" y="69.9951">Confirmation Layer</text><rect fill="#E2E2F0" height="46.5938" rx="2.5" ry="2.5" style="stroke:#181818;stroke-width:0.5;" width="141" x="399" y="1189.0078"/><text fill="#000000" font-family="sans-serif" font-size="14" lengthAdjust="spacing" textLength="65" x="437" y="1209.0029">Espresso</text><text fill="#000000" font-family="sans-serif" font-size="14" lengthAdjust="spacing" textLength="127" x="406" y="1225.2998">Confirmation Layer</text><rect fill="#E2E2F0" height="30.2969" rx="2.5" ry="2.5" style="stroke:#181818;stroke-width:0.5;" width="57" x="603" y="50"/><text fill="#000000" font-family="sans-serif" font-size="14" lengthAdjust="spacing" textLength="43" x="610" y="69.9951">Rollup</text><rect fill="#E2E2F0" height="30.2969" rx="2.5" ry="2.5" style="stroke:#181818;stroke-width:0.5;" width="57" x="603" y="1189.0078"/><text fill="#000000" font-family="sans-serif" font-size="14" lengthAdjust="spacing" textLength="43" x="610" y="1209.0029">Rollup</text><rect fill="#E2E2F0" height="46.5938" rx="2.5" ry="2.5" style="stroke:#181818;stroke-width:0.5;" width="90" x="688.5" y="33.7031"/><text fill="#000000" font-family="sans-serif" font-size="14" lengthAdjust="spacing" textLength="76" x="695.5" y="53.6982">Light Client</text><text fill="#000000" font-family="sans-serif" font-size="14" lengthAdjust="spacing" textLength="59" x="704" y="69.9951">Contract</text><rect fill="#E2E2F0" height="46.5938" rx="2.5" ry="2.5" style="stroke:#181818;stroke-width:0.5;" width="90" x="688.5" y="1189.0078"/><text fill="#000000" font-family="sans-serif" font-size="14" lengthAdjust="spacing" textLength="76" x="695.5" y="1209.0029">Light Client</text><text fill="#000000" font-family="sans-serif" font-size="14" lengthAdjust="spacing" textLength="59" x="704" y="1225.2998">Contract</text><rect fill="#E2E2F0" height="46.5938" rx="2.5" ry="2.5" style="stroke:#181818;stroke-width:0.5;" width="73" x="888" y="33.7031"/><text fill="#000000" font-family="sans-serif" font-size="14" lengthAdjust="spacing" textLength="43" x="903" y="53.6982">Rollup</text><text fill="#000000" font-family="sans-serif" font-size="14" lengthAdjust="spacing" textLength="59" x="895" y="69.9951">Contract</text><rect fill="#E2E2F0" height="46.5938" rx="2.5" ry="2.5" style="stroke:#181818;stroke-width:0.5;" width="73" x="888" y="1189.0078"/><text fill="#000000" font-family="sans-serif" font-size="14" lengthAdjust="spacing" textLength="43" x="903" y="1209.0029">Rollup</text><text fill="#000000" font-family="sans-serif" font-size="14" lengthAdjust="spacing" textLength="59" x="895" y="1225.2998">Contract</text><polygon fill="#181818" points="619.5,111.4297,629.5,115.4297,619.5,119.4297,623.5,115.4297" style="stroke:#181818;stroke-width:1.0;"/><line style="stroke:#181818;stroke-width:1.0;" x1="278.5" x2="625.5" y1="115.4297" y2="115.4297"/><text fill="#000000" font-family="sans-serif" font-size="13" lengthAdjust="spacing" textLength="91" x="285.5" y="110.3638">L2 transaction</text><path d="M636,96.2969 L636,121.2969 L669,121.2969 L669,106.2969 L659,96.2969 L636,96.2969 " fill="#FEFFDD" style="stroke:#181818;stroke-width:0.5;"/><path d="M659,96.2969 L659,106.2969 L669,106.2969 L659,96.2969 " fill="#FEFFDD" style="stroke:#181818;stroke-width:0.5;"/><text fill="#000000" font-family="sans-serif" font-size="13" lengthAdjust="spacing" textLength="12" x="642" y="113.3638">1.</text><line style="stroke:#181818;stroke-width:1.0;" x1="631.5" x2="673.5" y1="147.5625" y2="147.5625"/><line style="stroke:#181818;stroke-width:1.0;" x1="673.5" x2="673.5" y1="147.5625" y2="160.5625"/><line style="stroke:#181818;stroke-width:1.0;" x1="632.5" x2="673.5" y1="160.5625" y2="160.5625"/><polygon fill="#181818" points="642.5,156.5625,632.5,160.5625,642.5,164.5625,638.5,160.5625" style="stroke:#181818;stroke-width:1.0;"/><text fill="#000000" font-family="sans-serif" font-size="13" lengthAdjust="spacing" textLength="53" x="638.5" y="142.4966">L2 Block</text><path d="M703,134.9297 L703,159.9297 L736,159.9297 L736,144.9297 L726,134.9297 L703,134.9297 " fill="#FEFFDD" style="stroke:#181818;stroke-width:0.5;"/><path d="M726,134.9297 L726,144.9297 L736,144.9297 L726,134.9297 " fill="#FEFFDD" style="stroke:#181818;stroke-width:0.5;"/><text fill="#000000" font-family="sans-serif" font-size="13" lengthAdjust="spacing" textLength="12" x="709" y="151.9966">2.</text><polygon fill="#181818" points="289.5,211.3945,279.5,215.3945,289.5,219.3945,285.5,215.3945" style="stroke:#181818;stroke-width:1.0;"/><line style="stroke:#181818;stroke-width:1.0;stroke-dasharray:2.0,2.0;" x1="283.5" x2="630.5" y1="215.3945" y2="215.3945"/><text fill="#000000" font-family="sans-serif" font-size="13" lengthAdjust="spacing" textLength="27" x="295.5" y="210.3286">New</text><text fill="#000000" font-family="sans-serif" font-size="13" font-style="italic" lengthAdjust="spacing" textLength="46" x="326.5" y="210.3286">trusted</text><text fill="#000000" font-family="sans-serif" font-size="13" lengthAdjust="spacing" textLength="33" x="376.5" y="210.3286">state</text><path d="M35,173.5625 L35,243.5625 L273,243.5625 L273,183.5625 L263,173.5625 L35,173.5625 " fill="#FEFFDD" style="stroke:#181818;stroke-width:0.5;"/><path d="M263,173.5625 L263,183.5625 L273,183.5625 L263,173.5625 " fill="#FEFFDD" style="stroke:#181818;stroke-width:0.5;"/><text fill="#000000" font-family="sans-serif" font-size="13" lengthAdjust="spacing" textLength="202" x="41" y="190.6294">Clients that trust a rollup server</text><text fill="#000000" font-family="sans-serif" font-size="13" lengthAdjust="spacing" textLength="217" x="41" y="205.7622">can get the updated state without</text><text fill="#000000" font-family="sans-serif" font-size="13" lengthAdjust="spacing" textLength="213" x="41" y="220.895">waiting for the state update proof</text><text fill="#000000" font-family="sans-serif" font-size="13" lengthAdjust="spacing" textLength="197" x="41" y="236.0278">or confirmation from Espresso.</text><polygon fill="#181818" points="480.5,281.3594,470.5,285.3594,480.5,289.3594,476.5,285.3594" style="stroke:#181818;stroke-width:1.0;"/><line style="stroke:#181818;stroke-width:1.0;" x1="474.5" x2="630.5" y1="285.3594" y2="285.3594"/><text fill="#000000" font-family="sans-serif" font-size="13" lengthAdjust="spacing" textLength="138" x="486.5" y="265.1606">Espresso transaction:</text><text fill="#000000" font-family="sans-serif" font-size="13" lengthAdjust="spacing" textLength="116" x="486.5" y="280.2935">L2 Block, Rollup ID</text><path d="M636,258.6602 L636,283.6602 L669,283.6602 L669,268.6602 L659,258.6602 L636,258.6602 " fill="#FEFFDD" style="stroke:#181818;stroke-width:0.5;"/><path d="M659,258.6602 L659,268.6602 L669,268.6602 L659,258.6602 " fill="#FEFFDD" style="stroke:#181818;stroke-width:0.5;"/><text fill="#000000" font-family="sans-serif" font-size="13" lengthAdjust="spacing" textLength="12" x="642" y="275.7271">3.</text><line style="stroke:#181818;stroke-width:1.0;" x1="469.5" x2="511.5" y1="344.7578" y2="344.7578"/><line style="stroke:#181818;stroke-width:1.0;" x1="511.5" x2="511.5" y1="344.7578" y2="357.7578"/><line style="stroke:#181818;stroke-width:1.0;" x1="470.5" x2="511.5" y1="357.7578" y2="357.7578"/><polygon fill="#181818" points="480.5,353.7578,470.5,357.7578,480.5,361.7578,476.5,357.7578" style="stroke:#181818;stroke-width:1.0;"/><text fill="#000000" font-family="sans-serif" font-size="13" lengthAdjust="spacing" textLength="115" x="476.5" y="309.4263">Consensus orders</text><text fill="#000000" font-family="sans-serif" font-size="13" lengthAdjust="spacing" textLength="141" x="476.5" y="324.5591">Espresso transactions</text><text fill="#000000" font-family="sans-serif" font-size="13" lengthAdjust="spacing" textLength="130" x="476.5" y="339.6919">into Espresso blocks</text><path d="M9,372.7578 L79,372.7578 L79,379.8906 L69,389.8906 L9,389.8906 L9,372.7578 " fill="#EEEEEE" style="stroke:#000000;stroke-width:1.5;"/><rect fill="none" height="309.5938" style="stroke:#000000;stroke-width:1.5;" width="920.5" x="9" y="372.7578"/><text fill="#000000" font-family="sans-serif" font-size="13" font-weight="bold" lengthAdjust="spacing" textLength="25" x="24" y="385.8247">par</text><text fill="#000000" font-family="sans-serif" font-size="11" font-weight="bold" lengthAdjust="spacing" textLength="217" x="94" y="384.9683">[Interested parties process block]</text><polygon fill="#181818" points="289.5,407.0234,279.5,411.0234,289.5,415.0234,285.5,411.0234" style="stroke:#181818;stroke-width:1.0;"/><line style="stroke:#181818;stroke-width:1.0;stroke-dasharray:2.0,2.0;" x1="283.5" x2="468.5" y1="411.0234" y2="411.0234"/><text fill="#000000" font-family="sans-serif" font-size="13" lengthAdjust="spacing" textLength="34" x="295.5" y="405.9575">Block</text><line style="stroke:#181818;stroke-width:1.0;" x1="278.5" x2="320.5" y1="459.3555" y2="459.3555"/><line style="stroke:#181818;stroke-width:1.0;" x1="320.5" x2="320.5" y1="459.3555" y2="472.3555"/><line style="stroke:#181818;stroke-width:1.0;" x1="279.5" x2="320.5" y1="472.3555" y2="472.3555"/><polygon fill="#181818" points="289.5,468.3555,279.5,472.3555,289.5,476.3555,285.5,472.3555" style="stroke:#181818;stroke-width:1.0;"/><text fill="#000000" font-family="sans-serif" font-size="13" lengthAdjust="spacing" textLength="88" x="285.5" y="454.2896">Execute block</text><path d="M19,424.0234 L19,494.0234 L273,494.0234 L273,434.0234 L263,424.0234 L19,424.0234 " fill="#FEFFDD" style="stroke:#181818;stroke-width:0.5;"/><path d="M263,424.0234 L263,434.0234 L273,434.0234 L263,424.0234 " fill="#FEFFDD" style="stroke:#181818;stroke-width:0.5;"/><text fill="#000000" font-family="sans-serif" font-size="13" lengthAdjust="spacing" textLength="201" x="25" y="441.0903">Optionally, clients can check for</text><text fill="#000000" font-family="sans-serif" font-size="13" lengthAdjust="spacing" textLength="229" x="25" y="456.2231">confirmations themselves to quickly</text><text fill="#000000" font-family="sans-serif" font-size="13" lengthAdjust="spacing" textLength="233" x="25" y="471.356">know about new L2 blocks confirmed</text><text fill="#000000" font-family="sans-serif" font-size="13" lengthAdjust="spacing" textLength="81" x="25" y="486.4888">by Espresso.</text><line style="stroke:#000000;stroke-width:1.0;stroke-dasharray:2.0,2.0;" x1="9" x2="929.5" y1="500.5547" y2="500.5547"/><polygon fill="#181818" points="619.5,521.6875,629.5,525.6875,619.5,529.6875,623.5,525.6875" style="stroke:#181818;stroke-width:1.0;"/><line style="stroke:#181818;stroke-width:1.0;" x1="469.5" x2="625.5" y1="525.6875" y2="525.6875"/><text fill="#000000" font-family="sans-serif" font-size="13" lengthAdjust="spacing" textLength="34" x="476.5" y="520.6216">Block</text><path d="M636,506.5547 L636,531.5547 L669,531.5547 L669,516.5547 L659,506.5547 L636,506.5547 " fill="#FEFFDD" style="stroke:#181818;stroke-width:0.5;"/><path d="M659,506.5547 L659,516.5547 L669,516.5547 L659,506.5547 " fill="#FEFFDD" style="stroke:#181818;stroke-width:0.5;"/><text fill="#000000" font-family="sans-serif" font-size="13" lengthAdjust="spacing" textLength="12" x="642" y="523.6216">4.</text><line style="stroke:#181818;stroke-width:1.0;" x1="631.5" x2="673.5" y1="557.8203" y2="557.8203"/><line style="stroke:#181818;stroke-width:1.0;" x1="673.5" x2="673.5" y1="557.8203" y2="570.8203"/><line style="stroke:#181818;stroke-width:1.0;" x1="632.5" x2="673.5" y1="570.8203" y2="570.8203"/><polygon fill="#181818" points="642.5,566.8203,632.5,570.8203,642.5,574.8203,638.5,570.8203" style="stroke:#181818;stroke-width:1.0;"/><text fill="#000000" font-family="sans-serif" font-size="13" lengthAdjust="spacing" textLength="88" x="638.5" y="552.7544">Execute block</text><line style="stroke:#000000;stroke-width:1.0;stroke-dasharray:2.0,2.0;" x1="9" x2="929.5" y1="579.8203" y2="579.8203"/><polygon fill="#181818" points="721.5,613.0859,731.5,617.0859,721.5,621.0859,725.5,617.0859" style="stroke:#181818;stroke-width:1.0;"/><line style="stroke:#181818;stroke-width:1.0;" x1="469.5" x2="727.5" y1="617.0859" y2="617.0859"/><text fill="#000000" font-family="sans-serif" font-size="13" lengthAdjust="spacing" textLength="138" x="476.5" y="596.8872">Block Commitment +</text><text fill="#000000" font-family="sans-serif" font-size="13" lengthAdjust="spacing" textLength="121" x="476.5" y="612.02">Proof of consensus</text><path d="M738,590.3867 L738,615.3867 L771,615.3867 L771,600.3867 L761,590.3867 L738,590.3867 " fill="#FEFFDD" style="stroke:#181818;stroke-width:0.5;"/><path d="M761,590.3867 L761,600.3867 L771,600.3867 L761,590.3867 " fill="#FEFFDD" style="stroke:#181818;stroke-width:0.5;"/><text fill="#000000" font-family="sans-serif" font-size="13" lengthAdjust="spacing" textLength="12" x="744" y="607.4536">5.</text><line style="stroke:#181818;stroke-width:1.0;" x1="733.5" x2="775.5" y1="661.3516" y2="661.3516"/><line style="stroke:#181818;stroke-width:1.0;" x1="775.5" x2="775.5" y1="661.3516" y2="674.3516"/><line style="stroke:#181818;stroke-width:1.0;" x1="734.5" x2="775.5" y1="674.3516" y2="674.3516"/><polygon fill="#181818" points="744.5,670.3516,734.5,674.3516,744.5,678.3516,740.5,674.3516" style="stroke:#181818;stroke-width:1.0;"/><text fill="#000000" font-family="sans-serif" font-size="13" lengthAdjust="spacing" textLength="177" x="740.5" y="641.1528">Validate Proof of consensus</text><text fill="#000000" font-family="sans-serif" font-size="13" lengthAdjust="spacing" textLength="130" x="740.5" y="656.2856">Store commitmenet</text><path d="M26,696.3516 L96,696.3516 L96,703.4844 L86,713.4844 L26,713.4844 L26,696.3516 " fill="#EEEEEE" style="stroke:#000000;stroke-width:1.5;"/><rect fill="none" height="476.6563" style="stroke:#000000;stroke-width:1.5;" width="1030.5" x="26" y="696.3516"/><text fill="#000000" font-family="sans-serif" font-size="13" font-weight="bold" lengthAdjust="spacing" textLength="25" x="41" y="709.4185">par</text><text fill="#000000" font-family="sans-serif" font-size="11" font-weight="bold" lengthAdjust="spacing" textLength="247" x="111" y="708.562">[Interested parties process new state]</text><polygon fill="#181818" points="289.5,745.75,279.5,749.75,289.5,753.75,285.5,749.75" style="stroke:#181818;stroke-width:1.0;"/><line style="stroke:#181818;stroke-width:1.0;stroke-dasharray:2.0,2.0;" x1="283.5" x2="468.5" y1="749.75" y2="749.75"/><text fill="#000000" font-family="sans-serif" font-size="13" lengthAdjust="spacing" textLength="138" x="295.5" y="729.5513">Block Commitment +</text><text fill="#000000" font-family="sans-serif" font-size="13" lengthAdjust="spacing" textLength="121" x="295.5" y="744.6841">Proof of consensus</text><line style="stroke:#181818;stroke-width:1.0;" x1="278.5" x2="320.5" y1="778.8828" y2="778.8828"/><line style="stroke:#181818;stroke-width:1.0;" x1="320.5" x2="320.5" y1="778.8828" y2="791.8828"/><line style="stroke:#181818;stroke-width:1.0;" x1="279.5" x2="320.5" y1="791.8828" y2="791.8828"/><polygon fill="#181818" points="289.5,787.8828,279.5,791.8828,289.5,795.8828,285.5,791.8828" style="stroke:#181818;stroke-width:1.0;"/><text fill="#000000" font-family="sans-serif" font-size="13" lengthAdjust="spacing" textLength="177" x="285.5" y="773.8169">Validate Proof of consensus</text><polygon fill="#181818" points="289.5,832.1484,279.5,836.1484,289.5,840.1484,285.5,836.1484" style="stroke:#181818;stroke-width:1.0;"/><line style="stroke:#181818;stroke-width:1.0;stroke-dasharray:2.0,2.0;" x1="283.5" x2="630.5" y1="836.1484" y2="836.1484"/><text fill="#000000" font-family="sans-serif" font-size="13" lengthAdjust="spacing" textLength="66" x="295.5" y="815.9497">New State</text><text fill="#000000" font-family="sans-serif" font-size="13" lengthAdjust="spacing" textLength="33" x="295.5" y="831.0825">Proof</text><line style="stroke:#181818;stroke-width:1.0;" x1="278.5" x2="320.5" y1="899.6133" y2="899.6133"/><line style="stroke:#181818;stroke-width:1.0;" x1="320.5" x2="320.5" y1="899.6133" y2="912.6133"/><line style="stroke:#181818;stroke-width:1.0;" x1="279.5" x2="320.5" y1="912.6133" y2="912.6133"/><polygon fill="#181818" points="289.5,908.6133,279.5,912.6133,289.5,916.6133,285.5,912.6133" style="stroke:#181818;stroke-width:1.0;"/><text fill="#000000" font-family="sans-serif" font-size="13" lengthAdjust="spacing" textLength="89" x="285.5" y="879.4146">Validate proof</text><text fill="#000000" font-family="sans-serif" font-size="13" lengthAdjust="spacing" textLength="134" x="285.5" y="894.5474">against commitment</text><path d="M62,849.1484 L62,934.1484 L273,934.1484 L273,859.1484 L263,849.1484 L62,849.1484 " fill="#FEFFDD" style="stroke:#181818;stroke-width:0.5;"/><path d="M263,849.1484 L263,859.1484 L273,859.1484 L263,849.1484 " fill="#FEFFDD" style="stroke:#181818;stroke-width:0.5;"/><text fill="#000000" font-family="sans-serif" font-size="13" lengthAdjust="spacing" textLength="180" x="68" y="866.2153">Optionally, clients can check</text><text fill="#000000" font-family="sans-serif" font-size="13" lengthAdjust="spacing" textLength="182" x="68" y="881.3481">proofs themselves to quickly</text><text fill="#000000" font-family="sans-serif" font-size="13" lengthAdjust="spacing" textLength="190" x="68" y="896.481">get the updated state without</text><text fill="#000000" font-family="sans-serif" font-size="13" lengthAdjust="spacing" textLength="136" x="68" y="911.6138">trusting a full node or</text><text fill="#000000" font-family="sans-serif" font-size="13" lengthAdjust="spacing" textLength="155" x="68" y="926.7466">executing a whole block.</text><line style="stroke:#000000;stroke-width:1.0;stroke-dasharray:2.0,2.0;" x1="26" x2="1056.5" y1="940.8125" y2="940.8125"/><polygon fill="#181818" points="912.5,974.0781,922.5,978.0781,912.5,982.0781,916.5,978.0781" style="stroke:#181818;stroke-width:1.0;"/><line style="stroke:#181818;stroke-width:1.0;" x1="631.5" x2="918.5" y1="978.0781" y2="978.0781"/><text fill="#000000" font-family="sans-serif" font-size="13" lengthAdjust="spacing" textLength="64" x="638.5" y="957.8794">New state</text><text fill="#000000" font-family="sans-serif" font-size="13" lengthAdjust="spacing" textLength="33" x="638.5" y="973.0122">Proof</text><path d="M929,951.3789 L929,976.3789 L962,976.3789 L962,961.3789 L952,951.3789 L929,951.3789 " fill="#FEFFDD" style="stroke:#181818;stroke-width:0.5;"/><path d="M952,951.3789 L952,961.3789 L962,961.3789 L952,951.3789 " fill="#FEFFDD" style="stroke:#181818;stroke-width:0.5;"/><text fill="#000000" font-family="sans-serif" font-size="13" lengthAdjust="spacing" textLength="12" x="935" y="968.4458">6.</text><polygon fill="#181818" points="744.5,1003.2109,734.5,1007.2109,744.5,1011.2109,740.5,1007.2109" style="stroke:#181818;stroke-width:1.0;"/><line style="stroke:#181818;stroke-width:1.0;" x1="738.5" x2="923.5" y1="1007.2109" y2="1007.2109"/><text fill="#000000" font-family="sans-serif" font-size="13" lengthAdjust="spacing" textLength="98" x="750.5" y="1002.145">Read sequence</text><polygon fill="#181818" points="912.5,1035.3438,922.5,1039.3438,912.5,1043.3438,916.5,1039.3438" style="stroke:#181818;stroke-width:1.0;"/><line style="stroke:#181818;stroke-width:1.0;stroke-dasharray:2.0,2.0;" x1="733.5" x2="918.5" y1="1039.3438" y2="1039.3438"/><text fill="#000000" font-family="sans-serif" font-size="13" lengthAdjust="spacing" textLength="92" x="740.5" y="1034.2778">Commitments</text><path d="M929,1020.2109 L929,1045.2109 L962,1045.2109 L962,1030.2109 L952,1020.2109 L929,1020.2109 " fill="#FEFFDD" style="stroke:#181818;stroke-width:0.5;"/><path d="M952,1020.2109 L952,1030.2109 L962,1030.2109 L952,1020.2109 " fill="#FEFFDD" style="stroke:#181818;stroke-width:0.5;"/><text fill="#000000" font-family="sans-serif" font-size="13" lengthAdjust="spacing" textLength="12" x="935" y="1037.2778">7.</text><line style="stroke:#181818;stroke-width:1.0;" x1="924.5" x2="966.5" y1="1086.6094" y2="1086.6094"/><line style="stroke:#181818;stroke-width:1.0;" x1="966.5" x2="966.5" y1="1086.6094" y2="1099.6094"/><line style="stroke:#181818;stroke-width:1.0;" x1="925.5" x2="966.5" y1="1099.6094" y2="1099.6094"/><polygon fill="#181818" points="935.5,1095.6094,925.5,1099.6094,935.5,1103.6094,931.5,1099.6094" style="stroke:#181818;stroke-width:1.0;"/><text fill="#000000" font-family="sans-serif" font-size="13" lengthAdjust="spacing" textLength="89" x="931.5" y="1066.4106">Validate proof</text><text fill="#000000" font-family="sans-serif" font-size="13" lengthAdjust="spacing" textLength="113" x="931.5" y="1081.5435">against sequence</text><polygon fill="#181818" points="289.5,1142.875,279.5,1146.875,289.5,1150.875,285.5,1146.875" style="stroke:#181818;stroke-width:1.0;"/><line style="stroke:#181818;stroke-width:1.0;stroke-dasharray:2.0,2.0;" x1="283.5" x2="923.5" y1="1146.875" y2="1146.875"/><text fill="#000000" font-family="sans-serif" font-size="13" lengthAdjust="spacing" textLength="27" x="295.5" y="1141.8091">New</text><text fill="#000000" font-family="sans-serif" font-size="13" font-style="italic" lengthAdjust="spacing" textLength="51" x="326.5" y="1141.8091">certified</text><text fill="#000000" font-family="sans-serif" font-size="13" lengthAdjust="spacing" textLength="33" x="381.5" y="1141.8091">state</text><path d="M36,1112.6094 L36,1167.6094 L273,1167.6094 L273,1122.6094 L263,1112.6094 L36,1112.6094 " fill="#FEFFDD" style="stroke:#181818;stroke-width:0.5;"/><path d="M263,1112.6094 L263,1122.6094 L273,1122.6094 L263,1112.6094 " fill="#FEFFDD" style="stroke:#181818;stroke-width:0.5;"/><text fill="#000000" font-family="sans-serif" font-size="13" lengthAdjust="spacing" textLength="216" x="42" y="1129.6763">With some latency, clients receive</text><text fill="#000000" font-family="sans-serif" font-size="13" lengthAdjust="spacing" textLength="181" x="42" y="1144.8091">the latest state with no trust</text><text fill="#000000" font-family="sans-serif" font-size="13" font-style="italic" lengthAdjust="spacing" textLength="13" x="227" y="1144.8091">or</text><text fill="#000000" font-family="sans-serif" font-size="13" lengthAdjust="spacing" textLength="167" x="42" y="1159.9419">computation, from the L1.</text><!--SRC=[ZLLDQnin4BthLmovDcb9-WN6v52tXu1fImBjnL1axQmjh9KsaZQk_trdf5rR6zj9mHX7CtepyzuRHQheFCoCHXj5AttKIhVIHhZu5bgF8RY5dJbRQz_8g9s5kToXlm0PW196D-wTCLtBaVdD66gkL-lO5qbmqKiL4yXyDaxD8C-JRlxChuN8071rImSmuIzAiO6og35XNKJmN4bSlnLeA-0J8IWjtKWNlXYdDcNgJPdQ5vXUNUKAtt4BKtqRVHSYLjDt-XP2b9IP00pMiRyI8AvbX9G84dnc8g1_GY-KjB12YguHkhQY-rM6WQsEQzT5iPKwQhk2cgJWh1pDkT1wvsf14LNAK7lNm23HyRWKeVw7UCdJP6477Yu7oUw-bfIyB-4OQ8z7eWIqeGlWV8K-BEof2dIiRNI7waik5WGB3NSs8fqo1qbt33oWehoSDX8XLysQ7SJlVz5uVr5rrFRo86hIv4VBRKXZTfUWUdrO1BL6jM6IHKabQuTDGFD4lL3RZvrM6xCJ6-ks89Ua3rZo0P6MvnXqm4eiToSbG1CEp2KZ7TdkGv4_6FHeecT0im68T6WQ7HjcuSt2_cI307tK84zPwMDPQPQ19l1B6ftSTNnvOH_eIK0ww8jW50pngdxCKbwFCng-tlS9aL_ezEI-Fd07FVYBU6cl5bQkfBQqjVjnu_ywIII4S_PvUUFJIy4hBw7kZ25vAgIb4fWCa0FRjJEz5KftzQuON4ClOpzvA2Sl7F1fv3NE7znqZv8QmySEhHfYYSpPfD1gPAVF9y7wBivnkoyn4kpGERsn2ibCjJxpolucsY2uXlwaW5M571uLwYSKp3K7kToUQkgpVvIfXFECJRlVj5rCgt-Pdr6-EX_zpw1V_m00]--></g></svg>