<svg xmlns="http://www.w3.org/2000/svg" xmlns:xlink="http://www.w3.org/1999/xlink" contentStyleType="text/css" height="1725px" preserveAspectRatio="none" style="width:2183px;height:1725px;background:#FFFFFF;" version="1.1" viewBox="0 0 2183 1725" width="2183px" zoomAndPan="magnify"><defs/><g><rect fill="#FFFFE0" height="1713.75" style="stroke:#181818;stroke-width:0.5;" width="714" x="142.5" y="6"/><text fill="#000000" font-family="sans-serif" font-size="13" font-weight="bold" lengthAdjust="spacing" textLength="131" x="431.5" y="18.0669">Layer 2s / Rollups</text><rect fill="#90EE90" height="1693.6172" style="stroke:#181818;stroke-width:0.5;" width="352.5" x="142.5" y="26.1328"/><text fill="#000000" font-family="sans-serif" font-size="13" font-weight="bold" lengthAdjust="spacing" textLength="142" x="247.75" y="38.1997">Optimistic Rollup O</text><rect fill="#ADD8E6" height="1693.6172" style="stroke:#181818;stroke-width:0.5;" width="349.5" x="507" y="26.1328"/><text fill="#000000" font-family="sans-serif" font-size="13" font-weight="bold" lengthAdjust="spacing" textLength="86" x="638.75" y="38.1997">ZK Rollup Z</text><rect fill="#D3D3D3" height="1713.75" style="stroke:#181818;stroke-width:0.5;" width="271" x="868.5" y="6"/><text fill="#000000" font-family="sans-serif" font-size="13" font-weight="bold" lengthAdjust="spacing" textLength="93" x="957.5" y="18.0669">Ethereum L1</text><rect fill="#FFE4E1" height="1713.75" style="stroke:#181818;stroke-width:0.5;" width="1025.5" x="1151.5" y="6"/><text fill="#000000" font-family="sans-serif" font-size="13" font-weight="bold" lengthAdjust="spacing" textLength="217" x="1553.25" y="18.0669">Espresso Sequencer Network</text><rect fill="#FFE4C4" height="1693.6172" style="stroke:#181818;stroke-width:0.5;" width="399.5" x="1151.5" y="26.1328"/><text fill="#000000" font-family="sans-serif" font-size="13" font-weight="bold" lengthAdjust="spacing" textLength="122" x="1287.75" y="38.1997">Sequencer Node</text><rect fill="#E0FFFF" height="1673.4844" style="stroke:#181818;stroke-width:0.5;" width="135" x="1151.5" y="46.2656"/><text fill="#000000" font-family="sans-serif" font-size="13" font-weight="bold" lengthAdjust="spacing" textLength="32" x="1200.5" y="58.3325">APIs</text><line style="stroke:#181818;stroke-width:0.5;stroke-dasharray:5.0,5.0;" x1="24" x2="24" y1="145.5859" y2="1633.5625"/><line style="stroke:#181818;stroke-width:0.5;stroke-dasharray:5.0,5.0;" x1="173" x2="173" y1="145.5859" y2="1633.5625"/><line style="stroke:#181818;stroke-width:0.5;stroke-dasharray:5.0,5.0;" x1="254.5" x2="254.5" y1="145.5859" y2="1633.5625"/><line style="stroke:#181818;stroke-width:0.5;stroke-dasharray:5.0,5.0;" x1="354.5" x2="354.5" y1="145.5859" y2="1633.5625"/><line style="stroke:#181818;stroke-width:0.5;stroke-dasharray:5.0,5.0;" x1="447" x2="447" y1="145.5859" y2="1633.5625"/><line style="stroke:#181818;stroke-width:0.5;stroke-dasharray:5.0,5.0;" x1="537.5" x2="537.5" y1="145.5859" y2="1633.5625"/><line style="stroke:#181818;stroke-width:0.5;stroke-dasharray:5.0,5.0;" x1="619" x2="619" y1="145.5859" y2="1633.5625"/><line style="stroke:#181818;stroke-width:0.5;stroke-dasharray:5.0,5.0;" x1="719" x2="719" y1="145.5859" y2="1633.5625"/><line style="stroke:#181818;stroke-width:0.5;stroke-dasharray:5.0,5.0;" x1="815" x2="815" y1="145.5859" y2="1633.5625"/><line style="stroke:#181818;stroke-width:0.5;stroke-dasharray:5.0,5.0;" x1="909" x2="909" y1="145.5859" y2="1633.5625"/><line style="stroke:#181818;stroke-width:0.5;stroke-dasharray:5.0,5.0;" x1="1016" x2="1016" y1="145.5859" y2="1633.5625"/><line style="stroke:#181818;stroke-width:0.5;stroke-dasharray:5.0,5.0;" x1="1099" x2="1099" y1="145.5859" y2="1633.5625"/><line style="stroke:#181818;stroke-width:0.5;stroke-dasharray:5.0,5.0;" x1="1186.5" x2="1186.5" y1="145.5859" y2="1633.5625"/><line style="stroke:#181818;stroke-width:0.5;stroke-dasharray:5.0,5.0;" x1="1255" x2="1255" y1="145.5859" y2="1633.5625"/><line style="stroke:#181818;stroke-width:0.5;stroke-dasharray:5.0,5.0;" x1="1337.5" x2="1337.5" y1="145.5859" y2="1633.5625"/><line style="stroke:#181818;stroke-width:0.5;stroke-dasharray:5.0,5.0;" x1="1421" x2="1421" y1="145.5859" y2="1633.5625"/><line style="stroke:#181818;stroke-width:0.5;stroke-dasharray:5.0,5.0;" x1="1518" x2="1518" y1="145.5859" y2="1633.5625"/><line style="stroke:#181818;stroke-width:0.5;stroke-dasharray:5.0,5.0;" x1="1598" x2="1598" y1="145.5859" y2="1633.5625"/><line style="stroke:#181818;stroke-width:0.5;stroke-dasharray:5.0,5.0;" x1="1722" x2="1722" y1="145.5859" y2="1633.5625"/><line style="stroke:#181818;stroke-width:0.5;stroke-dasharray:5.0,5.0;" x1="1789.5" x2="1789.5" y1="145.5859" y2="1633.5625"/><line style="stroke:#181818;stroke-width:0.5;stroke-dasharray:5.0,5.0;" x1="1852" x2="1852" y1="145.5859" y2="1633.5625"/><line style="stroke:#181818;stroke-width:0.5;stroke-dasharray:5.0,5.0;" x1="1927" x2="1927" y1="145.5859" y2="1633.5625"/><line style="stroke:#181818;stroke-width:0.5;stroke-dasharray:5.0,5.0;" x1="2007" x2="2007" y1="145.5859" y2="1633.5625"/><line style="stroke:#181818;stroke-width:0.5;stroke-dasharray:5.0,5.0;" x1="2138" x2="2138" y1="145.5859" y2="1633.5625"/><text fill="#000000" font-family="sans-serif" font-size="14" lengthAdjust="spacing" textLength="32" x="5" y="142.2842">User</text><ellipse cx="24" cy="77.7891" fill="#E2E2F0" rx="8" ry="8" style="stroke:#181818;stroke-width:0.5;"/><path d="M24,85.7891 L24,112.7891 M11,93.7891 L37,93.7891 M24,112.7891 L11,127.7891 M24,112.7891 L37,127.7891 " fill="none" style="stroke:#181818;stroke-width:0.5;"/><rect fill="#E2E2F0" height="46.5938" rx="2.5" ry="2.5" style="stroke:#181818;stroke-width:0.5;" width="53" x="146.5" y="97.9922"/><text fill="#000000" font-family="sans-serif" font-size="14" lengthAdjust="spacing" textLength="21" x="162.5" y="117.9873">API</text><text fill="#000000" font-family="sans-serif" font-size="14" lengthAdjust="spacing" textLength="39" x="153.5" y="134.2842">(RPC)</text><rect fill="#E2E2F0" height="30.2969" rx="2.5" ry="2.5" style="stroke:#181818;stroke-width:0.5;" width="90" x="209.5" y="114.2891"/><text fill="#000000" font-family="sans-serif" font-size="14" lengthAdjust="spacing" textLength="76" x="216.5" y="134.2842">Sequencer</text><rect fill="#E2E2F0" height="30.2969" rx="2.5" ry="2.5" style="stroke:#181818;stroke-width:0.5;" width="77" x="316" y="114.2891"/><text fill="#000000" font-family="sans-serif" font-size="14" lengthAdjust="spacing" textLength="63" x="323" y="134.2842">Proposer</text><rect fill="#E2E2F0" height="30.2969" rx="2.5" ry="2.5" style="stroke:#181818;stroke-width:0.5;" width="88" x="403" y="114.2891"/><text fill="#000000" font-family="sans-serif" font-size="14" lengthAdjust="spacing" textLength="74" x="410" y="134.2842">Challenger</text><rect fill="#E2E2F0" height="46.5938" rx="2.5" ry="2.5" style="stroke:#181818;stroke-width:0.5;" width="53" x="511" y="97.9922"/><text fill="#000000" font-family="sans-serif" font-size="14" lengthAdjust="spacing" textLength="21" x="527" y="117.9873">API</text><text fill="#000000" font-family="sans-serif" font-size="14" lengthAdjust="spacing" textLength="39" x="518" y="134.2842">(RPC)</text><rect fill="#E2E2F0" height="30.2969" rx="2.5" ry="2.5" style="stroke:#181818;stroke-width:0.5;" width="90" x="574" y="114.2891"/><text fill="#000000" font-family="sans-serif" font-size="14" lengthAdjust="spacing" textLength="76" x="581" y="134.2842">Sequencer</text><rect fill="#E2E2F0" height="30.2969" rx="2.5" ry="2.5" style="stroke:#181818;stroke-width:0.5;" width="58" x="690" y="114.2891"/><text fill="#000000" font-family="sans-serif" font-size="14" lengthAdjust="spacing" textLength="44" x="697" y="134.2842">Prover</text><rect fill="#E2E2F0" height="30.2969" rx="2.5" ry="2.5" style="stroke:#181818;stroke-width:0.5;" width="75" x="777.5" y="114.2891"/><text fill="#000000" font-family="sans-serif" font-size="14" lengthAdjust="spacing" textLength="61" x="784.5" y="134.2842">Executor</text><rect fill="#E2E2F0" height="46.5938" rx="2.5" ry="2.5" style="stroke:#181818;stroke-width:0.5;" width="73" x="872.5" y="97.9922"/><text fill="#000000" font-family="sans-serif" font-size="14" lengthAdjust="spacing" textLength="43" x="887.5" y="117.9873">Rollup</text><text fill="#000000" font-family="sans-serif" font-size="14" lengthAdjust="spacing" textLength="59" x="879.5" y="134.2842">Contract</text><rect fill="#E2E2F0" height="62.8906" rx="2.5" ry="2.5" style="stroke:#181818;stroke-width:0.5;" width="73" x="979.5" y="81.6953"/><text fill="#000000" font-family="sans-serif" font-size="14" lengthAdjust="spacing" textLength="33" x="999.5" y="101.6904">Light</text><text fill="#000000" font-family="sans-serif" font-size="14" lengthAdjust="spacing" textLength="39" x="996.5" y="117.9873">Client</text><text fill="#000000" font-family="sans-serif" font-size="14" lengthAdjust="spacing" textLength="59" x="986.5" y="134.2842">Contract</text><rect fill="#E2E2F0" height="46.5938" rx="2.5" ry="2.5" style="stroke:#181818;stroke-width:0.5;" width="73" x="1062.5" y="97.9922"/><text fill="#000000" font-family="sans-serif" font-size="14" lengthAdjust="spacing" textLength="26" x="1086" y="117.9873">Fee</text><text fill="#000000" font-family="sans-serif" font-size="14" lengthAdjust="spacing" textLength="59" x="1069.5" y="134.2842">Contract</text><rect fill="#E2E2F0" height="46.5938" rx="2.5" ry="2.5" style="stroke:#181818;stroke-width:0.5;" width="62" x="1155.5" y="97.9922"/><text fill="#000000" font-family="sans-serif" font-size="14" lengthAdjust="spacing" textLength="48" x="1162.5" y="117.9873">Submit</text><text fill="#000000" font-family="sans-serif" font-size="14" lengthAdjust="spacing" textLength="21" x="1176" y="134.2842">API</text><rect fill="#E2E2F0" height="46.5938" rx="2.5" ry="2.5" style="stroke:#181818;stroke-width:0.5;" width="55" x="1227.5" y="97.9922"/><text fill="#000000" font-family="sans-serif" font-size="14" lengthAdjust="spacing" textLength="41" x="1234.5" y="117.9873">Query</text><text fill="#000000" font-family="sans-serif" font-size="14" lengthAdjust="spacing" textLength="21" x="1244.5" y="134.2842">API</text><rect fill="#E2E2F0" height="62.8906" rx="2.5" ry="2.5" style="stroke:#181818;stroke-width:0.5;" width="70" x="1302.5" y="81.6953"/><text fill="#000000" font-family="sans-serif" font-size="14" lengthAdjust="spacing" textLength="56" x="1309.5" y="101.6904">HotShot</text><text fill="#000000" font-family="sans-serif" font-size="14" lengthAdjust="spacing" textLength="47" x="1314" y="117.9873">Events</text><text fill="#000000" font-family="sans-serif" font-size="14" lengthAdjust="spacing" textLength="49" x="1313" y="134.2842">Stream</text><rect fill="#E2E2F0" height="46.5938" rx="2.5" ry="2.5" style="stroke:#181818;stroke-width:0.5;" width="77" x="1382.5" y="97.9922"/><text fill="#000000" font-family="sans-serif" font-size="14" lengthAdjust="spacing" textLength="63" x="1389.5" y="117.9873">Validated</text><text fill="#000000" font-family="sans-serif" font-size="14" lengthAdjust="spacing" textLength="36" x="1403" y="134.2842">State</text><rect fill="#E2E2F0" height="46.5938" rx="2.5" ry="2.5" style="stroke:#181818;stroke-width:0.5;" width="58" x="1489" y="97.9922"/><text fill="#000000" font-family="sans-serif" font-size="14" lengthAdjust="spacing" textLength="36" x="1500" y="117.9873">State</text><text fill="#000000" font-family="sans-serif" font-size="14" lengthAdjust="spacing" textLength="44" x="1496" y="134.2842">Signer</text><rect fill="#E2E2F0" height="30.2969" rx="2.5" ry="2.5" style="stroke:#181818;stroke-width:0.5;" width="62" x="1567" y="114.2891"/><text fill="#000000" font-family="sans-serif" font-size="14" lengthAdjust="spacing" textLength="48" x="1574" y="134.2842">Builder</text><rect fill="#E2E2F0" height="46.5938" rx="2.5" ry="2.5" style="stroke:#181818;stroke-width:0.5;" width="70" x="1687" y="97.9922"/><text fill="#000000" font-family="sans-serif" font-size="14" lengthAdjust="spacing" textLength="56" x="1694" y="117.9873">HotShot</text><text fill="#000000" font-family="sans-serif" font-size="14" lengthAdjust="spacing" textLength="47" x="1698.5" y="134.2842">Leader</text><rect fill="#E2E2F0" height="30.2969" rx="2.5" ry="2.5" style="stroke:#181818;stroke-width:0.5;" width="45" x="1767" y="114.2891"/><text fill="#000000" font-family="sans-serif" font-size="14" lengthAdjust="spacing" textLength="31" x="1774" y="134.2842">CDN</text><rect fill="#E2E2F0" height="30.2969" rx="2.5" ry="2.5" style="stroke:#181818;stroke-width:0.5;" width="60" x="1822" y="114.2891"/><text fill="#000000" font-family="sans-serif" font-size="14" lengthAdjust="spacing" textLength="46" x="1829" y="134.2842">Libp2p</text><rect fill="#E2E2F0" height="46.5938" rx="2.5" ry="2.5" style="stroke:#181818;stroke-width:0.5;" width="70" x="1892" y="97.9922"/><text fill="#000000" font-family="sans-serif" font-size="14" lengthAdjust="spacing" textLength="56" x="1899" y="117.9873">HotShot</text><text fill="#000000" font-family="sans-serif" font-size="14" lengthAdjust="spacing" textLength="53" x="1900.5" y="134.2842">replicas</text><rect fill="#E2E2F0" height="79.1875" rx="2.5" ry="2.5" style="stroke:#181818;stroke-width:0.5;" width="70" x="1972" y="65.3984"/><text fill="#000000" font-family="sans-serif" font-size="14" lengthAdjust="spacing" textLength="56" x="1979" y="85.3936">HotShot</text><text fill="#000000" font-family="sans-serif" font-size="14" lengthAdjust="spacing" textLength="35" x="1989.5" y="101.6904">state</text><text fill="#000000" font-family="sans-serif" font-size="14" lengthAdjust="spacing" textLength="32" x="1991" y="117.9873">relay</text><text fill="#000000" font-family="sans-serif" font-size="14" lengthAdjust="spacing" textLength="49" x="1982.5" y="134.2842">service</text><rect fill="#E2E2F0" height="79.1875" rx="2.5" ry="2.5" style="stroke:#181818;stroke-width:0.5;" width="70" x="2103" y="65.3984"/><text fill="#000000" font-family="sans-serif" font-size="14" lengthAdjust="spacing" textLength="56" x="2110" y="85.3936">HotShot</text><text fill="#000000" font-family="sans-serif" font-size="14" lengthAdjust="spacing" textLength="35" x="2120.5" y="101.6904">state</text><text fill="#000000" font-family="sans-serif" font-size="14" lengthAdjust="spacing" textLength="44" x="2116" y="117.9873">prover</text><text fill="#000000" font-family="sans-serif" font-size="14" lengthAdjust="spacing" textLength="49" x="2113.5" y="134.2842">service</text><text fill="#000000" font-family="sans-serif" font-size="14" lengthAdjust="spacing" textLength="32" x="5" y="1706.5576">User</text><ellipse cx="24" cy="1642.0625" fill="#E2E2F0" rx="8" ry="8" style="stroke:#181818;stroke-width:0.5;"/><path d="M24,1650.0625 L24,1677.0625 M11,1658.0625 L37,1658.0625 M24,1677.0625 L11,1692.0625 M24,1677.0625 L37,1692.0625 " fill="none" style="stroke:#181818;stroke-width:0.5;"/><rect fill="#E2E2F0" height="46.5938" rx="2.5" ry="2.5" style="stroke:#181818;stroke-width:0.5;" width="53" x="146.5" y="1633.5625"/><text fill="#000000" font-family="sans-serif" font-size="14" lengthAdjust="spacing" textLength="21" x="162.5" y="1653.5576">API</text><text fill="#000000" font-family="sans-serif" font-size="14" lengthAdjust="spacing" textLength="39" x="153.5" y="1669.8545">(RPC)</text><rect fill="#E2E2F0" height="30.2969" rx="2.5" ry="2.5" style="stroke:#181818;stroke-width:0.5;" width="90" x="209.5" y="1633.5625"/><text fill="#000000" font-family="sans-serif" font-size="14" lengthAdjust="spacing" textLength="76" x="216.5" y="1653.5576">Sequencer</text><rect fill="#E2E2F0" height="30.2969" rx="2.5" ry="2.5" style="stroke:#181818;stroke-width:0.5;" width="77" x="316" y="1633.5625"/><text fill="#000000" font-family="sans-serif" font-size="14" lengthAdjust="spacing" textLength="63" x="323" y="1653.5576">Proposer</text><rect fill="#E2E2F0" height="30.2969" rx="2.5" ry="2.5" style="stroke:#181818;stroke-width:0.5;" width="88" x="403" y="1633.5625"/><text fill="#000000" font-family="sans-serif" font-size="14" lengthAdjust="spacing" textLength="74" x="410" y="1653.5576">Challenger</text><rect fill="#E2E2F0" height="46.5938" rx="2.5" ry="2.5" style="stroke:#181818;stroke-width:0.5;" width="53" x="511" y="1633.5625"/><text fill="#000000" font-family="sans-serif" font-size="14" lengthAdjust="spacing" textLength="21" x="527" y="1653.5576">API</text><text fill="#000000" font-family="sans-serif" font-size="14" lengthAdjust="spacing" textLength="39" x="518" y="1669.8545">(RPC)</text><rect fill="#E2E2F0" height="30.2969" rx="2.5" ry="2.5" style="stroke:#181818;stroke-width:0.5;" width="90" x="574" y="1633.5625"/><text fill="#000000" font-family="sans-serif" font-size="14" lengthAdjust="spacing" textLength="76" x="581" y="1653.5576">Sequencer</text><rect fill="#E2E2F0" height="30.2969" rx="2.5" ry="2.5" style="stroke:#181818;stroke-width:0.5;" width="58" x="690" y="1633.5625"/><text fill="#000000" font-family="sans-serif" font-size="14" lengthAdjust="spacing" textLength="44" x="697" y="1653.5576">Prover</text><rect fill="#E2E2F0" height="30.2969" rx="2.5" ry="2.5" style="stroke:#181818;stroke-width:0.5;" width="75" x="777.5" y="1633.5625"/><text fill="#000000" font-family="sans-serif" font-size="14" lengthAdjust="spacing" textLength="61" x="784.5" y="1653.5576">Executor</text><rect fill="#E2E2F0" height="46.5938" rx="2.5" ry="2.5" style="stroke:#181818;stroke-width:0.5;" width="73" x="872.5" y="1633.5625"/><text fill="#000000" font-family="sans-serif" font-size="14" lengthAdjust="spacing" textLength="43" x="887.5" y="1653.5576">Rollup</text><text fill="#000000" font-family="sans-serif" font-size="14" lengthAdjust="spacing" textLength="59" x="879.5" y="1669.8545">Contract</text><rect fill="#E2E2F0" height="62.8906" rx="2.5" ry="2.5" style="stroke:#181818;stroke-width:0.5;" width="73" x="979.5" y="1633.5625"/><text fill="#000000" font-family="sans-serif" font-size="14" lengthAdjust="spacing" textLength="33" x="999.5" y="1653.5576">Light</text><text fill="#000000" font-family="sans-serif" font-size="14" lengthAdjust="spacing" textLength="39" x="996.5" y="1669.8545">Client</text><text fill="#000000" font-family="sans-serif" font-size="14" lengthAdjust="spacing" textLength="59" x="986.5" y="1686.1514">Contract</text><rect fill="#E2E2F0" height="46.5938" rx="2.5" ry="2.5" style="stroke:#181818;stroke-width:0.5;" width="73" x="1062.5" y="1633.5625"/><text fill="#000000" font-family="sans-serif" font-size="14" lengthAdjust="spacing" textLength="26" x="1086" y="1653.5576">Fee</text><text fill="#000000" font-family="sans-serif" font-size="14" lengthAdjust="spacing" textLength="59" x="1069.5" y="1669.8545">Contract</text><rect fill="#E2E2F0" height="46.5938" rx="2.5" ry="2.5" style="stroke:#181818;stroke-width:0.5;" width="62" x="1155.5" y="1633.5625"/><text fill="#000000" font-family="sans-serif" font-size="14" lengthAdjust="spacing" textLength="48" x="1162.5" y="1653.5576">Submit</text><text fill="#000000" font-family="sans-serif" font-size="14" lengthAdjust="spacing" textLength="21" x="1176" y="1669.8545">API</text><rect fill="#E2E2F0" height="46.5938" rx="2.5" ry="2.5" style="stroke:#181818;stroke-width:0.5;" width="55" x="1227.5" y="1633.5625"/><text fill="#000000" font-family="sans-serif" font-size="14" lengthAdjust="spacing" textLength="41" x="1234.5" y="1653.5576">Query</text><text fill="#000000" font-family="sans-serif" font-size="14" lengthAdjust="spacing" textLength="21" x="1244.5" y="1669.8545">API</text><rect fill="#E2E2F0" height="62.8906" rx="2.5" ry="2.5" style="stroke:#181818;stroke-width:0.5;" width="70" x="1302.5" y="1633.5625"/><text fill="#000000" font-family="sans-serif" font-size="14" lengthAdjust="spacing" textLength="56" x="1309.5" y="1653.5576">HotShot</text><text fill="#000000" font-family="sans-serif" font-size="14" lengthAdjust="spacing" textLength="47" x="1314" y="1669.8545">Events</text><text fill="#000000" font-family="sans-serif" font-size="14" lengthAdjust="spacing" textLength="49" x="1313" y="1686.1514">Stream</text><rect fill="#E2E2F0" height="46.5938" rx="2.5" ry="2.5" style="stroke:#181818;stroke-width:0.5;" width="77" x="1382.5" y="1633.5625"/><text fill="#000000" font-family="sans-serif" font-size="14" lengthAdjust="spacing" textLength="63" x="1389.5" y="1653.5576">Validated</text><text fill="#000000" font-family="sans-serif" font-size="14" lengthAdjust="spacing" textLength="36" x="1403" y="1669.8545">State</text><rect fill="#E2E2F0" height="46.5938" rx="2.5" ry="2.5" style="stroke:#181818;stroke-width:0.5;" width="58" x="1489" y="1633.5625"/><text fill="#000000" font-family="sans-serif" font-size="14" lengthAdjust="spacing" textLength="36" x="1500" y="1653.5576">State</text><text fill="#000000" font-family="sans-serif" font-size="14" lengthAdjust="spacing" textLength="44" x="1496" y="1669.8545">Signer</text><rect fill="#E2E2F0" height="30.2969" rx="2.5" ry="2.5" style="stroke:#181818;stroke-width:0.5;" width="62" x="1567" y="1633.5625"/><text fill="#000000" font-family="sans-serif" font-size="14" lengthAdjust="spacing" textLength="48" x="1574" y="1653.5576">Builder</text><rect fill="#E2E2F0" height="46.5938" rx="2.5" ry="2.5" style="stroke:#181818;stroke-width:0.5;" width="70" x="1687" y="1633.5625"/><text fill="#000000" font-family="sans-serif" font-size="14" lengthAdjust="spacing" textLength="56" x="1694" y="1653.5576">HotShot</text><text fill="#000000" font-family="sans-serif" font-size="14" lengthAdjust="spacing" textLength="47" x="1698.5" y="1669.8545">Leader</text><rect fill="#E2E2F0" height="30.2969" rx="2.5" ry="2.5" style="stroke:#181818;stroke-width:0.5;" width="45" x="1767" y="1633.5625"/><text fill="#000000" font-family="sans-serif" font-size="14" lengthAdjust="spacing" textLength="31" x="1774" y="1653.5576">CDN</text><rect fill="#E2E2F0" height="30.2969" rx="2.5" ry="2.5" style="stroke:#181818;stroke-width:0.5;" width="60" x="1822" y="1633.5625"/><text fill="#000000" font-family="sans-serif" font-size="14" lengthAdjust="spacing" textLength="46" x="1829" y="1653.5576">Libp2p</text><rect fill="#E2E2F0" height="46.5938" rx="2.5" ry="2.5" style="stroke:#181818;stroke-width:0.5;" width="70" x="1892" y="1633.5625"/><text fill="#000000" font-family="sans-serif" font-size="14" lengthAdjust="spacing" textLength="56" x="1899" y="1653.5576">HotShot</text><text fill="#000000" font-family="sans-serif" font-size="14" lengthAdjust="spacing" textLength="53" x="1900.5" y="1669.8545">replicas</text><rect fill="#E2E2F0" height="79.1875" rx="2.5" ry="2.5" style="stroke:#181818;stroke-width:0.5;" width="70" x="1972" y="1633.5625"/><text fill="#000000" font-family="sans-serif" font-size="14" lengthAdjust="spacing" textLength="56" x="1979" y="1653.5576">HotShot</text><text fill="#000000" font-family="sans-serif" font-size="14" lengthAdjust="spacing" textLength="35" x="1989.5" y="1669.8545">state</text><text fill="#000000" font-family="sans-serif" font-size="14" lengthAdjust="spacing" textLength="32" x="1991" y="1686.1514">relay</text><text fill="#000000" font-family="sans-serif" font-size="14" lengthAdjust="spacing" textLength="49" x="1982.5" y="1702.4482">service</text><rect fill="#E2E2F0" height="79.1875" rx="2.5" ry="2.5" style="stroke:#181818;stroke-width:0.5;" width="70" x="2103" y="1633.5625"/><text fill="#000000" font-family="sans-serif" font-size="14" lengthAdjust="spacing" textLength="56" x="2110" y="1653.5576">HotShot</text><text fill="#000000" font-family="sans-serif" font-size="14" lengthAdjust="spacing" textLength="35" x="2120.5" y="1669.8545">state</text><text fill="#000000" font-family="sans-serif" font-size="14" lengthAdjust="spacing" textLength="44" x="2116" y="1686.1514">prover</text><text fill="#000000" font-family="sans-serif" font-size="14" lengthAdjust="spacing" textLength="49" x="2113.5" y="1702.4482">service</text><path d="M1083,157.5859 L1235,157.5859 L1235,164.7188 L1225,174.7188 L1083,174.7188 L1083,157.5859 " fill="#EEEEEE" style="stroke:#000000;stroke-width:1.5;"/><rect fill="none" height="56.2656" style="stroke:#000000;stroke-width:1.5;" width="531" x="1083" y="157.5859"/><text fill="#000000" font-family="sans-serif" font-size="13" font-weight="bold" lengthAdjust="spacing" textLength="107" x="1098" y="170.6528">1. Fee deposit</text><polygon fill="#181818" points="1110,201.8516,1100,205.8516,1110,209.8516,1106,205.8516" style="stroke:#181818;stroke-width:1.0;"/><line style="stroke:#181818;stroke-width:1.0;" x1="1104" x2="1597" y1="205.8516" y2="205.8516"/><text fill="#000000" font-family="sans-serif" font-size="13" lengthAdjust="spacing" textLength="71" x="1116" y="200.7856">fee deposit</text><path d="M8,231.8516 L273,231.8516 L273,238.9844 L263,248.9844 L8,248.9844 L8,231.8516 " fill="#EEEEEE" style="stroke:#000000;stroke-width:1.5;"/><rect fill="none" height="85.3984" style="stroke:#000000;stroke-width:1.5;" width="545.5" x="8" y="231.8516"/><text fill="#000000" font-family="sans-serif" font-size="13" font-weight="bold" lengthAdjust="spacing" textLength="220" x="23" y="244.9185">2. L2 transaction submisssion</text><polygon fill="#181818" points="161,276.1172,171,280.1172,161,284.1172,165,280.1172" style="stroke:#181818;stroke-width:1.0;"/><line style="stroke:#181818;stroke-width:1.0;" x1="24" x2="167" y1="280.1172" y2="280.1172"/><text fill="#000000" font-family="sans-serif" font-size="13" lengthAdjust="spacing" textLength="125" x="31" y="275.0513">rollup O transaction</text><polygon fill="#181818" points="525.5,305.25,535.5,309.25,525.5,313.25,529.5,309.25" style="stroke:#181818;stroke-width:1.0;"/><line style="stroke:#181818;stroke-width:1.0;" x1="24" x2="531.5" y1="309.25" y2="309.25"/><text fill="#000000" font-family="sans-serif" font-size="13" lengthAdjust="spacing" textLength="125" x="31" y="304.1841">rollup Z transaction</text><path d="M238.5,335.25 L429.5,335.25 L429.5,342.3828 L419.5,352.3828 L238.5,352.3828 L238.5,335.25 " fill="#EEEEEE" style="stroke:#000000;stroke-width:1.5;"/><rect fill="none" height="111.3984" style="stroke:#000000;stroke-width:1.5;" width="496.5" x="238.5" y="335.25"/><text fill="#000000" font-family="sans-serif" font-size="13" font-weight="bold" lengthAdjust="spacing" textLength="146" x="253.5" y="348.3169">3. L2 Block building</text><line style="stroke:#181818;stroke-width:1.0;" x1="254.5" x2="296.5" y1="383.5156" y2="383.5156"/><line style="stroke:#181818;stroke-width:1.0;" x1="296.5" x2="296.5" y1="383.5156" y2="396.5156"/><line style="stroke:#181818;stroke-width:1.0;" x1="255.5" x2="296.5" y1="396.5156" y2="396.5156"/><polygon fill="#181818" points="265.5,392.5156,255.5,396.5156,265.5,400.5156,261.5,396.5156" style="stroke:#181818;stroke-width:1.0;"/><text fill="#000000" font-family="sans-serif" font-size="13" lengthAdjust="spacing" textLength="86" x="261.5" y="378.4497">build L2 block</text><line style="stroke:#181818;stroke-width:1.0;" x1="619" x2="661" y1="425.6484" y2="425.6484"/><line style="stroke:#181818;stroke-width:1.0;" x1="661" x2="661" y1="425.6484" y2="438.6484"/><line style="stroke:#181818;stroke-width:1.0;" x1="620" x2="661" y1="438.6484" y2="438.6484"/><polygon fill="#181818" points="630,434.6484,620,438.6484,630,442.6484,626,438.6484" style="stroke:#181818;stroke-width:1.0;"/><text fill="#000000" font-family="sans-serif" font-size="13" lengthAdjust="spacing" textLength="86" x="626" y="420.5825">build L2 block</text><path d="M157,464.6484 L486,464.6484 L486,471.7813 L476,481.7813 L157,481.7813 L157,464.6484 " fill="#EEEEEE" style="stroke:#000000;stroke-width:1.5;"/><rect fill="none" height="114.5313" style="stroke:#000000;stroke-width:1.5;" width="1457" x="157" y="464.6484"/><text fill="#000000" font-family="sans-serif" font-size="13" font-weight="bold" lengthAdjust="spacing" textLength="284" x="172" y="477.7153">4. L2 Espresso transaction submission</text><polygon fill="#181818" points="1174.5,508.9141,1184.5,512.9141,1174.5,516.9141,1178.5,512.9141" style="stroke:#181818;stroke-width:1.0;"/><line style="stroke:#181818;stroke-width:1.0;" x1="173" x2="1180.5" y1="512.9141" y2="512.9141"/><text fill="#000000" font-family="sans-serif" font-size="13" lengthAdjust="spacing" textLength="247" x="180" y="507.8481">Espresso transaction: rollup O L2 block</text><polygon fill="#181818" points="1174.5,538.0469,1184.5,542.0469,1174.5,546.0469,1178.5,542.0469" style="stroke:#181818;stroke-width:1.0;"/><line style="stroke:#181818;stroke-width:1.0;" x1="537.5" x2="1180.5" y1="542.0469" y2="542.0469"/><text fill="#000000" font-family="sans-serif" font-size="13" lengthAdjust="spacing" textLength="247" x="544.5" y="536.981">Espresso transaction: rollup Z L2 block</text><polygon fill="#181818" points="1586,567.1797,1596,571.1797,1586,575.1797,1590,571.1797" style="stroke:#181818;stroke-width:1.0;"/><line style="stroke:#181818;stroke-width:1.0;" x1="1337.5" x2="1592" y1="571.1797" y2="571.1797"/><text fill="#000000" font-family="sans-serif" font-size="13" lengthAdjust="spacing" textLength="141" x="1344.5" y="566.1138">Espresso transactions</text><path d="M1582,597.1797 L1874,597.1797 L1874,604.3125 L1864,614.3125 L1582,614.3125 L1582,597.1797 " fill="#EEEEEE" style="stroke:#000000;stroke-width:1.5;"/><rect fill="none" height="85.3984" style="stroke:#000000;stroke-width:1.5;" width="308" x="1582" y="597.1797"/><text fill="#000000" font-family="sans-serif" font-size="13" font-weight="bold" lengthAdjust="spacing" textLength="247" x="1597" y="610.2466">5. Leader obtains Espresso block</text><polygon fill="#181818" points="1710,641.4453,1720,645.4453,1710,649.4453,1714,645.4453" style="stroke:#181818;stroke-width:1.0;"/><line style="stroke:#181818;stroke-width:1.0;" x1="1598" x2="1716" y1="645.4453" y2="645.4453"/><text fill="#000000" font-family="sans-serif" font-size="13" lengthAdjust="spacing" textLength="100" x="1605" y="640.3794">available blocks</text><polygon fill="#181818" points="1609,670.5781,1599,674.5781,1609,678.5781,1605,674.5781" style="stroke:#181818;stroke-width:1.0;"/><line style="stroke:#181818;stroke-width:1.0;" x1="1603" x2="1721" y1="674.5781" y2="674.5781"/><text fill="#000000" font-family="sans-serif" font-size="13" lengthAdjust="spacing" textLength="71" x="1615" y="669.5122">claim block</text><path d="M1083,700.5781 L1288,700.5781 L1288,707.7109 L1278,717.7109 L1083,717.7109 L1083,700.5781 " fill="#EEEEEE" style="stroke:#000000;stroke-width:1.5;"/><rect fill="none" height="142.6641" style="stroke:#000000;stroke-width:1.5;" width="860" x="1083" y="700.5781"/><text fill="#000000" font-family="sans-serif" font-size="13" font-weight="bold" lengthAdjust="spacing" textLength="160" x="1098" y="713.645">6. HotShot consensus</text><polygon fill="#181818" points="1733,744.8438,1723,748.8438,1733,752.8438,1729,748.8438" style="stroke:#181818;stroke-width:1.0;"/><polygon fill="#181818" points="1915,744.8438,1925,748.8438,1915,752.8438,1919,748.8438" style="stroke:#181818;stroke-width:1.0;"/><line style="stroke:#181818;stroke-width:1.0;" x1="1727" x2="1921" y1="748.8438" y2="748.8438"/><text fill="#000000" font-family="sans-serif" font-size="13" lengthAdjust="spacing" textLength="138" x="1739" y="743.7778">consensus messages</text><polygon fill="#181818" points="1733,744.8438,1723,748.8438,1733,752.8438,1729,748.8438" style="stroke:#181818;stroke-width:1.0;"/><polygon fill="#181818" points="1840,744.8438,1850,748.8438,1840,752.8438,1844,748.8438" style="stroke:#181818;stroke-width:1.0;"/><line style="stroke:#181818;stroke-width:1.0;" x1="1727" x2="1846" y1="748.8438" y2="748.8438"/><polygon fill="#181818" points="1863,744.8438,1853,748.8438,1863,752.8438,1859,748.8438" style="stroke:#181818;stroke-width:1.0;"/><polygon fill="#181818" points="1915,744.8438,1925,748.8438,1915,752.8438,1919,748.8438" style="stroke:#181818;stroke-width:1.0;"/><line style="stroke:#181818;stroke-width:1.0;" x1="1857" x2="1921" y1="748.8438" y2="748.8438"/><polygon fill="#181818" points="1800.5,744.8438,1790.5,748.8438,1800.5,752.8438,1796.5,748.8438" style="stroke:#181818;stroke-width:1.0;"/><line style="stroke:#181818;stroke-width:1.0;" x1="1794.5" x2="1926" y1="748.8438" y2="748.8438"/><polygon fill="#181818" points="1409,773.9766,1419,777.9766,1409,781.9766,1413,777.9766" style="stroke:#181818;stroke-width:1.0;"/><line style="stroke:#181818;stroke-width:1.0;" x1="1099" x2="1415" y1="777.9766" y2="777.9766"/><text fill="#000000" font-family="sans-serif" font-size="13" lengthAdjust="spacing" textLength="111" x="1106" y="772.9106">credit fee deposit</text><line style="stroke:#181818;stroke-width:1.0;" x1="1421" x2="1463" y1="822.2422" y2="822.2422"/><line style="stroke:#181818;stroke-width:1.0;" x1="1463" x2="1463" y1="822.2422" y2="835.2422"/><line style="stroke:#181818;stroke-width:1.0;" x1="1422" x2="1463" y1="835.2422" y2="835.2422"/><polygon fill="#181818" points="1432,831.2422,1422,835.2422,1432,839.2422,1428,835.2422" style="stroke:#181818;stroke-width:1.0;"/><text fill="#000000" font-family="sans-serif" font-size="13" lengthAdjust="spacing" textLength="83" x="1428" y="802.0435">apply header</text><text fill="#000000" font-family="sans-serif" font-size="13" lengthAdjust="spacing" textLength="68" x="1428" y="817.1763">charge fee</text><path d="M703,861.2422 L943,861.2422 L943,868.375 L933,878.375 L703,878.375 L703,861.2422 " fill="#EEEEEE" style="stroke:#000000;stroke-width:1.5;"/><rect fill="none" height="172.9297" style="stroke:#000000;stroke-width:1.5;" width="568" x="703" y="861.2422"/><text fill="#000000" font-family="sans-serif" font-size="13" font-weight="bold" lengthAdjust="spacing" textLength="195" x="718" y="874.3091">7. Rollup block production</text><polygon fill="#181818" points="826,920.6406,816,924.6406,826,928.6406,822,924.6406" style="stroke:#181818;stroke-width:1.0;"/><line style="stroke:#181818;stroke-width:1.0;" x1="820" x2="1254" y1="924.6406" y2="924.6406"/><text fill="#000000" font-family="sans-serif" font-size="13" lengthAdjust="spacing" textLength="111" x="832" y="904.4419">Espresso header,</text><text fill="#000000" font-family="sans-serif" font-size="13" lengthAdjust="spacing" textLength="173" x="832" y="919.5747">transactions in namespace</text><line style="stroke:#181818;stroke-width:1.0;" x1="815" x2="857" y1="984.0391" y2="984.0391"/><line style="stroke:#181818;stroke-width:1.0;" x1="857" x2="857" y1="984.0391" y2="997.0391"/><line style="stroke:#181818;stroke-width:1.0;" x1="816" x2="857" y1="997.0391" y2="997.0391"/><polygon fill="#181818" points="826,993.0391,816,997.0391,826,1001.0391,822,997.0391" style="stroke:#181818;stroke-width:1.0;"/><text fill="#000000" font-family="sans-serif" font-size="13" lengthAdjust="spacing" textLength="34" x="822" y="948.7075">verify</text><text fill="#000000" font-family="sans-serif" font-size="13" lengthAdjust="spacing" textLength="75" x="822" y="963.8403">namespace</text><text fill="#000000" font-family="sans-serif" font-size="13" lengthAdjust="spacing" textLength="33" x="822" y="978.9731">proof</text><polygon fill="#181818" points="730,1022.1719,720,1026.1719,730,1030.1719,726,1026.1719" style="stroke:#181818;stroke-width:1.0;"/><line style="stroke:#181818;stroke-width:1.0;" x1="724" x2="814" y1="1026.1719" y2="1026.1719"/><text fill="#000000" font-family="sans-serif" font-size="13" lengthAdjust="spacing" textLength="72" x="736" y="1021.106">rollup block</text><path d="M1000,1052.1719 L1184,1052.1719 L1184,1059.3047 L1174,1069.3047 L1000,1069.3047 L1000,1052.1719 " fill="#EEEEEE" style="stroke:#000000;stroke-width:1.5;"/><rect fill="none" height="171.7969" style="stroke:#000000;stroke-width:1.5;" width="1154" x="1000" y="1052.1719"/><text fill="#000000" font-family="sans-serif" font-size="13" font-weight="bold" lengthAdjust="spacing" textLength="139" x="1015" y="1065.2388">8. HotShot proving</text><polygon fill="#181818" points="1995,1096.4375,2005,1100.4375,1995,1104.4375,1999,1100.4375" style="stroke:#181818;stroke-width:1.0;"/><line style="stroke:#181818;stroke-width:1.0;" x1="1518" x2="2001" y1="1100.4375" y2="1100.4375"/><text fill="#000000" font-family="sans-serif" font-size="13" lengthAdjust="spacing" textLength="101" x="1525" y="1095.3716">state, signature</text><polygon fill="#181818" points="2126,1140.7031,2136,1144.7031,2126,1148.7031,2130,1144.7031" style="stroke:#181818;stroke-width:1.0;"/><line style="stroke:#181818;stroke-width:1.0;" x1="2007" x2="2132" y1="1144.7031" y2="1144.7031"/><text fill="#000000" font-family="sans-serif" font-size="13" lengthAdjust="spacing" textLength="37" x="2014" y="1124.5044">state,</text><text fill="#000000" font-family="sans-serif" font-size="13" lengthAdjust="spacing" textLength="107" x="2014" y="1139.6372">signature bundle</text><polygon fill="#181818" points="1027,1169.8359,1017,1173.8359,1027,1177.8359,1023,1173.8359" style="stroke:#181818;stroke-width:1.0;"/><line style="stroke:#181818;stroke-width:1.0;" x1="1021" x2="2137" y1="1173.8359" y2="1173.8359"/><text fill="#000000" font-family="sans-serif" font-size="13" lengthAdjust="spacing" textLength="33" x="1033" y="1168.77">proof</text><line style="stroke:#181818;stroke-width:1.0;" x1="1016" x2="1058" y1="1202.9688" y2="1202.9688"/><line style="stroke:#181818;stroke-width:1.0;" x1="1058" x2="1058" y1="1202.9688" y2="1215.9688"/><line style="stroke:#181818;stroke-width:1.0;" x1="1017" x2="1058" y1="1215.9688" y2="1215.9688"/><polygon fill="#181818" points="1027,1211.9688,1017,1215.9688,1027,1219.9688,1023,1215.9688" style="stroke:#181818;stroke-width:1.0;"/><text fill="#000000" font-family="sans-serif" font-size="13" lengthAdjust="spacing" textLength="34" x="1023" y="1197.9028">verify</text><path d="M703,1241.9688 L899,1241.9688 L899,1249.1016 L889,1259.1016 L703,1259.1016 L703,1241.9688 " fill="#EEEEEE" style="stroke:#000000;stroke-width:1.5;"/><rect fill="none" height="145.6641" style="stroke:#000000;stroke-width:1.5;" width="354" x="703" y="1241.9688"/><text fill="#000000" font-family="sans-serif" font-size="13" font-weight="bold" lengthAdjust="spacing" textLength="151" x="718" y="1255.0356">9. ZK Rollup proving</text><polygon fill="#181818" points="897,1286.2344,907,1290.2344,897,1294.2344,901,1290.2344" style="stroke:#181818;stroke-width:1.0;"/><line style="stroke:#181818;stroke-width:1.0;" x1="719" x2="903" y1="1290.2344" y2="1290.2344"/><text fill="#000000" font-family="sans-serif" font-size="13" lengthAdjust="spacing" textLength="109" x="726" y="1285.1685">rollup state proof</text><path d="M893,1302.2344 L979,1302.2344 L979,1309.3672 L969,1319.3672 L893,1319.3672 L893,1302.2344 " fill="#EEEEEE" style="stroke:#000000;stroke-width:1.5;"/><rect fill="none" height="71.3984" style="stroke:#000000;stroke-width:1.5;" width="139" x="893" y="1302.2344"/><text fill="#000000" font-family="sans-serif" font-size="13" font-weight="bold" lengthAdjust="spacing" textLength="41" x="908" y="1315.3013">verify</text><polygon fill="#181818" points="920,1361.6328,910,1365.6328,920,1369.6328,916,1365.6328" style="stroke:#181818;stroke-width:1.0;"/><line style="stroke:#181818;stroke-width:1.0;" x1="914" x2="1015" y1="1365.6328" y2="1365.6328"/><text fill="#000000" font-family="sans-serif" font-size="13" lengthAdjust="spacing" textLength="53" x="926" y="1345.4341">HotShot</text><text fill="#000000" font-family="sans-serif" font-size="13" lengthAdjust="spacing" textLength="83" x="926" y="1360.5669">commitment</text><path d="M319.5,1405.6328 L579.5,1405.6328 L579.5,1412.7656 L569.5,1422.7656 L319.5,1422.7656 L319.5,1405.6328 " fill="#EEEEEE" style="stroke:#000000;stroke-width:1.5;"/><rect fill="none" height="203.9297" style="stroke:#000000;stroke-width:1.5;" width="737.5" x="319.5" y="1405.6328"/><text fill="#000000" font-family="sans-serif" font-size="13" font-weight="bold" lengthAdjust="spacing" textLength="215" x="334.5" y="1418.6997">10. Optimistic Rollup dispute</text><polygon fill="#181818" points="897,1449.8984,907,1453.8984,897,1457.8984,901,1453.8984" style="stroke:#181818;stroke-width:1.0;"/><line style="stroke:#181818;stroke-width:1.0;" x1="447" x2="903" y1="1453.8984" y2="1453.8984"/><text fill="#000000" font-family="sans-serif" font-size="13" lengthAdjust="spacing" textLength="61" x="454" y="1448.8325">challenge</text><path d="M338.5,1465.8984 L415.5,1465.8984 L415.5,1473.0313 L405.5,1483.0313 L338.5,1483.0313 L338.5,1465.8984 " fill="#EEEEEE" style="stroke:#000000;stroke-width:1.5;"/><rect fill="none" height="129.6641" style="stroke:#000000;stroke-width:1.5;" width="693.5" x="338.5" y="1465.8984"/><text fill="#000000" font-family="sans-serif" font-size="13" font-weight="bold" lengthAdjust="spacing" textLength="32" x="353.5" y="1478.9653">loop</text><text fill="#000000" font-family="sans-serif" font-size="11" font-weight="bold" lengthAdjust="spacing" textLength="150" x="430.5" y="1478.1089">[until dispute resolved]</text><polygon fill="#181818" points="897,1510.1641,907,1514.1641,897,1518.1641,901,1514.1641" style="stroke:#181818;stroke-width:1.0;"/><line style="stroke:#181818;stroke-width:1.0;" x1="354.5" x2="903" y1="1514.1641" y2="1514.1641"/><text fill="#000000" font-family="sans-serif" font-size="13" lengthAdjust="spacing" textLength="52" x="361.5" y="1509.0981">respond</text><polygon fill="#181818" points="920,1554.4297,910,1558.4297,920,1562.4297,916,1558.4297" style="stroke:#181818;stroke-width:1.0;"/><line style="stroke:#181818;stroke-width:1.0;stroke-dasharray:2.0,2.0;" x1="914" x2="1015" y1="1558.4297" y2="1558.4297"/><text fill="#000000" font-family="sans-serif" font-size="13" lengthAdjust="spacing" textLength="53" x="926" y="1538.231">HotShot</text><text fill="#000000" font-family="sans-serif" font-size="13" lengthAdjust="spacing" textLength="83" x="926" y="1553.3638">commitment</text><polygon fill="#181818" points="897,1583.5625,907,1587.5625,897,1591.5625,901,1587.5625" style="stroke:#181818;stroke-width:1.0;"/><line style="stroke:#181818;stroke-width:1.0;" x1="447" x2="903" y1="1587.5625" y2="1587.5625"/><text fill="#000000" font-family="sans-serif" font-size="13" lengthAdjust="spacing" textLength="52" x="454" y="1582.4966">respond</text><!--SRC=[bLPjRzis4FxkNt5pW645Ec_9jcuLXW6BbxrWNfiwM845_a9B5vi8HIgavDRvzJqUIRr4SjlvGoAHptFt7E-5-gAoObSAgD4yGcqRd8cyDXR-TMXdiwrv3ojnH0iN3hw1jL6ggHoShUHkN_-7IfbtCw2VnyrVLxKifQjb7e7mUXwXVrX4pKZ_guGbaAo4hc7-w_LV6_tL-dhvR0x2WR6soYUHD_ZGeCv92yCSFap2hgsfZ1S_jRdS2wLGx-8swi9BxqAu_Jj9lqtIBnMToUSeVxp_BEMFzwUKpqdw0IqRinK_J-EktcFUK98OYV5b453wpmcSNzLxjDYKi3hl9UGu6naEiM_qqkZQKXsmW_Lo36GRX5CITVq4lvh0_uxu17M7E5HvvIgBpfdUQRt2-fsnzt3s3rNLSKrPRJFL0va2uUnIkeTUdZo4qfCgTNaKNVMDnDqqsr9I54HWQOxVJ-FVD6YF7Vp1lxReVacDc7-Q-cPloDNLWSxDRVHDRL6K8O-yDCrxAvGiH8s5Pz1_9hIBl3HDv2qYoPsEXUNuSL0ietHTDb8L4JIjVuMYY0OLFuwmozzUZTPMSbjTL1ynQx5ICXSkj41y-GZUXV0iAa49eQO_o1mZcPO-pGnTDgJ6pcjFPsSDpOFp1L0HGu4qN69nn6E2ht_nrPpvF-s-PpCnyIyMiBgW0IkqenQGHeSoSyxHCvlp4zVRuWcOWOqZjCyPu7ZUjBZR0Mxa_ZjsVwbCVWzRhrlg7LlZGHhSqaCMDZrswx4CuOaLF4v1Hhw-PrzjFq_4d4BXKBtbq7BP9Abt54za_H_oxP0SkispOnQdwMuStGyK7PSyc6qjf7OTiJFVAutG7nc8Wv1AR1K6M2Zhi3cGaIiXorD7-s81iOGX9tMeNJCmz3DPIdsJTH0eIP_OOS1-sKU7dipYHdWRcebRwTsBfUOEoxxawNquYiYnnKBMWuRmw25iYYYgIXrXp_8sEjyBkyFsgXYSn8-BT5FpKVckBPgkINWeUm_fUkpbDvX_lj7zH8FKe0MTKoNoC4mJSsY5HeEyes7JOdc8cBiH9TxWRG6UoEXFNKOz8RLb6DDinq-o37XWFUTrKJSsIEGz3qg-0ehcMO9Hi-f21NG0UVWdxkyCkf1MIq_mQo7oSGGl5z1zDlLZi9t3zR8z1vROSn2CHEFf4WjUJtsFPD3EyToKrFibHT5UQK7SIERvjmiOVw4MqbLDl3sxZyCaEKyheSUCgQ3HjLI9HWbmHXsmuFtqvTa6J0LYTD4UOrm-fNtiFXbeO_a0]--></g></svg>