<?xml version="1.0" encoding="us-ascii" standalone="no"?><svg xmlns="http://www.w3.org/2000/svg" xmlns:xlink="http://www.w3.org/1999/xlink" contentStyleType="text/css" height="276px" preserveAspectRatio="none" style="width:570px;height:276px;background:#FFFFFF;" version="1.1" viewBox="0 0 570 276" width="570px" zoomAndPan="magnify"><defs/><g><!--entity ZK--><g id="elem_ZK"><rect fill="#F1F1F1" height="46.2969" rx="2.5" ry="2.5" style="stroke:#181818;stroke-width:0.5;" width="77" x="252" y="103"/><rect fill="#F1F1F1" height="10" style="stroke:#181818;stroke-width:0.5;" width="15" x="309" y="108"/><rect fill="#F1F1F1" height="2" style="stroke:#181818;stroke-width:0.5;" width="4" x="307" y="110"/><rect fill="#F1F1F1" height="2" style="stroke:#181818;stroke-width:0.5;" width="4" x="307" y="114"/><text fill="#000000" font-family="sans-serif" font-size="14" lengthAdjust="spacing" textLength="37" x="267" y="135.9951">zkVM</text></g><!--entity cm_state_vm i--><g id="elem_cm_state_vm i"><ellipse cx="54.5" cy="14" fill="#F1F1F1" rx="8" ry="8" style="stroke:#181818;stroke-width:0.5;"/><text fill="#000000" font-family="sans-serif" font-size="14" lengthAdjust="spacing" textLength="97" x="6" y="43.9951">cm_state_vm i</text></g><!--entity cm_state_vm i+1--><g id="elem_cm_state_vm i+1"><ellipse cx="212.5" cy="14" fill="#F1F1F1" rx="8" ry="8" style="stroke:#181818;stroke-width:0.5;"/><text fill="#000000" font-family="sans-serif" font-size="14" lengthAdjust="spacing" textLength="118" x="153.5" y="43.9951">cm_state_vm i+1</text></g><!--entity cm_txs_rollup--><g id="elem_cm_txs_rollup"><ellipse cx="368.5" cy="14" fill="#F1F1F1" rx="8" ry="8" style="stroke:#181818;stroke-width:0.5;"/><text fill="#000000" font-family="sans-serif" font-size="14" lengthAdjust="spacing" textLength="93" x="322" y="43.9951">cm_txs_rollup</text></g><!--entity <b>ROLLUP_TXS</b>--><g id="elem_&lt;b&gt;ROLLUP_TXS&lt;/b&gt;"><ellipse cx="514.5" cy="14" fill="#F1F1F1" rx="8" ry="8" style="stroke:#181818;stroke-width:0.5;"/><text fill="#000000" font-family="sans-serif" font-size="14" font-weight="bold" lengthAdjust="spacing" textLength="98" x="465.5" y="43.9951">ROLLUP_TXS</text></g><!--entity OUTPUT--><g id="elem_OUTPUT"><ellipse cx="290.5" cy="238.3" fill="#F1F1F1" rx="8" ry="8" style="stroke:#181818;stroke-width:0.5;"/><text fill="#000000" font-family="sans-serif" font-size="14" lengthAdjust="spacing" textLength="58" x="261.5" y="268.2951">OUTPUT</text></g><!--link cm_state_vm i to ZK--><g id="link_cm_state_vm i_ZK"><path d="M63.46,19.19 C94.03,33.45 189.9333,78.2119 246.3333,104.5419 " fill="none" id="cm_state_vm i-to-ZK" style="stroke:#181818;stroke-width:1.0;"/><polygon fill="#181818" points="251.77,107.08,245.307,99.6484,247.2394,104.9649,241.9228,106.8973,251.77,107.08" style="stroke:#181818;stroke-width:1.0;"/></g><!--link cm_state_vm i+1 to ZK--><g id="link_cm_state_vm i+1_ZK"><path d="M218.11,22.92 C229.78,39.4 253.5626,72.9833 271.1026,97.7533 " fill="none" id="cm_state_vm i+1-to-ZK" style="stroke:#181818;stroke-width:1.0;"/><polygon fill="#181818" points="274.57,102.65,272.6333,92.9934,271.6805,98.5695,266.1045,97.6166,274.57,102.65" style="stroke:#181818;stroke-width:1.0;"/></g><!--link cm_txs_rollup to ZK--><g id="link_cm_txs_rollup_ZK"><path d="M362.89,22.92 C351.22,39.4 327.4374,72.9833 309.8974,97.7533 " fill="none" id="cm_txs_rollup-to-ZK" style="stroke:#181818;stroke-width:1.0;"/><polygon fill="#181818" points="306.43,102.65,314.8955,97.6166,309.3195,98.5695,308.3667,92.9934,306.43,102.65" style="stroke:#181818;stroke-width:1.0;"/></g><!--link <b>ROLLUP_TXS</b> to ZK--><g id="link_&lt;b&gt;ROLLUP_TXS&lt;/b&gt;_ZK"><path d="M505.72,19.32 C476.76,33.56 388.4645,76.9828 334.7245,103.4028 " fill="none" id="&lt;b&gt;ROLLUP_TXS&lt;/b&gt;-to-ZK" style="stroke:#181818;stroke-width:1.0;"/><polygon fill="#181818" points="329.34,106.05,339.1815,105.6689,333.8271,103.844,335.6519,98.4896,329.34,106.05" style="stroke:#181818;stroke-width:1.0;"/></g><!--link ZK to OUTPUT--><g id="link_ZK_OUTPUT"><path d="M290.5,149.71 C290.5,174.51 290.5,207.01 290.5,223.44 " fill="none" id="ZK-to-OUTPUT" style="stroke:#181818;stroke-width:1.0;"/><polygon fill="#181818" points="290.5,229.44,294.5,220.44,290.5,224.44,286.5,220.44,290.5,229.44" style="stroke:#181818;stroke-width:1.0;"/></g><!--SRC=[YwxA3lEDLKWiLeZovk9IIiwDBov9B4cDByjLo5HIqDMr0ucZ2ciRmYM0uYKLnV55-JavfGLmrJP9Ta7-FZwX0V4X4S4s-absSFLHtc2MVsX8G6W85nS0]--></g></svg>