<?xml version="1.0" encoding="us-ascii" standalone="no"?><svg xmlns="http://www.w3.org/2000/svg" xmlns:xlink="http://www.w3.org/1999/xlink" contentStyleType="text/css" height="383px" preserveAspectRatio="none" style="width:1234px;height:383px;background:#FFFFFF;" version="1.1" viewBox="0 0 1234 383" width="1234px" zoomAndPan="magnify"><defs/><g><!--entity CF--><g id="elem_CF"><rect fill="#F1F1F1" height="46.2969" rx="2.5" ry="2.5" style="stroke:#181818;stroke-width:0.5;" width="140" x="298" y="103"/><rect fill="#F1F1F1" height="10" style="stroke:#181818;stroke-width:0.5;" width="15" x="418" y="108"/><rect fill="#F1F1F1" height="2" style="stroke:#181818;stroke-width:0.5;" width="4" x="416" y="110"/><rect fill="#F1F1F1" height="2" style="stroke:#181818;stroke-width:0.5;" width="4" x="416" y="114"/><text fill="#000000" font-family="sans-serif" font-size="14" lengthAdjust="spacing" textLength="100" x="313" y="135.9951">Collect &amp; Filter</text></g><!--entity CE--><g id="elem_CE"><rect fill="#F1F1F1" height="46.2969" rx="2.5" ry="2.5" style="stroke:#181818;stroke-width:0.5;" width="180" x="620" y="103"/><rect fill="#F1F1F1" height="10" style="stroke:#181818;stroke-width:0.5;" width="15" x="780" y="108"/><rect fill="#F1F1F1" height="2" style="stroke:#181818;stroke-width:0.5;" width="4" x="778" y="110"/><rect fill="#F1F1F1" height="2" style="stroke:#181818;stroke-width:0.5;" width="4" x="778" y="114"/><text fill="#000000" font-family="sans-serif" font-size="14" lengthAdjust="spacing" textLength="140" x="635" y="135.9951">COMMs Equivalence</text></g><!--entity AND--><g id="elem_AND"><rect fill="#F1F1F1" height="46.2969" rx="2.5" ry="2.5" style="stroke:#181818;stroke-width:0.5;" width="70" x="675" y="209.29"/><rect fill="#F1F1F1" height="10" style="stroke:#181818;stroke-width:0.5;" width="15" x="725" y="214.29"/><rect fill="#F1F1F1" height="2" style="stroke:#181818;stroke-width:0.5;" width="4" x="723" y="216.29"/><rect fill="#F1F1F1" height="2" style="stroke:#181818;stroke-width:0.5;" width="4" x="723" y="220.29"/><text fill="#000000" font-family="sans-serif" font-size="14" lengthAdjust="spacing" textLength="30" x="690" y="242.2851">AND</text></g><!--entity ZK--><g id="elem_ZK"><rect fill="#F1F1F1" height="46.2969" rx="2.5" ry="2.5" style="stroke:#181818;stroke-width:0.5;" width="77" x="834.5" y="103"/><rect fill="#F1F1F1" height="10" style="stroke:#181818;stroke-width:0.5;" width="15" x="891.5" y="108"/><rect fill="#F1F1F1" height="2" style="stroke:#181818;stroke-width:0.5;" width="4" x="889.5" y="110"/><rect fill="#F1F1F1" height="2" style="stroke:#181818;stroke-width:0.5;" width="4" x="889.5" y="114"/><text fill="#000000" font-family="sans-serif" font-size="14" lengthAdjust="spacing" textLength="37" x="849.5" y="135.9951">zkVM</text></g><!--entity blk_cm_old--><g id="elem_blk_cm_old"><ellipse cx="44" cy="14" fill="#F1F1F1" rx="8" ry="8" style="stroke:#181818;stroke-width:0.5;"/><text fill="#000000" font-family="sans-serif" font-size="14" lengthAdjust="spacing" textLength="76" x="6" y="43.9951">blk_cm_old</text></g><!--entity blk_cm_new--><g id="elem_blk_cm_new"><ellipse cx="175" cy="14" fill="#F1F1F1" rx="8" ry="8" style="stroke:#181818;stroke-width:0.5;"/><text fill="#000000" font-family="sans-serif" font-size="14" lengthAdjust="spacing" textLength="84" x="133" y="43.9951">blk_cm_new</text></g><!--entity <b>PROOF_TXS_HISTORY_ESP</b>--><g id="elem_&lt;b&gt;PROOF_TXS_HISTORY_ESP&lt;/b&gt;"><ellipse cx="368" cy="14" fill="#F1F1F1" rx="8" ry="8" style="stroke:#181818;stroke-width:0.5;"/><text fill="#000000" font-family="sans-serif" font-size="14" font-weight="bold" lengthAdjust="spacing" textLength="200" x="268" y="43.9951">PROOF_TXS_HISTORY_ESP</text></g><!--entity <b>ROLLUP_TXS</b>--><g id="elem_&lt;b&gt;ROLLUP_TXS&lt;/b&gt;"><ellipse cx="719" cy="14" fill="#F1F1F1" rx="8" ry="8" style="stroke:#181818;stroke-width:0.5;"/><text fill="#000000" font-family="sans-serif" font-size="14" font-weight="bold" lengthAdjust="spacing" textLength="98" x="670" y="43.9951">ROLLUP_TXS</text></g><!--entity cm_txs_rollup--><g id="elem_cm_txs_rollup"><ellipse cx="865" cy="14" fill="#F1F1F1" rx="8" ry="8" style="stroke:#181818;stroke-width:0.5;"/><text fill="#000000" font-family="sans-serif" font-size="14" lengthAdjust="spacing" textLength="93" x="818.5" y="43.9951">cm_txs_rollup</text></g><!--entity cm_txs_history--><g id="elem_cm_txs_history"><ellipse cx="569" cy="14" fill="#F1F1F1" rx="8" ry="8" style="stroke:#181818;stroke-width:0.5;"/><text fill="#000000" font-family="sans-serif" font-size="14" lengthAdjust="spacing" textLength="101" x="518.5" y="43.9951">cm_txs_history</text></g><!--entity cm_state_vm i--><g id="elem_cm_state_vm i"><ellipse cx="1010" cy="14" fill="#F1F1F1" rx="8" ry="8" style="stroke:#181818;stroke-width:0.5;"/><text fill="#000000" font-family="sans-serif" font-size="14" lengthAdjust="spacing" textLength="97" x="961.5" y="43.9951">cm_state_vm i</text></g><!--entity cm_state_vm i+1--><g id="elem_cm_state_vm i+1"><ellipse cx="1168" cy="14" fill="#F1F1F1" rx="8" ry="8" style="stroke:#181818;stroke-width:0.5;"/><text fill="#000000" font-family="sans-serif" font-size="14" lengthAdjust="spacing" textLength="118" x="1109" y="43.9951">cm_state_vm i+1</text></g><!--entity OUTPUT--><g id="elem_OUTPUT"><ellipse cx="710" cy="344.59" fill="#F1F1F1" rx="8" ry="8" style="stroke:#181818;stroke-width:0.5;"/><text fill="#000000" font-family="sans-serif" font-size="14" lengthAdjust="spacing" textLength="58" x="681" y="374.5851">OUTPUT</text></g><!--link blk_cm_old to CF--><g id="link_blk_cm_old_CF"><path d="M52.84,19.31 C64.91,25.1 87.3,35.54 107,43 C170.65,67.07 239.0304,88.2387 291.9904,103.6987 " fill="none" id="blk_cm_old-to-CF" style="stroke:#181818;stroke-width:1.0;"/><polygon fill="#181818" points="297.75,105.38,290.2315,99.0183,292.9503,103.9789,287.9897,106.6977,297.75,105.38" style="stroke:#181818;stroke-width:1.0;"/></g><!--link blk_cm_new to CF--><g id="link_blk_cm_new_CF"><path d="M183.79,20.02 C208.94,34.37 277.0891,73.2557 323.2891,99.6257 " fill="none" id="blk_cm_new-to-CF" style="stroke:#181818;stroke-width:1.0;"/><polygon fill="#181818" points="328.5,102.6,322.6665,94.6646,324.1576,100.1214,318.7008,101.6125,328.5,102.6" style="stroke:#181818;stroke-width:1.0;"/></g><!--link <b>PROOF_TXS_HISTORY_ESP</b> to CF--><g id="link_&lt;b&gt;PROOF_TXS_HISTORY_ESP&lt;/b&gt;_CF"><path d="M368,22.92 C368,39.39 368,71.88 368,96.64 " fill="none" id="&lt;b&gt;PROOF_TXS_HISTORY_ESP&lt;/b&gt;-to-CF" style="stroke:#181818;stroke-width:1.0;"/><polygon fill="#181818" points="368,102.64,372,93.64,368,97.64,364,93.64,368,102.64" style="stroke:#181818;stroke-width:1.0;"/></g><!--link <b>ROLLUP_TXS</b> to CE--><g id="link_&lt;b&gt;ROLLUP_TXS&lt;/b&gt;_CE"><path d="M718.35,22.92 C717.01,39.39 714.3479,71.8999 712.3279,96.6599 " fill="none" id="&lt;b&gt;ROLLUP_TXS&lt;/b&gt;-to-CE" style="stroke:#181818;stroke-width:1.0;"/><polygon fill="#181818" points="711.84,102.64,716.5586,93.9951,712.2466,97.6566,708.5851,93.3446,711.84,102.64" style="stroke:#181818;stroke-width:1.0;"/></g><!--link <b>ROLLUP_TXS</b> to ZK--><g id="link_&lt;b&gt;ROLLUP_TXS&lt;/b&gt;_ZK"><path d="M727.72,21.23 C749.23,36.62 800.7701,73.4791 836.6401,99.1391 " fill="none" id="&lt;b&gt;ROLLUP_TXS&lt;/b&gt;-to-ZK" style="stroke:#181818;stroke-width:1.0;"/><polygon fill="#181818" points="841.52,102.63,836.5274,94.1404,837.4534,99.7209,831.8729,100.6469,841.52,102.63" style="stroke:#181818;stroke-width:1.0;"/></g><!--link cm_txs_rollup to CE--><g id="link_cm_txs_rollup_CE"><path d="M856.22,21.23 C834.58,36.62 782.6809,73.4945 746.5709,99.1545 " fill="none" id="cm_txs_rollup-to-CE" style="stroke:#181818;stroke-width:1.0;"/><polygon fill="#181818" points="741.68,102.63,751.3333,100.6773,745.7557,99.7337,746.6993,94.1561,741.68,102.63" style="stroke:#181818;stroke-width:1.0;"/></g><!--link cm_txs_history to CE--><g id="link_cm_txs_history_CE"><path d="M577.82,21.89 C598.08,37.71 643.9415,73.5466 676.3315,98.8466 " fill="none" id="cm_txs_history-to-CE" style="stroke:#181818;stroke-width:1.0;"/><polygon fill="#181818" points="681.06,102.54,676.4296,93.8475,677.1196,99.4621,671.505,100.1522,681.06,102.54" style="stroke:#181818;stroke-width:1.0;"/></g><!--link cm_txs_history to CF--><g id="link_cm_txs_history_CF"><path d="M560.1,19.87 C534.2,34.07 462.8519,73.1668 414.5619,99.6268 " fill="none" id="cm_txs_history-to-CF" style="stroke:#181818;stroke-width:1.0;"/><polygon fill="#181818" points="409.3,102.51,419.1149,101.6931,413.6849,100.1073,415.2707,94.6773,409.3,102.51" style="stroke:#181818;stroke-width:1.0;"/></g><!--link cm_state_vm i to ZK--><g id="link_cm_state_vm i_ZK"><path d="M1001.01,22.22 C981.07,38.26 937.0957,73.61 905.8457,98.74 " fill="none" id="cm_state_vm i-to-ZK" style="stroke:#181818;stroke-width:1.0;"/><polygon fill="#181818" points="901.17,102.5,910.6902,99.9771,905.0664,99.3667,905.6769,93.7428,901.17,102.5" style="stroke:#181818;stroke-width:1.0;"/></g><!--link cm_state_vm i+1 to ZK--><g id="link_cm_state_vm i+1_ZK"><path d="M1159.17,18.29 C1122.55,31.97 986.9011,82.6216 917.5211,108.5216 " fill="none" id="cm_state_vm i+1-to-ZK" style="stroke:#181818;stroke-width:1.0;"/><polygon fill="#181818" points="911.9,110.62,921.7306,111.2198,916.5842,108.8713,918.9327,103.725,911.9,110.62" style="stroke:#181818;stroke-width:1.0;"/></g><!--link cm_txs_rollup to ZK--><g id="link_cm_txs_rollup_ZK"><path d="M865.58,22.92 C866.77,39.39 869.135,71.8958 870.935,96.6558 " fill="none" id="cm_txs_rollup-to-ZK" style="stroke:#181818;stroke-width:1.0;"/><polygon fill="#181818" points="871.37,102.64,874.7069,93.3737,871.0075,97.6532,866.728,93.9537,871.37,102.64" style="stroke:#181818;stroke-width:1.0;"/></g><!--link ZK to AND--><g id="link_ZK_AND"><path d="M837.63,149.78 C810.29,167.27 777.674,188.1363 750.354,205.6163 " fill="none" id="ZK-to-AND" style="stroke:#181818;stroke-width:1.0;"/><polygon fill="#181818" points="745.3,208.85,755.0368,207.3688,749.5117,206.1553,750.7253,200.6301,745.3,208.85" style="stroke:#181818;stroke-width:1.0;"/></g><!--link CE to AND--><g id="link_CE_AND"><path d="M710,149.78 C710,167.27 710,185.37 710,202.85 " fill="none" id="CE-to-AND" style="stroke:#181818;stroke-width:1.0;"/><polygon fill="#181818" points="710,208.85,714,199.85,710,203.85,706,199.85,710,208.85" style="stroke:#181818;stroke-width:1.0;"/></g><!--link CF to AND--><g id="link_CF_AND"><path d="M438.45,148.63 C510.41,170.57 613.471,201.9997 668.981,218.9297 " fill="none" id="CF-to-AND" style="stroke:#181818;stroke-width:1.0;"/><polygon fill="#181818" points="674.72,220.68,667.2784,214.2285,669.9375,219.2214,664.9446,221.8805,674.72,220.68" style="stroke:#181818;stroke-width:1.0;"/></g><!--link AND to OUTPUT--><g id="link_AND_OUTPUT"><path d="M710,256 C710,280.8 710,313.3 710,329.73 " fill="none" id="AND-to-OUTPUT" style="stroke:#181818;stroke-width:1.0;"/><polygon fill="#181818" points="710,335.73,714,326.73,710,330.73,706,326.73,710,335.73" style="stroke:#181818;stroke-width:1.0;"/></g><!--SRC=[VP1Tpy4m68RFdr_HxC29Y3YN9J9j2DDb7u95ccsQM9InblVbrrkB8S99Up_tzNoriLC8mJE56eZaGl5oYHA970AnGrrN8dmuvgT4y5t6RmH3t9lqZQvkWFYocRecN8m0Kh5XsPOLOeLQBLltkJix_lTmh6vgUpwbX8MpW0s6GKZzESE1rssdjlMQvTFnEF9qsWl2Nv5Ue1gb_YKhgrSTztN1tLtdKXNbsVhj4p10gaHnTjgYlEx-RZSxDVYSgdU1nSXe_KyEVafIIwWE4z0ezA8Gu0e0]--></g></svg>