<?xml version="1.0" encoding="us-ascii" standalone="no"?><svg xmlns="http://www.w3.org/2000/svg" xmlns:xlink="http://www.w3.org/1999/xlink" contentStyleType="text/css" height="383px" preserveAspectRatio="none" style="width:1268px;height:383px;background:#FFFFFF;" version="1.1" viewBox="0 0 1268 383" width="1268px" zoomAndPan="magnify"><defs/><g><!--entity CF--><g id="elem_CF"><rect fill="#F1F1F1" height="46.2969" rx="2.5" ry="2.5" style="stroke:#181818;stroke-width:0.5;" width="140" x="298" y="103"/><rect fill="#F1F1F1" height="10" style="stroke:#181818;stroke-width:0.5;" width="15" x="418" y="108"/><rect fill="#F1F1F1" height="2" style="stroke:#181818;stroke-width:0.5;" width="4" x="416" y="110"/><rect fill="#F1F1F1" height="2" style="stroke:#181818;stroke-width:0.5;" width="4" x="416" y="114"/><text fill="#000000" font-family="sans-serif" font-size="14" lengthAdjust="spacing" textLength="100" x="313" y="135.9951">Collect &amp; Filter</text></g><!--entity CE--><g id="elem_CE"><rect fill="#F1F1F1" height="46.2969" rx="2.5" ry="2.5" style="stroke:#181818;stroke-width:0.5;" width="180" x="654" y="103"/><rect fill="#F1F1F1" height="10" style="stroke:#181818;stroke-width:0.5;" width="15" x="814" y="108"/><rect fill="#F1F1F1" height="2" style="stroke:#181818;stroke-width:0.5;" width="4" x="812" y="110"/><rect fill="#F1F1F1" height="2" style="stroke:#181818;stroke-width:0.5;" width="4" x="812" y="114"/><text fill="#000000" font-family="sans-serif" font-size="14" lengthAdjust="spacing" textLength="140" x="669" y="135.9951">COMMs Equivalence</text></g><!--entity AND--><g id="elem_AND"><rect fill="#F1F1F1" height="46.2969" rx="2.5" ry="2.5" style="stroke:#181818;stroke-width:0.5;" width="70" x="709" y="209.29"/><rect fill="#F1F1F1" height="10" style="stroke:#181818;stroke-width:0.5;" width="15" x="759" y="214.29"/><rect fill="#F1F1F1" height="2" style="stroke:#181818;stroke-width:0.5;" width="4" x="757" y="216.29"/><rect fill="#F1F1F1" height="2" style="stroke:#181818;stroke-width:0.5;" width="4" x="757" y="220.29"/><text fill="#000000" font-family="sans-serif" font-size="14" lengthAdjust="spacing" textLength="30" x="724" y="242.2851">AND</text></g><!--entity ZK--><g id="elem_ZK"><rect fill="#F1F1F1" height="46.2969" rx="2.5" ry="2.5" style="stroke:#181818;stroke-width:0.5;" width="77" x="868.5" y="103"/><rect fill="#F1F1F1" height="10" style="stroke:#181818;stroke-width:0.5;" width="15" x="925.5" y="108"/><rect fill="#F1F1F1" height="2" style="stroke:#181818;stroke-width:0.5;" width="4" x="923.5" y="110"/><rect fill="#F1F1F1" height="2" style="stroke:#181818;stroke-width:0.5;" width="4" x="923.5" y="114"/><text fill="#000000" font-family="sans-serif" font-size="14" lengthAdjust="spacing" textLength="37" x="883.5" y="135.9951">zkVM</text></g><!--entity blk_cm_old--><g id="elem_blk_cm_old"><ellipse cx="44" cy="14" fill="#F1F1F1" rx="8" ry="8" style="stroke:#181818;stroke-width:0.5;"/><text fill="#000000" font-family="sans-serif" font-size="14" lengthAdjust="spacing" textLength="76" x="6" y="43.9951">blk_cm_old</text></g><!--entity blk_cm_new--><g id="elem_blk_cm_new"><ellipse cx="175" cy="14" fill="#F1F1F1" rx="8" ry="8" style="stroke:#181818;stroke-width:0.5;"/><text fill="#000000" font-family="sans-serif" font-size="14" lengthAdjust="spacing" textLength="84" x="133" y="43.9951">blk_cm_new</text></g><!--entity <b>PROOF_TXS_HISTORY_ESP</b>--><g id="elem_&lt;b&gt;PROOF_TXS_HISTORY_ESP&lt;/b&gt;"><ellipse cx="368" cy="14" fill="#F1F1F1" rx="8" ry="8" style="stroke:#181818;stroke-width:0.5;"/><text fill="#000000" font-family="sans-serif" font-size="14" font-weight="bold" lengthAdjust="spacing" textLength="200" x="268" y="43.9951">PROOF_TXS_HISTORY_ESP</text></g><!--entity <b>ROLLUP_TXS</b>--><g id="elem_&lt;b&gt;ROLLUP_TXS&lt;/b&gt;"><ellipse cx="753" cy="14" fill="#F1F1F1" rx="8" ry="8" style="stroke:#181818;stroke-width:0.5;"/><text fill="#000000" font-family="sans-serif" font-size="14" font-weight="bold" lengthAdjust="spacing" textLength="98" x="704" y="43.9951">ROLLUP_TXS</text></g><!--entity cm_txs_rollup--><g id="elem_cm_txs_rollup"><ellipse cx="899" cy="14" fill="#F1F1F1" rx="8" ry="8" style="stroke:#181818;stroke-width:0.5;"/><text fill="#000000" font-family="sans-serif" font-size="14" lengthAdjust="spacing" textLength="93" x="852.5" y="43.9951">cm_txs_rollup</text></g><!--entity <b>CM_TXS_HISTORY</b>--><g id="elem_&lt;b&gt;CM_TXS_HISTORY&lt;/b&gt;"><ellipse cx="586" cy="14" fill="#F1F1F1" rx="8" ry="8" style="stroke:#181818;stroke-width:0.5;"/><text fill="#000000" font-family="sans-serif" font-size="14" font-weight="bold" lengthAdjust="spacing" textLength="135" x="518.5" y="43.9951">CM_TXS_HISTORY</text></g><!--entity cm_state_vm i--><g id="elem_cm_state_vm i"><ellipse cx="1044" cy="14" fill="#F1F1F1" rx="8" ry="8" style="stroke:#181818;stroke-width:0.5;"/><text fill="#000000" font-family="sans-serif" font-size="14" lengthAdjust="spacing" textLength="97" x="995.5" y="43.9951">cm_state_vm i</text></g><!--entity cm_state_vm i+1--><g id="elem_cm_state_vm i+1"><ellipse cx="1202" cy="14" fill="#F1F1F1" rx="8" ry="8" style="stroke:#181818;stroke-width:0.5;"/><text fill="#000000" font-family="sans-serif" font-size="14" lengthAdjust="spacing" textLength="118" x="1143" y="43.9951">cm_state_vm i+1</text></g><!--entity OUTPUT--><g id="elem_OUTPUT"><ellipse cx="744" cy="344.59" fill="#F1F1F1" rx="8" ry="8" style="stroke:#181818;stroke-width:0.5;"/><text fill="#000000" font-family="sans-serif" font-size="14" lengthAdjust="spacing" textLength="58" x="715" y="374.5851">OUTPUT</text></g><!--link blk_cm_old to CF--><g id="link_blk_cm_old_CF"><path d="M52.84,19.31 C64.91,25.1 87.3,35.54 107,43 C170.65,67.07 239.0304,88.2387 291.9904,103.6987 " fill="none" id="blk_cm_old-to-CF" style="stroke:#181818;stroke-width:1.0;"/><polygon fill="#181818" points="297.75,105.38,290.2315,99.0183,292.9503,103.9789,287.9897,106.6977,297.75,105.38" style="stroke:#181818;stroke-width:1.0;"/></g><!--link blk_cm_new to CF--><g id="link_blk_cm_new_CF"><path d="M183.79,20.02 C208.94,34.37 277.0891,73.2557 323.2891,99.6257 " fill="none" id="blk_cm_new-to-CF" style="stroke:#181818;stroke-width:1.0;"/><polygon fill="#181818" points="328.5,102.6,322.6665,94.6646,324.1576,100.1214,318.7008,101.6125,328.5,102.6" style="stroke:#181818;stroke-width:1.0;"/></g><!--link <b>PROOF_TXS_HISTORY_ESP</b> to CF--><g id="link_&lt;b&gt;PROOF_TXS_HISTORY_ESP&lt;/b&gt;_CF"><path d="M368,22.92 C368,39.39 368,71.88 368,96.64 " fill="none" id="&lt;b&gt;PROOF_TXS_HISTORY_ESP&lt;/b&gt;-to-CF" style="stroke:#181818;stroke-width:1.0;"/><polygon fill="#181818" points="368,102.64,372,93.64,368,97.64,364,93.64,368,102.64" style="stroke:#181818;stroke-width:1.0;"/></g><!--link <b>ROLLUP_TXS</b> to CE--><g id="link_&lt;b&gt;ROLLUP_TXS&lt;/b&gt;_CE"><path d="M752.35,22.92 C751.01,39.39 748.3479,71.8999 746.3279,96.6599 " fill="none" id="&lt;b&gt;ROLLUP_TXS&lt;/b&gt;-to-CE" style="stroke:#181818;stroke-width:1.0;"/><polygon fill="#181818" points="745.84,102.64,750.5586,93.9951,746.2466,97.6566,742.5851,93.3446,745.84,102.64" style="stroke:#181818;stroke-width:1.0;"/></g><!--link <b>ROLLUP_TXS</b> to ZK--><g id="link_&lt;b&gt;ROLLUP_TXS&lt;/b&gt;_ZK"><path d="M761.72,21.23 C783.23,36.62 834.7701,73.4791 870.6401,99.1391 " fill="none" id="&lt;b&gt;ROLLUP_TXS&lt;/b&gt;-to-ZK" style="stroke:#181818;stroke-width:1.0;"/><polygon fill="#181818" points="875.52,102.63,870.5274,94.1404,871.4534,99.7209,865.8729,100.6469,875.52,102.63" style="stroke:#181818;stroke-width:1.0;"/></g><!--link cm_txs_rollup to CE--><g id="link_cm_txs_rollup_CE"><path d="M890.22,21.23 C868.58,36.62 816.6809,73.4945 780.5709,99.1545 " fill="none" id="cm_txs_rollup-to-CE" style="stroke:#181818;stroke-width:1.0;"/><polygon fill="#181818" points="775.68,102.63,785.3333,100.6773,779.7557,99.7337,780.6993,94.1561,775.68,102.63" style="stroke:#181818;stroke-width:1.0;"/></g><!--link <b>CM_TXS_HISTORY</b> to CE--><g id="link_&lt;b&gt;CM_TXS_HISTORY&lt;/b&gt;_CE"><path d="M594.95,21.23 C617.01,36.62 669.9783,73.5382 706.7783,99.1982 " fill="none" id="&lt;b&gt;CM_TXS_HISTORY&lt;/b&gt;-to-CE" style="stroke:#181818;stroke-width:1.0;"/><polygon fill="#181818" points="711.7,102.63,706.6054,94.2012,707.5986,99.7702,702.0296,100.7634,711.7,102.63" style="stroke:#181818;stroke-width:1.0;"/></g><!--link <b>CM_TXS_HISTORY</b> to CF--><g id="link_&lt;b&gt;CM_TXS_HISTORY&lt;/b&gt;_CF"><path d="M577.18,19.45 C549.86,33.26 470.6254,73.2945 417.7554,100.0045 " fill="none" id="&lt;b&gt;CM_TXS_HISTORY&lt;/b&gt;-to-CF" style="stroke:#181818;stroke-width:1.0;"/><polygon fill="#181818" points="412.4,102.71,422.2368,102.2219,416.8628,100.4554,418.6294,95.0814,412.4,102.71" style="stroke:#181818;stroke-width:1.0;"/></g><!--link cm_state_vm i to ZK--><g id="link_cm_state_vm i_ZK"><path d="M1035.01,22.22 C1015.07,38.26 971.0957,73.61 939.8457,98.74 " fill="none" id="cm_state_vm i-to-ZK" style="stroke:#181818;stroke-width:1.0;"/><polygon fill="#181818" points="935.17,102.5,944.6902,99.9771,939.0664,99.3667,939.6769,93.7428,935.17,102.5" style="stroke:#181818;stroke-width:1.0;"/></g><!--link cm_state_vm i+1 to ZK--><g id="link_cm_state_vm i+1_ZK"><path d="M1193.17,18.29 C1156.55,31.97 1020.9011,82.6216 951.5211,108.5216 " fill="none" id="cm_state_vm i+1-to-ZK" style="stroke:#181818;stroke-width:1.0;"/><polygon fill="#181818" points="945.9,110.62,955.7306,111.2198,950.5842,108.8713,952.9327,103.725,945.9,110.62" style="stroke:#181818;stroke-width:1.0;"/></g><!--link cm_txs_rollup to ZK--><g id="link_cm_txs_rollup_ZK"><path d="M899.58,22.92 C900.77,39.39 903.135,71.8958 904.935,96.6558 " fill="none" id="cm_txs_rollup-to-ZK" style="stroke:#181818;stroke-width:1.0;"/><polygon fill="#181818" points="905.37,102.64,908.7069,93.3737,905.0075,97.6532,900.728,93.9537,905.37,102.64" style="stroke:#181818;stroke-width:1.0;"/></g><!--link ZK to AND--><g id="link_ZK_AND"><path d="M871.63,149.78 C844.29,167.27 811.674,188.1363 784.354,205.6163 " fill="none" id="ZK-to-AND" style="stroke:#181818;stroke-width:1.0;"/><polygon fill="#181818" points="779.3,208.85,789.0368,207.3688,783.5117,206.1553,784.7253,200.6301,779.3,208.85" style="stroke:#181818;stroke-width:1.0;"/></g><!--link CE to AND--><g id="link_CE_AND"><path d="M744,149.78 C744,167.27 744,185.37 744,202.85 " fill="none" id="CE-to-AND" style="stroke:#181818;stroke-width:1.0;"/><polygon fill="#181818" points="744,208.85,748,199.85,744,203.85,740,199.85,744,208.85" style="stroke:#181818;stroke-width:1.0;"/></g><!--link CF to AND--><g id="link_CF_AND"><path d="M438.28,146.64 C518.63,168.93 641.1883,202.9262 702.8683,220.0362 " fill="none" id="CF-to-AND" style="stroke:#181818;stroke-width:1.0;"/><polygon fill="#181818" points="708.65,221.64,701.0467,215.3798,703.8319,220.3035,698.9083,223.0887,708.65,221.64" style="stroke:#181818;stroke-width:1.0;"/></g><!--link AND to OUTPUT--><g id="link_AND_OUTPUT"><path d="M744,256 C744,280.8 744,313.3 744,329.73 " fill="none" id="AND-to-OUTPUT" style="stroke:#181818;stroke-width:1.0;"/><polygon fill="#181818" points="744,335.73,748,326.73,744,330.73,740,326.73,744,335.73" style="stroke:#181818;stroke-width:1.0;"/></g><!--SRC=[TL3B2i8m4BplLuGUl8Y8zrAGcA1eJUb3r2AXhJcKncVZ0x_Uf6gjI2_9xCpkx2GnFaWfCeKwYEPIYVC69IN256BCNBT4v7J9huaK-qoy50BnS3wgiBu1uaUnSAjoFGL8PS6p7J_8BUhr7EFpPlRYzc4iEtKydp7AmsN0nvCWPFwAay2p-wbZDRjyDfj5dcbhIAHLCW7qAdKl-Lc_wd9i3c2tkUxFhrMc09OsBLMY1B_kK5xl-gMxWrhups2ImNfQOVDhc7mXhI7eeofO57fH2F04]--></g></svg>