<?xml version="1.0" encoding="us-ascii" standalone="no"?><svg xmlns="http://www.w3.org/2000/svg" xmlns:xlink="http://www.w3.org/1999/xlink" contentStyleType="text/css" height="383px" preserveAspectRatio="none" style="width:1992px;height:383px;background:#FFFFFF;" version="1.1" viewBox="0 0 1992 383" width="1992px" zoomAndPan="magnify"><defs/><g><!--entity EspCons--><g id="elem_EspCons"><rect fill="#F1F1F1" height="46.2969" rx="2.5" ry="2.5" style="stroke:#181818;stroke-width:0.5;" width="188" x="582.5" y="103"/><rect fill="#F1F1F1" height="10" style="stroke:#181818;stroke-width:0.5;" width="15" x="750.5" y="108"/><rect fill="#F1F1F1" height="2" style="stroke:#181818;stroke-width:0.5;" width="4" x="748.5" y="110"/><rect fill="#F1F1F1" height="2" style="stroke:#181818;stroke-width:0.5;" width="4" x="748.5" y="114"/><text fill="#000000" font-family="sans-serif" font-size="14" lengthAdjust="spacing" textLength="148" x="597.5" y="135.9951">Espresso Consensus</text></g><!--entity CF--><g id="elem_CF"><rect fill="#F1F1F1" height="46.2969" rx="2.5" ry="2.5" style="stroke:#181818;stroke-width:0.5;" width="140" x="1058.5" y="103"/><rect fill="#F1F1F1" height="10" style="stroke:#181818;stroke-width:0.5;" width="15" x="1178.5" y="108"/><rect fill="#F1F1F1" height="2" style="stroke:#181818;stroke-width:0.5;" width="4" x="1176.5" y="110"/><rect fill="#F1F1F1" height="2" style="stroke:#181818;stroke-width:0.5;" width="4" x="1176.5" y="114"/><text fill="#000000" font-family="sans-serif" font-size="14" lengthAdjust="spacing" textLength="100" x="1073.5" y="135.9951">Collect &amp; Filter</text></g><!--entity CE--><g id="elem_CE"><rect fill="#F1F1F1" height="46.2969" rx="2.5" ry="2.5" style="stroke:#181818;stroke-width:0.5;" width="180" x="1301.5" y="103"/><rect fill="#F1F1F1" height="10" style="stroke:#181818;stroke-width:0.5;" width="15" x="1461.5" y="108"/><rect fill="#F1F1F1" height="2" style="stroke:#181818;stroke-width:0.5;" width="4" x="1459.5" y="110"/><rect fill="#F1F1F1" height="2" style="stroke:#181818;stroke-width:0.5;" width="4" x="1459.5" y="114"/><text fill="#000000" font-family="sans-serif" font-size="14" lengthAdjust="spacing" textLength="140" x="1316.5" y="135.9951">COMMs Equivalence</text></g><!--entity AND--><g id="elem_AND"><rect fill="#F1F1F1" height="46.2969" rx="2.5" ry="2.5" style="stroke:#181818;stroke-width:0.5;" width="70" x="1190.5" y="209.29"/><rect fill="#F1F1F1" height="10" style="stroke:#181818;stroke-width:0.5;" width="15" x="1240.5" y="214.29"/><rect fill="#F1F1F1" height="2" style="stroke:#181818;stroke-width:0.5;" width="4" x="1238.5" y="216.29"/><rect fill="#F1F1F1" height="2" style="stroke:#181818;stroke-width:0.5;" width="4" x="1238.5" y="220.29"/><text fill="#000000" font-family="sans-serif" font-size="14" lengthAdjust="spacing" textLength="30" x="1205.5" y="242.2851">AND</text></g><!--entity ZK--><g id="elem_ZK"><rect fill="#F1F1F1" height="46.2969" rx="2.5" ry="2.5" style="stroke:#181818;stroke-width:0.5;" width="77" x="1585" y="103"/><rect fill="#F1F1F1" height="10" style="stroke:#181818;stroke-width:0.5;" width="15" x="1642" y="108"/><rect fill="#F1F1F1" height="2" style="stroke:#181818;stroke-width:0.5;" width="4" x="1640" y="110"/><rect fill="#F1F1F1" height="2" style="stroke:#181818;stroke-width:0.5;" width="4" x="1640" y="114"/><text fill="#000000" font-family="sans-serif" font-size="14" lengthAdjust="spacing" textLength="37" x="1600" y="135.9951">zkVM</text></g><!--entity blk_cm_new--><g id="elem_blk_cm_new"><ellipse cx="826.5" cy="14" fill="#F1F1F1" rx="8" ry="8" style="stroke:#181818;stroke-width:0.5;"/><text fill="#000000" font-family="sans-serif" font-size="14" lengthAdjust="spacing" textLength="84" x="784.5" y="43.9951">blk_cm_new</text></g><!--entity <b>STATE_SIGS</b>--><g id="elem_&lt;b&gt;STATE_SIGS&lt;/b&gt;"><ellipse cx="52.5" cy="14" fill="#F1F1F1" rx="8" ry="8" style="stroke:#181818;stroke-width:0.5;"/><text fill="#000000" font-family="sans-serif" font-size="14" font-weight="bold" lengthAdjust="spacing" textLength="93" x="6" y="43.9951">STATE_SIGS</text></g><!--entity <b>STAKE_TABLE_ENTRIES</b>--><g id="elem_&lt;b&gt;STAKE_TABLE_ENTRIES&lt;/b&gt;"><ellipse cx="237.5" cy="14" fill="#F1F1F1" rx="8" ry="8" style="stroke:#181818;stroke-width:0.5;"/><text fill="#000000" font-family="sans-serif" font-size="14" font-weight="bold" lengthAdjust="spacing" textLength="177" x="149" y="43.9951">STAKE_TABLE_ENTRIES</text></g><!--entity <b>STAKE_TABLE_OPENINGS</b>--><g id="elem_&lt;b&gt;STAKE_TABLE_OPENINGS&lt;/b&gt;"><ellipse cx="472.5" cy="14" fill="#F1F1F1" rx="8" ry="8" style="stroke:#181818;stroke-width:0.5;"/><text fill="#000000" font-family="sans-serif" font-size="14" font-weight="bold" lengthAdjust="spacing" textLength="193" x="376" y="43.9951">STAKE_TABLE_OPENINGS</text></g><!--entity BLOCK_NUMBER--><g id="elem_BLOCK_NUMBER"><ellipse cx="676.5" cy="14" fill="#F1F1F1" rx="8" ry="8" style="stroke:#181818;stroke-width:0.5;"/><text fill="#000000" font-family="sans-serif" font-size="14" lengthAdjust="spacing" textLength="115" x="619" y="43.9951">BLOCK_NUMBER</text></g><!--entity blk_cm_old--><g id="elem_blk_cm_old"><ellipse cx="957.5" cy="14" fill="#F1F1F1" rx="8" ry="8" style="stroke:#181818;stroke-width:0.5;"/><text fill="#000000" font-family="sans-serif" font-size="14" lengthAdjust="spacing" textLength="76" x="919.5" y="43.9951">blk_cm_old</text></g><!--entity <b>PROOF_TXS_HISTORY</b>--><g id="elem_&lt;b&gt;PROOF_TXS_HISTORY&lt;/b&gt;"><ellipse cx="1128.5" cy="14" fill="#F1F1F1" rx="8" ry="8" style="stroke:#181818;stroke-width:0.5;"/><text fill="#000000" font-family="sans-serif" font-size="14" font-weight="bold" lengthAdjust="spacing" textLength="164" x="1046.5" y="43.9951">PROOF_TXS_HISTORY</text></g><!--entity <b>ROLLUP_TXS</b>--><g id="elem_&lt;b&gt;ROLLUP_TXS&lt;/b&gt;"><ellipse cx="1477.5" cy="14" fill="#F1F1F1" rx="8" ry="8" style="stroke:#181818;stroke-width:0.5;"/><text fill="#000000" font-family="sans-serif" font-size="14" font-weight="bold" lengthAdjust="spacing" textLength="98" x="1428.5" y="43.9951">ROLLUP_TXS</text></g><!--entity cm_txs_rollup--><g id="elem_cm_txs_rollup"><ellipse cx="1623.5" cy="14" fill="#F1F1F1" rx="8" ry="8" style="stroke:#181818;stroke-width:0.5;"/><text fill="#000000" font-family="sans-serif" font-size="14" lengthAdjust="spacing" textLength="93" x="1577" y="43.9951">cm_txs_rollup</text></g><!--entity <b>cm_txs_history</b>--><g id="elem_&lt;b&gt;cm_txs_history&lt;/b&gt;"><ellipse cx="1319.5" cy="14" fill="#F1F1F1" rx="8" ry="8" style="stroke:#181818;stroke-width:0.5;"/><text fill="#000000" font-family="sans-serif" font-size="14" font-weight="bold" lengthAdjust="spacing" textLength="116" x="1261.5" y="43.9951">cm_txs_history</text></g><!--entity cm_state_vm i--><g id="elem_cm_state_vm i"><ellipse cx="1768.5" cy="14" fill="#F1F1F1" rx="8" ry="8" style="stroke:#181818;stroke-width:0.5;"/><text fill="#000000" font-family="sans-serif" font-size="14" lengthAdjust="spacing" textLength="97" x="1720" y="43.9951">cm_state_vm i</text></g><!--entity cm_state_vm i+1--><g id="elem_cm_state_vm i+1"><ellipse cx="1926.5" cy="14" fill="#F1F1F1" rx="8" ry="8" style="stroke:#181818;stroke-width:0.5;"/><text fill="#000000" font-family="sans-serif" font-size="14" lengthAdjust="spacing" textLength="118" x="1867.5" y="43.9951">cm_state_vm i+1</text></g><!--entity OUTPUT--><g id="elem_OUTPUT"><ellipse cx="1225.5" cy="344.59" fill="#F1F1F1" rx="8" ry="8" style="stroke:#181818;stroke-width:0.5;"/><text fill="#000000" font-family="sans-serif" font-size="14" lengthAdjust="spacing" textLength="58" x="1196.5" y="374.5851">OUTPUT</text></g><!--link blk_cm_new to EspCons--><g id="link_blk_cm_new_EspCons"><path d="M817.57,21.56 C796.31,37.16 746.7557,73.5481 712.0657,99.0281 " fill="none" id="blk_cm_new-to-EspCons" style="stroke:#181818;stroke-width:1.0;"/><polygon fill="#181818" points="707.23,102.58,716.8515,100.476,711.2598,99.6201,712.1157,94.0284,707.23,102.58" style="stroke:#181818;stroke-width:1.0;"/></g><!--link <b>STATE_SIGS</b> to EspCons--><g id="link_&lt;b&gt;STATE_SIGS&lt;/b&gt;_EspCons"><path d="M61.47,19.3 C74.72,25.49 100.46,36.83 123.5,43 C281.48,85.29 465.0953,106.9496 576.2453,117.1896 " fill="none" id="&lt;b&gt;STATE_SIGS&lt;/b&gt;-to-EspCons" style="stroke:#181818;stroke-width:1.0;"/><polygon fill="#181818" points="582.22,117.74,573.6249,112.9312,577.2411,117.2813,572.891,120.8975,582.22,117.74" style="stroke:#181818;stroke-width:1.0;"/></g><!--link <b>STAKE_TABLE_ENTRIES</b> to EspCons--><g id="link_&lt;b&gt;STAKE_TABLE_ENTRIES&lt;/b&gt;_EspCons"><path d="M246.27,17.2 C288.44,27.78 467.2004,72.6296 580.4504,101.0496 " fill="none" id="&lt;b&gt;STAKE_TABLE_ENTRIES&lt;/b&gt;-to-EspCons" style="stroke:#181818;stroke-width:1.0;"/><polygon fill="#181818" points="586.27,102.51,578.5143,96.4397,581.4204,101.293,576.5671,104.1991,586.27,102.51" style="stroke:#181818;stroke-width:1.0;"/></g><!--link <b>STAKE_TABLE_OPENINGS</b> to EspCons--><g id="link_&lt;b&gt;STAKE_TABLE_OPENINGS&lt;/b&gt;_EspCons"><path d="M481.27,19.73 C507.35,33.81 580.4205,73.2692 629.5705,99.8092 " fill="none" id="&lt;b&gt;STAKE_TABLE_OPENINGS&lt;/b&gt;-to-EspCons" style="stroke:#181818;stroke-width:1.0;"/><polygon fill="#181818" points="634.85,102.66,628.8313,94.8641,630.4504,100.2843,625.0302,101.9034,634.85,102.66" style="stroke:#181818;stroke-width:1.0;"/></g><!--link BLOCK_NUMBER to EspCons--><g id="link_BLOCK_NUMBER_EspCons"><path d="M676.5,22.92 C676.5,39.39 676.5,71.88 676.5,96.64 " fill="none" id="BLOCK_NUMBER-to-EspCons" style="stroke:#181818;stroke-width:1.0;"/><polygon fill="#181818" points="676.5,102.64,680.5,93.64,676.5,97.64,672.5,93.64,676.5,102.64" style="stroke:#181818;stroke-width:1.0;"/></g><!--link blk_cm_old to CF--><g id="link_blk_cm_old_CF"><path d="M966.22,20.61 C989.36,35.52 1048.2862,73.4703 1088.6562,99.4803 " fill="none" id="blk_cm_old-to-CF" style="stroke:#181818;stroke-width:1.0;"/><polygon fill="#181818" points="1093.7,102.73,1088.3008,94.493,1089.4968,100.022,1083.9679,101.218,1093.7,102.73" style="stroke:#181818;stroke-width:1.0;"/></g><!--link blk_cm_old to EspCons--><g id="link_blk_cm_old_EspCons"><path d="M948.86,18.94 C936.62,24.49 913.49,34.85 893.5,43 C841.65,64.14 787.7597,84.4649 744.1897,100.5249 " fill="none" id="blk_cm_old-to-EspCons" style="stroke:#181818;stroke-width:1.0;"/><polygon fill="#181818" points="738.56,102.6,748.388,103.2405,743.2514,100.8707,745.6212,95.7342,738.56,102.6" style="stroke:#181818;stroke-width:1.0;"/></g><!--link blk_cm_new to CF--><g id="link_blk_cm_new_CF"><path d="M835.11,18.79 C847.8,24.33 872.31,34.87 893.5,43 C949.29,64.38 1007.6763,84.7077 1054.8063,100.6477 " fill="none" id="blk_cm_new-to-CF" style="stroke:#181818;stroke-width:1.0;"/><polygon fill="#181818" points="1060.49,102.57,1053.246,95.8974,1055.7536,100.9681,1050.6829,103.4757,1060.49,102.57" style="stroke:#181818;stroke-width:1.0;"/></g><!--link <b>PROOF_TXS_HISTORY</b> to CF--><g id="link_&lt;b&gt;PROOF_TXS_HISTORY&lt;/b&gt;_CF"><path d="M1128.5,22.92 C1128.5,39.39 1128.5,71.88 1128.5,96.64 " fill="none" id="&lt;b&gt;PROOF_TXS_HISTORY&lt;/b&gt;-to-CF" style="stroke:#181818;stroke-width:1.0;"/><polygon fill="#181818" points="1128.5,102.64,1132.5,93.64,1128.5,97.64,1124.5,93.64,1128.5,102.64" style="stroke:#181818;stroke-width:1.0;"/></g><!--link <b>ROLLUP_TXS</b> to CE--><g id="link_&lt;b&gt;ROLLUP_TXS&lt;/b&gt;_CE"><path d="M1471.32,22.92 C1458.45,39.39 1432.1034,73.1515 1412.7634,97.9115 " fill="none" id="&lt;b&gt;ROLLUP_TXS&lt;/b&gt;-to-CE" style="stroke:#181818;stroke-width:1.0;"/><polygon fill="#181818" points="1409.07,102.64,1417.7625,98.0095,1412.1478,98.6996,1411.4578,93.085,1409.07,102.64" style="stroke:#181818;stroke-width:1.0;"/></g><!--link <b>ROLLUP_TXS</b> to ZK--><g id="link_&lt;b&gt;ROLLUP_TXS&lt;/b&gt;_ZK"><path d="M1486.2,21.56 C1506.88,37.16 1555.0304,73.4862 1588.8004,98.9662 " fill="none" id="&lt;b&gt;ROLLUP_TXS&lt;/b&gt;-to-ZK" style="stroke:#181818;stroke-width:1.0;"/><polygon fill="#181818" points="1593.59,102.58,1588.8148,93.9662,1589.5987,99.5685,1583.9964,100.3523,1593.59,102.58" style="stroke:#181818;stroke-width:1.0;"/></g><!--link cm_txs_rollup to CE--><g id="link_cm_txs_rollup_CE"><path d="M1614.69,19.18 C1586.3,32.66 1501.1998,73.0559 1444.5398,99.9659 " fill="none" id="cm_txs_rollup-to-CE" style="stroke:#181818;stroke-width:1.0;"/><polygon fill="#181818" points="1439.12,102.54,1448.9657,102.2921,1443.6365,100.3949,1445.5336,95.0657,1439.12,102.54" style="stroke:#181818;stroke-width:1.0;"/></g><!--link <b>cm_txs_history</b> to CE--><g id="link_&lt;b&gt;cm_txs_history&lt;/b&gt;_CE"><path d="M1324.68,22.92 C1335.45,39.39 1357.3164,72.8583 1373.5064,97.6183 " fill="none" id="&lt;b&gt;cm_txs_history&lt;/b&gt;-to-CE" style="stroke:#181818;stroke-width:1.0;"/><polygon fill="#181818" points="1376.79,102.64,1375.2124,92.9183,1374.0537,98.4552,1368.5168,97.2965,1376.79,102.64" style="stroke:#181818;stroke-width:1.0;"/></g><!--link <b>cm_txs_history</b> to CF--><g id="link_&lt;b&gt;cm_txs_history&lt;/b&gt;_CF"><path d="M1310.54,20.16 C1285.39,34.66 1218.1876,73.4224 1172.6376,99.6924 " fill="none" id="&lt;b&gt;cm_txs_history&lt;/b&gt;-to-CF" style="stroke:#181818;stroke-width:1.0;"/><polygon fill="#181818" points="1167.44,102.69,1177.2347,101.6587,1171.7713,100.192,1173.2379,94.7286,1167.44,102.69" style="stroke:#181818;stroke-width:1.0;"/></g><!--link cm_state_vm i to ZK--><g id="link_cm_state_vm i_ZK"><path d="M1759.86,21.56 C1739.32,37.16 1691.5177,73.4704 1657.9777,98.9504 " fill="none" id="cm_state_vm i-to-ZK" style="stroke:#181818;stroke-width:1.0;"/><polygon fill="#181818" points="1653.2,102.58,1662.7862,100.3208,1657.1814,99.5554,1657.9468,93.9505,1653.2,102.58" style="stroke:#181818;stroke-width:1.0;"/></g><!--link cm_state_vm i+1 to ZK--><g id="link_cm_state_vm i+1_ZK"><path d="M1917.76,18.17 C1880.5,31.72 1739.2491,83.0704 1668.1291,108.9204 " fill="none" id="cm_state_vm i+1-to-ZK" style="stroke:#181818;stroke-width:1.0;"/><polygon fill="#181818" points="1662.49,110.97,1672.315,111.6549,1667.1892,109.262,1669.5822,104.1362,1662.49,110.97" style="stroke:#181818;stroke-width:1.0;"/></g><!--link cm_txs_rollup to ZK--><g id="link_cm_txs_rollup_ZK"><path d="M1623.5,22.92 C1623.5,39.39 1623.5,71.88 1623.5,96.64 " fill="none" id="cm_txs_rollup-to-ZK" style="stroke:#181818;stroke-width:1.0;"/><polygon fill="#181818" points="1623.5,102.64,1627.5,93.64,1623.5,97.64,1619.5,93.64,1623.5,102.64" style="stroke:#181818;stroke-width:1.0;"/></g><!--link EspCons to AND--><g id="link_EspCons_AND"><path d="M770.88,145.07 C894.89,168.63 1100.8154,207.7501 1184.2954,223.6101 " fill="none" id="EspCons-to-AND" style="stroke:#181818;stroke-width:1.0;"/><polygon fill="#181818" points="1190.19,224.73,1182.0947,219.1205,1185.2779,223.7968,1180.6016,226.9799,1190.19,224.73" style="stroke:#181818;stroke-width:1.0;"/></g><!--link ZK to AND--><g id="link_ZK_AND"><path d="M1584.61,137.34 C1507.25,157.61 1340.934,201.1889 1266.604,220.6689 " fill="none" id="ZK-to-AND" style="stroke:#181818;stroke-width:1.0;"/><polygon fill="#181818" points="1260.8,222.19,1270.52,223.7777,1265.6367,220.9224,1268.4919,216.0391,1260.8,222.19" style="stroke:#181818;stroke-width:1.0;"/></g><!--link CE to AND--><g id="link_CE_AND"><path d="M1355.48,149.78 C1327.45,167.39 1293.8305,188.5081 1265.9605,206.0181 " fill="none" id="CE-to-AND" style="stroke:#181818;stroke-width:1.0;"/><polygon fill="#181818" points="1260.88,209.21,1270.6287,207.8091,1265.1137,206.55,1266.3728,201.0351,1260.88,209.21" style="stroke:#181818;stroke-width:1.0;"/></g><!--link CF to AND--><g id="link_CF_AND"><path d="M1149.55,149.78 C1165.82,167.27 1184.1434,186.9768 1200.4034,204.4568 " fill="none" id="CF-to-AND" style="stroke:#181818;stroke-width:1.0;"/><polygon fill="#181818" points="1204.49,208.85,1201.2889,199.5359,1201.0845,205.189,1195.4314,204.9846,1204.49,208.85" style="stroke:#181818;stroke-width:1.0;"/></g><!--link AND to OUTPUT--><g id="link_AND_OUTPUT"><path d="M1225.5,256 C1225.5,280.8 1225.5,313.3 1225.5,329.73 " fill="none" id="AND-to-OUTPUT" style="stroke:#181818;stroke-width:1.0;"/><polygon fill="#181818" points="1225.5,335.73,1229.5,326.73,1225.5,330.73,1221.5,326.73,1225.5,335.73" style="stroke:#181818;stroke-width:1.0;"/></g><!--SRC=[ZP5BJuGm4CVl_HGD1ozcOxnlI02B4XubK8mkCSs2JIJRXPN2-lZq3XNPTs8FxSpy_fr7cnErQOLI3NQQMebQzUe5BnM6y110kTD8ASeENs6tafreDNLS03GCGVVULzkb57KfVWb1kHNTQHjEXFBlrMEetOMF2hdYvPhNuWFFPkPKn9WNPieiHdZgtQVpcy8qpd6VS6RP0U4aOeb7_Y6aCOcyw5nAEw2EpwCij4bo062DNJRoLHCOzYZofpqQ1uH30t52gSlPKyeVl9JHv7bNVLGaD0YoU93i8N8HmSCXADDzAjx2R_IR_GiZUAjKrxHV9_akOXSX0w3gbftWspMkfbg7uUlR2PpsC7GsFWO6T_ZmXQ_9O3faPxgJYM3J3irOd364VW00]--></g></svg>