<?xml version="1.0" encoding="us-ascii" standalone="no"?><svg xmlns="http://www.w3.org/2000/svg" xmlns:xlink="http://www.w3.org/1999/xlink" contentStyleType="text/css" height="383px" preserveAspectRatio="none" style="width:1629px;height:383px;background:#FFFFFF;" version="1.1" viewBox="0 0 1629 383" width="1629px" zoomAndPan="magnify"><defs/><g><!--entity CF--><g id="elem_CF"><rect fill="#F1F1F1" height="46.2969" rx="2.5" ry="2.5" style="stroke:#181818;stroke-width:0.5;" width="140" x="478.5" y="103"/><rect fill="#F1F1F1" height="10" style="stroke:#181818;stroke-width:0.5;" width="15" x="598.5" y="108"/><rect fill="#F1F1F1" height="2" style="stroke:#181818;stroke-width:0.5;" width="4" x="596.5" y="110"/><rect fill="#F1F1F1" height="2" style="stroke:#181818;stroke-width:0.5;" width="4" x="596.5" y="114"/><text fill="#000000" font-family="sans-serif" font-size="14" lengthAdjust="spacing" textLength="100" x="493.5" y="135.9951">Collect &amp; Filter</text></g><!--entity CE--><g id="elem_CE"><rect fill="#F1F1F1" height="46.2969" rx="2.5" ry="2.5" style="stroke:#181818;stroke-width:0.5;" width="180" x="905.5" y="103"/><rect fill="#F1F1F1" height="10" style="stroke:#181818;stroke-width:0.5;" width="15" x="1065.5" y="108"/><rect fill="#F1F1F1" height="2" style="stroke:#181818;stroke-width:0.5;" width="4" x="1063.5" y="110"/><rect fill="#F1F1F1" height="2" style="stroke:#181818;stroke-width:0.5;" width="4" x="1063.5" y="114"/><text fill="#000000" font-family="sans-serif" font-size="14" lengthAdjust="spacing" textLength="140" x="920.5" y="135.9951">COMMs Equivalence</text></g><!--entity AND--><g id="elem_AND"><rect fill="#F1F1F1" height="46.2969" rx="2.5" ry="2.5" style="stroke:#181818;stroke-width:0.5;" width="70" x="960.5" y="209.29"/><rect fill="#F1F1F1" height="10" style="stroke:#181818;stroke-width:0.5;" width="15" x="1010.5" y="214.29"/><rect fill="#F1F1F1" height="2" style="stroke:#181818;stroke-width:0.5;" width="4" x="1008.5" y="216.29"/><rect fill="#F1F1F1" height="2" style="stroke:#181818;stroke-width:0.5;" width="4" x="1008.5" y="220.29"/><text fill="#000000" font-family="sans-serif" font-size="14" lengthAdjust="spacing" textLength="30" x="975.5" y="242.2851">AND</text></g><!--entity ZK--><g id="elem_ZK"><rect fill="#F1F1F1" height="46.2969" rx="2.5" ry="2.5" style="stroke:#181818;stroke-width:0.5;" width="77" x="1127" y="103"/><rect fill="#F1F1F1" height="10" style="stroke:#181818;stroke-width:0.5;" width="15" x="1184" y="108"/><rect fill="#F1F1F1" height="2" style="stroke:#181818;stroke-width:0.5;" width="4" x="1182" y="110"/><rect fill="#F1F1F1" height="2" style="stroke:#181818;stroke-width:0.5;" width="4" x="1182" y="114"/><text fill="#000000" font-family="sans-serif" font-size="14" lengthAdjust="spacing" textLength="37" x="1142" y="135.9951">zkVM</text></g><!--entity BLOCK_COMM_ESP_OLD--><g id="elem_BLOCK_COMM_ESP_OLD"><ellipse cx="90.5" cy="14" fill="#F1F1F1" rx="8" ry="8" style="stroke:#181818;stroke-width:0.5;"/><text fill="#000000" font-family="sans-serif" font-size="14" lengthAdjust="spacing" textLength="169" x="6" y="43.9951">BLOCK_COMM_ESP_OLD</text></g><!--entity BLOCK_COMM_ESP_NEW--><g id="elem_BLOCK_COMM_ESP_NEW"><ellipse cx="311.5" cy="14" fill="#F1F1F1" rx="8" ry="8" style="stroke:#181818;stroke-width:0.5;"/><text fill="#000000" font-family="sans-serif" font-size="14" lengthAdjust="spacing" textLength="172" x="225.5" y="43.9951">BLOCK_COMM_ESP_NEW</text></g><!--entity <b>PROOF_TXS_HISTORY_ESP</b>--><g id="elem_&lt;b&gt;PROOF_TXS_HISTORY_ESP&lt;/b&gt;"><ellipse cx="548.5" cy="14" fill="#F1F1F1" rx="8" ry="8" style="stroke:#181818;stroke-width:0.5;"/><text fill="#000000" font-family="sans-serif" font-size="14" font-weight="bold" lengthAdjust="spacing" textLength="200" x="448.5" y="43.9951">PROOF_TXS_HISTORY_ESP</text></g><!--entity <b>ROLLUP_TXS</b>--><g id="elem_&lt;b&gt;ROLLUP_TXS&lt;/b&gt;"><ellipse cx="995.5" cy="14" fill="#F1F1F1" rx="8" ry="8" style="stroke:#181818;stroke-width:0.5;"/><text fill="#000000" font-family="sans-serif" font-size="14" font-weight="bold" lengthAdjust="spacing" textLength="98" x="946.5" y="43.9951">ROLLUP_TXS</text></g><!--entity COMM_TXS_ROLLUP--><g id="elem_COMM_TXS_ROLLUP"><ellipse cx="1165.5" cy="14" fill="#F1F1F1" rx="8" ry="8" style="stroke:#181818;stroke-width:0.5;"/><text fill="#000000" font-family="sans-serif" font-size="14" lengthAdjust="spacing" textLength="140" x="1095.5" y="43.9951">COMM_TXS_ROLLUP</text></g><!--entity <b>COMM_TXS_HISTORY_ESP</b>--><g id="elem_&lt;b&gt;COMM_TXS_HISTORY_ESP&lt;/b&gt;"><ellipse cx="797.5" cy="14" fill="#F1F1F1" rx="8" ry="8" style="stroke:#181818;stroke-width:0.5;"/><text fill="#000000" font-family="sans-serif" font-size="14" font-weight="bold" lengthAdjust="spacing" textLength="196" x="699.5" y="43.9951">COMM_TXS_HISTORY_ESP</text></g><!--entity COMM_STATE_VM i--><g id="elem_COMM_STATE_VM i"><ellipse cx="1352.5" cy="14" fill="#F1F1F1" rx="8" ry="8" style="stroke:#181818;stroke-width:0.5;"/><text fill="#000000" font-family="sans-serif" font-size="14" lengthAdjust="spacing" textLength="132" x="1286.5" y="43.9951">COMM_STATE_VM i</text></g><!--entity COMM_STATE_VM i+1--><g id="elem_COMM_STATE_VM i+1"><ellipse cx="1545.5" cy="14" fill="#F1F1F1" rx="8" ry="8" style="stroke:#181818;stroke-width:0.5;"/><text fill="#000000" font-family="sans-serif" font-size="14" lengthAdjust="spacing" textLength="153" x="1469" y="43.9951">COMM_STATE_VM i+1</text></g><!--entity OUTPUT--><g id="elem_OUTPUT"><ellipse cx="995.5" cy="344.59" fill="#F1F1F1" rx="8" ry="8" style="stroke:#181818;stroke-width:0.5;"/><text fill="#000000" font-family="sans-serif" font-size="14" lengthAdjust="spacing" textLength="58" x="966.5" y="374.5851">OUTPUT</text></g><!--link BLOCK_COMM_ESP_OLD to CF--><g id="link_BLOCK_COMM_ESP_OLD_CF"><path d="M99.24,17.31 C117.73,22.18 162.13,33.8 199.5,43 C295.91,66.72 401.8135,91.4217 472.3635,107.6917 " fill="none" id="BLOCK_COMM_ESP_OLD-to-CF" style="stroke:#181818;stroke-width:1.0;"/><polygon fill="#181818" points="478.21,109.04,470.3391,103.1198,473.3379,107.9164,468.5413,110.9152,478.21,109.04" style="stroke:#181818;stroke-width:1.0;"/></g><!--link BLOCK_COMM_ESP_NEW to CF--><g id="link_BLOCK_COMM_ESP_NEW_CF"><path d="M320.22,19.05 C348.9,32.38 436.409,73.0511 494.479,100.0411 " fill="none" id="BLOCK_COMM_ESP_NEW-to-CF" style="stroke:#181818;stroke-width:1.0;"/><polygon fill="#181818" points="499.92,102.57,493.4444,95.1493,495.3858,100.4626,490.0725,102.404,499.92,102.57" style="stroke:#181818;stroke-width:1.0;"/></g><!--link <b>PROOF_TXS_HISTORY_ESP</b> to CF--><g id="link_&lt;b&gt;PROOF_TXS_HISTORY_ESP&lt;/b&gt;_CF"><path d="M548.5,22.92 C548.5,39.39 548.5,71.88 548.5,96.64 " fill="none" id="&lt;b&gt;PROOF_TXS_HISTORY_ESP&lt;/b&gt;-to-CF" style="stroke:#181818;stroke-width:1.0;"/><polygon fill="#181818" points="548.5,102.64,552.5,93.64,548.5,97.64,544.5,93.64,548.5,102.64" style="stroke:#181818;stroke-width:1.0;"/></g><!--link <b>ROLLUP_TXS</b> to CE--><g id="link_&lt;b&gt;ROLLUP_TXS&lt;/b&gt;_CE"><path d="M995.5,22.92 C995.5,39.39 995.5,71.88 995.5,96.64 " fill="none" id="&lt;b&gt;ROLLUP_TXS&lt;/b&gt;-to-CE" style="stroke:#181818;stroke-width:1.0;"/><polygon fill="#181818" points="995.5,102.64,999.5,93.64,995.5,97.64,991.5,93.64,995.5,102.64" style="stroke:#181818;stroke-width:1.0;"/></g><!--link <b>ROLLUP_TXS</b> to ZK--><g id="link_&lt;b&gt;ROLLUP_TXS&lt;/b&gt;_ZK"><path d="M1004.16,20.61 C1027.17,35.52 1085.7351,73.4566 1125.8651,99.4666 " fill="none" id="&lt;b&gt;ROLLUP_TXS&lt;/b&gt;-to-ZK" style="stroke:#181818;stroke-width:1.0;"/><polygon fill="#181818" points="1130.9,102.73,1125.5232,94.4783,1126.7042,100.0105,1121.172,101.1916,1130.9,102.73" style="stroke:#181818;stroke-width:1.0;"/></g><!--link COMM_TXS_ROLLUP to CE--><g id="link_COMM_TXS_ROLLUP_CE"><path d="M1156.84,20.61 C1133.83,35.52 1075.2649,73.4566 1035.1349,99.4666 " fill="none" id="COMM_TXS_ROLLUP-to-CE" style="stroke:#181818;stroke-width:1.0;"/><polygon fill="#181818" points="1030.1,102.73,1039.828,101.1916,1034.2958,100.0105,1035.4768,94.4783,1030.1,102.73" style="stroke:#181818;stroke-width:1.0;"/></g><!--link <b>COMM_TXS_HISTORY_ESP</b> to CE--><g id="link_&lt;b&gt;COMM_TXS_HISTORY_ESP&lt;/b&gt;_CE"><path d="M806.26,19.87 C831.78,34.07 902.0068,73.133 949.5668,99.593 " fill="none" id="&lt;b&gt;COMM_TXS_HISTORY_ESP&lt;/b&gt;-to-CE" style="stroke:#181818;stroke-width:1.0;"/><polygon fill="#181818" points="954.81,102.51,948.8899,94.639,950.4407,100.0791,945.0005,101.6299,954.81,102.51" style="stroke:#181818;stroke-width:1.0;"/></g><!--link <b>COMM_TXS_HISTORY_ESP</b> to CF--><g id="link_&lt;b&gt;COMM_TXS_HISTORY_ESP&lt;/b&gt;_CF"><path d="M788.64,18.92 C758.84,32.1 666.167,73.0925 604.957,100.1725 " fill="none" id="&lt;b&gt;COMM_TXS_HISTORY_ESP&lt;/b&gt;-to-CF" style="stroke:#181818;stroke-width:1.0;"/><polygon fill="#181818" points="599.47,102.6,609.3188,102.6167,604.0425,100.5771,606.0822,95.3007,599.47,102.6" style="stroke:#181818;stroke-width:1.0;"/></g><!--link COMM_STATE_VM i to ZK--><g id="link_COMM_STATE_VM i_ZK"><path d="M1343.98,20.02 C1319.61,34.37 1253.7099,73.1849 1208.9399,99.5549 " fill="none" id="COMM_STATE_VM i-to-ZK" style="stroke:#181818;stroke-width:1.0;"/><polygon fill="#181818" points="1203.77,102.6,1213.5548,101.4789,1208.0782,100.0624,1209.4947,94.5858,1203.77,102.6" style="stroke:#181818;stroke-width:1.0;"/></g><!--link COMM_STATE_VM i+1 to ZK--><g id="link_COMM_STATE_VM i+1_ZK"><path d="M1536.85,17.5 C1492.6,30.33 1296.1227,87.2793 1210.1327,112.2093 " fill="none" id="COMM_STATE_VM i+1-to-ZK" style="stroke:#181818;stroke-width:1.0;"/><polygon fill="#181818" points="1204.37,113.88,1214.1279,115.2157,1209.1723,112.4877,1211.9002,107.5321,1204.37,113.88" style="stroke:#181818;stroke-width:1.0;"/></g><!--link COMM_TXS_ROLLUP to ZK--><g id="link_COMM_TXS_ROLLUP_ZK"><path d="M1165.5,22.92 C1165.5,39.39 1165.5,71.88 1165.5,96.64 " fill="none" id="COMM_TXS_ROLLUP-to-ZK" style="stroke:#181818;stroke-width:1.0;"/><polygon fill="#181818" points="1165.5,102.64,1169.5,93.64,1165.5,97.64,1161.5,93.64,1165.5,102.64" style="stroke:#181818;stroke-width:1.0;"/></g><!--link ZK to AND--><g id="link_ZK_AND"><path d="M1128.61,149.78 C1099.61,167.57 1064.5739,189.0619 1035.9739,206.6119 " fill="none" id="ZK-to-AND" style="stroke:#181818;stroke-width:1.0;"/><polygon fill="#181818" points="1030.86,209.75,1040.623,208.4521,1035.1216,207.1349,1036.4388,201.6336,1030.86,209.75" style="stroke:#181818;stroke-width:1.0;"/></g><!--link CE to AND--><g id="link_CE_AND"><path d="M995.5,149.78 C995.5,167.27 995.5,185.37 995.5,202.85 " fill="none" id="CE-to-AND" style="stroke:#181818;stroke-width:1.0;"/><polygon fill="#181818" points="995.5,208.85,999.5,199.85,995.5,203.85,991.5,199.85,995.5,208.85" style="stroke:#181818;stroke-width:1.0;"/></g><!--link CF to AND--><g id="link_CF_AND"><path d="M618.84,143.56 C715.71,166.16 880.6969,204.6569 954.2969,221.8269 " fill="none" id="CF-to-AND" style="stroke:#181818;stroke-width:1.0;"/><polygon fill="#181818" points="960.14,223.19,952.2841,217.2499,955.2707,222.0541,950.4666,225.0407,960.14,223.19" style="stroke:#181818;stroke-width:1.0;"/></g><!--link AND to OUTPUT--><g id="link_AND_OUTPUT"><path d="M995.5,256 C995.5,280.8 995.5,313.3 995.5,329.73 " fill="none" id="AND-to-OUTPUT" style="stroke:#181818;stroke-width:1.0;"/><polygon fill="#181818" points="995.5,335.73,999.5,326.73,995.5,330.73,991.5,326.73,995.5,335.73" style="stroke:#181818;stroke-width:1.0;"/></g><!--SRC=[ZP1D2u9048RlyoiM3rr2ehi8jkvI-B6YgtqiiQHuaAGehKE_FdSbaoZeiliEpplp3YFmkQxBeaKJHAkwBQzxT6WGfY0m2u86aSkjkX_gybIKFI4WdD3Lkli1nEEO1RhSUG0Bds5FgbP9aaWotqMcQQjv7oGawnSnhDoEOiQev9j4BbS9P_5McQnPRXjZLynyFusKROJ8JwGMqe5gRcyOjmpeU-HV9WfWQ4l27Kva5g1goFu4q_c0lcsbjeMTfxMwB2PlIGS9tQCBbl8evG1F]--></g></svg>