<svg xmlns="http://www.w3.org/2000/svg" xmlns:xlink="http://www.w3.org/1999/xlink" contentStyleType="text/css" height="384px" preserveAspectRatio="none" style="width:1509px;height:384px;background:#FFFFFF;" version="1.1" viewBox="0 0 1509 384" width="1509px" zoomAndPan="magnify"><defs/><g><!--entity EspCons--><g id="elem_EspCons"><rect fill="#F1F1F1" height="46.4883" rx="2.5" ry="2.5" style="stroke:#181818;stroke-width:0.5;" width="177.9287" x="356.0947" y="103"/><rect fill="#F1F1F1" height="10" style="stroke:#181818;stroke-width:0.5;" width="15" x="514.0234" y="108"/><rect fill="#F1F1F1" height="2" style="stroke:#181818;stroke-width:0.5;" width="4" x="512.0234" y="110"/><rect fill="#F1F1F1" height="2" style="stroke:#181818;stroke-width:0.5;" width="4" x="512.0234" y="114"/><text fill="#000000" font-family="sans-serif" font-size="14" lengthAdjust="spacing" textLength="137.9287" x="371.0947" y="136.5352">Espresso Consensus</text></g><!--entity ED--><g id="elem_ED"><rect fill="#F1F1F1" height="46.4883" rx="2.5" ry="2.5" style="stroke:#181818;stroke-width:0.5;" width="173.9775" x="809.0647" y="103"/><rect fill="#F1F1F1" height="10" style="stroke:#181818;stroke-width:0.5;" width="15" x="963.0422" y="108"/><rect fill="#F1F1F1" height="2" style="stroke:#181818;stroke-width:0.5;" width="4" x="961.0422" y="110"/><rect fill="#F1F1F1" height="2" style="stroke:#181818;stroke-width:0.5;" width="4" x="961.0422" y="114"/><text fill="#000000" font-family="sans-serif" font-size="14" lengthAdjust="spacing" textLength="133.9775" x="824.0647" y="136.5352">Espresso Derivation</text></g><!--entity AND--><g id="elem_AND"><rect fill="#F1F1F1" height="46.4883" rx="2.5" ry="2.5" style="stroke:#181818;stroke-width:0.5;" width="70.4883" x="860.8147" y="209.49"/><rect fill="#F1F1F1" height="10" style="stroke:#181818;stroke-width:0.5;" width="15" x="911.303" y="214.49"/><rect fill="#F1F1F1" height="2" style="stroke:#181818;stroke-width:0.5;" width="4" x="909.303" y="216.49"/><rect fill="#F1F1F1" height="2" style="stroke:#181818;stroke-width:0.5;" width="4" x="909.303" y="220.49"/><text fill="#000000" font-family="sans-serif" font-size="14" lengthAdjust="spacing" textLength="30.4883" x="875.8147" y="243.0252">AND</text></g><!--entity ZK--><g id="elem_ZK"><rect fill="#F1F1F1" height="46.4883" rx="2.5" ry="2.5" style="stroke:#181818;stroke-width:0.5;" width="77.4199" x="1104.3447" y="103"/><rect fill="#F1F1F1" height="10" style="stroke:#181818;stroke-width:0.5;" width="15" x="1161.7646" y="108"/><rect fill="#F1F1F1" height="2" style="stroke:#181818;stroke-width:0.5;" width="4" x="1159.7646" y="110"/><rect fill="#F1F1F1" height="2" style="stroke:#181818;stroke-width:0.5;" width="4" x="1159.7646" y="114"/><text fill="#000000" font-family="sans-serif" font-size="14" lengthAdjust="spacing" textLength="37.4199" x="1119.3447" y="136.5352">zkVM</text></g><!--entity blk_cm_root--><g id="elem_blk_cm_root"><ellipse cx="626.0547" cy="14" fill="#F1F1F1" rx="8" ry="8" style="stroke:#181818;stroke-width:0.5;"/><text fill="#000000" font-family="sans-serif" font-size="14" lengthAdjust="spacing" textLength="83.4463" x="584.3315" y="44.5352">blk_cm_root</text></g><!--entity <b>STATE_SIGS</b>--><g id="elem_&lt;b&gt;STATE_SIGS&lt;/b&gt;"><ellipse cx="48.0547" cy="14" fill="#F1F1F1" rx="8" ry="8" style="stroke:#181818;stroke-width:0.5;"/><text fill="#000000" font-family="sans-serif" font-size="14" font-weight="bold" lengthAdjust="spacing" textLength="84.1094" x="6" y="44.5352">STATE_SIGS</text></g><!--entity <b>STAKE_TABLE_ENTRIES</b>--><g id="elem_&lt;b&gt;STAKE_TABLE_ENTRIES&lt;/b&gt;"><ellipse cx="223.0547" cy="14" fill="#F1F1F1" rx="8" ry="8" style="stroke:#181818;stroke-width:0.5;"/><text fill="#000000" font-family="sans-serif" font-size="14" font-weight="bold" lengthAdjust="spacing" textLength="165.1836" x="140.4629" y="44.5352">STAKE_TABLE_ENTRIES</text></g><!--entity <b>STAKE_TABLE_OPENINGS</b>--><g id="elem_&lt;b&gt;STAKE_TABLE_OPENINGS&lt;/b&gt;"><ellipse cx="445.0547" cy="14" fill="#F1F1F1" rx="8" ry="8" style="stroke:#181818;stroke-width:0.5;"/><text fill="#000000" font-family="sans-serif" font-size="14" font-weight="bold" lengthAdjust="spacing" textLength="178.7666" x="355.6714" y="44.5352">STAKE_TABLE_OPENINGS</text></g><!--entity <b>TXS_NAMESPACE_PROOFS</b>--><g id="elem_&lt;b&gt;TXS_NAMESPACE_PROOFS&lt;/b&gt;"><ellipse cx="810.0547" cy="14" fill="#F1F1F1" rx="8" ry="8" style="stroke:#181818;stroke-width:0.5;"/><text fill="#000000" font-family="sans-serif" font-size="14" font-weight="bold" lengthAdjust="spacing" textLength="185.7871" x="717.1611" y="44.5352">TXS_NAMESPACE_PROOFS</text></g><!--entity <b>ROLLUP_TXS</b>--><g id="elem_&lt;b&gt;ROLLUP_TXS&lt;/b&gt;"><ellipse cx="1143.0547" cy="14" fill="#F1F1F1" rx="8" ry="8" style="stroke:#181818;stroke-width:0.5;"/><text fill="#000000" font-family="sans-serif" font-size="14" font-weight="bold" lengthAdjust="spacing" textLength="90.3574" x="1097.876" y="44.5352">ROLLUP_TXS</text></g><!--entity cm_txs_rollup--><g id="elem_cm_txs_rollup"><ellipse cx="1000.0547" cy="14" fill="#F1F1F1" rx="8" ry="8" style="stroke:#181818;stroke-width:0.5;"/><text fill="#000000" font-family="sans-serif" font-size="14" lengthAdjust="spacing" textLength="95.1221" x="952.4937" y="44.5352">cm_txs_rollup</text></g><!--entity cm_state_vm i--><g id="elem_cm_state_vm i"><ellipse cx="1454.0547" cy="14" fill="#F1F1F1" rx="8" ry="8" style="stroke:#181818;stroke-width:0.5;"/><text fill="#000000" font-family="sans-serif" font-size="14" lengthAdjust="spacing" textLength="96.1748" x="1405.9673" y="44.5352">cm_state_vm i</text></g><!--entity cm_state_vm i+1--><g id="elem_cm_state_vm i+1"><ellipse cx="1297.0547" cy="14" fill="#F1F1F1" rx="8" ry="8" style="stroke:#181818;stroke-width:0.5;"/><text fill="#000000" font-family="sans-serif" font-size="14" lengthAdjust="spacing" textLength="116.1563" x="1238.9766" y="44.5352">cm_state_vm i+1</text></g><!--entity OUTPUT--><g id="elem_OUTPUT"><ellipse cx="896.0547" cy="344.98" fill="#F1F1F1" rx="8" ry="8" style="stroke:#181818;stroke-width:0.5;"/><text fill="#000000" font-family="sans-serif" font-size="14" lengthAdjust="spacing" textLength="55.7197" x="868.1948" y="375.5152">OUTPUT</text></g><!--link blk_cm_root to EspCons--><g id="link_blk_cm_root_EspCons"><path d="M617.3247,20.32 C593.3147,34.94 530.3493,73.2993 487.3093,99.5093 " fill="none" id="blk_cm_root-to-EspCons" style="stroke:#181818;stroke-width:1.0;"/><polygon fill="#181818" points="482.1847,102.63,491.952,101.3653,486.4552,100.0294,487.7911,94.5326,482.1847,102.63" style="stroke:#181818;stroke-width:1.0;"/></g><!--link <b>STATE_SIGS</b> to EspCons--><g id="link_&lt;b&gt;STATE_SIGS&lt;/b&gt;_EspCons"><path d="M56.9947,19.25 C69.6847,25.16 93.7547,35.94 115.0547,43 C195.2047,69.57 282.9146,90.8317 349.9146,105.5617 " fill="none" id="&lt;b&gt;STATE_SIGS&lt;/b&gt;-to-EspCons" style="stroke:#181818;stroke-width:1.0;"/><polygon fill="#181818" points="355.7747,106.85,347.8435,101.0108,350.8913,105.7764,346.1257,108.8242,355.7747,106.85" style="stroke:#181818;stroke-width:1.0;"/></g><!--link <b>STAKE_TABLE_ENTRIES</b> to EspCons--><g id="link_&lt;b&gt;STAKE_TABLE_ENTRIES&lt;/b&gt;_EspCons"><path d="M232.0347,19.46 C259.7747,33.24 340.1308,73.1415 394.0008,99.8915 " fill="none" id="&lt;b&gt;STAKE_TABLE_ENTRIES&lt;/b&gt;-to-EspCons" style="stroke:#181818;stroke-width:1.0;"/><polygon fill="#181818" points="399.3747,102.56,393.0928,94.9746,394.8964,100.3362,389.5348,102.1399,399.3747,102.56" style="stroke:#181818;stroke-width:1.0;"/></g><!--link <b>STAKE_TABLE_OPENINGS</b> to EspCons--><g id="link_&lt;b&gt;STAKE_TABLE_OPENINGS&lt;/b&gt;_EspCons"><path d="M445.0547,22.93 C445.0547,39.42 445.0547,71.94 445.0547,96.73 " fill="none" id="&lt;b&gt;STAKE_TABLE_OPENINGS&lt;/b&gt;-to-EspCons" style="stroke:#181818;stroke-width:1.0;"/><polygon fill="#181818" points="445.0547,102.73,449.0547,93.73,445.0547,97.73,441.0547,93.73,445.0547,102.73" style="stroke:#181818;stroke-width:1.0;"/></g><!--link blk_cm_root to ED--><g id="link_blk_cm_root_ED"><path d="M634.7147,18.66 C647.4747,24.03 672.0747,34.37 693.0547,43 C742.4647,63.33 793.2198,83.8768 833.9798,100.3068 " fill="none" id="blk_cm_root-to-ED" style="stroke:#181818;stroke-width:1.0;"/><polygon fill="#181818" points="839.5447,102.55,832.6928,95.4753,834.9073,100.6807,829.7019,102.8952,839.5447,102.55" style="stroke:#181818;stroke-width:1.0;"/></g><!--link <b>TXS_NAMESPACE_PROOFS</b> to ED--><g id="link_&lt;b&gt;TXS_NAMESPACE_PROOFS&lt;/b&gt;_ED"><path d="M816.2347,22.93 C829.1047,39.42 855.454,73.2093 874.794,97.9993 " fill="none" id="&lt;b&gt;TXS_NAMESPACE_PROOFS&lt;/b&gt;-to-ED" style="stroke:#181818;stroke-width:1.0;"/><polygon fill="#181818" points="878.4847,102.73,876.1025,93.1736,875.4092,98.7878,869.795,98.0944,878.4847,102.73" style="stroke:#181818;stroke-width:1.0;"/></g><!--link <b>ROLLUP_TXS</b> to ED--><g id="link_&lt;b&gt;ROLLUP_TXS&lt;/b&gt;_ED"><path d="M1134.2647,18.93 C1104.7447,32.1 1013.0936,73.0042 952.3636,100.1142 " fill="none" id="&lt;b&gt;ROLLUP_TXS&lt;/b&gt;-to-ED" style="stroke:#181818;stroke-width:1.0;"/><polygon fill="#181818" points="946.8847,102.56,956.7335,102.5439,951.4504,100.5218,953.4725,95.2387,946.8847,102.56" style="stroke:#181818;stroke-width:1.0;"/></g><!--link <b>ROLLUP_TXS</b> to ZK--><g id="link_&lt;b&gt;ROLLUP_TXS&lt;/b&gt;_ZK"><path d="M1143.0547,22.93 C1143.0547,39.42 1143.0547,71.94 1143.0547,96.73 " fill="none" id="&lt;b&gt;ROLLUP_TXS&lt;/b&gt;-to-ZK" style="stroke:#181818;stroke-width:1.0;"/><polygon fill="#181818" points="1143.0547,102.73,1147.0547,93.73,1143.0547,97.73,1139.0547,93.73,1143.0547,102.73" style="stroke:#181818;stroke-width:1.0;"/></g><!--link cm_txs_rollup to ED--><g id="link_cm_txs_rollup_ED"><path d="M992.5747,22.93 C977.0147,39.42 944.8014,73.575 921.4214,98.365 " fill="none" id="cm_txs_rollup-to-ED" style="stroke:#181818;stroke-width:1.0;"/><polygon fill="#181818" points="917.3047,102.73,926.3897,98.927,920.7353,99.0925,920.5697,93.4381,917.3047,102.73" style="stroke:#181818;stroke-width:1.0;"/></g><!--link cm_state_vm i to ZK--><g id="link_cm_state_vm i_ZK"><path d="M1445.1047,18.55 C1431.3747,23.96 1404.2647,34.54 1381.0547,43 C1311.2247,68.45 1234.872,94.4582 1187.632,110.3382 " fill="none" id="cm_state_vm i-to-ZK" style="stroke:#181818;stroke-width:1.0;"/><polygon fill="#181818" points="1181.9447,112.25,1191.7501,113.1738,1186.6841,110.6568,1189.201,105.5908,1181.9447,112.25" style="stroke:#181818;stroke-width:1.0;"/></g><!--link cm_state_vm i+1 to ZK--><g id="link_cm_state_vm i+1_ZK"><path d="M1288.3347,21.25 C1266.8247,36.64 1215.284,73.5482 1179.414,99.2182 " fill="none" id="cm_state_vm i+1-to-ZK" style="stroke:#181818;stroke-width:1.0;"/><polygon fill="#181818" points="1174.5347,102.71,1184.1815,100.7251,1178.6007,99.8002,1179.5257,94.2194,1174.5347,102.71" style="stroke:#181818;stroke-width:1.0;"/></g><!--link cm_txs_rollup to ZK--><g id="link_cm_txs_rollup_ZK"><path d="M1009.0047,21.9 C1029.5447,37.74 1076.1025,73.6371 1108.9525,98.9571 " fill="none" id="cm_txs_rollup-to-ZK" style="stroke:#181818;stroke-width:1.0;"/><polygon fill="#181818" points="1113.7047,102.62,1109.0183,93.9576,1109.7445,99.5676,1104.1345,100.2938,1113.7047,102.62" style="stroke:#181818;stroke-width:1.0;"/></g><!--link EspCons to AND--><g id="link_EspCons_AND"><path d="M534.4247,147.95 C634.1947,171.07 784.9196,205.9854 854.6496,222.1454 " fill="none" id="EspCons-to-AND" style="stroke:#181818;stroke-width:1.0;"/><polygon fill="#181818" points="860.4947,223.5,852.6301,217.5714,855.6238,222.3712,850.824,225.3648,860.4947,223.5" style="stroke:#181818;stroke-width:1.0;"/></g><!--link ZK to AND--><g id="link_ZK_AND"><path d="M1103.9147,143.8 C1056.4447,163.89 982.6307,195.1126 936.9307,214.4426 " fill="none" id="ZK-to-AND" style="stroke:#181818;stroke-width:1.0;"/><polygon fill="#181818" points="931.4047,216.78,941.2519,216.958,936.0097,214.8322,938.1354,209.5899,931.4047,216.78" style="stroke:#181818;stroke-width:1.0;"/></g><!--link ED to AND--><g id="link_ED_AND"><path d="M896.0547,149.92 C896.0547,167.45 896.0547,185.59 896.0547,203.11 " fill="none" id="ED-to-AND" style="stroke:#181818;stroke-width:1.0;"/><polygon fill="#181818" points="896.0547,209.11,900.0547,200.11,896.0547,204.11,892.0547,200.11,896.0547,209.11" style="stroke:#181818;stroke-width:1.0;"/></g><!--link AND to OUTPUT--><g id="link_AND_OUTPUT"><path d="M896.0547,256.31 C896.0547,281.13 896.0547,313.67 896.0547,330.11 " fill="none" id="AND-to-OUTPUT" style="stroke:#181818;stroke-width:1.0;"/><polygon fill="#181818" points="896.0547,336.11,900.0547,327.11,896.0547,331.11,892.0547,327.11,896.0547,336.11" style="stroke:#181818;stroke-width:1.0;"/></g><!--SRC=[ZL1HQyCW47xtLqXUInbxBm5RtGX9LQ8Pew58Cl8GciOIRHdxzRlOJJRQX_fmtdtVTzzvrioTfiuvYpTsTDtepcwF6uS1dW5KHvvsKtzfV6_7gu2Ycd0QShWHghyERzjGxdBK3WVpSJIJjHulbscqIrPjgZJHpAZiLQsUsZIvn-VCQB8kc65SbnbxG2Waunc_PmddvZKqzEjtPJZPCYN9XXbP2l7oj_ygAaLHLDA0zY4ATaSmodyw63SCvzDl0qe0ThxndRaSSH_L_-75SoHkNMRldwqmbFElx_B0p2cZCKKGGY4gBIkDq3S0]--></g></svg>