<?xml version="1.0" encoding="us-ascii" standalone="no"?><svg xmlns="http://www.w3.org/2000/svg" xmlns:xlink="http://www.w3.org/1999/xlink" contentStyleType="text/css" height="383px" preserveAspectRatio="none" style="width:1497px;height:383px;background:#FFFFFF;" version="1.1" viewBox="0 0 1497 383" width="1497px" zoomAndPan="magnify"><defs/><g><!--entity EspCons--><g id="elem_EspCons"><rect fill="#F1F1F1" height="46.2969" rx="2.5" ry="2.5" style="stroke:#181818;stroke-width:0.5;" width="188" x="261.5" y="103"/><rect fill="#F1F1F1" height="10" style="stroke:#181818;stroke-width:0.5;" width="15" x="429.5" y="108"/><rect fill="#F1F1F1" height="2" style="stroke:#181818;stroke-width:0.5;" width="4" x="427.5" y="110"/><rect fill="#F1F1F1" height="2" style="stroke:#181818;stroke-width:0.5;" width="4" x="427.5" y="114"/><text fill="#000000" font-family="sans-serif" font-size="14" lengthAdjust="spacing" textLength="148" x="276.5" y="135.9951">Espresso Consensus</text></g><!--entity CF--><g id="elem_CF"><rect fill="#F1F1F1" height="46.2969" rx="2.5" ry="2.5" style="stroke:#181818;stroke-width:0.5;" width="140" x="595.5" y="103"/><rect fill="#F1F1F1" height="10" style="stroke:#181818;stroke-width:0.5;" width="15" x="715.5" y="108"/><rect fill="#F1F1F1" height="2" style="stroke:#181818;stroke-width:0.5;" width="4" x="713.5" y="110"/><rect fill="#F1F1F1" height="2" style="stroke:#181818;stroke-width:0.5;" width="4" x="713.5" y="114"/><text fill="#000000" font-family="sans-serif" font-size="14" lengthAdjust="spacing" textLength="100" x="610.5" y="135.9951">Collect &amp; Filter</text></g><!--entity CE--><g id="elem_CE"><rect fill="#F1F1F1" height="46.2969" rx="2.5" ry="2.5" style="stroke:#181818;stroke-width:0.5;" width="180" x="772.5" y="103"/><rect fill="#F1F1F1" height="10" style="stroke:#181818;stroke-width:0.5;" width="15" x="932.5" y="108"/><rect fill="#F1F1F1" height="2" style="stroke:#181818;stroke-width:0.5;" width="4" x="930.5" y="110"/><rect fill="#F1F1F1" height="2" style="stroke:#181818;stroke-width:0.5;" width="4" x="930.5" y="114"/><text fill="#000000" font-family="sans-serif" font-size="14" lengthAdjust="spacing" textLength="140" x="787.5" y="135.9951">COMMs Equivalence</text></g><!--entity AND--><g id="elem_AND"><rect fill="#F1F1F1" height="46.2969" rx="2.5" ry="2.5" style="stroke:#181818;stroke-width:0.5;" width="70" x="729.5" y="209.29"/><rect fill="#F1F1F1" height="10" style="stroke:#181818;stroke-width:0.5;" width="15" x="779.5" y="214.29"/><rect fill="#F1F1F1" height="2" style="stroke:#181818;stroke-width:0.5;" width="4" x="777.5" y="216.29"/><rect fill="#F1F1F1" height="2" style="stroke:#181818;stroke-width:0.5;" width="4" x="777.5" y="220.29"/><text fill="#000000" font-family="sans-serif" font-size="14" lengthAdjust="spacing" textLength="30" x="744.5" y="242.2851">AND</text></g><!--entity ZK--><g id="elem_ZK"><rect fill="#F1F1F1" height="46.2969" rx="2.5" ry="2.5" style="stroke:#181818;stroke-width:0.5;" width="77" x="1088" y="103"/><rect fill="#F1F1F1" height="10" style="stroke:#181818;stroke-width:0.5;" width="15" x="1145" y="108"/><rect fill="#F1F1F1" height="2" style="stroke:#181818;stroke-width:0.5;" width="4" x="1143" y="110"/><rect fill="#F1F1F1" height="2" style="stroke:#181818;stroke-width:0.5;" width="4" x="1143" y="114"/><text fill="#000000" font-family="sans-serif" font-size="14" lengthAdjust="spacing" textLength="37" x="1103" y="135.9951">zkVM</text></g><!--entity BLOCK_COMM_ESP--><g id="elem_BLOCK_COMM_ESP"><ellipse cx="450.5" cy="14" fill="#F1F1F1" rx="8" ry="8" style="stroke:#181818;stroke-width:0.5;"/><text fill="#000000" font-family="sans-serif" font-size="14" lengthAdjust="spacing" textLength="133" x="384" y="43.9951">BLOCK_COMM_ESP</text></g><!--entity <b>STATE_SIGS_ESP</b>--><g id="elem_&lt;b&gt;STATE_SIGS_ESP&lt;/b&gt;"><ellipse cx="70.5" cy="14" fill="#F1F1F1" rx="8" ry="8" style="stroke:#181818;stroke-width:0.5;"/><text fill="#000000" font-family="sans-serif" font-size="14" font-weight="bold" lengthAdjust="spacing" textLength="129" x="6" y="43.9951">STATE_SIGS_ESP</text></g><!--entity BLOCK_NUMBER_ESP--><g id="elem_BLOCK_NUMBER_ESP"><ellipse cx="259.5" cy="14" fill="#F1F1F1" rx="8" ry="8" style="stroke:#181818;stroke-width:0.5;"/><text fill="#000000" font-family="sans-serif" font-size="14" lengthAdjust="spacing" textLength="149" x="185" y="43.9951">BLOCK_NUMBER_ESP</text></g><!--entity <b>ROLLUP_TXS</b>--><g id="elem_&lt;b&gt;ROLLUP_TXS&lt;/b&gt;"><ellipse cx="863.5" cy="14" fill="#F1F1F1" rx="8" ry="8" style="stroke:#181818;stroke-width:0.5;"/><text fill="#000000" font-family="sans-serif" font-size="14" font-weight="bold" lengthAdjust="spacing" textLength="98" x="814.5" y="43.9951">ROLLUP_TXS</text></g><!--entity COMM_TXS_ROLLUP--><g id="elem_COMM_TXS_ROLLUP"><ellipse cx="1033.5" cy="14" fill="#F1F1F1" rx="8" ry="8" style="stroke:#181818;stroke-width:0.5;"/><text fill="#000000" font-family="sans-serif" font-size="14" lengthAdjust="spacing" textLength="140" x="963.5" y="43.9951">COMM_TXS_ROLLUP</text></g><!--entity <b>COMM_TXS_HISTORY_ESP</b>--><g id="elem_&lt;b&gt;COMM_TXS_HISTORY_ESP&lt;/b&gt;"><ellipse cx="665.5" cy="14" fill="#F1F1F1" rx="8" ry="8" style="stroke:#181818;stroke-width:0.5;"/><text fill="#000000" font-family="sans-serif" font-size="14" font-weight="bold" lengthAdjust="spacing" textLength="196" x="567.5" y="43.9951">COMM_TXS_HISTORY_ESP</text></g><!--entity COMM_STATE_VM i--><g id="elem_COMM_STATE_VM i"><ellipse cx="1220.5" cy="14" fill="#F1F1F1" rx="8" ry="8" style="stroke:#181818;stroke-width:0.5;"/><text fill="#000000" font-family="sans-serif" font-size="14" lengthAdjust="spacing" textLength="132" x="1154.5" y="43.9951">COMM_STATE_VM i</text></g><!--entity COMM_STATE_VM i+1--><g id="elem_COMM_STATE_VM i+1"><ellipse cx="1413.5" cy="14" fill="#F1F1F1" rx="8" ry="8" style="stroke:#181818;stroke-width:0.5;"/><text fill="#000000" font-family="sans-serif" font-size="14" lengthAdjust="spacing" textLength="153" x="1337" y="43.9951">COMM_STATE_VM i+1</text></g><!--entity OUTPUT--><g id="elem_OUTPUT"><ellipse cx="764.5" cy="344.59" fill="#F1F1F1" rx="8" ry="8" style="stroke:#181818;stroke-width:0.5;"/><text fill="#000000" font-family="sans-serif" font-size="14" lengthAdjust="spacing" textLength="58" x="735.5" y="374.5851">OUTPUT</text></g><!--link BLOCK_COMM_ESP to EspCons--><g id="link_BLOCK_COMM_ESP_EspCons"><path d="M443.67,22.92 C429.46,39.39 400.1892,73.3369 378.8292,98.0969 " fill="none" id="BLOCK_COMM_ESP-to-EspCons" style="stroke:#181818;stroke-width:1.0;"/><polygon fill="#181818" points="374.91,102.64,383.8176,98.4382,378.176,98.8541,377.7601,93.2126,374.91,102.64" style="stroke:#181818;stroke-width:1.0;"/></g><!--link <b>STATE_SIGS_ESP</b> to EspCons--><g id="link_&lt;b&gt;STATE_SIGS_ESP&lt;/b&gt;_EspCons"><path d="M79.34,18.41 C111.8,30.96 220.6135,73.0069 291.5835,100.4369 " fill="none" id="&lt;b&gt;STATE_SIGS_ESP&lt;/b&gt;-to-EspCons" style="stroke:#181818;stroke-width:1.0;"/><polygon fill="#181818" points="297.18,102.6,290.2272,95.6244,292.5162,100.7974,287.3432,103.0864,297.18,102.6" style="stroke:#181818;stroke-width:1.0;"/></g><!--link BLOCK_NUMBER_ESP to EspCons--><g id="link_BLOCK_NUMBER_ESP_EspCons"><path d="M266.4,22.92 C280.76,39.39 310.3567,73.3578 331.9467,98.1178 " fill="none" id="BLOCK_NUMBER_ESP-to-EspCons" style="stroke:#181818;stroke-width:1.0;"/><polygon fill="#181818" points="335.89,102.64,332.9899,93.2278,332.6039,98.8715,326.9603,98.4855,335.89,102.64" style="stroke:#181818;stroke-width:1.0;"/></g><!--link BLOCK_COMM_ESP to CF--><g id="link_BLOCK_COMM_ESP_CF"><path d="M459.46,19.59 C486.64,33.51 564.1002,73.1939 616.0902,99.8339 " fill="none" id="BLOCK_COMM_ESP-to-CF" style="stroke:#181818;stroke-width:1.0;"/><polygon fill="#181818" points="621.43,102.57,615.2444,94.9059,616.9802,100.2899,611.5962,102.0256,621.43,102.57" style="stroke:#181818;stroke-width:1.0;"/></g><!--link <b>ROLLUP_TXS</b> to CE--><g id="link_&lt;b&gt;ROLLUP_TXS&lt;/b&gt;_CE"><path d="M863.43,22.92 C863.28,39.39 862.9857,71.8803 862.7557,96.6403 " fill="none" id="&lt;b&gt;ROLLUP_TXS&lt;/b&gt;-to-CE" style="stroke:#181818;stroke-width:1.0;"/><polygon fill="#181818" points="862.7,102.64,866.7834,93.6775,862.7464,97.6402,858.7838,93.6032,862.7,102.64" style="stroke:#181818;stroke-width:1.0;"/></g><!--link COMM_TXS_ROLLUP to CE--><g id="link_COMM_TXS_ROLLUP_CE"><path d="M1024.78,20.61 C1001.64,35.52 942.7138,73.4703 902.3438,99.4803 " fill="none" id="COMM_TXS_ROLLUP-to-CE" style="stroke:#181818;stroke-width:1.0;"/><polygon fill="#181818" points="897.3,102.73,907.0321,101.218,901.5032,100.022,902.6992,94.493,897.3,102.73" style="stroke:#181818;stroke-width:1.0;"/></g><!--link <b>COMM_TXS_HISTORY_ESP</b> to CE--><g id="link_&lt;b&gt;COMM_TXS_HISTORY_ESP&lt;/b&gt;_CE"><path d="M674.48,20.02 C700.14,34.37 769.7831,73.3017 816.9431,99.6717 " fill="none" id="&lt;b&gt;COMM_TXS_HISTORY_ESP&lt;/b&gt;-to-CE" style="stroke:#181818;stroke-width:1.0;"/><polygon fill="#181818" points="822.18,102.6,816.2768,94.7163,817.8159,100.1598,812.3725,101.6989,822.18,102.6" style="stroke:#181818;stroke-width:1.0;"/></g><!--link <b>COMM_TXS_HISTORY_ESP</b> to CF--><g id="link_&lt;b&gt;COMM_TXS_HISTORY_ESP&lt;/b&gt;_CF"><path d="M665.5,22.92 C665.5,39.39 665.5,71.88 665.5,96.64 " fill="none" id="&lt;b&gt;COMM_TXS_HISTORY_ESP&lt;/b&gt;-to-CF" style="stroke:#181818;stroke-width:1.0;"/><polygon fill="#181818" points="665.5,102.64,669.5,93.64,665.5,97.64,661.5,93.64,665.5,102.64" style="stroke:#181818;stroke-width:1.0;"/></g><!--link COMM_STATE_VM i to ZK--><g id="link_COMM_STATE_VM i_ZK"><path d="M1213.74,22.92 C1199.68,39.39 1170.7359,73.3169 1149.5959,98.0769 " fill="none" id="COMM_STATE_VM i-to-ZK" style="stroke:#181818;stroke-width:1.0;"/><polygon fill="#181818" points="1145.7,102.64,1154.586,98.3927,1148.9466,98.8374,1148.5019,93.1981,1145.7,102.64" style="stroke:#181818;stroke-width:1.0;"/></g><!--link COMM_STATE_VM i+1 to ZK--><g id="link_COMM_STATE_VM i+1_ZK"><path d="M1404.6,18.41 C1368.64,32.21 1238.4717,82.1703 1170.8517,108.1203 " fill="none" id="COMM_STATE_VM i+1-to-ZK" style="stroke:#181818;stroke-width:1.0;"/><polygon fill="#181818" points="1165.25,110.27,1175.0857,110.7799,1169.9181,108.4786,1172.2194,103.311,1165.25,110.27" style="stroke:#181818;stroke-width:1.0;"/></g><!--link COMM_TXS_ROLLUP to ZK--><g id="link_COMM_TXS_ROLLUP_ZK"><path d="M1040.19,22.92 C1054.1,39.39 1082.7187,73.296 1103.6287,98.056 " fill="none" id="COMM_TXS_ROLLUP-to-ZK" style="stroke:#181818;stroke-width:1.0;"/><polygon fill="#181818" points="1107.5,102.64,1104.7491,93.1831,1104.274,98.82,1098.6371,98.3448,1107.5,102.64" style="stroke:#181818;stroke-width:1.0;"/></g><!--link EspCons to AND--><g id="link_EspCons_AND"><path d="M444.25,149.78 C533.52,172.54 660.8761,205.0171 723.6061,221.0171 " fill="none" id="EspCons-to-AND" style="stroke:#181818;stroke-width:1.0;"/><polygon fill="#181818" points="729.42,222.5,721.6878,216.3998,724.5751,221.2643,719.7106,224.1516,729.42,222.5" style="stroke:#181818;stroke-width:1.0;"/></g><!--link ZK to AND--><g id="link_ZK_AND"><path d="M1087.76,138.31 C1016.99,158.7 873.6054,200.0087 805.5154,219.6287 " fill="none" id="ZK-to-AND" style="stroke:#181818;stroke-width:1.0;"/><polygon fill="#181818" points="799.75,221.29,809.5057,222.6417,804.5545,219.9056,807.2906,214.9544,799.75,221.29" style="stroke:#181818;stroke-width:1.0;"/></g><!--link CE to AND--><g id="link_CE_AND"><path d="M841.24,149.78 C824.8,167.27 806.2593,186.9981 789.8293,204.4781 " fill="none" id="CE-to-AND" style="stroke:#181818;stroke-width:1.0;"/><polygon fill="#181818" points="785.72,208.85,794.7986,205.0317,789.1444,205.2067,788.9693,199.5526,785.72,208.85" style="stroke:#181818;stroke-width:1.0;"/></g><!--link CF to AND--><g id="link_CF_AND"><path d="M686.98,149.78 C703.59,167.27 722.3396,187.018 738.9296,204.498 " fill="none" id="CF-to-AND" style="stroke:#181818;stroke-width:1.0;"/><polygon fill="#181818" points="743.06,208.85,739.7657,199.5684,739.618,205.2233,733.9631,205.0756,743.06,208.85" style="stroke:#181818;stroke-width:1.0;"/></g><!--link AND to OUTPUT--><g id="link_AND_OUTPUT"><path d="M764.5,256 C764.5,280.8 764.5,313.3 764.5,329.73 " fill="none" id="AND-to-OUTPUT" style="stroke:#181818;stroke-width:1.0;"/><polygon fill="#181818" points="764.5,335.73,768.5,326.73,764.5,330.73,760.5,326.73,764.5,335.73" style="stroke:#181818;stroke-width:1.0;"/></g><!--SRC=[ZP1DRy8m38Rl_XLH3xjC2EsEAa58DzI6L4sAW6gA0ELGhMet0Zlir-CaKCJ7OPV4Vf_NZfsAsU-ziROZj6kjQUtHVfAD9IWx0IhQDOtP7SWBIUhcOFQUqWI1u1nzFyVwTzEOTcS2OL2DvrCVumrG_Nqjk4_NAKmoGLFjAZMJEHaCulwXQBIDfHehfkNiNJey6cxZwCOJokSbdx3YeS6pvZYdwrk8B2jphPRosXC71Uz5LGV3HNSbFVgOIIMArUr0_pCb096tXBqMdDI1u4_SWzUt7ZsR2cKuBqemTJ-xJZrn8MNNCEb3mCCdebHvgG1E]--></g></svg>