<svg xmlns="http://www.w3.org/2000/svg" xmlns:xlink="http://www.w3.org/1999/xlink" contentStyleType="text/css" height="384px" preserveAspectRatio="none" style="width:932px;height:384px;background:#FFFFFF;" version="1.1" viewBox="0 0 932 384" width="932px" zoomAndPan="magnify"><defs/><g><!--entity ED--><g id="elem_ED"><rect fill="#F1F1F1" height="46.4883" rx="2.5" ry="2.5" style="stroke:#181818;stroke-width:0.5;" width="173.9775" x="325.7331" y="103"/><rect fill="#F1F1F1" height="10" style="stroke:#181818;stroke-width:0.5;" width="15" x="479.7107" y="108"/><rect fill="#F1F1F1" height="2" style="stroke:#181818;stroke-width:0.5;" width="4" x="477.7107" y="110"/><rect fill="#F1F1F1" height="2" style="stroke:#181818;stroke-width:0.5;" width="4" x="477.7107" y="114"/><text fill="#000000" font-family="sans-serif" font-size="14" lengthAdjust="spacing" textLength="133.9775" x="340.7331" y="136.5352">Espresso Derivatoin</text></g><!--entity AND--><g id="elem_AND"><rect fill="#F1F1F1" height="46.4883" rx="2.5" ry="2.5" style="stroke:#181818;stroke-width:0.5;" width="70.4883" x="457.4831" y="209.49"/><rect fill="#F1F1F1" height="10" style="stroke:#181818;stroke-width:0.5;" width="15" x="507.9714" y="214.49"/><rect fill="#F1F1F1" height="2" style="stroke:#181818;stroke-width:0.5;" width="4" x="505.9714" y="216.49"/><rect fill="#F1F1F1" height="2" style="stroke:#181818;stroke-width:0.5;" width="4" x="505.9714" y="220.49"/><text fill="#000000" font-family="sans-serif" font-size="14" lengthAdjust="spacing" textLength="30.4883" x="472.4831" y="243.0252">AND</text></g><!--entity ZK--><g id="elem_ZK"><rect fill="#F1F1F1" height="46.4883" rx="2.5" ry="2.5" style="stroke:#181818;stroke-width:0.5;" width="77.4199" x="535.0131" y="103"/><rect fill="#F1F1F1" height="10" style="stroke:#181818;stroke-width:0.5;" width="15" x="592.4331" y="108"/><rect fill="#F1F1F1" height="2" style="stroke:#181818;stroke-width:0.5;" width="4" x="590.4331" y="110"/><rect fill="#F1F1F1" height="2" style="stroke:#181818;stroke-width:0.5;" width="4" x="590.4331" y="114"/><text fill="#000000" font-family="sans-serif" font-size="14" lengthAdjust="spacing" textLength="37.4199" x="550.0131" y="136.5352">zkVM</text></g><!--entity blk_cm_root--><g id="elem_blk_cm_root"><ellipse cx="47.7231" cy="14" fill="#F1F1F1" rx="8" ry="8" style="stroke:#181818;stroke-width:0.5;"/><text fill="#000000" font-family="sans-serif" font-size="14" lengthAdjust="spacing" textLength="83.4463" x="6" y="44.5352">blk_cm_root</text></g><!--entity <b>PROOF_TXS_HISTORY_ESP</b>--><g id="elem_&lt;b&gt;PROOF_TXS_HISTORY_ESP&lt;/b&gt;"><ellipse cx="232.7231" cy="14" fill="#F1F1F1" rx="8" ry="8" style="stroke:#181818;stroke-width:0.5;"/><text fill="#000000" font-family="sans-serif" font-size="14" font-weight="bold" lengthAdjust="spacing" textLength="186.3408" x="139.5527" y="44.5352">PROOF_TXS_HISTORY_ESP</text></g><!--entity <b>ROLLUP_TXS</b>--><g id="elem_&lt;b&gt;ROLLUP_TXS&lt;/b&gt;"><ellipse cx="421.7231" cy="14" fill="#F1F1F1" rx="8" ry="8" style="stroke:#181818;stroke-width:0.5;"/><text fill="#000000" font-family="sans-serif" font-size="14" font-weight="bold" lengthAdjust="spacing" textLength="90.3574" x="376.5444" y="44.5352">ROLLUP_TXS</text></g><!--entity cm_txs_rollup--><g id="elem_cm_txs_rollup"><ellipse cx="564.7231" cy="14" fill="#F1F1F1" rx="8" ry="8" style="stroke:#181818;stroke-width:0.5;"/><text fill="#000000" font-family="sans-serif" font-size="14" lengthAdjust="spacing" textLength="95.1221" x="517.1621" y="44.5352">cm_txs_rollup</text></g><!--entity cm_state_vm i--><g id="elem_cm_state_vm i"><ellipse cx="710.7231" cy="14" fill="#F1F1F1" rx="8" ry="8" style="stroke:#181818;stroke-width:0.5;"/><text fill="#000000" font-family="sans-serif" font-size="14" lengthAdjust="spacing" textLength="96.1748" x="662.6357" y="44.5352">cm_state_vm i</text></g><!--entity cm_state_vm i+1--><g id="elem_cm_state_vm i+1"><ellipse cx="867.7231" cy="14" fill="#F1F1F1" rx="8" ry="8" style="stroke:#181818;stroke-width:0.5;"/><text fill="#000000" font-family="sans-serif" font-size="14" lengthAdjust="spacing" textLength="116.1563" x="809.645" y="44.5352">cm_state_vm i+1</text></g><!--entity OUTPUT--><g id="elem_OUTPUT"><ellipse cx="492.7231" cy="344.98" fill="#F1F1F1" rx="8" ry="8" style="stroke:#181818;stroke-width:0.5;"/><text fill="#000000" font-family="sans-serif" font-size="14" lengthAdjust="spacing" textLength="55.7197" x="464.8633" y="375.5152">OUTPUT</text></g><!--link blk_cm_root to ED--><g id="link_blk_cm_root_ED"><path d="M56.5431,19.19 C69.0631,25.03 92.7931,35.72 113.7231,43 C183.8931,67.42 259.4735,87.9498 319.6135,103.0398 " fill="none" id="blk_cm_root-to-ED" style="stroke:#181818;stroke-width:1.0;"/><polygon fill="#181818" points="325.4331,104.5,317.6772,98.4299,320.5835,103.2831,315.7303,106.1894,325.4331,104.5" style="stroke:#181818;stroke-width:1.0;"/></g><!--link <b>PROOF_TXS_HISTORY_ESP</b> to ED--><g id="link_&lt;b&gt;PROOF_TXS_HISTORY_ESP&lt;/b&gt;_ED"><path d="M241.4031,20.32 C265.2831,34.94 327.8764,73.2866 370.6764,99.4966 " fill="none" id="&lt;b&gt;PROOF_TXS_HISTORY_ESP&lt;/b&gt;-to-ED" style="stroke:#181818;stroke-width:1.0;"/><polygon fill="#181818" points="375.7931,102.63,370.2069,94.5186,371.5292,100.0188,366.029,101.341,375.7931,102.63" style="stroke:#181818;stroke-width:1.0;"/></g><!--link <b>ROLLUP_TXS</b> to ED--><g id="link_&lt;b&gt;ROLLUP_TXS&lt;/b&gt;_ED"><path d="M421.0731,22.93 C419.7331,39.42 417.0704,71.9598 415.0504,96.7498 " fill="none" id="&lt;b&gt;ROLLUP_TXS&lt;/b&gt;-to-ED" style="stroke:#181818;stroke-width:1.0;"/><polygon fill="#181818" points="414.5631,102.73,419.2809,94.0846,414.9692,97.7465,411.3073,93.4349,414.5631,102.73" style="stroke:#181818;stroke-width:1.0;"/></g><!--link <b>ROLLUP_TXS</b> to ZK--><g id="link_&lt;b&gt;ROLLUP_TXS&lt;/b&gt;_ZK"><path d="M430.3331,21.25 C451.5531,36.64 502.3958,73.5177 537.7958,99.1877 " fill="none" id="&lt;b&gt;ROLLUP_TXS&lt;/b&gt;-to-ZK" style="stroke:#181818;stroke-width:1.0;"/><polygon fill="#181818" points="542.6531,102.71,537.7153,94.1884,538.6054,99.7748,533.019,100.6648,542.6531,102.71" style="stroke:#181818;stroke-width:1.0;"/></g><!--link cm_txs_rollup to ED--><g id="link_cm_txs_rollup_ED"><path d="M556.1131,21.25 C534.8931,36.64 484.0505,73.5177 448.6505,99.1877 " fill="none" id="cm_txs_rollup-to-ED" style="stroke:#181818;stroke-width:1.0;"/><polygon fill="#181818" points="443.7931,102.71,453.4273,100.6648,447.8409,99.7748,448.731,94.1884,443.7931,102.71" style="stroke:#181818;stroke-width:1.0;"/></g><!--link cm_state_vm i to ZK--><g id="link_cm_state_vm i_ZK"><path d="M701.7331,22.24 C681.7931,38.28 637.8174,73.6682 606.5674,98.8182 " fill="none" id="cm_state_vm i-to-ZK" style="stroke:#181818;stroke-width:1.0;"/><polygon fill="#181818" points="601.8931,102.58,611.4124,100.0534,605.7884,99.4451,606.3966,93.8211,601.8931,102.58" style="stroke:#181818;stroke-width:1.0;"/></g><!--link cm_state_vm i+1 to ZK--><g id="link_cm_state_vm i+1_ZK"><path d="M858.9231,18.3 C822.4731,31.97 687.6213,82.5436 618.3813,108.5036 " fill="none" id="cm_state_vm i+1-to-ZK" style="stroke:#181818;stroke-width:1.0;"/><polygon fill="#181818" points="612.7631,110.61,622.5946,111.1958,617.4449,108.8547,619.7861,103.705,612.7631,110.61" style="stroke:#181818;stroke-width:1.0;"/></g><!--link cm_txs_rollup to ZK--><g id="link_cm_txs_rollup_ZK"><path d="M565.3731,22.93 C566.7131,39.42 569.3759,71.9598 571.3959,96.7498 " fill="none" id="cm_txs_rollup-to-ZK" style="stroke:#181818;stroke-width:1.0;"/><polygon fill="#181818" points="571.8831,102.73,575.139,93.4349,571.4771,97.7465,567.1654,94.0846,571.8831,102.73" style="stroke:#181818;stroke-width:1.0;"/></g><!--link ZK to AND--><g id="link_ZK_AND"><path d="M556.1431,149.92 C542.5631,167.45 527.5189,186.8478 513.9389,204.3678 " fill="none" id="ZK-to-AND" style="stroke:#181818;stroke-width:1.0;"/><polygon fill="#181818" points="510.2631,209.11,518.9383,204.4472,513.3263,205.1581,512.6153,199.5461,510.2631,209.11" style="stroke:#181818;stroke-width:1.0;"/></g><!--link ED to AND--><g id="link_ED_AND"><path d="M430.0831,149.92 C443.5031,167.45 458.3346,186.8268 471.7546,204.3468 " fill="none" id="ED-to-AND" style="stroke:#181818;stroke-width:1.0;"/><polygon fill="#181818" points="475.4031,209.11,473.1058,199.5328,472.3627,205.1407,466.7549,204.3975,475.4031,209.11" style="stroke:#181818;stroke-width:1.0;"/></g><!--link AND to OUTPUT--><g id="link_AND_OUTPUT"><path d="M492.7231,256.31 C492.7231,281.13 492.7231,313.67 492.7231,330.11 " fill="none" id="AND-to-OUTPUT" style="stroke:#181818;stroke-width:1.0;"/><polygon fill="#181818" points="492.7231,336.11,496.7231,327.11,492.7231,331.11,488.7231,327.11,492.7231,336.11" style="stroke:#181818;stroke-width:1.0;"/></g><!--SRC=[ZK_12e904BtFLonUGwAx2C5k55gxw1gbnABXGTHMt4sYhszt8IcwT9bvyzwRUKn1r33MIac4wx6PIYsRsmML2X4CnVg07JOTe7YsnxqRymYWwbfnxSKefKQ-7rgx5rGXIoZT27vAnNQNSfgS1KbPiAn2xzELq3ZEcBNz9TayawKVokHrtNruBu1dQALBNOkfHyti_gONgrdulM9lGnuvRDyaU8PWYXjenbd60Lu0]--></g></svg>