<?xml version="1.0" encoding="us-ascii" standalone="no"?><svg xmlns="http://www.w3.org/2000/svg" xmlns:xlink="http://www.w3.org/1999/xlink" contentStyleType="text/css" height="383px" preserveAspectRatio="none" style="width:1250px;height:383px;background:#FFFFFF;" version="1.1" viewBox="0 0 1250 383" width="1250px" zoomAndPan="magnify"><defs/><g><!--entity CF--><g id="elem_CF"><rect fill="#F1F1F1" height="46.2969" rx="2.5" ry="2.5" style="stroke:#181818;stroke-width:0.5;" width="140" x="298" y="103"/><rect fill="#F1F1F1" height="10" style="stroke:#181818;stroke-width:0.5;" width="15" x="418" y="108"/><rect fill="#F1F1F1" height="2" style="stroke:#181818;stroke-width:0.5;" width="4" x="416" y="110"/><rect fill="#F1F1F1" height="2" style="stroke:#181818;stroke-width:0.5;" width="4" x="416" y="114"/><text fill="#000000" font-family="sans-serif" font-size="14" lengthAdjust="spacing" textLength="100" x="313" y="135.9951">Collect &amp; Filter</text></g><!--entity CE--><g id="elem_CE"><rect fill="#F1F1F1" height="46.2969" rx="2.5" ry="2.5" style="stroke:#181818;stroke-width:0.5;" width="180" x="636" y="103"/><rect fill="#F1F1F1" height="10" style="stroke:#181818;stroke-width:0.5;" width="15" x="796" y="108"/><rect fill="#F1F1F1" height="2" style="stroke:#181818;stroke-width:0.5;" width="4" x="794" y="110"/><rect fill="#F1F1F1" height="2" style="stroke:#181818;stroke-width:0.5;" width="4" x="794" y="114"/><text fill="#000000" font-family="sans-serif" font-size="14" lengthAdjust="spacing" textLength="140" x="651" y="135.9951">COMMs Equivalence</text></g><!--entity AND--><g id="elem_AND"><rect fill="#F1F1F1" height="46.2969" rx="2.5" ry="2.5" style="stroke:#181818;stroke-width:0.5;" width="70" x="691" y="209.29"/><rect fill="#F1F1F1" height="10" style="stroke:#181818;stroke-width:0.5;" width="15" x="741" y="214.29"/><rect fill="#F1F1F1" height="2" style="stroke:#181818;stroke-width:0.5;" width="4" x="739" y="216.29"/><rect fill="#F1F1F1" height="2" style="stroke:#181818;stroke-width:0.5;" width="4" x="739" y="220.29"/><text fill="#000000" font-family="sans-serif" font-size="14" lengthAdjust="spacing" textLength="30" x="706" y="242.2851">AND</text></g><!--entity ZK--><g id="elem_ZK"><rect fill="#F1F1F1" height="46.2969" rx="2.5" ry="2.5" style="stroke:#181818;stroke-width:0.5;" width="77" x="850.5" y="103"/><rect fill="#F1F1F1" height="10" style="stroke:#181818;stroke-width:0.5;" width="15" x="907.5" y="108"/><rect fill="#F1F1F1" height="2" style="stroke:#181818;stroke-width:0.5;" width="4" x="905.5" y="110"/><rect fill="#F1F1F1" height="2" style="stroke:#181818;stroke-width:0.5;" width="4" x="905.5" y="114"/><text fill="#000000" font-family="sans-serif" font-size="14" lengthAdjust="spacing" textLength="37" x="865.5" y="135.9951">zkVM</text></g><!--entity blk_cm_old--><g id="elem_blk_cm_old"><ellipse cx="44" cy="14" fill="#F1F1F1" rx="8" ry="8" style="stroke:#181818;stroke-width:0.5;"/><text fill="#000000" font-family="sans-serif" font-size="14" lengthAdjust="spacing" textLength="76" x="6" y="43.9951">blk_cm_old</text></g><!--entity blk_cm_new--><g id="elem_blk_cm_new"><ellipse cx="175" cy="14" fill="#F1F1F1" rx="8" ry="8" style="stroke:#181818;stroke-width:0.5;"/><text fill="#000000" font-family="sans-serif" font-size="14" lengthAdjust="spacing" textLength="84" x="133" y="43.9951">blk_cm_new</text></g><!--entity <b>PROOF_TXS_HISTORY_ESP</b>--><g id="elem_&lt;b&gt;PROOF_TXS_HISTORY_ESP&lt;/b&gt;"><ellipse cx="368" cy="14" fill="#F1F1F1" rx="8" ry="8" style="stroke:#181818;stroke-width:0.5;"/><text fill="#000000" font-family="sans-serif" font-size="14" font-weight="bold" lengthAdjust="spacing" textLength="200" x="268" y="43.9951">PROOF_TXS_HISTORY_ESP</text></g><!--entity <b>ROLLUP_TXS</b>--><g id="elem_&lt;b&gt;ROLLUP_TXS&lt;/b&gt;"><ellipse cx="735" cy="14" fill="#F1F1F1" rx="8" ry="8" style="stroke:#181818;stroke-width:0.5;"/><text fill="#000000" font-family="sans-serif" font-size="14" font-weight="bold" lengthAdjust="spacing" textLength="98" x="686" y="43.9951">ROLLUP_TXS</text></g><!--entity cm_txs_rollup--><g id="elem_cm_txs_rollup"><ellipse cx="881" cy="14" fill="#F1F1F1" rx="8" ry="8" style="stroke:#181818;stroke-width:0.5;"/><text fill="#000000" font-family="sans-serif" font-size="14" lengthAdjust="spacing" textLength="93" x="834.5" y="43.9951">cm_txs_rollup</text></g><!--entity <b>cm_txs_history</b>--><g id="elem_&lt;b&gt;cm_txs_history&lt;/b&gt;"><ellipse cx="577" cy="14" fill="#F1F1F1" rx="8" ry="8" style="stroke:#181818;stroke-width:0.5;"/><text fill="#000000" font-family="sans-serif" font-size="14" font-weight="bold" lengthAdjust="spacing" textLength="116" x="519" y="43.9951">cm_txs_history</text></g><!--entity cm_state_vm i--><g id="elem_cm_state_vm i"><ellipse cx="1026" cy="14" fill="#F1F1F1" rx="8" ry="8" style="stroke:#181818;stroke-width:0.5;"/><text fill="#000000" font-family="sans-serif" font-size="14" lengthAdjust="spacing" textLength="97" x="977.5" y="43.9951">cm_state_vm i</text></g><!--entity cm_state_vm i+1--><g id="elem_cm_state_vm i+1"><ellipse cx="1184" cy="14" fill="#F1F1F1" rx="8" ry="8" style="stroke:#181818;stroke-width:0.5;"/><text fill="#000000" font-family="sans-serif" font-size="14" lengthAdjust="spacing" textLength="118" x="1125" y="43.9951">cm_state_vm i+1</text></g><!--entity OUTPUT--><g id="elem_OUTPUT"><ellipse cx="726" cy="344.59" fill="#F1F1F1" rx="8" ry="8" style="stroke:#181818;stroke-width:0.5;"/><text fill="#000000" font-family="sans-serif" font-size="14" lengthAdjust="spacing" textLength="58" x="697" y="374.5851">OUTPUT</text></g><!--link blk_cm_old to CF--><g id="link_blk_cm_old_CF"><path d="M52.84,19.31 C64.91,25.1 87.3,35.54 107,43 C170.65,67.07 239.0304,88.2387 291.9904,103.6987 " fill="none" id="blk_cm_old-to-CF" style="stroke:#181818;stroke-width:1.0;"/><polygon fill="#181818" points="297.75,105.38,290.2315,99.0183,292.9503,103.9789,287.9897,106.6977,297.75,105.38" style="stroke:#181818;stroke-width:1.0;"/></g><!--link blk_cm_new to CF--><g id="link_blk_cm_new_CF"><path d="M183.79,20.02 C208.94,34.37 277.0891,73.2557 323.2891,99.6257 " fill="none" id="blk_cm_new-to-CF" style="stroke:#181818;stroke-width:1.0;"/><polygon fill="#181818" points="328.5,102.6,322.6665,94.6646,324.1576,100.1214,318.7008,101.6125,328.5,102.6" style="stroke:#181818;stroke-width:1.0;"/></g><!--link <b>PROOF_TXS_HISTORY_ESP</b> to CF--><g id="link_&lt;b&gt;PROOF_TXS_HISTORY_ESP&lt;/b&gt;_CF"><path d="M368,22.92 C368,39.39 368,71.88 368,96.64 " fill="none" id="&lt;b&gt;PROOF_TXS_HISTORY_ESP&lt;/b&gt;-to-CF" style="stroke:#181818;stroke-width:1.0;"/><polygon fill="#181818" points="368,102.64,372,93.64,368,97.64,364,93.64,368,102.64" style="stroke:#181818;stroke-width:1.0;"/></g><!--link <b>ROLLUP_TXS</b> to CE--><g id="link_&lt;b&gt;ROLLUP_TXS&lt;/b&gt;_CE"><path d="M734.35,22.92 C733.01,39.39 730.3479,71.8999 728.3279,96.6599 " fill="none" id="&lt;b&gt;ROLLUP_TXS&lt;/b&gt;-to-CE" style="stroke:#181818;stroke-width:1.0;"/><polygon fill="#181818" points="727.84,102.64,732.5586,93.9951,728.2466,97.6566,724.5851,93.3446,727.84,102.64" style="stroke:#181818;stroke-width:1.0;"/></g><!--link <b>ROLLUP_TXS</b> to ZK--><g id="link_&lt;b&gt;ROLLUP_TXS&lt;/b&gt;_ZK"><path d="M743.72,21.23 C765.23,36.62 816.7701,73.4791 852.6401,99.1391 " fill="none" id="&lt;b&gt;ROLLUP_TXS&lt;/b&gt;-to-ZK" style="stroke:#181818;stroke-width:1.0;"/><polygon fill="#181818" points="857.52,102.63,852.5274,94.1404,853.4534,99.7209,847.8729,100.6469,857.52,102.63" style="stroke:#181818;stroke-width:1.0;"/></g><!--link cm_txs_rollup to CE--><g id="link_cm_txs_rollup_CE"><path d="M872.22,21.23 C850.58,36.62 798.6809,73.4945 762.5709,99.1545 " fill="none" id="cm_txs_rollup-to-CE" style="stroke:#181818;stroke-width:1.0;"/><polygon fill="#181818" points="757.68,102.63,767.3333,100.6773,761.7557,99.7337,762.6993,94.1561,757.68,102.63" style="stroke:#181818;stroke-width:1.0;"/></g><!--link <b>cm_txs_history</b> to CE--><g id="link_&lt;b&gt;cm_txs_history&lt;/b&gt;_CE"><path d="M585.87,21.56 C606.99,37.16 656.1851,73.5335 690.6551,99.0135 " fill="none" id="&lt;b&gt;cm_txs_history&lt;/b&gt;-to-CE" style="stroke:#181818;stroke-width:1.0;"/><polygon fill="#181818" points="695.48,102.58,690.6203,94.0136,691.4592,99.6079,685.8649,100.4468,695.48,102.58" style="stroke:#181818;stroke-width:1.0;"/></g><!--link <b>cm_txs_history</b> to CF--><g id="link_&lt;b&gt;cm_txs_history&lt;/b&gt;_CF"><path d="M568.02,19.73 C541.3,33.81 466.338,73.3227 415.978,99.8627 " fill="none" id="&lt;b&gt;cm_txs_history&lt;/b&gt;-to-CF" style="stroke:#181818;stroke-width:1.0;"/><polygon fill="#181818" points="410.67,102.66,420.4969,102.0026,415.0933,100.3289,416.7671,94.9253,410.67,102.66" style="stroke:#181818;stroke-width:1.0;"/></g><!--link cm_state_vm i to ZK--><g id="link_cm_state_vm i_ZK"><path d="M1017.01,22.22 C997.07,38.26 953.0957,73.61 921.8457,98.74 " fill="none" id="cm_state_vm i-to-ZK" style="stroke:#181818;stroke-width:1.0;"/><polygon fill="#181818" points="917.17,102.5,926.6902,99.9771,921.0664,99.3667,921.6769,93.7428,917.17,102.5" style="stroke:#181818;stroke-width:1.0;"/></g><!--link cm_state_vm i+1 to ZK--><g id="link_cm_state_vm i+1_ZK"><path d="M1175.17,18.29 C1138.55,31.97 1002.9011,82.6216 933.5211,108.5216 " fill="none" id="cm_state_vm i+1-to-ZK" style="stroke:#181818;stroke-width:1.0;"/><polygon fill="#181818" points="927.9,110.62,937.7306,111.2198,932.5842,108.8713,934.9327,103.725,927.9,110.62" style="stroke:#181818;stroke-width:1.0;"/></g><!--link cm_txs_rollup to ZK--><g id="link_cm_txs_rollup_ZK"><path d="M881.58,22.92 C882.77,39.39 885.135,71.8958 886.935,96.6558 " fill="none" id="cm_txs_rollup-to-ZK" style="stroke:#181818;stroke-width:1.0;"/><polygon fill="#181818" points="887.37,102.64,890.7069,93.3737,887.0075,97.6532,882.728,93.9537,887.37,102.64" style="stroke:#181818;stroke-width:1.0;"/></g><!--link ZK to AND--><g id="link_ZK_AND"><path d="M853.63,149.78 C826.29,167.27 793.674,188.1363 766.354,205.6163 " fill="none" id="ZK-to-AND" style="stroke:#181818;stroke-width:1.0;"/><polygon fill="#181818" points="761.3,208.85,771.0368,207.3688,765.5117,206.1553,766.7253,200.6301,761.3,208.85" style="stroke:#181818;stroke-width:1.0;"/></g><!--link CE to AND--><g id="link_CE_AND"><path d="M726,149.78 C726,167.27 726,185.37 726,202.85 " fill="none" id="CE-to-AND" style="stroke:#181818;stroke-width:1.0;"/><polygon fill="#181818" points="726,208.85,730,199.85,726,203.85,722,199.85,726,208.85" style="stroke:#181818;stroke-width:1.0;"/></g><!--link CF to AND--><g id="link_CF_AND"><path d="M438.3,147.63 C514.26,169.75 626.4697,202.441 684.9297,219.481 " fill="none" id="CF-to-AND" style="stroke:#181818;stroke-width:1.0;"/><polygon fill="#181818" points="690.69,221.16,683.1689,214.8013,685.8898,219.7608,680.9302,222.4817,690.69,221.16" style="stroke:#181818;stroke-width:1.0;"/></g><!--link AND to OUTPUT--><g id="link_AND_OUTPUT"><path d="M726,256 C726,280.8 726,313.3 726,329.73 " fill="none" id="AND-to-OUTPUT" style="stroke:#181818;stroke-width:1.0;"/><polygon fill="#181818" points="726,335.73,730,326.73,726,330.73,722,326.73,726,335.73" style="stroke:#181818;stroke-width:1.0;"/></g><!--SRC=[TP1TQy8m58Rlpwy8lTYD5Dcz5AGcEBIcz6EePOIs2rYCLflefhz-INIrKhn9tlC-vol9_5e8NYhqXaWb56- -K2wHJo3pQH18X8-dwfmBlY_vZM38nek9rVe6oAxRpy26wnb08RQitB5QV2FNzKoVkxFdF_-ECogyCAAKi6GPi-b7dD1enN0SZeQ5vtIp8ZgVfw59wo3y4fa5z2ZrArcZNtKwT0lkO5D9LJUNNh-Nc00u6agLAyxEErIrivxjmNiB-ZkOpM0zizhyceyVahGIz643cYPXcW3y0G00]--></g></svg>