<?xml version="1.0" encoding="us-ascii" standalone="no"?><svg xmlns="http://www.w3.org/2000/svg" xmlns:xlink="http://www.w3.org/1999/xlink" contentStyleType="text/css" height="383px" preserveAspectRatio="none" style="width:1506px;height:383px;background:#FFFFFF;" version="1.1" viewBox="0 0 1506 383" width="1506px" zoomAndPan="magnify"><defs/><g><!--entity EspCons--><g id="elem_EspCons"><rect fill="#F1F1F1" height="46.2969" rx="2.5" ry="2.5" style="stroke:#181818;stroke-width:0.5;" width="188" x="187.5" y="103"/><rect fill="#F1F1F1" height="10" style="stroke:#181818;stroke-width:0.5;" width="15" x="355.5" y="108"/><rect fill="#F1F1F1" height="2" style="stroke:#181818;stroke-width:0.5;" width="4" x="353.5" y="110"/><rect fill="#F1F1F1" height="2" style="stroke:#181818;stroke-width:0.5;" width="4" x="353.5" y="114"/><text fill="#000000" font-family="sans-serif" font-size="14" lengthAdjust="spacing" textLength="148" x="202.5" y="135.9951">Espresso Consensus</text></g><!--entity CF--><g id="elem_CF"><rect fill="#F1F1F1" height="46.2969" rx="2.5" ry="2.5" style="stroke:#181818;stroke-width:0.5;" width="140" x="588.5" y="103"/><rect fill="#F1F1F1" height="10" style="stroke:#181818;stroke-width:0.5;" width="15" x="708.5" y="108"/><rect fill="#F1F1F1" height="2" style="stroke:#181818;stroke-width:0.5;" width="4" x="706.5" y="110"/><rect fill="#F1F1F1" height="2" style="stroke:#181818;stroke-width:0.5;" width="4" x="706.5" y="114"/><text fill="#000000" font-family="sans-serif" font-size="14" lengthAdjust="spacing" textLength="100" x="603.5" y="135.9951">Collect &amp; Filter</text></g><!--entity CE--><g id="elem_CE"><rect fill="#F1F1F1" height="46.2969" rx="2.5" ry="2.5" style="stroke:#181818;stroke-width:0.5;" width="180" x="824.5" y="103"/><rect fill="#F1F1F1" height="10" style="stroke:#181818;stroke-width:0.5;" width="15" x="984.5" y="108"/><rect fill="#F1F1F1" height="2" style="stroke:#181818;stroke-width:0.5;" width="4" x="982.5" y="110"/><rect fill="#F1F1F1" height="2" style="stroke:#181818;stroke-width:0.5;" width="4" x="982.5" y="114"/><text fill="#000000" font-family="sans-serif" font-size="14" lengthAdjust="spacing" textLength="140" x="839.5" y="135.9951">COMMs Equivalence</text></g><!--entity AND--><g id="elem_AND"><rect fill="#F1F1F1" height="46.2969" rx="2.5" ry="2.5" style="stroke:#181818;stroke-width:0.5;" width="70" x="781.5" y="209.29"/><rect fill="#F1F1F1" height="10" style="stroke:#181818;stroke-width:0.5;" width="15" x="831.5" y="214.29"/><rect fill="#F1F1F1" height="2" style="stroke:#181818;stroke-width:0.5;" width="4" x="829.5" y="216.29"/><rect fill="#F1F1F1" height="2" style="stroke:#181818;stroke-width:0.5;" width="4" x="829.5" y="220.29"/><text fill="#000000" font-family="sans-serif" font-size="14" lengthAdjust="spacing" textLength="30" x="796.5" y="242.2851">AND</text></g><!--entity ZK--><g id="elem_ZK"><rect fill="#F1F1F1" height="46.2969" rx="2.5" ry="2.5" style="stroke:#181818;stroke-width:0.5;" width="77" x="1099" y="103"/><rect fill="#F1F1F1" height="10" style="stroke:#181818;stroke-width:0.5;" width="15" x="1156" y="108"/><rect fill="#F1F1F1" height="2" style="stroke:#181818;stroke-width:0.5;" width="4" x="1154" y="110"/><rect fill="#F1F1F1" height="2" style="stroke:#181818;stroke-width:0.5;" width="4" x="1154" y="114"/><text fill="#000000" font-family="sans-serif" font-size="14" lengthAdjust="spacing" textLength="37" x="1114" y="135.9951">zkVM</text></g><!--entity blk_cm_new--><g id="elem_blk_cm_new"><ellipse cx="356.5" cy="14" fill="#F1F1F1" rx="8" ry="8" style="stroke:#181818;stroke-width:0.5;"/><text fill="#000000" font-family="sans-serif" font-size="14" lengthAdjust="spacing" textLength="84" x="314.5" y="43.9951">blk_cm_new</text></g><!--entity <b>STATE_SIGS</b>--><g id="elem_&lt;b&gt;STATE_SIGS&lt;/b&gt;"><ellipse cx="52.5" cy="14" fill="#F1F1F1" rx="8" ry="8" style="stroke:#181818;stroke-width:0.5;"/><text fill="#000000" font-family="sans-serif" font-size="14" font-weight="bold" lengthAdjust="spacing" textLength="93" x="6" y="43.9951">STATE_SIGS</text></g><!--entity BLOCK_NUMBER--><g id="elem_BLOCK_NUMBER"><ellipse cx="206.5" cy="14" fill="#F1F1F1" rx="8" ry="8" style="stroke:#181818;stroke-width:0.5;"/><text fill="#000000" font-family="sans-serif" font-size="14" lengthAdjust="spacing" textLength="115" x="149" y="43.9951">BLOCK_NUMBER</text></g><!--entity blk_cm_old--><g id="elem_blk_cm_old"><ellipse cx="487.5" cy="14" fill="#F1F1F1" rx="8" ry="8" style="stroke:#181818;stroke-width:0.5;"/><text fill="#000000" font-family="sans-serif" font-size="14" lengthAdjust="spacing" textLength="76" x="449.5" y="43.9951">blk_cm_old</text></g><!--entity <b>PROOF_TXS_HISTORY</b>--><g id="elem_&lt;b&gt;PROOF_TXS_HISTORY&lt;/b&gt;"><ellipse cx="658.5" cy="14" fill="#F1F1F1" rx="8" ry="8" style="stroke:#181818;stroke-width:0.5;"/><text fill="#000000" font-family="sans-serif" font-size="14" font-weight="bold" lengthAdjust="spacing" textLength="164" x="576.5" y="43.9951">PROOF_TXS_HISTORY</text></g><!--entity <b>ROLLUP_TXS</b>--><g id="elem_&lt;b&gt;ROLLUP_TXS&lt;/b&gt;"><ellipse cx="991.5" cy="14" fill="#F1F1F1" rx="8" ry="8" style="stroke:#181818;stroke-width:0.5;"/><text fill="#000000" font-family="sans-serif" font-size="14" font-weight="bold" lengthAdjust="spacing" textLength="98" x="942.5" y="43.9951">ROLLUP_TXS</text></g><!--entity cm_txs_rollup--><g id="elem_cm_txs_rollup"><ellipse cx="1137.5" cy="14" fill="#F1F1F1" rx="8" ry="8" style="stroke:#181818;stroke-width:0.5;"/><text fill="#000000" font-family="sans-serif" font-size="14" lengthAdjust="spacing" textLength="93" x="1091" y="43.9951">cm_txs_rollup</text></g><!--entity cm_txs_history--><g id="elem_cm_txs_history"><ellipse cx="841.5" cy="14" fill="#F1F1F1" rx="8" ry="8" style="stroke:#181818;stroke-width:0.5;"/><text fill="#000000" font-family="sans-serif" font-size="14" lengthAdjust="spacing" textLength="101" x="791" y="43.9951">cm_txs_history</text></g><!--entity cm_state_vm i--><g id="elem_cm_state_vm i"><ellipse cx="1282.5" cy="14" fill="#F1F1F1" rx="8" ry="8" style="stroke:#181818;stroke-width:0.5;"/><text fill="#000000" font-family="sans-serif" font-size="14" lengthAdjust="spacing" textLength="97" x="1234" y="43.9951">cm_state_vm i</text></g><!--entity cm_state_vm i+1--><g id="elem_cm_state_vm i+1"><ellipse cx="1440.5" cy="14" fill="#F1F1F1" rx="8" ry="8" style="stroke:#181818;stroke-width:0.5;"/><text fill="#000000" font-family="sans-serif" font-size="14" lengthAdjust="spacing" textLength="118" x="1381.5" y="43.9951">cm_state_vm i+1</text></g><!--entity OUTPUT--><g id="elem_OUTPUT"><ellipse cx="816.5" cy="344.59" fill="#F1F1F1" rx="8" ry="8" style="stroke:#181818;stroke-width:0.5;"/><text fill="#000000" font-family="sans-serif" font-size="14" lengthAdjust="spacing" textLength="58" x="787.5" y="374.5851">OUTPUT</text></g><!--link blk_cm_new to EspCons--><g id="link_blk_cm_new_EspCons"><path d="M351.11,22.92 C339.89,39.39 317.057,72.9206 300.197,97.6806 " fill="none" id="blk_cm_new-to-EspCons" style="stroke:#181818;stroke-width:1.0;"/><polygon fill="#181818" points="296.82,102.64,305.1918,97.4523,299.6342,98.5072,298.5793,92.9495,296.82,102.64" style="stroke:#181818;stroke-width:1.0;"/></g><!--link <b>STATE_SIGS</b> to EspCons--><g id="link_&lt;b&gt;STATE_SIGS&lt;/b&gt;_EspCons"><path d="M61.48,19.31 C89.84,32.96 173.5427,73.2197 229.2727,100.0197 " fill="none" id="&lt;b&gt;STATE_SIGS&lt;/b&gt;-to-EspCons" style="stroke:#181818;stroke-width:1.0;"/><polygon fill="#181818" points="234.68,102.62,228.3026,95.1147,230.174,100.4531,224.8356,102.3244,234.68,102.62" style="stroke:#181818;stroke-width:1.0;"/></g><!--link BLOCK_NUMBER to EspCons--><g id="link_BLOCK_NUMBER_EspCons"><path d="M211.89,22.92 C223.11,39.39 245.943,72.9206 262.803,97.6806 " fill="none" id="BLOCK_NUMBER-to-EspCons" style="stroke:#181818;stroke-width:1.0;"/><polygon fill="#181818" points="266.18,102.64,264.4207,92.9495,263.3658,98.5072,257.8082,97.4523,266.18,102.64" style="stroke:#181818;stroke-width:1.0;"/></g><!--link blk_cm_old to CF--><g id="link_blk_cm_old_CF"><path d="M496.22,20.61 C519.36,35.52 578.2862,73.4703 618.6562,99.4803 " fill="none" id="blk_cm_old-to-CF" style="stroke:#181818;stroke-width:1.0;"/><polygon fill="#181818" points="623.7,102.73,618.3008,94.493,619.4968,100.022,613.9679,101.218,623.7,102.73" style="stroke:#181818;stroke-width:1.0;"/></g><!--link blk_cm_new to CF--><g id="link_blk_cm_new_CF"><path d="M365.11,18.79 C377.8,24.33 402.31,34.87 423.5,43 C479.29,64.38 537.6763,84.7077 584.8063,100.6477 " fill="none" id="blk_cm_new-to-CF" style="stroke:#181818;stroke-width:1.0;"/><polygon fill="#181818" points="590.49,102.57,583.246,95.8974,585.7536,100.9681,580.6829,103.4757,590.49,102.57" style="stroke:#181818;stroke-width:1.0;"/></g><!--link <b>PROOF_TXS_HISTORY</b> to CF--><g id="link_&lt;b&gt;PROOF_TXS_HISTORY&lt;/b&gt;_CF"><path d="M658.5,22.92 C658.5,39.39 658.5,71.88 658.5,96.64 " fill="none" id="&lt;b&gt;PROOF_TXS_HISTORY&lt;/b&gt;-to-CF" style="stroke:#181818;stroke-width:1.0;"/><polygon fill="#181818" points="658.5,102.64,662.5,93.64,658.5,97.64,654.5,93.64,658.5,102.64" style="stroke:#181818;stroke-width:1.0;"/></g><!--link <b>ROLLUP_TXS</b> to CE--><g id="link_&lt;b&gt;ROLLUP_TXS&lt;/b&gt;_CE"><path d="M985.96,22.92 C974.44,39.39 950.9778,72.9626 933.6678,97.7226 " fill="none" id="&lt;b&gt;ROLLUP_TXS&lt;/b&gt;-to-CE" style="stroke:#181818;stroke-width:1.0;"/><polygon fill="#181818" points="930.23,102.64,938.6651,97.5557,933.0949,98.5421,932.1085,92.9719,930.23,102.64" style="stroke:#181818;stroke-width:1.0;"/></g><!--link <b>ROLLUP_TXS</b> to ZK--><g id="link_&lt;b&gt;ROLLUP_TXS&lt;/b&gt;_ZK"><path d="M1000.2,21.56 C1020.88,37.16 1069.0304,73.4862 1102.8004,98.9662 " fill="none" id="&lt;b&gt;ROLLUP_TXS&lt;/b&gt;-to-ZK" style="stroke:#181818;stroke-width:1.0;"/><polygon fill="#181818" points="1107.59,102.58,1102.8148,93.9662,1103.5987,99.5685,1097.9964,100.3523,1107.59,102.58" style="stroke:#181818;stroke-width:1.0;"/></g><!--link cm_txs_rollup to CE--><g id="link_cm_txs_rollup_CE"><path d="M1128.76,19.31 C1101.14,32.96 1019.75,73.1637 965.47,99.9637 " fill="none" id="cm_txs_rollup-to-CE" style="stroke:#181818;stroke-width:1.0;"/><polygon fill="#181818" points="960.09,102.62,969.9308,102.2222,964.5733,100.4064,966.3891,95.0489,960.09,102.62" style="stroke:#181818;stroke-width:1.0;"/></g><!--link cm_txs_history to CE--><g id="link_cm_txs_history_CE"><path d="M846.75,22.92 C857.67,39.39 879.8539,72.8796 896.2739,97.6396 " fill="none" id="cm_txs_history-to-CE" style="stroke:#181818;stroke-width:1.0;"/><polygon fill="#181818" points="899.59,102.64,897.9495,92.9287,896.8266,98.473,891.2823,97.3502,899.59,102.64" style="stroke:#181818;stroke-width:1.0;"/></g><!--link cm_txs_history to CF--><g id="link_cm_txs_history_CF"><path d="M832.67,20.31 C808.4,34.92 744.7009,73.2663 701.1809,99.4563 " fill="none" id="cm_txs_history-to-CF" style="stroke:#181818;stroke-width:1.0;"/><polygon fill="#181818" points="696.04,102.55,705.8138,101.3366,700.3241,99.9719,701.6888,94.4821,696.04,102.55" style="stroke:#181818;stroke-width:1.0;"/></g><!--link cm_state_vm i to ZK--><g id="link_cm_state_vm i_ZK"><path d="M1273.86,21.56 C1253.32,37.16 1205.5177,73.4704 1171.9777,98.9504 " fill="none" id="cm_state_vm i-to-ZK" style="stroke:#181818;stroke-width:1.0;"/><polygon fill="#181818" points="1167.2,102.58,1176.7862,100.3208,1171.1814,99.5554,1171.9468,93.9505,1167.2,102.58" style="stroke:#181818;stroke-width:1.0;"/></g><!--link cm_state_vm i+1 to ZK--><g id="link_cm_state_vm i+1_ZK"><path d="M1431.76,18.17 C1394.5,31.72 1253.2491,83.0704 1182.1291,108.9204 " fill="none" id="cm_state_vm i+1-to-ZK" style="stroke:#181818;stroke-width:1.0;"/><polygon fill="#181818" points="1176.49,110.97,1186.315,111.6549,1181.1892,109.262,1183.5822,104.1362,1176.49,110.97" style="stroke:#181818;stroke-width:1.0;"/></g><!--link cm_txs_rollup to ZK--><g id="link_cm_txs_rollup_ZK"><path d="M1137.5,22.92 C1137.5,39.39 1137.5,71.88 1137.5,96.64 " fill="none" id="cm_txs_rollup-to-ZK" style="stroke:#181818;stroke-width:1.0;"/><polygon fill="#181818" points="1137.5,102.64,1141.5,93.64,1137.5,97.64,1133.5,93.64,1137.5,102.64" style="stroke:#181818;stroke-width:1.0;"/></g><!--link EspCons to AND--><g id="link_EspCons_AND"><path d="M375.92,145.55 C496.66,169.09 693.9509,207.5517 775.3409,223.4217 " fill="none" id="EspCons-to-AND" style="stroke:#181818;stroke-width:1.0;"/><polygon fill="#181818" points="781.23,224.57,773.1619,218.9215,776.3224,223.6131,771.6308,226.7736,781.23,224.57" style="stroke:#181818;stroke-width:1.0;"/></g><!--link ZK to AND--><g id="link_ZK_AND"><path d="M1098.78,139.73 C1035.91,160.15 918.2861,198.3653 857.6161,218.0853 " fill="none" id="ZK-to-AND" style="stroke:#181818;stroke-width:1.0;"/><polygon fill="#181818" points="851.91,219.94,861.7057,220.962,856.6651,218.3944,859.2327,213.3538,851.91,219.94" style="stroke:#181818;stroke-width:1.0;"/></g><!--link CE to AND--><g id="link_CE_AND"><path d="M893.24,149.78 C876.8,167.27 858.2593,186.9981 841.8293,204.4781 " fill="none" id="CE-to-AND" style="stroke:#181818;stroke-width:1.0;"/><polygon fill="#181818" points="837.72,208.85,846.7986,205.0317,841.1444,205.2067,840.9693,199.5526,837.72,208.85" style="stroke:#181818;stroke-width:1.0;"/></g><!--link CF to AND--><g id="link_CF_AND"><path d="M692.78,149.78 C719.29,167.27 750.7926,188.0645 777.2726,205.5445 " fill="none" id="CF-to-AND" style="stroke:#181818;stroke-width:1.0;"/><polygon fill="#181818" points="782.28,208.85,776.9726,200.5535,778.1072,206.0954,772.5653,207.23,782.28,208.85" style="stroke:#181818;stroke-width:1.0;"/></g><!--link AND to OUTPUT--><g id="link_AND_OUTPUT"><path d="M816.5,256 C816.5,280.8 816.5,313.3 816.5,329.73 " fill="none" id="AND-to-OUTPUT" style="stroke:#181818;stroke-width:1.0;"/><polygon fill="#181818" points="816.5,335.73,820.5,326.73,816.5,330.73,812.5,326.73,816.5,335.73" style="stroke:#181818;stroke-width:1.0;"/></g><!--SRC=[VP3VJuCm4CVVxwzeUF35B6Rl2yc6HHTW9L2CZfW6i8ba7KnQve-_thOY4yryQU- -d-jzhvTZUUYub2tosaRoHlRo4HKIQTa8a7kj4BnIw0BvjL2yizJpDI1HfEjU-lfO2DvK_8jWo9URQnlh6o3_sDr5Djq6K8eTg_QiuQzeDdD74sTHkYbTKipIzKswk2fTPy9N8V42jicY5Kuc0BuxjkB90ZtOBm-jcFPnGeZFw7tARjSf9Sd3oMMeI4WOPh4f-O7mMQH_0zf6lKdMwHNrX_71e3xNKhNTk_E_xeC5KXMAi-CUrMFtgNmv7y5VLpFBi1AaKxFtRM292Jry2lqn17tOX6GqpYZ09m00]--></g></svg>