<?xml version="1.0" encoding="us-ascii" standalone="no"?><svg xmlns="http://www.w3.org/2000/svg" xmlns:xlink="http://www.w3.org/1999/xlink" contentStyleType="text/css" height="383px" preserveAspectRatio="none" style="width:1119px;height:383px;background:#FFFFFF;" version="1.1" viewBox="0 0 1119 383" width="1119px" zoomAndPan="magnify"><defs/><g><!--entity CF--><g id="elem_CF"><rect fill="#F1F1F1" height="46.2969" rx="2.5" ry="2.5" style="stroke:#181818;stroke-width:0.5;" width="140" x="217.5" y="103"/><rect fill="#F1F1F1" height="10" style="stroke:#181818;stroke-width:0.5;" width="15" x="337.5" y="108"/><rect fill="#F1F1F1" height="2" style="stroke:#181818;stroke-width:0.5;" width="4" x="335.5" y="110"/><rect fill="#F1F1F1" height="2" style="stroke:#181818;stroke-width:0.5;" width="4" x="335.5" y="114"/><text fill="#000000" font-family="sans-serif" font-size="14" lengthAdjust="spacing" textLength="100" x="232.5" y="135.9951">Collect &amp; Filter</text></g><!--entity CE--><g id="elem_CE"><rect fill="#F1F1F1" height="46.2969" rx="2.5" ry="2.5" style="stroke:#181818;stroke-width:0.5;" width="180" x="395.5" y="103"/><rect fill="#F1F1F1" height="10" style="stroke:#181818;stroke-width:0.5;" width="15" x="555.5" y="108"/><rect fill="#F1F1F1" height="2" style="stroke:#181818;stroke-width:0.5;" width="4" x="553.5" y="110"/><rect fill="#F1F1F1" height="2" style="stroke:#181818;stroke-width:0.5;" width="4" x="553.5" y="114"/><text fill="#000000" font-family="sans-serif" font-size="14" lengthAdjust="spacing" textLength="140" x="410.5" y="135.9951">COMMs Equivalence</text></g><!--entity AND--><g id="elem_AND"><rect fill="#F1F1F1" height="46.2969" rx="2.5" ry="2.5" style="stroke:#181818;stroke-width:0.5;" width="70" x="450.5" y="209.29"/><rect fill="#F1F1F1" height="10" style="stroke:#181818;stroke-width:0.5;" width="15" x="500.5" y="214.29"/><rect fill="#F1F1F1" height="2" style="stroke:#181818;stroke-width:0.5;" width="4" x="498.5" y="216.29"/><rect fill="#F1F1F1" height="2" style="stroke:#181818;stroke-width:0.5;" width="4" x="498.5" y="220.29"/><text fill="#000000" font-family="sans-serif" font-size="14" lengthAdjust="spacing" textLength="30" x="465.5" y="242.2851">AND</text></g><!--entity ZK--><g id="elem_ZK"><rect fill="#F1F1F1" height="46.2969" rx="2.5" ry="2.5" style="stroke:#181818;stroke-width:0.5;" width="77" x="710" y="103"/><rect fill="#F1F1F1" height="10" style="stroke:#181818;stroke-width:0.5;" width="15" x="767" y="108"/><rect fill="#F1F1F1" height="2" style="stroke:#181818;stroke-width:0.5;" width="4" x="765" y="110"/><rect fill="#F1F1F1" height="2" style="stroke:#181818;stroke-width:0.5;" width="4" x="765" y="114"/><text fill="#000000" font-family="sans-serif" font-size="14" lengthAdjust="spacing" textLength="37" x="725" y="135.9951">zkVM</text></g><!--entity BLOCK_COMM_ESP--><g id="elem_BLOCK_COMM_ESP"><ellipse cx="72.5" cy="14" fill="#F1F1F1" rx="8" ry="8" style="stroke:#181818;stroke-width:0.5;"/><text fill="#000000" font-family="sans-serif" font-size="14" lengthAdjust="spacing" textLength="133" x="6" y="43.9951">BLOCK_COMM_ESP</text></g><!--entity <b>ROLLUP_TXS</b>--><g id="elem_&lt;b&gt;ROLLUP_TXS&lt;/b&gt;"><ellipse cx="485.5" cy="14" fill="#F1F1F1" rx="8" ry="8" style="stroke:#181818;stroke-width:0.5;"/><text fill="#000000" font-family="sans-serif" font-size="14" font-weight="bold" lengthAdjust="spacing" textLength="98" x="436.5" y="43.9951">ROLLUP_TXS</text></g><!--entity COMM_TXS_ROLLUP--><g id="elem_COMM_TXS_ROLLUP"><ellipse cx="655.5" cy="14" fill="#F1F1F1" rx="8" ry="8" style="stroke:#181818;stroke-width:0.5;"/><text fill="#000000" font-family="sans-serif" font-size="14" lengthAdjust="spacing" textLength="140" x="585.5" y="43.9951">COMM_TXS_ROLLUP</text></g><!--entity <b>COMM_TXS_HISTORY_ESP</b>--><g id="elem_&lt;b&gt;COMM_TXS_HISTORY_ESP&lt;/b&gt;"><ellipse cx="287.5" cy="14" fill="#F1F1F1" rx="8" ry="8" style="stroke:#181818;stroke-width:0.5;"/><text fill="#000000" font-family="sans-serif" font-size="14" font-weight="bold" lengthAdjust="spacing" textLength="196" x="189.5" y="43.9951">COMM_TXS_HISTORY_ESP</text></g><!--entity COMM_STATE_VM i--><g id="elem_COMM_STATE_VM i"><ellipse cx="842.5" cy="14" fill="#F1F1F1" rx="8" ry="8" style="stroke:#181818;stroke-width:0.5;"/><text fill="#000000" font-family="sans-serif" font-size="14" lengthAdjust="spacing" textLength="132" x="776.5" y="43.9951">COMM_STATE_VM i</text></g><!--entity COMM_STATE_VM i+1--><g id="elem_COMM_STATE_VM i+1"><ellipse cx="1035.5" cy="14" fill="#F1F1F1" rx="8" ry="8" style="stroke:#181818;stroke-width:0.5;"/><text fill="#000000" font-family="sans-serif" font-size="14" lengthAdjust="spacing" textLength="153" x="959" y="43.9951">COMM_STATE_VM i+1</text></g><!--entity OUTPUT--><g id="elem_OUTPUT"><ellipse cx="485.5" cy="344.59" fill="#F1F1F1" rx="8" ry="8" style="stroke:#181818;stroke-width:0.5;"/><text fill="#000000" font-family="sans-serif" font-size="14" lengthAdjust="spacing" textLength="58" x="456.5" y="374.5851">OUTPUT</text></g><!--link BLOCK_COMM_ESP to CF--><g id="link_BLOCK_COMM_ESP_CF"><path d="M81.46,19.59 C108.64,33.51 186.1002,73.1939 238.0902,99.8339 " fill="none" id="BLOCK_COMM_ESP-to-CF" style="stroke:#181818;stroke-width:1.0;"/><polygon fill="#181818" points="243.43,102.57,237.2444,94.9059,238.9802,100.2899,233.5962,102.0256,243.43,102.57" style="stroke:#181818;stroke-width:1.0;"/></g><!--link <b>ROLLUP_TXS</b> to CE--><g id="link_&lt;b&gt;ROLLUP_TXS&lt;/b&gt;_CE"><path d="M485.5,22.92 C485.5,39.39 485.5,71.88 485.5,96.64 " fill="none" id="&lt;b&gt;ROLLUP_TXS&lt;/b&gt;-to-CE" style="stroke:#181818;stroke-width:1.0;"/><polygon fill="#181818" points="485.5,102.64,489.5,93.64,485.5,97.64,481.5,93.64,485.5,102.64" style="stroke:#181818;stroke-width:1.0;"/></g><!--link COMM_TXS_ROLLUP to CE--><g id="link_COMM_TXS_ROLLUP_CE"><path d="M646.84,20.61 C623.83,35.52 565.2649,73.4566 525.1349,99.4666 " fill="none" id="COMM_TXS_ROLLUP-to-CE" style="stroke:#181818;stroke-width:1.0;"/><polygon fill="#181818" points="520.1,102.73,529.828,101.1916,524.2958,100.0105,525.4768,94.4783,520.1,102.73" style="stroke:#181818;stroke-width:1.0;"/></g><!--link <b>COMM_TXS_HISTORY_ESP</b> to CE--><g id="link_&lt;b&gt;COMM_TXS_HISTORY_ESP&lt;/b&gt;_CE"><path d="M296.26,19.87 C321.78,34.07 392.0068,73.133 439.5668,99.593 " fill="none" id="&lt;b&gt;COMM_TXS_HISTORY_ESP&lt;/b&gt;-to-CE" style="stroke:#181818;stroke-width:1.0;"/><polygon fill="#181818" points="444.81,102.51,438.8899,94.639,440.4407,100.0791,435.0005,101.6299,444.81,102.51" style="stroke:#181818;stroke-width:1.0;"/></g><!--link <b>COMM_TXS_HISTORY_ESP</b> to CF--><g id="link_&lt;b&gt;COMM_TXS_HISTORY_ESP&lt;/b&gt;_CF"><path d="M287.5,22.92 C287.5,39.39 287.5,71.88 287.5,96.64 " fill="none" id="&lt;b&gt;COMM_TXS_HISTORY_ESP&lt;/b&gt;-to-CF" style="stroke:#181818;stroke-width:1.0;"/><polygon fill="#181818" points="287.5,102.64,291.5,93.64,287.5,97.64,283.5,93.64,287.5,102.64" style="stroke:#181818;stroke-width:1.0;"/></g><!--link COMM_STATE_VM i to ZK--><g id="link_COMM_STATE_VM i_ZK"><path d="M835.74,22.92 C821.68,39.39 792.7359,73.3169 771.5959,98.0769 " fill="none" id="COMM_STATE_VM i-to-ZK" style="stroke:#181818;stroke-width:1.0;"/><polygon fill="#181818" points="767.7,102.64,776.586,98.3927,770.9466,98.8374,770.5019,93.1981,767.7,102.64" style="stroke:#181818;stroke-width:1.0;"/></g><!--link COMM_STATE_VM i+1 to ZK--><g id="link_COMM_STATE_VM i+1_ZK"><path d="M1026.6,18.41 C990.64,32.21 860.4717,82.1703 792.8517,108.1203 " fill="none" id="COMM_STATE_VM i+1-to-ZK" style="stroke:#181818;stroke-width:1.0;"/><polygon fill="#181818" points="787.25,110.27,797.0857,110.7799,791.9181,108.4786,794.2194,103.311,787.25,110.27" style="stroke:#181818;stroke-width:1.0;"/></g><!--link COMM_TXS_ROLLUP to ZK--><g id="link_COMM_TXS_ROLLUP_ZK"><path d="M662.19,22.92 C676.1,39.39 704.7187,73.296 725.6287,98.056 " fill="none" id="COMM_TXS_ROLLUP-to-ZK" style="stroke:#181818;stroke-width:1.0;"/><polygon fill="#181818" points="729.5,102.64,726.7491,93.1831,726.274,98.82,720.6371,98.3448,729.5,102.64" style="stroke:#181818;stroke-width:1.0;"/></g><!--link ZK to AND--><g id="link_ZK_AND"><path d="M709.69,142.53 C658.68,162.76 575.3876,195.7985 526.2576,215.2785 " fill="none" id="ZK-to-AND" style="stroke:#181818;stroke-width:1.0;"/><polygon fill="#181818" points="520.68,217.49,530.5207,217.8911,525.328,215.6471,527.572,210.4544,520.68,217.49" style="stroke:#181818;stroke-width:1.0;"/></g><!--link CE to AND--><g id="link_CE_AND"><path d="M485.5,149.78 C485.5,167.27 485.5,185.37 485.5,202.85 " fill="none" id="CE-to-AND" style="stroke:#181818;stroke-width:1.0;"/><polygon fill="#181818" points="485.5,208.85,489.5,199.85,485.5,203.85,481.5,199.85,485.5,208.85" style="stroke:#181818;stroke-width:1.0;"/></g><!--link CF to AND--><g id="link_CF_AND"><path d="M330.46,149.78 C366.29,168.65 411.4117,192.4132 444.9117,210.0632 " fill="none" id="CF-to-AND" style="stroke:#181818;stroke-width:1.0;"/><polygon fill="#181818" points="450.22,212.86,444.1221,205.126,445.7964,210.5294,440.393,212.2037,450.22,212.86" style="stroke:#181818;stroke-width:1.0;"/></g><!--link AND to OUTPUT--><g id="link_AND_OUTPUT"><path d="M485.5,256 C485.5,280.8 485.5,313.3 485.5,329.73 " fill="none" id="AND-to-OUTPUT" style="stroke:#181818;stroke-width:1.0;"/><polygon fill="#181818" points="485.5,335.73,489.5,326.73,485.5,330.73,481.5,326.73,485.5,335.73" style="stroke:#181818;stroke-width:1.0;"/></g><!--SRC=[ZO_12u8m5CRlxwyO7hg4H7SHR4qAjOcRKOuOAZj8KfJMeRy-jv5HTEYoVU_zlk_ndi3djbLrZoOeRDfUNG-ex10EGM2Q91qYbrjpBrjrgfKb14ImMHez_03YSTmcfYmYW4LCSIHrL1AM8jVrzIp7g_oCnd6UIhvZtgpo7Oi8WF4ENMaDhxwEZ6YrPfncUpto8_o7AGHmZ8NnW1EvJL1ZoR3jDvZEH_HhAtqV597H-dHCtZ8S9GoFAMZEqvm3F040]--></g></svg>