<?xml version="1.0" encoding="us-ascii" standalone="no"?><svg xmlns="http://www.w3.org/2000/svg" xmlns:xlink="http://www.w3.org/1999/xlink" contentStyleType="text/css" height="383px" preserveAspectRatio="none" style="width:2007px;height:383px;background:#FFFFFF;" version="1.1" viewBox="0 0 2007 383" width="2007px" zoomAndPan="magnify"><defs/><g><!--entity EspCons--><g id="elem_EspCons"><rect fill="#F1F1F1" height="46.2969" rx="2.5" ry="2.5" style="stroke:#181818;stroke-width:0.5;" width="188" x="271.5" y="103"/><rect fill="#F1F1F1" height="10" style="stroke:#181818;stroke-width:0.5;" width="15" x="439.5" y="108"/><rect fill="#F1F1F1" height="2" style="stroke:#181818;stroke-width:0.5;" width="4" x="437.5" y="110"/><rect fill="#F1F1F1" height="2" style="stroke:#181818;stroke-width:0.5;" width="4" x="437.5" y="114"/><text fill="#000000" font-family="sans-serif" font-size="14" lengthAdjust="spacing" textLength="148" x="286.5" y="135.9951">Espresso Consensus</text></g><!--entity CF--><g id="elem_CF"><rect fill="#F1F1F1" height="46.2969" rx="2.5" ry="2.5" style="stroke:#181818;stroke-width:0.5;" width="140" x="856.5" y="103"/><rect fill="#F1F1F1" height="10" style="stroke:#181818;stroke-width:0.5;" width="15" x="976.5" y="108"/><rect fill="#F1F1F1" height="2" style="stroke:#181818;stroke-width:0.5;" width="4" x="974.5" y="110"/><rect fill="#F1F1F1" height="2" style="stroke:#181818;stroke-width:0.5;" width="4" x="974.5" y="114"/><text fill="#000000" font-family="sans-serif" font-size="14" lengthAdjust="spacing" textLength="100" x="871.5" y="135.9951">Collect &amp; Filter</text></g><!--entity CE--><g id="elem_CE"><rect fill="#F1F1F1" height="46.2969" rx="2.5" ry="2.5" style="stroke:#181818;stroke-width:0.5;" width="180" x="1184.5" y="103"/><rect fill="#F1F1F1" height="10" style="stroke:#181818;stroke-width:0.5;" width="15" x="1344.5" y="108"/><rect fill="#F1F1F1" height="2" style="stroke:#181818;stroke-width:0.5;" width="4" x="1342.5" y="110"/><rect fill="#F1F1F1" height="2" style="stroke:#181818;stroke-width:0.5;" width="4" x="1342.5" y="114"/><text fill="#000000" font-family="sans-serif" font-size="14" lengthAdjust="spacing" textLength="140" x="1199.5" y="135.9951">COMMs Equivalence</text></g><!--entity AND--><g id="elem_AND"><rect fill="#F1F1F1" height="46.2969" rx="2.5" ry="2.5" style="stroke:#181818;stroke-width:0.5;" width="70" x="1015.5" y="209.29"/><rect fill="#F1F1F1" height="10" style="stroke:#181818;stroke-width:0.5;" width="15" x="1065.5" y="214.29"/><rect fill="#F1F1F1" height="2" style="stroke:#181818;stroke-width:0.5;" width="4" x="1063.5" y="216.29"/><rect fill="#F1F1F1" height="2" style="stroke:#181818;stroke-width:0.5;" width="4" x="1063.5" y="220.29"/><text fill="#000000" font-family="sans-serif" font-size="14" lengthAdjust="spacing" textLength="30" x="1030.5" y="242.2851">AND</text></g><!--entity ZK--><g id="elem_ZK"><rect fill="#F1F1F1" height="46.2969" rx="2.5" ry="2.5" style="stroke:#181818;stroke-width:0.5;" width="77" x="1505" y="103"/><rect fill="#F1F1F1" height="10" style="stroke:#181818;stroke-width:0.5;" width="15" x="1562" y="108"/><rect fill="#F1F1F1" height="2" style="stroke:#181818;stroke-width:0.5;" width="4" x="1560" y="110"/><rect fill="#F1F1F1" height="2" style="stroke:#181818;stroke-width:0.5;" width="4" x="1560" y="114"/><text fill="#000000" font-family="sans-serif" font-size="14" lengthAdjust="spacing" textLength="37" x="1520" y="135.9951">zkVM</text></g><!--entity BLOCK_COMM_ESP_NEW--><g id="elem_BLOCK_COMM_ESP_NEW"><ellipse cx="470.5" cy="14" fill="#F1F1F1" rx="8" ry="8" style="stroke:#181818;stroke-width:0.5;"/><text fill="#000000" font-family="sans-serif" font-size="14" lengthAdjust="spacing" textLength="172" x="384.5" y="43.9951">BLOCK_COMM_ESP_NEW</text></g><!--entity <b>STATE_SIGS_ESP</b>--><g id="elem_&lt;b&gt;STATE_SIGS_ESP&lt;/b&gt;"><ellipse cx="70.5" cy="14" fill="#F1F1F1" rx="8" ry="8" style="stroke:#181818;stroke-width:0.5;"/><text fill="#000000" font-family="sans-serif" font-size="14" font-weight="bold" lengthAdjust="spacing" textLength="129" x="6" y="43.9951">STATE_SIGS_ESP</text></g><!--entity BLOCK_NUMBER_ESP--><g id="elem_BLOCK_NUMBER_ESP"><ellipse cx="259.5" cy="14" fill="#F1F1F1" rx="8" ry="8" style="stroke:#181818;stroke-width:0.5;"/><text fill="#000000" font-family="sans-serif" font-size="14" lengthAdjust="spacing" textLength="149" x="185" y="43.9951">BLOCK_NUMBER_ESP</text></g><!--entity BLOCK_COMM_ESP_OLD--><g id="elem_BLOCK_COMM_ESP_OLD"><ellipse cx="691.5" cy="14" fill="#F1F1F1" rx="8" ry="8" style="stroke:#181818;stroke-width:0.5;"/><text fill="#000000" font-family="sans-serif" font-size="14" lengthAdjust="spacing" textLength="169" x="607" y="43.9951">BLOCK_COMM_ESP_OLD</text></g><!--entity <b>PROOF_TXS_HISTORY_ESP</b>--><g id="elem_&lt;b&gt;PROOF_TXS_HISTORY_ESP&lt;/b&gt;"><ellipse cx="926.5" cy="14" fill="#F1F1F1" rx="8" ry="8" style="stroke:#181818;stroke-width:0.5;"/><text fill="#000000" font-family="sans-serif" font-size="14" font-weight="bold" lengthAdjust="spacing" textLength="200" x="826.5" y="43.9951">PROOF_TXS_HISTORY_ESP</text></g><!--entity <b>ROLLUP_TXS</b>--><g id="elem_&lt;b&gt;ROLLUP_TXS&lt;/b&gt;"><ellipse cx="1373.5" cy="14" fill="#F1F1F1" rx="8" ry="8" style="stroke:#181818;stroke-width:0.5;"/><text fill="#000000" font-family="sans-serif" font-size="14" font-weight="bold" lengthAdjust="spacing" textLength="98" x="1324.5" y="43.9951">ROLLUP_TXS</text></g><!--entity COMM_TXS_ROLLUP--><g id="elem_COMM_TXS_ROLLUP"><ellipse cx="1543.5" cy="14" fill="#F1F1F1" rx="8" ry="8" style="stroke:#181818;stroke-width:0.5;"/><text fill="#000000" font-family="sans-serif" font-size="14" lengthAdjust="spacing" textLength="140" x="1473.5" y="43.9951">COMM_TXS_ROLLUP</text></g><!--entity <b>COMM_TXS_HISTORY_ESP</b>--><g id="elem_&lt;b&gt;COMM_TXS_HISTORY_ESP&lt;/b&gt;"><ellipse cx="1175.5" cy="14" fill="#F1F1F1" rx="8" ry="8" style="stroke:#181818;stroke-width:0.5;"/><text fill="#000000" font-family="sans-serif" font-size="14" font-weight="bold" lengthAdjust="spacing" textLength="196" x="1077.5" y="43.9951">COMM_TXS_HISTORY_ESP</text></g><!--entity COMM_STATE_VM i--><g id="elem_COMM_STATE_VM i"><ellipse cx="1730.5" cy="14" fill="#F1F1F1" rx="8" ry="8" style="stroke:#181818;stroke-width:0.5;"/><text fill="#000000" font-family="sans-serif" font-size="14" lengthAdjust="spacing" textLength="132" x="1664.5" y="43.9951">COMM_STATE_VM i</text></g><!--entity COMM_STATE_VM i+1--><g id="elem_COMM_STATE_VM i+1"><ellipse cx="1923.5" cy="14" fill="#F1F1F1" rx="8" ry="8" style="stroke:#181818;stroke-width:0.5;"/><text fill="#000000" font-family="sans-serif" font-size="14" lengthAdjust="spacing" textLength="153" x="1847" y="43.9951">COMM_STATE_VM i+1</text></g><!--entity OUTPUT--><g id="elem_OUTPUT"><ellipse cx="1050.5" cy="344.59" fill="#F1F1F1" rx="8" ry="8" style="stroke:#181818;stroke-width:0.5;"/><text fill="#000000" font-family="sans-serif" font-size="14" lengthAdjust="spacing" textLength="58" x="1021.5" y="374.5851">OUTPUT</text></g><!--link BLOCK_COMM_ESP_NEW to EspCons--><g id="link_BLOCK_COMM_ESP_NEW_EspCons"><path d="M462.95,22.92 C447.24,39.39 414.7006,73.5377 391.0906,98.2977 " fill="none" id="BLOCK_COMM_ESP_NEW-to-EspCons" style="stroke:#181818;stroke-width:1.0;"/><polygon fill="#181818" points="386.95,102.64,396.0558,98.887,390.4005,99.0214,390.266,93.3662,386.95,102.64" style="stroke:#181818;stroke-width:1.0;"/></g><!--link <b>STATE_SIGS_ESP</b> to EspCons--><g id="link_&lt;b&gt;STATE_SIGS_ESP&lt;/b&gt;_EspCons"><path d="M79.33,18.29 C112.45,30.66 225.5591,72.8909 299.2791,100.4209 " fill="none" id="&lt;b&gt;STATE_SIGS_ESP&lt;/b&gt;-to-EspCons" style="stroke:#181818;stroke-width:1.0;"/><polygon fill="#181818" points="304.9,102.52,297.8681,95.6242,300.216,100.7708,295.0694,103.1187,304.9,102.52" style="stroke:#181818;stroke-width:1.0;"/></g><!--link BLOCK_NUMBER_ESP to EspCons--><g id="link_BLOCK_NUMBER_ESP_EspCons"><path d="M267.12,22.92 C282.98,39.39 315.8484,73.5578 339.6884,98.3178 " fill="none" id="BLOCK_NUMBER_ESP-to-EspCons" style="stroke:#181818;stroke-width:1.0;"/><polygon fill="#181818" points="343.85,102.64,340.4891,93.3823,340.382,99.0382,334.7262,98.9311,343.85,102.64" style="stroke:#181818;stroke-width:1.0;"/></g><!--link BLOCK_COMM_ESP_OLD to CF--><g id="link_BLOCK_COMM_ESP_OLD_CF"><path d="M700.43,19.18 C729.18,32.66 815.4374,73.0831 872.8374,99.9931 " fill="none" id="BLOCK_COMM_ESP_OLD-to-CF" style="stroke:#181818;stroke-width:1.0;"/><polygon fill="#181818" points="878.27,102.54,871.819,95.0979,873.7428,100.4176,868.4231,102.3414,878.27,102.54" style="stroke:#181818;stroke-width:1.0;"/></g><!--link BLOCK_COMM_ESP_NEW to CF--><g id="link_BLOCK_COMM_ESP_NEW_CF"><path d="M479.41,17.29 C498.24,22.12 543.47,33.67 581.5,43 C676.43,66.27 780.449,90.8979 850.219,107.2879 " fill="none" id="BLOCK_COMM_ESP_NEW-to-CF" style="stroke:#181818;stroke-width:1.0;"/><polygon fill="#181818" points="856.06,108.66,848.2133,102.7078,851.1925,107.5166,846.3837,110.4958,856.06,108.66" style="stroke:#181818;stroke-width:1.0;"/></g><!--link <b>PROOF_TXS_HISTORY_ESP</b> to CF--><g id="link_&lt;b&gt;PROOF_TXS_HISTORY_ESP&lt;/b&gt;_CF"><path d="M926.5,22.92 C926.5,39.39 926.5,71.88 926.5,96.64 " fill="none" id="&lt;b&gt;PROOF_TXS_HISTORY_ESP&lt;/b&gt;-to-CF" style="stroke:#181818;stroke-width:1.0;"/><polygon fill="#181818" points="926.5,102.64,930.5,93.64,926.5,97.64,922.5,93.64,926.5,102.64" style="stroke:#181818;stroke-width:1.0;"/></g><!--link <b>ROLLUP_TXS</b> to CE--><g id="link_&lt;b&gt;ROLLUP_TXS&lt;/b&gt;_CE"><path d="M1366.38,22.92 C1351.57,39.39 1320.9914,73.4181 1298.7314,98.1781 " fill="none" id="&lt;b&gt;ROLLUP_TXS&lt;/b&gt;-to-CE" style="stroke:#181818;stroke-width:1.0;"/><polygon fill="#181818" points="1294.72,102.64,1303.7117,98.6214,1298.0628,98.9217,1297.7625,93.2729,1294.72,102.64" style="stroke:#181818;stroke-width:1.0;"/></g><!--link <b>ROLLUP_TXS</b> to ZK--><g id="link_&lt;b&gt;ROLLUP_TXS&lt;/b&gt;_ZK"><path d="M1382.16,20.61 C1405.17,35.52 1463.7351,73.4566 1503.8651,99.4666 " fill="none" id="&lt;b&gt;ROLLUP_TXS&lt;/b&gt;-to-ZK" style="stroke:#181818;stroke-width:1.0;"/><polygon fill="#181818" points="1508.9,102.73,1503.5232,94.4783,1504.7042,100.0105,1499.172,101.1916,1508.9,102.73" style="stroke:#181818;stroke-width:1.0;"/></g><!--link COMM_TXS_ROLLUP to CE--><g id="link_COMM_TXS_ROLLUP_CE"><path d="M1534.55,18.66 C1503.14,31.52 1401.8225,73.0063 1335.2525,100.2663 " fill="none" id="COMM_TXS_ROLLUP-to-CE" style="stroke:#181818;stroke-width:1.0;"/><polygon fill="#181818" points="1329.7,102.54,1339.5446,102.8311,1334.3271,100.6452,1336.5129,95.4278,1329.7,102.54" style="stroke:#181818;stroke-width:1.0;"/></g><!--link <b>COMM_TXS_HISTORY_ESP</b> to CE--><g id="link_&lt;b&gt;COMM_TXS_HISTORY_ESP&lt;/b&gt;_CE"><path d="M1182.62,22.92 C1197.43,39.39 1228.0086,73.4181 1250.2686,98.1781 " fill="none" id="&lt;b&gt;COMM_TXS_HISTORY_ESP&lt;/b&gt;-to-CE" style="stroke:#181818;stroke-width:1.0;"/><polygon fill="#181818" points="1254.28,102.64,1251.2375,93.2729,1250.9372,98.9217,1245.2883,98.6214,1254.28,102.64" style="stroke:#181818;stroke-width:1.0;"/></g><!--link <b>COMM_TXS_HISTORY_ESP</b> to CF--><g id="link_&lt;b&gt;COMM_TXS_HISTORY_ESP&lt;/b&gt;_CF"><path d="M1166.64,18.92 C1136.84,32.1 1044.167,73.0925 982.957,100.1725 " fill="none" id="&lt;b&gt;COMM_TXS_HISTORY_ESP&lt;/b&gt;-to-CF" style="stroke:#181818;stroke-width:1.0;"/><polygon fill="#181818" points="977.47,102.6,987.3188,102.6167,982.0425,100.5771,984.0822,95.3007,977.47,102.6" style="stroke:#181818;stroke-width:1.0;"/></g><!--link COMM_STATE_VM i to ZK--><g id="link_COMM_STATE_VM i_ZK"><path d="M1721.98,20.02 C1697.61,34.37 1631.7099,73.1849 1586.9399,99.5549 " fill="none" id="COMM_STATE_VM i-to-ZK" style="stroke:#181818;stroke-width:1.0;"/><polygon fill="#181818" points="1581.77,102.6,1591.5548,101.4789,1586.0782,100.0624,1587.4947,94.5858,1581.77,102.6" style="stroke:#181818;stroke-width:1.0;"/></g><!--link COMM_STATE_VM i+1 to ZK--><g id="link_COMM_STATE_VM i+1_ZK"><path d="M1914.85,17.5 C1870.6,30.33 1674.1227,87.2793 1588.1327,112.2093 " fill="none" id="COMM_STATE_VM i+1-to-ZK" style="stroke:#181818;stroke-width:1.0;"/><polygon fill="#181818" points="1582.37,113.88,1592.1279,115.2157,1587.1723,112.4877,1589.9002,107.5321,1582.37,113.88" style="stroke:#181818;stroke-width:1.0;"/></g><!--link COMM_TXS_ROLLUP to ZK--><g id="link_COMM_TXS_ROLLUP_ZK"><path d="M1543.5,22.92 C1543.5,39.39 1543.5,71.88 1543.5,96.64 " fill="none" id="COMM_TXS_ROLLUP-to-ZK" style="stroke:#181818;stroke-width:1.0;"/><polygon fill="#181818" points="1543.5,102.64,1547.5,93.64,1543.5,97.64,1539.5,93.64,1543.5,102.64" style="stroke:#181818;stroke-width:1.0;"/></g><!--link EspCons to AND--><g id="link_EspCons_AND"><path d="M459.67,141.48 C613.69,164.93 906.6684,209.5367 1009.1084,225.1367 " fill="none" id="EspCons-to-AND" style="stroke:#181818;stroke-width:1.0;"/><polygon fill="#181818" points="1015.04,226.04,1006.7448,220.7307,1010.097,225.2873,1005.5404,228.6395,1015.04,226.04" style="stroke:#181818;stroke-width:1.0;"/></g><!--link ZK to AND--><g id="link_ZK_AND"><path d="M1504.82,135.33 C1411.63,155.04 1181.7001,203.6884 1091.8701,222.6884 " fill="none" id="ZK-to-AND" style="stroke:#181818;stroke-width:1.0;"/><polygon fill="#181818" points="1086,223.93,1095.6329,225.981,1090.8918,222.8953,1093.9775,218.1542,1086,223.93" style="stroke:#181818;stroke-width:1.0;"/></g><!--link CE to AND--><g id="link_CE_AND"><path d="M1225.9,149.78 C1183.69,169.43 1129.0199,194.8888 1091.2599,212.4588 " fill="none" id="CE-to-AND" style="stroke:#181818;stroke-width:1.0;"/><polygon fill="#181818" points="1085.82,214.99,1095.6674,214.8198,1090.3533,212.8806,1092.2924,207.5665,1085.82,214.99" style="stroke:#181818;stroke-width:1.0;"/></g><!--link CF to AND--><g id="link_CF_AND"><path d="M953.41,149.78 C974.21,167.27 998.2676,187.5087 1019.0576,204.9887 " fill="none" id="CF-to-AND" style="stroke:#181818;stroke-width:1.0;"/><polygon fill="#181818" points="1023.65,208.85,1019.3355,199.9965,1019.823,205.6323,1014.1871,206.1197,1023.65,208.85" style="stroke:#181818;stroke-width:1.0;"/></g><!--link AND to OUTPUT--><g id="link_AND_OUTPUT"><path d="M1050.5,256 C1050.5,280.8 1050.5,313.3 1050.5,329.73 " fill="none" id="AND-to-OUTPUT" style="stroke:#181818;stroke-width:1.0;"/><polygon fill="#181818" points="1050.5,335.73,1054.5,326.73,1050.5,330.73,1046.5,326.73,1050.5,335.73" style="stroke:#181818;stroke-width:1.0;"/></g><!--SRC=[ZP51Ru8m5CVlxrCq77PPpBAx8L5iDmEbX1QtIPP6JGza13QhE-pJhw-OJemcky1x_VtQ_wFKr7xkZRKzIVhEciuUxJlPMEAMSG7gf6zRipkGEyAQzc3sdYRC0S6vyxwEpVUcDTtE38H2FSiNldPlWFhdOyLzkqvXdeaarRXJKrdedBwGoIGEOT5q6qirKrJBvPD4PVgmZQEHCnoHLtnEIpH642uJHBRmWXluHhOZ65kKGZ2jNgL-NaebohTn-iagHPPL1MfdYDv4xel11-AvWt2-9Q3haV-I643abU7ULfmq8ViIt3y6T6qgdFPqaSIr-FVMgITO9lIlPA44z_2Dg5HHAO1V]--></g></svg>