<?xml version="1.0" encoding="us-ascii" standalone="no"?><svg xmlns="http://www.w3.org/2000/svg" xmlns:xlink="http://www.w3.org/1999/xlink" contentStyleType="text/css" height="276px" preserveAspectRatio="none" style="width:688px;height:276px;background:#FFFFFF;" version="1.1" viewBox="0 0 688 276" width="688px" zoomAndPan="magnify"><defs/><g><!--entity ZK--><g id="elem_ZK"><rect fill="#F1F1F1" height="46.2969" rx="2.5" ry="2.5" style="stroke:#181818;stroke-width:0.5;" width="77" x="324.5" y="103"/><rect fill="#F1F1F1" height="10" style="stroke:#181818;stroke-width:0.5;" width="15" x="381.5" y="108"/><rect fill="#F1F1F1" height="2" style="stroke:#181818;stroke-width:0.5;" width="4" x="379.5" y="110"/><rect fill="#F1F1F1" height="2" style="stroke:#181818;stroke-width:0.5;" width="4" x="379.5" y="114"/><text fill="#000000" font-family="sans-serif" font-size="14" lengthAdjust="spacing" textLength="37" x="339.5" y="135.9951">zkVM</text></g><!--entity COMM_STATE_VM i--><g id="elem_COMM_STATE_VM i"><ellipse cx="72" cy="14" fill="#F1F1F1" rx="8" ry="8" style="stroke:#181818;stroke-width:0.5;"/><text fill="#000000" font-family="sans-serif" font-size="14" lengthAdjust="spacing" textLength="132" x="6" y="43.9951">COMM_STATE_VM i</text></g><!--entity COMM_STATE_VM i+1--><g id="elem_COMM_STATE_VM i+1"><ellipse cx="265" cy="14" fill="#F1F1F1" rx="8" ry="8" style="stroke:#181818;stroke-width:0.5;"/><text fill="#000000" font-family="sans-serif" font-size="14" lengthAdjust="spacing" textLength="153" x="188.5" y="43.9951">COMM_STATE_VM i+1</text></g><!--entity COMM_TXS_ROLLUP--><g id="elem_COMM_TXS_ROLLUP"><ellipse cx="462" cy="14" fill="#F1F1F1" rx="8" ry="8" style="stroke:#181818;stroke-width:0.5;"/><text fill="#000000" font-family="sans-serif" font-size="14" lengthAdjust="spacing" textLength="140" x="392" y="43.9951">COMM_TXS_ROLLUP</text></g><!--entity <b>ROLLUP_TXS</b>--><g id="elem_&lt;b&gt;ROLLUP_TXS&lt;/b&gt;"><ellipse cx="632" cy="14" fill="#F1F1F1" rx="8" ry="8" style="stroke:#181818;stroke-width:0.5;"/><text fill="#000000" font-family="sans-serif" font-size="14" font-weight="bold" lengthAdjust="spacing" textLength="98" x="583" y="43.9951">ROLLUP_TXS</text></g><!--entity OUTPUT--><g id="elem_OUTPUT"><ellipse cx="363" cy="238.3" fill="#F1F1F1" rx="8" ry="8" style="stroke:#181818;stroke-width:0.5;"/><text fill="#000000" font-family="sans-serif" font-size="14" lengthAdjust="spacing" textLength="58" x="334" y="268.2951">OUTPUT</text></g><!--link COMM_STATE_VM i to ZK--><g id="link_COMM_STATE_VM i_ZK"><path d="M80.71,18.3 C116.74,31.94 249.8483,82.3265 318.4783,108.2965 " fill="none" id="COMM_STATE_VM i-to-ZK" style="stroke:#181818;stroke-width:1.0;"/><polygon fill="#181818" points="324.09,110.42,317.0882,103.4937,319.4136,108.6504,314.2568,110.9759,324.09,110.42" style="stroke:#181818;stroke-width:1.0;"/></g><!--link COMM_STATE_VM i+1 to ZK--><g id="link_COMM_STATE_VM i+1_ZK"><path d="M272.05,22.92 C286.71,39.4 316.9626,73.3966 338.9926,98.1666 " fill="none" id="COMM_STATE_VM i+1-to-ZK" style="stroke:#181818;stroke-width:1.0;"/><polygon fill="#181818" points="342.98,102.65,339.9878,93.2667,339.6572,98.9139,334.01,98.5832,342.98,102.65" style="stroke:#181818;stroke-width:1.0;"/></g><!--link COMM_TXS_ROLLUP to ZK--><g id="link_COMM_TXS_ROLLUP_ZK"><path d="M454.88,22.92 C440.07,39.4 409.4905,73.4173 387.2305,98.1873 " fill="none" id="COMM_TXS_ROLLUP-to-ZK" style="stroke:#181818;stroke-width:1.0;"/><polygon fill="#181818" points="383.22,102.65,392.2109,98.6296,386.5621,98.9311,386.2606,93.2823,383.22,102.65" style="stroke:#181818;stroke-width:1.0;"/></g><!--link <b>ROLLUP_TXS</b> to ZK--><g id="link_&lt;b&gt;ROLLUP_TXS&lt;/b&gt;_ZK"><path d="M623.05,18.67 C588.91,32.65 471.1326,80.8765 407.3626,106.9865 " fill="none" id="&lt;b&gt;ROLLUP_TXS&lt;/b&gt;-to-ZK" style="stroke:#181818;stroke-width:1.0;"/><polygon fill="#181818" points="401.81,109.26,411.6545,109.5515,406.4372,107.3655,408.6233,102.1481,401.81,109.26" style="stroke:#181818;stroke-width:1.0;"/></g><!--link ZK to OUTPUT--><g id="link_ZK_OUTPUT"><path d="M363,149.71 C363,174.51 363,207.01 363,223.44 " fill="none" id="ZK-to-OUTPUT" style="stroke:#181818;stroke-width:1.0;"/><polygon fill="#181818" points="363,229.44,367,220.44,363,224.44,359,220.44,363,229.44" style="stroke:#181818;stroke-width:1.0;"/></g><!--SRC=[YwxA3lEDLKWiLeZovk9ISlRtzOqF3d4CSOqFyrN8L5BGrRK3oQ1BQ1l2fS0o8H71yK7-FZwX0N0TDabs416Gf8r-aXrSHvGtcEKV6X8G6iB51G00]--></g></svg>