<?xml version="1.0" encoding="us-ascii" standalone="no"?><svg xmlns="http://www.w3.org/2000/svg" xmlns:xlink="http://www.w3.org/1999/xlink" contentStyleType="text/css" height="383px" preserveAspectRatio="none" style="width:1413px;height:383px;background:#FFFFFF;" version="1.1" viewBox="0 0 1413 383" width="1413px" zoomAndPan="magnify"><defs/><g><!--entity EspCons--><g id="elem_EspCons"><rect fill="#F1F1F1" height="46.2969" rx="2.5" ry="2.5" style="stroke:#181818;stroke-width:0.5;" width="188" x="228.5" y="103"/><rect fill="#F1F1F1" height="10" style="stroke:#181818;stroke-width:0.5;" width="15" x="396.5" y="108"/><rect fill="#F1F1F1" height="2" style="stroke:#181818;stroke-width:0.5;" width="4" x="394.5" y="110"/><rect fill="#F1F1F1" height="2" style="stroke:#181818;stroke-width:0.5;" width="4" x="394.5" y="114"/><text fill="#000000" font-family="sans-serif" font-size="14" lengthAdjust="spacing" textLength="148" x="243.5" y="135.9951">Espresso Consensus</text></g><!--entity CF--><g id="elem_CF"><rect fill="#F1F1F1" height="46.2969" rx="2.5" ry="2.5" style="stroke:#181818;stroke-width:0.5;" width="140" x="514.5" y="103"/><rect fill="#F1F1F1" height="10" style="stroke:#181818;stroke-width:0.5;" width="15" x="634.5" y="108"/><rect fill="#F1F1F1" height="2" style="stroke:#181818;stroke-width:0.5;" width="4" x="632.5" y="110"/><rect fill="#F1F1F1" height="2" style="stroke:#181818;stroke-width:0.5;" width="4" x="632.5" y="114"/><text fill="#000000" font-family="sans-serif" font-size="14" lengthAdjust="spacing" textLength="100" x="529.5" y="135.9951">Collect &amp; Filter</text></g><!--entity CE--><g id="elem_CE"><rect fill="#F1F1F1" height="46.2969" rx="2.5" ry="2.5" style="stroke:#181818;stroke-width:0.5;" width="180" x="689.5" y="103"/><rect fill="#F1F1F1" height="10" style="stroke:#181818;stroke-width:0.5;" width="15" x="849.5" y="108"/><rect fill="#F1F1F1" height="2" style="stroke:#181818;stroke-width:0.5;" width="4" x="847.5" y="110"/><rect fill="#F1F1F1" height="2" style="stroke:#181818;stroke-width:0.5;" width="4" x="847.5" y="114"/><text fill="#000000" font-family="sans-serif" font-size="14" lengthAdjust="spacing" textLength="140" x="704.5" y="135.9951">COMMs Equivalence</text></g><!--entity AND--><g id="elem_AND"><rect fill="#F1F1F1" height="46.2969" rx="2.5" ry="2.5" style="stroke:#181818;stroke-width:0.5;" width="70" x="646.5" y="209.29"/><rect fill="#F1F1F1" height="10" style="stroke:#181818;stroke-width:0.5;" width="15" x="696.5" y="214.29"/><rect fill="#F1F1F1" height="2" style="stroke:#181818;stroke-width:0.5;" width="4" x="694.5" y="216.29"/><rect fill="#F1F1F1" height="2" style="stroke:#181818;stroke-width:0.5;" width="4" x="694.5" y="220.29"/><text fill="#000000" font-family="sans-serif" font-size="14" lengthAdjust="spacing" textLength="30" x="661.5" y="242.2851">AND</text></g><!--entity ZK--><g id="elem_ZK"><rect fill="#F1F1F1" height="46.2969" rx="2.5" ry="2.5" style="stroke:#181818;stroke-width:0.5;" width="77" x="1004" y="103"/><rect fill="#F1F1F1" height="10" style="stroke:#181818;stroke-width:0.5;" width="15" x="1061" y="108"/><rect fill="#F1F1F1" height="2" style="stroke:#181818;stroke-width:0.5;" width="4" x="1059" y="110"/><rect fill="#F1F1F1" height="2" style="stroke:#181818;stroke-width:0.5;" width="4" x="1059" y="114"/><text fill="#000000" font-family="sans-serif" font-size="14" lengthAdjust="spacing" textLength="37" x="1019" y="135.9951">zkVM</text></g><!--entity BLOCK_COMM_ESP--><g id="elem_BLOCK_COMM_ESP"><ellipse cx="450.5" cy="14" fill="#F1F1F1" rx="8" ry="8" style="stroke:#181818;stroke-width:0.5;"/><text fill="#000000" font-family="sans-serif" font-size="14" lengthAdjust="spacing" textLength="133" x="384" y="43.9951">BLOCK_COMM_ESP</text></g><!--entity <b>STATE_SIGS_ESP</b>--><g id="elem_&lt;b&gt;STATE_SIGS_ESP&lt;/b&gt;"><ellipse cx="70.5" cy="14" fill="#F1F1F1" rx="8" ry="8" style="stroke:#181818;stroke-width:0.5;"/><text fill="#000000" font-family="sans-serif" font-size="14" font-weight="bold" lengthAdjust="spacing" textLength="129" x="6" y="43.9951">STATE_SIGS_ESP</text></g><!--entity BLOCK_NUMBER_ESP--><g id="elem_BLOCK_NUMBER_ESP"><ellipse cx="259.5" cy="14" fill="#F1F1F1" rx="8" ry="8" style="stroke:#181818;stroke-width:0.5;"/><text fill="#000000" font-family="sans-serif" font-size="14" lengthAdjust="spacing" textLength="149" x="185" y="43.9951">BLOCK_NUMBER_ESP</text></g><!--entity <b>ROLLUP_TXS</b>--><g id="elem_&lt;b&gt;ROLLUP_TXS&lt;/b&gt;"><ellipse cx="779.5" cy="14" fill="#F1F1F1" rx="8" ry="8" style="stroke:#181818;stroke-width:0.5;"/><text fill="#000000" font-family="sans-serif" font-size="14" font-weight="bold" lengthAdjust="spacing" textLength="98" x="730.5" y="43.9951">ROLLUP_TXS</text></g><!--entity COMM_TXS_ROLLUP--><g id="elem_COMM_TXS_ROLLUP"><ellipse cx="949.5" cy="14" fill="#F1F1F1" rx="8" ry="8" style="stroke:#181818;stroke-width:0.5;"/><text fill="#000000" font-family="sans-serif" font-size="14" lengthAdjust="spacing" textLength="140" x="879.5" y="43.9951">COMM_TXS_ROLLUP</text></g><!--entity COMM_TXS_ESP--><g id="elem_COMM_TXS_ESP"><ellipse cx="623.5" cy="14" fill="#F1F1F1" rx="8" ry="8" style="stroke:#181818;stroke-width:0.5;"/><text fill="#000000" font-family="sans-serif" font-size="14" lengthAdjust="spacing" textLength="113" x="567" y="43.9951">COMM_TXS_ESP</text></g><!--entity COMM_STATE_VM i--><g id="elem_COMM_STATE_VM i"><ellipse cx="1136.5" cy="14" fill="#F1F1F1" rx="8" ry="8" style="stroke:#181818;stroke-width:0.5;"/><text fill="#000000" font-family="sans-serif" font-size="14" lengthAdjust="spacing" textLength="132" x="1070.5" y="43.9951">COMM_STATE_VM i</text></g><!--entity COMM_STATE_VM i+1--><g id="elem_COMM_STATE_VM i+1"><ellipse cx="1329.5" cy="14" fill="#F1F1F1" rx="8" ry="8" style="stroke:#181818;stroke-width:0.5;"/><text fill="#000000" font-family="sans-serif" font-size="14" lengthAdjust="spacing" textLength="153" x="1253" y="43.9951">COMM_STATE_VM i+1</text></g><!--entity OUTPUT--><g id="elem_OUTPUT"><ellipse cx="681.5" cy="344.59" fill="#F1F1F1" rx="8" ry="8" style="stroke:#181818;stroke-width:0.5;"/><text fill="#000000" font-family="sans-serif" font-size="14" lengthAdjust="spacing" textLength="58" x="652.5" y="374.5851">OUTPUT</text></g><!--link BLOCK_COMM_ESP to EspCons--><g id="link_BLOCK_COMM_ESP_EspCons"><path d="M441.7,22.57 C422.78,38.85 382.1384,73.827 353.1484,98.767 " fill="none" id="BLOCK_COMM_ESP-to-EspCons" style="stroke:#181818;stroke-width:1.0;"/><polygon fill="#181818" points="348.6,102.68,358.0313,99.8428,352.3904,99.4192,352.814,93.7782,348.6,102.68" style="stroke:#181818;stroke-width:1.0;"/></g><!--link <b>STATE_SIGS_ESP</b> to EspCons--><g id="link_&lt;b&gt;STATE_SIGS_ESP&lt;/b&gt;_EspCons"><path d="M79.47,18.92 C109.63,32.1 203.4724,73.1165 265.4124,100.1965 " fill="none" id="&lt;b&gt;STATE_SIGS_ESP&lt;/b&gt;-to-EspCons" style="stroke:#181818;stroke-width:1.0;"/><polygon fill="#181818" points="270.91,102.6,264.266,95.3297,266.3287,100.5971,261.0613,102.6598,270.91,102.6" style="stroke:#181818;stroke-width:1.0;"/></g><!--link BLOCK_NUMBER_ESP to EspCons--><g id="link_BLOCK_NUMBER_ESP_EspCons"><path d="M264.03,22.92 C273.45,39.39 292.4798,72.6725 306.6498,97.4325 " fill="none" id="BLOCK_NUMBER_ESP-to-EspCons" style="stroke:#181818;stroke-width:1.0;"/><polygon fill="#181818" points="309.63,102.64,308.6313,92.8419,307.1465,98.3004,301.688,96.8155,309.63,102.64" style="stroke:#181818;stroke-width:1.0;"/></g><!--link BLOCK_COMM_ESP to CF--><g id="link_BLOCK_COMM_ESP_CF"><path d="M459.29,22.22 C478.8,38.26 521.7451,73.5599 552.3151,98.6899 " fill="none" id="BLOCK_COMM_ESP-to-CF" style="stroke:#181818;stroke-width:1.0;"/><polygon fill="#181818" points="556.95,102.5,552.5377,93.6948,553.0875,99.3249,547.4575,99.8747,556.95,102.5" style="stroke:#181818;stroke-width:1.0;"/></g><!--link <b>ROLLUP_TXS</b> to CE--><g id="link_&lt;b&gt;ROLLUP_TXS&lt;/b&gt;_CE"><path d="M779.5,22.92 C779.5,39.39 779.5,71.88 779.5,96.64 " fill="none" id="&lt;b&gt;ROLLUP_TXS&lt;/b&gt;-to-CE" style="stroke:#181818;stroke-width:1.0;"/><polygon fill="#181818" points="779.5,102.64,783.5,93.64,779.5,97.64,775.5,93.64,779.5,102.64" style="stroke:#181818;stroke-width:1.0;"/></g><!--link COMM_TXS_ROLLUP to CE--><g id="link_COMM_TXS_ROLLUP_CE"><path d="M940.84,20.61 C917.83,35.52 859.2649,73.4566 819.1349,99.4666 " fill="none" id="COMM_TXS_ROLLUP-to-CE" style="stroke:#181818;stroke-width:1.0;"/><polygon fill="#181818" points="814.1,102.73,823.828,101.1916,818.2958,100.0105,819.4768,94.4783,814.1,102.73" style="stroke:#181818;stroke-width:1.0;"/></g><!--link COMM_TXS_ESP to CE--><g id="link_COMM_TXS_ESP_CE"><path d="M632.33,21.23 C654.12,36.62 706.3792,73.5085 742.7092,99.1685 " fill="none" id="COMM_TXS_ESP-to-CE" style="stroke:#181818;stroke-width:1.0;"/><polygon fill="#181818" points="747.61,102.63,742.5664,94.1706,743.526,99.7454,737.9511,100.705,747.61,102.63" style="stroke:#181818;stroke-width:1.0;"/></g><!--link COMM_TXS_ESP to CF--><g id="link_COMM_TXS_ESP_CF"><path d="M620.7,22.92 C614.86,39.39 603.2433,72.2243 594.4733,96.9843 " fill="none" id="COMM_TXS_ESP-to-CF" style="stroke:#181818;stroke-width:1.0;"/><polygon fill="#181818" points="592.47,102.64,599.2453,95.4919,594.1394,97.9269,591.7044,92.8209,592.47,102.64" style="stroke:#181818;stroke-width:1.0;"/></g><!--link COMM_STATE_VM i to ZK--><g id="link_COMM_STATE_VM i_ZK"><path d="M1129.74,22.92 C1115.68,39.39 1086.7359,73.3169 1065.5959,98.0769 " fill="none" id="COMM_STATE_VM i-to-ZK" style="stroke:#181818;stroke-width:1.0;"/><polygon fill="#181818" points="1061.7,102.64,1070.586,98.3927,1064.9466,98.8374,1064.5019,93.1981,1061.7,102.64" style="stroke:#181818;stroke-width:1.0;"/></g><!--link COMM_STATE_VM i+1 to ZK--><g id="link_COMM_STATE_VM i+1_ZK"><path d="M1320.6,18.41 C1284.64,32.21 1154.4717,82.1703 1086.8517,108.1203 " fill="none" id="COMM_STATE_VM i+1-to-ZK" style="stroke:#181818;stroke-width:1.0;"/><polygon fill="#181818" points="1081.25,110.27,1091.0857,110.7799,1085.9181,108.4786,1088.2194,103.311,1081.25,110.27" style="stroke:#181818;stroke-width:1.0;"/></g><!--link COMM_TXS_ROLLUP to ZK--><g id="link_COMM_TXS_ROLLUP_ZK"><path d="M956.19,22.92 C970.1,39.39 998.7187,73.296 1019.6287,98.056 " fill="none" id="COMM_TXS_ROLLUP-to-ZK" style="stroke:#181818;stroke-width:1.0;"/><polygon fill="#181818" points="1023.5,102.64,1020.7491,93.1831,1020.274,98.82,1014.6371,98.3448,1023.5,102.64" style="stroke:#181818;stroke-width:1.0;"/></g><!--link EspCons to AND--><g id="link_EspCons_AND"><path d="M400.4,149.78 C476.7,171.94 583.7584,203.0457 640.4684,219.5257 " fill="none" id="EspCons-to-AND" style="stroke:#181818;stroke-width:1.0;"/><polygon fill="#181818" points="646.23,221.2,638.7038,214.8474,641.4286,219.8047,636.4713,222.5296,646.23,221.2" style="stroke:#181818;stroke-width:1.0;"/></g><!--link ZK to AND--><g id="link_ZK_AND"><path d="M1003.52,138.41 C932.88,158.82 790.4743,199.9547 722.5943,219.5647 " fill="none" id="ZK-to-AND" style="stroke:#181818;stroke-width:1.0;"/><polygon fill="#181818" points="716.83,221.23,726.5866,222.575,721.6336,219.8423,724.3662,214.8893,716.83,221.23" style="stroke:#181818;stroke-width:1.0;"/></g><!--link CE to AND--><g id="link_CE_AND"><path d="M758.24,149.78 C741.8,167.27 723.2593,186.9981 706.8293,204.4781 " fill="none" id="CE-to-AND" style="stroke:#181818;stroke-width:1.0;"/><polygon fill="#181818" points="702.72,208.85,711.7986,205.0317,706.1444,205.2067,705.9693,199.5526,702.72,208.85" style="stroke:#181818;stroke-width:1.0;"/></g><!--link CF to AND--><g id="link_CF_AND"><path d="M605.55,149.78 C621.82,167.27 640.1434,186.9768 656.4034,204.4568 " fill="none" id="CF-to-AND" style="stroke:#181818;stroke-width:1.0;"/><polygon fill="#181818" points="660.49,208.85,657.2889,199.5359,657.0845,205.189,651.4314,204.9846,660.49,208.85" style="stroke:#181818;stroke-width:1.0;"/></g><!--link AND to OUTPUT--><g id="link_AND_OUTPUT"><path d="M681.5,256 C681.5,280.8 681.5,313.3 681.5,329.73 " fill="none" id="AND-to-OUTPUT" style="stroke:#181818;stroke-width:1.0;"/><polygon fill="#181818" points="681.5,335.73,685.5,326.73,681.5,330.73,677.5,326.73,681.5,335.73" style="stroke:#181818;stroke-width:1.0;"/></g><!--SRC=[RL31Yi8m4BtFLuGUl8WitgMWsNIHDhQOL1RB4ghaK2oj6lNWrpj9DBAxlIHltdlpPfAAcUDP6zCJsdT6T-PgVaXj2DAMW8hsRQlt5p8YITDUzDcfD44XvnnzfsjpgrlTxRLN65JprQV3U0DKzyE6ktARmYBBQQfifsAY89D970P5irqiv5mo9PPVmigpZrqS_VBuzbN95spzBs0e7FUqkUiyoyf2oM_npiH5mNcHLTxmuWCTOeQu121ohDzwmqdZa_6TVuNnD4X3Cv66vpC8blRVjgbJBAJi3PC00GzNvAKiIWdm0000]--></g></svg>