<?xml version="1.0" encoding="us-ascii" standalone="no"?><svg xmlns="http://www.w3.org/2000/svg" xmlns:xlink="http://www.w3.org/1999/xlink" contentStyleType="text/css" height="383px" preserveAspectRatio="none" style="width:1522px;height:383px;background:#FFFFFF;" version="1.1" viewBox="0 0 1522 383" width="1522px" zoomAndPan="magnify"><defs/><g><!--entity EspCons--><g id="elem_EspCons"><rect fill="#F1F1F1" height="46.2969" rx="2.5" ry="2.5" style="stroke:#181818;stroke-width:0.5;" width="188" x="187.5" y="103"/><rect fill="#F1F1F1" height="10" style="stroke:#181818;stroke-width:0.5;" width="15" x="355.5" y="108"/><rect fill="#F1F1F1" height="2" style="stroke:#181818;stroke-width:0.5;" width="4" x="353.5" y="110"/><rect fill="#F1F1F1" height="2" style="stroke:#181818;stroke-width:0.5;" width="4" x="353.5" y="114"/><text fill="#000000" font-family="sans-serif" font-size="14" lengthAdjust="spacing" textLength="148" x="202.5" y="135.9951">Espresso Consensus</text></g><!--entity CF--><g id="elem_CF"><rect fill="#F1F1F1" height="46.2969" rx="2.5" ry="2.5" style="stroke:#181818;stroke-width:0.5;" width="140" x="588.5" y="103"/><rect fill="#F1F1F1" height="10" style="stroke:#181818;stroke-width:0.5;" width="15" x="708.5" y="108"/><rect fill="#F1F1F1" height="2" style="stroke:#181818;stroke-width:0.5;" width="4" x="706.5" y="110"/><rect fill="#F1F1F1" height="2" style="stroke:#181818;stroke-width:0.5;" width="4" x="706.5" y="114"/><text fill="#000000" font-family="sans-serif" font-size="14" lengthAdjust="spacing" textLength="100" x="603.5" y="135.9951">Collect &amp; Filter</text></g><!--entity CE--><g id="elem_CE"><rect fill="#F1F1F1" height="46.2969" rx="2.5" ry="2.5" style="stroke:#181818;stroke-width:0.5;" width="180" x="832.5" y="103"/><rect fill="#F1F1F1" height="10" style="stroke:#181818;stroke-width:0.5;" width="15" x="992.5" y="108"/><rect fill="#F1F1F1" height="2" style="stroke:#181818;stroke-width:0.5;" width="4" x="990.5" y="110"/><rect fill="#F1F1F1" height="2" style="stroke:#181818;stroke-width:0.5;" width="4" x="990.5" y="114"/><text fill="#000000" font-family="sans-serif" font-size="14" lengthAdjust="spacing" textLength="140" x="847.5" y="135.9951">COMMs Equivalence</text></g><!--entity AND--><g id="elem_AND"><rect fill="#F1F1F1" height="46.2969" rx="2.5" ry="2.5" style="stroke:#181818;stroke-width:0.5;" width="70" x="789.5" y="209.29"/><rect fill="#F1F1F1" height="10" style="stroke:#181818;stroke-width:0.5;" width="15" x="839.5" y="214.29"/><rect fill="#F1F1F1" height="2" style="stroke:#181818;stroke-width:0.5;" width="4" x="837.5" y="216.29"/><rect fill="#F1F1F1" height="2" style="stroke:#181818;stroke-width:0.5;" width="4" x="837.5" y="220.29"/><text fill="#000000" font-family="sans-serif" font-size="14" lengthAdjust="spacing" textLength="30" x="804.5" y="242.2851">AND</text></g><!--entity ZK--><g id="elem_ZK"><rect fill="#F1F1F1" height="46.2969" rx="2.5" ry="2.5" style="stroke:#181818;stroke-width:0.5;" width="77" x="1115" y="103"/><rect fill="#F1F1F1" height="10" style="stroke:#181818;stroke-width:0.5;" width="15" x="1172" y="108"/><rect fill="#F1F1F1" height="2" style="stroke:#181818;stroke-width:0.5;" width="4" x="1170" y="110"/><rect fill="#F1F1F1" height="2" style="stroke:#181818;stroke-width:0.5;" width="4" x="1170" y="114"/><text fill="#000000" font-family="sans-serif" font-size="14" lengthAdjust="spacing" textLength="37" x="1130" y="135.9951">zkVM</text></g><!--entity blk_cm_new--><g id="elem_blk_cm_new"><ellipse cx="356.5" cy="14" fill="#F1F1F1" rx="8" ry="8" style="stroke:#181818;stroke-width:0.5;"/><text fill="#000000" font-family="sans-serif" font-size="14" lengthAdjust="spacing" textLength="84" x="314.5" y="43.9951">blk_cm_new</text></g><!--entity <b>STATE_SIGS</b>--><g id="elem_&lt;b&gt;STATE_SIGS&lt;/b&gt;"><ellipse cx="52.5" cy="14" fill="#F1F1F1" rx="8" ry="8" style="stroke:#181818;stroke-width:0.5;"/><text fill="#000000" font-family="sans-serif" font-size="14" font-weight="bold" lengthAdjust="spacing" textLength="93" x="6" y="43.9951">STATE_SIGS</text></g><!--entity BLOCK_NUMBER--><g id="elem_BLOCK_NUMBER"><ellipse cx="206.5" cy="14" fill="#F1F1F1" rx="8" ry="8" style="stroke:#181818;stroke-width:0.5;"/><text fill="#000000" font-family="sans-serif" font-size="14" lengthAdjust="spacing" textLength="115" x="149" y="43.9951">BLOCK_NUMBER</text></g><!--entity blk_cm_old--><g id="elem_blk_cm_old"><ellipse cx="487.5" cy="14" fill="#F1F1F1" rx="8" ry="8" style="stroke:#181818;stroke-width:0.5;"/><text fill="#000000" font-family="sans-serif" font-size="14" lengthAdjust="spacing" textLength="76" x="449.5" y="43.9951">blk_cm_old</text></g><!--entity <b>PROOF_TXS_HISTORY</b>--><g id="elem_&lt;b&gt;PROOF_TXS_HISTORY&lt;/b&gt;"><ellipse cx="658.5" cy="14" fill="#F1F1F1" rx="8" ry="8" style="stroke:#181818;stroke-width:0.5;"/><text fill="#000000" font-family="sans-serif" font-size="14" font-weight="bold" lengthAdjust="spacing" textLength="164" x="576.5" y="43.9951">PROOF_TXS_HISTORY</text></g><!--entity <b>ROLLUP_TXS</b>--><g id="elem_&lt;b&gt;ROLLUP_TXS&lt;/b&gt;"><ellipse cx="1007.5" cy="14" fill="#F1F1F1" rx="8" ry="8" style="stroke:#181818;stroke-width:0.5;"/><text fill="#000000" font-family="sans-serif" font-size="14" font-weight="bold" lengthAdjust="spacing" textLength="98" x="958.5" y="43.9951">ROLLUP_TXS</text></g><!--entity cm_txs_rollup--><g id="elem_cm_txs_rollup"><ellipse cx="1153.5" cy="14" fill="#F1F1F1" rx="8" ry="8" style="stroke:#181818;stroke-width:0.5;"/><text fill="#000000" font-family="sans-serif" font-size="14" lengthAdjust="spacing" textLength="93" x="1107" y="43.9951">cm_txs_rollup</text></g><!--entity <b>cm_txs_history</b>--><g id="elem_&lt;b&gt;cm_txs_history&lt;/b&gt;"><ellipse cx="849.5" cy="14" fill="#F1F1F1" rx="8" ry="8" style="stroke:#181818;stroke-width:0.5;"/><text fill="#000000" font-family="sans-serif" font-size="14" font-weight="bold" lengthAdjust="spacing" textLength="116" x="791.5" y="43.9951">cm_txs_history</text></g><!--entity cm_state_vm i--><g id="elem_cm_state_vm i"><ellipse cx="1298.5" cy="14" fill="#F1F1F1" rx="8" ry="8" style="stroke:#181818;stroke-width:0.5;"/><text fill="#000000" font-family="sans-serif" font-size="14" lengthAdjust="spacing" textLength="97" x="1250" y="43.9951">cm_state_vm i</text></g><!--entity cm_state_vm i+1--><g id="elem_cm_state_vm i+1"><ellipse cx="1456.5" cy="14" fill="#F1F1F1" rx="8" ry="8" style="stroke:#181818;stroke-width:0.5;"/><text fill="#000000" font-family="sans-serif" font-size="14" lengthAdjust="spacing" textLength="118" x="1397.5" y="43.9951">cm_state_vm i+1</text></g><!--entity OUTPUT--><g id="elem_OUTPUT"><ellipse cx="824.5" cy="344.59" fill="#F1F1F1" rx="8" ry="8" style="stroke:#181818;stroke-width:0.5;"/><text fill="#000000" font-family="sans-serif" font-size="14" lengthAdjust="spacing" textLength="58" x="795.5" y="374.5851">OUTPUT</text></g><!--link blk_cm_new to EspCons--><g id="link_blk_cm_new_EspCons"><path d="M351.11,22.92 C339.89,39.39 317.057,72.9206 300.197,97.6806 " fill="none" id="blk_cm_new-to-EspCons" style="stroke:#181818;stroke-width:1.0;"/><polygon fill="#181818" points="296.82,102.64,305.1918,97.4523,299.6342,98.5072,298.5793,92.9495,296.82,102.64" style="stroke:#181818;stroke-width:1.0;"/></g><!--link <b>STATE_SIGS</b> to EspCons--><g id="link_&lt;b&gt;STATE_SIGS&lt;/b&gt;_EspCons"><path d="M61.48,19.31 C89.84,32.96 173.5427,73.2197 229.2727,100.0197 " fill="none" id="&lt;b&gt;STATE_SIGS&lt;/b&gt;-to-EspCons" style="stroke:#181818;stroke-width:1.0;"/><polygon fill="#181818" points="234.68,102.62,228.3026,95.1147,230.174,100.4531,224.8356,102.3244,234.68,102.62" style="stroke:#181818;stroke-width:1.0;"/></g><!--link BLOCK_NUMBER to EspCons--><g id="link_BLOCK_NUMBER_EspCons"><path d="M211.89,22.92 C223.11,39.39 245.943,72.9206 262.803,97.6806 " fill="none" id="BLOCK_NUMBER-to-EspCons" style="stroke:#181818;stroke-width:1.0;"/><polygon fill="#181818" points="266.18,102.64,264.4207,92.9495,263.3658,98.5072,257.8082,97.4523,266.18,102.64" style="stroke:#181818;stroke-width:1.0;"/></g><!--link blk_cm_old to CF--><g id="link_blk_cm_old_CF"><path d="M496.22,20.61 C519.36,35.52 578.2862,73.4703 618.6562,99.4803 " fill="none" id="blk_cm_old-to-CF" style="stroke:#181818;stroke-width:1.0;"/><polygon fill="#181818" points="623.7,102.73,618.3008,94.493,619.4968,100.022,613.9679,101.218,623.7,102.73" style="stroke:#181818;stroke-width:1.0;"/></g><!--link blk_cm_new to CF--><g id="link_blk_cm_new_CF"><path d="M365.11,18.79 C377.8,24.33 402.31,34.87 423.5,43 C479.29,64.38 537.6763,84.7077 584.8063,100.6477 " fill="none" id="blk_cm_new-to-CF" style="stroke:#181818;stroke-width:1.0;"/><polygon fill="#181818" points="590.49,102.57,583.246,95.8974,585.7536,100.9681,580.6829,103.4757,590.49,102.57" style="stroke:#181818;stroke-width:1.0;"/></g><!--link <b>PROOF_TXS_HISTORY</b> to CF--><g id="link_&lt;b&gt;PROOF_TXS_HISTORY&lt;/b&gt;_CF"><path d="M658.5,22.92 C658.5,39.39 658.5,71.88 658.5,96.64 " fill="none" id="&lt;b&gt;PROOF_TXS_HISTORY&lt;/b&gt;-to-CF" style="stroke:#181818;stroke-width:1.0;"/><polygon fill="#181818" points="658.5,102.64,662.5,93.64,658.5,97.64,654.5,93.64,658.5,102.64" style="stroke:#181818;stroke-width:1.0;"/></g><!--link <b>ROLLUP_TXS</b> to CE--><g id="link_&lt;b&gt;ROLLUP_TXS&lt;/b&gt;_CE"><path d="M1001.39,22.92 C988.67,39.39 962.6472,73.1311 943.5272,97.8911 " fill="none" id="&lt;b&gt;ROLLUP_TXS&lt;/b&gt;-to-CE" style="stroke:#181818;stroke-width:1.0;"/><polygon fill="#181818" points="939.86,102.64,948.5267,97.9614,942.916,98.6826,942.1948,93.0719,939.86,102.64" style="stroke:#181818;stroke-width:1.0;"/></g><!--link <b>ROLLUP_TXS</b> to ZK--><g id="link_&lt;b&gt;ROLLUP_TXS&lt;/b&gt;_ZK"><path d="M1016.2,21.56 C1036.88,37.16 1085.0304,73.4862 1118.8004,98.9662 " fill="none" id="&lt;b&gt;ROLLUP_TXS&lt;/b&gt;-to-ZK" style="stroke:#181818;stroke-width:1.0;"/><polygon fill="#181818" points="1123.59,102.58,1118.8148,93.9662,1119.5987,99.5685,1113.9964,100.3523,1123.59,102.58" style="stroke:#181818;stroke-width:1.0;"/></g><!--link cm_txs_rollup to CE--><g id="link_cm_txs_rollup_CE"><path d="M1144.73,19.18 C1116.46,32.66 1031.7455,73.047 975.3255,99.957 " fill="none" id="cm_txs_rollup-to-CE" style="stroke:#181818;stroke-width:1.0;"/><polygon fill="#181818" points="969.91,102.54,979.7553,102.2759,974.423,100.3875,976.3113,95.0551,969.91,102.54" style="stroke:#181818;stroke-width:1.0;"/></g><!--link <b>cm_txs_history</b> to CE--><g id="link_&lt;b&gt;cm_txs_history&lt;/b&gt;_CE"><path d="M854.75,22.92 C865.67,39.39 887.8539,72.8796 904.2739,97.6396 " fill="none" id="&lt;b&gt;cm_txs_history&lt;/b&gt;-to-CE" style="stroke:#181818;stroke-width:1.0;"/><polygon fill="#181818" points="907.59,102.64,905.9495,92.9287,904.8266,98.473,899.2823,97.3502,907.59,102.64" style="stroke:#181818;stroke-width:1.0;"/></g><!--link <b>cm_txs_history</b> to CF--><g id="link_&lt;b&gt;cm_txs_history&lt;/b&gt;_CF"><path d="M840.54,20.16 C815.39,34.66 748.1876,73.4224 702.6376,99.6924 " fill="none" id="&lt;b&gt;cm_txs_history&lt;/b&gt;-to-CF" style="stroke:#181818;stroke-width:1.0;"/><polygon fill="#181818" points="697.44,102.69,707.2347,101.6587,701.7713,100.192,703.2379,94.7286,697.44,102.69" style="stroke:#181818;stroke-width:1.0;"/></g><!--link cm_state_vm i to ZK--><g id="link_cm_state_vm i_ZK"><path d="M1289.86,21.56 C1269.32,37.16 1221.5177,73.4704 1187.9777,98.9504 " fill="none" id="cm_state_vm i-to-ZK" style="stroke:#181818;stroke-width:1.0;"/><polygon fill="#181818" points="1183.2,102.58,1192.7862,100.3208,1187.1814,99.5554,1187.9468,93.9505,1183.2,102.58" style="stroke:#181818;stroke-width:1.0;"/></g><!--link cm_state_vm i+1 to ZK--><g id="link_cm_state_vm i+1_ZK"><path d="M1447.76,18.17 C1410.5,31.72 1269.2491,83.0704 1198.1291,108.9204 " fill="none" id="cm_state_vm i+1-to-ZK" style="stroke:#181818;stroke-width:1.0;"/><polygon fill="#181818" points="1192.49,110.97,1202.315,111.6549,1197.1892,109.262,1199.5822,104.1362,1192.49,110.97" style="stroke:#181818;stroke-width:1.0;"/></g><!--link cm_txs_rollup to ZK--><g id="link_cm_txs_rollup_ZK"><path d="M1153.5,22.92 C1153.5,39.39 1153.5,71.88 1153.5,96.64 " fill="none" id="cm_txs_rollup-to-ZK" style="stroke:#181818;stroke-width:1.0;"/><polygon fill="#181818" points="1153.5,102.64,1157.5,93.64,1153.5,97.64,1149.5,93.64,1153.5,102.64" style="stroke:#181818;stroke-width:1.0;"/></g><!--link EspCons to AND--><g id="link_EspCons_AND"><path d="M375.77,145.25 C498.32,168.79 700.5177,207.6284 783.2077,223.5084 " fill="none" id="EspCons-to-AND" style="stroke:#181818;stroke-width:1.0;"/><polygon fill="#181818" points="789.1,224.64,781.0159,219.0144,784.1897,223.697,779.5071,226.8709,789.1,224.64" style="stroke:#181818;stroke-width:1.0;"/></g><!--link ZK to AND--><g id="link_ZK_AND"><path d="M1114.79,139.42 C1050.25,159.88 927.3193,198.8464 865.2893,218.5164 " fill="none" id="ZK-to-AND" style="stroke:#181818;stroke-width:1.0;"/><polygon fill="#181818" points="859.57,220.33,869.3581,221.4224,864.3361,218.8186,866.9399,213.7967,859.57,220.33" style="stroke:#181818;stroke-width:1.0;"/></g><!--link CE to AND--><g id="link_CE_AND"><path d="M901.24,149.78 C884.8,167.27 866.2593,186.9981 849.8293,204.4781 " fill="none" id="CE-to-AND" style="stroke:#181818;stroke-width:1.0;"/><polygon fill="#181818" points="845.72,208.85,854.7986,205.0317,849.1444,205.2067,848.9693,199.5526,845.72,208.85" style="stroke:#181818;stroke-width:1.0;"/></g><!--link CF to AND--><g id="link_CF_AND"><path d="M694.52,149.78 C722.55,167.39 756.1695,188.5081 784.0395,206.0181 " fill="none" id="CF-to-AND" style="stroke:#181818;stroke-width:1.0;"/><polygon fill="#181818" points="789.12,209.21,783.6272,201.0351,784.8863,206.55,779.3713,207.8091,789.12,209.21" style="stroke:#181818;stroke-width:1.0;"/></g><!--link AND to OUTPUT--><g id="link_AND_OUTPUT"><path d="M824.5,256 C824.5,280.8 824.5,313.3 824.5,329.73 " fill="none" id="AND-to-OUTPUT" style="stroke:#181818;stroke-width:1.0;"/><polygon fill="#181818" points="824.5,335.73,828.5,326.73,824.5,330.73,820.5,326.73,824.5,335.73" style="stroke:#181818;stroke-width:1.0;"/></g><!--SRC=[TP5TJuCm58Rl-oiQBhmnY_5-8Tcmw0Ai18hH4TC0Df6iWqdB_FZrdbPamsKtxNlESthUqpOdQjy9fLhijOqIZUhL2ouKXhH9eDnhfHILnbVOhwKMdQMU3u164TIzz_MXaAAfn2yXA5-ixwo67Q7yU_iOsN0Je59kURNZZVZ0ivaxcZZpqatPWX6UhkxJ-KtfEXE-3AaNy7KMBKao0UYlOojVBO31_db0nhIF4qfzpfvI_h1A6KsUZov3HKB3C8jDoGaY5n7S1e6D_bIyWoVgzwS71l1MAzrsNsVzBc8V8GUWqeKM_B33zUWrJL_VZk1y1ZFPy40OGlCBcy0I8probFue4Imse1cBCuRG3m00]--></g></svg>