<svg width="40" height="40" viewBox="0 0 40 40" fill="none" xmlns="http://www.w3.org/2000/svg"><path fill-rule="evenodd" clip-rule="evenodd" d="M.00955504 17.8742c.00016457.1972.06150866.3894.17556696.5502.114058.1608.275208.2822.461209.3475L16.2781 24.2476c.0982.0344.2032.0447.3063.0302.103-.0146.2011-.0536.286-.1138.0848-.0602.1541-.1399.2018-.2323.0478-.0925.0728-.195.0728-.2991v-8.3742l22.2177-7.7899c.1863-.06527.3477-.18681.4618-.34782.1142-.16101.1756-.35352.1756-.55091 0-.19738-.0614-.38989-.1756-.5509-.1141-.16101-.2755-.28255-.4618-.34782L23.4949.107116c-.4081-.1428213-.8526-.1428213-1.2607 0L.648315 7.67582c-.186346.06519-.347823.1867-.462083.34772-.1142599.16101-.1756537.35356-.1756849.551 0 0-.00198392 7.06086-.00099206 9.29966Z" fill="#000"/><path fill-rule="evenodd" clip-rule="evenodd" d="M39.9905 22.1258c-.0012-.1964-.0632-.3876-.1774-.5475-.1142-.1598-.275-.2804-.4604-.3453L23.722 15.7574c-.0983-.0344-.2033-.0447-.3063-.0302-.1031.0146-.2011.0536-.286.1138-.0849.0602-.1541.1399-.2019.2323-.0478.0925-.0727.195-.0727.2991v8.3692L.637338 32.5315c-.186266.0653-.34765.1869-.461828.3479-.1141792.161-.17551.3535-.17551.5509 0 .1974.0613308.3899.17551.5509.114178.161.275562.2825.461828.3478L16.5072 39.8929c.4077.1428.8519.1428 1.2596 0l21.5869-7.5687c.1863-.0652.3476-.1868.4617-.3478.1141-.161.1753-.3535.1751-.5509 0 0 .001-7.0608 0-9.2997Z" fill="#000"/></svg>